<svg width="450" height="288" viewBox="0 0 450 288" fill="none" xmlns="http://www.w3.org/2000/svg">
<g clip-path="url(#clip0_232_442)">
<rect width="450" height="288" fill="#B4D2FF"/>
<path d="M-93 40.9995H540V298H-93V40.9995Z" fill="#F7F6E9"/>
<path d="M138.5 53.2759C196.504 58.904 245.494 59.1176 329.999 71.4995C373.211 77.8309 375.999 91.9995 463.999 118C493.7 175.015 478.778 275.968 448 296.5L-40.5006 306L-24.4988 53.2759H-24.4974C-24.4974 53.2759 -82.6617 21.5011 -24.4956 29.9995C197.001 62.3613 321.524 14.6628 321.524 14.6628C321.524 14.6628 333.168 19.3113 341.025 20.5724C369.923 25.2103 402.953 15.8318 430 7.99951L479.534 20.9141L488 46.9995C424.64 45.8817 341.025 46.9995 341.025 46.9995C341.025 46.9995 80.4964 47.6478 138.5 53.2759Z" fill="#C39C62" fill-opacity="0.3"/>
<path d="M138.5 53.2759C196.504 58.904 245.494 59.1176 329.999 71.4995C373.211 77.8309 375.999 91.9995 463.999 118C493.7 175.015 478.778 275.968 448 296.5L-40.5006 306L-24.4988 53.2759H-24.4974C-24.4974 53.2759 -82.6617 21.5011 -24.4956 29.9995C197.001 62.3613 321.524 14.6628 321.524 14.6628C321.524 14.6628 333.168 19.3113 341.025 20.5724C369.923 25.2103 402.953 15.8318 430 7.99951L479.534 20.9141L488 46.9995C424.64 45.8817 341.025 46.9995 341.025 46.9995C341.025 46.9995 80.4964 47.6478 138.5 53.2759Z" fill="url(#paint0_linear_232_442)" fill-opacity="0.2"/>
<path d="M220.425 90.7813C213.895 104.66 176.016 127.913 101.773 138L162.5 202.5L-84.5 267L-170 240.5L-166 40.9995H227.442C293.009 45.8177 40.1159 42.361 24.5 52.9995C4.98007 66.2977 232.938 64.185 220.425 90.7813Z" fill="#688ACD"/>
<path d="M56 48.9995C15.9521 53.6406 27.2034 56.253 63.7802 60.0393C123.834 66.2559 297.771 70.8841 247.029 90.0129C205.48 105.677 275.088 149.754 302 153.5C339.906 158.775 256.742 156.021 157.5 200.765C132.198 212.173 452.5 207.5 432.5 244.5C387.457 327.828 225 344 225 344H-103L-80 256L133 200.765L92.5 170.5C92.5 170.5 98.8521 115.152 182.452 93.107C284.574 66.1776 23.3175 75.0346 -16 54.9995C-38.8293 43.3663 297.594 45.4981 239.524 41.9995C308.106 46.1314 88.0383 45.2867 56 48.9995Z" fill="#85A5E0" fill-opacity="0.46"/>
<path d="M147 19.4995L133 20.4995L147 17.4995L155.5 12.9995L147 19.4995Z" fill="white"/>
<path d="M103.5 12.4995L117.5 13.4995L103.5 10.4995L92.5 4.99951L103.5 12.4995Z" fill="white"/>
<path d="M74.5788 16.2615L88.1055 12.516L73.9091 14.377L60.9975 12.9997L74.5788 16.2615Z" fill="white"/>
<path d="M430 4L450.818 11.0294C461.386 14.5977 468.5 24.509 468.5 35.663V41.5H212.5H-5V25.5C-5 25.5 84.8025 37.2612 143 37.5C212.015 37.7831 324.5 11.5 324.5 11.5C324.5 11.5 337.77 18.7922 352.5 20C384.132 22.5938 430 4 430 4Z" fill="#BAC2CF"/>
<path d="M294.537 94.8193L284.39 113.987L265.638 124.59C260.951 127.24 255.109 126.69 251 123.211L279.804 99.9214L284.39 81.0192L297 73L294.537 94.8193Z" fill="#C38562"/>
<path d="M263.585 122.35L276.171 115.461M294.537 94.8193L284.39 113.987L265.638 124.59C260.951 127.24 255.109 126.69 251 123.211L279.804 99.9214L284.39 81.0192L297 73L294.537 94.8193Z" stroke="black" stroke-linecap="round" stroke-linejoin="round"/>
<path d="M345.427 181.515L361 209L366.5 224C367.611 225.945 366.964 228.422 365.043 229.574L358.5 233.5L343.133 233.5C341.25 233.5 340.411 231.135 341.872 229.948L353.5 220.5L329.631 188.141L324.795 174.001L345.427 181.515Z" fill="#C38562" stroke="black" stroke-linecap="round" stroke-linejoin="round"/>
<path d="M297.316 62.568L297.752 57.7793" stroke="black" stroke-linecap="round"/>
<path d="M341.12 112.62L303.901 114.149L289.757 165.588L287.07 204.304L306.991 207.556L313.834 176.823L323.662 204.304L346.43 199.425L336.414 165.588L341.12 135.091V112.62Z" fill="#7B7B7B"/>
<path d="M313.834 176.823L323.662 204.304L346.43 199.425L336.414 165.588L341.12 135.091V112.62L303.901 114.149L289.757 165.588L287.07 204.304L306.991 207.556L313.834 176.823ZM313.834 176.823L310.562 169.067L313.834 137.192" stroke="black" stroke-linecap="round" stroke-linejoin="round"/>
<path d="M342.154 184.462L346.43 199.425L323.662 204.304L313.834 176.823L306.991 207.556L287.07 204.304L289.478 170.096C290.516 176.946 298.174 180.551 304.114 176.986L315.599 170.096L313.834 176.823L317.84 180.769C324.294 187.127 334.103 188.617 342.154 184.462Z" fill="black" fill-opacity="0.3"/>
<path d="M325.704 43.512C331.251 50.4056 334.428 58.1014 335.101 64.9529C335.775 71.8093 333.941 77.7532 329.561 81.2775C325.181 84.8018 318.981 85.3209 312.428 83.1948C305.879 81.0703 299.042 76.3193 293.496 69.4256C287.95 62.532 284.773 54.8362 284.099 47.9847C283.426 41.1282 285.26 35.1838 289.64 31.6595C294.021 28.1355 300.219 27.6169 306.773 29.7428C313.321 31.8673 320.158 36.6184 325.704 43.512Z" fill="#CEA851" stroke="black"/>
<path d="M323.004 53L332.504 50M314.504 42L321.004 34M298.504 34L297.726 30.5M296.504 25L297.726 30.5M322.504 44.5C324.004 45.6667 327.404 49.2 329.004 54M324.504 51C325.004 51.5 326.204 53.6 327.004 58M291.504 33.5C291.985 32.5 293.904 30.5 297.726 30.5M297.726 30.5C297.726 30.5 300.36 30.2017 302.004 30.5C303.645 30.7979 306.004 32 306.004 32" stroke="black" stroke-linecap="round"/>
<path d="M314.347 50.1866C316.809 53.2477 318.212 56.6558 318.508 59.673C318.805 62.6953 317.993 65.2592 316.121 66.7652C314.249 68.2711 311.571 68.5157 308.682 67.5786C305.799 66.643 302.77 64.5434 300.307 61.4823C297.844 58.4213 296.442 55.0138 296.146 51.9967C295.849 48.9743 296.661 46.4106 298.533 44.9046C300.405 43.3985 303.083 43.154 305.972 44.0912C308.855 45.0267 311.884 47.1257 314.347 50.1866Z" fill="#987E44" stroke="black"/>
<path d="M280.103 115.687L273.798 107.353C271.485 104.296 272.062 99.947 275.092 97.5981L279.71 94.017L283.375 77.0539C283.834 74.9303 285.253 73.1402 287.216 72.2085L297.281 67.4304L309.266 59.7502C310.956 58.6672 313.03 58.3618 314.96 58.9116L331.477 63.6157C333.036 64.0598 334.393 65.0313 335.315 66.3645L356.59 97.1065C357.954 99.078 358.215 101.611 357.28 103.818L355.052 109.082C353.529 112.682 349.352 114.336 345.777 112.757L337.909 109.28C339.915 110.167 341.21 112.154 341.21 114.348H306.067L303.439 113.943C300.134 113.433 297.651 110.658 297.511 107.317L297.281 101.837L291.352 114.503C290.475 116.375 288.772 117.73 286.75 118.161C284.242 118.697 281.65 117.733 280.103 115.687Z" fill="#D9D9D9"/>
<path d="M297.281 101.837L291.352 114.503C290.475 116.375 288.772 117.73 286.75 118.161C284.242 118.697 281.65 117.733 280.103 115.687L273.798 107.353C271.485 104.296 272.062 99.947 275.092 97.5981L279.71 94.017M297.281 101.837L297.511 107.317C297.651 110.658 300.134 113.433 303.439 113.943L306.067 114.348H341.21C341.21 112.154 339.915 110.167 337.909 109.28L332.125 106.724M297.281 101.837L292.282 86.0998M332.125 106.724L345.777 112.757C349.352 114.336 353.529 112.682 355.052 109.082L357.28 103.818C358.215 101.611 357.954 99.078 356.59 97.1065L335.315 66.3645C334.393 65.0313 333.036 64.0598 331.477 63.6157L314.96 58.9116C313.03 58.3618 310.956 58.6672 309.266 59.7502L297.281 67.4304L287.216 72.2085C285.253 73.1402 283.834 74.9303 283.375 77.0539L279.71 94.017M332.125 106.724L331.187 95.4746M279.71 94.017L287.84 104.795M322.015 83.3389L331.187 95.4746M331.187 95.4746L343.577 96.5781" stroke="black" stroke-linecap="round" stroke-linejoin="round"/>
<path d="M303.599 84L321 57M303.599 84L297.5 73M303.599 84L305.949 93.314C306.234 94.4473 305.416 95.5602 304.249 95.6251C303.083 95.6899 302.146 94.6756 302.304 93.5181L303.599 84Z" stroke="black" stroke-linecap="round" stroke-linejoin="round"/>
<path d="M308.683 57.1358L314.308 61.8245L304.93 79.0166L299.198 72.4467L296.001 73.2165C293.414 73.8394 290.792 72.3271 290.036 69.7759L287.217 60.2616L284.612 57.1358C281.19 49.3756 286.213 40.5099 294.629 39.4579L297.089 39.1505C301.162 38.6412 305.07 40.9323 306.615 44.7358L308.638 49.7138C309.572 52.0132 309.617 54.5779 308.766 56.9092L308.683 57.1358Z" fill="#C38562" stroke="black" stroke-linecap="round" stroke-linejoin="round"/>
<path d="M291.722 56.6765L289.466 56.1001L292.639 55.4202C294.842 54.948 297.138 55.184 299.199 56.0942C296.839 57.1077 294.211 57.3124 291.722 56.6765Z" fill="#B9B9B9"/>
<path d="M283.57 59.741V58.6991C283.57 57.5482 284.503 56.6152 285.654 56.6152C285.898 56.6152 286.267 56.6795 286.696 56.8534L283.57 59.741Z" fill="#B9B9B9"/>
<path d="M299.72 72.2444L302.98 69.8737C304.533 68.7446 305.451 66.9409 305.451 65.0213V60.783M293.469 64.9508L290.864 65.9927C290.864 64.6035 290.551 61.304 289.301 59.2201C288.49 57.8684 287.489 57.1743 286.696 56.8534M292.427 62.3459L298.679 68.0766M286.696 56.8534C286.267 56.6795 285.898 56.6152 285.654 56.6152C284.503 56.6152 283.57 57.5482 283.57 58.6991V59.741L286.696 56.8534ZM292.427 58.1781L294.602 57.9364M297.637 58.444L294.602 57.9364M295.032 59.2201L294.602 57.9364M291.906 67.5556L297.637 67.0347M292.948 69.6395H296.074M303.888 57.6572L300.241 63.3879L301.283 67.0347M283.841 54.0104C284.362 54.5313 286.488 55.8859 287.738 55.0523C288.988 54.2187 290.567 53.2948 295.091 52.3501M283.57 51.8814C283.744 52.2287 285.091 54.0694 287.591 52.8191C290.092 51.5688 291.749 50.3115 291.749 50.3115M305.451 51.4055L304.93 54.0104C305.278 54.0104 305.972 54.2187 305.972 55.0523C305.972 55.8859 305.972 56.4416 305.972 56.6152M286.696 59.741L288.529 59.3812M293.469 59.3812C293.647 60.0062 294.315 61.2562 295.56 61.2562M288.529 62.6624C288.997 62.1937 288.997 61.4437 288.997 60.3187M289.466 56.1001L291.722 56.6765C294.211 57.3124 296.839 57.1077 299.199 56.0942C297.138 55.184 294.842 54.948 292.639 55.4202L289.466 56.1001Z" stroke="black" stroke-linecap="round" stroke-linejoin="round"/>
<path d="M307.532 50.3631C304.231 48.3207 303.159 50.397 303.159 54.5309L301.245 52.0474C299.99 50.4195 299.31 48.4191 299.31 46.3637C299.31 46.2925 299.304 46.2212 299.292 46.151C298.784 43.102 294.833 42.2065 293.06 44.7387L292.553 45.4625C291.768 46.5847 290.633 47.4149 289.325 47.8232L283.839 49.5366C276 48 282.845 43.8021 285.248 41.5685C289.718 37.4133 295.091 35.475 301.185 36.8814C309.122 38.7132 311.498 49.5366 309.335 57.684H307.532C308.377 56.0049 310.254 52.047 307.532 50.3631Z" fill="#B9B9B9" stroke="black" stroke-linejoin="round"/>
<path d="M300.246 72.0374L303.059 74.3811M305.402 65.0063V76.2561" stroke="black" stroke-linecap="round" stroke-linejoin="round"/>
<path d="M-41.1674 180.015L-156 76C37.2888 114.175 232.337 118.56 426 154.5L437.5 123.5L446.5 140L437.5 162L376.516 205.416C337.664 233.077 289.671 244.756 242.454 238.041L12.9472 205.401C-7.22134 202.533 -26.069 193.691 -41.1674 180.015Z" fill="#736C62" stroke="black" stroke-linecap="round" stroke-linejoin="round"/>
<path d="M446.5 132.5L437.5 123.5L446.5 140V132.5Z" fill="#998C7A" stroke="black" stroke-linecap="round"/>
<path d="M-96.5 110.499C-83.1667 114.666 -79.5 140.799 6.5 155.999C81.413 169.239 236.567 184.959 302.096 190.995C317.12 192.379 332.221 191.167 346.875 187.573L416.5 170.499C416.5 170.499 384.698 194.861 362 206.5C343.448 216.013 312.349 224.5 291.5 224.5C233 224.5 119.5 213.499 6.5 194.999C-22.4462 190.26 -69 165.499 -69 165.499L-86 144.999C-86 144.999 -30.7711 167.907 6.5 175.499C136.332 201.947 258.536 207.199 301.949 208.242C313.08 208.509 324.092 207.172 334.911 204.544L382.438 192.999" stroke="black"/>
<path d="M76.6774 147.136C6.61813 141.683 -92.2989 106.106 -133 88.999C-104.309 90.8701 -29.3123 95.8151 41.1473 100.626C111.607 105.438 309 133.5 425.5 154.5L357.494 166.38C328.588 171.429 299.111 171.985 269.999 168.301C212.401 161.014 130.572 151.33 76.6774 147.136Z" fill="#998C7A" stroke="black"/>
<path d="M-38 108L53.5 119M42 130L367 166.999M42 130L23.5 139M42 130L53.5 125.5V119M17.5 137.5L53.5 119" stroke="black" stroke-linecap="round" stroke-linejoin="round"/>
<path fill-rule="evenodd" clip-rule="evenodd" d="M71.2165 121.115L68 121L64.5742 145.342L87.3441 147.611V131.388C87.3441 127.402 85.3348 123.684 82 121.5L81.6527 121.488V121.5H79.0017L80.6312 130.43C81.163 133.344 78.9246 136.028 75.9624 136.028C73.3413 136.028 71.2165 133.903 71.2165 131.282V121.115Z" fill="#998C7A"/>
<path d="M71.2165 121.115H71.7165C71.7165 120.846 71.5034 120.625 71.2344 120.615L71.2165 121.115ZM68 121L68.0178 120.5C67.762 120.491 67.5406 120.677 67.5049 120.93L68 121ZM64.5742 145.342L64.0791 145.273C64.0601 145.408 64.0969 145.544 64.181 145.651C64.2651 145.758 64.3892 145.827 64.5247 145.84L64.5742 145.342ZM87.3441 147.611L87.2945 148.108C87.435 148.122 87.5749 148.076 87.6796 147.981C87.7843 147.887 87.8441 147.752 87.8441 147.611H87.3441ZM82 121.5L82.2739 121.082C82.1976 121.032 82.109 121.004 82.0178 121L82 121.5ZM81.6527 121.488L81.6705 120.988C81.5349 120.983 81.4032 121.034 81.3055 121.128C81.2078 121.222 81.1527 121.352 81.1527 121.488H81.6527ZM81.6527 121.5V122C81.9288 122 82.1527 121.776 82.1527 121.5H81.6527ZM79.0017 121.5V121C78.8533 121 78.7127 121.065 78.6177 121.179C78.5227 121.293 78.4832 121.443 78.5098 121.589L79.0017 121.5ZM80.6312 130.43L81.1231 130.34L81.1231 130.34L80.6312 130.43ZM71.2165 121.115L71.2344 120.615L68.0178 120.5L68 121L67.9822 121.5L71.1987 121.615L71.2165 121.115ZM68 121L67.5049 120.93L64.0791 145.273L64.5742 145.342L65.0693 145.412L68.4951 121.07L68 121ZM64.5742 145.342L64.5247 145.84L87.2945 148.108L87.3441 147.611L87.3936 147.113L64.6238 144.845L64.5742 145.342ZM87.3441 147.611H87.8441V131.388H87.3441H86.8441V147.611H87.3441ZM87.3441 131.388H87.8441C87.8441 127.233 85.7498 123.358 82.2739 121.082L82 121.5L81.7261 121.918C84.9198 124.01 86.8441 127.57 86.8441 131.388H87.3441ZM82 121.5L82.0178 121L81.6705 120.988L81.6527 121.488L81.6348 121.987L81.9822 122L82 121.5ZM81.6527 121.488H81.1527V121.5H81.6527H82.1527V121.488H81.6527ZM81.6527 121.5V121H79.0017V121.5V122H81.6527V121.5ZM79.0017 121.5L78.5098 121.589L80.1394 130.52L80.6312 130.43L81.1231 130.34L79.4935 121.41L79.0017 121.5ZM80.6312 130.43L80.1394 130.52C80.6151 133.127 78.6125 135.528 75.9624 135.528V136.028V136.528C79.2367 136.528 81.7109 133.561 81.1231 130.34L80.6312 130.43ZM75.9624 136.028V135.528C73.6175 135.528 71.7165 133.627 71.7165 131.282H71.2165H70.7165C70.7165 134.179 73.0652 136.528 75.9624 136.528V136.028ZM71.2165 131.282H71.7165V121.115H71.2165H70.7165V131.282H71.2165Z" fill="black"/>
<path fill-rule="evenodd" clip-rule="evenodd" d="M68.2165 120.971C64.2966 122.769 61.5742 126.729 61.5742 131.324V145.343L84.3441 147.611V131.324C84.3441 127.11 82.055 123.431 78.6527 121.463V130.81C78.6527 133.692 76.3165 136.028 73.4346 136.028C70.5527 136.028 68.2165 133.692 68.2165 130.81V120.971Z" fill="#736C62"/>
<path d="M68.2165 120.971H68.7165C68.7165 120.8 68.6298 120.642 68.4865 120.55C68.3431 120.458 68.1628 120.445 68.008 120.516L68.2165 120.971ZM61.5742 145.343H61.0742C61.0742 145.6 61.269 145.815 61.5247 145.84L61.5742 145.343ZM84.3441 147.611L84.2945 148.109C84.435 148.123 84.5749 148.077 84.6796 147.982C84.7843 147.887 84.8441 147.752 84.8441 147.611H84.3441ZM78.6527 121.463L78.9031 121.03C78.7484 120.94 78.5577 120.94 78.4029 121.029C78.2481 121.119 78.1527 121.284 78.1527 121.463H78.6527ZM68.2165 120.971L68.008 120.516C63.9171 122.393 61.0742 126.526 61.0742 131.324H61.5742H62.0742C62.0742 126.931 64.6762 123.145 68.425 121.425L68.2165 120.971ZM61.5742 131.324H61.0742V145.343H61.5742H62.0742V131.324H61.5742ZM61.5742 145.343L61.5247 145.84L84.2945 148.109L84.3441 147.611L84.3936 147.114L61.6238 144.845L61.5742 145.343ZM84.3441 147.611H84.8441V131.324H84.3441H83.8441V147.611H84.3441ZM84.3441 131.324H84.8441C84.8441 126.925 82.4536 123.084 78.9031 121.03L78.6527 121.463L78.4023 121.895C81.6565 123.778 83.8441 127.296 83.8441 131.324H84.3441ZM78.6527 121.463H78.1527V130.81H78.6527H79.1527V121.463H78.6527ZM78.6527 130.81H78.1527C78.1527 133.416 76.0403 135.528 73.4346 135.528V136.028V136.528C76.5926 136.528 79.1527 133.968 79.1527 130.81H78.6527ZM73.4346 136.028V135.528C70.8289 135.528 68.7165 133.416 68.7165 130.81H68.2165H67.7165C67.7165 133.968 70.2766 136.528 73.4346 136.528V136.028ZM68.2165 130.81H68.7165V120.971H68.2165H67.7165V130.81H68.2165Z" fill="black"/>
<path d="M-14.8524 42.9137L419.932 183.873C419.932 183.873 424.995 183.107 426.157 179.864C427.823 175.219 422.883 171.393 418.17 169.932L-6.86567 38.2462L-9.19721 37.7109C-12.3861 36.9787 -15.3168 39.6749 -14.8524 42.9137Z" fill="#998C7A" stroke="black" stroke-linecap="round" stroke-linejoin="round"/>
<path d="M29.0353 82.9123C10.8251 79.846 -8.1681 55.0296 -14.8516 42.9126L29.0353 54.5176L85.8964 66.3457L221.34 111.323L293.017 139.875L364.45 152.212L419.841 183.335C414.16 187.809 397.748 196.298 377.537 194.458C357.327 192.619 355.486 175.74 357.5 166C350.114 168.687 339.43 170.748 327.761 171.835C307.655 173.709 284.624 172.69 270.5 167C248.179 158.007 248.5 137 248.5 128.5C234.563 135.311 178.548 141.381 154.018 134.977C145.078 132.643 135.138 126.423 125.494 118.595C108.677 104.944 92.76 86.4017 84.6065 75.0393C79.3357 77.1765 70.5633 79.771 60.8522 81.5616C50.2541 83.5157 38.5381 84.5124 29.0353 82.9123Z" fill="#F7F6E9"/>
<path d="M419.841 183.335C414.16 187.809 397.748 196.298 377.537 194.458C357.327 192.619 355.486 175.74 357.5 166C337.387 173.318 292.821 175.992 270.5 167C248.179 158.007 248.5 137 248.5 128.5C234.563 135.311 178.548 141.381 154.018 134.977C145.078 132.643 135.138 126.423 125.494 118.595C108.677 104.944 92.7601 86.4017 84.6065 75.0393C79.3357 77.1765 70.5633 79.771 60.8522 81.5616M419.841 183.335L364.45 152.212M419.841 183.335C419.841 183.335 409.284 188.033 402.737 188.033C371.69 188.033 364.45 152.212 364.45 152.212M364.45 152.212L293.017 139.875L221.34 111.323L85.8964 66.3457L29.0353 54.5176M334.5 171.085C327.157 173.99 283.996 170.168 265.477 130.028M29.0353 54.5176L-14.8516 42.9126C-8.1681 55.0296 10.8251 79.846 29.0353 82.9123C38.5381 84.5124 50.2541 83.5157 60.8522 81.5616M29.0353 54.5176C32.4855 62.1302 43.679 78.1967 60.8522 81.5616" stroke="black" stroke-linecap="round" stroke-linejoin="round"/>
<path d="M95 70C103.178 91.4665 134.062 131.588 145.5 130.5" stroke="black" stroke-linecap="round" stroke-linejoin="round"/>
<path d="M352 108.25L343.089 104.817C340.493 103.817 337.58 105.128 336.607 107.734L326.945 133.625H319.089C317.974 133.625 316.95 134.244 316.432 135.232L313.448 140.925C312.735 142.286 313.561 143.946 315.077 144.198L317.714 144.635C319.087 144.863 320.483 144.388 321.432 143.371L325.626 138.875L332.22 139.312L336.176 134.5L352 108.25Z" fill="#C38562"/>
<path d="M343.209 116.125L332.659 134.5M322.989 136.688L317.714 144.635M317.714 144.635L315.077 144.198M317.714 144.635C319.087 144.863 320.483 144.388 321.432 143.371L325.626 138.875L332.22 139.312L336.176 134.5L352 108.25L343.089 104.817C340.493 103.817 337.58 105.128 336.607 107.734L326.945 133.625H319.089C317.974 133.625 316.95 134.244 316.432 135.232L313.448 140.925C312.735 142.286 313.561 143.946 315.077 144.198M319.912 135.375L315.077 144.198" stroke="black" stroke-linecap="round" stroke-linejoin="round"/>
<path d="M242.805 118.701L238.485 117.621C237.223 117.306 236 118.26 236 119.562V122.416C236 123.259 236.529 124.012 237.323 124.298L249 128.5L247.042 122.625C246.393 120.679 244.795 119.199 242.805 118.701Z" fill="#C38562" stroke="black" stroke-linecap="round" stroke-linejoin="round"/>
<path d="M244 119.5L245 127M241 118.5L241.5 125.5M238 118L238.5 124.5" stroke="black" stroke-linecap="round" stroke-linejoin="round"/>
<path d="M214.789 252.825C160.272 249.518 202.855 236.654 241.56 230.84C249.849 229.594 285.574 227.473 320.626 232.372C367.327 238.899 282.935 256.957 214.789 252.825Z" fill="#E4CFA9"/>
<path d="M422.5 172.5C423.55 172.5 424.539 173.067 425.282 174.058C426.026 175.049 426.5 176.441 426.5 178C426.5 179.559 426.026 180.951 425.282 181.942C424.539 182.933 423.55 183.5 422.5 183.5C421.45 183.5 420.461 182.933 419.718 181.942C418.974 180.951 418.5 179.559 418.5 178C418.5 176.441 418.974 175.049 419.718 174.058C420.461 173.067 421.45 172.5 422.5 172.5Z" fill="#736C62" stroke="black"/>
<path d="M182 138.5V126.408C182 124.904 182.752 123.499 184.004 122.664C186.994 120.67 191 122.814 191 126.408V137" stroke="#CEA851" stroke-width="3" stroke-linecap="round"/>
<path d="M231.001 144.5C230.859 146.62 232.215 163.5 232.215 163.5C232.215 163.5 185.139 157.615 176.001 157C176.001 157 177.657 145.603 178.001 140.499C178.345 135.396 188.897 132.433 204.531 133.486C220.164 134.539 231.345 139.397 231.001 144.5Z" fill="#CEA851"/>
<ellipse cx="204.417" cy="141.597" rx="24" ry="7" transform="rotate(3.85409 204.417 141.597)" fill="#987E44"/>
<path d="M216.5 149V136.908C216.5 135.404 217.252 133.999 218.504 133.164C221.494 131.17 225.5 133.314 225.5 136.908V147.5" stroke="#CEA851" stroke-width="3" stroke-linecap="round"/>
<mask id="path-50-outside-1_232_442" maskUnits="userSpaceOnUse" x="174" y="118.398" width="60" height="46" fill="black">
<rect fill="white" x="174" y="118.398" width="60" height="46"/>
<path d="M183.168 121.416C187.155 118.758 192.496 121.616 192.496 126.408V133.523C196.012 133.213 200.062 133.186 204.525 133.486C208.444 133.75 212.082 134.253 215.33 134.938C215.754 133.72 216.565 132.651 217.668 131.916C221.655 129.258 226.996 132.116 226.996 136.908V139.113C229.67 140.755 231.123 142.61 230.996 144.5C230.854 146.616 231.995 162.934 232 163C231.963 162.995 185.134 157.115 176 156.5C176.008 156.447 177.653 145.591 177.996 140.5C178.091 139.094 178.96 137.851 180.496 136.81V126.408C180.496 124.402 181.499 122.529 183.168 121.416ZM223.996 136.908C223.996 134.512 221.326 133.083 219.332 134.412C218.867 134.722 218.505 135.15 218.276 135.642C220.414 136.21 222.334 136.864 223.996 137.581V136.908ZM189.496 126.408C189.496 124.012 186.826 122.583 184.832 123.912C183.998 124.468 183.496 125.405 183.496 126.408V135.324C185.165 134.709 187.18 134.222 189.496 133.876V126.408Z"/>
</mask>
<path d="M183.168 121.416L182.613 120.584L182.613 120.584L183.168 121.416ZM192.496 126.408L193.496 126.408L193.496 126.408L192.496 126.408ZM192.496 133.523H191.496V134.616L192.584 134.52L192.496 133.523ZM204.525 133.486L204.593 132.489L204.593 132.489L204.525 133.486ZM215.33 134.938L215.123 135.917L215.985 136.099L216.275 135.267L215.33 134.938ZM217.668 131.916L217.113 131.084L217.113 131.084L217.668 131.916ZM226.996 136.908L227.996 136.908L227.996 136.908L226.996 136.908ZM226.996 139.113H225.996V139.673L226.473 139.965L226.996 139.113ZM230.996 144.5L231.994 144.567L231.994 144.567L230.996 144.5ZM232 163L231.875 163.992L233.083 164.144L232.998 162.93L232 163ZM176 156.5L175.011 156.35L174.848 157.425L175.933 157.498L176 156.5ZM177.996 140.5L178.994 140.567L178.994 140.567L177.996 140.5ZM180.496 136.81L181.057 137.637L181.496 137.34V136.81H180.496ZM180.496 126.408L179.496 126.408V126.408H180.496ZM223.996 136.908L224.996 136.908L224.996 136.908L223.996 136.908ZM219.332 134.412L218.777 133.58L218.777 133.58L219.332 134.412ZM218.276 135.642L217.37 135.219L216.866 136.301L218.019 136.608L218.276 135.642ZM223.996 137.581L223.6 138.499L224.996 139.102V137.581H223.996ZM189.496 126.408L190.496 126.408L190.496 126.408L189.496 126.408ZM184.832 123.912L184.277 123.08L184.277 123.08L184.832 123.912ZM183.496 126.408L182.496 126.408V126.408H183.496ZM183.496 135.324H182.496V136.758L183.842 136.263L183.496 135.324ZM189.496 133.876L189.644 134.865L190.496 134.738V133.876H189.496ZM183.168 121.416L183.723 122.248C187.045 120.033 191.496 122.415 191.496 126.408L192.496 126.408L193.496 126.408C193.496 120.818 187.265 117.483 182.613 120.584L183.168 121.416ZM192.496 126.408H191.496V133.523H192.496H193.496V126.408H192.496ZM192.496 133.523L192.584 134.52C196.04 134.214 200.037 134.186 204.458 134.484L204.525 133.486L204.593 132.489C200.086 132.185 195.984 132.211 192.408 132.527L192.496 133.523ZM204.525 133.486L204.458 134.484C208.334 134.745 211.926 135.242 215.123 135.917L215.33 134.938L215.537 133.96C212.239 133.264 208.553 132.755 204.593 132.489L204.525 133.486ZM215.33 134.938L216.275 135.267C216.628 134.25 217.304 133.36 218.223 132.748L217.668 131.916L217.113 131.084C215.826 131.942 214.88 133.189 214.386 134.61L215.33 134.938ZM217.668 131.916L218.223 132.748C221.545 130.533 225.996 132.915 225.996 136.908L226.996 136.908L227.996 136.908C227.996 131.318 221.765 127.983 217.113 131.084L217.668 131.916ZM226.996 136.908H225.996V139.113H226.996H227.996V136.908H226.996ZM226.996 139.113L226.473 139.965C229.085 141.569 230.085 143.139 229.998 144.433L230.996 144.5L231.994 144.567C232.161 142.082 230.256 139.941 227.519 138.261L226.996 139.113ZM230.996 144.5L229.998 144.433C229.958 145.033 230.008 146.52 230.093 148.322C230.181 150.157 230.311 152.403 230.445 154.58C230.713 158.937 231 163.036 231.002 163.07L232 163L232.998 162.93C232.995 162.898 232.709 158.806 232.441 154.457C232.307 152.283 232.178 150.048 232.091 148.227C232.003 146.371 231.963 145.025 231.994 144.567L230.996 144.5ZM232 163L232.125 162.008C232.112 162.006 185.239 156.12 176.067 155.502L176 156.5L175.933 157.498C185.029 158.111 231.813 163.984 231.875 163.992L232 163ZM176 156.5L176.989 156.65C176.994 156.614 178.647 145.71 178.994 140.567L177.996 140.5L176.998 140.433C176.659 145.472 175.022 156.28 175.011 156.35L176 156.5ZM177.996 140.5L178.994 140.567C179.061 139.575 179.672 138.576 181.057 137.637L180.496 136.81L179.935 135.982C178.247 137.126 177.121 138.614 176.998 140.433L177.996 140.5ZM180.496 136.81H181.496V126.408H180.496H179.496V136.81H180.496ZM180.496 126.408L181.496 126.408C181.496 124.737 182.332 123.175 183.723 122.248L183.168 121.416L182.613 120.584C180.666 121.882 179.496 124.068 179.496 126.408L180.496 126.408ZM223.996 136.908L224.996 136.908C224.996 133.714 221.436 131.808 218.777 133.58L219.332 134.412L219.887 135.244C221.216 134.358 222.996 135.311 222.996 136.908L223.996 136.908ZM219.332 134.412L218.777 133.58C218.158 133.993 217.675 134.564 217.37 135.219L218.276 135.642L219.183 136.064C219.336 135.736 219.577 135.451 219.887 135.244L219.332 134.412ZM218.276 135.642L218.019 136.608C220.119 137.167 221.991 137.805 223.6 138.499L223.996 137.581L224.392 136.663C222.678 135.923 220.71 135.254 218.533 134.675L218.276 135.642ZM223.996 137.581H224.996V136.908H223.996H222.996V137.581H223.996ZM189.496 126.408L190.496 126.408C190.496 123.214 186.936 121.308 184.277 123.08L184.832 123.912L185.387 124.744C186.716 123.858 188.496 124.811 188.496 126.408L189.496 126.408ZM184.832 123.912L184.277 123.08C183.165 123.822 182.496 125.071 182.496 126.408L183.496 126.408L184.496 126.408C184.496 125.74 184.83 125.115 185.387 124.744L184.832 123.912ZM183.496 126.408H182.496V135.324H183.496H184.496V126.408H183.496ZM183.496 135.324L183.842 136.263C185.431 135.677 187.376 135.204 189.644 134.865L189.496 133.876L189.348 132.887C186.984 133.24 184.899 133.741 183.15 134.386L183.496 135.324ZM189.496 133.876H190.496V126.408H189.496H188.496V133.876H189.496Z" fill="black" mask="url(#path-50-outside-1_232_442)"/>
<path d="M215 134.5C214.833 135.167 214.5 137.7 214.5 142.5C214.5 147.3 214.5 148.5 214.5 148.5M223.5 136.5V147M218.5 148C218.5 148 217.5 136.5 219 135.5M227.5 145V138" stroke="black" stroke-linecap="round"/>
<path d="M440.149 149.869C440.402 150.16 440.756 150.501 441.225 150.883C441.914 151.446 442.794 152.059 443.823 152.702C445.881 153.987 448.478 155.356 451.213 156.646C456.709 159.238 462.614 161.442 465.683 162.018C471.294 163.07 475.166 162.881 476.764 162.625L477.25 164.57C475.393 164.898 471.205 165.088 465.314 163.983C461.983 163.359 455.888 161.062 450.359 158.454C447.582 157.144 444.909 155.738 442.764 154.398C441.691 153.729 440.736 153.066 439.96 152.433C439.36 151.943 438.832 151.44 438.439 150.938L440.149 149.869Z" fill="#CEA851" stroke="black"/>
<path fill-rule="evenodd" clip-rule="evenodd" d="M435.768 147.613C436.423 148.121 436.542 149.063 436.035 149.718L429.236 158.494C428.729 159.149 427.786 159.269 427.131 158.761C426.477 158.254 426.357 157.312 426.864 156.657L433.663 147.88C434.171 147.226 435.113 147.106 435.768 147.613Z" fill="#CEA851" stroke="black" stroke-linecap="round"/>
<path fill-rule="evenodd" clip-rule="evenodd" d="M425.34 146.22C425.726 145.477 426.961 145.236 428.097 145.68L443.32 151.638C444.456 152.082 445.064 153.045 444.677 153.787C444.29 154.53 443.055 154.772 441.919 154.327L426.696 148.37C425.56 147.925 424.953 146.963 425.34 146.22Z" fill="#CEA851" stroke="black" stroke-linecap="round"/>
<path fill-rule="evenodd" clip-rule="evenodd" d="M428.908 141.252C429.28 140.505 430.413 140.234 431.438 140.646L445.182 146.176C446.207 146.589 446.737 147.529 446.365 148.276C445.993 149.023 444.861 149.294 443.835 148.881L430.092 143.351C429.066 142.939 428.536 141.999 428.908 141.252Z" fill="#CEA851" stroke="black" stroke-linecap="round"/>
<path fill-rule="evenodd" clip-rule="evenodd" d="M427.217 143.764C427.597 143.019 428.78 142.762 429.86 143.191L444.332 148.931C445.412 149.359 445.98 150.31 445.6 151.055C445.221 151.8 444.038 152.057 442.958 151.628L428.486 145.888C427.406 145.46 426.838 144.509 427.217 143.764Z" fill="#CEA851" stroke="black" stroke-linecap="round"/>
<path d="M154.738 110.086L145.613 106.499C141.494 104.88 137.1 108.126 137.436 112.539L139.161 135.216H133.104C129.379 135.216 125.834 136.813 123.366 139.603L110.873 153.729L101.67 148.929C101.468 148.823 101.368 148.59 101.431 148.371C102.285 145.382 100.041 142.407 96.9317 142.407H94.0671C92.2193 142.407 91.0337 144.37 91.8942 146.006L94.5294 151.012L108.202 164.413C109.705 165.887 112.093 165.943 113.664 164.542L127.247 152.428L124.353 178.265L116.723 245.869L115.28 249.403C114.473 251.376 115.925 253.537 118.057 253.537H134.06C134.536 253.537 134.968 253.26 135.167 252.828C135.474 252.159 135.121 251.372 134.417 251.156L130.468 249.947C129.942 249.786 129.447 249.536 129.005 249.208L124.505 245.869L136.71 195.014L147.976 248.846L147.669 253.646C147.555 255.434 149.022 256.922 150.811 256.834L166.972 256.04C167.477 256.015 167.925 255.708 168.133 255.247C168.482 254.467 168.026 253.564 167.191 253.382L163.179 252.509C162.78 252.422 162.394 252.283 162.031 252.096L155.549 248.757L153.737 210.799V178.265L155.807 160.291L165.562 177.643C166.783 179.815 169.672 180.354 171.594 178.768L189.29 164.168L191.307 159.797C192.223 157.81 190.771 155.541 188.582 155.541H184.041C182.384 155.541 181.041 156.884 181.041 158.541V161.882L170.411 165.908L162.686 149.112C161.657 146.875 160.015 144.976 157.949 143.637L149.067 137.876V135.216H155.177C157.386 135.216 159.177 133.425 159.177 131.216V127.46L161.111 126.554L159.177 122.191V116.601C159.177 113.723 157.416 111.138 154.738 110.086Z" fill="#D79C67"/>
<path d="M127.247 152.428L113.664 164.542C112.093 165.943 109.705 165.887 108.202 164.413L94.5294 151.012L91.8942 146.006C91.0337 144.37 92.2193 142.407 94.0671 142.407H96.9317C100.041 142.407 102.285 145.382 101.431 148.371C101.368 148.59 101.468 148.823 101.67 148.929L110.873 153.729L123.366 139.603C125.834 136.813 129.379 135.216 133.104 135.216H139.161L137.436 112.539C137.1 108.126 141.494 104.88 145.613 106.499L154.738 110.086C157.416 111.138 159.177 113.723 159.177 116.601V122.191L161.111 126.554L159.177 127.46V131.216C159.177 133.425 157.386 135.216 155.177 135.216H149.067V137.876L157.949 143.637C160.015 144.976 161.657 146.875 162.686 149.112L170.411 165.908L181.041 161.882V158.541C181.041 156.884 182.384 155.541 184.041 155.541H188.582C190.771 155.541 192.223 157.81 191.307 159.797L189.29 164.168L171.594 178.768C169.672 180.354 166.783 179.815 165.562 177.643L155.807 160.291L153.737 178.265V210.799L155.549 248.757L162.031 252.096C162.394 252.283 162.78 252.422 163.179 252.509L167.191 253.382C168.026 253.564 168.482 254.467 168.133 255.247C167.925 255.708 167.477 256.015 166.972 256.04L150.811 256.834C149.022 256.922 147.555 255.433 147.669 253.646L147.976 248.846L136.71 195.014L124.505 245.869L129.005 249.208C129.447 249.536 129.942 249.786 130.468 249.947L134.417 251.156C135.121 251.372 135.474 252.159 135.167 252.828C134.968 253.26 134.536 253.537 134.06 253.537H118.057C115.925 253.537 114.473 251.376 115.28 249.403L116.723 245.869L124.353 178.265L127.247 152.428ZM127.247 152.428L126.235 144.671M157.035 122.93V122.191L158.394 121.118H156.129" stroke="black" stroke-linecap="round" stroke-linejoin="round"/>
<path d="M134.137 172.5L134.37 171.858C135.541 168.637 136.233 165.261 136.423 161.839L136.637 158" stroke="black" stroke-linecap="round" stroke-linejoin="round"/>
<path d="M145.711 124.741L138.464 125.647L136.636 112.849C136.361 110.926 137.008 108.985 138.381 107.612C140.088 105.906 142.632 105.35 144.894 106.19L149.108 107.756L149.224 107.781C151.15 108.204 153.118 107.264 154 105.5C154 105.5 156.732 108.737 157.034 110.7C157.336 112.662 157.306 116.95 154.77 118.4C152.233 119.849 150.391 119.909 149.787 119.758C148.128 118.468 145.711 119.65 145.711 121.752V124.741Z" fill="#51473A" stroke="black"/>
<path d="M138.918 146.482L140.897 155.718C141.362 157.886 142.826 159.706 144.845 160.623L146.618 161.429" stroke="black" stroke-linecap="round"/>
<path d="M153.864 176.829L125.104 173.715L114.617 235.747L131.67 236.816L138.464 207.629L142.993 239.787H160.205L153.864 176.829Z" fill="#F7F6E9"/>
<path d="M138.464 207.629L142.993 239.787H160.205L153.864 176.829L125.104 173.715L114.617 235.747L131.67 236.816L138.464 207.629ZM138.464 207.629L132.575 187.246" stroke="black"/>
<path d="M150.24 120.212C148.731 119.155 145.711 118.129 145.711 122.477C145.711 126.825 148.731 127.61 150.24 127.459" stroke="black" stroke-linecap="round"/>
<path d="M195.5 153.5C199.333 154.167 208.8 155.4 216 155C223.2 154.6 227 153.167 228 152.5M220.5 152V156.5M213 158C213 158 220.1 158.6 224.5 157C228.9 155.4 230.333 154 230.5 153.5M222.5 155.5V159.5M205 152.5V157M179.5 146.5C179.833 147 181.2 148.2 184 149" stroke="black" stroke-linecap="round"/>
<path d="M154 248L153 251M120 248L121.871 247.251C122.251 247.1 122.5 246.732 122.5 246.323V245" stroke="black" stroke-linecap="round"/>
<path fill-rule="evenodd" clip-rule="evenodd" d="M401.489 207.763C401.765 207.763 401.989 207.987 401.989 208.263V210.192C401.989 210.468 401.765 210.692 401.489 210.692C401.213 210.692 400.989 210.468 400.989 210.192V208.263C400.989 207.987 401.213 207.763 401.489 207.763ZM391.464 209.055C391.256 209.069 391.046 209.084 390.879 209.084C390.603 209.084 390.379 208.86 390.379 208.584C390.379 208.308 390.603 208.084 390.879 208.084C391.027 208.084 391.23 208.068 391.492 208.05C391.741 208.033 392.03 208.015 392.312 208.018C392.588 208.02 392.889 208.042 393.156 208.12C393.418 208.195 393.732 208.35 393.898 208.682C394.022 208.929 393.922 209.229 393.675 209.353C393.43 209.475 393.134 209.378 393.008 209.137C392.999 209.13 392.967 209.106 392.878 209.08C392.741 209.04 392.546 209.02 392.303 209.018C392.064 209.016 391.81 209.031 391.56 209.048C391.528 209.05 391.496 209.053 391.464 209.055ZM407.742 212.401C407.765 212.126 408.007 211.921 408.282 211.944C409.356 212.033 410.406 212.223 411.429 212.407C411.622 212.442 411.814 212.476 412.004 212.51C413.219 212.725 414.408 212.907 415.635 212.907C415.911 212.907 416.135 213.131 416.135 213.407C416.135 213.683 415.911 213.907 415.635 213.907C414.314 213.907 413.052 213.711 411.83 213.495C411.633 213.46 411.436 213.425 411.241 213.389C410.218 213.205 409.221 213.026 408.199 212.941C407.924 212.918 407.719 212.676 407.742 212.401ZM430.745 218.372C431.022 218.372 431.245 218.596 431.245 218.872V227.231L431.245 227.237C432.414 227.585 433.579 227.97 434.762 228.365C435.024 228.452 435.165 228.735 435.078 228.997C434.991 229.259 434.707 229.401 434.445 229.313C430.382 227.959 426.672 226.767 422.386 226.767C422.11 226.767 421.886 226.543 421.886 226.267C421.886 225.991 422.11 225.767 422.386 225.767C425.18 225.767 427.734 226.254 430.245 226.95V218.872C430.245 218.596 430.469 218.372 430.745 218.372ZM423.537 229.657C423.606 229.687 423.655 229.726 423.68 229.749C423.827 229.877 423.881 230.073 423.835 230.25C423.86 230.354 423.903 230.505 423.963 230.701C424.113 231.19 424.351 231.885 424.612 232.618C424.716 232.911 424.824 233.209 424.93 233.499C425.878 233.499 426.826 233.495 427.774 233.483C428.548 233.473 429.33 233.323 430.157 233.163L430.166 233.161C430.973 233.005 431.828 232.84 432.674 232.84C432.951 232.84 433.174 233.064 433.174 233.34C433.174 233.616 432.951 233.84 432.674 233.84C431.937 233.84 431.174 233.985 430.347 234.145L430.311 234.152C429.511 234.306 428.653 234.472 427.787 234.483C426.959 234.493 426.13 234.498 425.301 234.499C425.578 235.234 425.807 235.816 425.895 236.006C426.249 236.772 426.624 237.531 427.002 238.297C427.068 238.429 427.133 238.562 427.198 238.694C427.641 239.593 428.084 240.502 428.489 241.427C428.568 241.607 428.622 241.798 428.666 241.965C428.681 242.018 428.693 242.068 428.706 242.115C428.735 242.229 428.761 242.331 428.793 242.432C428.885 242.729 428.968 242.823 429.04 242.859C429.287 242.983 429.387 243.283 429.264 243.53C429.14 243.777 428.84 243.877 428.593 243.754C428.126 243.52 427.941 243.061 427.838 242.729C427.785 242.559 427.739 242.368 427.7 242.222C427.658 242.062 427.619 241.934 427.572 241.828C427.177 240.925 426.744 240.034 426.302 239.137C426.237 239.005 426.172 238.873 426.106 238.741C425.728 237.976 425.347 237.204 424.987 236.425C424.871 236.175 424.572 235.407 424.233 234.499C423.428 234.498 422.623 234.494 421.819 234.491C420.828 234.487 419.838 234.483 418.85 234.483C418.574 234.483 418.35 234.259 418.35 233.983C418.35 233.707 418.574 233.483 418.85 233.483C419.846 233.483 420.841 233.487 421.834 233.491C422.512 233.494 423.189 233.497 423.866 233.498C423.8 233.316 423.734 233.134 423.67 232.954C423.407 232.217 423.164 231.506 423.007 230.994C422.93 230.743 422.868 230.522 422.837 230.367C422.826 230.312 422.802 230.187 422.819 230.067C422.824 230.031 422.836 229.961 422.877 229.885C422.921 229.802 423.014 229.687 423.178 229.636C423.335 229.588 423.468 229.627 423.537 229.657ZM433.961 238.305C434.237 238.305 434.461 238.529 434.461 238.805C434.461 241.68 433.283 244.086 431.951 246.341C431.651 246.849 431.345 247.346 431.042 247.84C429.978 249.571 428.946 251.251 428.326 253.11C428.239 253.372 427.956 253.513 427.694 253.426C427.432 253.339 427.29 253.055 427.378 252.793C428.037 250.814 429.15 249.004 430.224 247.258C430.519 246.779 430.811 246.304 431.09 245.833C432.403 243.609 433.461 241.398 433.461 238.805C433.461 238.529 433.684 238.305 433.961 238.305ZM327.222 242.163C327.498 242.163 327.722 242.387 327.722 242.663C327.722 243.074 327.461 243.347 327.199 243.506C326.944 243.661 326.617 243.758 326.281 243.824C325.6 243.957 324.707 243.995 323.811 243.991C322.907 243.987 321.97 243.94 321.188 243.895C320.985 243.883 320.795 243.872 320.619 243.861C320.104 243.83 319.715 243.807 319.506 243.807C319.229 243.807 319.006 243.583 319.006 243.307C319.006 243.03 319.229 242.807 319.506 242.807C319.747 242.807 320.185 242.833 320.715 242.865C320.884 242.875 321.062 242.886 321.246 242.897C322.023 242.942 322.94 242.987 323.815 242.991C324.698 242.995 325.509 242.956 326.088 242.843C326.382 242.785 326.573 242.716 326.679 242.651C326.7 242.639 326.714 242.629 326.723 242.621C326.745 242.365 326.96 242.163 327.222 242.163ZM308.398 243.908C308.421 243.633 308.662 243.428 308.937 243.451C310.858 243.611 312.734 244.256 314.548 244.929C314.785 245.017 315.021 245.106 315.256 245.194C316.627 245.708 317.963 246.209 319.302 246.536C319.586 246.384 319.724 246.228 319.805 246.071C319.93 245.827 319.97 245.49 319.97 244.914C319.97 244.638 320.194 244.414 320.47 244.414C320.746 244.414 320.97 244.638 320.97 244.914C320.97 245.484 320.942 246.046 320.694 246.528C320.595 246.721 320.467 246.89 320.311 247.038C320.33 247.109 320.333 247.186 320.317 247.263C320.263 247.533 320 247.709 319.729 247.655C319.622 247.633 319.514 247.611 319.407 247.587C319.367 247.603 319.327 247.618 319.286 247.634C317.534 248.281 315.449 248.357 313.414 248.284C312.546 248.253 311.673 248.194 310.83 248.137C310.681 248.127 310.532 248.117 310.384 248.107C309.4 248.041 308.466 247.986 307.61 247.986C307.334 247.986 307.11 247.762 307.11 247.486C307.11 247.21 307.334 246.986 307.61 246.986C308.503 246.986 309.467 247.044 310.451 247.109C310.601 247.119 310.751 247.129 310.902 247.139C311.745 247.196 312.599 247.254 313.45 247.284C314.896 247.336 316.293 247.307 317.543 247.073C316.651 246.786 315.768 246.454 314.898 246.128C314.664 246.04 314.432 245.953 314.2 245.867C312.385 245.193 310.624 244.595 308.854 244.448C308.579 244.425 308.375 244.183 308.398 243.908ZM297.322 249.237C297.598 249.237 297.822 249.46 297.822 249.737C297.822 250.322 297.796 250.926 297.77 251.527L297.767 251.59C297.742 252.173 297.717 252.752 297.712 253.326C297.703 254.478 297.778 255.569 298.083 256.545C298.366 256.6 298.647 256.631 298.929 256.631C299.205 256.631 299.429 256.855 299.429 257.131C299.429 257.407 299.205 257.631 298.929 257.631C298.226 257.631 297.562 257.475 296.94 257.277C296.581 257.163 296.202 257.022 295.839 256.887C295.601 256.799 295.37 256.713 295.158 256.639C292.281 255.642 289.249 254.676 286.293 254.085C286.022 254.031 285.846 253.767 285.9 253.497C285.955 253.226 286.218 253.05 286.489 253.104C289.514 253.709 292.598 254.694 295.485 255.694C295.749 255.786 295.995 255.877 296.235 255.967C296.479 256.058 296.718 256.148 296.966 256.233C296.753 255.285 296.705 254.292 296.712 253.318C296.717 252.726 296.743 252.131 296.768 251.553L296.771 251.483C296.797 250.88 296.822 250.297 296.822 249.737C296.822 249.46 297.046 249.237 297.322 249.237ZM433.863 249.611C434.11 249.734 434.21 250.035 434.086 250.282C433.645 251.164 432.885 251.962 432.098 252.661C431.573 253.127 431.004 253.577 430.487 253.986C430.234 254.186 429.993 254.376 429.776 254.553C426.826 256.967 423.305 257.31 419.814 257.31C419.538 257.31 419.314 257.086 419.314 256.81C419.314 256.533 419.538 256.31 419.814 256.31C423.267 256.31 426.479 255.959 429.143 253.779C429.386 253.58 429.641 253.379 429.901 253.173C430.404 252.776 430.929 252.362 431.434 251.913C432.195 251.237 432.838 250.542 433.192 249.834C433.315 249.587 433.616 249.487 433.863 249.611ZM434.79 259.562C434.729 259.64 434.666 259.719 434.601 259.801C433.172 261.587 431.717 263.344 430.254 265.096C428.82 266.814 427.443 268.588 426.06 270.37L425.885 270.596C424.446 272.45 422.998 274.31 421.482 276.101C421.304 276.312 420.988 276.338 420.777 276.16C420.567 275.982 420.54 275.666 420.719 275.455C422.219 273.682 423.654 271.839 425.095 269.982L425.273 269.753C426.653 267.975 428.04 266.187 429.486 264.455C430.948 262.705 432.398 260.954 433.82 259.176C433.869 259.115 433.921 259.049 433.975 258.98C434.173 258.726 434.401 258.435 434.639 258.201C434.942 257.903 435.358 257.596 435.89 257.596C436.166 257.596 436.39 257.819 436.39 258.096C436.39 258.372 436.166 258.596 435.89 258.596C435.759 258.596 435.586 258.672 435.34 258.914C435.154 259.097 434.981 259.318 434.79 259.562ZM424.026 260.957C424.221 261.152 424.221 261.469 424.026 261.664C421.656 264.034 419.332 265.99 415.635 265.99C415.359 265.99 415.135 265.766 415.135 265.49C415.135 265.214 415.359 264.99 415.635 264.99C418.901 264.99 420.973 263.303 423.319 260.957C423.514 260.762 423.831 260.762 424.026 260.957ZM398.306 272.853C398.501 273.048 398.501 273.365 398.306 273.56C395.924 275.942 392.826 277.564 389.272 277.564C388.995 277.564 388.772 277.34 388.772 277.064C388.772 276.788 388.995 276.564 389.272 276.564C392.504 276.564 395.36 275.091 397.599 272.853C397.794 272.657 398.11 272.657 398.306 272.853ZM408.142 273.081C408.389 273.204 408.489 273.504 408.366 273.751C407.967 274.548 407.307 275.217 406.629 275.791C406.225 276.132 405.773 276.473 405.354 276.788C405.09 276.987 404.839 277.176 404.622 277.348C403.601 278.162 402.539 278.92 401.489 279.668C401.396 279.735 401.304 279.801 401.212 279.866C400.945 280.057 400.679 280.247 400.414 280.439C401.522 280.428 402.631 280.422 403.739 280.422C404.015 280.422 404.239 280.646 404.239 280.922C404.239 281.198 404.015 281.422 403.739 281.422C402.174 281.422 400.609 281.434 399.044 281.453C398.649 281.755 398.26 282.062 397.879 282.379C397.747 282.488 397.586 282.607 397.427 282.725L397.373 282.765C397.19 282.9 397.006 283.039 396.833 283.183C396.464 283.492 396.242 283.754 396.181 283.96C396.101 284.224 395.822 284.374 395.558 284.295C395.293 284.215 395.143 283.937 395.223 283.672C395.378 283.155 395.819 282.728 396.191 282.416C396.389 282.251 396.595 282.097 396.777 281.962C396.965 281.822 397.12 281.709 397.24 281.609C397.294 281.565 397.348 281.52 397.401 281.476C395.446 281.506 393.49 281.544 391.532 281.583L391.529 281.583C387.459 281.663 383.384 281.744 379.305 281.744C379.029 281.744 378.805 281.52 378.805 281.244C378.805 280.968 379.029 280.744 379.305 280.744C383.374 280.744 387.44 280.664 391.512 280.583L391.516 280.583C393.91 280.536 396.305 280.489 398.702 280.458C399.34 279.977 399.987 279.512 400.63 279.053L400.905 278.857C401.959 278.105 403 277.362 403.999 276.566C404.265 276.354 404.533 276.153 404.802 275.951C405.194 275.657 405.588 275.362 405.983 275.027C406.628 274.482 407.164 273.919 407.472 273.304C407.595 273.057 407.895 272.957 408.142 273.081Z" fill="#5CA58B"/>
<path d="M271.489 55.1376C271.551 55.0147 271.704 54.9649 271.829 55.0263L273.86 56.0215C273.985 56.083 274.036 56.2324 273.973 56.3553C273.91 56.4782 273.758 56.5281 273.633 56.4666L271.602 55.4714C271.477 55.4099 271.426 55.2605 271.489 55.1376Z" fill="#80B1BC"/>
<path d="M226.001 71.6885C226.015 71.5518 226.14 71.452 226.279 71.4657C226.662 71.5032 227.119 71.7047 227.508 71.9565C227.895 72.2073 228.265 72.5408 228.439 72.8819C228.502 73.0048 228.451 73.1542 228.326 73.2157C228.2 73.2771 228.048 73.2273 227.985 73.1044C227.869 72.8773 227.585 72.6028 227.228 72.3716C226.873 72.1414 226.496 71.987 226.229 71.9609C226.089 71.9472 225.987 71.8253 226.001 71.6885Z" fill="#80B1BC"/>
<path d="M229.754 72.9931C229.754 72.8557 229.867 72.7443 230.008 72.7443H236.209C236.349 72.7443 236.463 72.8557 236.463 72.9931C236.463 73.1306 236.349 73.2419 236.209 73.2419H230.008C229.867 73.2419 229.754 73.1306 229.754 72.9931Z" fill="#80B1BC"/>
<path d="M240.403 73.2506C240.528 73.312 240.579 73.4615 240.516 73.5844C240.39 73.8317 240.122 73.9651 239.866 74.0438C239.6 74.126 239.281 74.1687 238.966 74.1909C238.498 74.2241 237.996 74.2137 237.646 74.2064C237.529 74.2039 237.428 74.2018 237.352 74.2018C237.211 74.2018 237.098 74.0904 237.098 73.953C237.098 73.8156 237.211 73.7042 237.352 73.7042C237.443 73.7042 237.555 73.7065 237.681 73.7092L237.681 73.7092C238.03 73.7164 238.487 73.7259 238.93 73.6946C239.229 73.6734 239.503 73.6344 239.714 73.5691C239.937 73.5005 240.032 73.4208 240.062 73.3618C240.125 73.2389 240.277 73.1891 240.403 73.2506Z" fill="#80B1BC"/>
<path d="M242.484 74.593C242.484 74.4556 242.597 74.3442 242.737 74.3442H246.165C246.305 74.3442 246.418 74.4556 246.418 74.593C246.418 74.7304 246.305 74.8418 246.165 74.8418H242.737C242.597 74.8418 242.484 74.7304 242.484 74.593Z" fill="#80B1BC"/>
<path d="M260.199 78.332C259.966 78.3469 259.739 78.3614 259.547 78.3614C259.407 78.3614 259.294 78.25 259.294 78.1126C259.294 77.9752 259.407 77.8638 259.547 77.8638C259.721 77.8638 259.925 77.8508 260.155 77.8362L260.156 77.8361C260.224 77.8318 260.294 77.8273 260.367 77.8229C260.679 77.8043 261.022 77.7893 261.354 77.8073C261.999 77.8423 262.715 78.0075 263.038 78.6412C263.101 78.7641 263.05 78.9136 262.925 78.975C262.8 79.0365 262.647 78.9867 262.584 78.8638C262.395 78.4928 261.95 78.338 261.326 78.3042C261.025 78.2878 260.707 78.3012 260.398 78.3196C260.332 78.3235 260.267 78.3277 260.202 78.3319L260.199 78.332Z" fill="#80B1BC"/>
<path d="M260.674 81.6162C260.773 81.5191 260.933 81.5191 261.032 81.6162C261.193 81.7739 261.25 81.9557 261.268 82.1274C261.279 82.2333 261.275 82.3584 261.272 82.4673V82.4675C261.271 82.5126 261.27 82.555 261.27 82.5921C261.27 82.7295 261.156 82.8409 261.016 82.8409C260.876 82.8409 260.762 82.7295 260.762 82.5921C260.762 82.5219 260.764 82.4631 260.766 82.4108C260.768 82.3223 260.77 82.2525 260.763 82.178C260.752 82.0811 260.727 82.0208 260.674 81.9681C260.574 81.8709 260.574 81.7134 260.674 81.6162Z" fill="#80B1BC"/>
<path d="M260.631 85.1596C260.34 85.1989 260.03 85.2406 259.711 85.2406C259.57 85.2406 259.457 85.1292 259.457 84.9918C259.457 84.8544 259.57 84.743 259.711 84.743C259.993 84.743 260.272 84.7057 260.571 84.6654L260.577 84.6646C260.87 84.6252 261.182 84.583 261.506 84.583C261.646 84.583 261.76 84.6944 261.76 84.8318C261.76 84.9693 261.646 85.0807 261.506 85.0807C261.221 85.0807 260.94 85.118 260.641 85.1583L260.631 85.1596Z" fill="#80B1BC"/>
<path d="M259.93 87.5032C259.651 87.6999 259.343 88.0206 259.265 88.1158C258.899 88.5647 258.712 88.9384 258.612 89.3313C258.51 89.7319 258.496 90.1657 258.496 90.7512C258.496 90.8886 258.382 91 258.242 91C258.102 91 257.988 90.8886 257.988 90.7512C257.988 90.1678 258.001 89.6779 258.119 89.2111C258.24 88.7367 258.465 88.2994 258.869 87.805C258.968 87.6827 259.309 87.3279 259.634 87.0991C259.716 87.0409 259.804 86.9865 259.891 86.9459C259.974 86.907 260.078 86.8708 260.187 86.8711C260.309 86.8715 260.437 86.92 260.523 87.0401C260.597 87.1442 260.617 87.2723 260.617 87.3916C260.617 87.529 260.504 87.6404 260.363 87.6404C260.224 87.6404 260.111 87.5308 260.11 87.3949L260.109 87.3952C260.059 87.4186 259.998 87.455 259.93 87.5032Z" fill="#80B1BC"/>
<mask id="mask0_232_442" style="mask-type:alpha" maskUnits="userSpaceOnUse" x="180" y="112" width="49" height="37">
<path d="M228.361 142.566C228.101 146.423 217.17 148.828 203.945 147.937C190.72 147.046 180.21 143.197 180.47 139.34C180.73 135.482 189.275 111.465 202.5 112.355C215.725 113.246 228.621 138.709 228.361 142.566Z" fill="#987E44"/>
</mask>
<g mask="url(#mask0_232_442)">
<path d="M176.897 144.231C186.445 138.057 208.631 136.085 211.528 140.561C214.424 145.037 189.647 144.873 176.897 144.231ZM176.897 144.231C181.596 142.83 192.207 141.755 200.156 141.543C209.534 141.293 215.958 142.562 214.704 144.721C212.737 148.107 189.648 147.713 177.243 147.3M177.243 147.3C179.614 145.949 189.619 144.566 194.965 144.516C205.398 144.419 214.804 147.347 213.082 149.046C211.359 150.744 185.17 151.845 177.243 147.3Z" stroke="black" stroke-linecap="round"/>
<path d="M197.285 118.707C196.247 118.076 195.042 117.827 193.928 118.486C193.004 119.033 192.616 120.055 192.474 121.077C192.328 122.125 192.403 123.41 192.617 124.827C192.651 125.053 192.689 125.283 192.73 125.518C192.096 125.505 191.485 125.663 190.945 126.023C190.082 126.599 189.63 127.54 189.428 128.556C189.225 129.574 189.247 130.781 189.424 132.081C189.781 134.687 190.797 137.887 192.25 141.178C195.148 147.74 199.913 154.95 205.107 158.796L205.626 159.181L206.145 159.564L206.386 158.966L206.629 158.367C206.985 157.487 207.043 156.143 206.975 154.711C206.939 153.938 206.862 153.091 206.753 152.197C207.719 154.405 208.664 156.478 209.527 158.304L209.964 159.231L210.402 160.158L211.325 158.326C214.172 152.664 213.955 143.966 212.121 136.52C211.198 132.77 209.845 129.254 208.196 126.508C206.571 123.802 204.552 121.67 202.218 120.994C201.359 120.746 200.516 120.731 199.802 121.082C198.98 120.049 198.135 119.223 197.285 118.707ZM192.055 127.688C192.285 127.535 192.631 127.448 193.161 127.589C193.697 129.877 194.481 132.478 195.412 135.212C197.517 141.39 200.394 148.348 202.897 154.107C199.391 150.361 196.227 145.231 194.08 140.37C192.67 137.177 191.728 134.166 191.405 131.81C191.244 130.629 191.246 129.666 191.389 128.947C191.532 128.227 191.793 127.863 192.055 127.688ZM195.726 129.301C197.6 131.175 199.77 134.566 201.775 139.824C201.873 140.097 201.974 140.371 202.074 140.646C202.982 143.251 203.849 146.745 204.401 149.965C204.629 151.295 204.802 152.566 204.902 153.698C202.37 147.888 199.433 140.812 197.306 134.568C196.663 132.681 196.099 130.879 195.641 129.218C195.669 129.245 195.698 129.273 195.726 129.301ZM201.038 122.811C201.193 122.811 201.396 122.839 201.662 122.916C203.258 123.378 204.938 124.966 206.482 127.538C208.003 130.07 209.29 133.389 210.179 136.998C211.482 142.289 211.891 148.048 211.033 152.735C210.759 150.896 210.362 148.858 209.879 146.749C208.865 142.317 207.462 137.493 206.003 133.382C204.495 129.131 202.763 125.467 201.038 122.811ZM200.09 125.09C201.469 127.451 202.863 130.514 204.118 134.051C205.551 138.088 206.932 142.838 207.929 147.196C208.329 148.942 208.663 150.614 208.915 152.143C207.231 148.33 205.462 144.067 203.954 139.964C203.853 139.675 203.752 139.396 203.65 139.127C203.003 137.334 202.411 135.583 201.903 133.925C200.785 130.271 200.107 127.17 200.09 125.09ZM194.947 120.207C195.196 120.06 195.574 120.007 196.246 120.416C196.883 120.803 197.636 121.531 198.462 122.619C198.209 123.258 198.108 124.003 198.091 124.769C198.061 126.127 198.296 127.813 198.709 129.701C198.182 129.007 197.657 128.403 197.141 127.887C196.387 127.133 195.631 126.55 194.891 126.149C194.772 125.579 194.671 125.039 194.594 124.529C194.391 123.19 194.347 122.124 194.455 121.353C194.566 120.559 194.803 120.292 194.947 120.207Z" fill="#B9B9B9" stroke="black" stroke-linecap="round"/>
</g>
</g>
<defs>
<linearGradient id="paint0_linear_232_442" x1="218.691" y1="5.99951" x2="218.691" y2="306" gradientUnits="userSpaceOnUse">
<stop offset="0.0946207" stop-color="#185FA0"/>
<stop offset="0.124371" stop-opacity="0"/>
</linearGradient>
<clipPath id="clip0_232_442">
<rect width="450" height="288" fill="white"/>
</clipPath>
</defs>
</svg>
