<svg width="450" height="288" viewBox="0 0 450 288" fill="none" xmlns="http://www.w3.org/2000/svg">
<g clip-path="url(#clip0_232_266)">
<rect width="450" height="288" fill="#688ACD"/>
<path d="M193.998 195.698C200.398 192.498 193.665 180.364 189.498 174.698C180.997 171.198 168.5 181.698 143.5 187.698C123.5 192.498 38.8333 193.698 -1 193.698C29.1667 198.364 95.8 207.298 121 205.698C152.5 203.698 185.998 199.698 193.998 195.698Z" fill="#484E81" stroke="black" stroke-linecap="round"/>
<mask id="path-2-inside-1_232_266" fill="white">
<path d="M369.935 40.8752C370.156 40.0862 371.716 39.834 373.419 40.3124C375.122 40.7909 376.322 41.8184 376.1 42.6073C376.035 42.8392 375.853 43.0218 375.587 43.156C377.817 43.9335 379.315 45.3242 379.009 46.414C378.97 46.5544 378.9 46.6822 378.807 46.7995C379.052 46.8491 379.301 46.9055 379.552 46.9758C382.112 47.6955 383.918 49.2417 383.584 50.4284C383.349 51.2658 382.111 51.6981 380.503 51.6286C381.529 52.563 382.034 53.5684 381.787 54.4481C381.265 56.3029 377.598 56.8949 373.595 55.7702C370.309 54.8465 367.82 53.0519 367.322 51.4127C364.909 50.1752 363.453 48.4898 363.84 47.1128C364.288 45.521 367.053 44.8604 370.358 45.4161C369.837 44.875 369.593 44.3099 369.734 43.8075C369.894 43.24 370.514 42.8597 371.398 42.6934C370.382 42.168 369.771 41.4574 369.935 40.8752Z"/>
</mask>
<path d="M369.935 40.8752C370.156 40.0862 371.716 39.834 373.419 40.3124C375.122 40.7909 376.322 41.8184 376.1 42.6073C376.035 42.8392 375.853 43.0218 375.587 43.156C377.817 43.9335 379.315 45.3242 379.009 46.414C378.97 46.5544 378.9 46.6822 378.807 46.7995C379.052 46.8491 379.301 46.9055 379.552 46.9758C382.112 47.6955 383.918 49.2417 383.584 50.4284C383.349 51.2658 382.111 51.6981 380.503 51.6286C381.529 52.563 382.034 53.5684 381.787 54.4481C381.265 56.3029 377.598 56.8949 373.595 55.7702C370.309 54.8465 367.82 53.0519 367.322 51.4127C364.909 50.1752 363.453 48.4898 363.84 47.1128C364.288 45.521 367.053 44.8604 370.358 45.4161C369.837 44.875 369.593 44.3099 369.734 43.8075C369.894 43.24 370.514 42.8597 371.398 42.6934C370.382 42.168 369.771 41.4574 369.935 40.8752Z" fill="#C39C62"/>
<path d="M369.935 40.8752L368.972 40.6047L368.972 40.6051L369.935 40.8752ZM373.419 40.3124L373.69 39.3497L373.69 39.3497L373.419 40.3124ZM376.1 42.6073L377.063 42.8779L377.063 42.8778L376.1 42.6073ZM375.587 43.156L375.136 42.2632C374.778 42.444 374.563 42.8214 374.589 43.2218C374.615 43.6223 374.879 43.9681 375.258 44.1002L375.587 43.156ZM379.009 46.414L379.972 46.6848L379.972 46.6846L379.009 46.414ZM378.807 46.7995L378.023 46.1789C377.808 46.4514 377.749 46.8164 377.868 47.1429C377.988 47.4693 378.268 47.7104 378.609 47.7795L378.807 46.7995ZM379.552 46.9758L379.822 46.0131L379.822 46.0131L379.552 46.9758ZM383.584 50.4284L384.547 50.6993L384.547 50.699L383.584 50.4284ZM380.503 51.6286L380.546 50.6296C380.126 50.6114 379.739 50.8585 379.578 51.2476C379.418 51.6368 379.518 52.0846 379.83 52.368L380.503 51.6286ZM381.787 54.4481L382.749 54.7187L382.749 54.7186L381.787 54.4481ZM373.595 55.7702L373.325 56.7329L373.325 56.7329L373.595 55.7702ZM367.322 51.4127L368.279 51.1225C368.201 50.863 368.02 50.6466 367.779 50.5229L367.322 51.4127ZM363.84 47.1128L362.877 46.8421L362.877 46.8423L363.84 47.1128ZM370.358 45.4161L370.192 46.4022C370.618 46.4737 371.041 46.2644 371.242 45.8828C371.444 45.5013 371.378 45.0337 371.079 44.7228L370.358 45.4161ZM369.734 43.8075L368.772 43.537L368.772 43.537L369.734 43.8075ZM371.398 42.6934L371.582 43.6762C372.002 43.5973 372.325 43.2609 372.387 42.8387C372.449 42.4165 372.236 42.0014 371.857 41.8053L371.398 42.6934ZM369.935 40.8752L370.897 41.1457C370.84 41.3509 370.733 41.1943 371.281 41.1057C371.738 41.0318 372.405 41.0661 373.149 41.2751L373.419 40.3124L373.69 39.3497C372.731 39.0803 371.766 39.0014 370.962 39.1313C370.249 39.2465 369.251 39.6105 368.972 40.6047L369.935 40.8752ZM373.419 40.3124L373.149 41.2751C373.892 41.4842 374.479 41.802 374.831 42.1031C375.253 42.4641 375.08 42.542 375.137 42.3369L376.1 42.6073L377.063 42.8778C377.342 41.8837 376.68 41.0534 376.131 40.5838C375.513 40.0543 374.648 39.6192 373.69 39.3497L373.419 40.3124ZM376.1 42.6073L375.137 42.3368C375.145 42.31 375.156 42.286 375.167 42.2662C375.179 42.2468 375.189 42.2347 375.194 42.2293C375.203 42.22 375.191 42.2356 375.136 42.2632L375.587 43.156L376.037 44.0488C376.454 43.8388 376.896 43.4718 377.063 42.8779L376.1 42.6073ZM375.587 43.156L375.258 44.1002C376.277 44.4555 377.075 44.9343 377.562 45.3948C377.806 45.6248 377.941 45.8211 378.004 45.9628C378.035 46.0307 378.045 46.0773 378.048 46.1037C378.05 46.1281 378.048 46.1391 378.046 46.1435L379.009 46.414L379.972 46.6846C380.281 45.5848 379.63 44.5969 378.936 43.941C378.193 43.2393 377.127 42.634 375.916 42.2118L375.587 43.156ZM379.009 46.414L378.047 46.1433C378.047 46.1421 378.047 46.1436 378.044 46.1485C378.041 46.1537 378.035 46.1639 378.023 46.1789L378.807 46.7995L379.592 47.4201C379.754 47.2146 379.892 46.9701 379.972 46.6848L379.009 46.414ZM378.807 46.7995L378.609 47.7795C378.839 47.8263 379.062 47.8771 379.281 47.9385L379.552 46.9758L379.822 46.0131C379.54 45.9338 379.265 45.872 379.006 45.8195L378.807 46.7995ZM379.552 46.9758L379.281 47.9385C380.454 48.2682 381.406 48.7759 382.003 49.2866C382.302 49.5424 382.476 49.7691 382.561 49.9385C382.602 50.0201 382.617 50.0771 382.622 50.1102C382.626 50.1405 382.623 50.1535 382.621 50.1579L383.584 50.4284L384.547 50.699C384.882 49.506 384.097 48.4466 383.304 47.7674C382.441 47.0284 381.21 46.4032 379.822 46.0131L379.552 46.9758ZM383.584 50.4284L382.621 50.1576C382.621 50.16 382.615 50.1869 382.56 50.2365C382.5 50.2907 382.389 50.3635 382.205 50.4332C381.83 50.5748 381.263 50.6605 380.546 50.6296L380.503 51.6286L380.46 52.6277C381.351 52.6662 382.207 52.5705 382.912 52.304C383.604 52.0425 384.308 51.5472 384.547 50.6993L383.584 50.4284ZM380.503 51.6286L379.83 52.368C380.782 53.2354 380.911 53.8695 380.824 54.1776L381.787 54.4481L382.749 54.7186C383.157 53.2674 382.276 51.8907 381.176 50.8893L380.503 51.6286ZM381.787 54.4481L380.824 54.1775C380.732 54.5052 380.237 55.0133 378.837 55.2392C377.528 55.4505 375.76 55.3396 373.866 54.8074L373.595 55.7702L373.325 56.7329C375.434 57.3254 377.5 57.4809 379.156 57.2137C380.721 56.9611 382.32 56.2458 382.749 54.7187L381.787 54.4481ZM373.595 55.7702L373.866 54.8075C372.316 54.3718 370.978 53.7367 369.987 53.0413C368.968 52.3257 368.433 51.6301 368.279 51.1225L367.322 51.4127L366.365 51.703C366.709 52.8345 367.667 53.8558 368.838 54.6782C370.038 55.5209 371.588 56.2449 373.325 56.7329L373.595 55.7702ZM367.322 51.4127L367.779 50.5229C366.651 49.9447 365.807 49.2905 365.303 48.6787C364.784 48.0502 364.736 47.6205 364.803 47.3834L363.84 47.1128L362.877 46.8423C362.557 47.9821 363.044 49.0837 363.76 49.9515C364.49 50.836 365.581 51.6433 366.866 52.3026L367.322 51.4127ZM363.84 47.1128L364.803 47.3835C364.88 47.1077 365.236 46.6919 366.273 46.4284C367.263 46.177 368.634 46.1404 370.192 46.4022L370.358 45.4161L370.524 44.4299C368.776 44.1361 367.112 44.1519 365.781 44.4899C364.498 44.8157 363.247 45.5261 362.877 46.8421L363.84 47.1128ZM370.358 45.4161L371.079 44.7228C370.879 44.5157 370.774 44.3453 370.727 44.2265C370.704 44.1697 370.697 44.1315 370.695 44.1104C370.694 44.0909 370.696 44.0819 370.697 44.078L369.734 43.8075L368.772 43.537C368.486 44.555 369.029 45.4776 369.637 46.1094L370.358 45.4161ZM369.734 43.8075L370.697 44.078C370.698 44.074 370.702 44.0628 370.718 44.0419C370.737 44.019 370.773 43.9817 370.842 43.9367C370.985 43.8431 371.226 43.7433 371.582 43.6762L371.398 42.6934L371.213 41.7107C370.237 41.8943 369.093 42.3918 368.772 43.537L369.734 43.8075ZM371.398 42.6934L371.857 41.8053C371.428 41.5832 371.145 41.351 370.997 41.1715C370.837 40.9762 370.942 40.9878 370.898 41.1453L369.935 40.8752L368.972 40.6051C368.764 41.3447 369.093 42.0028 369.451 42.4397C369.822 42.8924 370.352 43.2783 370.938 43.5816L371.398 42.6934Z" fill="black" mask="url(#path-2-inside-1_232_266)"/>
<path d="M366.161 46.8692L374.556 51.0121C382.882 55.1209 390.405 60.6859 396.772 67.4436L403.109 74.1704L394.176 73.1347C384.863 72.0552 375.805 69.3824 367.397 65.2333L358.873 61.0264C349.571 56.4355 341.604 49.5408 335.725 41.005C346.208 40.1886 356.723 42.2114 366.161 46.8692Z" fill="#51658D" stroke="black"/>
<path d="M-287.496 257L339.004 51.5L345.004 56.5L-99.4961 300.5L-287.496 257Z" fill="#799EE7" fill-opacity="0.47"/>
<path d="M172.002 48C166.402 65.6 171.002 83.3333 174.002 90L264.5 106C260.333 101.333 251.5 95 244 90C237.139 85.4258 217.5 69.5 212 62C207.658 56.0785 205.5 51.8333 205 50C205.667 54.8333 206.1 62.8 202.5 56C198.9 49.2 199.333 38.5 200 34C195.701 36.4802 190.682 32.154 192.501 27.5361L193.5 25C188.667 25.3333 177.602 30.4 172.002 48Z" fill="#353E6D" stroke="black" stroke-linecap="round" stroke-linejoin="round"/>
<path d="M192 28C189.667 29.3333 184.099 33.6001 180.498 42C173.426 58.5 181.002 81 181 79.5" stroke="black" stroke-width="0.65" stroke-linecap="round"/>
<path d="M192.998 26C188 28 180.6 34.1001 177 42.5C169.928 59 175.999 83 175.997 81.5" stroke="black" stroke-width="0.65" stroke-linecap="round"/>
<path d="M191.511 30.1861C189.411 31.8625 184.644 37.4288 182.379 46.2825C177.929 63.6739 188.457 85.3121 188.224 83.8302" stroke="black" stroke-width="0.65" stroke-linecap="round"/>
<path d="M192 31.5005C192 31.5005 186.741 37.0299 184.998 46.001C181.5 64 195.232 85.9823 195 84.5004" stroke="black" stroke-width="0.65" stroke-linecap="round"/>
<path d="M193.192 32.4956C193.192 32.4956 188.535 38.5406 187.731 47.6441C186.119 65.9088 202.057 86.3484 201.672 84.8987" stroke="black" stroke-width="0.65" stroke-linecap="round"/>
<path d="M194.148 33.6763C194.148 33.6763 189.963 40.0571 189.852 49.1954C189.63 67.5298 207.072 86.7016 206.578 85.2853" stroke="black" stroke-width="0.65" stroke-linecap="round"/>
<path d="M195 34C195 34 191.599 40.6173 192.106 49.7421C193.125 68.0495 211.825 85.9972 211.236 84.6175" stroke="black" stroke-width="0.65" stroke-linecap="round"/>
<path d="M196.182 34.4849C196.182 34.4849 192.996 41.419 194.251 50.4714C196.768 68.6335 216.877 84.987 216.177 83.6602" stroke="black" stroke-width="0.65" stroke-linecap="round"/>
<path d="M197.892 34.8868C197.892 34.8868 195.057 41.9716 196.763 50.9499C200.185 68.9634 224.265 86.7901 223.5 85.5" stroke="black" stroke-width="0.65" stroke-linecap="round"/>
<path d="M198.391 35.0542C198.391 35.0542 196.391 42.7443 199.306 52.3226C205.155 71.5401 232.224 89.9068 231.27 88.5468" stroke="black" stroke-width="0.65" stroke-linecap="round"/>
<path d="M77 163.501C36.5 163.501 -90.5 175.167 -148 179.501L-171 167.501C-147.5 165.834 -91.5 161.4 -55.5 157C-10.5 151.5 109.5 147.001 136.5 135.001C143 93.5 167 77.5006 192 78.0006C217 78.5006 269 105.501 304.5 117.001C340 128.501 344 158.001 359 178.001C371 194.001 377.5 163.501 399 152.001L369.5 204L359 264C356.5 254 356.226 245.997 356.5 239C358.253 194.199 354.066 189.626 348 186.501C331.5 178.001 316.5 183.499 300 193.5C285.935 202.025 260 248.5 208 256C194.076 258.009 173 254 158.5 237.5L109.5 276.501C109.5 276.501 116.514 249.786 125 234.5C132.714 220.604 153 194.501 153 194.501C146.333 182.001 119.008 163.501 77 163.501Z" fill="#484E81" stroke="black" stroke-linecap="round"/>
<path d="M178.5 222.5L213 210M178.5 210C190.5 202.333 214.9 187 216.5 187C216.5 187 228.147 191.5 230.5 181.5C232.382 173.5 221 172 221 172L174 157" stroke="black" stroke-linecap="round" stroke-linejoin="round"/>
<path d="M234.5 106.5C226.1 91.7 217.333 85 214 83.5L234.5 90C235.5 91 243 99 246.5 112C249.532 123.261 248 149 243 169C245.936 150 242.9 121.3 234.5 106.5Z" fill="#7094D9" fill-opacity="0.37"/>
<path d="M262.505 114.809C257.459 102.981 251.509 97.2461 249.164 95.8574L264 102C264.66 102.832 266.378 106.96 268.782 115.459C271.187 123.958 268.771 140.794 267.263 148.149C267.779 141.964 267.55 126.637 262.505 114.809Z" fill="#7094D9" fill-opacity="0.37"/>
<path d="M280.988 120.318C278.118 110.109 275.77 107.385 274 106L283.484 110C283.936 110.751 284.989 114.31 286.054 121.517C287.118 128.723 283.355 142.235 281.341 148.09C282.419 143.087 283.859 130.527 280.988 120.318Z" fill="#7094D9" fill-opacity="0.37"/>
<path d="M299.863 124.474C299.863 120.5 299.136 116.904 298 115.5L304 117.501C304.218 118.17 304.741 120.583 303.613 126.327C302.5 132 297.76 142.064 295.125 146.285C296.873 142.562 299.863 132.997 299.863 124.474Z" fill="#7094D9" fill-opacity="0.37"/>
<path d="M208 256.001C194.076 258.009 170 256.001 158.5 237.5L179 222.093C184.357 223.598 186.5 231 208 231C255 231.002 312.5 150.001 348 186.501C331.5 178.001 314.745 185.469 301 194.501C283.5 206 260 248.501 208 256.001Z" fill="#8598BB" stroke="black" stroke-linecap="round"/>
<path d="M160.5 216.5C151.3 222.9 126 242.5 109.5 276.5C112.333 266.167 119.6 242.7 126 231.5C132.4 220.3 145.833 198.167 150 192.5C145.5 186.167 136.5 179.5 117 172.5C103.178 167.538 82.3333 163.5 73 163.5C84.1667 161 115.2 156.5 150 158.5C184.8 160.5 209.5 173.334 217.5 179.5C196.667 194.667 169.7 210.1 160.5 216.5Z" fill="#9467A3" stroke="black" stroke-linecap="round"/>
<path d="M164.626 213.559C164.626 213.559 155.145 197.864 153.621 181.25C152.697 171.18 154.764 161.408 155.421 159.188M176 206C176 206 169.415 194.01 168.594 178.252C168.038 167.578 170.733 161.77 170.733 161.77M188.832 197.86C188.832 197.86 184.335 190.126 183.835 177.464C183.5 169 185.389 166.008 186 165" stroke="black" stroke-linecap="round"/>
<path d="M136.5 135L152.5 130" stroke="black" stroke-linecap="round"/>
<path d="M256.496 306L395.996 54L405.992 59.5V306H256.496Z" fill="#799EE7" fill-opacity="0.47"/>
<path d="M324.176 211.158C292.612 211.158 261.314 215.159 253.314 211.159C239.863 204.433 261.041 192.567 271.5 194.5C306 200.878 410.342 199.037 450.176 199.037C420.009 203.703 347.676 211.158 324.176 211.158Z" fill="#484E81" stroke="black" stroke-linecap="round"/>
<path d="M199.5 132.5C201.378 132.5 203.117 133.514 204.403 135.229C205.69 136.944 206.5 139.336 206.5 142C206.5 144.664 205.69 147.056 204.403 148.771C203.117 150.486 201.378 151.5 199.5 151.5C197.622 151.5 195.883 150.486 194.597 148.771C193.31 147.056 192.5 144.664 192.5 142C192.5 139.336 193.31 136.944 194.597 135.229C195.883 133.514 197.622 132.5 199.5 132.5Z" fill="#455575" stroke="black"/>
<path d="M202 134.5C203.131 134.5 204.245 135.283 205.104 136.743C205.957 138.192 206.5 140.226 206.5 142.5C206.5 144.774 205.957 146.808 205.104 148.257C204.245 149.717 203.131 150.5 202 150.5C200.869 150.5 199.755 149.717 198.896 148.257C198.043 146.808 197.5 144.774 197.5 142.5C197.5 140.226 198.043 138.192 198.896 136.743C199.755 135.283 200.869 134.5 202 134.5Z" fill="#9BCCD7" stroke="black"/>
<path d="M202 137.5C202.56 137.5 203.177 137.923 203.683 138.851C204.178 139.759 204.5 141.049 204.5 142.5C204.5 143.951 204.178 145.241 203.683 146.149C203.177 147.077 202.56 147.5 202 147.5C201.44 147.5 200.823 147.077 200.317 146.149C199.822 145.241 199.5 143.951 199.5 142.5C199.5 141.049 199.822 139.759 200.317 138.851C200.823 137.923 201.44 137.5 202 137.5Z" fill="#5C5B5B" stroke="black"/>
<ellipse cx="407.877" cy="41.6747" rx="6.67522" ry="1.98484" transform="rotate(25.6054 407.877 41.6747)" fill="#799EE7"/>
<ellipse cx="341.154" cy="32.7667" rx="4.14875" ry="1.2336" transform="rotate(25.6054 341.154 32.7667)" fill="#799EE7"/>
<ellipse cx="362.877" cy="33.6747" rx="6.67522" ry="1.98484" transform="rotate(25.6054 362.877 33.6747)" fill="#799EE7" fill-opacity="0.47"/>
<ellipse cx="314.877" cy="41.6747" rx="6.67522" ry="1.98484" transform="rotate(25.6054 314.877 41.6747)" fill="#799EE7" fill-opacity="0.47"/>
<ellipse cx="340.604" cy="53.8243" rx="6.92986" ry="3.13753" transform="rotate(25.6054 340.604 53.8243)" fill="#799EE7"/>
<ellipse cx="426.314" cy="96.8438" rx="11.6263" ry="4.23512" transform="rotate(25.6054 426.314 96.8438)" fill="#799EE7" fill-opacity="0.47"/>
<ellipse cx="401.314" cy="57.8438" rx="11.6263" ry="4.23512" transform="rotate(25.6054 401.314 57.8438)" fill="#799EE7"/>
<ellipse cx="392.314" cy="90.8438" rx="11.6263" ry="4.23512" transform="rotate(25.6054 392.314 90.8438)" fill="#799EE7" fill-opacity="0.47"/>
<ellipse cx="346.314" cy="77.8438" rx="11.6263" ry="4.23512" transform="rotate(25.6054 346.314 77.8438)" fill="#799EE7" fill-opacity="0.47"/>
<circle cx="100.5" cy="93.5" r="1" stroke="#F7F6E9"/>
<circle cx="62.5" cy="130.5" r="1" stroke="#F7F6E9"/>
<circle cx="62.5" cy="93.5" r="1" stroke="#F7F6E9"/>
<circle cx="114.5" cy="148.5" r="1" stroke="#F7F6E9"/>
<circle cx="77.5" cy="182.5" r="1" stroke="#F7F6E9"/>
<circle cx="115" cy="90" r="1.5" stroke="#F7F6E9"/>
<circle cx="108" cy="85" r="1.5" stroke="#F7F6E9"/>
<circle cx="124" cy="74" r="1.5" stroke="#F7F6E9"/>
<circle cx="160" cy="81" r="1.5" stroke="#F7F6E9"/>
<circle cx="207.5" cy="27.5" r="1" stroke="#F7F6E9"/>
<circle cx="244.5" cy="50.5" r="1" stroke="#F7F6E9"/>
<circle cx="130.5" cy="66.5" r="2" stroke="#F7F6E9"/>
<circle cx="118.5" cy="108.5" r="3" stroke="#F7F6E9"/>
<circle cx="143.5" cy="54.5" r="5" stroke="#F7F6E9"/>
<circle cx="259" cy="28" r="2.5" stroke="#F7F6E9"/>
<path d="M237.15 139.792C238.338 139.284 239.533 139.463 240.38 140.139C241.282 140.858 241.723 142.09 241.387 143.455C241.08 144.699 240.177 145.824 239.026 146.828C237.868 147.84 236.405 148.775 234.89 149.628C233.373 150.482 231.783 151.264 230.368 151.961C229.018 152.626 227.844 153.208 227.013 153.709C225.456 157.615 223.067 163.988 219.077 168.959L218.677 169.502C214.511 175.006 209.524 176.983 205.516 176.695C201.411 176.401 198.262 173.678 198.501 169.968L198.522 169.851C198.558 169.738 198.633 169.64 198.735 169.576C198.872 169.491 199.041 169.476 199.189 169.537L200.409 170.037L200.509 170.092C200.601 170.157 200.67 170.253 200.701 170.364C201.247 172.303 203.626 173.767 206.85 173.696C210.027 173.627 213.896 172.042 217.111 168.044C221.05 163.146 224.173 156.782 225.708 152.924C225.727 152.876 225.754 152.831 225.787 152.791C226.323 152.141 227.017 151.155 227.836 149.988C228.649 148.829 229.577 147.503 230.562 146.195C231.548 144.888 232.599 143.59 233.665 142.485C234.726 141.386 235.827 140.454 236.913 139.903L237.15 139.792ZM215.984 155.997C216.427 155.994 216.81 155.997 217.088 156.009C217.225 156.015 217.348 156.023 217.444 156.036C217.49 156.042 217.548 156.051 217.605 156.067C217.633 156.075 217.681 156.091 217.733 156.12C217.765 156.138 217.873 156.2 217.942 156.332L217.97 156.393L217.989 156.46C218.023 156.613 217.976 156.735 217.964 156.766C217.942 156.821 217.914 156.864 217.898 156.886C217.866 156.933 217.828 156.975 217.799 157.006C217.736 157.072 217.651 157.153 217.556 157.238C217.362 157.412 217.087 157.643 216.766 157.904C216.12 158.429 215.266 159.096 214.443 159.72C213.622 160.343 212.822 160.929 212.289 161.292C212.039 161.462 211.804 161.613 211.655 161.678C211.631 161.688 211.532 161.733 211.412 161.735C211.353 161.736 211.175 161.73 211.029 161.578C210.87 161.411 210.881 161.214 210.896 161.133C210.91 161.05 210.942 160.988 210.957 160.96C210.975 160.926 210.995 160.898 211.011 160.876C211.042 160.833 211.08 160.789 211.117 160.748L212.533 159.191L209.223 160.42C208.839 160.562 208.405 160.372 208.257 159.982C208.108 159.59 208.311 159.159 208.698 159.016L212.07 157.765L209.249 157.394C209.198 157.387 209.14 157.377 209.087 157.363C209.061 157.356 209.019 157.345 208.974 157.323C208.948 157.311 208.825 157.254 208.743 157.115C208.693 157.03 208.66 156.917 208.677 156.79C208.693 156.67 208.748 156.583 208.791 156.531C208.866 156.441 208.954 156.399 208.979 156.388C209.046 156.357 209.115 156.34 209.152 156.332C209.316 156.296 209.606 156.265 209.947 156.237C210.653 156.179 211.72 156.122 212.828 156.078C213.937 156.034 215.096 156.003 215.984 155.997ZM239.447 141.306C239.027 140.969 238.359 140.851 237.595 141.238C235.651 142.223 233.941 144.131 232.346 146.286C231.552 147.358 230.8 148.473 230.065 149.547C229.797 149.939 229.528 150.325 229.264 150.702C229.649 150.509 230.055 150.308 230.474 150.102C231.753 149.471 233.167 148.776 234.513 148.021C235.861 147.265 237.121 146.46 238.098 145.615C239.083 144.763 239.723 143.919 239.926 143.098C240.129 142.275 239.869 141.644 239.447 141.306Z" fill="#888888" stroke="black" stroke-linecap="round" stroke-linejoin="round"/>
<path d="M374.5 50L237.464 139.714C236.357 140.439 235.998 141.896 236.64 143.052C237.367 144.361 239.067 144.753 240.294 143.895L374.5 50Z" fill="#F7F6E9" stroke="black" stroke-linecap="round" stroke-linejoin="round"/>
<rect x="245.767" y="129.69" width="11" height="5" rx="2.5" transform="rotate(21.0649 245.767 129.69)" fill="#F7F6E9" stroke="black"/>
<rect x="250.443" y="126.646" width="11" height="5" rx="2.5" transform="rotate(21.0649 250.443 126.646)" fill="#F7F6E9" stroke="black"/>
</g>
<defs>
<clipPath id="clip0_232_266">
<rect width="450" height="288" fill="white"/>
</clipPath>
</defs>
</svg>
