<svg width="450" height="288" viewBox="0 0 450 288" fill="none" xmlns="http://www.w3.org/2000/svg">
<g clip-path="url(#clip0_232_344)">
<rect width="450" height="288" fill="#D1E4FF"/>
<path d="M320.064 62.1826C335.305 60.215 351.025 58.8594 363.924 59.21C370.374 59.3853 376.1 59.987 380.698 61.1436C385.311 62.3036 388.715 64.0042 390.613 66.3174C394.765 71.3776 402.223 73.1258 411.13 73.1807C420.064 73.2357 430.622 71.5867 441.151 69.6807C451.702 67.7709 462.218 65.6041 471.142 64.5986C475.6 64.0963 479.638 63.8871 483.063 64.1406C486.496 64.3947 489.264 65.1103 491.223 66.416C512.126 80.351 530.128 81.8762 542.924 79.8916C549.316 78.9002 554.399 77.0349 557.888 75.415C559.632 74.605 560.979 73.8568 561.892 73.3086C562.122 73.1699 562.325 73.0434 562.5 72.9326V321.5H-193.299C-193.281 321.447 -193.261 321.391 -193.24 321.332C-193.05 320.785 -192.767 319.973 -192.394 318.915C-191.646 316.799 -190.538 313.701 -189.097 309.771C-186.214 301.913 -181.996 290.73 -176.657 277.437C-165.978 250.849 -150.816 215.826 -132.881 182.069C-114.942 148.305 -94.2473 115.844 -72.5117 94.3564C-50.7993 72.8917 -28.2093 62.5208 -6.33203 72.3994C-2.65592 77.9039 4.59151 79.7813 13.3516 79.8125C22.2092 79.844 32.8034 77.9899 43.292 75.8652C53.8045 73.7358 64.2035 71.3368 72.749 70.2461C77.0196 69.701 80.7956 69.4879 83.8682 69.791C86.9518 70.0953 89.2448 70.912 90.6416 72.3486C96.2596 78.127 105.551 80.0937 116.346 80.0938C127.164 80.0938 139.63 78.1174 151.732 75.8672C163.857 73.6129 175.601 71.0873 185.05 69.9648C189.772 69.4039 193.887 69.1983 197.166 69.5439C200.461 69.8914 202.808 70.7858 204.119 72.3242C207.121 75.848 212.252 77.5554 218.126 78.1924C224.019 78.8314 230.767 78.4047 237.129 77.5586C243.495 76.7119 249.496 75.4419 253.905 74.3848C256.11 73.856 257.918 73.3801 259.176 73.0361C259.804 72.8642 260.296 72.725 260.63 72.6289C260.797 72.5808 260.925 72.543 261.012 72.5176C261.055 72.505 261.087 72.4958 261.109 72.4893C261.114 72.4879 261.118 72.4864 261.122 72.4854C261.124 72.4849 261.127 72.484 261.13 72.4834C261.144 72.4803 261.164 72.4757 261.191 72.4697C261.246 72.4576 261.328 72.4397 261.436 72.416C261.651 72.3685 261.972 72.2979 262.391 72.207C263.228 72.0253 264.46 71.7609 266.032 71.4316C269.178 70.773 273.691 69.8539 279.156 68.8115C290.088 66.7266 304.828 64.1497 320.064 62.1826Z" fill="#7094D9" stroke="black"/>
<path d="M76 65.5C73.6701 66.5355 72.5 68.4997 60.5 71.9994C66.3333 70.9995 79.4 69.1997 85 69.9997C87.9823 70.4257 89.8207 71.4853 91.0891 72.71C92.7039 74.2691 95.2764 75.2726 96.8735 73.6954C97.4915 73.0851 97.7349 72.4397 97.5 71.5C96.6425 68.07 94 69 94 69C95.5 67.5 95.5234 64.4989 92.5 64.499C87.5 64.4992 79.5 66.9994 79.5 66.9994C80 66.1661 80.5 63.5 76 65.5Z" fill="#F7F6E9" stroke="black" stroke-linecap="round" stroke-linejoin="round"/>
<path d="M189.5 64.1013C185.5 64.1013 177.5 69.1013 174 71.6013C179.833 70.6014 192.9 68.8016 198.5 69.6016C201.943 70.0934 204.617 71.9961 206.476 73.8925C208.048 75.4954 210.683 76.2972 212.483 74.9567C213.897 73.9041 214.673 72.654 213.5 70.6016C211.746 67.5319 209 68.1016 209 68.1016C210.5 66.6016 212.4 61.9013 206 61.1013C199.6 60.3013 194.667 64.4347 193 66.6013C193.5 65.768 193.5 64.1013 189.5 64.1013Z" fill="#F7F6E9" stroke="black" stroke-linecap="round" stroke-linejoin="round"/>
<path d="M302.345 3.43532C302.885 3.32031 303.417 3.66498 303.532 4.20516L315.42 60.0463C315.536 60.5865 315.191 61.1177 314.651 61.2327C314.11 61.3477 313.579 61.003 313.464 60.4628L301.575 4.62163C301.46 4.08146 301.805 3.55032 302.345 3.43532Z" fill="#6D4A18"/>
<path d="M313.464 60.4628L312.975 60.5669L313.464 60.4628ZM301.575 4.62163L302.064 4.51751L301.575 4.62163ZM302.345 3.43532L302.449 3.92436C302.719 3.86685 302.985 4.03919 303.043 4.30927L303.532 4.20516L304.021 4.10104C303.848 3.29077 303.051 2.77377 302.241 2.94628L302.345 3.43532ZM303.532 4.20516L303.043 4.30927L314.931 60.1505L315.42 60.0463L315.91 59.9422L304.021 4.10104L303.532 4.20516ZM315.42 60.0463L314.931 60.1505C314.989 60.4206 314.817 60.6861 314.547 60.7436L314.651 61.2327L314.755 61.7217C315.565 61.5492 316.082 60.7525 315.91 59.9422L315.42 60.0463ZM314.651 61.2327L314.547 60.7436C314.276 60.8011 314.011 60.6288 313.953 60.3587L313.464 60.4628L312.975 60.5669C313.148 61.3772 313.945 61.8942 314.755 61.7217L314.651 61.2327ZM313.464 60.4628L313.953 60.3587L302.064 4.51751L301.575 4.62163L301.086 4.72575L312.975 60.5669L313.464 60.4628ZM301.575 4.62163L302.064 4.51751C302.007 4.24742 302.179 3.98186 302.449 3.92436L302.345 3.43532L302.241 2.94628C301.431 3.11879 300.914 3.91549 301.086 4.72575L301.575 4.62163Z" fill="black"/>
<path d="M325.643 41.7395C323.844 51.0756 316.936 56.8353 313.707 58.5481L329.174 57.5439C334.345 54.8699 344.618 46.921 344.344 36.5169C344.069 26.1129 312.37 11.4043 303 6C311.438 16.0621 328.359 27.6422 325.643 41.7395Z" fill="#F7F6E9" stroke="black" stroke-linecap="round" stroke-linejoin="round"/>
<path d="M346.576 68.3548C344.65 71.6644 341.203 73.7984 337.382 74.0465L291.357 77.0346C287.507 77.2846 283.788 75.5872 281.454 72.5153L267.102 53.6252L312.124 58.6427L312.216 58.6533L312.306 58.6299L359.422 46.2799L346.576 68.3548Z" fill="#6D4A18" stroke="black"/>
<path d="M-6.17426 171.01C134.607 193.937 101.927 159.113 134.53 123.294C161.188 94.0051 185.894 96.4095 220.907 103.155C248.291 108.431 296.324 132.376 292.502 73.5002L323.002 75.0003C325.041 101.257 311.923 131.318 279.72 136.916C248.487 142.345 206.69 131.135 196.898 157.826C187.941 182.243 199.49 197.742 173.518 214.459C137.782 237.463 80.5584 194.941 57.0359 257.096C31.3451 324.98 -6.17465 299 -6.17465 299L-6.17426 171.01Z" fill="#9467A3"/>
<path d="M339.614 42.0497C345.075 47.1897 343.412 48.3252 343.94 49.4175L287.249 64.8624C296.993 59.6146 307.587 54.3174 314.748 47.8984C318.26 44.7498 321.002 41.0582 317.489 40.3159C322.201 40.1729 333.252 36.0625 339.614 42.0497Z" fill="#7481C6" stroke="black" stroke-linecap="round" stroke-linejoin="round"/>
<path d="M269.634 61.9395L231.758 38.8164L249.676 50.5637C265.437 60.8974 265.824 83.8663 250.419 94.7248L273.069 78.7596C277.337 75.7514 282.469 74.217 287.688 74.3892L341.463 76.1638C350.479 76.4613 359.048 72.2366 364.302 64.9036L365.003 63.9254L389.225 60.8152L358.079 62.8373L406.324 56.3934L360.754 55.8629C356.676 48.1249 347.574 44.5043 339.295 47.3266L289.883 64.1713C283.137 66.4713 275.717 65.6535 269.634 61.9395Z" fill="#5460A3" stroke="black" stroke-linecap="round" stroke-linejoin="round"/>
<path d="M331.854 67.8924L330.752 50.9281L334.679 49.671L331.854 67.8924Z" fill="#7481C6"/>
<path d="M323.551 71.2205L318.957 54.483L322.399 53.4749L323.551 71.2205Z" fill="#7481C6"/>
<path d="M312.766 74.9266L308.172 58.189L311.614 57.181L312.766 74.9266Z" fill="#7481C6"/>
<circle cx="350.752" cy="59.1493" r="2.15237" transform="rotate(-3.71469 350.752 59.1493)" fill="#3E4E52" stroke="black"/>
<circle cx="293.594" cy="72.8816" r="1.5" transform="rotate(-3.71469 293.594 72.8816)" fill="#E23171" stroke="black"/>
<circle cx="299.258" cy="67.5037" r="1.5" transform="rotate(-3.71469 299.258 67.5037)" fill="#E23171" stroke="black"/>
<circle cx="307.114" cy="64.9895" r="1.5" transform="rotate(-3.71469 307.114 64.9895)" fill="#E23171" stroke="black"/>
<circle cx="315.289" cy="67.4651" r="1.5" transform="rotate(-3.71469 315.289 67.4651)" fill="#E23171" stroke="black"/>
<circle cx="321.731" cy="74.0613" r="1.5" transform="rotate(-3.71469 321.731 74.0613)" fill="#E23171" stroke="black"/>
<path d="M343.522 70.1414L341.057 70.3014C338.883 70.4426 336.958 71.761 336.423 73.8734C335.437 77.7712 334.413 82.9083 325.52 93.8575C334.806 90.2483 343.884 78.3017 343.522 70.1414Z" fill="#494F82" stroke="black" stroke-linecap="round"/>
<path d="M267.194 244.539C267.938 240.529 266.701 236.802 265.989 235.44C263.204 234.325 256.639 240.314 258.96 241.243C260.817 241.987 261.217 250.405 261.185 254.521C262.3 252.634 266.45 248.55 267.194 244.539Z" fill="#2D345F" stroke="black" stroke-linecap="round" stroke-linejoin="round"/>
<mask id="path-22-outside-1_232_344" maskUnits="userSpaceOnUse" x="252.343" y="188.923" width="31.2038" height="42.8962" fill="black">
<rect fill="white" x="252.343" y="188.923" width="31.2038" height="42.8962"/>
<path d="M268.237 191.673C268.513 191.679 268.733 191.907 268.728 192.183L267.976 229.044C267.97 229.319 267.742 229.539 267.466 229.534C267.19 229.528 266.971 229.3 266.976 229.024L267.728 192.164C267.733 191.888 267.962 191.668 268.237 191.673Z"/>
</mask>
<path d="M268.237 191.673C268.513 191.679 268.733 191.907 268.728 192.183L267.976 229.044C267.97 229.319 267.742 229.539 267.466 229.534C267.19 229.528 266.971 229.3 266.976 229.024L267.728 192.164C267.733 191.888 267.962 191.668 268.237 191.673Z" fill="#6D4A18"/>
<path d="M268.237 191.673L268.258 190.674L268.257 190.674L268.237 191.673ZM268.728 192.183L269.727 192.204L269.727 192.202L268.728 192.183ZM267.976 229.044L266.976 229.023L267.976 229.044ZM267.466 229.534L267.446 230.534L267.447 230.534L267.466 229.534ZM266.976 229.024L265.976 229.004L265.976 229.005L266.976 229.024ZM267.728 192.164L266.728 192.143L266.728 192.143L267.728 192.164ZM268.237 191.673L268.217 192.673C267.942 192.668 267.722 192.441 267.728 192.164L268.728 192.183L269.727 192.202C269.743 191.374 269.085 190.691 268.258 190.674L268.237 191.673ZM268.728 192.183L267.728 192.163L266.976 229.023L267.976 229.044L268.976 229.064L269.727 192.204L268.728 192.183ZM267.976 229.044L266.976 229.023C266.982 228.748 267.209 228.529 267.486 228.534L267.466 229.534L267.447 230.534C268.276 230.55 268.959 229.89 268.976 229.064L267.976 229.044ZM267.466 229.534L267.487 228.534C267.761 228.54 267.981 228.766 267.976 229.044L266.976 229.024L265.976 229.005C265.96 229.834 266.62 230.517 267.446 230.534L267.466 229.534ZM266.976 229.024L267.976 229.044L268.727 192.184L267.728 192.164L266.728 192.143L265.976 229.004L266.976 229.024ZM267.728 192.164L268.727 192.184C268.722 192.459 268.495 192.679 268.218 192.673L268.237 191.673L268.257 190.674C267.428 190.658 266.745 191.317 266.728 192.143L267.728 192.164Z" fill="black" mask="url(#path-22-outside-1_232_344)"/>
<path d="M266.924 195.423C262.621 202.138 251.779 208.736 242.316 207.116C228.206 204.699 226.446 186.222 244.365 183.162C267.234 179.256 282.712 177.507 286.989 153.367" stroke="black" stroke-linecap="round" stroke-linejoin="round"/>
<path d="M247.699 228.658L227.179 230.139C229.267 232.285 229.896 235.459 228.783 238.24L228.384 239.238L247.699 228.658Z" fill="#2D345F" stroke="black" stroke-linecap="round"/>
<path d="M205.515 241.96L191.792 236.467C195.42 242.201 201.405 244.353 203.775 248.239C206.146 252.124 199.001 258.377 198.387 261.7L212.597 249.077C221.707 248.441 244.493 249.989 259.951 241.102C270.443 235.07 273.917 228.63 277.35 223.832C287.34 209.869 277.527 205.551 250.02 224.202C240.635 230.565 222.4 241 210.647 242.715C208.904 242.97 207.151 242.615 205.515 241.96Z" fill="#2D345F" stroke="black" stroke-linecap="round" stroke-linejoin="round"/>
<path d="M252.843 231.192L258.655 228.196C250.337 223.143 240.953 223.983 237.301 225.034L246.95 230.97C248.74 232.071 250.975 232.155 252.843 231.192Z" fill="#2D345F" stroke="black" stroke-linecap="round"/>
<path d="M237.387 244.997L227.823 246.016L227.079 253.258L237.387 244.997Z" fill="#2D345F"/>
<path d="M220.768 239.422L215.754 241.185L214.734 237.007L220.768 239.422Z" fill="#2D345F"/>
<path d="M237.387 244.997L227.823 246.016L227.079 253.258L237.387 244.997Z" stroke="black" stroke-linecap="round" stroke-linejoin="round"/>
<path d="M220.768 239.422L215.754 241.185L214.734 237.007L220.768 239.422Z" stroke="black" stroke-linecap="round" stroke-linejoin="round"/>
<path d="M268.499 222.442L268.407 221.328L271.471 220.4L274.442 221.051L275.741 223.186L275.927 225.415L274.441 226.436L275.741 223.186L273.791 224.022L274.442 221.051L271.192 222.443L271.471 220.4L268.499 222.442Z" fill="#D9D9D9"/>
<path d="M272.583 223C269.849 221.488 265.217 223.463 262.462 225.412C264.722 222.905 269.923 219.242 274.441 221.051C277.69 222.351 275.306 227.86 273.139 229.685C273.449 228.911 276.111 224.951 272.583 223Z" stroke="black" stroke-linecap="round" stroke-linejoin="round"/>
<mask id="path-31-outside-2_232_344" maskUnits="userSpaceOnUse" x="258.278" y="226.713" width="17.6445" height="22.6555" fill="black">
<rect fill="white" x="258.278" y="226.713" width="17.6445" height="22.6555"/>
<path d="M267.061 229.464C267.336 229.441 267.578 229.646 267.601 229.921L267.601 229.922L267.601 229.923C267.601 229.924 267.601 229.925 267.601 229.926C267.601 229.929 267.602 229.934 267.602 229.938C267.603 229.949 267.604 229.963 267.605 229.982C267.608 230.02 267.612 230.076 267.616 230.15C267.623 230.299 267.633 230.522 267.64 230.824C267.655 231.428 267.66 232.348 267.624 233.62C267.56 235.948 267.356 239.456 266.824 244.376C267.429 243.721 268.026 243.004 268.53 242.369C268.919 241.879 269.249 241.443 269.482 241.13C269.599 240.973 269.691 240.848 269.754 240.761C269.785 240.718 269.809 240.685 269.825 240.662C269.833 240.651 269.84 240.643 269.844 240.637C269.846 240.635 269.847 240.633 269.848 240.632L269.849 240.629C270.009 240.404 270.322 240.352 270.547 240.512C270.772 240.672 270.824 240.984 270.664 241.209L270.662 241.212C270.661 241.214 270.66 241.216 270.657 241.219C270.653 241.226 270.646 241.234 270.637 241.246C270.62 241.27 270.596 241.305 270.563 241.349C270.499 241.438 270.404 241.567 270.285 241.727C270.047 242.047 269.71 242.492 269.314 242.992C268.524 243.986 267.483 245.217 266.509 246.114L265.519 247.026L265.674 245.69C266.323 240.039 266.556 236.107 266.626 233.593C266.66 232.336 266.654 231.434 266.64 230.848C266.633 230.555 266.624 230.341 266.616 230.202C266.613 230.133 266.609 230.082 266.607 230.049C266.606 230.033 266.605 230.021 266.605 230.014C266.604 230.01 266.605 230.007 266.605 230.005L266.604 230.004C266.582 229.729 266.786 229.487 267.061 229.464Z"/>
</mask>
<path d="M267.061 229.464C267.336 229.441 267.578 229.646 267.601 229.921L267.601 229.922L267.601 229.923C267.601 229.924 267.601 229.925 267.601 229.926C267.601 229.929 267.602 229.934 267.602 229.938C267.603 229.949 267.604 229.963 267.605 229.982C267.608 230.02 267.612 230.076 267.616 230.15C267.623 230.299 267.633 230.522 267.64 230.824C267.655 231.428 267.66 232.348 267.624 233.62C267.56 235.948 267.356 239.456 266.824 244.376C267.429 243.721 268.026 243.004 268.53 242.369C268.919 241.879 269.249 241.443 269.482 241.13C269.599 240.973 269.691 240.848 269.754 240.761C269.785 240.718 269.809 240.685 269.825 240.662C269.833 240.651 269.84 240.643 269.844 240.637C269.846 240.635 269.847 240.633 269.848 240.632L269.849 240.629C270.009 240.404 270.322 240.352 270.547 240.512C270.772 240.672 270.824 240.984 270.664 241.209L270.662 241.212C270.661 241.214 270.66 241.216 270.657 241.219C270.653 241.226 270.646 241.234 270.637 241.246C270.62 241.27 270.596 241.305 270.563 241.349C270.499 241.438 270.404 241.567 270.285 241.727C270.047 242.047 269.71 242.492 269.314 242.992C268.524 243.986 267.483 245.217 266.509 246.114L265.519 247.026L265.674 245.69C266.323 240.039 266.556 236.107 266.626 233.593C266.66 232.336 266.654 231.434 266.64 230.848C266.633 230.555 266.624 230.341 266.616 230.202C266.613 230.133 266.609 230.082 266.607 230.049C266.606 230.033 266.605 230.021 266.605 230.014C266.604 230.01 266.605 230.007 266.605 230.005L266.604 230.004C266.582 229.729 266.786 229.487 267.061 229.464Z" fill="#AAAAAA"/>
<path d="M267.061 229.464L266.978 228.468L266.978 228.468L267.061 229.464ZM267.601 229.921L268.529 230.293C268.587 230.148 268.61 229.993 268.597 229.838L267.601 229.921ZM267.601 229.922L266.672 229.55C266.574 229.797 266.577 230.072 266.681 230.316L267.601 229.922ZM267.601 229.923L268.598 229.843C268.589 229.735 268.563 229.629 268.52 229.53L267.601 229.923ZM267.601 229.926L266.602 229.973C266.603 229.984 266.603 229.994 266.604 230.005L267.601 229.926ZM267.602 229.938L268.6 229.864L268.599 229.861L267.602 229.938ZM267.605 229.982L266.607 230.049L266.607 230.049L267.605 229.982ZM267.616 230.15L268.614 230.097L268.614 230.097L267.616 230.15ZM267.64 230.824L268.64 230.799L268.64 230.799L267.64 230.824ZM267.624 233.62L268.624 233.648L268.624 233.648L267.624 233.62ZM266.824 244.376L265.83 244.269C265.783 244.698 266.017 245.108 266.41 245.287C266.803 245.465 267.266 245.372 267.559 245.055L266.824 244.376ZM268.53 242.369L269.313 242.991L269.313 242.991L268.53 242.369ZM269.482 241.13L270.285 241.727L270.285 241.727L269.482 241.13ZM269.754 240.761L270.563 241.349L270.563 241.349L269.754 240.761ZM269.825 240.662L269.013 240.079L269.013 240.079L269.825 240.662ZM269.844 240.637L269.031 240.054L269.03 240.055L269.844 240.637ZM269.848 240.632L270.662 241.213C270.708 241.148 270.747 241.077 270.777 241.003L269.848 240.632ZM269.849 240.629L269.035 240.048C268.989 240.113 268.95 240.183 268.921 240.257L269.849 240.629ZM270.547 240.512L271.128 239.697L271.127 239.697L270.547 240.512ZM270.664 241.209L269.849 240.63C269.803 240.694 269.765 240.764 269.735 240.838L270.664 241.209ZM270.662 241.212L271.476 241.793C271.523 241.728 271.561 241.658 271.591 241.584L270.662 241.212ZM270.657 241.219L271.471 241.801L271.471 241.801L270.657 241.219ZM270.637 241.246L269.825 240.662L269.825 240.662L270.637 241.246ZM270.563 241.349L271.372 241.937L271.372 241.937L270.563 241.349ZM270.285 241.727L271.087 242.324L271.087 242.324L270.285 241.727ZM269.314 242.992L270.097 243.613L270.097 243.613L269.314 242.992ZM266.509 246.114L267.186 246.85L267.187 246.85L266.509 246.114ZM265.519 247.026L264.526 246.911C264.478 247.326 264.693 247.728 265.066 247.917C265.438 248.107 265.889 248.044 266.197 247.761L265.519 247.026ZM265.674 245.69L266.667 245.804L266.667 245.804L265.674 245.69ZM266.626 233.593L267.625 233.621L267.625 233.621L266.626 233.593ZM266.64 230.848L267.64 230.824L267.639 230.824L266.64 230.848ZM266.616 230.202L267.615 230.15L267.615 230.15L266.616 230.202ZM266.607 230.049L267.605 229.982L267.605 229.982L266.607 230.049ZM266.605 230.014L265.607 230.082L265.607 230.088L266.605 230.014ZM266.605 230.005L267.602 229.926C267.593 229.818 267.567 229.711 267.524 229.611L266.605 230.005ZM266.604 230.004L265.608 230.086C265.617 230.194 265.643 230.299 265.685 230.398L266.604 230.004ZM267.061 229.464L267.144 230.461C266.868 230.484 266.627 230.279 266.604 230.004L267.601 229.921L268.597 229.838C268.529 229.013 267.804 228.399 266.978 228.468L267.061 229.464ZM267.601 229.921L266.673 229.549L266.672 229.55L267.601 229.922L268.529 230.294L268.529 230.293L267.601 229.921ZM267.601 229.922L266.681 230.316L266.682 230.317L267.601 229.923L268.52 229.53L268.52 229.528L267.601 229.922ZM267.601 229.923L266.604 230.004C266.601 229.963 266.601 229.929 266.601 229.905C266.602 229.88 266.603 229.86 266.604 229.847C266.605 229.834 266.606 229.823 266.607 229.818C266.607 229.816 266.607 229.814 266.607 229.813C266.607 229.813 266.608 229.811 266.607 229.813C266.607 229.814 266.607 229.819 266.606 229.826C266.605 229.833 266.604 229.844 266.603 229.857C266.602 229.87 266.602 229.886 266.601 229.905C266.601 229.924 266.601 229.947 266.602 229.973L267.601 229.926L268.6 229.88C268.602 229.93 268.6 229.97 268.599 229.994C268.598 230.007 268.597 230.017 268.596 230.024C268.595 230.031 268.595 230.036 268.595 230.037C268.595 230.038 268.595 230.036 268.595 230.036C268.595 230.035 268.595 230.033 268.595 230.03C268.596 230.025 268.597 230.015 268.598 230.001C268.599 229.988 268.6 229.967 268.601 229.943C268.601 229.918 268.601 229.884 268.598 229.843L267.601 229.923ZM267.601 229.926L266.604 230.005C266.605 230.02 266.606 230.032 266.607 230.04C266.608 230.048 266.609 230.055 266.61 230.059C266.61 230.063 266.611 230.066 266.611 230.068C266.611 230.068 266.611 230.069 266.611 230.069C266.611 230.069 266.611 230.069 266.611 230.069C266.611 230.067 266.61 230.061 266.609 230.052C266.608 230.044 266.607 230.031 266.605 230.016L267.602 229.938L268.599 229.861C268.598 229.843 268.596 229.828 268.595 229.817C268.594 229.807 268.593 229.798 268.592 229.795C268.592 229.794 268.592 229.793 268.592 229.793C268.592 229.792 268.592 229.792 268.592 229.793C268.592 229.793 268.592 229.795 268.593 229.798C268.593 229.802 268.594 229.808 268.595 229.815C268.596 229.823 268.597 229.834 268.598 229.847L267.601 229.926ZM267.602 229.938L266.605 230.013C266.605 230.01 266.605 230.008 266.605 230.009C266.605 230.01 266.605 230.012 266.605 230.016C266.606 230.023 266.606 230.035 266.607 230.049L267.605 229.982L268.603 229.914C268.603 229.91 268.602 229.905 268.602 229.898C268.602 229.895 268.601 229.89 268.601 229.885C268.601 229.88 268.6 229.872 268.6 229.864L267.602 229.938ZM267.605 229.982L266.607 230.049C266.61 230.09 266.614 230.137 266.617 230.203L267.616 230.15L268.614 230.097C268.61 230.014 268.605 229.95 268.603 229.914L267.605 229.982ZM267.616 230.15L266.617 230.203C266.624 230.342 266.634 230.556 266.641 230.848L267.64 230.824L268.64 230.799C268.633 230.488 268.623 230.255 268.614 230.097L267.616 230.15ZM267.64 230.824L266.641 230.848C266.655 231.433 266.66 232.335 266.625 233.593L267.624 233.62L268.624 233.648C268.66 232.36 268.655 231.422 268.64 230.799L267.64 230.824ZM267.624 233.62L266.625 233.593C266.561 235.89 266.36 239.372 265.83 244.269L266.824 244.376L267.818 244.484C268.353 239.541 268.559 236.005 268.624 233.648L267.624 233.62ZM266.824 244.376L267.559 245.055C268.186 244.375 268.8 243.637 269.313 242.991L268.53 242.369L267.747 241.747C267.252 242.37 266.672 243.067 266.089 243.698L266.824 244.376ZM268.53 242.369L269.313 242.991C269.71 242.491 270.047 242.047 270.285 241.727L269.482 241.13L268.68 240.533C268.452 240.84 268.128 241.267 267.747 241.747L268.53 242.369ZM269.482 241.13L270.285 241.727C270.403 241.568 270.498 241.439 270.563 241.349L269.754 240.761L268.945 240.173C268.885 240.256 268.795 240.379 268.68 240.533L269.482 241.13ZM269.754 240.761L270.563 241.349C270.596 241.303 270.625 241.264 270.637 241.246L269.825 240.662L269.013 240.079C268.994 240.106 268.975 240.133 268.945 240.174L269.754 240.761ZM269.825 240.662L270.637 241.246C270.637 241.247 270.637 241.247 270.639 241.244C270.64 241.243 270.642 241.239 270.645 241.236C270.647 241.233 270.652 241.227 270.657 241.219L269.844 240.637L269.03 240.055C269.032 240.053 269.034 240.051 269.035 240.05C269.036 240.048 269.036 240.048 269.036 240.048C269.036 240.048 269.036 240.048 269.035 240.049C269.035 240.049 269.035 240.049 269.034 240.05C269.034 240.05 269.034 240.051 269.033 240.052C269.029 240.057 269.022 240.067 269.013 240.079L269.825 240.662ZM269.844 240.637L270.656 241.22C270.641 241.242 270.628 241.258 270.626 241.261C270.625 241.261 270.625 241.261 270.625 241.261C270.625 241.261 270.625 241.261 270.625 241.261C270.625 241.261 270.625 241.261 270.625 241.261C270.625 241.261 270.626 241.261 270.626 241.26C270.626 241.26 270.628 241.257 270.631 241.254C270.633 241.251 270.637 241.246 270.642 241.239C270.647 241.233 270.654 241.224 270.662 241.213L269.848 240.632L269.034 240.051C269.042 240.04 269.049 240.031 269.053 240.025C269.058 240.019 269.062 240.014 269.064 240.011C269.066 240.009 269.068 240.007 269.068 240.006C269.068 240.006 269.068 240.006 269.068 240.006C269.068 240.006 269.067 240.007 269.067 240.007C269.063 240.012 269.049 240.03 269.031 240.054L269.844 240.637ZM269.848 240.632L270.777 241.003L270.778 241L269.849 240.629L268.921 240.257L268.92 240.26L269.848 240.632ZM269.849 240.629L270.664 241.209C270.503 241.435 270.192 241.486 269.968 241.327L270.547 240.512L271.127 239.697C270.453 239.217 269.516 239.374 269.035 240.048L269.849 240.629ZM270.547 240.512L269.967 241.326C269.739 241.164 269.691 240.851 269.849 240.63L270.664 241.209L271.478 241.789C271.956 241.118 271.805 240.18 271.128 239.697L270.547 240.512ZM270.664 241.209L269.735 240.838L269.734 240.84L270.662 241.212L271.591 241.584L271.592 241.581L270.664 241.209ZM270.662 241.212L269.848 240.631C269.844 240.637 269.84 240.643 269.838 240.646C269.835 240.65 269.833 240.653 269.832 240.655C269.831 240.657 269.83 240.658 269.83 240.659C269.829 240.659 269.829 240.659 269.829 240.659C269.829 240.659 269.829 240.659 269.829 240.659C269.83 240.658 269.836 240.65 269.844 240.638L270.657 241.219L271.471 241.801C271.481 241.786 271.489 241.775 271.491 241.771C271.492 241.771 271.493 241.769 271.492 241.77C271.492 241.77 271.492 241.77 271.492 241.771C271.492 241.771 271.491 241.772 271.491 241.772C271.49 241.774 271.488 241.776 271.486 241.779C271.484 241.782 271.481 241.787 271.476 241.793L270.662 241.212ZM270.657 241.219L269.844 240.638C269.849 240.631 269.852 240.626 269.855 240.623C269.857 240.62 269.859 240.617 269.86 240.616C269.861 240.615 269.861 240.614 269.861 240.615C269.861 240.615 269.86 240.616 269.86 240.616C269.859 240.617 269.859 240.618 269.858 240.618C269.853 240.625 269.84 240.642 269.825 240.662L270.637 241.246L271.449 241.83C271.443 241.839 271.438 241.845 271.439 241.843C271.44 241.843 271.44 241.842 271.44 241.842C271.441 241.842 271.441 241.841 271.442 241.84C271.443 241.839 271.445 241.836 271.447 241.833C271.449 241.83 271.452 241.826 271.456 241.821C271.46 241.816 271.465 241.809 271.471 241.801L270.657 241.219ZM270.637 241.246L269.825 240.662C269.799 240.699 269.787 240.717 269.754 240.761L270.563 241.349L271.372 241.937C271.405 241.892 271.442 241.84 271.449 241.83L270.637 241.246ZM270.563 241.349L269.754 240.761C269.693 240.846 269.6 240.972 269.483 241.13L270.285 241.727L271.087 242.324C271.207 242.162 271.305 242.03 271.372 241.937L270.563 241.349ZM270.285 241.727L269.483 241.13C269.249 241.444 268.919 241.881 268.531 242.37L269.314 242.992L270.097 243.613C270.502 243.103 270.845 242.649 271.087 242.324L270.285 241.727ZM269.314 242.992L268.531 242.37C267.749 243.354 266.746 244.536 265.831 245.379L266.509 246.114L267.187 246.85C268.219 245.898 269.3 244.617 270.097 243.613L269.314 242.992ZM266.509 246.114L265.832 245.379L264.842 246.29L265.519 247.026L266.197 247.761L267.186 246.85L266.509 246.114ZM265.519 247.026L266.513 247.14L266.667 245.804L265.674 245.69L264.68 245.575L264.526 246.911L265.519 247.026ZM265.674 245.69L266.667 245.804C267.32 240.128 267.554 236.167 267.625 233.621L266.626 233.593L265.626 233.565C265.557 236.047 265.327 239.95 264.68 245.575L265.674 245.69ZM266.626 233.593L267.625 233.621C267.661 232.347 267.654 231.427 267.64 230.824L266.64 230.848L265.64 230.872C265.654 231.44 265.66 232.325 265.626 233.565L266.626 233.593ZM266.64 230.848L267.639 230.824C267.632 230.523 267.623 230.299 267.615 230.15L266.616 230.202L265.618 230.255C265.625 230.384 265.633 230.588 265.64 230.872L266.64 230.848ZM266.616 230.202L267.615 230.15C267.611 230.074 267.607 230.018 267.605 229.982L266.607 230.049L265.609 230.117C265.611 230.147 265.614 230.192 265.618 230.255L266.616 230.202ZM266.607 230.049L267.605 229.982C267.604 229.963 267.603 229.949 267.602 229.939L266.605 230.014L265.607 230.088C265.608 230.093 265.608 230.103 265.609 230.117L266.607 230.049ZM266.605 230.014L267.602 229.945C267.605 229.979 267.605 230.007 267.604 230.029C267.604 230.05 267.603 230.066 267.603 230.073C267.603 230.074 267.602 230.076 267.602 230.076C267.602 230.076 267.602 230.077 267.602 230.077C267.602 230.077 267.602 230.077 267.602 230.077C267.602 230.077 267.602 230.077 267.602 230.076C267.602 230.076 267.602 230.076 267.602 230.076C267.602 230.075 267.603 230.074 267.603 230.072C267.603 230.069 267.603 230.066 267.603 230.062C267.604 230.057 267.604 230.052 267.604 230.045C267.604 230.038 267.605 230.029 267.605 230.019C267.605 230.009 267.605 229.996 267.605 229.981C267.604 229.967 267.603 229.948 267.602 229.926L266.605 230.005L265.608 230.084C265.606 230.063 265.605 230.044 265.605 230.03C265.605 230.015 265.605 230.002 265.605 229.992C265.605 229.983 265.605 229.974 265.606 229.968C265.606 229.961 265.606 229.956 265.606 229.952C265.607 229.948 265.607 229.944 265.607 229.943C265.607 229.941 265.607 229.939 265.607 229.939C265.607 229.939 265.607 229.939 265.607 229.939C265.607 229.939 265.607 229.939 265.607 229.94C265.607 229.941 265.607 229.942 265.607 229.944C265.606 229.953 265.605 229.97 265.605 229.993C265.604 230.016 265.605 230.046 265.607 230.082L266.605 230.014ZM266.605 230.005L267.524 229.611L267.524 229.61L266.604 230.004L265.685 230.398L265.686 230.399L266.605 230.005ZM266.604 230.004L267.601 229.921C267.624 230.196 267.42 230.438 267.144 230.461L267.061 229.464L266.978 228.468C266.153 228.536 265.539 229.261 265.608 230.086L266.604 230.004Z" fill="black" mask="url(#path-31-outside-2_232_344)"/>
<path d="M264.992 72.233C264.992 72.233 331.293 53.0138 383.742 64.5232L332.466 193.116L281.189 321.708L-68.8268 317.376L264.992 72.233Z" fill="#688ACD" fill-opacity="0.55"/>
<path d="M282.001 63.0004L290.522 77.5949M315.502 42.4363L321.522 76.5844M345.86 42.4358L334.559 76.7401M361.639 53.9377L363.774 59.8117L365.909 65.6857L363.634 53.8081L367.904 65.5562L367.192 54.5793" stroke="black" stroke-linecap="round" stroke-linejoin="round"/>
<path d="M290.75 48.1644L289.537 45.6516C288.883 44.2978 289.676 42.6902 291.148 42.3846C292.225 42.1609 293.311 42.7278 293.743 43.7398L294.537 45.6002C294.797 46.2087 294.536 46.914 293.942 47.2066C293.605 47.3731 293.645 47.867 294.005 47.9763L295.419 48.4053C295.949 48.5662 296.389 48.9399 296.633 49.4373L300 56.3014L298.5 57.2877L296.75 57.0411L295.75 51.3699L291 52.6027V55.5616V56.3014L293 59.5L296.25 58.5L297.114 59.5L292.5 62L288 56.3014V51.9876C288 50.4115 288.925 48.9823 290.364 48.3376L290.75 48.1644Z" fill="#C38562"/>
<path d="M291 52.6027V55.5616V56.3014M291 52.6027V56.3014M291 52.6027L295.75 51.3699L296.75 57.0411L298.5 57.2877L300 56.3014L296.633 49.4373C296.389 48.9399 295.949 48.5662 295.419 48.4053L294.005 47.9763C293.645 47.867 293.605 47.3731 293.942 47.2066C294.536 46.914 294.797 46.2087 294.537 45.6002L293.743 43.7398C293.311 42.7278 292.225 42.1609 291.148 42.3846C289.676 42.6902 288.883 44.2978 289.537 45.6516L290.75 48.1644L290.364 48.3376C288.925 48.9823 288 50.4115 288 51.9876V56.3014L292.5 62L297.114 59.5L296.25 58.5L293 59.5L291 56.3014" stroke="black"/>
<path d="M298 40L286 48L288.609 45.0909L287.565 43.8788L291.217 40.9697L292.783 42.4242L298 40Z" fill="#CEA851" stroke="black" stroke-linecap="round"/>
<path d="M293.741 49.7273L290.241 47.6237C288.866 48.4636 288.029 49.19 287.778 49.4545L287 56.5455L288.556 59L291.407 56.5455L292.963 57.6364L298.926 57.9091L301 56.5455L297.37 48.0909L294.519 47L293.741 49.7273Z" fill="#D9D9D9"/>
<path d="M290.111 47.5455L293.741 49.7273L294.519 47L297.37 48.0909L301 56.5455L298.926 57.9091L292.963 57.6364L291.407 56.5455L288.556 59L287 56.5455L287.778 49.4545C288.037 49.1818 288.919 48.4182 290.37 47.5455" stroke="black"/>
<path d="M296.857 52.4348L298 57M290.571 52L290 54.6087L290.857 55.913" stroke="black" stroke-linecap="round"/>
</g>
<defs>
<clipPath id="clip0_232_344">
<rect width="450" height="288" fill="white"/>
</clipPath>
</defs>
</svg>
