<svg width="450" height="288" viewBox="0 0 450 288" fill="none" xmlns="http://www.w3.org/2000/svg">
<g clip-path="url(#clip0_232_707)">
<rect width="450" height="288" fill="#7094D9"/>
<path d="M177.029 139.526C199.309 108.292 233.695 87.8652 271.781 83.2397L405.5 67L621 30L630.059 330H-103.941L71.6644 263.44C103.728 251.288 130.264 227.867 146.307 197.562L177.029 139.526Z" fill="#E7DBC0"/>
<path d="M147.576 182.048C150.224 128.424 144.711 120.035 190.5 92C218.885 74.6208 389.99 66.931 425.5 57.5C462.579 47.6523 522.95 20.5 522.95 20.5L536.5 40C536.5 40 460 71.5 338 80C285.244 83.6756 56.6278 151.925 313.252 211.013C569.877 270.1 212 351.5 212 351.5L-116 368L-74.8705 311.229C-74.8705 311.229 143.628 261.99 147.576 182.048Z" fill="#85A5E0" fill-opacity="0.46"/>
<path d="M150.589 86.2382C153.582 82.4792 157.149 78.6015 161.502 74.4999C161.502 74.4999 325.002 70.4999 174.002 83.4999C165.43 84.238 157.641 85.1557 150.589 86.2382C133.88 107.223 135.043 124.508 116.937 156.37C137.138 174.582 167.386 193.24 196.238 208.697C277.338 252.143 56.0017 307.5 56.0017 307.5H-81.8203V166.988C-81.8203 166.988 94.8625 191.318 110.503 166.988C112.893 163.271 115.022 159.739 116.937 156.37C83.5775 126.296 77.6168 97.4407 150.589 86.2382Z" fill="#E23171" fill-opacity="0.42"/>
<path d="M255.979 164.507L332.367 94.5762H-19.8399L-14.6221 142.045V188.421L229.841 175.469C239.56 174.954 248.799 171.08 255.979 164.507Z" fill="#736C62"/>
<path d="M301.5 113.5C260.5 123.015 216.5 155.5 -6 144M-6 154C172.55 163.228 236.153 144.132 275.5 131.311M-6 167C147.182 174.917 215.759 161.987 257 150.057M332.367 94.5762L255.979 164.507C248.799 171.08 239.56 174.954 229.841 175.469L-14.6221 188.421V142.045L-19.8399 94.5762H332.367Z" stroke="black"/>
<path d="M-17.0381 123.45C29.2365 125.111 133.565 127.436 180.681 123.45C206.739 121.246 241.147 119.86 271.996 112.013C296.926 105.672 319.531 99.0294 333.527 94.5762H-46.4856L-31.7618 112.013L-17.0381 123.45Z" fill="#8B8377"/>
<path d="M-31.7618 112.013L-17.0381 123.45C29.2365 125.111 133.565 127.436 180.681 123.45C206.739 121.246 241.147 119.86 271.996 112.013M-31.7618 112.013L-46.4856 94.5762H333.527C319.531 99.0294 296.926 105.672 271.996 112.013M-31.7618 112.013H120.117H271.996" stroke="black" stroke-linecap="round" stroke-linejoin="round"/>
<path d="M376.901 56.0711L382.906 53.7989C385.708 52.7387 388.863 53.9078 390.297 56.5379L401.067 76.285C407.193 76.285 412.16 81.2516 412.16 87.3783V92.3106V113.5L411 118.5L417.958 191.859L419.186 194.864C419.992 196.838 418.54 198.999 416.409 198.999H397.816C397.373 198.999 396.971 198.741 396.786 198.338C396.5 197.715 396.828 196.983 397.484 196.782L401.475 195.559C401.758 195.473 402.033 195.36 402.295 195.222L406.8 192.861C407.942 192.263 408.574 191.001 408.37 189.728L399.089 132L397.859 185.084L398.708 189.424C399.049 191.165 397.812 192.82 396.045 192.986L378.511 194.64C377.833 194.704 377.178 194.38 376.817 193.804C376.156 192.748 376.742 191.357 377.959 191.092L380.951 190.441C381.159 190.396 381.363 190.334 381.561 190.255L384.426 189.125C387.638 187.858 389.675 184.673 389.477 181.225L387.495 146.659V116.367L385.5 100L380.325 111.88C379.875 112.912 379.012 113.707 377.947 114.069L361.5 119.669H349.5H342.5L352.109 113.566C352.686 113.2 353.37 113.041 354.049 113.117L357.5 113.5L373 106.5L379.066 90.2292C380.079 87.5113 381.972 85.2104 384.443 83.6924L390.843 79.7619L389.311 78.1049L388.208 79.0582C386.344 80.6715 383.477 80.2295 382.185 78.1294L379.619 73.9604L377.352 74.5893L377.981 70.1871L375.36 68.3497C370.757 65.1227 371.644 58.0604 376.901 56.0711Z" fill="#D79C67" stroke="black" stroke-linecap="round" stroke-linejoin="round"/>
<path d="M353.5 115L355 116L350 118L356 118.5L359 118" stroke="black" stroke-linecap="round" stroke-linejoin="round"/>
<path d="M381.5 76.5H384" stroke="black" stroke-linecap="round" stroke-linejoin="round"/>
<path d="M385.5 100L384 93" stroke="black" stroke-linecap="round" stroke-linejoin="round"/>
<path d="M380.879 68.9307L381.508 69.5596L382.766 68.9307" stroke="black" stroke-linecap="round" stroke-linejoin="round"/>
<path d="M377 67C377.833 67.1667 379.9 67.4 381.5 67" stroke="black" stroke-linecap="round" stroke-linejoin="round"/>
<path d="M392.805 66.335L396.5 66.335L395.318 58.3911L394.608 53.6133C394.318 51.6698 392.966 50.0519 391.104 49.4233C389.164 48.7684 387.021 49.304 385.618 50.7943L382.524 54.08C380.861 55.4127 378.931 56.372 376.865 56.8925L368.5 59C368.5 59 370.5 64.5 373.958 60.7546C377.416 57.0091 379.808 62.3386 382.524 62.5C385.239 62.6614 385.894 64.6069 386.336 64.2314C386.92 61.6868 390.383 61.2998 391.515 63.6527L392.805 66.335Z" fill="#51473A" stroke="black"/>
<path d="M387.502 117L412.502 114L413.122 116.126C415.032 122.675 416.002 129.463 416.002 136.286V158L420 185L404.123 185.995L395.973 161.5L401.502 180H386.002L381.502 158L387.502 117Z" fill="#F7F6E9"/>
<path d="M395.973 161.5L401.502 180H386.002L381.502 158L387.502 117L412.502 114L413.122 116.126C415.032 122.675 416.002 129.463 416.002 136.286V158L420 185L404.123 185.995L395.973 161.5ZM395.973 161.5V128.676" stroke="black" stroke-linecap="round"/>
<path d="M386.453 64.7309C386.912 63.0772 388.472 60.5507 391.048 63.6737C393.625 66.7967 391.921 69.1495 390.747 69.9355" stroke="black" stroke-linecap="round"/>
<path d="M187.818 156.887C210.511 183.072 134.141 193.546 134.141 193.546C125.63 195.51 162.289 168.67 125.63 156.887C130.431 141.904 125.111 129.928 120.008 122.68C116.105 117.135 109.662 114.326 103.002 113.056L-27.5508 88.152L35.1002 76.9221C39.5839 76.1184 44.1301 75.7142 48.6853 75.7142L145.996 75.7139L187.818 105.827V156.887Z" fill="#CAA9B9" stroke="black" stroke-linecap="round" stroke-linejoin="round"/>
<mask id="path-19-outside-1_232_707" maskUnits="userSpaceOnUse" x="-57.0234" y="93.2876" width="246" height="119" fill="black">
<rect fill="white" x="-57.0234" y="93.2876" width="246" height="119"/>
<path d="M142.671 123.056C142.71 123.108 142.705 123.18 142.659 123.227C142.575 123.312 142.641 123.457 142.761 123.45L146.204 123.257C147.178 123.202 147.83 122.231 147.511 121.309L141.304 103.388C140.122 99.9762 141.789 96.2326 145.116 94.8291C148.022 93.6032 151.39 94.5184 153.275 97.0466L160.793 107.126C162.728 109.72 166.522 109.971 168.782 107.656C170.848 105.539 174.252 105.539 176.318 107.656L185.302 116.862C188.714 120.358 188.714 125.938 185.302 129.434L177.224 137.711C174.661 140.336 170.439 140.336 167.876 137.71C165.313 135.085 161.091 135.084 158.528 137.71L156.39 139.901C155.326 140.991 154.564 142.334 154.129 143.793C152.983 147.636 151.541 151.701 149.775 155.816C144.908 167.158 137.548 178.959 127.056 187.578C118.313 194.758 108.983 199.043 101.328 201.484C97.5001 202.704 94.0836 203.467 91.3584 203.899C88.6573 204.327 86.574 204.441 85.4346 204.331C85.3141 204.319 85.1907 204.318 85.0769 204.359C84.966 204.399 84.8555 204.439 84.7451 204.478C80.9138 205.833 77.4927 206.679 74.7627 207.159C72.0594 207.634 69.9648 207.763 68.8115 207.639C68.2626 207.58 67.8657 207.087 67.9248 206.538C67.9843 205.989 68.4774 205.592 69.0264 205.651C69.8966 205.745 71.7694 205.654 74.416 205.189C77.0364 204.728 80.3509 203.91 84.0791 202.592C91.5364 199.956 100.625 195.326 109.135 187.576C119.299 178.318 126.022 165.708 130.335 153.464C131.295 150.74 132.134 148.037 132.864 145.398C134.192 140.6 128.552 137.68 125.075 141.243C124.463 141.87 124.023 142.643 123.787 143.487C122.937 146.519 121.955 149.64 120.827 152.787C116.181 165.748 109.065 179.198 98.6504 188.683C89.9337 196.622 78.4567 200.788 68.6855 202.917C58.9192 205.046 50.7847 205.157 48.6943 204.931C48.4199 204.901 48.2214 204.655 48.251 204.38C48.2809 204.106 48.5274 203.907 48.8018 203.937C50.758 204.148 58.7809 204.054 68.4727 201.941C78.1601 199.829 89.4432 195.716 97.9766 187.944C108.223 178.612 115.268 165.332 119.886 152.449C120.57 150.54 121.201 148.64 121.78 146.765C122.719 143.725 121.842 140.438 119.62 138.162L116.873 135.348C113.342 131.73 107.524 131.73 103.992 135.348L96.6787 142.842C95.6788 143.866 94.9429 145.116 94.5012 146.478C94.0862 147.758 93.6478 149.046 93.1846 150.338C88.5246 163.34 81.3716 176.874 70.873 186.436C62.1533 194.378 53.3076 199.356 46.1172 202.296C42.5225 203.766 39.3345 204.729 36.7754 205.298C34.2477 205.86 32.2514 206.056 31.0732 205.929C30.5244 205.87 30.1275 205.377 30.1865 204.828C30.2458 204.279 30.739 203.882 31.2881 203.941C32.1333 204.032 33.8703 203.896 36.3418 203.346C38.7827 202.804 41.8627 201.876 45.3604 200.446C52.3552 197.586 60.9962 192.726 69.5264 184.958C79.6881 175.703 86.6984 162.507 91.3018 149.664C91.3888 149.421 91.4749 149.178 91.5601 148.936C92.653 145.827 91.7993 142.391 89.4979 140.033L88.1226 138.624C84.591 135.006 78.7723 135.006 75.2408 138.625L69.7536 144.247C68.6954 145.331 67.9337 146.667 67.5049 148.12C66.7826 150.567 65.9745 153.063 65.0742 155.575C60.4143 168.576 53.2613 182.111 42.7627 191.672C34.0225 199.632 24.6893 204.386 17.0264 207.095C13.1949 208.45 9.77405 209.297 7.04395 209.777C4.34049 210.252 2.24592 210.381 1.09277 210.256C0.543956 210.197 0.147021 209.704 0.206055 209.155C0.265414 208.606 0.758672 208.209 1.30762 208.268C2.17767 208.362 4.05037 208.273 6.69727 207.807C9.3177 207.346 12.632 206.529 16.3604 205.21C23.8177 202.574 32.9063 197.944 41.416 190.194C51.5777 180.939 58.5881 167.743 63.1914 154.9C63.9088 152.898 64.5658 150.907 65.1671 148.944C65.517 147.802 65.2047 146.563 64.3702 145.708L62.8732 144.174C61.8215 143.096 60.0002 143.516 59.4922 144.933C54.8465 157.895 47.7296 171.344 37.3154 180.83C28.6328 188.737 19.3607 193.461 11.749 196.152C8.89931 197.159 6.27996 197.882 4.00913 198.381C3.13625 198.572 2.28988 198.871 1.4936 199.277C-1.67276 200.89 -4.72498 202.168 -7.55078 203.167C-11.3822 204.522 -14.8031 205.369 -17.5332 205.849C-20.2365 206.325 -22.3311 206.453 -23.4844 206.329C-24.0334 206.269 -24.4303 205.776 -24.3711 205.227C-24.3115 204.678 -23.8184 204.281 -23.2695 204.34C-22.3993 204.434 -20.5265 204.345 -17.8799 203.879C-15.2595 203.419 -11.945 202.601 -8.2168 201.283C-6.83216 200.793 -5.39171 200.234 -3.90887 199.6C-3.75881 199.535 -3.80257 199.304 -3.96484 199.287C-4.23932 199.257 -4.43781 199.01 -4.4082 198.736C-4.37834 198.462 -4.13179 198.263 -3.85742 198.292C-3.49365 198.332 -2.98239 198.34 -2.33819 198.309C-1.31521 198.259 -0.322921 197.959 0.58962 197.494C5.86601 194.805 11.4681 191.158 16.8389 186.266C27.0004 177.011 34.011 163.815 38.6143 150.972C39.3091 149.034 38.8004 146.877 37.362 145.404L35.2765 143.267C31.926 139.834 26.4719 139.632 22.877 142.808L17.001 148L16.501 148.5L7.00905 160.489C7.00469 160.495 6.99656 160.495 6.99137 160.491C6.98514 160.485 6.97516 160.487 6.97198 160.495C2.33809 171.916 -4.28248 183.313 -13.4609 191.672C-22.2011 199.632 -31.5343 204.386 -39.1973 207.095C-43.0288 208.45 -46.4496 209.297 -49.1797 209.777C-51.8832 210.252 -53.9777 210.381 -55.1309 210.256C-55.6797 210.197 -56.0766 209.704 -56.0176 209.155C-55.9582 208.606 -55.465 208.209 -54.916 208.268C-54.0459 208.362 -52.1733 208.273 -49.5264 207.807C-46.9059 207.346 -43.5916 206.529 -39.8633 205.21C-32.4059 202.574 -23.3174 197.944 -14.8076 190.194C-7.2753 183.334 -1.47584 174.308 2.89617 164.865C4.48834 161.427 3.50316 157.389 0.671214 154.871L-4.27568 150.473C-6.88793 148.15 -10.8643 148.291 -13.3057 150.793C-15.8732 153.423 -20.1034 153.423 -22.6708 150.793L-31.0921 142.164C-33.2487 139.954 -31.6831 136.239 -28.5955 136.239C-26.1972 136.239 -24.5141 133.875 -25.299 131.608L-30.5392 116.479C-31.721 113.067 -30.0533 109.323 -26.7265 107.92L-24.3806 106.93C-22.8524 106.286 -21.0814 106.767 -20.0898 108.097L-8.46714 123.681C-8.06262 124.223 -7.2115 123.772 -7.43288 123.133C-7.53493 122.838 -7.39087 122.515 -7.10351 122.393L-2.99601 120.66C-0.438526 119.581 2.51954 120.636 3.818 123.089L8.89814 132.688C9.18249 133.225 9.74057 133.561 10.3485 133.561C11.4765 133.561 12.2682 132.449 11.899 131.383L6.89496 116.935C5.90079 114.065 7.30367 110.915 10.1024 109.735C12.5473 108.703 15.3806 109.473 16.9671 111.6L30.6085 129.891C31.0257 130.45 31.6826 130.78 32.3805 130.78C33.9001 130.78 34.9666 129.282 34.4692 127.846L29.0485 112.194C27.9372 108.985 29.5055 105.465 32.6343 104.145C35.3673 102.992 38.5344 103.852 40.3079 106.23L56.2303 127.579C56.6077 128.085 57.202 128.383 57.8334 128.383C59.2083 128.383 60.1731 127.028 59.7231 125.729L53.7979 108.623C52.6161 105.212 54.2837 101.468 57.6105 100.064C60.5164 98.8386 63.8837 99.7538 65.7693 102.282L82.4228 124.611C82.9642 125.337 83.8167 125.765 84.7224 125.765C86.6946 125.765 88.0786 123.821 87.4332 121.958L81.9079 106.005C80.7263 102.593 82.3937 98.8497 85.7203 97.446C88.6265 96.2197 91.9943 97.135 93.8801 99.6635L110.331 121.722C111 122.618 112.052 123.146 113.17 123.146C115.605 123.146 117.313 120.746 116.516 118.446L111.3 103.386C110.118 99.9743 111.786 96.2307 115.112 94.8272C118.018 93.6013 121.386 94.5165 123.271 97.0447L142.671 123.056ZM149.356 138.261C144.805 133.975 137.153 136.638 135.639 142.704C134.72 146.39 133.591 150.237 132.221 154.128C127.844 166.552 120.977 179.495 110.481 189.054C104.022 194.937 97.2369 199.068 91.0431 201.917C91.0403 201.918 91.0418 201.924 91.0449 201.923C93.6704 201.507 96.9888 200.769 100.721 199.579C108.187 197.198 117.278 193.02 125.786 186.032C135.954 177.68 143.149 166.184 147.938 155.027C149.272 151.917 150.417 148.838 151.385 145.869C152.268 143.162 151.429 140.214 149.356 138.261ZM43.1727 146.603C42.211 147.589 41.4931 148.783 41.0454 150.085C40.8666 150.605 40.6839 151.126 40.4971 151.647C35.8372 164.648 28.684 178.183 18.1855 187.745C15.729 189.982 13.2253 191.966 10.7251 193.723C9.9243 194.285 10.4923 195.535 11.415 195.208C18.9239 192.554 28.0741 187.893 36.6416 180.09C46.8875 170.759 53.9333 157.478 58.5508 144.595C58.6446 144.333 58.7374 144.072 58.8292 143.81C59.4324 142.092 58.9821 140.188 57.7103 138.884C55.7905 136.917 52.6273 136.917 50.7074 138.884L43.1727 146.603ZM-3.96999 141.228C-5.10144 142.387 -4.28 144.336 -2.66003 144.336C-1.40164 144.336 -0.518568 143.096 -0.930467 141.907C-1.37597 140.621 -3.01938 140.254 -3.96999 141.228Z"/>
</mask>
<path d="M142.671 123.056C142.71 123.108 142.705 123.18 142.659 123.227C142.575 123.312 142.641 123.457 142.761 123.45L146.204 123.257C147.178 123.202 147.83 122.231 147.511 121.309L141.304 103.388C140.122 99.9762 141.789 96.2326 145.116 94.8291C148.022 93.6032 151.39 94.5184 153.275 97.0466L160.793 107.126C162.728 109.72 166.522 109.971 168.782 107.656C170.848 105.539 174.252 105.539 176.318 107.656L185.302 116.862C188.714 120.358 188.714 125.938 185.302 129.434L177.224 137.711C174.661 140.336 170.439 140.336 167.876 137.71C165.313 135.085 161.091 135.084 158.528 137.71L156.39 139.901C155.326 140.991 154.564 142.334 154.129 143.793C152.983 147.636 151.541 151.701 149.775 155.816C144.908 167.158 137.548 178.959 127.056 187.578C118.313 194.758 108.983 199.043 101.328 201.484C97.5001 202.704 94.0836 203.467 91.3584 203.899C88.6573 204.327 86.574 204.441 85.4346 204.331C85.3141 204.319 85.1907 204.318 85.0769 204.359C84.966 204.399 84.8555 204.439 84.7451 204.478C80.9138 205.833 77.4927 206.679 74.7627 207.159C72.0594 207.634 69.9648 207.763 68.8115 207.639C68.2626 207.58 67.8657 207.087 67.9248 206.538C67.9843 205.989 68.4774 205.592 69.0264 205.651C69.8966 205.745 71.7694 205.654 74.416 205.189C77.0364 204.728 80.3509 203.91 84.0791 202.592C91.5364 199.956 100.625 195.326 109.135 187.576C119.299 178.318 126.022 165.708 130.335 153.464C131.295 150.74 132.134 148.037 132.864 145.398C134.192 140.6 128.552 137.68 125.075 141.243C124.463 141.87 124.023 142.643 123.787 143.487C122.937 146.519 121.955 149.64 120.827 152.787C116.181 165.748 109.065 179.198 98.6504 188.683C89.9337 196.622 78.4567 200.788 68.6855 202.917C58.9192 205.046 50.7847 205.157 48.6943 204.931C48.4199 204.901 48.2214 204.655 48.251 204.38C48.2809 204.106 48.5274 203.907 48.8018 203.937C50.758 204.148 58.7809 204.054 68.4727 201.941C78.1601 199.829 89.4432 195.716 97.9766 187.944C108.223 178.612 115.268 165.332 119.886 152.449C120.57 150.54 121.201 148.64 121.78 146.765C122.719 143.725 121.842 140.438 119.62 138.162L116.873 135.348C113.342 131.73 107.524 131.73 103.992 135.348L96.6787 142.842C95.6788 143.866 94.9429 145.116 94.5012 146.478C94.0862 147.758 93.6478 149.046 93.1846 150.338C88.5246 163.34 81.3716 176.874 70.873 186.436C62.1533 194.378 53.3076 199.356 46.1172 202.296C42.5225 203.766 39.3345 204.729 36.7754 205.298C34.2477 205.86 32.2514 206.056 31.0732 205.929C30.5244 205.87 30.1275 205.377 30.1865 204.828C30.2458 204.279 30.739 203.882 31.2881 203.941C32.1333 204.032 33.8703 203.896 36.3418 203.346C38.7827 202.804 41.8627 201.876 45.3604 200.446C52.3552 197.586 60.9962 192.726 69.5264 184.958C79.6881 175.703 86.6984 162.507 91.3018 149.664C91.3888 149.421 91.4749 149.178 91.5601 148.936C92.653 145.827 91.7993 142.391 89.4979 140.033L88.1226 138.624C84.591 135.006 78.7723 135.006 75.2408 138.625L69.7536 144.247C68.6954 145.331 67.9337 146.667 67.5049 148.12C66.7826 150.567 65.9745 153.063 65.0742 155.575C60.4143 168.576 53.2613 182.111 42.7627 191.672C34.0225 199.632 24.6893 204.386 17.0264 207.095C13.1949 208.45 9.77405 209.297 7.04395 209.777C4.34049 210.252 2.24592 210.381 1.09277 210.256C0.543956 210.197 0.147021 209.704 0.206055 209.155C0.265414 208.606 0.758672 208.209 1.30762 208.268C2.17767 208.362 4.05037 208.273 6.69727 207.807C9.3177 207.346 12.632 206.529 16.3604 205.21C23.8177 202.574 32.9063 197.944 41.416 190.194C51.5777 180.939 58.5881 167.743 63.1914 154.9C63.9088 152.898 64.5658 150.907 65.1671 148.944C65.517 147.802 65.2047 146.563 64.3702 145.708L62.8732 144.174C61.8215 143.096 60.0002 143.516 59.4922 144.933C54.8465 157.895 47.7296 171.344 37.3154 180.83C28.6328 188.737 19.3607 193.461 11.749 196.152C8.89931 197.159 6.27996 197.882 4.00913 198.381C3.13625 198.572 2.28988 198.871 1.4936 199.277C-1.67276 200.89 -4.72498 202.168 -7.55078 203.167C-11.3822 204.522 -14.8031 205.369 -17.5332 205.849C-20.2365 206.325 -22.3311 206.453 -23.4844 206.329C-24.0334 206.269 -24.4303 205.776 -24.3711 205.227C-24.3115 204.678 -23.8184 204.281 -23.2695 204.34C-22.3993 204.434 -20.5265 204.345 -17.8799 203.879C-15.2595 203.419 -11.945 202.601 -8.2168 201.283C-6.83216 200.793 -5.39171 200.234 -3.90887 199.6C-3.75881 199.535 -3.80257 199.304 -3.96484 199.287C-4.23932 199.257 -4.43781 199.01 -4.4082 198.736C-4.37834 198.462 -4.13179 198.263 -3.85742 198.292C-3.49365 198.332 -2.98239 198.34 -2.33819 198.309C-1.31521 198.259 -0.322921 197.959 0.58962 197.494C5.86601 194.805 11.4681 191.158 16.8389 186.266C27.0004 177.011 34.011 163.815 38.6143 150.972C39.3091 149.034 38.8004 146.877 37.362 145.404L35.2765 143.267C31.926 139.834 26.4719 139.632 22.877 142.808L17.001 148L16.501 148.5L7.00905 160.489C7.00469 160.495 6.99656 160.495 6.99137 160.491C6.98514 160.485 6.97516 160.487 6.97198 160.495C2.33809 171.916 -4.28248 183.313 -13.4609 191.672C-22.2011 199.632 -31.5343 204.386 -39.1973 207.095C-43.0288 208.45 -46.4496 209.297 -49.1797 209.777C-51.8832 210.252 -53.9777 210.381 -55.1309 210.256C-55.6797 210.197 -56.0766 209.704 -56.0176 209.155C-55.9582 208.606 -55.465 208.209 -54.916 208.268C-54.0459 208.362 -52.1733 208.273 -49.5264 207.807C-46.9059 207.346 -43.5916 206.529 -39.8633 205.21C-32.4059 202.574 -23.3174 197.944 -14.8076 190.194C-7.2753 183.334 -1.47584 174.308 2.89617 164.865C4.48834 161.427 3.50316 157.389 0.671214 154.871L-4.27568 150.473C-6.88793 148.15 -10.8643 148.291 -13.3057 150.793C-15.8732 153.423 -20.1034 153.423 -22.6708 150.793L-31.0921 142.164C-33.2487 139.954 -31.6831 136.239 -28.5955 136.239C-26.1972 136.239 -24.5141 133.875 -25.299 131.608L-30.5392 116.479C-31.721 113.067 -30.0533 109.323 -26.7265 107.92L-24.3806 106.93C-22.8524 106.286 -21.0814 106.767 -20.0898 108.097L-8.46714 123.681C-8.06262 124.223 -7.2115 123.772 -7.43288 123.133C-7.53493 122.838 -7.39087 122.515 -7.10351 122.393L-2.99601 120.66C-0.438526 119.581 2.51954 120.636 3.818 123.089L8.89814 132.688C9.18249 133.225 9.74057 133.561 10.3485 133.561C11.4765 133.561 12.2682 132.449 11.899 131.383L6.89496 116.935C5.90079 114.065 7.30367 110.915 10.1024 109.735C12.5473 108.703 15.3806 109.473 16.9671 111.6L30.6085 129.891C31.0257 130.45 31.6826 130.78 32.3805 130.78C33.9001 130.78 34.9666 129.282 34.4692 127.846L29.0485 112.194C27.9372 108.985 29.5055 105.465 32.6343 104.145C35.3673 102.992 38.5344 103.852 40.3079 106.23L56.2303 127.579C56.6077 128.085 57.202 128.383 57.8334 128.383C59.2083 128.383 60.1731 127.028 59.7231 125.729L53.7979 108.623C52.6161 105.212 54.2837 101.468 57.6105 100.064C60.5164 98.8386 63.8837 99.7538 65.7693 102.282L82.4228 124.611C82.9642 125.337 83.8167 125.765 84.7224 125.765C86.6946 125.765 88.0786 123.821 87.4332 121.958L81.9079 106.005C80.7263 102.593 82.3937 98.8497 85.7203 97.446C88.6265 96.2197 91.9943 97.135 93.8801 99.6635L110.331 121.722C111 122.618 112.052 123.146 113.17 123.146C115.605 123.146 117.313 120.746 116.516 118.446L111.3 103.386C110.118 99.9743 111.786 96.2307 115.112 94.8272C118.018 93.6013 121.386 94.5165 123.271 97.0447L142.671 123.056ZM149.356 138.261C144.805 133.975 137.153 136.638 135.639 142.704C134.72 146.39 133.591 150.237 132.221 154.128C127.844 166.552 120.977 179.495 110.481 189.054C104.022 194.937 97.2369 199.068 91.0431 201.917C91.0403 201.918 91.0418 201.924 91.0449 201.923C93.6704 201.507 96.9888 200.769 100.721 199.579C108.187 197.198 117.278 193.02 125.786 186.032C135.954 177.68 143.149 166.184 147.938 155.027C149.272 151.917 150.417 148.838 151.385 145.869C152.268 143.162 151.429 140.214 149.356 138.261ZM43.1727 146.603C42.211 147.589 41.4931 148.783 41.0454 150.085C40.8666 150.605 40.6839 151.126 40.4971 151.647C35.8372 164.648 28.684 178.183 18.1855 187.745C15.729 189.982 13.2253 191.966 10.7251 193.723C9.9243 194.285 10.4923 195.535 11.415 195.208C18.9239 192.554 28.0741 187.893 36.6416 180.09C46.8875 170.759 53.9333 157.478 58.5508 144.595C58.6446 144.333 58.7374 144.072 58.8292 143.81C59.4324 142.092 58.9821 140.188 57.7103 138.884C55.7905 136.917 52.6273 136.917 50.7074 138.884L43.1727 146.603ZM-3.96999 141.228C-5.10144 142.387 -4.28 144.336 -2.66003 144.336C-1.40164 144.336 -0.518568 143.096 -0.930467 141.907C-1.37597 140.621 -3.01938 140.254 -3.96999 141.228Z" fill="#F7F6E9"/>
<path d="M149.775 155.816L150.694 156.21L150.694 156.21L149.775 155.816ZM127.056 187.578L127.69 188.35L127.69 188.35L127.056 187.578ZM101.328 201.484L101.632 202.437L101.632 202.437L101.328 201.484ZM91.3584 203.899L91.515 204.887L91.5151 204.887L91.3584 203.899ZM85.4346 204.331L85.3378 205.326L85.3378 205.326L85.4346 204.331ZM84.7451 204.478L85.0785 205.421L85.0785 205.421L84.7451 204.478ZM74.7627 207.159L74.9359 208.144L74.9359 208.144L74.7627 207.159ZM68.8115 207.639L68.7041 208.633L68.7044 208.633L68.8115 207.639ZM67.9248 206.538L66.9306 206.43L66.9306 206.43L67.9248 206.538ZM69.0264 205.651L68.9191 206.645L68.9193 206.645L69.0264 205.651ZM74.416 205.189L74.5892 206.174L74.5892 206.174L74.416 205.189ZM84.0791 202.592L84.4124 203.535L84.4125 203.535L84.0791 202.592ZM109.135 187.576L109.808 188.315L109.808 188.315L109.135 187.576ZM130.335 153.464L131.278 153.797L131.278 153.797L130.335 153.464ZM120.827 152.787L121.769 153.124L121.769 153.124L120.827 152.787ZM98.6504 188.683L99.3237 189.422L99.3237 189.422L98.6504 188.683ZM68.6855 202.917L68.8985 203.895L68.8985 203.895L68.6855 202.917ZM48.6943 204.931L48.5869 205.925L48.5871 205.925L48.6943 204.931ZM48.251 204.38L47.2569 204.272L47.2567 204.273L48.251 204.38ZM48.8018 203.937L48.6945 204.931L48.6945 204.931L48.8018 203.937ZM68.4727 201.941L68.6856 202.918L68.6856 202.918L68.4727 201.941ZM97.9766 187.944L98.6499 188.683L98.6499 188.683L97.9766 187.944ZM119.886 152.449L120.827 152.786L120.827 152.786L119.886 152.449ZM93.1846 150.338L94.1259 150.676L94.1259 150.676L93.1846 150.338ZM70.873 186.436L71.5464 187.175L71.5464 187.175L70.873 186.436ZM46.1172 202.296L46.4957 203.222L46.4957 203.222L46.1172 202.296ZM36.7754 205.298L36.9924 206.275L36.9924 206.275L36.7754 205.298ZM31.0732 205.929L30.9658 206.923L30.9661 206.923L31.0732 205.929ZM30.1865 204.828L29.1923 204.72L29.1923 204.721L30.1865 204.828ZM31.2881 203.941L31.1809 204.935L31.181 204.935L31.2881 203.941ZM36.3418 203.346L36.5588 204.322L36.5588 204.322L36.3418 203.346ZM45.3604 200.446L45.7388 201.371L45.7388 201.371L45.3604 200.446ZM69.5264 184.958L70.1997 185.697L70.1997 185.697L69.5264 184.958ZM91.3018 149.664L92.2431 150.001L92.2431 150.001L91.3018 149.664ZM65.0742 155.575L66.0156 155.912L66.0156 155.912L65.0742 155.575ZM42.7627 191.672L43.436 192.412L43.436 192.412L42.7627 191.672ZM17.0264 207.095L17.3597 208.038L17.3597 208.038L17.0264 207.095ZM7.04395 209.777L7.21715 210.762L7.21716 210.762L7.04395 209.777ZM1.09277 210.256L0.985194 211.251L0.985542 211.251L1.09277 210.256ZM0.206055 209.155L-0.788149 209.047L-0.788211 209.048L0.206055 209.155ZM1.30762 208.268L1.4148 207.274L1.41471 207.274L1.30762 208.268ZM6.69727 207.807L6.87047 208.792L6.87047 208.792L6.69727 207.807ZM16.3604 205.21L16.6937 206.153L16.6937 206.153L16.3604 205.21ZM41.416 190.194L42.0894 190.933L42.0894 190.933L41.416 190.194ZM63.1914 154.9L64.1328 155.237L64.1328 155.237L63.1914 154.9ZM59.4922 144.933L60.4335 145.271L60.4335 145.271L59.4922 144.933ZM37.3154 180.83L37.9888 181.569L37.9888 181.569L37.3154 180.83ZM11.749 196.152L12.0824 197.095L12.0824 197.095L11.749 196.152ZM-7.55078 203.167L-7.21744 204.11L-7.21743 204.11L-7.55078 203.167ZM-17.5332 205.849L-17.36 206.834L-17.36 206.834L-17.5332 205.849ZM-23.4844 206.329L-23.5918 207.323L-23.5915 207.323L-23.4844 206.329ZM-24.3711 205.227L-25.3653 205.119L-25.3653 205.12L-24.3711 205.227ZM-23.2695 204.34L-23.3768 205.335L-23.3766 205.335L-23.2695 204.34ZM-17.8799 203.879L-17.7067 204.864L-17.7067 204.864L-17.8799 203.879ZM-8.2168 201.283L-7.88346 202.226L-7.88345 202.226L-8.2168 201.283ZM-3.96484 199.287L-4.07236 200.281L-4.07208 200.281L-3.96484 199.287ZM-4.4082 198.736L-5.40233 198.628L-5.40244 198.629L-4.4082 198.736ZM-3.85742 198.292L-3.75021 197.298L-3.75026 197.298L-3.85742 198.292ZM16.8389 186.266L17.5122 187.005L17.5122 187.005L16.8389 186.266ZM38.6143 150.972L39.5556 151.31L39.5556 151.31L38.6143 150.972ZM17.001 148L16.3389 147.25L16.3157 147.271L16.2939 147.292L17.001 148ZM16.501 148.5L15.7939 147.792L15.7529 147.833L15.7169 147.879L16.501 148.5ZM-13.4609 191.672L-12.7876 192.412L-12.7876 192.412L-13.4609 191.672ZM-39.1973 207.095L-38.8639 208.038L-38.8639 208.038L-39.1973 207.095ZM-49.1797 209.777L-49.0065 210.762L-49.0065 210.762L-49.1797 209.777ZM-55.1309 210.256L-55.2383 211.251L-55.2381 211.251L-55.1309 210.256ZM-56.0176 209.155L-57.0118 209.047L-57.0118 209.048L-56.0176 209.155ZM-54.916 208.268L-54.8088 207.274L-54.8088 207.274L-54.916 208.268ZM-49.5264 207.807L-49.3532 208.792L-49.3532 208.792L-49.5264 207.807ZM-39.8633 205.21L-39.5299 206.153L-39.5299 206.153L-39.8633 205.21ZM-14.8076 190.194L-14.1343 190.933L-14.1343 190.933L-14.8076 190.194ZM132.221 154.128L133.164 154.461L133.164 154.461L132.221 154.128ZM110.481 189.054L111.155 189.794L111.155 189.794L110.481 189.054ZM91.0449 201.923L91.2016 202.911L91.2016 202.911L91.0449 201.923ZM100.721 199.579L101.024 200.531L101.024 200.531L100.721 199.579ZM125.786 186.032L126.421 186.804L126.421 186.804L125.786 186.032ZM147.938 155.027L148.856 155.421L148.856 155.421L147.938 155.027ZM40.4971 151.647L41.4384 151.984L41.4384 151.984L40.4971 151.647ZM18.1855 187.745L18.8589 188.484L18.8589 188.484L18.1855 187.745ZM11.415 195.208L11.7484 196.151L11.7484 196.151L11.415 195.208ZM36.6416 180.09L37.315 180.83L37.315 180.83L36.6416 180.09ZM58.5508 144.595L59.4921 144.933L59.4921 144.933L58.5508 144.595ZM50.7074 138.884L49.9918 138.185L50.7074 138.884ZM58.8292 143.81L59.7728 144.142L58.8292 143.81ZM10.7251 193.723L10.1503 192.904L10.7251 193.723ZM41.0454 150.085L41.991 150.41L41.0454 150.085ZM43.1727 146.603L43.8883 147.302L43.1727 146.603ZM91.0431 201.917L91.4611 202.826L91.0431 201.917ZM135.639 142.704L136.61 142.946L135.639 142.704ZM115.112 94.8272L114.724 93.9058L115.112 94.8272ZM123.271 97.0447L122.47 97.6425L123.271 97.0447ZM111.3 103.386L112.245 103.059L111.3 103.386ZM116.516 118.446L117.461 118.118L116.516 118.446ZM110.331 121.722L109.53 122.32L110.331 121.722ZM82.4228 124.611L83.2244 124.014L82.4228 124.611ZM65.7693 102.282L64.9677 102.88L65.7693 102.282ZM53.7979 108.623L52.853 108.951L53.7979 108.623ZM59.7231 125.729L60.668 125.402L59.7231 125.729ZM56.2303 127.579L57.0319 126.981L57.0319 126.981L56.2303 127.579ZM29.0485 112.194L29.9934 111.867L29.0485 112.194ZM32.6343 104.145L32.2455 103.223L32.6343 104.145ZM34.4692 127.846L33.5243 128.173L34.4692 127.846ZM30.6085 129.891L31.4101 129.293L30.6085 129.891ZM11.899 131.383L10.9541 131.71L11.899 131.383ZM-7.43288 123.133L-8.37784 123.46L-7.43288 123.133ZM-7.10351 122.393L-6.71476 123.315L-7.10351 122.393ZM156.39 139.901L157.105 140.6L156.39 139.901ZM154.129 143.793L153.171 143.507L154.129 143.793ZM-8.46714 123.681L-9.26875 124.278L-8.46714 123.681ZM167.876 137.71L168.592 137.012L167.876 137.71ZM177.224 137.711L176.508 137.012L177.224 137.711ZM6.99137 160.491L7.66564 159.752L6.99137 160.491ZM6.97198 160.495L7.89862 160.871L6.97198 160.495ZM7.00905 160.489L7.79309 161.11L7.00905 160.489ZM-2.33819 198.309L-2.28974 199.308L-2.33819 198.309ZM0.58962 197.494L0.135589 196.603L0.58962 197.494ZM-3.90887 199.6L-3.51551 200.519L-3.90887 199.6ZM85.0769 204.359L85.4177 205.299L85.0769 204.359ZM10.1024 109.735L9.71368 108.813L10.1024 109.735ZM16.9671 111.6L16.1655 112.198L16.9671 111.6ZM62.8732 144.174L62.1575 144.872L62.8732 144.174ZM65.1671 148.944L64.211 148.651L65.1671 148.944ZM64.3702 145.708L65.0859 145.009L64.3702 145.708ZM103.992 135.348L104.708 136.047L103.992 135.348ZM121.78 146.765L120.825 146.47L121.78 146.765ZM119.62 138.162L120.336 137.463L119.62 138.162ZM96.6787 142.842L95.9631 142.143L96.6787 142.842ZM94.5012 146.478L95.4524 146.787L94.5012 146.478ZM8.89814 132.688L8.0143 133.155L8.89814 132.688ZM185.302 116.862L184.587 117.56L185.302 116.862ZM185.302 129.434L186.018 130.133L185.302 129.434ZM-25.299 131.608L-26.244 131.936L-25.299 131.608ZM168.782 107.656L169.497 108.354L168.782 107.656ZM176.318 107.656L177.033 106.958L176.318 107.656ZM160.793 107.126L161.595 106.528L160.793 107.126ZM-13.3057 150.793L-12.5901 151.491L-13.3057 150.793ZM145.116 94.8291L144.728 93.9078L145.116 94.8291ZM2.89617 164.865L3.80362 165.285L2.89617 164.865ZM0.671214 154.871L0.00677131 155.618L0.671214 154.871ZM-0.930467 141.907L-1.87538 142.234L-0.930467 141.907ZM-3.96999 141.228L-4.68567 140.529L-3.96999 141.228ZM69.7536 144.247L70.4693 144.946L69.7536 144.247ZM67.5049 148.12L66.5458 147.837L67.5049 148.12ZM153.275 97.0466L152.474 97.6445L153.275 97.0466ZM-4.27568 150.473L-3.61124 149.725L-4.27568 150.473ZM88.1226 138.624L87.407 139.323L88.1226 138.624ZM91.5601 148.936L92.5035 149.268L91.5601 148.936ZM89.4979 140.033L88.7823 140.732L89.4979 140.033ZM81.9079 106.005L80.963 106.332L81.9079 106.005ZM125.075 141.243L125.79 141.941L125.075 141.243ZM123.787 143.487L124.75 143.756L124.75 143.756L123.787 143.487ZM87.4332 121.958L88.3781 121.63L87.4332 121.958ZM132.864 145.398L131.9 145.131L132.864 145.398ZM147.511 121.309L148.455 120.982L147.511 121.309ZM40.3079 106.23L41.1095 105.632L40.3079 106.23ZM4.00913 198.381L4.22378 199.357L4.00913 198.381ZM1.4936 199.277L1.94764 200.167L1.4936 199.277ZM142.659 123.227L143.374 123.926L142.659 123.227ZM142.761 123.45L142.705 122.452L142.761 123.45ZM142.671 123.056L141.869 123.654L142.671 123.056ZM142.761 123.45L142.817 124.449L146.26 124.255L146.204 123.257L146.148 122.259L142.705 122.452L142.761 123.45ZM147.511 121.309L148.455 120.982L142.248 103.061L141.304 103.388L140.359 103.715L146.566 121.636L147.511 121.309ZM153.275 97.0466L152.474 97.6445L159.992 107.724L160.793 107.126L161.595 106.528L154.077 96.4487L153.275 97.0466ZM176.318 107.656L175.602 108.355L184.587 117.56L185.302 116.862L186.018 116.163L177.033 106.958L176.318 107.656ZM185.302 129.434L184.586 128.736L176.508 137.012L177.224 137.711L177.94 138.409L186.018 130.133L185.302 129.434ZM158.528 137.71L157.812 137.012L155.674 139.203L156.39 139.901L157.105 140.6L159.244 138.409L158.528 137.71ZM154.129 143.793L153.171 143.507C152.035 147.316 150.606 151.344 148.856 155.422L149.775 155.816L150.694 156.21C152.476 152.058 153.931 147.956 155.087 144.078L154.129 143.793ZM149.775 155.816L148.856 155.422C144.029 166.671 136.751 178.32 126.421 186.805L127.056 187.578L127.69 188.35C138.346 179.598 145.787 167.645 150.694 156.21L149.775 155.816ZM127.056 187.578L126.421 186.805C117.796 193.889 108.585 198.12 101.024 200.531L101.328 201.484L101.632 202.437C109.381 199.966 118.831 195.628 127.69 188.35L127.056 187.578ZM101.328 201.484L101.024 200.531C97.2444 201.736 93.877 202.487 91.2017 202.911L91.3584 203.899L91.5151 204.887C94.2901 204.446 97.7559 203.673 101.632 202.437L101.328 201.484ZM91.3584 203.899L91.2018 202.911C88.5268 203.336 86.5431 203.434 85.5314 203.335L85.4346 204.331L85.3378 205.326C86.6048 205.449 88.7878 205.319 91.515 204.887L91.3584 203.899ZM85.0769 204.359L84.7361 203.419C84.6255 203.459 84.5181 203.498 84.4118 203.535L84.7451 204.478L85.0785 205.421C85.1928 205.38 85.3065 205.339 85.4177 205.299L85.0769 204.359ZM84.7451 204.478L84.4118 203.535C80.6322 204.872 77.2647 205.703 74.5895 206.174L74.7627 207.159L74.9359 208.144C77.7208 207.654 81.1954 206.794 85.0785 205.421L84.7451 204.478ZM74.7627 207.159L74.5895 206.174C71.9143 206.644 69.9303 206.754 68.9187 206.645L68.8115 207.639L68.7044 208.633C69.9992 208.773 72.2045 208.624 74.9359 208.144L74.7627 207.159ZM68.8115 207.639L68.9189 206.645L68.9191 206.645L67.9248 206.538L66.9306 206.43C66.8123 207.528 67.6057 208.515 68.7041 208.633L68.8115 207.639ZM67.9248 206.538L68.919 206.645L68.9191 206.645L69.0264 205.651L69.1336 204.657C68.0356 204.538 67.0495 205.332 66.9306 206.43L67.9248 206.538ZM69.0264 205.651L68.9193 206.645C69.9313 206.754 71.9148 206.644 74.5892 206.174L74.416 205.189L74.2428 204.204C71.6239 204.665 69.862 204.735 69.1335 204.657L69.0264 205.651ZM74.416 205.189L74.5892 206.174C77.2645 205.703 80.6325 204.872 84.4124 203.535L84.0791 202.592L83.7458 201.649C80.0693 202.949 76.8084 203.753 74.2428 204.204L74.416 205.189ZM84.0791 202.592L84.4125 203.535C91.9726 200.862 101.183 196.17 109.808 188.315L109.135 187.576L108.461 186.836C100.067 194.482 91.1003 199.049 83.7457 201.649L84.0791 202.592ZM109.135 187.576L109.808 188.315C120.138 178.907 126.933 166.13 131.278 153.797L130.335 153.464L129.392 153.132C125.11 165.286 118.461 177.729 108.461 186.836L109.135 187.576ZM130.335 153.464L131.278 153.797C132.246 151.049 133.092 148.324 133.828 145.665L132.864 145.398L131.9 145.131C131.176 147.75 130.343 150.431 129.392 153.132L130.335 153.464ZM123.787 143.487L122.824 143.217C121.98 146.228 121.005 149.326 119.886 152.449L120.827 152.787L121.769 153.124C122.905 149.953 123.894 146.809 124.75 143.756L123.787 143.487ZM120.827 152.787L119.886 152.449C115.268 165.332 108.223 178.612 97.977 187.944L98.6504 188.683L99.3237 189.422C109.906 179.784 117.094 166.165 121.769 153.124L120.827 152.787ZM98.6504 188.683L97.977 187.944C89.4436 195.716 78.16 199.829 68.4726 201.94L68.6855 202.917L68.8985 203.895C78.7533 201.746 90.4237 197.528 99.3237 189.422L98.6504 188.683ZM68.6855 202.917L68.4726 201.94C58.7807 204.053 50.7577 204.148 48.8016 203.937L48.6943 204.931L48.5871 205.925C50.8117 206.165 59.0577 206.04 68.8985 203.895L68.6855 202.917ZM48.6943 204.931L48.8018 203.937C49.0765 203.967 49.2748 204.213 49.2452 204.488L48.251 204.38L47.2567 204.273C47.1679 205.096 47.7632 205.836 48.5869 205.925L48.6943 204.931ZM48.251 204.38L49.2451 204.489C49.2153 204.762 48.9698 204.961 48.6945 204.931L48.8018 203.937L48.909 202.943C48.085 202.854 47.3464 203.45 47.2569 204.272L48.251 204.38ZM48.8018 203.937L48.6945 204.931C50.785 205.157 58.9194 205.047 68.6856 202.918L68.4727 201.941L68.2597 200.964C58.6424 203.06 50.731 203.139 48.909 202.943L48.8018 203.937ZM68.4727 201.941L68.6856 202.918C78.4568 200.788 89.9332 196.622 98.6499 188.683L97.9766 187.944L97.3032 187.205C88.9531 194.809 77.8634 198.87 68.2597 200.964L68.4727 201.941ZM97.9766 187.944L98.6499 188.683C109.064 179.198 116.181 165.748 120.827 152.786L119.886 152.449L118.944 152.111C114.355 164.915 107.381 178.026 97.3032 187.205L97.9766 187.944ZM119.886 152.449L120.827 152.786C121.517 150.862 122.152 148.949 122.735 147.06L121.78 146.765L120.825 146.47C120.249 148.331 119.623 150.217 118.944 152.111L119.886 152.449ZM119.62 138.162L120.336 137.463L117.589 134.649L116.873 135.348L116.158 136.046L118.904 138.86L119.62 138.162ZM103.992 135.348L103.277 134.65L95.9631 142.143L96.6787 142.842L97.3944 143.54L104.708 136.047L103.992 135.348ZM94.5012 146.478L93.55 146.17C93.1379 147.44 92.7028 148.719 92.2432 150.001L93.1846 150.338L94.1259 150.676C94.5927 149.373 95.0344 148.075 95.4524 146.787L94.5012 146.478ZM93.1846 150.338L92.2432 150.001C87.6116 162.923 80.5298 176.288 70.1997 185.697L70.873 186.436L71.5464 187.175C82.2134 177.46 89.4376 163.756 94.1259 150.676L93.1846 150.338ZM70.873 186.436L70.1997 185.697C61.5748 193.552 52.8314 198.471 45.7387 201.371L46.1172 202.296L46.4957 203.222C53.7839 200.242 62.7319 195.203 71.5464 187.175L70.873 186.436ZM46.1172 202.296L45.7387 201.371C42.1925 202.821 39.0584 203.766 36.5584 204.322L36.7754 205.298L36.9924 206.275C39.6105 205.693 42.8525 204.712 46.4957 203.222L46.1172 202.296ZM36.7754 205.298L36.5584 204.322C34.0588 204.878 32.1921 205.044 31.1804 204.935L31.0732 205.929L30.9661 206.923C32.3107 207.068 34.4365 206.843 36.9924 206.275L36.7754 205.298ZM31.0732 205.929L31.1807 204.935L31.1808 204.935L30.1865 204.828L29.1923 204.721C29.0743 205.818 29.8673 206.805 30.9658 206.923L31.0732 205.929ZM30.1865 204.828L31.1807 204.935L31.1809 204.935L31.2881 203.941L31.3953 202.947C30.2976 202.828 29.3109 203.622 29.1923 204.72L30.1865 204.828ZM31.2881 203.941L31.181 204.935C32.1929 205.044 34.0596 204.878 36.5588 204.322L36.3418 203.346L36.1248 202.37C33.6811 202.913 32.0738 203.02 31.3951 202.947L31.2881 203.941ZM36.3418 203.346L36.5588 204.322C39.0587 203.767 42.1926 202.821 45.7388 201.371L45.3604 200.446L44.9819 199.52C41.5327 200.931 38.5067 201.841 36.1248 202.37L36.3418 203.346ZM45.3604 200.446L45.7388 201.371C52.8315 198.471 61.5748 193.552 70.1997 185.697L69.5264 184.958L68.853 184.218C60.4175 191.901 51.8789 196.7 44.9819 199.52L45.3604 200.446ZM69.5264 184.958L70.1997 185.697C80.5298 176.289 87.6115 162.923 92.2431 150.001L91.3018 149.664L90.3604 149.326C85.7854 162.09 78.8463 175.117 68.853 184.218L69.5264 184.958ZM91.3018 149.664L92.2431 150.001C92.3308 149.756 92.4176 149.512 92.5035 149.268L91.5601 148.936L90.6167 148.604C90.5321 148.845 90.4467 149.085 90.3604 149.326L91.3018 149.664ZM89.4979 140.033L90.2136 139.335L88.8383 137.926L88.1226 138.624L87.407 139.323L88.7823 140.732L89.4979 140.033ZM75.2408 138.625L74.5252 137.926L69.0379 143.549L69.7536 144.247L70.4693 144.946L75.9565 139.323L75.2408 138.625ZM67.5049 148.12L66.5458 147.837C65.8285 150.267 65.0263 152.745 64.1329 155.237L65.0742 155.575L66.0156 155.912C66.9227 153.381 67.7366 150.868 68.464 148.403L67.5049 148.12ZM65.0742 155.575L64.1329 155.237C59.5012 168.159 52.4195 181.525 42.0893 190.933L42.7627 191.672L43.436 192.412C54.103 182.697 61.3273 168.992 66.0156 155.912L65.0742 155.575ZM42.7627 191.672L42.0894 190.933C33.4644 198.788 24.2532 203.479 16.693 206.152L17.0264 207.095L17.3597 208.038C25.1254 205.292 34.5807 200.477 43.436 192.412L42.7627 191.672ZM17.0264 207.095L16.693 206.152C12.9131 207.489 9.5458 208.322 6.87073 208.792L7.04395 209.777L7.21716 210.762C10.0023 210.272 13.4766 209.411 17.3597 208.038L17.0264 207.095ZM7.04395 209.777L6.87074 208.792C4.19576 209.262 2.21172 209.371 1.20001 209.262L1.09277 210.256L0.985542 211.251C2.28011 211.39 4.48522 211.242 7.21715 210.762L7.04395 209.777ZM1.09277 210.256L1.20035 209.262L1.20032 209.262L0.206055 209.155L-0.788211 209.048C-0.906232 210.145 -0.112891 211.132 0.985194 211.251L1.09277 210.256ZM0.206055 209.155L1.20026 209.262L1.20053 209.262L1.30762 208.268L1.41471 207.274C0.31714 207.156 -0.669393 207.949 -0.788149 209.047L0.206055 209.155ZM1.30762 208.268L1.20043 209.262C2.21206 209.371 4.19542 209.262 6.87047 208.792L6.69727 207.807L6.52406 206.822C3.90532 207.283 2.14329 207.352 1.4148 207.274L1.30762 208.268ZM6.69727 207.807L6.87047 208.792C9.54575 208.322 12.9136 207.49 16.6937 206.153L16.3604 205.21L16.027 204.268C12.3504 205.568 9.08964 206.371 6.52406 206.822L6.69727 207.807ZM16.3604 205.21L16.6937 206.153C24.2539 203.48 33.4645 198.788 42.0894 190.933L41.416 190.194L40.7427 189.455C32.3481 197.1 23.3815 201.667 16.027 204.268L16.3604 205.21ZM41.416 190.194L42.0894 190.933C52.4195 181.525 59.5011 168.159 64.1328 155.237L63.1914 154.9L62.25 154.562C57.675 167.327 50.7359 180.353 40.7427 189.455L41.416 190.194ZM63.1914 154.9L64.1328 155.237C64.8558 153.22 65.5177 151.214 66.1233 149.237L65.1671 148.944L64.211 148.651C63.6139 150.6 62.9618 152.577 62.25 154.562L63.1914 154.9ZM64.3702 145.708L65.0859 145.009L63.5889 143.475L62.8732 144.174L62.1575 144.872L63.6546 146.406L64.3702 145.708ZM59.4922 144.933L58.5508 144.596C53.9334 157.478 46.8878 170.759 36.6421 180.09L37.3154 180.83L37.9888 181.569C48.5714 171.93 55.7595 158.311 60.4335 145.271L59.4922 144.933ZM37.3154 180.83L36.6421 180.09C28.0746 187.893 18.9245 192.554 11.4157 195.209L11.749 196.152L12.0824 197.095C19.7968 194.367 29.191 189.582 37.9888 181.569L37.3154 180.83ZM11.749 196.152L11.4157 195.209C8.60552 196.203 6.02584 196.914 3.79448 197.404L4.00913 198.381L4.22378 199.357C6.53408 198.85 9.1931 198.116 12.0824 197.095L11.749 196.152ZM1.4936 199.277L1.03956 198.386C-2.08572 199.978 -5.09744 201.239 -7.88413 202.225L-7.55078 203.167L-7.21743 204.11C-4.35252 203.097 -1.2598 201.802 1.94764 200.167L1.4936 199.277ZM-7.55078 203.167L-7.88412 202.225C-11.664 203.561 -15.0314 204.394 -17.7064 204.864L-17.5332 205.849L-17.36 206.834C-14.5749 206.344 -11.1004 205.483 -7.21744 204.11L-7.55078 203.167ZM-17.5332 205.849L-17.7064 204.864C-20.3812 205.335 -22.3653 205.443 -23.3772 205.334L-23.4844 206.329L-23.5915 207.323C-22.2969 207.462 -20.0918 207.314 -17.36 206.834L-17.5332 205.849ZM-23.4844 206.329L-23.3769 205.334L-23.3769 205.334L-24.3711 205.227L-25.3653 205.12C-25.4837 206.218 -24.69 207.204 -23.5918 207.323L-23.4844 206.329ZM-24.3711 205.227L-23.3769 205.335L-23.3768 205.335L-23.2695 204.34L-23.1623 203.346C-24.2604 203.228 -25.2462 204.022 -25.3653 205.119L-24.3711 205.227ZM-23.2695 204.34L-23.3766 205.335C-22.3649 205.444 -20.3815 205.335 -17.7067 204.864L-17.8799 203.879L-18.0531 202.895C-20.6715 203.355 -22.4337 203.425 -23.1624 203.346L-23.2695 204.34ZM-17.8799 203.879L-17.7067 204.864C-15.0314 204.394 -11.6634 203.562 -7.88346 202.226L-8.2168 201.283L-8.55014 200.34C-12.2266 201.64 -15.4875 202.443 -18.0531 202.895L-17.8799 203.879ZM-8.2168 201.283L-7.88345 202.226C-6.47873 201.729 -5.01826 201.162 -3.51551 200.519L-3.90887 199.6L-4.30222 198.68C-5.76516 199.306 -7.18559 199.857 -8.55015 200.34L-8.2168 201.283ZM-3.96484 199.287L-3.85733 198.292C-3.58271 198.322 -3.38438 198.569 -3.41397 198.843L-4.4082 198.736L-5.40244 198.629C-5.49124 199.452 -4.89593 200.192 -4.07236 200.281L-3.96484 199.287ZM-4.4082 198.736L-3.41408 198.844C-3.44386 199.118 -3.68948 199.316 -3.96459 199.287L-3.85742 198.292L-3.75026 197.298C-4.57409 197.209 -5.31282 197.805 -5.40233 198.628L-4.4082 198.736ZM-3.85742 198.292L-3.96463 199.287C-3.52866 199.334 -2.96009 199.34 -2.28974 199.308L-2.33819 198.309L-2.38665 197.31C-3.00468 197.34 -3.45865 197.33 -3.75021 197.298L-3.85742 198.292ZM0.58962 197.494L1.04365 198.385C6.3906 195.66 12.0683 191.963 17.5122 187.005L16.8389 186.266L16.1655 185.527C10.8678 190.352 5.34141 193.95 0.135589 196.603L0.58962 197.494ZM16.8389 186.266L17.5122 187.005C27.8422 177.597 34.924 164.232 39.5556 151.31L38.6143 150.972L37.6729 150.635C33.098 163.399 26.1587 176.425 16.1655 185.527L16.8389 186.266ZM37.362 145.404L38.0776 144.705L35.9922 142.568L35.2765 143.267L34.5609 143.965L36.6463 146.102L37.362 145.404ZM22.877 142.808L22.2149 142.059L16.3389 147.25L17.001 148L17.6631 148.749L23.539 143.558L22.877 142.808ZM17.001 148L16.2939 147.292L15.7939 147.792L16.501 148.5L17.2081 149.207L17.7081 148.707L17.001 148ZM16.501 148.5L15.7169 147.879L6.225 159.869L7.00905 160.489L7.79309 161.11L17.285 149.12L16.501 148.5ZM6.97198 160.495L6.04534 160.119C1.44367 171.461 -5.10542 182.71 -14.1343 190.933L-13.4609 191.672L-12.7876 192.412C-3.45953 183.916 3.23251 172.372 7.89862 160.871L6.97198 160.495ZM-13.4609 191.672L-14.1343 190.933C-22.7593 198.788 -31.9704 203.479 -39.5306 206.152L-39.1973 207.095L-38.8639 208.038C-31.0982 205.292 -21.643 200.477 -12.7876 192.412L-13.4609 191.672ZM-39.1973 207.095L-39.5306 206.152C-43.3106 207.489 -46.6778 208.321 -49.3529 208.792L-49.1797 209.777L-49.0065 210.762C-46.2213 210.272 -42.747 209.411 -38.8639 208.038L-39.1973 207.095ZM-49.1797 209.777L-49.3529 208.792C-52.0279 209.262 -54.0119 209.371 -55.0236 209.262L-55.1309 210.256L-55.2381 211.251C-53.9435 211.39 -51.7385 211.242 -49.0065 210.762L-49.1797 209.777ZM-55.1309 210.256L-55.0234 209.262L-55.0233 209.262L-56.0176 209.155L-57.0118 209.048C-57.1299 210.145 -56.3366 211.132 -55.2383 211.251L-55.1309 210.256ZM-56.0176 209.155L-55.0234 209.262L-55.0232 209.262L-54.916 208.268L-54.8088 207.274C-55.9066 207.155 -56.893 207.949 -57.0118 209.047L-56.0176 209.155ZM-54.916 208.268L-55.0232 209.262C-54.0116 209.371 -52.0283 209.262 -49.3532 208.792L-49.5264 207.807L-49.6996 206.822C-52.3184 207.283 -54.0803 207.352 -54.8088 207.274L-54.916 208.268ZM-49.5264 207.807L-49.3532 208.792C-46.6779 208.322 -43.31 207.49 -39.5299 206.153L-39.8633 205.21L-40.1966 204.268C-43.8732 205.568 -47.134 206.371 -49.6996 206.822L-49.5264 207.807ZM-39.8633 205.21L-39.5299 206.153C-31.9698 203.48 -22.7592 198.788 -14.1343 190.933L-14.8076 190.194L-15.481 189.455C-23.8756 197.1 -32.8421 201.667 -40.1966 204.268L-39.8633 205.21ZM-14.8076 190.194L-14.1343 190.933C-6.47309 183.956 -0.604081 174.805 3.80362 165.285L2.89617 164.865L1.98872 164.445C-2.34759 173.81 -8.07751 182.712 -15.481 189.455L-14.8076 190.194ZM0.671214 154.871L1.33566 154.124L-3.61124 149.725L-4.27568 150.473L-4.94012 151.22L0.00677131 155.618L0.671214 154.871ZM-22.6708 150.793L-21.9552 150.094L-30.3765 141.466L-31.0921 142.164L-31.8078 142.862L-23.3865 151.491L-22.6708 150.793ZM-25.299 131.608L-24.3541 131.281L-29.5943 116.152L-30.5392 116.479L-31.4842 116.806L-26.244 131.936L-25.299 131.608ZM-26.7265 107.92L-26.3378 108.841L-23.9919 107.852L-24.3806 106.93L-24.7693 106.009L-27.1152 106.999L-26.7265 107.92ZM-20.0898 108.097L-20.8914 108.694L-9.26875 124.278L-8.46714 123.681L-7.66553 123.083L-19.2882 107.499L-20.0898 108.097ZM-7.10351 122.393L-6.71476 123.315L-2.60727 121.582L-2.99601 120.66L-3.38475 119.739L-7.49225 121.472L-7.10351 122.393ZM3.818 123.089L2.93415 123.557L8.0143 133.155L8.89814 132.688L9.78199 132.22L4.70185 122.621L3.818 123.089ZM11.899 131.383L12.8439 131.056L7.83989 116.608L6.89496 116.935L5.95003 117.263L10.9541 131.71L11.899 131.383ZM16.9671 111.6L16.1655 112.198L29.8069 130.489L30.6085 129.891L31.4101 129.293L17.7687 111.002L16.9671 111.6ZM34.4692 127.846L35.4142 127.519L29.9934 111.867L29.0485 112.194L28.1036 112.521L33.5243 128.173L34.4692 127.846ZM40.3079 106.23L39.5063 106.828L55.4286 128.177L56.2303 127.579L57.0319 126.981L41.1095 105.632L40.3079 106.23ZM59.7231 125.729L60.668 125.402L54.7428 108.296L53.7979 108.623L52.853 108.951L58.7782 126.056L59.7231 125.729ZM65.7693 102.282L64.9677 102.88L81.6212 125.209L82.4228 124.611L83.2244 124.014L66.5709 101.684L65.7693 102.282ZM87.4332 121.958L88.3781 121.63L82.8529 105.678L81.9079 106.005L80.963 106.332L86.4882 122.285L87.4332 121.958ZM93.8801 99.6635L93.0785 100.261L109.53 122.32L110.331 121.722L111.133 121.124L94.6817 99.0656L93.8801 99.6635ZM116.516 118.446L117.461 118.118L112.245 103.059L111.3 103.386L110.355 103.713L115.571 118.773L116.516 118.446ZM123.271 97.0447L122.47 97.6425L141.869 123.654L142.671 123.056L143.472 122.458L124.073 96.4468L123.271 97.0447ZM135.639 142.704L134.669 142.462C133.756 146.12 132.637 149.937 131.278 153.796L132.221 154.128L133.164 154.461C134.546 150.537 135.683 146.66 136.61 142.946L135.639 142.704ZM132.221 154.128L131.278 153.796C126.933 166.13 120.138 178.906 109.808 188.315L110.481 189.054L111.155 189.794C121.815 180.084 128.756 166.974 133.164 154.461L132.221 154.128ZM110.481 189.054L109.808 188.315C103.434 194.12 96.7383 198.196 90.6252 201.009L91.0431 201.917L91.4611 202.826C97.7356 199.939 104.61 195.755 111.155 189.794L110.481 189.054ZM91.0449 201.923L91.2016 202.911C93.8768 202.487 97.2444 201.737 101.024 200.531L100.721 199.579L100.417 198.626C96.7331 199.8 93.4639 200.527 90.8883 200.936L91.0449 201.923ZM100.721 199.579L101.024 200.531C108.585 198.121 117.796 193.889 126.421 186.804L125.786 186.032L125.151 185.259C116.761 192.151 107.789 196.275 100.417 198.626L100.721 199.579ZM125.786 186.032L126.421 186.804C136.751 178.319 144.029 166.671 148.856 155.421L147.938 155.027L147.019 154.632C142.27 165.697 135.156 177.041 125.151 185.259L125.786 186.032ZM147.938 155.027L148.856 155.421C150.204 152.282 151.359 149.175 152.336 146.18L151.385 145.869L150.435 145.559C149.475 148.501 148.341 151.551 147.019 154.632L147.938 155.027ZM41.0454 150.085L40.0997 149.76C39.9223 150.276 39.7411 150.792 39.5557 151.31L40.4971 151.647L41.4384 151.984C41.6268 151.459 41.8109 150.934 41.991 150.41L41.0454 150.085ZM40.4971 151.647L39.5557 151.31C34.9241 164.232 27.8422 177.597 17.5122 187.005L18.1855 187.745L18.8589 188.484C29.5258 178.769 36.7502 165.065 41.4384 151.984L40.4971 151.647ZM18.1855 187.745L17.5122 187.005C15.0881 189.213 12.6176 191.171 10.1503 192.904L10.7251 193.723L11.3 194.541C13.8331 192.761 16.3698 190.751 18.8589 188.484L18.1855 187.745ZM11.415 195.208L11.7484 196.151C19.36 193.46 28.6323 188.738 37.315 180.83L36.6416 180.09L35.9683 179.351C27.516 187.049 18.4878 191.647 11.0817 194.266L11.415 195.208ZM36.6416 180.09L37.315 180.83C47.7293 171.345 54.8464 157.894 59.4921 144.933L58.5508 144.595L57.6094 144.258C53.0203 157.062 46.0457 170.173 35.9682 179.351L36.6416 180.09ZM58.5508 144.595L59.4921 144.933C59.5867 144.669 59.6803 144.405 59.7728 144.142L58.8292 143.81L57.8857 143.479C57.7946 143.738 57.7025 143.998 57.6094 144.258L58.5508 144.595ZM50.7074 138.884L49.9918 138.185L42.4571 145.905L43.1727 146.603L43.8883 147.302L51.423 139.582L50.7074 138.884ZM57.7103 138.884L58.426 138.186C56.1138 135.816 52.3041 135.816 49.9918 138.185L50.7074 138.884L51.423 139.582C52.9505 138.017 55.4672 138.017 56.9946 139.583L57.7103 138.884ZM58.8292 143.81L59.7728 144.142C60.506 142.053 59.9544 139.752 58.426 138.186L57.7103 138.884L56.9946 139.583C58.0098 140.623 58.3588 142.131 57.8857 143.479L58.8292 143.81ZM10.7251 193.723L10.1503 192.904C9.30932 193.495 9.18051 194.489 9.5152 195.217C9.85836 195.963 10.7345 196.51 11.7484 196.151L11.415 195.208L11.0817 194.266C11.0775 194.267 11.094 194.261 11.1271 194.262C11.1604 194.263 11.1966 194.272 11.2304 194.288C11.2963 194.319 11.3234 194.362 11.3323 194.381C11.3413 194.401 11.3477 194.429 11.3388 194.467C11.3271 194.517 11.2984 194.542 11.3 194.541L10.7251 193.723ZM41.0454 150.085L41.991 150.41C42.3932 149.241 43.0353 148.176 43.8883 147.302L43.1727 146.603L42.4571 145.905C41.3867 147.002 40.5931 148.325 40.0997 149.76L41.0454 150.085ZM151.385 145.869L152.336 146.18C153.347 143.081 152.379 139.735 150.042 137.533L149.356 138.261L148.67 138.989C150.479 140.693 151.19 143.243 150.435 145.559L151.385 145.869ZM91.0431 201.917L90.6252 201.009C89.9814 201.305 90.0129 201.959 90.0801 202.195C90.1468 202.429 90.4773 203.026 91.2016 202.911L91.0449 201.923L90.8883 200.936C91.6094 200.821 91.9377 201.416 92.0035 201.647C92.0698 201.88 92.1021 202.531 91.4611 202.826L91.0431 201.917ZM135.639 142.704L136.61 142.946C137.961 137.529 144.744 135.29 148.67 138.989L149.356 138.261L150.042 137.533C144.867 132.659 136.345 135.747 134.669 142.462L135.639 142.704ZM115.112 94.8272L115.501 95.7485C117.983 94.7015 120.859 95.4832 122.47 97.6425L123.271 97.0447L124.073 96.4468C121.912 93.5498 118.054 92.5011 114.724 93.9058L115.112 94.8272ZM111.3 103.386L112.245 103.059C111.235 100.145 112.66 96.9473 115.501 95.7485L115.112 94.8272L114.724 93.9058C110.912 95.514 109.001 99.8038 110.355 103.713L111.3 103.386ZM113.17 123.146V124.146C116.292 124.146 118.483 121.068 117.461 118.118L116.516 118.446L115.571 118.773C116.143 120.424 114.917 122.146 113.17 122.146V123.146ZM110.331 121.722L109.53 122.32C110.387 123.469 111.736 124.146 113.17 124.146V123.146V122.146C112.368 122.146 111.613 121.767 111.133 121.124L110.331 121.722ZM85.7203 97.446L86.1091 98.3674C88.5913 97.32 91.4678 98.1017 93.0785 100.261L93.8801 99.6635L94.6817 99.0656C92.5208 96.1683 88.6617 95.1195 85.3316 96.5247L85.7203 97.446ZM82.4228 124.611L81.6212 125.209C82.3514 126.188 83.501 126.765 84.7224 126.765V125.765V124.765C84.1324 124.765 83.5771 124.487 83.2244 124.014L82.4228 124.611ZM57.6105 100.064L57.9992 100.986C60.4811 99.9388 63.3572 100.721 64.9677 102.88L65.7693 102.282L66.5709 101.684C64.4103 98.7871 60.5516 97.7384 57.2218 99.1431L57.6105 100.064ZM53.7979 108.623L54.7428 108.296C53.7334 105.382 55.1577 102.185 57.9992 100.986L57.6105 100.064L57.2218 99.1431C53.4096 100.751 51.4987 105.041 52.853 108.951L53.7979 108.623ZM57.8334 128.383V129.383C59.8958 129.383 61.3431 127.35 60.668 125.402L59.7231 125.729L58.7782 126.056C59.0032 126.706 58.5208 127.383 57.8334 127.383V128.383ZM56.2303 127.579L55.4286 128.177C55.9949 128.936 56.8863 129.383 57.8334 129.383V128.383V127.383C57.5177 127.383 57.2206 127.234 57.0319 126.981L56.2303 127.579ZM29.0485 112.194L29.9934 111.867C29.0545 109.156 30.3796 106.181 33.023 105.066L32.6343 104.145L32.2455 103.223C28.6315 104.748 26.8199 108.815 28.1036 112.521L29.0485 112.194ZM32.3805 130.78V131.78C34.5876 131.78 36.1365 129.604 35.4142 127.519L34.4692 127.846L33.5243 128.173C33.7966 128.959 33.2126 129.78 32.3805 129.78V130.78ZM30.6085 129.891L29.8069 130.489C30.4128 131.301 31.3669 131.78 32.3805 131.78V130.78V129.78C31.9983 129.78 31.6386 129.599 31.4101 129.293L30.6085 129.891ZM10.3485 133.561V134.561C12.164 134.561 13.4381 132.771 12.8439 131.056L11.899 131.383L10.9541 131.71C11.0983 132.127 10.7891 132.561 10.3485 132.561V133.561ZM-2.99601 120.66L-2.60727 121.582C-0.52742 120.704 1.8782 121.562 2.93415 123.557L3.818 123.089L4.70185 122.621C3.16089 119.71 -0.349631 118.458 -3.38475 119.739L-2.99601 120.66ZM-7.43288 123.133L-6.48792 122.806C-6.41764 123.009 -6.51685 123.231 -6.71476 123.315L-7.10351 122.393L-7.49225 121.472C-8.2649 121.798 -8.65222 122.667 -8.37784 123.46L-7.43288 123.133ZM156.39 139.901L155.674 139.203C154.49 140.416 153.649 141.903 153.171 143.507L154.129 143.793L155.087 144.078C155.479 142.764 156.162 141.566 157.105 140.6L156.39 139.901ZM-8.46714 123.681L-9.26875 124.278C-8.18111 125.737 -5.89269 124.525 -6.48792 122.806L-7.43288 123.133L-8.37784 123.46C-8.40413 123.384 -8.40761 123.27 -8.358 123.158C-8.3142 123.06 -8.24559 122.999 -8.18334 122.966C-8.12108 122.933 -8.03241 122.91 -7.92629 122.93C-7.80609 122.951 -7.71356 123.018 -7.66553 123.083L-8.46714 123.681ZM167.876 137.71L168.592 137.012C165.637 133.984 160.768 133.984 157.812 137.012L158.528 137.71L159.244 138.409C161.414 136.185 164.99 136.185 167.16 138.409L167.876 137.71ZM-24.3806 106.93L-23.9919 107.852C-22.8876 107.386 -21.6079 107.734 -20.8914 108.694L-20.0898 108.097L-19.2882 107.499C-20.5549 105.8 -22.8171 105.185 -24.7693 106.009L-24.3806 106.93ZM177.224 137.711L176.508 137.012C174.338 139.236 170.762 139.236 168.592 137.012L167.876 137.71L167.16 138.409C170.115 141.437 174.984 141.437 177.94 138.409L177.224 137.711ZM-30.5392 116.479L-29.5943 116.152C-30.6036 113.237 -29.1793 110.04 -26.3378 108.841L-26.7265 107.92L-27.1152 106.999C-30.9274 108.607 -32.8383 112.897 -31.4842 116.806L-30.5392 116.479ZM6.99137 160.491L7.66564 159.752C7.1479 159.28 6.31176 159.463 6.04534 160.119L6.97198 160.495L7.89862 160.871C7.63856 161.512 6.82238 161.691 6.3171 161.229L6.99137 160.491ZM7.00905 160.489L6.225 159.869C6.58059 159.419 7.24251 159.366 7.66564 159.752L6.99137 160.491L6.3171 161.229C6.75062 161.625 7.42878 161.57 7.79309 161.11L7.00905 160.489ZM-2.33819 198.309L-2.28974 199.308C-1.10304 199.25 0.0267253 198.903 1.04365 198.385L0.58962 197.494L0.135589 196.603C-0.672566 197.015 -1.52737 197.268 -2.38665 197.31L-2.33819 198.309ZM-3.90887 199.6L-3.51551 200.519C-2.92667 200.267 -2.75718 199.676 -2.83612 199.245C-2.91346 198.823 -3.25927 198.357 -3.85761 198.292L-3.96484 199.287L-4.07208 200.281C-4.50814 200.234 -4.75093 199.892 -4.80334 199.606C-4.85734 199.311 -4.741 198.868 -4.30222 198.68L-3.90887 199.6ZM85.4346 204.331L85.5314 203.335C85.3711 203.32 85.065 203.3 84.7361 203.419L85.0769 204.359L85.4177 205.299C85.3624 205.319 85.3218 205.323 85.3095 205.323C85.2989 205.324 85.304 205.323 85.3378 205.326L85.4346 204.331ZM10.1024 109.735L10.4912 110.656C12.5121 109.803 14.8541 110.44 16.1655 112.198L16.9671 111.6L17.7687 111.002C15.9071 108.506 12.5825 107.603 9.71368 108.813L10.1024 109.735ZM62.8732 144.174L63.5889 143.475C62.0065 141.854 59.3011 142.502 58.5508 144.596L59.4922 144.933L60.4335 145.271C60.6994 144.529 61.6366 144.338 62.1575 144.872L62.8732 144.174ZM6.89496 116.935L7.83989 116.608C7.01811 114.235 8.17773 111.632 10.4912 110.656L10.1024 109.735L9.71368 108.813C6.42962 110.199 4.78347 113.894 5.95003 117.263L6.89496 116.935ZM65.1671 148.944L66.1233 149.237C66.5824 147.738 66.1703 146.12 65.0859 145.009L64.3702 145.708L63.6546 146.406C64.239 147.005 64.4515 147.866 64.211 148.651L65.1671 148.944ZM38.6143 150.972L39.5556 151.31C40.3845 148.997 39.7725 146.442 38.0776 144.705L37.362 145.404L36.6463 146.102C37.8282 147.313 38.2336 149.07 37.6729 150.635L38.6143 150.972ZM116.873 135.348L117.589 134.649C113.665 130.629 107.2 130.63 103.277 134.65L103.992 135.348L104.708 136.047C107.847 132.831 113.019 132.83 116.158 136.046L116.873 135.348ZM121.78 146.765L122.735 147.06C123.789 143.651 122.799 139.987 120.336 137.463L119.62 138.162L118.904 138.86C120.885 140.889 121.649 143.8 120.825 146.47L121.78 146.765ZM35.2765 143.267L35.9922 142.568C32.2694 138.754 26.2092 138.53 22.2149 142.059L22.877 142.808L23.539 143.558C26.7345 140.735 31.5827 140.914 34.5609 143.965L35.2765 143.267ZM96.6787 142.842L95.9631 142.143C94.8503 143.284 94.0367 144.669 93.55 146.17L94.5012 146.478L95.4524 146.787C95.8491 145.564 96.5074 144.449 97.3944 143.54L96.6787 142.842ZM8.89814 132.688L8.0143 133.155C8.47194 134.02 9.37011 134.561 10.3485 134.561V133.561V132.561C10.111 132.561 9.89305 132.43 9.78199 132.22L8.89814 132.688ZM185.302 116.862L184.587 117.56C187.62 120.668 187.62 125.628 184.586 128.736L185.302 129.434L186.018 130.133C189.809 126.248 189.809 120.048 186.018 116.163L185.302 116.862ZM-28.5955 136.239V137.239C-25.5097 137.239 -23.3442 134.197 -24.3541 131.281L-25.299 131.608L-26.244 131.936C-25.6841 133.552 -26.8847 135.239 -28.5955 135.239V136.239ZM168.782 107.656L169.497 108.354C171.171 106.64 173.928 106.64 175.602 108.355L176.318 107.656L177.033 106.958C174.575 104.439 170.525 104.439 168.066 106.958L168.782 107.656ZM-31.0921 142.164L-30.3765 141.466C-31.9148 139.889 -30.798 137.239 -28.5955 137.239V136.239V135.239C-32.5682 135.239 -34.5825 140.019 -31.8078 142.862L-31.0921 142.164ZM160.793 107.126L159.992 107.724C162.294 110.81 166.808 111.11 169.497 108.354L168.782 107.656L168.066 106.958C166.235 108.833 163.162 108.629 161.595 106.528L160.793 107.126ZM-13.3057 150.793L-14.0214 150.094C-16.1965 152.323 -19.7801 152.323 -21.9552 150.094L-22.6708 150.793L-23.3865 151.491C-20.4266 154.524 -15.55 154.524 -12.5901 151.491L-13.3057 150.793ZM141.304 103.388L142.248 103.061C141.239 100.147 142.664 96.9492 145.505 95.7505L145.116 94.8291L144.728 93.9078C140.915 95.516 139.005 99.8058 140.359 103.715L141.304 103.388ZM2.89617 164.865L3.80362 165.285C5.59464 161.417 4.47242 156.912 1.33566 154.124L0.671214 154.871L0.00677131 155.618C2.53391 157.865 3.38205 161.436 1.98872 164.445L2.89617 164.865ZM-0.930467 141.907L0.0144461 141.58C-0.674453 139.591 -3.21571 139.023 -4.68567 140.529L-3.96999 141.228L-3.25432 141.926C-2.82306 141.484 -2.07749 141.651 -1.87538 142.234L-0.930467 141.907ZM69.7536 144.247L69.0379 143.549C67.8603 144.755 67.0184 146.236 66.5458 147.837L67.5049 148.12L68.464 148.403C68.8491 147.098 69.5305 145.907 70.4693 144.946L69.7536 144.247ZM145.116 94.8291L145.505 95.7505C147.987 94.7035 150.863 95.4851 152.474 97.6445L153.275 97.0466L154.077 96.4487C151.916 93.5517 148.057 92.503 144.728 93.9078L145.116 94.8291ZM-4.27568 150.473L-3.61124 149.725C-6.62273 147.048 -11.2069 147.21 -14.0214 150.094L-13.3057 150.793L-12.5901 151.491C-10.5218 149.372 -7.15314 149.252 -4.94012 151.22L-4.27568 150.473ZM-2.66003 144.336V145.336C-0.714147 145.336 0.651377 143.418 0.0144461 141.58L-0.930467 141.907L-1.87538 142.234C-1.68851 142.774 -2.08914 143.336 -2.66003 143.336V144.336ZM88.1226 138.624L88.8383 137.926C84.9143 133.905 78.4491 133.905 74.5252 137.926L75.2408 138.625L75.9565 139.323C79.0956 136.106 84.2678 136.106 87.407 139.323L88.1226 138.624ZM-2.66003 144.336V143.336C-3.39496 143.336 -3.76762 142.452 -3.25432 141.926L-3.96999 141.228L-4.68567 140.529C-6.43525 142.322 -5.16504 145.336 -2.66003 145.336V144.336ZM91.5601 148.936L92.5035 149.268C93.73 145.779 92.7645 141.949 90.2136 139.335L89.4979 140.033L88.7823 140.732C90.8341 142.834 91.576 145.876 90.6167 148.604L91.5601 148.936ZM81.9079 106.005L82.8529 105.678C81.8436 102.764 83.2678 99.5663 86.1091 98.3674L85.7203 97.446L85.3316 96.5247C81.5196 98.1331 79.6089 102.423 80.963 106.332L81.9079 106.005ZM125.075 141.243L124.359 140.544C123.627 141.294 123.105 142.217 122.824 143.217L123.787 143.487L124.75 143.756C124.942 143.07 125.299 142.445 125.79 141.941L125.075 141.243ZM84.7224 125.765V126.765C87.3821 126.765 89.2485 124.143 88.3781 121.63L87.4332 121.958L86.4882 122.285C86.9087 123.499 86.0071 124.765 84.7224 124.765V125.765ZM132.864 145.398L133.828 145.665C134.621 142.797 133.317 140.396 131.237 139.3C129.174 138.213 126.412 138.44 124.359 140.544L125.075 141.243L125.79 141.941C127.214 140.482 129.011 140.388 130.305 141.07C131.583 141.743 132.434 143.202 131.9 145.131L132.864 145.398ZM146.204 123.257L146.26 124.255C147.897 124.164 148.992 122.531 148.455 120.982L147.511 121.309L146.566 121.636C146.668 121.931 146.46 122.241 146.148 122.259L146.204 123.257ZM32.6343 104.145L33.023 105.066C35.3321 104.092 38.0079 104.819 39.5063 106.828L40.3079 106.23L41.1095 105.632C39.061 102.886 35.4025 101.891 32.2455 103.223L32.6343 104.145ZM4.00913 198.381L3.79448 197.404C2.84184 197.613 1.91467 197.94 1.03956 198.386L1.4936 199.277L1.94764 200.167C2.66509 199.802 3.43066 199.532 4.22378 199.357L4.00913 198.381ZM142.659 123.227L141.945 122.527C141.222 123.265 141.785 124.507 142.817 124.449L142.761 123.45L142.705 122.452C143.496 122.407 143.929 123.36 143.374 123.926L142.659 123.227ZM142.659 123.227L143.374 123.926C143.764 123.528 143.806 122.905 143.472 122.458L142.671 123.056L141.869 123.654C141.614 123.311 141.646 122.833 141.945 122.527L142.659 123.227Z" fill="black" mask="url(#path-19-outside-1_232_707)"/>
<path d="M139.383 55.536C153.294 69.3865 146.473 80.6046 147.496 85L45.525 77.0233L-68.1309 94.5832C-28.4804 83.517 14.2916 72.9663 45.525 55.536C60.845 46.9864 68.6329 30.0676 56.4961 24.5001C73.7089 27.8369 116.358 32.61 139.383 55.536Z" fill="#7481C6" stroke="black" stroke-linecap="round" stroke-linejoin="round"/>
<path d="M61 28C69 29.3333 94.7 34.9 111.5 42.5C128.3 50.1 127.5 63.5 127.5 63.5M62.5 32C70.3333 33.5 93.2 38.4 106 46C118.8 53.6 117 64.5 117 64.5M62.5 36C71.8333 38 92.6469 44.5607 99.5 50.5C107 57 106 64 106 66.5M61 40C68.1667 41.5 84.1 46.2 90.5 53C96.9 59.8 95.8333 65.8333 94.5 68M59 44C64.3333 45.6667 76.2 50.3 81 55.5C85.8 60.7 84 67.3333 82.5 70M73 72C74.3333 69.8333 76.6 64.5 75 60.5C73.4 56.5 61.5 49.6667 56 47M54.5 49C58.6667 51.3333 67 57.2 67 62C67 66.8 64 71.6667 62.5 73.5M52.5 50.5C54.6667 52.8333 59 58.4 59 62C59 65.6 54 72.5 51.5 75.5M50 53C51.1667 54 53 57.6 51 64C49 70.4 42.8333 75.3333 40 77M46 55.5C46.8333 57.1667 47.3 61.9 42.5 67.5C37.7 73.1 29.1667 78.1667 25.5 80M40 58.5C40.1667 59.8333 38.8 63.7 32 68.5C25.2 73.3 16.5 79.5 13 82" stroke="black"/>
<path d="M194.996 88.5C173.24 68.9421 143.542 60.2567 114.679 65.0275C71.5256 72.1603 14.4961 81.5 14.4961 81.5C14.4961 81.5 184.6 73.7493 163.124 134.64L157.962 147.084C156.567 150.445 156.461 154.203 157.662 157.639C160.947 167.028 158.056 177.47 150.41 183.833L139.997 192.5L184.6 186.344C202.52 183.182 219.808 173.188 228.424 161.247C232.162 156.066 236.51 150.959 242.467 148.65L291.754 129.543L240.55 136.772C239.731 136.887 238.976 136.19 238.942 135.364C238.917 134.74 239.392 134.237 240.013 134.174L389.496 118.918L237.254 116C220.166 104.696 216.496 92.5 194.996 88.5Z" fill="#5460A3" stroke="black" stroke-linecap="round" stroke-linejoin="round"/>
<path d="M106 76C109.143 73.25 99.1667 69.3333 98 68.5L122 64.5C122.5 65.1667 126.546 65.8092 128.5 69.5C133 78 117.5 78 124.5 90L104 86C104 86 102 79.5 106 76Z" fill="#7481C6"/>
<path d="M80.9986 71C81.4986 71.6667 84.0447 72.3092 85.9986 76C87.805 79.412 86.8887 81.0013 84.9986 83L71.999 82C72.1448 79.612 63.8743 74.7277 62.8555 74L80.9986 71Z" fill="#7481C6"/>
<circle cx="212.679" cy="121.679" r="6.78454" transform="rotate(-3.71469 212.679 121.679)" fill="#9BCCD7" stroke="black"/>
<path d="M400.001 106V88L412 92L407.334 111.935C406.822 114.124 405.129 115.843 402.948 116.388L380.501 122C378.835 122.5 371.401 124.5 367.001 124.5C362.601 124.5 361.834 120.167 362.001 118L379 115.5L400.001 106Z" fill="#D79D67"/>
<path d="M400.5 90L398 108L379 115.5L363.582 117.768C362.657 117.903 361.93 118.667 362.045 119.594C362.164 120.557 362.462 121.614 363.049 122.5C363.164 122.674 371 122 371 122C371 122 363.755 123.346 363.943 123.5C364.682 124.108 365.677 124.5 367.001 124.5C371.401 124.5 378.835 122.5 380.501 122L403.344 116.397C405.58 115.848 407.304 114.07 407.783 111.818L412 92" stroke="black" stroke-linecap="round" stroke-linejoin="round"/>
<path d="M394 84L398.5 81" stroke="black" stroke-linecap="round" stroke-linejoin="round"/>
<path d="M370 120L362.5 121M369 118.5L362 119.5" stroke="black" stroke-linecap="round" stroke-linejoin="round"/>
<path d="M203 171C203 171 185.002 170.191 185 142.356C184.999 122.735 197.336 110.269 203 108" stroke="black" stroke-linecap="round" stroke-linejoin="round"/>
<path d="M186.001 178C186.001 178 164.591 177.003 162.215 144.5M186.001 91C180.954 93.0944 171.93 101.481 166.501 114.905" stroke="black" stroke-linecap="round" stroke-linejoin="round"/>
<path d="M289.998 130L243.496 141C240.663 143.334 234.387 147 232.499 138.5C230.61 130 237.996 126.5 241.997 131L291.997 126.5" stroke="black" stroke-linecap="round" stroke-linejoin="round"/>
<path d="M412.073 65.6836L355.5 57L374 55L378.5 46L395 50L396.908 58.5821L412.073 65.6836Z" fill="#CEA851" stroke="black" stroke-linecap="round" stroke-linejoin="round"/>
<path d="M129.01 195.458C129.01 195.458 152.385 178.342 195.988 175.948C205.326 175.434 259.768 172.753 298.861 179.13C298.861 179.13 205.222 203.323 129.01 195.458Z" fill="#E4CFA9" stroke="black"/>
<mask id="path-36-outside-2_232_707" maskUnits="userSpaceOnUse" x="-14" y="63.5005" width="275" height="163" fill="black">
<rect fill="white" x="-14" y="63.5005" width="275" height="163"/>
<path d="M146.918 64.6821C147.924 64.5145 149.019 64.3709 150.195 64.6938C151.382 65.0199 152.588 65.8009 153.884 67.355C154.162 67.6886 154.354 68.1476 154.485 68.6772C154.618 69.2131 154.699 69.8594 154.731 70.6001C154.797 72.0825 154.672 73.9951 154.35 76.2671C153.705 80.8144 152.264 86.8615 149.927 93.9175C145.251 108.032 136.973 126.224 124.243 144.583C98.7791 181.308 55.4795 218.729 -12.4502 225.498C-12.7247 225.525 -12.9694 225.325 -12.9971 225.05C-13.0244 224.776 -12.8244 224.531 -12.5498 224.503C55.0198 217.771 98.0809 180.561 123.422 144.014C136.094 125.738 144.33 107.633 148.978 93.603C151.302 86.5871 152.725 80.5996 153.359 76.1265C153.677 73.8889 153.794 72.0435 153.732 70.645C153.702 69.946 153.627 69.3697 153.515 68.9185C153.401 68.4614 153.258 68.166 153.116 67.9956C151.912 66.5513 150.868 65.9155 149.93 65.6577C148.981 65.3974 148.076 65.5028 147.082 65.6685C146.81 65.7137 146.552 65.5294 146.507 65.2573C146.462 64.985 146.646 64.7275 146.918 64.6821ZM245.418 113.506C246.424 113.339 247.519 113.195 248.695 113.518C249.882 113.844 251.088 114.625 252.384 116.179C254.169 118.321 254.925 121.496 255.022 124.965C255.12 128.449 254.557 132.307 253.629 135.898C252.701 139.488 251.4 142.839 250.005 145.302C249.308 146.532 248.578 147.561 247.843 148.29C247.121 149.005 246.324 149.499 245.5 149.5C245.224 149.5 245 149.276 245 149C245 148.724 245.224 148.5 245.5 148.5C245.926 148.499 246.48 148.231 247.139 147.579C247.784 146.939 248.463 145.996 249.135 144.809C250.477 142.439 251.749 139.175 252.661 135.648C253.573 132.122 254.117 128.359 254.022 124.993C253.927 121.613 253.191 118.709 251.616 116.82C250.412 115.375 249.368 114.74 248.43 114.482C247.481 114.222 246.576 114.327 245.582 114.493C245.31 114.538 245.052 114.354 245.007 114.082C244.962 113.809 245.146 113.552 245.418 113.506ZM255.276 113.552C255.95 113.215 256.695 113.468 257.303 113.996C257.917 114.529 258.492 115.412 258.943 116.612C259.849 119.019 260.303 122.82 259.494 128.077C258.684 133.341 256.914 137.892 255.157 141.316C253.406 144.729 251.654 147.053 250.854 147.853C250.658 148.048 250.342 148.048 250.146 147.853C249.951 147.658 249.951 147.341 250.146 147.146C250.847 146.446 252.544 144.221 254.268 140.86C255.986 137.509 257.716 133.06 258.506 127.924C259.297 122.782 258.835 119.165 258.007 116.963C257.591 115.859 257.095 115.139 256.647 114.75C256.192 114.356 255.883 114.367 255.724 114.447C255.477 114.57 255.176 114.47 255.053 114.223C254.929 113.976 255.029 113.676 255.276 113.552Z"/>
</mask>
<path d="M146.918 64.6821C147.924 64.5145 149.019 64.3709 150.195 64.6938C151.382 65.0199 152.588 65.8009 153.884 67.355C154.162 67.6886 154.354 68.1476 154.485 68.6772C154.618 69.2131 154.699 69.8594 154.731 70.6001C154.797 72.0825 154.672 73.9951 154.35 76.2671C153.705 80.8144 152.264 86.8615 149.927 93.9175C145.251 108.032 136.973 126.224 124.243 144.583C98.7791 181.308 55.4795 218.729 -12.4502 225.498C-12.7247 225.525 -12.9694 225.325 -12.9971 225.05C-13.0244 224.776 -12.8244 224.531 -12.5498 224.503C55.0198 217.771 98.0809 180.561 123.422 144.014C136.094 125.738 144.33 107.633 148.978 93.603C151.302 86.5871 152.725 80.5996 153.359 76.1265C153.677 73.8889 153.794 72.0435 153.732 70.645C153.702 69.946 153.627 69.3697 153.515 68.9185C153.401 68.4614 153.258 68.166 153.116 67.9956C151.912 66.5513 150.868 65.9155 149.93 65.6577C148.981 65.3974 148.076 65.5028 147.082 65.6685C146.81 65.7137 146.552 65.5294 146.507 65.2573C146.462 64.985 146.646 64.7275 146.918 64.6821ZM245.418 113.506C246.424 113.339 247.519 113.195 248.695 113.518C249.882 113.844 251.088 114.625 252.384 116.179C254.169 118.321 254.925 121.496 255.022 124.965C255.12 128.449 254.557 132.307 253.629 135.898C252.701 139.488 251.4 142.839 250.005 145.302C249.308 146.532 248.578 147.561 247.843 148.29C247.121 149.005 246.324 149.499 245.5 149.5C245.224 149.5 245 149.276 245 149C245 148.724 245.224 148.5 245.5 148.5C245.926 148.499 246.48 148.231 247.139 147.579C247.784 146.939 248.463 145.996 249.135 144.809C250.477 142.439 251.749 139.175 252.661 135.648C253.573 132.122 254.117 128.359 254.022 124.993C253.927 121.613 253.191 118.709 251.616 116.82C250.412 115.375 249.368 114.74 248.43 114.482C247.481 114.222 246.576 114.327 245.582 114.493C245.31 114.538 245.052 114.354 245.007 114.082C244.962 113.809 245.146 113.552 245.418 113.506ZM255.276 113.552C255.95 113.215 256.695 113.468 257.303 113.996C257.917 114.529 258.492 115.412 258.943 116.612C259.849 119.019 260.303 122.82 259.494 128.077C258.684 133.341 256.914 137.892 255.157 141.316C253.406 144.729 251.654 147.053 250.854 147.853C250.658 148.048 250.342 148.048 250.146 147.853C249.951 147.658 249.951 147.341 250.146 147.146C250.847 146.446 252.544 144.221 254.268 140.86C255.986 137.509 257.716 133.06 258.506 127.924C259.297 122.782 258.835 119.165 258.007 116.963C257.591 115.859 257.095 115.139 256.647 114.75C256.192 114.356 255.883 114.367 255.724 114.447C255.477 114.57 255.176 114.47 255.053 114.223C254.929 113.976 255.029 113.676 255.276 113.552Z" fill="#CEA851"/>
<path d="M146.918 64.6821L146.754 63.6957L146.754 63.6957L146.918 64.6821ZM150.195 64.6938L150.46 63.7296L150.46 63.7295L150.195 64.6938ZM153.884 67.355L154.652 66.7149L154.652 66.7147L153.884 67.355ZM154.485 68.6772L155.456 68.4365L155.456 68.4364L154.485 68.6772ZM154.731 70.6001L155.73 70.5561L155.73 70.5561L154.731 70.6001ZM154.35 76.2671L155.34 76.4074L155.34 76.4074L154.35 76.2671ZM149.927 93.9175L150.876 94.2319L150.876 94.2319L149.927 93.9175ZM124.243 144.583L125.065 145.153L125.065 145.153L124.243 144.583ZM-12.4502 225.498L-12.3511 226.493L-12.3511 226.493L-12.4502 225.498ZM-12.9971 225.05L-13.9921 225.149L-13.992 225.151L-12.9971 225.05ZM-12.5498 224.503L-12.6489 223.508L-12.6495 223.508L-12.5498 224.503ZM123.422 144.014L124.244 144.584L124.244 144.584L123.422 144.014ZM148.978 93.603L149.927 93.9175L149.927 93.9175L148.978 93.603ZM153.359 76.1265L154.349 76.2668L154.349 76.2668L153.359 76.1265ZM153.732 70.645L154.731 70.6011L154.731 70.601L153.732 70.645ZM153.515 68.9185L154.485 68.6778L154.485 68.6776L153.515 68.9185ZM153.116 67.9956L153.885 67.356L153.884 67.3553L153.116 67.9956ZM149.93 65.6577L150.195 64.6934L150.194 64.6934L149.93 65.6577ZM147.082 65.6685L147.246 66.6549L147.246 66.6549L147.082 65.6685ZM146.507 65.2573L145.52 65.4214L145.521 65.4226L146.507 65.2573ZM245.418 113.506L245.254 112.52L245.254 112.52L245.418 113.506ZM248.695 113.518L248.96 112.554L248.96 112.554L248.695 113.518ZM252.384 116.179L253.152 115.539L253.152 115.539L252.384 116.179ZM255.022 124.965L256.022 124.937L256.022 124.937L255.022 124.965ZM253.629 135.898L254.597 136.148L254.597 136.148L253.629 135.898ZM250.005 145.302L250.875 145.795L250.875 145.795L250.005 145.302ZM247.843 148.29L248.547 149L248.547 149L247.843 148.29ZM245.5 149.5L245.5 150.5L245.5 150.5L245.5 149.5ZM245 149L244 148.999L244 149L245 149ZM245.5 148.5L245.5 149.5L245.5 149.5L245.5 148.5ZM247.139 147.579L247.843 148.289L247.843 148.289L247.139 147.579ZM249.135 144.809L250.005 145.302L250.005 145.302L249.135 144.809ZM252.661 135.648L253.629 135.898L253.629 135.898L252.661 135.648ZM254.022 124.993L255.022 124.965L255.022 124.965L254.022 124.993ZM251.616 116.82L252.384 116.18L252.384 116.18L251.616 116.82ZM248.43 114.482L248.695 113.518L248.694 113.518L248.43 114.482ZM245.582 114.493L245.746 115.479L245.746 115.479L245.582 114.493ZM245.007 114.082L244.02 114.246L244.02 114.246L245.007 114.082ZM255.276 113.552L254.829 112.658L254.829 112.658L255.276 113.552ZM257.303 113.996L257.958 113.24L257.958 113.24L257.303 113.996ZM258.943 116.612L259.879 116.26L259.879 116.26L258.943 116.612ZM259.494 128.077L260.483 128.229L260.483 128.229L259.494 128.077ZM255.157 141.316L256.047 141.772L256.047 141.772L255.157 141.316ZM250.854 147.853L251.56 148.56L251.561 148.56L250.854 147.853ZM250.146 147.853L249.439 148.56L249.439 148.56L250.146 147.853ZM250.146 147.146L250.853 147.853L250.853 147.853L250.146 147.146ZM254.268 140.86L255.157 141.316L255.157 141.316L254.268 140.86ZM258.506 127.924L259.494 128.076L259.494 128.076L258.506 127.924ZM258.007 116.963L258.943 116.611L258.943 116.611L258.007 116.963ZM256.647 114.75L257.303 113.995L257.303 113.995L256.647 114.75ZM255.724 114.447L255.277 113.552L255.277 113.552L255.724 114.447ZM255.053 114.223L254.158 114.67L254.158 114.671L255.053 114.223ZM146.918 64.6821L147.082 65.6685C148.075 65.503 148.982 65.3976 149.931 65.6582L150.195 64.6938L150.46 63.7295C149.057 63.3442 147.772 63.526 146.754 63.6957L146.918 64.6821ZM150.195 64.6938L149.93 65.6581C150.868 65.9159 151.912 66.5513 153.116 67.9953L153.884 67.355L154.652 66.7147C153.265 65.0504 151.895 64.1238 150.46 63.7296L150.195 64.6938ZM153.884 67.355L153.115 67.995C153.258 68.166 153.402 68.462 153.515 68.9181L154.485 68.6772L155.456 68.4364C155.306 67.8332 155.066 67.2112 154.652 66.7149L153.884 67.355ZM154.485 68.6772L153.515 68.918C153.627 69.369 153.702 69.9448 153.732 70.6441L154.731 70.6001L155.73 70.5561C155.696 69.7739 155.61 69.0572 155.456 68.4365L154.485 68.6772ZM154.731 70.6001L153.732 70.6441C153.794 72.0428 153.677 73.889 153.36 76.1268L154.35 76.2671L155.34 76.4074C155.667 74.1012 155.799 72.1223 155.73 70.5561L154.731 70.6001ZM154.35 76.2671L153.36 76.1268C152.725 80.5998 151.302 86.5872 148.977 93.603L149.927 93.9175L150.876 94.2319C153.227 87.1359 154.685 81.0289 155.34 76.4074L154.35 76.2671ZM149.927 93.9175L148.977 93.603C144.33 107.633 136.094 125.738 123.421 144.014L124.243 144.583L125.065 145.153C137.853 126.71 146.173 108.431 150.876 94.2319L149.927 93.9175ZM124.243 144.583L123.421 144.014C98.0805 180.561 55.0201 217.77 -12.5493 224.502L-12.4502 225.498L-12.3511 226.493C55.9388 219.689 99.4777 182.056 125.065 145.153L124.243 144.583ZM-12.4502 225.498L-12.5493 224.502C-12.2744 224.475 -12.0298 224.676 -12.0021 224.95L-12.9971 225.05L-13.992 225.151C-13.9089 225.974 -13.1751 226.575 -12.3511 226.493L-12.4502 225.498ZM-12.9971 225.05L-12.002 224.951C-11.9747 225.225 -12.1747 225.471 -12.4501 225.498L-12.5498 224.503L-12.6495 223.508C-13.4741 223.591 -14.0742 224.326 -13.9921 225.149L-12.9971 225.05ZM-12.5498 224.503L-12.4507 225.498C55.4791 218.73 98.7795 181.309 124.244 144.584L123.422 144.014L122.6 143.444C97.3823 179.814 54.5605 216.812 -12.6489 223.508L-12.5498 224.503ZM123.422 144.014L124.244 144.584C136.974 126.224 145.251 108.032 149.927 93.9175L148.978 93.603L148.028 93.2886C143.409 107.234 135.214 125.252 122.6 143.444L123.422 144.014ZM148.978 93.603L149.927 93.9175C152.264 86.8614 153.705 80.8141 154.349 76.2668L153.359 76.1265L152.369 75.9861C151.746 80.385 150.339 86.3128 148.028 93.2886L148.978 93.603ZM153.359 76.1265L154.349 76.2668C154.671 73.995 154.797 72.0834 154.731 70.6011L153.732 70.645L152.733 70.689C152.791 72.0037 152.682 73.7827 152.369 75.9861L153.359 76.1265ZM153.732 70.645L154.731 70.601C154.699 69.8605 154.618 69.2138 154.485 68.6778L153.515 68.9185L152.544 69.1592C152.635 69.5257 152.704 70.0316 152.733 70.689L153.732 70.645ZM153.515 68.9185L154.485 68.6776C154.354 68.1481 154.162 67.6894 153.885 67.356L153.116 67.9956L152.347 68.6352C152.345 68.6327 152.372 68.6647 152.412 68.7558C152.452 68.8448 152.499 68.9758 152.544 69.1593L153.515 68.9185ZM153.116 67.9956L153.884 67.3553C152.588 65.8006 151.381 65.0193 150.195 64.6934L149.93 65.6577L149.665 66.622C150.355 66.8116 151.236 67.302 152.348 68.6359L153.116 67.9956ZM149.93 65.6577L150.194 64.6934C149.018 64.3705 147.923 64.5145 146.918 64.6821L147.082 65.6685L147.246 66.6549C148.229 66.4911 148.944 66.4242 149.665 66.622L149.93 65.6577ZM147.082 65.6685L146.918 64.682C147.192 64.6365 147.448 64.8215 147.493 65.0921L146.507 65.2573L145.521 65.4226C145.657 66.2373 146.428 66.791 147.246 66.6549L147.082 65.6685ZM146.507 65.2573L147.493 65.0933C147.539 65.366 147.354 65.6232 147.082 65.6685L146.918 64.6821L146.754 63.6957C145.937 63.8318 145.384 64.6041 145.52 65.4214L146.507 65.2573ZM245.418 113.506L245.582 114.493C246.575 114.327 247.481 114.222 248.431 114.482L248.695 113.518L248.96 112.554C247.557 112.168 246.272 112.35 245.254 112.52L245.418 113.506ZM248.695 113.518L248.43 114.482C249.369 114.74 250.412 115.375 251.616 116.819L252.384 116.179L253.152 115.539C251.764 113.874 250.395 112.948 248.96 112.554L248.695 113.518ZM252.384 116.179L251.616 116.819C253.19 118.709 253.928 121.614 254.023 124.993L255.022 124.965L256.022 124.937C255.922 121.378 255.148 117.934 253.152 115.539L252.384 116.179ZM255.022 124.965L254.023 124.993C254.117 128.359 253.572 132.121 252.661 135.648L253.629 135.898L254.597 136.148C255.542 132.493 256.123 128.539 256.022 124.937L255.022 124.965ZM253.629 135.898L252.661 135.648C251.749 139.175 250.477 142.439 249.135 144.809L250.005 145.302L250.875 145.795C252.323 143.238 253.653 139.802 254.597 136.148L253.629 135.898ZM250.005 145.302L249.135 144.809C248.463 145.996 247.784 146.94 247.139 147.579L247.843 148.29L248.547 149C249.371 148.183 250.154 147.068 250.875 145.795L250.005 145.302ZM247.843 148.29L247.139 147.579C246.481 148.231 245.926 148.499 245.5 148.5L245.5 149.5L245.5 150.5C246.721 150.499 247.761 149.779 248.547 149L247.843 148.29ZM245.5 149.5V148.5C245.776 148.5 246 148.723 246 149L245 149L244 149C244 149.828 244.672 150.5 245.5 150.5V149.5ZM245 149L246 149C246 149.275 245.777 149.5 245.5 149.5V148.5V147.5C244.671 147.5 244.001 148.172 244 148.999L245 149ZM245.5 148.5L245.5 149.5C246.323 149.499 247.12 149.005 247.843 148.289L247.139 147.579L246.435 146.868C245.841 147.457 245.529 147.5 245.5 147.5L245.5 148.5ZM247.139 147.579L247.843 148.289C248.577 147.561 249.308 146.532 250.005 145.302L249.135 144.809L248.265 144.316C247.617 145.46 246.991 146.317 246.435 146.868L247.139 147.579ZM249.135 144.809L250.005 145.302C251.4 142.838 252.701 139.489 253.629 135.898L252.661 135.648L251.693 135.398C250.797 138.861 249.554 142.039 248.265 144.316L249.135 144.809ZM252.661 135.648L253.629 135.898C254.558 132.307 255.12 128.448 255.022 124.965L254.022 124.993L253.023 125.021C253.114 128.269 252.588 131.936 251.693 135.398L252.661 135.648ZM254.022 124.993L255.022 124.965C254.924 121.495 254.17 118.322 252.384 116.18L251.616 116.82L250.848 117.46C252.212 119.096 252.93 121.731 253.023 125.021L254.022 124.993ZM251.616 116.82L252.384 116.18C251.088 114.625 249.881 113.843 248.695 113.518L248.43 114.482L248.165 115.446C248.855 115.636 249.736 116.126 250.848 117.46L251.616 116.82ZM248.43 114.482L248.694 113.518C247.518 113.195 246.423 113.339 245.418 113.506L245.582 114.493L245.746 115.479C246.729 115.315 247.444 115.248 248.165 115.446L248.43 114.482ZM245.582 114.493L245.418 113.506C245.691 113.461 245.948 113.645 245.993 113.917L245.007 114.082L244.02 114.246C244.157 115.062 244.929 115.615 245.746 115.479L245.582 114.493ZM245.007 114.082L245.993 113.917C246.039 114.19 245.854 114.447 245.582 114.493L245.418 113.506L245.254 112.52C244.437 112.656 243.884 113.428 244.02 114.246L245.007 114.082ZM255.276 113.552L255.724 114.447C255.878 114.369 256.187 114.351 256.647 114.751L257.303 113.996L257.958 113.24C257.204 112.586 256.022 112.062 254.829 112.658L255.276 113.552ZM257.303 113.996L256.647 114.751C257.095 115.14 257.592 115.859 258.007 116.964L258.943 116.612L259.879 116.26C259.393 114.965 258.74 113.919 257.958 113.24L257.303 113.996ZM258.943 116.612L258.007 116.964C258.835 119.165 259.297 122.782 258.506 127.925L259.494 128.077L260.483 128.229C261.309 122.857 260.862 118.873 259.879 116.26L258.943 116.612ZM259.494 128.077L258.506 127.925C257.716 133.06 255.986 137.509 254.267 140.86L255.157 141.316L256.047 141.772C257.841 138.275 259.653 133.621 260.483 128.229L259.494 128.077ZM255.157 141.316L254.267 140.86C252.544 144.22 250.847 146.446 250.147 147.146L250.854 147.853L251.561 148.56C252.46 147.661 254.269 145.239 256.047 141.772L255.157 141.316ZM250.854 147.853L250.147 147.146C250.341 146.951 250.658 146.95 250.854 147.146L250.146 147.853L249.439 148.56C250.025 149.146 250.975 149.145 251.56 148.56L250.854 147.853ZM250.146 147.853L250.854 147.146C251.048 147.341 251.049 147.657 250.853 147.853L250.146 147.146L249.44 146.439C248.853 147.025 248.854 147.975 249.439 148.56L250.146 147.853ZM250.146 147.146L250.853 147.853C251.653 147.054 253.406 144.73 255.157 141.316L254.268 140.86L253.378 140.403C251.681 143.711 250.04 145.838 249.44 146.439L250.146 147.146ZM254.268 140.86L255.157 141.316C256.914 137.892 258.684 133.34 259.494 128.076L258.506 127.924L257.517 127.772C256.747 132.78 255.059 137.126 253.378 140.403L254.268 140.86ZM258.506 127.924L259.494 128.076C260.303 122.819 259.848 119.019 258.943 116.611L258.007 116.963L257.071 117.315C257.821 119.311 258.291 122.744 257.517 127.772L258.506 127.924ZM258.007 116.963L258.943 116.611C258.492 115.412 257.918 114.529 257.303 113.995L256.647 114.75L255.992 115.506C256.273 115.749 256.691 116.305 257.071 117.315L258.007 116.963ZM256.647 114.75L257.303 113.995C256.682 113.457 255.939 113.221 255.277 113.552L255.724 114.447L256.171 115.341C256.103 115.375 256.036 115.393 255.975 115.4C255.914 115.406 255.869 115.4 255.844 115.394C255.798 115.383 255.848 115.381 255.992 115.506L256.647 114.75ZM255.724 114.447L255.277 113.552C255.524 113.429 255.824 113.529 255.947 113.776L255.053 114.223L254.158 114.671C254.529 115.411 255.43 115.712 256.171 115.341L255.724 114.447ZM255.053 114.223L255.947 113.776C256.071 114.023 255.971 114.323 255.724 114.447L255.276 113.552L254.829 112.658C254.088 113.028 253.788 113.929 254.158 114.67L255.053 114.223Z" fill="black" mask="url(#path-36-outside-2_232_707)"/>
<path fill-rule="evenodd" clip-rule="evenodd" d="M379.658 223.712C379.915 223.612 380.205 223.739 380.305 223.996L381.008 225.793C381.108 226.05 380.982 226.34 380.724 226.44C380.467 226.541 380.177 226.414 380.077 226.157L379.374 224.36C379.273 224.103 379.4 223.813 379.658 223.712ZM370.792 228.567C370.604 228.656 370.413 228.747 370.258 228.808C370.001 228.908 369.711 228.781 369.61 228.524C369.51 228.267 369.637 227.977 369.894 227.876C370.032 227.822 370.215 227.734 370.452 227.622C370.678 227.515 370.941 227.393 371.204 227.293C371.462 227.194 371.751 227.105 372.028 227.08C372.298 227.055 372.648 227.085 372.923 227.333C373.128 227.518 373.145 227.835 372.959 228.04C372.776 228.242 372.465 228.26 372.26 228.082C372.249 228.078 372.21 228.067 372.118 228.076C371.976 228.089 371.787 228.14 371.56 228.227C371.337 228.312 371.105 228.419 370.879 228.526C370.85 228.539 370.821 228.553 370.792 228.567ZM387.171 225.754C387.092 225.49 387.242 225.211 387.507 225.132C388.54 224.824 389.587 224.618 390.607 224.417C390.799 224.379 390.99 224.342 391.18 224.304C392.389 224.061 393.563 223.798 394.706 223.351C394.963 223.25 395.253 223.377 395.353 223.634C395.454 223.891 395.327 224.181 395.07 224.282C393.84 224.763 392.593 225.04 391.376 225.284C391.18 225.324 390.984 225.362 390.789 225.401C389.769 225.602 388.776 225.798 387.793 226.091C387.528 226.17 387.249 226.019 387.171 225.754ZM410.769 222.937C411.026 222.837 411.316 222.963 411.417 223.221L414.461 231.006L414.463 231.011C415.679 230.909 416.904 230.844 418.149 230.78C418.424 230.766 418.659 230.978 418.674 231.254C418.688 231.53 418.475 231.765 418.2 231.779C413.922 231.997 410.033 232.239 406.042 233.8C405.784 233.9 405.494 233.773 405.394 233.516C405.293 233.259 405.42 232.969 405.677 232.868C408.279 231.851 410.835 231.375 413.427 231.107L410.485 223.585C410.385 223.328 410.512 223.038 410.769 222.937ZM408.166 236.072C408.241 236.075 408.301 236.094 408.333 236.105C408.516 236.172 408.637 236.334 408.659 236.515C408.721 236.604 408.816 236.729 408.943 236.889C409.261 237.29 409.735 237.851 410.245 238.438C410.45 238.673 410.658 238.911 410.863 239.143C411.746 238.797 412.627 238.448 413.506 238.092C414.222 237.801 414.896 237.376 415.608 236.926L415.616 236.921C416.311 236.482 417.047 236.017 417.835 235.708C418.092 235.608 418.382 235.735 418.483 235.992C418.583 236.249 418.456 236.539 418.199 236.64C417.513 236.908 416.855 237.321 416.142 237.771L416.112 237.791C415.423 238.226 414.684 238.693 413.881 239.019C413.114 239.33 412.344 239.636 411.572 239.939C412.098 240.523 412.523 240.982 412.674 241.126C413.283 241.711 413.909 242.281 414.54 242.856C414.649 242.956 414.758 243.055 414.867 243.155C415.607 243.831 416.35 244.516 417.064 245.23C417.203 245.369 417.324 245.527 417.426 245.667C417.458 245.711 417.488 245.752 417.517 245.792C417.586 245.888 417.647 245.972 417.714 246.056C417.908 246.298 418.019 246.356 418.1 246.363C418.375 246.388 418.577 246.632 418.552 246.907C418.527 247.182 418.284 247.384 418.009 247.359C417.489 247.312 417.15 246.952 416.933 246.68C416.821 246.54 416.709 246.38 416.619 246.258C416.522 246.125 416.439 246.019 416.357 245.937C415.66 245.24 414.932 244.568 414.193 243.894C414.085 243.795 413.976 243.696 413.867 243.597C413.237 243.022 412.601 242.442 411.981 241.848C411.783 241.657 411.224 241.05 410.578 240.328C409.828 240.62 409.077 240.91 408.327 241.2C407.402 241.557 406.478 241.914 405.558 242.274C405.301 242.374 405.011 242.247 404.911 241.99C404.81 241.733 404.937 241.443 405.194 241.343C406.122 240.98 407.05 240.621 407.976 240.263C408.608 240.019 409.24 239.775 409.871 239.53C409.743 239.384 409.616 239.238 409.49 239.094C408.978 238.504 408.492 237.93 408.159 237.511C407.996 237.305 407.858 237.121 407.773 236.988C407.743 236.941 407.674 236.833 407.646 236.715C407.638 236.68 407.624 236.61 407.634 236.525C407.645 236.432 407.69 236.29 407.824 236.183C407.953 236.081 408.09 236.069 408.166 236.072ZM421.023 240.33C421.281 240.229 421.571 240.356 421.671 240.614C422.718 243.29 422.497 245.961 422.078 248.546C421.984 249.128 421.881 249.703 421.778 250.273C421.418 252.273 421.068 254.213 421.168 256.17C421.182 256.445 420.97 256.68 420.695 256.694C420.419 256.708 420.184 256.496 420.17 256.221C420.063 254.137 420.441 252.046 420.805 250.029C420.905 249.475 421.004 248.927 421.091 248.386C421.504 245.837 421.684 243.393 420.74 240.978C420.639 240.721 420.766 240.431 421.023 240.33ZM314.021 181.801C314.279 181.7 314.569 181.827 314.669 182.084C314.819 182.466 314.675 182.816 314.489 183.059C314.308 183.296 314.039 183.506 313.75 183.69C313.165 184.062 312.347 184.422 311.511 184.745C310.668 185.07 309.777 185.368 309.033 185.611C308.84 185.674 308.658 185.732 308.491 185.787C308 185.945 307.629 186.065 307.434 186.141C307.177 186.242 306.887 186.115 306.786 185.858C306.686 185.601 306.812 185.311 307.07 185.21C307.295 185.122 307.713 184.987 308.218 184.824C308.378 184.772 308.548 184.717 308.723 184.66C309.464 184.419 310.334 184.127 311.151 183.812C311.975 183.494 312.716 183.163 313.213 182.846C313.466 182.685 313.619 182.551 313.694 182.453C313.709 182.433 313.718 182.419 313.724 182.409C313.651 182.162 313.778 181.896 314.021 181.801ZM297.126 190.282C297.047 190.017 297.198 189.738 297.462 189.66C299.309 189.109 301.292 189.026 303.226 188.993C303.479 188.988 303.731 188.985 303.981 188.981C305.445 188.961 306.872 188.941 308.239 188.757C308.448 188.512 308.519 188.317 308.537 188.141C308.565 187.868 308.48 187.54 308.27 187.004C308.169 186.746 308.296 186.456 308.553 186.356C308.811 186.255 309.101 186.382 309.201 186.639C309.409 187.17 309.587 187.704 309.532 188.243C309.51 188.459 309.453 188.662 309.361 188.858C309.404 188.917 309.435 188.987 309.449 189.064C309.497 189.336 309.316 189.596 309.044 189.644C308.936 189.663 308.828 189.681 308.719 189.698C308.688 189.727 308.656 189.756 308.623 189.785C307.227 191.027 305.314 191.856 303.391 192.53C302.572 192.817 301.738 193.08 300.932 193.334C300.789 193.379 300.647 193.424 300.506 193.468C299.565 193.766 298.675 194.055 297.878 194.366C297.621 194.467 297.331 194.34 297.23 194.083C297.129 193.826 297.256 193.536 297.513 193.435C298.345 193.11 299.264 192.812 300.204 192.515C300.347 192.47 300.491 192.424 300.635 192.379C301.441 192.125 302.258 191.867 303.061 191.586C304.427 191.107 305.717 190.571 306.796 189.898C305.861 189.956 304.917 189.969 303.988 189.981C303.739 189.985 303.49 189.988 303.243 189.993C301.307 190.026 299.449 190.111 297.748 190.618C297.483 190.697 297.205 190.546 297.126 190.282ZM279.531 190.278C279.274 190.178 278.984 190.305 278.884 190.562C278.67 191.107 278.474 191.679 278.28 192.248L278.259 192.308C278.071 192.86 277.883 193.408 277.678 193.945C277.267 195.02 276.8 196.01 276.161 196.807C275.877 196.755 275.604 196.682 275.341 196.579C275.084 196.479 274.794 196.606 274.693 196.863C274.593 197.12 274.72 197.41 274.977 197.511C275.631 197.767 276.307 197.864 276.958 197.906C277.334 197.93 277.739 197.937 278.126 197.943C278.38 197.948 278.626 197.952 278.851 197.961C281.893 198.08 285.069 198.285 288.037 198.811C288.309 198.859 288.569 198.678 288.617 198.406C288.665 198.134 288.484 197.874 288.212 197.826C285.174 197.288 281.943 197.081 278.89 196.961C278.61 196.95 278.349 196.946 278.093 196.942C277.832 196.938 277.577 196.935 277.315 196.924C277.858 196.119 278.265 195.211 278.612 194.302C278.824 193.748 279.016 193.184 279.203 192.637L279.226 192.571C279.421 192 279.611 191.448 279.815 190.926C279.916 190.669 279.789 190.379 279.531 190.278ZM425.05 250.895C425.325 250.92 425.528 251.163 425.503 251.438C425.413 252.42 424.995 253.44 424.517 254.378C424.199 255.003 423.832 255.63 423.499 256.198C423.336 256.477 423.182 256.742 423.044 256.986C421.176 260.308 418.022 261.91 414.771 263.181C414.514 263.282 414.224 263.155 414.123 262.898C414.023 262.641 414.149 262.35 414.407 262.25C417.622 260.992 420.485 259.496 422.173 256.496C422.327 256.222 422.491 255.942 422.658 255.655C422.982 255.102 423.32 254.525 423.626 253.924C424.089 253.016 424.435 252.135 424.507 251.347C424.532 251.072 424.775 250.869 425.05 250.895ZM429.538 259.825C429.51 259.919 429.48 260.016 429.449 260.116C428.769 262.299 428.054 264.466 427.33 266.631C426.619 268.752 425.983 270.907 425.345 273.07L425.264 273.343C424.599 275.595 423.928 277.854 423.169 280.075C423.079 280.336 422.795 280.475 422.534 280.386C422.272 280.297 422.133 280.012 422.222 279.751C422.974 277.554 423.639 275.314 424.305 273.06L424.387 272.782C425.024 270.623 425.665 268.453 426.381 266.313C427.105 264.15 427.818 261.992 428.494 259.819C428.518 259.743 428.542 259.663 428.567 259.579C428.659 259.271 428.766 258.916 428.902 258.612C429.075 258.224 429.351 257.786 429.846 257.593C430.103 257.492 430.393 257.619 430.494 257.876C430.594 258.133 430.467 258.423 430.21 258.524C430.089 258.571 429.955 258.705 429.815 259.02C429.708 259.259 429.627 259.527 429.538 259.825ZM420.022 265.044C420.275 265.155 420.39 265.45 420.279 265.703C418.935 268.773 417.483 271.441 414.04 272.788C413.783 272.888 413.493 272.761 413.392 272.504C413.292 272.247 413.419 271.957 413.676 271.857C416.718 270.667 418.033 268.341 419.363 265.302C419.474 265.049 419.769 264.933 420.022 265.044ZM400.401 285.491C400.654 285.602 400.769 285.896 400.658 286.149C399.308 289.235 397.013 291.875 393.703 293.169C393.446 293.27 393.156 293.143 393.056 292.886C392.955 292.629 393.082 292.339 393.339 292.238C396.349 291.061 398.473 288.649 399.742 285.748C399.853 285.495 400.148 285.38 400.401 285.491ZM409.645 282.12C409.92 282.145 410.123 282.389 410.097 282.664C410.017 283.551 409.645 284.414 409.222 285.196C408.971 285.66 408.673 286.143 408.398 286.589C408.225 286.87 408.06 287.137 407.921 287.377C407.266 288.506 406.553 289.599 405.848 290.679C405.786 290.774 405.724 290.869 405.662 290.964C405.483 291.239 405.304 291.513 405.128 291.788C406.156 291.374 407.186 290.965 408.218 290.561C408.475 290.461 408.766 290.588 408.866 290.845C408.967 291.102 408.84 291.392 408.583 291.493C407.125 292.063 405.672 292.644 404.221 293.232C403.963 293.657 403.713 294.085 403.473 294.518C403.39 294.667 403.284 294.837 403.178 295.005L403.142 295.062C403.022 295.254 402.9 295.451 402.792 295.648C402.561 296.07 402.45 296.395 402.467 296.609C402.49 296.884 402.285 297.125 402.009 297.148C401.734 297.17 401.493 296.965 401.471 296.69C401.427 296.152 401.681 295.594 401.915 295.168C402.039 294.942 402.175 294.723 402.295 294.531C402.42 294.333 402.522 294.17 402.598 294.034C402.632 293.973 402.666 293.912 402.7 293.851C400.889 294.591 399.081 295.34 397.273 296.089L397.269 296.09C393.509 297.647 389.743 299.206 385.944 300.692C385.687 300.792 385.397 300.666 385.296 300.408C385.195 300.151 385.322 299.861 385.58 299.761C389.369 298.279 393.127 296.723 396.89 295.165L396.894 295.163C399.105 294.247 401.319 293.331 403.54 292.429C403.959 291.749 404.392 291.081 404.824 290.418L405.009 290.135C405.716 289.052 406.415 287.981 407.056 286.875C407.227 286.581 407.403 286.296 407.579 286.011C407.837 285.594 408.096 285.175 408.343 284.72C408.745 283.977 409.039 283.257 409.102 282.573C409.127 282.298 409.37 282.095 409.645 282.12Z" fill="#5CA58B"/>
</g>
<defs>
<clipPath id="clip0_232_707">
<rect width="450" height="288" fill="white"/>
</clipPath>
</defs>
</svg>
