<svg width="384" height="384" viewBox="0 0 384 384" fill="none" xmlns="http://www.w3.org/2000/svg">
<g clip-path="url(#clip0_232_1048)">
<rect width="384" height="384" fill="#5978B6"/>
<path d="M78.4331 260.638C79.3077 262.195 80.3908 264.248 81.327 266.169C81.9285 267.403 82.4672 268.579 82.8511 269.53C83.0432 270.006 83.1953 270.42 83.2963 270.756C83.4008 271.103 83.4393 271.33 83.4344 271.446C83.432 271.497 83.3803 271.633 83.1636 271.866C82.9607 272.085 82.6599 272.34 82.2736 272.625C81.5024 273.193 80.433 273.849 79.2376 274.535C78.0441 275.22 76.7347 275.928 75.4865 276.602C74.7661 276.99 74.0654 277.368 73.4204 277.721C76.9001 272.718 78.6588 266.73 78.4331 260.638ZM112.225 263.543C115.296 264.421 118.028 266.213 120.053 268.686L122.58 271.772C122.604 271.801 122.632 271.827 122.665 271.846C124.907 273.18 126.443 275.106 127.761 277.33C128.421 278.442 129.023 279.624 129.633 280.842C130.158 281.892 130.693 282.968 131.268 284.039L126.039 283.847C125.86 283.841 125.709 283.981 125.702 284.16C125.695 284.339 125.836 284.49 126.015 284.497L130.599 284.665C119.965 290.038 107.101 289.095 97.2754 282.135L95.0574 280.564C95.0332 280.547 95.0065 280.534 94.9788 280.524L94.8935 280.506L89.3741 280.1L91.7603 278.803C91.8589 278.749 91.9231 278.648 91.9297 278.536C91.9363 278.424 91.8844 278.316 91.7929 278.251L85.9652 274.123C85.8817 274.064 85.7743 274.047 85.6769 274.079L75.4028 277.385C75.5325 277.315 75.6635 277.245 75.7951 277.174C77.0423 276.501 78.3589 275.788 79.5608 275.099C80.7608 274.411 81.8573 273.739 82.6596 273.148C83.0598 272.853 83.3979 272.571 83.6408 272.309C83.8695 272.062 84.0714 271.775 84.0842 271.474C84.0942 271.238 84.0232 270.919 83.9177 270.569C83.8087 270.207 83.6494 269.771 83.4536 269.286C83.0617 268.315 82.5156 267.125 81.9111 265.884C81.3339 264.7 80.7012 263.465 80.0945 262.324L86.9664 270.742C87.0427 270.835 87.1651 270.879 87.2833 270.855L93.1598 269.66C93.2514 269.641 93.3308 269.584 93.3772 269.503C93.4235 269.422 93.4327 269.324 93.4023 269.235L92.7142 267.246L99.9672 268.257C100.004 268.262 100.04 268.261 100.076 268.253L100.75 268.117C100.755 268.115 100.761 268.115 100.766 268.113L100.768 268.113C100.77 268.112 100.772 268.111 100.775 268.111C100.782 268.109 100.792 268.106 100.805 268.103C100.831 268.097 100.87 268.087 100.921 268.074C101.023 268.05 101.173 268.015 101.361 267.973C101.737 267.89 102.268 267.781 102.885 267.678C104.115 267.473 105.666 267.297 107.009 267.39L116.08 269.549C116.254 269.59 116.43 269.483 116.472 269.308C116.513 269.134 116.406 268.958 116.231 268.916L107.801 266.91L112.225 263.543ZM117.034 275.418C116.987 275.245 116.81 275.142 116.636 275.189C116.433 275.243 116.238 275.4 116.065 275.614C115.886 275.834 115.703 276.146 115.531 276.567C115.186 277.408 114.871 278.714 114.719 280.673C114.563 282.698 115.187 284.138 116.052 285.109C116.909 286.069 117.989 286.555 118.739 286.708C118.915 286.744 119.087 286.63 119.123 286.455C119.159 286.279 119.045 286.107 118.869 286.071C118.241 285.943 117.291 285.521 116.538 284.676C115.792 283.84 115.224 282.575 115.368 280.723C115.516 278.806 115.822 277.572 116.133 276.814C116.288 276.435 116.441 276.182 116.57 276.024C116.704 275.858 116.791 275.82 116.804 275.816C116.978 275.769 117.08 275.592 117.034 275.418Z" fill="#9BCCD7" stroke="black" stroke-width="0.65" stroke-linecap="round" stroke-linejoin="round"/>
<circle cx="121.713" cy="276.333" r="1.45346" transform="rotate(6.43116 121.713 276.333)" fill="#FFE6A7" stroke="black" stroke-width="0.65"/>
<path d="M113.111 276.339C112.751 276.518 111.797 276.614 110.549 276.587C109.501 276.563 108.246 276.453 106.963 276.232C105.633 276.003 104.271 275.655 103.076 275.161C101.768 274.621 100.659 273.905 100.009 272.98C98.9762 271.509 98.4409 270.056 98.1683 268.857C97.781 267.153 97.9243 265.961 97.9243 265.961L110.009 274.219L113.111 276.339Z" fill="#9BCCD7"/>
<path d="M113.111 276.339C112.751 276.518 111.797 276.614 110.549 276.587C109.501 276.563 108.246 276.453 106.963 276.232C105.633 276.003 104.271 275.655 103.076 275.161C101.768 274.621 100.659 273.905 100.009 272.98M113.111 276.339L100.009 272.98M113.111 276.339L110.009 274.219M100.009 272.98C98.9762 271.509 98.4409 270.056 98.1683 268.857M98.1683 268.857C97.781 267.153 97.9243 265.961 97.9243 265.961L110.009 274.219M98.1683 268.857L110.009 274.219" stroke="black" stroke-width="0.65" stroke-linecap="round" stroke-linejoin="round"/>
<path d="M316.976 129.295C316.321 129.969 315.564 130.779 314.88 131.554C314.352 132.153 313.869 132.727 313.509 133.198C313.328 133.433 313.182 133.639 313.076 133.807C312.964 133.985 312.918 134.09 312.908 134.131C312.913 134.109 312.9 134.155 312.983 134.317C313.058 134.46 313.181 134.642 313.351 134.859C313.691 135.292 314.186 135.822 314.75 136.392C315.313 136.96 315.937 137.56 316.533 138.132C316.734 138.325 316.932 138.514 317.123 138.698C316.163 135.643 316.111 132.379 316.976 129.295ZM297.767 125.333C295.957 125.362 294.197 125.934 292.717 126.98L290.819 128.321C290.788 128.342 290.753 128.359 290.717 128.369C289.281 128.762 288.139 129.589 287.062 130.625C286.523 131.144 286.005 131.711 285.474 132.3C285.067 132.751 284.653 133.216 284.22 133.674L286.956 134.323C287.13 134.364 287.239 134.54 287.197 134.714C287.156 134.889 286.98 134.997 286.806 134.955L284.735 134.464C289.814 138.813 296.92 140.134 303.298 137.829L304.788 137.291C304.816 137.281 304.844 137.275 304.873 137.273L304.961 137.278L307.672 137.817L306.864 137.038C306.783 136.96 306.749 136.846 306.772 136.737C306.796 136.627 306.874 136.537 306.979 136.499L310.893 135.084C310.965 135.058 311.044 135.059 311.115 135.084L311.182 135.118L315.222 137.77C314.903 137.461 314.587 137.151 314.288 136.85C313.72 136.276 313.204 135.724 312.84 135.261C312.659 135.03 312.507 134.812 312.406 134.616C312.314 134.439 312.223 134.208 312.274 133.985C312.311 133.828 312.412 133.642 312.526 133.461C312.646 133.27 312.806 133.046 312.993 132.803C313.366 132.315 313.86 131.728 314.393 131.124C314.615 130.872 314.846 130.618 315.078 130.364L310.98 133.268C310.882 133.338 310.752 133.347 310.645 133.293L307.53 131.71C307.446 131.668 307.385 131.591 307.362 131.5C307.339 131.409 307.356 131.313 307.409 131.235L307.979 130.408L303.969 129.879C303.932 129.875 303.896 129.864 303.864 129.847L303.507 129.666C303.502 129.663 303.497 129.66 303.492 129.657L303.491 129.656C303.49 129.656 303.489 129.655 303.487 129.655C303.484 129.653 303.479 129.65 303.472 129.646C303.459 129.638 303.439 129.627 303.413 129.613C303.36 129.584 303.282 129.541 303.184 129.489C302.987 129.385 302.708 129.242 302.38 129.09C301.726 128.786 300.896 128.453 300.145 128.3L294.731 128.106C294.551 128.099 294.412 127.948 294.418 127.769C294.424 127.59 294.575 127.449 294.754 127.456L299.513 127.626L297.767 125.333ZM293.172 131.05C293.263 130.895 293.463 130.843 293.618 130.934C293.759 131.018 293.858 131.165 293.927 131.324C294 131.491 294.058 131.709 294.09 131.981C294.155 132.525 294.127 133.323 293.907 134.454C293.673 135.651 293.079 136.396 292.41 136.827C291.753 137.251 291.041 137.362 290.57 137.329C290.392 137.317 290.256 137.162 290.268 136.983C290.281 136.804 290.436 136.669 290.615 136.681C290.961 136.705 291.532 136.621 292.059 136.28C292.575 135.947 293.069 135.357 293.269 134.33C293.481 133.238 293.5 132.513 293.445 132.058C293.418 131.83 293.373 131.678 293.332 131.584C293.288 131.482 293.26 131.478 293.288 131.494C293.133 131.403 293.082 131.204 293.172 131.05Z" fill="#9BCCD7" stroke="black" stroke-width="0.65" stroke-linecap="round" stroke-linejoin="round"/>
<circle cx="1.03623" cy="1.03623" r="0.711227" transform="matrix(-0.98765 -0.156676 -0.156676 0.98765 291.707 130.046)" fill="#FFE6A7" stroke="black" stroke-width="0.65"/>
<path d="M295.351 132.245C295.525 132.401 296.046 132.603 296.752 132.781C297.344 132.931 298.065 133.064 298.82 133.139C299.603 133.217 300.421 133.232 301.169 133.14C301.988 133.04 302.722 132.81 303.23 132.391C304.039 131.726 304.565 130.993 304.904 130.362C305.386 129.465 305.49 128.773 305.49 128.773L297.422 131.536L295.351 132.245Z" fill="#9BCCD7"/>
<path d="M295.351 132.245C295.525 132.401 296.046 132.603 296.752 132.781C297.344 132.931 298.065 133.064 298.82 133.139C299.603 133.217 300.421 133.232 301.169 133.14C301.988 133.04 302.722 132.81 303.23 132.391M295.351 132.245L303.23 132.391M295.351 132.245L297.422 131.536M303.23 132.391C304.039 131.726 304.565 130.993 304.904 130.362M304.904 130.362C305.386 129.465 305.49 128.773 305.49 128.773L297.422 131.536M304.904 130.362L297.422 131.536" stroke="black" stroke-width="0.65" stroke-linecap="round" stroke-linejoin="round"/>
<ellipse cx="92.0017" cy="40.4999" rx="82" ry="25.5" transform="rotate(-16.0319 92.0017 40.4999)" fill="#7094D9" fill-opacity="0.56"/>
<ellipse cx="223.492" cy="29.9295" rx="52.0466" ry="16.1852" transform="rotate(-16.0319 223.492 29.9295)" fill="#6688CA"/>
<ellipse cx="143.685" cy="68.8536" rx="29.3081" ry="9.11411" transform="rotate(-16.0319 143.685 68.8536)" fill="#799EE7" fill-opacity="0.31"/>
<ellipse cx="260.685" cy="60.8536" rx="29.3081" ry="9.11411" transform="rotate(-16.0319 260.685 60.8536)" fill="#799EE7" fill-opacity="0.31"/>
<ellipse cx="28.9507" cy="15.7761" rx="26.2186" ry="8.15336" transform="rotate(-16.0319 28.9507 15.7761)" fill="#799EE7" fill-opacity="0.47"/>
<ellipse cx="335.492" cy="27.9295" rx="52.0466" ry="16.1852" transform="rotate(-16.0319 335.492 27.9295)" fill="#799EE7" fill-opacity="0.47"/>
<path d="M313.022 62.374C340.649 54.4356 365.046 54.9654 367.515 63.5566C367.848 64.717 367.761 65.9639 367.299 67.2744L330.5 392.5H189L267.372 91.9053C265.628 83.303 285.819 70.1907 313.022 62.374Z" fill="#799EE7" fill-opacity="0.47"/>
<path d="M176.022 74.374C203.649 66.4356 228.046 66.9654 230.515 75.5566C231.017 77.3057 230.571 79.2535 229.311 81.3145L136 395H-5.5L130.275 103.132C129.827 94.5334 149.623 81.96 176.022 74.374Z" fill="#799EE7" fill-opacity="0.47"/>
<path d="M-61 411.5H-202.5L30 106.5L113 96L-61 411.5Z" fill="#799EE7" fill-opacity="0.47"/>
<ellipse cx="317.492" cy="77.93" rx="52.0466" ry="16.1852" transform="rotate(-16.0319 317.492 77.93)" fill="#799EE7" fill-opacity="0.47"/>
<ellipse cx="180.492" cy="89.93" rx="52.0466" ry="16.1852" transform="rotate(-16.0319 180.492 89.93)" fill="#799EE7" fill-opacity="0.29"/>
<ellipse cx="69.7379" cy="98.2361" rx="43.6463" ry="13.716" transform="rotate(-14.6153 69.7379 98.2361)" fill="#7595D6"/>
<path d="M131 57.069L131.329 56.6926L130.664 56.1105L130.508 56.9809L131 57.069ZM259 23L259.388 22.6844L258.797 21.9588L258.522 22.853L259 23ZM366.5 38.5L366.64 38.98L366.64 38.98L366.5 38.5ZM20 118.5L20.3153 118.112L19.6042 117.534L19.5031 118.445L20 118.5ZM75 389.5L74.5036 389.56L74.6042 390.396L75.2901 389.907L75 389.5ZM74.5 154.922L74.0794 155.192L74.5 154.922ZM68.0528 173.724C68.1763 173.971 68.4766 174.071 68.7236 173.947C68.9706 173.824 69.0707 173.523 68.9472 173.276L68.5 173.5L68.0528 173.724ZM77.3787 180.015C77.1108 180.082 76.948 180.353 77.0149 180.621C77.0819 180.889 77.3534 181.052 77.6213 180.985L77.5 180.5L77.3787 180.015ZM85.2495 167.067C85.0105 167.206 84.9289 167.512 85.0673 167.751C85.2056 167.989 85.5115 168.071 85.7505 167.933L85.5 167.5L85.2495 167.067ZM99.5 180C99.2239 180 99 180.224 99 180.5C99 180.776 99.2239 181 99.5 181V180.5V180ZM166 388.5H165.5V389.101L166.091 388.992L166 388.5ZM45 145.5V145H44.8535L44.7302 145.079L45 145.5ZM81 132.876L80.853 132.398L81 132.876ZM128.743 103.5L128.496 103.065L128.437 103.099L128.389 103.146L128.743 103.5ZM152.528 90L152.615 89.5078L152.438 89.4761L152.281 89.5652L152.528 90ZM54 160.249L53.7104 159.842L53.6922 159.855L53.6752 159.869L54 160.249ZM83.6691 153.5L83.4982 153.03L83.4982 153.03L83.6691 153.5ZM132.641 130.5L132.363 130.084L132.339 130.1L132.317 130.119L132.641 130.5ZM161.156 111.5L161.139 111L160.997 111.005L160.878 111.084L161.156 111.5ZM207 110L207.122 110.485L207.169 110.473L207.212 110.453L207 110ZM33 326L33.4986 325.962C33.4975 325.948 33.4957 325.933 33.4932 325.918L33 326ZM49 394L49.1669 394.471C49.2627 394.437 49.3459 394.375 49.4053 394.293L49 394ZM8.89892 162.455C8.87415 162.18 8.63111 161.977 8.35608 162.002C8.08105 162.027 7.87818 162.27 7.90296 162.545L8.40094 162.5L8.89892 162.455ZM14 218L13.5036 218.06C13.5045 218.067 13.5056 218.075 13.5068 218.082L14 218ZM25 402.5L24.5126 402.612C24.5445 402.751 24.6342 402.869 24.7591 402.938C24.8841 403.007 25.0325 403.019 25.1669 402.971L25 402.5ZM184.5 130.719L184.993 130.634L184.991 130.623L184.989 130.613L184.5 130.719ZM105.393 167.004C105.119 167.038 104.925 167.288 104.959 167.562C104.994 167.836 105.243 168.03 105.517 167.996L105.455 167.5L105.393 167.004ZM151.983 75.3705C151.911 75.1038 151.637 74.9455 151.37 75.0171C151.104 75.0886 150.946 75.3628 151.017 75.6295L151.5 75.5L151.983 75.3705ZM162.5 163.5L162.005 163.429C161.998 163.48 161.998 163.531 162.007 163.582L162.5 163.5ZM296.56 394.737C296.691 394.98 296.994 395.071 297.237 394.94C297.48 394.809 297.571 394.506 297.44 394.263L297 394.5L296.56 394.737ZM172.989 75.3938C172.93 75.124 172.664 74.9528 172.394 75.0114C172.124 75.07 171.953 75.3363 172.011 75.6062L172.5 75.5L172.989 75.3938ZM190 162.308L189.507 162.394C189.519 162.458 189.542 162.519 189.576 162.574L190 162.308ZM383.143 412.35C383.337 412.547 383.653 412.55 383.85 412.357C384.047 412.163 384.05 411.847 383.857 411.65L383.5 412L383.143 412.35ZM412.271 374.944C412.516 375.071 412.818 374.975 412.944 374.729C413.071 374.484 412.975 374.182 412.729 374.056L412.5 374.5L412.271 374.944ZM396.442 326.997C396.717 327.029 396.965 326.832 396.997 326.558C397.029 326.283 396.832 326.035 396.558 326.003L396.5 326.5L396.442 326.997ZM323.18 215.384C323.392 215.561 323.707 215.532 323.884 215.32C324.061 215.108 324.032 214.793 323.82 214.616L323.5 215L323.18 215.384ZM304 210.5L304.192 210.038C304.154 210.023 304.114 210.011 304.073 210.005L304 210.5ZM390.7 308.9C390.921 309.066 391.234 309.021 391.4 308.8C391.566 308.579 391.521 308.266 391.3 308.1L391 308.5L390.7 308.9ZM331.833 194.981C332.093 195.073 332.379 194.937 332.471 194.676C332.563 194.416 332.427 194.13 332.167 194.038L332 194.509L331.833 194.981ZM390.736 262.424C390.97 262.57 391.279 262.499 391.424 262.264C391.57 262.03 391.499 261.721 391.264 261.576L391 262L390.736 262.424ZM-10.4834 313.372C-10.554 313.639 -10.3948 313.913 -10.1279 313.983C-9.86092 314.054 -9.58726 313.895 -9.51663 313.628L-10 313.5L-10.4834 313.372ZM388.224 224.917C388.454 225.069 388.765 225.006 388.917 224.776C389.069 224.546 389.006 224.235 388.776 224.083L388.5 224.5L388.224 224.917ZM390.668 242.874C390.874 243.057 391.19 243.039 391.374 242.832C391.557 242.626 391.539 242.31 391.332 242.126L391 242.5L390.668 242.874ZM342 42.1037L341.962 41.6052L342 42.1037ZM-4.68741 180.5L-5.0514 180.157L-4.68741 180.5ZM-16.5794 195.5L-16.9712 195.189C-17.0747 195.32 -17.1064 195.493 -17.0558 195.652L-16.5794 195.5ZM3.2086 394.453C3.4587 394.57 3.75635 394.462 3.87341 394.212C3.99047 393.962 3.88263 393.664 3.63252 393.547L3.42056 394L3.2086 394.453ZM-14.401 326.201C-14.5659 326.423 -14.5202 326.736 -14.2987 326.901C-14.0773 327.066 -13.764 327.02 -13.599 326.799L-14 326.5L-14.401 326.201ZM-10.427 348.74C-10.5707 348.976 -10.4959 349.283 -10.2601 349.427C-10.0242 349.571 -9.71659 349.496 -9.57296 349.26L-10 349L-10.427 348.74ZM-10.3669 368.16C-10.5545 368.363 -10.5423 368.679 -10.3397 368.867C-10.1371 369.054 -9.82074 369.042 -9.63313 368.84L-10 368.5L-10.3669 368.16ZM388.255 277.936C388.495 278.071 388.8 277.986 388.936 277.745C389.071 277.505 388.986 277.2 388.745 277.064L388.5 277.5L388.255 277.936ZM-5.79809 386.957C-5.54546 386.846 -5.43107 386.551 -5.54258 386.298C-5.65409 386.045 -5.94929 385.931 -6.20191 386.043L-6 386.5L-5.79809 386.957ZM-9.39815 388L-9.8835 387.88C-9.94086 388.112 -9.82635 388.352 -9.61011 388.453L-9.39815 388ZM400.898 286.489C401.168 286.546 401.433 286.373 401.489 286.102C401.546 285.832 401.373 285.567 401.102 285.511L401 286L400.898 286.489ZM394 344L394.037 344.499C394.258 344.482 394.441 344.323 394.488 344.107C394.536 343.891 394.436 343.67 394.243 343.563L394 344ZM78.9016 232L79.3984 232.057L78.9016 232ZM384 257.642L383.685 258.031C383.701 258.044 383.718 258.056 383.736 258.067L384 257.642ZM334.393 221.191C334.223 220.974 333.909 220.936 333.691 221.107C333.474 221.277 333.436 221.591 333.607 221.809L334 221.5L334.393 221.191ZM222.815 111.112C222.601 110.938 222.286 110.97 222.112 111.185C221.938 111.399 221.97 111.714 222.185 111.888L222.5 111.5L222.815 111.112ZM120.5 146.343C120.224 146.343 120 146.567 120 146.843C120 147.119 120.224 147.343 120.5 147.343V146.843V146.343ZM63.9828 167.63C64.0546 167.363 63.8966 167.089 63.63 167.017C63.3633 166.945 63.089 167.103 63.0172 167.37L63.5 167.5L63.9828 167.63ZM307.051 194.73C307.173 194.978 307.473 195.08 307.72 194.958C307.968 194.836 308.071 194.537 307.949 194.289L307.5 194.509L307.051 194.73ZM340.571 217.257C340.713 217.494 341.02 217.571 341.257 217.429C341.494 217.287 341.571 216.98 341.429 216.743L341 217L340.571 217.257ZM58.2283 319.618C58.0175 319.44 57.702 319.466 57.5237 319.677C57.3454 319.888 57.3717 320.203 57.5826 320.382L57.9054 320L58.2283 319.618ZM42.8456 317.935C42.8352 318.211 43.0506 318.443 43.3265 318.453C43.6024 318.463 43.8345 318.248 43.8449 317.972L43.3452 317.953L42.8456 317.935ZM54.4792 342.376C54.4005 342.111 54.1221 341.961 53.8574 342.039C53.5927 342.118 53.442 342.397 53.5208 342.661L54 342.519L54.4792 342.376ZM39.647 335.522C39.3831 335.441 39.1033 335.589 39.0221 335.853C38.9409 336.117 39.089 336.397 39.353 336.478L39.5 336L39.647 335.522ZM26 347.5C25.7239 347.5 25.5 347.724 25.5 348C25.5 348.276 25.7239 348.5 26 348.5V348V347.5ZM245.132 276.066L244.848 276.478C244.924 276.53 245.012 276.56 245.103 276.565L245.132 276.066ZM262.78 295.086C262.551 294.931 262.241 294.991 262.086 295.22C261.931 295.449 261.991 295.759 262.22 295.914L262.5 295.5L262.78 295.086ZM239.558 313.503C239.283 313.471 239.035 313.668 239.003 313.942C238.971 314.217 239.168 314.465 239.442 314.497L239.5 314L239.558 313.503ZM228.579 297.5C228.579 297.224 228.355 297 228.079 297C227.803 297 227.579 297.224 227.579 297.5H228.079H228.579ZM189.682 285.615C189.469 285.79 189.439 286.106 189.615 286.318C189.79 286.531 190.106 286.561 190.318 286.385L190 286L189.682 285.615ZM214.567 277.005C214.294 276.967 214.042 277.159 214.005 277.433C213.967 277.706 214.159 277.958 214.433 277.995L214.5 277.5L214.567 277.005ZM230.329 107.53C230.07 107.624 229.936 107.911 230.03 108.171C230.124 108.43 230.411 108.564 230.671 108.47L230.5 108L230.329 107.53ZM201.024 119.654C201.109 119.916 201.391 120.061 201.654 119.976C201.916 119.891 202.061 119.609 201.976 119.346L201.5 119.5L201.024 119.654ZM195.488 126.392C195.428 126.122 195.161 125.952 194.892 126.012C194.622 126.072 194.452 126.339 194.512 126.608L195 126.5L195.488 126.392ZM339.244 228.188L338.851 228.497L339.244 228.188ZM107.567 143.308L107.083 143.431L107.567 143.308ZM107.425 144.113L107.017 143.824L107.425 144.113ZM-17 159.5L-16.6009 159.801C8.99643 125.893 63.2315 70.4574 200.422 36.085L200.3 35.6L200.178 35.115C62.7685 69.5426 8.3369 125.107 -17.3991 159.199L-17 159.5ZM200.3 35.6L200.422 36.085C269.042 18.8923 320.151 12.2039 356.128 8.39722C374.106 6.49494 388.339 5.30919 399.069 3.89257C404.437 3.18379 408.949 2.41479 412.632 1.46421C416.31 0.514849 419.195 -0.623949 421.287 -2.09058L421 -2.5L420.713 -2.90942C418.763 -1.54272 416.011 -0.440891 412.382 0.495945C408.757 1.43157 404.291 2.19433 398.938 2.90118C388.223 4.3158 374.036 5.49672 356.022 7.40277C320.015 11.2128 268.858 17.9077 200.178 35.115L200.3 35.6ZM131 57.069L130.671 57.4453L151.171 75.3763L151.5 75L151.829 74.6237L131.329 56.6926L131 57.069ZM151.5 75L151.55 75.4975C154.008 75.2517 156.849 75.3333 160.209 75.5008C163.56 75.6679 167.418 75.9196 171.866 76.0038C180.772 76.1724 192.062 75.6702 206.607 72.4885L206.5 72L206.393 71.5115C191.938 74.6735 180.728 75.1714 171.884 75.004C167.457 74.9202 163.627 74.67 160.259 74.5021C156.901 74.3347 153.992 74.2483 151.45 74.5025L151.5 75ZM251 49L251.478 49.147L259.478 23.147L259 23L258.522 22.853L250.522 48.853L251 49ZM259 23L258.612 23.3156L276.112 44.8156L276.5 44.5L276.888 44.1844L259.388 22.6844L259 23ZM366.5 38.5L366.64 38.98C376.277 36.1691 382.826 32.9835 387.103 30.1283C389.241 28.7008 390.815 27.353 391.924 26.1719C393.026 24.9975 393.689 23.9658 393.971 23.1664L393.5 23L393.029 22.8336C392.811 23.4509 392.249 24.365 391.195 25.4875C390.147 26.6033 388.634 27.9033 386.547 29.2967C382.374 32.0832 375.923 35.2309 366.36 38.02L366.5 38.5ZM131 57.069L130.508 56.9809L125.508 84.9119L126 85L126.492 85.0881L131.492 57.1571L131 57.069ZM126 85L125.663 84.631C122.788 87.2592 116.482 91.4345 108.402 96.3734C100.338 101.303 90.5514 106.966 80.7519 112.566L81 113L81.2481 113.434C91.0486 107.834 100.846 102.164 108.923 97.2266C116.985 92.2989 123.379 88.0741 126.337 85.369L126 85ZM81 113L80.7519 112.566C70.9736 118.154 60.9949 122.81 52.8405 126.048C48.7631 127.667 45.1472 128.929 42.2445 129.775C39.3201 130.627 37.1777 131.039 36.0167 131L36 131.5L35.9833 132C37.3223 132.044 39.6049 131.586 42.5243 130.735C45.4653 129.878 49.1119 128.604 53.2095 126.977C61.4051 123.723 71.4264 119.046 81.2481 113.434L81 113ZM36 131.5L36.3153 131.112L20.3153 118.112L20 118.5L19.6847 118.888L35.6847 131.888L36 131.5ZM20 118.5L19.5031 118.445L16.5031 145.445L17 145.5L17.4969 145.555L20.4969 118.555L20 118.5ZM17 145.5L17.2966 145.903L36.2966 131.903L36 131.5L35.7034 131.097L16.7034 145.097L17 145.5ZM126 85L126.183 85.4655L151.683 75.4655L151.5 75L151.317 74.5345L125.817 84.5345L126 85ZM251 49L251.087 49.4924L276.587 44.9924L276.5 44.5L276.413 44.0076L250.913 48.5076L251 49ZM35 130.5L34.5818 130.774C44.1293 145.347 55.031 155.219 59.5076 180.587L60 180.5L60.4924 180.413C55.969 154.781 44.8707 144.653 35.4182 130.226L35 130.5ZM60 180.5H59.5C59.5 183.309 60.0752 186.081 60.7902 189.808C61.5076 193.548 62.3792 198.306 63.0021 205.15L63.5 205.105L63.9979 205.06C63.3708 198.168 62.4924 193.374 61.7723 189.62C61.0498 185.854 60.5 183.191 60.5 180.5H60ZM126 84.5L125.505 84.5714L134.505 146.914L135 146.843L135.495 146.771L126.495 84.4286L126 84.5ZM135 146.843L134.521 146.985C135.468 150.181 134.362 153.892 133.078 157.588C132.446 159.408 131.773 161.224 131.338 162.902C130.904 164.578 130.685 166.193 131.013 167.612L131.5 167.5L131.987 167.388C131.715 166.207 131.884 164.784 132.306 163.153C132.727 161.526 133.379 159.768 134.022 157.916C135.288 154.272 136.532 150.253 135.479 146.701L135 146.843ZM131.5 167.5L131.013 167.612C131.605 170.179 132.058 174.797 132.579 178.95C132.837 181.011 133.112 182.953 133.43 184.437C133.588 185.178 133.761 185.823 133.955 186.318C134.051 186.566 134.159 186.791 134.282 186.977C134.402 187.157 134.561 187.339 134.776 187.447L135 187L135.224 186.553C135.231 186.556 135.19 186.536 135.116 186.425C135.046 186.319 134.968 186.165 134.886 185.954C134.721 185.533 134.562 184.949 134.408 184.228C134.1 182.79 133.829 180.885 133.571 178.825C133.058 174.737 132.595 170.021 131.987 167.388L131.5 167.5ZM208 314L207.517 314.129L217.017 349.629L217.5 349.5L217.983 349.371L208.483 313.871L208 314ZM60 123.585L59.5409 123.783C61.3653 128.012 63.8156 134.029 66.3865 139.872C68.9591 145.719 71.6813 151.462 74.0794 155.192L74.5 154.922L74.9206 154.651C72.5699 150.995 69.8754 145.319 67.3019 139.469C64.7266 133.616 62.3013 127.657 60.4591 123.387L60 123.585ZM74.5 154.922L74.0794 155.192C75.1152 156.803 75.2736 158.635 74.9 160.541C74.5248 162.454 73.6181 164.408 72.5681 166.209C71.5196 168.007 70.3465 169.623 69.4531 170.868C69.0109 171.485 68.628 172.023 68.3724 172.441C68.2457 172.648 68.1367 172.846 68.0682 173.023C68.034 173.111 68.0025 173.212 67.9896 173.318C67.9772 173.421 67.9769 173.572 68.0528 173.724L68.5 173.5L68.9472 173.276C68.9919 173.366 68.9828 173.435 68.9824 173.439C68.9815 173.446 68.9828 173.43 69.0006 173.384C69.0362 173.292 69.1079 173.154 69.2252 172.963C69.4579 172.583 69.8173 172.076 70.2657 171.451C71.1535 170.213 72.3554 168.559 73.4319 166.713C74.5069 164.869 75.4752 162.804 75.8813 160.733C76.2889 158.655 76.1348 156.54 74.9206 154.651L74.5 154.922ZM77.5 180.5L77.6213 180.985C81.4378 180.031 85.1728 181.335 88.2557 183.061C89.7916 183.921 91.1473 184.876 92.2514 185.685C92.7974 186.084 93.297 186.46 93.7097 186.757C94.1192 187.052 94.4855 187.302 94.7764 187.447L95 187L95.2236 186.553C95.0145 186.448 94.7089 186.245 94.2942 185.946C93.8827 185.649 93.4057 185.291 92.8423 184.878C91.7277 184.062 90.3334 183.079 88.7443 182.189C85.5772 180.415 81.5622 178.969 77.3787 180.015L77.5 180.5ZM97.445 103.5L96.9604 103.623L107.083 143.431L107.567 143.308L108.052 143.184L97.9295 103.377L97.445 103.5ZM99.5 180.5V181C101.418 181 102.791 181.448 103.81 182.094C104.833 182.742 105.534 183.612 106.071 184.507C106.626 185.432 106.961 186.291 107.352 187.056C107.535 187.415 107.737 187.761 107.982 188.021C108.236 188.291 108.57 188.5 109 188.5V188V187.5C108.93 187.5 108.842 187.475 108.709 187.335C108.567 187.184 108.418 186.944 108.242 186.601C107.914 185.959 107.499 184.943 106.929 183.993C106.341 183.013 105.542 182.008 104.346 181.25C103.146 180.489 101.582 180 99.5 180V180.5ZM107.425 144.113L107.017 143.824C106.102 145.114 102.807 149.687 98.6578 154.564C94.4951 159.456 89.5216 164.594 85.2495 167.067L85.5 167.5L85.7505 167.933C90.1861 165.365 95.2561 160.105 99.4194 155.212C103.596 150.304 106.91 145.704 107.832 144.402L107.425 144.113ZM26.2816 157.5L26.5514 157.921L45.2698 145.921L45 145.5L44.7302 145.079L26.0117 157.079L26.2816 157.5ZM45 145.5V146C46.8334 146 49.2331 145.432 51.958 144.549C54.6944 143.663 57.8074 142.442 61.0827 141.106C67.6494 138.428 74.8668 135.286 81.147 133.353L81 132.876L80.853 132.398C74.5169 134.347 67.2343 137.517 60.7051 140.181C57.4324 141.515 54.3485 142.723 51.6499 143.598C48.9399 144.475 46.6666 145 45 145V145.5ZM81 132.876L81.147 133.353C84.4504 132.337 88.9103 130.166 93.766 127.457C98.6301 124.742 103.921 121.47 108.894 118.232C113.868 114.993 118.53 111.786 122.137 109.199C125.726 106.626 128.311 104.639 129.096 103.854L128.743 103.5L128.389 103.146C127.675 103.861 125.167 105.796 121.554 108.387C117.959 110.964 113.31 114.163 108.349 117.394C103.387 120.624 98.1164 123.884 93.2787 126.583C88.4326 129.288 84.0496 131.414 80.853 132.398L81 132.876ZM128.743 103.5L128.99 103.935L152.774 90.4348L152.528 90L152.281 89.5652L128.496 103.065L128.743 103.5ZM152.528 90L152.44 90.4922C157.138 91.3312 166.782 92.3327 177.25 92.6248C187.71 92.9167 199.052 92.5024 207.121 90.4851L207 90L206.879 89.5149C198.948 91.4976 187.72 91.9166 177.278 91.6252C166.843 91.334 157.251 90.3355 152.615 89.5078L152.528 90ZM251.5 69.5L251.568 69.9954L277.068 66.4954L277 66L276.932 65.5046L251.432 69.0046L251.5 69.5ZM349.5 76.5V77C361.583 77 374.146 73.7293 384.927 69.6552C395.71 65.5802 404.742 60.6891 409.772 57.4192L409.5 57L409.228 56.5808C404.258 59.8109 395.29 64.6698 384.573 68.7198C373.854 72.7707 361.417 76 349.5 76V76.5ZM32.6408 178.5L32.9656 178.88L54.3248 160.63L54 160.249L53.6752 159.869L32.316 178.12L32.6408 178.5ZM54 160.249L54.2896 160.657C58.9285 157.361 64.4758 156.323 69.8065 155.801C71.1371 155.671 72.4498 155.573 73.7301 155.479C75.0082 155.386 76.2562 155.296 77.4474 155.183C79.8236 154.957 82.0173 154.633 83.8399 153.97L83.6691 153.5L83.4982 153.03C81.8018 153.647 79.7148 153.963 77.3527 154.187C76.1747 154.3 74.939 154.388 73.6571 154.482C72.3773 154.576 71.0534 154.674 69.709 154.806C64.3397 155.331 58.5715 156.388 53.7104 159.842L54 160.249ZM83.6691 153.5L83.8399 153.97C87.0835 152.79 97.1279 148.911 107.468 144.389C112.638 142.127 117.888 139.702 122.401 137.371C126.904 135.046 130.709 132.796 132.964 130.881L132.641 130.5L132.317 130.119C130.156 131.954 126.44 134.16 121.942 136.483C117.456 138.8 112.227 141.215 107.067 143.472C96.7469 147.987 86.7222 151.858 83.4982 153.03L83.6691 153.5ZM132.641 130.5L132.918 130.916L161.433 111.916L161.156 111.5L160.878 111.084L132.363 130.084L132.641 130.5ZM161.156 111.5L161.172 112L207.016 110.5L207 110L206.984 109.5L161.139 111L161.156 111.5ZM251.5 88.5L251.606 88.9887L281.606 82.4887L281.5 82L281.394 81.5113L251.394 88.0113L251.5 88.5ZM345.5 105L345.418 105.493C369.447 109.498 391.141 110.5 399 110.5V110V109.5C391.192 109.5 369.553 108.502 345.582 104.507L345.5 105ZM43.3452 351L42.8495 351.065L48.5043 394.065L49 394L49.4957 393.935L43.841 350.935L43.3452 351ZM211.5 132.876L211.808 133.269L230.808 118.394L230.5 118L230.192 117.606L211.192 132.482L211.5 132.876ZM241 145.5L240.7 145.1C236.037 148.597 224.659 156.253 216.342 159.026L216.5 159.5L216.658 159.974C225.141 157.147 236.629 149.403 241.3 145.9L241 145.5ZM216.5 159.5L216.342 159.026C214.307 159.704 209.897 160.301 203.879 160.871C197.885 161.439 190.363 161.976 182.151 162.551C165.735 163.701 146.567 165.002 131.434 167.004L131.5 167.5L131.566 167.996C146.661 165.998 165.793 164.699 182.221 163.549C190.43 162.974 197.965 162.436 203.973 161.867C209.957 161.299 214.493 160.696 216.658 159.974L216.5 159.5ZM60 180.5L59.6645 180.129L38.6645 199.129L39 199.5L39.3355 199.871L60.3355 180.871L60 180.5ZM131.5 167.5C131.536 167.001 131.536 167.001 131.536 167.001C131.535 167.001 131.535 167.001 131.535 167.001C131.534 167.001 131.534 167.001 131.533 167.001C131.53 167.001 131.527 167.001 131.523 167C131.515 167 131.503 166.999 131.487 166.998C131.455 166.996 131.408 166.992 131.346 166.988C131.222 166.98 131.038 166.967 130.802 166.952C130.33 166.922 129.645 166.88 128.793 166.834C127.09 166.741 124.72 166.629 122.052 166.555C116.725 166.406 110.181 166.405 105.393 167.004L105.455 167.5L105.517 167.996C110.224 167.408 116.702 167.406 122.024 167.555C124.681 167.629 127.042 167.74 128.738 167.832C129.587 167.879 130.269 167.92 130.738 167.95C130.973 167.965 131.155 167.977 131.278 167.986C131.339 167.99 131.386 167.993 131.417 167.995C131.433 167.997 131.445 167.997 131.453 167.998C131.457 167.998 131.459 167.998 131.461 167.999C131.462 167.999 131.463 167.999 131.464 167.999C131.464 167.999 131.464 167.999 131.464 167.999C131.464 167.999 131.464 167.999 131.5 167.5ZM151.5 75.5L151.017 75.6295L166.406 133.005L166.889 132.876L167.372 132.746L151.983 75.3705L151.5 75.5ZM166.889 132.876L166.394 132.805L162.005 163.429L162.5 163.5L162.995 163.571L167.384 132.946L166.889 132.876ZM172.5 75.5L172.011 75.6062L184.011 130.826L184.5 130.719L184.989 130.613L172.989 75.3938L172.5 75.5ZM184.5 130.719L184.007 130.805L189.507 162.394L190 162.308L190.493 162.223L184.993 130.634L184.5 130.719ZM270 277.5C269.555 277.727 269.555 277.727 269.555 277.727C269.555 277.727 269.555 277.728 269.555 277.728C269.555 277.729 269.556 277.73 269.556 277.731C269.558 277.733 269.56 277.737 269.562 277.742C269.567 277.752 269.575 277.767 269.585 277.787C269.605 277.827 269.636 277.886 269.675 277.964C269.754 278.12 269.871 278.349 270.02 278.645C270.32 279.236 270.751 280.091 271.282 281.147C272.342 283.26 273.796 286.175 275.369 289.389C278.517 295.822 282.134 303.431 284.036 308.186L284.5 308L284.964 307.814C283.047 303.02 279.414 295.379 276.267 288.95C274.692 285.732 273.237 282.813 272.175 280.699C271.645 279.641 271.212 278.785 270.912 278.193C270.763 277.897 270.646 277.667 270.567 277.511C270.527 277.433 270.497 277.374 270.476 277.334C270.466 277.314 270.458 277.298 270.453 277.288C270.451 277.283 270.449 277.279 270.447 277.277C270.447 277.276 270.446 277.275 270.446 277.274C270.446 277.274 270.446 277.273 270.446 277.273C270.446 277.273 270.445 277.273 270 277.5ZM284.5 308L284.036 308.186C286.071 313.274 291 319.581 295.374 324.579C297.568 327.087 299.637 329.281 301.157 330.848C301.917 331.632 302.54 332.259 302.973 332.69C303.19 332.906 303.36 333.073 303.475 333.186C303.533 333.243 303.577 333.286 303.607 333.315C303.621 333.329 303.633 333.34 303.64 333.348C303.644 333.352 303.647 333.354 303.649 333.356C303.65 333.357 303.651 333.358 303.651 333.358C303.652 333.359 303.652 333.359 303.652 333.359C303.652 333.359 303.652 333.359 304 333C304.348 332.641 304.348 332.641 304.348 332.641C304.347 332.64 304.347 332.64 304.347 332.64C304.347 332.64 304.346 332.639 304.345 332.638C304.343 332.637 304.341 332.634 304.337 332.63C304.33 332.623 304.319 332.613 304.304 332.599C304.275 332.57 304.232 332.528 304.175 332.472C304.061 332.361 303.894 332.196 303.679 331.982C303.249 331.554 302.63 330.931 301.875 330.152C300.363 328.594 298.307 326.413 296.126 323.921C291.75 318.919 286.929 312.726 284.964 307.814L284.5 308ZM135 146.843L135.201 147.301L167.089 133.333L166.889 132.876L166.688 132.418L134.799 146.385L135 146.843ZM166.889 132.876L166.95 133.372L184.561 131.216L184.5 130.719L184.439 130.223L166.828 132.379L166.889 132.876ZM206.5 72L206 72.0139L206.5 90.0139L207 90L207.5 89.9861L207 71.9861L206.5 72ZM207 110H207.5V90H207H206.5V110H207ZM211.5 132.876L211.009 132.968L216.009 159.592L216.5 159.5L216.991 159.408L211.991 132.783L211.5 132.876ZM315.5 308L315.153 308.36L329.153 321.86L329.5 321.5L329.847 321.14L315.847 307.64L315.5 308ZM206.5 72L206.607 72.4885C217.22 70.1668 224.869 67.1551 230.736 64.0061L230.5 63.5655L230.264 63.1249C224.485 66.2259 216.925 69.2076 206.393 71.5115L206.5 72ZM230.5 63.5655L230.736 64.0061C235.85 61.2619 239.599 58.4197 242.765 55.8603C245.946 53.2895 248.489 51.0481 251.252 49.4316L251 49L250.748 48.5684C247.898 50.2349 245.266 52.553 242.137 55.0826C238.993 57.6236 235.299 60.4226 230.264 63.1249L230.5 63.5655ZM207 90L207.121 90.4851C214.618 88.6109 223.041 85.1429 230.716 81.4577L230.5 81.0069L230.284 80.5562C222.634 84.229 214.28 87.6645 206.879 89.5149L207 90ZM230.5 81.0069L230.716 81.4577C239.531 77.2257 247.387 72.6936 251.767 69.9225L251.5 69.5L251.233 69.0775C246.884 71.8288 239.061 76.3418 230.284 80.5562L230.5 81.0069ZM230.5 63.5655H230V81.0069H230.5H231V63.5655H230.5ZM207 110L207.212 110.453L231.712 98.9526L231.5 98.5L231.288 98.0474L206.788 109.547L207 110ZM231.5 98.5L231.724 98.9472L251.724 88.9472L251.5 88.5L251.276 88.0528L231.276 98.0528L231.5 98.5ZM231.5 98.5L231.999 98.4715L230.999 80.9784L230.5 81.0069L230.001 81.0355L231.001 98.5285L231.5 98.5ZM230.5 118L230.033 118.178L240.533 145.678L241 145.5L241.467 145.322L230.967 117.822L230.5 118ZM338 297.5L337.58 297.771L353.08 321.771L353.5 321.5L353.92 321.229L338.42 297.229L338 297.5ZM353.5 321.5L353.442 321.997L396.442 326.997L396.5 326.5L396.558 326.003L353.558 321.003L353.5 321.5ZM251 49L250.5 49.0122L251 69.5122L251.5 69.5L252 69.4878L251.5 48.9878L251 49ZM251.5 69.5H251V88.5H251.5H252V69.5H251.5ZM230.5 118L230.59 118.492L257.923 113.492L257.833 113L257.743 112.508L230.41 117.508L230.5 118ZM257.833 113L257.925 113.491L284.592 108.491L284.5 108L284.408 107.509L257.741 112.509L257.833 113ZM251.5 88.5L251.016 88.6251L257.349 113.125L257.833 113L258.317 112.875L251.984 88.3749L251.5 88.5ZM298 142L297.969 141.501L269.469 143.251L269.5 143.75L269.531 144.249L298.031 142.499L298 142ZM269.5 143.75L269.469 143.251L240.969 145.001L241 145.5L241.031 145.999L269.531 144.249L269.5 143.75ZM257.833 113L257.366 113.177L269.033 143.927L269.5 143.75L269.967 143.573L258.301 112.823L257.833 113ZM323.5 215L323.82 214.616C320.697 212.014 316.19 211.087 312.301 210.69C310.347 210.49 308.517 210.422 307.071 210.352C306.344 210.317 305.72 210.282 305.217 210.23C304.699 210.177 304.367 210.111 304.192 210.038L304 210.5L303.808 210.962C304.133 211.097 304.598 211.172 305.115 211.225C305.648 211.28 306.297 211.316 307.023 211.351C308.483 211.422 310.278 211.489 312.199 211.685C316.06 212.079 320.303 212.986 323.18 215.384L323.5 215ZM361 286L360.7 286.4L390.7 308.9L391 308.5L391.3 308.1L361.3 285.6L361 286ZM276.5 44.5L276 44.5116L276.5 66.0116L277 66L277.5 65.9884L277 44.4884L276.5 44.5ZM277 66L276.519 66.1354L281.019 82.1354L281.5 82L281.981 81.8646L277.481 65.8646L277 66ZM281.5 82L281.003 82.0573L284.003 108.057L284.5 108L284.997 107.943L281.997 81.9427L281.5 82ZM284.5 108L284.035 108.184L297.535 142.184L298 142L298.465 141.815L284.965 107.815L284.5 108ZM317.5 186.5L317.162 186.869C319.21 188.746 323.268 191.948 331.833 194.981L332 194.509L332.167 194.038C323.732 191.052 319.79 187.92 317.838 186.131L317.5 186.5ZM14 218L13.5068 218.082L19.5068 254.082L20 254L20.4932 253.918L14.4932 217.918L14 218ZM20 254L19.5027 253.948L16.0027 287.448L16.5 287.5L16.9973 287.552L20.4973 254.052L20 254ZM39 199.5L38.5001 199.508L39.0001 232.008L39.5 232L39.9999 231.992L39.4999 199.492L39 199.5ZM39.5 232L39.0004 231.981L37.5004 270.981L38 271L38.4996 271.019L39.9996 232.019L39.5 232ZM20 254L20.3742 254.332L39.8742 232.332L39.5 232L39.1258 231.668L19.6258 253.668L20 254ZM39.5 232L39.8731 232.333L63.8731 205.438L63.5 205.105L63.1269 204.772L39.1269 231.667L39.5 232ZM63.5 205.105L63.7492 205.538L95.2492 187.433L95 187L94.7508 186.567L63.2508 204.671L63.5 205.105ZM95 187L94.9644 187.499L108.964 188.499L109 188L109.036 187.501L95.0356 186.501L95 187ZM109 188L109.019 188.5L135.019 187.5L135 187L134.981 186.5L108.981 187.5L109 188ZM162.5 163.5L162.007 163.582L166.396 190.082L166.889 190L167.382 189.918L162.993 163.418L162.5 163.5ZM135 187L134.953 187.498L166.842 190.498L166.889 190L166.936 189.502L135.047 186.502L135 187ZM190 162.308L189.576 162.574L203.497 184.766L203.921 184.5L204.345 184.234L190.424 162.043L190 162.308ZM166.889 190L166.962 190.495L203.995 184.995L203.921 184.5L203.848 184.005L166.815 189.505L166.889 190ZM216.5 159.5L216.115 159.82L234.615 182.084L235 181.765L235.385 181.445L216.885 159.18L216.5 159.5ZM203.921 184.5L203.965 184.998L235.044 182.263L235 181.765L234.956 181.266L203.877 184.002L203.921 184.5ZM241 145.5L240.598 145.797L262.098 174.837L262.5 174.54L262.902 174.242L241.402 145.202L241 145.5ZM262.5 174.54L262.373 174.056L234.873 181.281L235 181.765L235.127 182.248L262.627 175.023L262.5 174.54ZM269.5 143.75L269.091 144.038L290.804 174.828L291.213 174.54L291.622 174.251L269.909 143.462L269.5 143.75ZM291.213 174.54L290.809 174.835L298.455 185.295L298.859 185L299.263 184.705L291.617 174.245L291.213 174.54ZM262.5 174.54V175.04H291.213V174.54V174.04H262.5V174.54ZM298 142L297.537 142.19L310.037 172.69L310.5 172.5L310.963 172.31L298.463 141.81L298 142ZM310.5 172.5L310.053 172.724L317.053 186.724L317.5 186.5L317.947 186.276L310.947 172.276L310.5 172.5ZM291.213 174.54L291.265 175.037L310.553 172.997L310.5 172.5L310.447 172.003L291.16 174.042L291.213 174.54ZM276.5 44.5L276.526 44.9993C284.75 44.5632 296.719 44.3977 309.513 44.0674L309.5 43.5676L309.487 43.0677C296.716 43.3975 284.715 43.5637 276.474 44.0007L276.5 44.5ZM277 66L276.88 66.4854C283.965 68.2358 296.076 70.858 309.419 73.0457L309.5 72.5523L309.581 72.0588C296.265 69.8756 284.18 67.2588 277.12 65.5146L277 66ZM309.5 72.5523L309.419 73.0457C322.8 75.2395 337.441 77 349.5 77V76.5V76C337.521 76 322.942 74.2496 309.581 72.0588L309.5 72.5523ZM309.5 43.5676H309V72.5523H309.5H310V43.5676H309.5ZM281.5 82L281.266 82.4419C288.223 86.125 301.677 92.4303 316.582 97.6877L316.748 97.2162L316.914 96.7447C302.06 91.505 288.651 85.2201 281.734 81.5581L281.5 82ZM316.748 97.2162L316.582 97.6877C326.027 101.019 336.069 103.935 345.418 105.493L345.5 105L345.582 104.507C336.311 102.962 326.329 100.065 316.914 96.7447L316.748 97.2162ZM309.5 72.5523L309.02 72.6932L316.268 97.3572L316.748 97.2162L317.228 97.0752L309.98 72.4113L309.5 72.5523ZM284.5 108L284.255 108.436L324.755 131.156L325 130.719L325.245 130.283L284.745 107.564L284.5 108ZM325 130.719L325.485 130.6L317.234 97.0966L316.748 97.2162L316.263 97.3358L324.515 130.839L325 130.719ZM329.5 161.42L329.762 160.994L298.262 141.574L298 142L297.738 142.426L329.238 161.845L329.5 161.42ZM325 130.719L324.505 130.792L329.005 161.492L329.5 161.42L329.995 161.347L325.495 130.647L325 130.719ZM345.5 196.048L345.779 195.634L310.779 172.085L310.5 172.5L310.221 172.915L345.221 196.463L345.5 196.048ZM329.5 161.42L329.046 161.63L345.046 196.258L345.5 196.048L345.954 195.839L329.954 161.21L329.5 161.42ZM345.5 196.048L345.011 196.153L349.511 217.105L350 217L350.489 216.895L345.989 195.943L345.5 196.048ZM355.5 234.5L355.977 234.35L350.477 216.85L350 217L349.523 217.15L355.023 234.65L355.5 234.5ZM309.5 43.5676L309.513 44.0674C320.376 43.7869 331.825 43.3877 342.038 42.6022L342 42.1037L341.962 41.6052C331.775 42.3886 320.348 42.7873 309.487 43.0677L309.5 43.5676ZM342 42.1037L342.038 42.6022C351.917 41.8426 360.676 40.7194 366.64 38.98L366.5 38.5L366.36 38.02C360.503 39.7282 351.833 40.8461 341.962 41.6052L342 42.1037ZM342 42.1037L341.511 42.2102L349.011 76.6065L349.5 76.5L349.989 76.3935L342.489 41.9972L342 42.1037ZM349.5 76.5L349.005 76.4305L345.005 104.931L345.5 105L345.995 105.069L349.995 76.5695L349.5 76.5ZM325 130.719L324.755 131.156L358.255 149.948L358.5 149.512L358.745 149.076L325.245 130.283L325 130.719ZM358.5 149.512L358.255 149.948L407.255 177.436L407.5 177L407.745 176.564L358.745 149.076L358.5 149.512ZM345.5 105L345.02 105.14L358.02 149.652L358.5 149.512L358.98 149.372L345.98 104.86L345.5 105ZM401 205.5L401.262 205.074L362.762 181.339L362.5 181.765L362.238 182.19L400.738 205.926L401 205.5ZM362.5 181.765L362.762 181.339L329.762 160.994L329.5 161.42L329.238 161.845L362.238 182.19L362.5 181.765ZM358.5 149.512L358.004 149.574L362.004 181.826L362.5 181.765L362.996 181.703L358.996 149.451L358.5 149.512ZM388.5 224.5L388.776 224.083L374.418 214.583L374.142 215L373.866 215.417L388.224 224.917L388.5 224.5ZM374.142 215L374.418 214.583L345.776 195.631L345.5 196.048L345.224 196.465L373.866 215.417L374.142 215ZM362.5 181.765L362.028 181.93L373.67 215.165L374.142 215L374.614 214.835L362.972 181.599L362.5 181.765ZM350 217L349.78 217.449L377.28 230.949L377.5 230.5L377.72 230.051L350.22 216.551L350 217ZM377.5 230.5L377.168 230.874L390.668 242.874L391 242.5L391.332 242.126L377.832 230.126L377.5 230.5ZM374.142 215L373.654 215.106L377.011 230.606L377.5 230.5L377.989 230.394L374.631 214.894L374.142 215ZM17 145.5L16.537 145.311C12.9964 154.002 4.5463 169.967 -5.0514 180.157L-4.68741 180.5L-4.32343 180.843C5.38991 170.529 13.897 154.442 17.463 145.689L17 145.5ZM-4.68741 180.5L-5.0514 180.157C-10.3272 185.759 -15.8427 189.5 -21 189.5V190V190.5C-15.3975 190.5 -9.62704 186.474 -4.32343 180.843L-4.68741 180.5ZM-6 211.5L-5.58293 211.224L-16.1624 195.224L-16.5794 195.5L-16.9965 195.776L-6.41707 211.776L-6 211.5ZM-16.5794 195.5L-16.2477 195.874L26.6133 157.874L26.2816 157.5L25.9499 157.126L-16.9111 195.126L-16.5794 195.5ZM-4.68741 180.5L-5.07922 180.189L-16.9712 195.189L-16.5794 195.5L-16.1876 195.811L-4.29561 180.811L-4.68741 180.5ZM-10 255.5L-9.50006 255.508L-8.89821 218.008L-9.39815 218L-9.89808 217.992L-10.4999 255.492L-10 255.5ZM-16.5794 195.5L-17.0558 195.652L-9.87447 218.152L-9.39815 218L-8.92182 217.848L-16.1031 195.348L-16.5794 195.5ZM39 199.5L38.6233 199.171L-6.31425 250.671L-5.93751 251L-5.56077 251.329L39.3767 199.829L39 199.5ZM-5.93751 251L-6.43475 250.948L-10.4972 289.448L-10 289.5L-9.50276 289.552L-5.44027 251.052L-5.93751 251ZM-9.39815 218L-9.89542 218.052L-6.43478 251.052L-5.93751 251L-5.44024 250.948L-8.90087 217.948L-9.39815 218ZM-10 313.5L-9.51663 313.628L-2.10889 285.628L-2.59226 285.5L-3.07563 285.372L-10.4834 313.372L-10 313.5ZM-2.59226 285.5L-2.18596 285.791L20.4063 254.291L20 254L19.5937 253.709L-2.99857 285.209L-2.59226 285.5ZM-5.93751 251L-6.43518 251.048L-3.08993 285.548L-2.59226 285.5L-2.0946 285.452L-5.43985 250.952L-5.93751 251ZM54 251L53.6096 250.688L37.6096 270.688L38 271L38.3904 271.312L54.3904 251.312L54 251ZM38 271L37.6956 270.603L16.1956 287.103L16.5 287.5L16.8044 287.897L38.3044 271.397L38 271ZM16.5 287.5L16.1095 287.188L-5.07794 313.688L-4.68741 314L-4.29689 314.312L16.8905 287.812L16.5 287.5ZM-4.68741 314L-4.18876 314.037L-2.09361 285.537L-2.59226 285.5L-3.09092 285.463L-5.18607 313.963L-4.68741 314ZM-4.68741 314L-5.08837 313.701L-14.401 326.201L-14 326.5L-13.599 326.799L-4.28645 314.299L-4.68741 314ZM-4.68741 314L-5.18684 313.976L-6.55233 342.495L-6.0529 342.519L-5.55347 342.543L-4.18798 314.024L-4.68741 314ZM-6.0529 342.519L-6.54389 342.613L-3.08325 360.594L-2.59226 360.5L-2.10127 360.406L-5.56191 342.424L-6.0529 342.519ZM-10 349L-9.57296 349.26L-5.62586 342.779L-6.0529 342.519L-6.47994 342.259L-10.427 348.74L-10 349ZM16.5 287.5L16.017 287.371L7.86226 317.824L8.34525 317.953L8.82823 318.083L16.983 287.629L16.5 287.5ZM8.34525 317.953L7.86513 318.093L16.0199 346.14L16.5 346L16.9801 345.86L8.82536 317.814L8.34525 317.953ZM8.34525 317.953L7.91388 317.701L-6.48427 342.266L-6.0529 342.519L-5.62153 342.772L8.77661 318.206L8.34525 317.953ZM38 271L37.5164 270.873L28.8616 303.873L29.3452 304L29.8289 304.127L38.4836 271.127L38 271ZM29.3452 304L28.852 304.082L32.5068 326.082L33 326L33.4932 325.918L29.8385 303.918L29.3452 304ZM8.34525 317.953L8.62196 318.37L29.622 304.416L29.3452 304L29.0685 303.584L8.06854 317.537L8.34525 317.953ZM54 251C53.5047 251.068 53.5047 251.069 53.5047 251.069C53.5047 251.069 53.5048 251.069 53.5048 251.069C53.5048 251.069 53.5049 251.07 53.505 251.071C53.5053 251.072 53.5056 251.075 53.506 251.078C53.5068 251.084 53.5081 251.093 53.5098 251.105C53.5132 251.13 53.5182 251.166 53.5249 251.213C53.5382 251.309 53.5579 251.451 53.5839 251.636C53.6357 252.005 53.7123 252.548 53.8108 253.239C54.008 254.622 54.2933 256.6 54.6464 258.982C55.3524 263.745 56.3293 270.124 57.4123 276.583L57.9054 276.5L58.3986 276.417C57.3169 269.967 56.3411 263.595 55.6356 258.835C55.2828 256.456 54.9977 254.48 54.8008 253.098C54.7024 252.408 54.626 251.866 54.5742 251.497C54.5483 251.312 54.5286 251.171 54.5153 251.076C54.5087 251.028 54.5037 250.992 54.5003 250.968C54.4986 250.956 54.4974 250.947 54.4965 250.941C54.4961 250.938 54.4958 250.935 54.4956 250.934C54.4955 250.933 54.4954 250.932 54.4954 250.932C54.4953 250.932 54.4953 250.932 54.4953 250.932C54.4953 250.932 54.4953 250.932 54 251ZM57.9054 276.5L57.4123 276.583C58.5148 283.158 58.0444 287.478 57.7276 291C57.4096 294.534 57.2336 297.346 59.0598 300.737L59.5 300.5L59.9402 300.263C58.2664 297.154 58.4069 294.609 58.7235 291.089C59.0414 287.556 59.5236 283.127 58.3986 276.417L57.9054 276.5ZM29.3452 304L29.6921 304.36L58.2523 276.86L57.9054 276.5L57.5586 276.14L28.9984 303.64L29.3452 304ZM81 256L80.5289 256.168C80.6238 256.434 80.6993 256.65 80.758 256.823C80.817 256.996 80.8583 257.122 80.8851 257.21C80.8986 257.254 80.9074 257.285 80.9128 257.306C80.9155 257.316 80.9167 257.322 80.9171 257.323C80.9173 257.324 80.917 257.323 80.9165 257.32C80.9161 257.318 80.9151 257.312 80.9141 257.304C80.9133 257.297 80.9117 257.282 80.9113 257.263C80.9111 257.253 80.9112 257.239 80.9122 257.223C80.9132 257.208 80.9155 257.185 80.9208 257.159C80.9232 257.148 80.9292 257.125 80.9328 257.112C80.9374 257.098 80.949 257.067 80.956 257.052C80.9648 257.033 80.9865 256.995 80.9993 256.976C81.0153 256.954 81.0531 256.911 81.075 256.89C81.1007 256.868 81.1581 256.83 81.1895 256.813C81.223 256.798 81.2922 256.776 81.3274 256.769C81.4213 256.753 81.5014 256.768 81.5571 256.785C81.5767 256.792 81.6126 256.806 81.6286 256.814C81.6422 256.821 81.6672 256.835 81.6783 256.842C81.7048 256.86 81.7249 256.876 81.7383 256.888C81.7521 256.901 81.7629 256.912 81.7705 256.92C81.7783 256.929 81.7846 256.936 81.7893 256.942C81.7983 256.954 81.8046 256.962 81.8078 256.967C81.8113 256.972 81.8135 256.976 81.8145 256.978C81.8162 256.98 81.8157 256.98 81.8129 256.974C81.8102 256.97 81.8064 256.962 81.8015 256.953C81.7915 256.933 81.7788 256.906 81.7633 256.873C81.7324 256.806 81.694 256.72 81.6503 256.618C81.5629 256.415 81.4579 256.16 81.3545 255.903C81.2511 255.645 81.1505 255.387 81.072 255.176C81.0327 255.071 80.9997 254.979 80.9749 254.907C80.9625 254.871 80.9527 254.841 80.9455 254.818C80.9419 254.806 80.9392 254.797 80.9373 254.791C80.9352 254.783 80.9346 254.78 80.9346 254.781C80.9347 254.781 80.9352 254.783 80.936 254.787C80.9366 254.791 80.9379 254.797 80.9391 254.807C80.9403 254.815 80.9422 254.832 80.9427 254.854C80.9429 254.865 80.9428 254.88 80.9415 254.899C80.9402 254.916 80.9373 254.942 80.9304 254.972C80.9273 254.984 80.9195 255.011 80.9148 255.025C80.9088 255.041 80.8937 255.076 80.8846 255.093C80.8581 255.143 80.8127 255.207 80.7379 255.261C80.7088 255.281 80.6457 255.314 80.6121 255.328C80.5783 255.338 80.5104 255.352 80.4769 255.355C80.391 255.36 80.3208 255.343 80.2742 255.325C80.2575 255.319 80.2267 255.305 80.213 255.298C80.2013 255.292 80.1797 255.279 80.17 255.272C80.1469 255.257 80.1291 255.242 80.117 255.231C80.1046 255.22 80.0949 255.21 80.0878 255.202C80.0807 255.195 80.0749 255.188 80.0706 255.183C80.0623 255.173 80.0565 255.165 80.0537 255.161C80.0506 255.156 80.0488 255.154 80.0483 255.153C80.0475 255.152 80.0491 255.154 80.0534 255.162C80.062 255.177 80.0757 255.202 80.0953 255.24C80.1342 255.317 80.1894 255.431 80.2641 255.591C80.3385 255.751 80.4309 255.953 80.5439 256.205L81 256L81.4561 255.795C81.3419 255.541 81.2475 255.334 81.1704 255.169C81.0937 255.004 81.033 254.878 80.9864 254.787C80.9632 254.741 80.9417 254.701 80.9223 254.667C80.9125 254.649 80.9018 254.631 80.8904 254.613C80.8846 254.604 80.8779 254.594 80.8703 254.584C80.863 254.573 80.8532 254.56 80.8412 254.545C80.8351 254.538 80.8276 254.529 80.8188 254.52C80.8101 254.511 80.7988 254.499 80.7849 254.487C80.7714 254.475 80.7523 254.459 80.7279 254.442C80.7176 254.436 80.6954 254.422 80.6832 254.415C80.6688 254.408 80.6375 254.394 80.6203 254.387C80.5726 254.37 80.5015 254.352 80.4147 254.357C80.3808 254.36 80.3125 254.374 80.2783 254.385C80.2443 254.398 80.1808 254.432 80.1514 254.451C80.076 254.506 80.0299 254.571 80.0029 254.622C79.9936 254.64 79.9783 254.675 79.9721 254.691C79.9671 254.706 79.9592 254.734 79.956 254.747C79.9487 254.778 79.9456 254.805 79.9442 254.825C79.9427 254.845 79.9426 254.862 79.9429 254.875C79.9434 254.901 79.9458 254.923 79.9477 254.938C79.9498 254.953 79.9522 254.967 79.9543 254.978C79.9565 254.989 79.9588 255 79.961 255.009C79.9653 255.027 79.9702 255.046 79.9749 255.062C79.9798 255.079 79.985 255.097 79.9906 255.115C80.0016 255.15 80.0146 255.19 80.029 255.232C80.0577 255.315 80.0941 255.416 80.135 255.526C80.2171 255.746 80.3208 256.012 80.4263 256.275C80.5318 256.538 80.6402 256.8 80.7317 257.013C80.7774 257.119 80.8198 257.215 80.8561 257.293C80.8742 257.333 80.8917 257.369 80.908 257.402C80.9161 257.418 80.9245 257.434 80.9329 257.449C80.941 257.465 80.9506 257.482 80.9611 257.499C80.9664 257.508 80.9728 257.518 80.9801 257.528C80.9871 257.539 80.9969 257.553 81.0092 257.568C81.0154 257.576 81.0232 257.585 81.0325 257.595C81.0416 257.605 81.0538 257.618 81.0689 257.631C81.0835 257.644 81.1048 257.662 81.1325 257.68C81.1442 257.688 81.1697 257.702 81.1838 257.71C81.2004 257.717 81.2368 257.732 81.2569 257.739C81.3135 257.757 81.3945 257.771 81.4893 257.756C81.5248 257.748 81.5944 257.726 81.6283 257.711C81.6601 257.694 81.7178 257.655 81.7438 257.633C81.766 257.612 81.8041 257.569 81.8204 257.547C81.8335 257.527 81.8554 257.488 81.8645 257.469C81.8717 257.453 81.8835 257.422 81.8883 257.407C81.8922 257.394 81.8983 257.37 81.9008 257.358C81.9065 257.33 81.9089 257.306 81.9101 257.289C81.9113 257.271 81.9114 257.255 81.9111 257.243C81.9106 257.219 81.9086 257.198 81.9069 257.184C81.9051 257.169 81.903 257.156 81.901 257.145C81.8989 257.133 81.8967 257.122 81.8946 257.112C81.8903 257.093 81.8854 257.073 81.8803 257.053C81.8702 257.014 81.857 256.969 81.8414 256.918C81.8102 256.816 81.7651 256.678 81.7046 256.5C81.6439 256.322 81.5668 256.101 81.4711 255.832L81 256ZM57.9054 276.5L58.2374 276.874L81.3319 256.374L81 256L80.6681 255.626L57.5735 276.126L57.9054 276.5ZM63.5 205.105L63.0021 205.15C63.1456 206.727 62.8244 209.817 62.1914 213.761C61.5621 217.682 60.6352 222.39 59.5962 227.166C57.5167 236.727 54.9964 246.527 53.5267 250.839L54 251L54.4733 251.161C55.9624 246.793 58.4925 236.946 60.5734 227.379C61.6146 222.592 62.5455 217.865 63.1788 213.919C63.8085 209.995 64.1547 206.782 63.9979 205.06L63.5 205.105ZM95 187L94.5751 186.736C91.14 192.275 86.6465 201.151 83.1955 211.34L83.6691 211.5L84.1426 211.66C87.5684 201.547 92.0287 192.739 95.4249 187.264L95 187ZM54 251L54.3998 251.3L84.0689 211.8L83.6691 211.5L83.2693 211.2L53.6002 250.7L54 251ZM109 188L108.515 187.879C107.03 193.816 105.124 203.541 104.956 213.492L105.455 213.5L105.955 213.508C106.122 203.661 108.011 194.016 109.485 188.121L109 188ZM105.455 213.5L104.956 213.492C104.802 222.589 106.099 231.956 110.58 238.775L110.998 238.5L111.416 238.225C107.101 231.66 105.803 222.54 105.955 213.508L105.455 213.5ZM83.6691 211.5L83.6234 211.998L105.41 213.998L105.455 213.5L105.501 213.002L83.7148 211.002L83.6691 211.5ZM135 187H134.5V205.105H135H135.5V187H135ZM105.455 213.5L105.592 213.981L135.137 205.586L135 205.105L134.863 204.624L105.319 213.019L105.455 213.5ZM166.889 190L166.526 190.344L182.626 207.344L182.989 207L183.352 206.656L167.252 189.656L166.889 190ZM135 205.105L134.98 205.604L182.97 207.5L182.989 207L183.009 206.5L135.02 204.605L135 205.105ZM203.921 184.5L203.513 184.79L214.092 199.678L214.5 199.389L214.908 199.099L204.329 184.21L203.921 184.5ZM182.989 207L183.107 207.486L214.617 199.875L214.5 199.389L214.383 198.903L182.872 206.514L182.989 207ZM235 181.765L234.598 182.062L249.598 202.298L250 202L250.402 201.702L235.402 181.467L235 181.765ZM214.5 199.389L214.463 199.888L249.963 202.499L250 202L250.037 201.501L214.537 198.89L214.5 199.389ZM262.5 174.54L262.172 174.917L279.918 190.377L280.247 190L280.575 189.623L262.828 174.163L262.5 174.54ZM250 202L250.184 202.465L280.431 190.465L280.247 190L280.062 189.535L249.816 201.535L250 202ZM280.247 190L280.376 190.483L298.989 185.483L298.859 185L298.729 184.517L280.117 189.517L280.247 190ZM317.5 186.5L317.54 186.002L298.899 184.502L298.859 185L298.819 185.498L317.46 186.998L317.5 186.5ZM280.247 190H279.747V207H280.247H280.747V190H280.247ZM304 210.5L304.073 210.005L280.32 206.505L280.247 207L280.174 207.495L303.927 210.995L304 210.5ZM250 202L249.536 202.186L257.369 221.686L257.833 221.5L258.297 221.314L250.464 201.814L250 202ZM257.833 221.5L258.105 221.92L280.518 207.42L280.247 207L279.975 206.58L257.562 221.08L257.833 221.5ZM214.5 199.389L214.092 199.678L227.671 218.79L228.079 218.5L228.487 218.21L214.908 199.099L214.5 199.389ZM257.833 221.5L257.884 221.003L228.129 218.003L228.079 218.5L228.029 218.997L257.783 221.997L257.833 221.5ZM182.989 207L182.626 207.344L196.359 221.844L196.722 221.5L197.085 221.156L183.352 206.656L182.989 207ZM228.079 218.5L228.031 218.002L196.675 221.002L196.722 221.5L196.77 221.998L228.127 218.998L228.079 218.5ZM135 205.105L134.641 205.452L152.875 224.315L153.234 223.967L153.594 223.62L135.359 204.757L135 205.105ZM153.234 223.967L153.262 224.466L196.751 221.999L196.722 221.5L196.694 221.001L153.206 223.468L153.234 223.967ZM81 256L81.2519 256.432L111.25 238.932L110.998 238.5L110.746 238.068L80.7481 255.568L81 256ZM110.998 238.5L111.161 238.973L153.397 224.44L153.234 223.967L153.071 223.494L110.836 238.027L110.998 238.5ZM-10 368.5L-9.63313 368.84L-2.22539 360.84L-2.59226 360.5L-2.95914 360.16L-10.3669 368.16L-10 368.5ZM16.5 346L16.1976 345.602L-2.89467 360.102L-2.59226 360.5L-2.28986 360.898L16.8024 346.398L16.5 346ZM16.5 346L16.8857 346.318L33.3857 326.318L33 326L32.6143 325.682L16.1143 345.682L16.5 346ZM81 256L80.5439 256.205C81.8159 259.038 84.5944 262.689 87.3856 266.339C90.2042 270.024 93.047 273.722 94.5531 276.724L95 276.5L95.4469 276.276C93.8884 273.169 90.9738 269.384 88.1799 265.731C85.3586 262.042 82.6694 258.498 81.4561 255.795L81 256ZM59.5 300.5L59.78 300.914L95.28 276.914L95 276.5L94.72 276.086L59.22 300.086L59.5 300.5ZM110.998 238.5L110.58 238.775C113.913 243.846 118.724 251.049 124.082 259.215L124.5 258.94L124.918 258.666C119.572 250.52 114.73 243.268 111.416 238.225L110.998 238.5ZM95 276.5L95.2557 276.93L124.756 259.37L124.5 258.94L124.244 258.511L94.7443 276.07L95 276.5ZM153.234 223.967L152.875 224.315L171.258 243.331L171.617 242.984L171.977 242.636L153.594 223.62L153.234 223.967ZM171.617 242.984L171.258 243.331L189.641 262.348L190 262L190.359 261.652L171.977 242.636L171.617 242.984ZM124.5 258.94L124.66 259.414L171.777 243.457L171.617 242.984L171.457 242.51L124.34 258.467L124.5 258.94ZM196.722 221.5L196.359 221.844L216.248 242.844L216.611 242.5L216.974 242.156L197.085 221.156L196.722 221.5ZM216.611 242.5L216.181 242.754L230.07 266.254L230.5 266L230.93 265.746L217.042 242.246L216.611 242.5ZM171.617 242.984L171.622 243.484L216.616 243L216.611 242.5L216.606 242L171.612 242.484L171.617 242.984ZM228.079 218.5L227.671 218.79L244.724 242.79L245.132 242.5L245.539 242.21L228.487 218.21L228.079 218.5ZM245.132 242.5L244.724 242.79L269.592 277.79L270 277.5L270.408 277.21L245.539 242.21L245.132 242.5ZM216.611 242.5V243H245.132V242.5V242H216.611V242.5ZM257.833 221.5L257.417 221.777L276.584 250.527L277 250.25L277.416 249.973L258.249 221.223L257.833 221.5ZM245.132 242.5L245.013 242.986L276.882 250.736L277 250.25L277.118 249.764L245.25 242.014L245.132 242.5ZM280.247 207L279.825 207.269L298.437 236.435L298.859 236.166L299.28 235.897L280.668 206.731L280.247 207ZM277 250.25L277.271 250.67L299.13 236.586L298.859 236.166L298.588 235.745L276.729 249.83L277 250.25ZM304 210.5L303.601 210.801L329.101 244.578L329.5 244.276L329.899 243.975L304.399 210.199L304 210.5ZM298.859 236.166L298.731 236.649L329.372 244.76L329.5 244.276L329.628 243.793L298.987 235.682L298.859 236.166ZM-2.59226 360.5L-3.07762 360.38L-9.8835 387.88L-9.39815 388L-8.91279 388.12L-2.10691 360.62L-2.59226 360.5ZM-9.39815 388L-9.61011 388.453L3.2086 394.453L3.42056 394L3.63252 393.547L-9.18618 387.547L-9.39815 388ZM-6 386.5L-6.20191 386.043L-9.60006 387.543L-9.39815 388L-9.19624 388.457L-5.79809 386.957L-6 386.5ZM16.5 346L16.0003 346.018L16.8456 369.095L17.3452 369.077L17.8449 369.059L16.9997 345.982L16.5 346ZM17.3452 369.077L16.8579 369.189L24.5126 402.612L25 402.5L25.4874 402.388L17.8326 368.965L17.3452 369.077ZM17.3452 369.077L17.0564 368.669L-9.68695 387.592L-9.39815 388L-9.10934 388.408L17.634 369.485L17.3452 369.077ZM17.3452 369.077L17.6307 369.487L43.6307 351.411L43.3452 351L43.0598 350.589L17.0598 368.666L17.3452 369.077ZM95 276.5C94.6946 276.896 94.6946 276.896 94.6946 276.896C94.6947 276.896 94.6948 276.896 94.695 276.896C94.6954 276.897 94.696 276.897 94.6968 276.898C94.6984 276.899 94.7008 276.901 94.7041 276.903C94.7107 276.908 94.7206 276.916 94.7338 276.926C94.7601 276.947 94.7995 276.977 94.8512 277.018C94.9546 277.099 95.1072 277.219 95.303 277.375C95.6945 277.688 96.2588 278.143 96.9479 278.715C98.3264 279.86 100.203 281.469 102.196 283.33C106.202 287.07 110.607 291.761 112.442 295.711L112.896 295.5L113.349 295.289C111.423 291.144 106.88 286.335 102.878 282.599C100.868 280.722 98.9758 279.099 97.5866 277.946C96.8919 277.369 96.3225 276.909 95.9264 276.593C95.7283 276.436 95.5736 276.314 95.4681 276.231C95.4153 276.19 95.3749 276.158 95.3476 276.137C95.3339 276.126 95.3235 276.118 95.3164 276.113C95.3129 276.11 95.3102 276.108 95.3084 276.106C95.3075 276.106 95.3067 276.105 95.3063 276.105C95.306 276.105 95.3058 276.104 95.3057 276.104C95.3055 276.104 95.3054 276.104 95 276.5ZM112.896 295.5L112.442 295.711C114.989 301.191 115.888 308.732 116.141 314.951C116.267 318.052 116.232 320.806 116.166 322.785C116.132 323.775 116.091 324.57 116.058 325.117C116.042 325.39 116.028 325.602 116.018 325.744C116.013 325.816 116.009 325.87 116.006 325.906C116.004 325.924 116.003 325.938 116.003 325.947C116.002 325.951 116.002 325.954 116.002 325.956C116.002 325.958 116.002 325.958 116.002 325.959C116.002 325.959 116.002 325.959 116.002 325.959C116.002 325.959 116.002 325.959 116.5 326C116.998 326.041 116.998 326.04 116.998 326.04C116.998 326.04 116.998 326.04 116.998 326.039C116.999 326.039 116.999 326.038 116.999 326.036C116.999 326.034 116.999 326.03 117 326.025C117 326.016 117.001 326.001 117.003 325.982C117.006 325.944 117.01 325.889 117.015 325.815C117.026 325.669 117.04 325.454 117.057 325.177C117.09 324.622 117.131 323.818 117.165 322.819C117.232 320.821 117.267 318.041 117.14 314.91C116.886 308.667 115.983 300.958 113.349 295.289L112.896 295.5ZM79 320L79.2929 320.405L113.189 295.905L112.896 295.5L112.603 295.095L78.7071 319.595L79 320ZM124.5 258.94L124.082 259.215C129.99 268.218 138.691 277.417 151.32 282.284L151.5 281.817L151.68 281.351C139.309 276.583 130.755 267.561 124.918 258.666L124.5 258.94ZM151.5 281.817L151.32 282.284C160.694 285.896 165.352 291.598 167.675 296.373C168.84 298.766 169.421 300.933 169.712 302.498C169.857 303.281 169.929 303.912 169.965 304.345C169.983 304.562 169.991 304.729 169.996 304.84C169.998 304.895 169.999 304.937 170 304.964C170 304.977 170 304.987 170 304.993C170 304.996 170 304.998 170 304.999C170 305 170 305 170 305C170 305 170 305 170 305C170 305 170 305 170.5 305C171 305 171 305 171 304.999C171 304.999 171 304.999 171 304.998C171 304.997 171 304.996 171 304.995C171 304.992 171 304.988 171 304.984C171 304.974 171 304.961 170.999 304.945C170.999 304.911 170.997 304.863 170.995 304.8C170.99 304.676 170.98 304.494 170.961 304.263C170.923 303.8 170.847 303.135 170.695 302.316C170.391 300.679 169.785 298.423 168.575 295.936C166.148 290.95 161.306 285.06 151.68 281.351L151.5 281.817ZM112.896 295.5L113.063 295.971L151.667 282.288L151.5 281.817L151.333 281.346L112.729 295.029L112.896 295.5ZM190 262L189.951 262.498L230.451 266.498L230.5 266L230.549 265.502L190.049 261.502L190 262ZM277 250.25L276.601 250.551L303.601 286.301L304 286L304.399 285.699L277.399 249.949L277 250.25ZM304 286L303.557 286.232L315.057 308.232L315.5 308L315.943 307.768L304.443 285.768L304 286ZM270 277.5L269.879 277.985L303.879 286.485L304 286L304.121 285.515L270.121 277.015L270 277.5ZM298.859 236.166L298.437 236.435L319.71 269.769L320.132 269.5L320.553 269.231L299.28 235.897L298.859 236.166ZM320.132 269.5L319.71 269.769L337.579 297.769L338 297.5L338.421 297.231L320.553 269.231L320.132 269.5ZM304 286L304.358 286.35L320.489 269.85L320.132 269.5L319.774 269.15L303.642 285.65L304 286ZM329.5 244.276L329.101 244.578L353.101 276.367L353.5 276.066L353.899 275.765L329.899 243.975L329.5 244.276ZM353.5 276.066L353.101 276.367L360.601 286.301L361 286L361.399 285.699L353.899 275.765L353.5 276.066ZM320.132 269.5L320.035 269.991L353.403 276.556L353.5 276.066L353.597 275.575L320.228 269.009L320.132 269.5ZM329.5 244.276L329.255 244.712L370.755 268.081L371 267.646L371.245 267.21L329.745 243.841L329.5 244.276ZM371 267.646L370.755 268.081L388.255 277.936L388.5 277.5L388.745 277.064L371.245 267.21L371 267.646ZM355.5 234.5L355.047 234.712L370.547 267.857L371 267.646L371.453 267.434L355.953 234.288L355.5 234.5ZM353.5 276.066L353.398 276.555L380.898 282.307L381 281.817L381.102 281.328L353.602 275.576L353.5 276.066ZM381 281.817L380.898 282.307L400.898 286.489L401 286L401.102 285.511L381.102 281.328L381 281.817ZM371 267.646L370.591 267.934L380.591 282.105L381 281.817L381.409 281.529L371.409 267.357L371 267.646ZM25 402.5L25.1669 402.971L49.1669 394.471L49 394L48.8331 393.529L24.8331 402.029L25 402.5ZM79 320L78.5071 319.916L71.2571 362.416L71.75 362.5L72.2429 362.584L79.4929 320.084L79 320ZM71.75 362.5L71.2536 362.56L74.5036 389.56L75 389.5L75.4964 389.44L72.2464 362.44L71.75 362.5ZM49 394L49.4053 394.293L72.1553 362.793L71.75 362.5L71.3447 362.207L48.5947 393.707L49 394ZM71.75 362.5L72.066 362.887L116.816 326.387L116.5 326L116.184 325.613L71.434 362.113L71.75 362.5ZM116.5 326L116.681 326.466L170.681 305.466L170.5 305L170.319 304.534L116.319 325.534L116.5 326ZM284.5 308V308.5H315.5V308V307.5H284.5V308ZM315.5 308L315.711 308.453L338.211 297.953L338 297.5L337.789 297.047L315.289 307.547L315.5 308ZM338 297.5L338.224 297.947L361.224 286.447L361 286L360.776 285.553L337.776 297.053L338 297.5ZM116.5 326C116.01 325.901 116.01 325.901 116.01 325.901C116.01 325.901 116.01 325.902 116.01 325.902C116.01 325.903 116.009 325.904 116.009 325.905C116.008 325.908 116.008 325.912 116.006 325.918C116.004 325.929 116.001 325.946 115.996 325.968C115.988 326.012 115.975 326.077 115.958 326.163C115.924 326.334 115.875 326.587 115.813 326.913C115.688 327.565 115.511 328.511 115.303 329.689C114.885 332.046 114.339 335.33 113.824 339.044C112.797 346.461 111.889 355.631 112.397 362.537L112.896 362.5L113.394 362.463C112.894 355.67 113.788 346.59 114.815 339.181C115.327 335.483 115.871 332.211 116.287 329.864C116.495 328.691 116.671 327.749 116.795 327.1C116.857 326.776 116.906 326.525 116.939 326.356C116.956 326.271 116.969 326.207 116.977 326.164C116.981 326.142 116.985 326.126 116.987 326.115C116.988 326.11 116.989 326.106 116.989 326.103C116.99 326.102 116.99 326.101 116.99 326.1C116.99 326.1 116.99 326.099 116.99 326.099C116.99 326.099 116.99 326.099 116.5 326ZM112.896 362.5L112.397 362.537C113.135 372.57 113.938 382.201 114.502 388.544L115 388.5L115.498 388.456C114.934 382.117 114.132 372.491 113.394 362.463L112.896 362.5ZM75 389.5L75.2901 389.907L113.186 362.907L112.896 362.5L112.605 362.093L74.7099 389.093L75 389.5ZM170.5 305C170.014 304.884 170.014 304.885 170.013 304.885C170.013 304.885 170.013 304.885 170.013 304.886C170.013 304.887 170.013 304.888 170.012 304.89C170.011 304.894 170.01 304.9 170.008 304.907C170.005 304.922 169.999 304.944 169.992 304.974C169.979 305.032 169.958 305.119 169.932 305.233C169.878 305.462 169.8 305.797 169.702 306.229C169.504 307.092 169.224 308.339 168.891 309.874C168.224 312.942 167.346 317.164 166.502 321.773C164.818 330.965 163.251 341.782 163.794 348.043L164.292 348L164.791 347.957C164.261 341.852 165.797 331.169 167.486 321.953C168.327 317.357 169.203 313.147 169.868 310.086C170.2 308.555 170.48 307.312 170.677 306.452C170.775 306.022 170.853 305.687 170.905 305.461C170.932 305.347 170.952 305.261 170.966 305.203C170.973 305.174 170.978 305.152 170.981 305.137C170.983 305.13 170.984 305.125 170.985 305.121C170.986 305.119 170.986 305.118 170.986 305.117C170.986 305.116 170.986 305.116 170.986 305.116C170.986 305.116 170.986 305.116 170.5 305ZM164.292 348L163.794 348.043C165.083 362.895 165.5 378.865 165.5 388.5H166H166.5C166.5 378.844 166.082 362.845 164.791 347.957L164.292 348ZM112.896 362.5L113.031 362.981L164.428 348.481L164.292 348L164.157 347.519L112.76 362.019L112.896 362.5ZM164.292 348L164.278 348.5L217.486 350L217.5 349.5L217.514 349L164.306 347.5L164.292 348ZM217.5 349.5L217.635 349.981L265.635 336.481L265.5 336L265.365 335.519L217.365 349.019L217.5 349.5ZM265.5 336L265.539 336.498L304.039 333.498L304 333L303.961 332.502L265.461 335.502L265.5 336ZM329.5 321.5L329.294 321.044L303.794 332.544L304 333L304.206 333.456L329.706 321.956L329.5 321.5ZM329.5 321.5V322H353.5V321.5V321H329.5V321.5ZM217.5 349.5L217.002 349.547L219.748 378.547L220.245 378.5L220.743 378.453L217.998 349.453L217.5 349.5ZM220.245 378.5L219.747 378.538L220.501 388.538L221 388.5L221.499 388.462L220.744 378.462L220.245 378.5ZM265.5 336L265.06 336.237L283.367 370.237L283.808 370L284.248 369.763L265.94 335.763L265.5 336ZM283.808 370L283.367 370.237L296.56 394.737L297 394.5L297.44 394.263L284.248 369.763L283.808 370ZM220.245 378.5L220.312 378.996L283.874 370.496L283.808 370L283.741 369.504L220.179 378.004L220.245 378.5ZM304 333L303.656 333.363L331.658 359.94L332.002 359.577L332.346 359.214L304.344 332.637L304 333ZM332.002 359.577L331.645 359.927L383.143 412.35L383.5 412L383.857 411.65L332.359 359.227L332.002 359.577ZM283.808 370L283.913 370.489L332.108 360.066L332.002 359.577L331.896 359.088L283.702 369.511L283.808 370ZM329.5 321.5L329.172 321.878L358.172 347.043L358.5 346.665L358.828 346.287L329.828 321.122L329.5 321.5ZM358.5 346.665L358.271 347.109L412.271 374.944L412.5 374.5L412.729 374.056L358.729 346.221L358.5 346.665ZM332.002 359.577L332.221 360.026L358.719 347.114L358.5 346.665L358.281 346.215L331.783 359.127L332.002 359.577ZM353.5 321.5L353.257 321.937L393.757 344.437L394 344L394.243 343.563L353.743 321.063L353.5 321.5ZM394 344L393.963 343.501L358.463 346.166L358.5 346.665L358.537 347.164L394.037 344.499L394 344ZM83.6691 211.5L83.1955 211.34C80.9935 217.84 79.2128 224.885 78.4049 231.943L78.9016 232L79.3984 232.057C80.1963 225.085 81.9574 218.112 84.1426 211.66L83.6691 211.5ZM78.9016 232L78.4049 231.943C77.4516 240.271 77.8502 248.642 80.5289 256.168L81 256L81.4711 255.832C78.8591 248.494 78.4563 240.287 79.3984 232.057L78.9016 232ZM17 145.5L16.6045 145.806L25.8861 157.806L26.2816 157.5L26.6771 157.194L17.3955 145.194L17 145.5ZM170.5 305L170.383 305.486L207.883 314.486L208 314L208.117 313.514L170.617 304.514L170.5 305ZM220.245 378.5L220.155 378.008L165.909 388.008L166 388.5L166.091 388.992L220.336 378.992L220.245 378.5ZM151.5 281.817L151.729 282.262L190.229 262.445L190 262L189.771 261.555L151.271 281.373L151.5 281.817ZM355.5 234.5L355.185 234.888L383.685 258.031L384 257.642L384.315 257.254L355.815 234.112L355.5 234.5ZM384 257.642L383.736 258.067L390.736 262.424L391 262L391.264 261.576L384.264 257.218L384 257.642ZM377.5 230.5L377.014 230.616L383.514 257.759L384 257.642L384.486 257.526L377.986 230.384L377.5 230.5ZM317.5 186.5L317.135 186.842L331.635 202.342L332 202L332.365 201.658L317.865 186.158L317.5 186.5ZM332 202L331.68 202.384L349.68 217.384L350 217L350.32 216.616L332.32 201.616L332 202ZM230.5 118L230.815 117.612L222.815 111.112L222.5 111.5L222.185 111.888L230.185 118.388L230.5 118ZM26.2816 157.5L25.803 157.645L32.1622 178.645L32.6408 178.5L33.1193 178.355L26.7601 157.355L26.2816 157.5ZM32.6408 178.5L32.1622 178.645L38.5215 199.645L39 199.5L39.4785 199.355L33.1193 178.355L32.6408 178.5ZM-9.39815 218L-9.05577 218.364L11.9637 198.614L11.6213 198.25L11.2789 197.886L-9.74053 217.636L-9.39815 218ZM11.6213 198.25L11.9637 198.614L32.9832 178.864L32.6408 178.5L32.2984 178.136L11.2789 197.886L11.6213 198.25ZM8.40094 162.5L7.90296 162.545L11.1233 198.295L11.6213 198.25L12.1193 198.205L8.89892 162.455L8.40094 162.5ZM11.6213 198.25L11.1249 198.31L13.5036 218.06L14 218L14.4964 217.94L12.1177 198.19L11.6213 198.25ZM135 146.843V146.343H120.5V146.843V147.343H135V146.843ZM60 180.5L60.4828 180.63L63.9828 167.63L63.5 167.5L63.0172 167.37L59.5172 180.37L60 180.5ZM298.859 185L298.656 185.457C299.612 185.882 301.104 186.955 302.674 188.566C304.236 190.169 305.845 192.274 307.051 194.73L307.5 194.509L307.949 194.289C306.689 191.724 305.014 189.535 303.39 187.868C301.775 186.21 300.18 185.04 299.062 184.543L298.859 185ZM334 221.5L333.607 221.809L338.851 228.497L339.244 228.188L339.638 227.879L334.393 221.191L334 221.5ZM332 202L331.571 202.257L340.571 217.257L341 217L341.429 216.743L332.429 201.743L332 202ZM59.5 300.5L59.1159 300.82C60.4004 302.362 62.4328 304.135 64.6869 305.967C65.8179 306.885 67.0127 307.825 68.2069 308.763C69.4024 309.702 70.5971 310.639 71.7332 311.557C74.0125 313.397 76.0262 315.137 77.3161 316.625C77.9631 317.372 78.399 318.023 78.6063 318.566C78.8101 319.1 78.7692 319.455 78.5889 319.715L79 320L79.4111 320.285C79.8458 319.657 79.8129 318.923 79.5405 318.21C79.2716 317.505 78.747 316.75 78.0718 315.971C76.7173 314.407 74.6398 312.619 72.3616 310.779C71.219 309.856 70.0184 308.914 68.8246 307.977C67.6296 307.038 66.4411 306.103 65.3174 305.19C63.0622 303.358 61.0996 301.638 59.8841 300.18L59.5 300.5ZM57.9054 320L57.5826 320.382C60.1213 322.529 67.8612 325.318 79.197 320.46L79 320L78.803 319.54C67.7388 324.282 60.4193 321.471 58.2283 319.618L57.9054 320ZM43.3452 317.953L43.8449 317.972C43.9514 315.133 44.8716 310.866 47.2685 307.325C49.6496 303.808 53.4873 301 59.5 301V300.5V300C53.1127 300 48.9822 303.01 46.4404 306.765C43.9145 310.496 42.9573 314.956 42.8456 317.935L43.3452 317.953ZM54 342.519L53.5208 342.661C54.4505 345.785 56.4607 350.535 59.4841 354.665C62.5006 358.785 66.5879 362.372 71.6892 362.996L71.75 362.5L71.8108 362.004C67.1121 361.428 63.2411 358.104 60.2909 354.074C57.3477 350.054 55.3829 345.413 54.4792 342.376L54 342.519ZM43.3452 351L43.8351 351.1C44.2849 348.897 44.6318 345.487 44.1996 342.406C43.7723 339.358 42.5449 336.414 39.647 335.522L39.5 336L39.353 336.478C41.6551 337.186 42.7928 339.575 43.2093 342.544C43.6209 345.479 43.2905 348.769 42.8554 350.9L43.3452 351ZM33 326L32.5014 326.038C32.7752 329.678 32.7543 335.127 31.8138 339.648C31.3428 341.912 30.6498 343.9 29.6803 345.311C28.7203 346.707 27.5205 347.5 26 347.5V348V348.5C27.9414 348.5 29.4165 347.46 30.5043 345.877C31.5826 344.308 32.3103 342.171 32.7928 339.852C33.7592 335.206 33.7763 329.655 33.4986 325.962L33 326ZM245.132 276.066L245.103 276.565L269.971 277.999L270 277.5L270.029 277.001L245.16 275.567L245.132 276.066ZM262.5 295.5L262.22 295.914C263.594 296.844 264.948 298.124 266.404 299.541C267.851 300.949 269.393 302.485 271.11 303.876C274.56 306.669 278.766 308.911 284.536 308.499L284.5 308L284.464 307.501C279.034 307.889 275.073 305.797 271.74 303.099C270.066 301.744 268.562 300.245 267.102 298.824C265.652 297.414 264.239 296.073 262.78 295.086L262.5 295.5ZM239.5 314L239.442 314.497C242.955 314.905 248.478 316.481 253.56 319.878C258.633 323.27 263.247 328.463 265.013 336.112L265.5 336L265.987 335.888C264.153 327.937 259.351 322.547 254.115 319.047C248.889 315.552 243.211 313.928 239.558 313.503L239.5 314ZM208 314L208.121 314.485C211.506 313.642 216.583 311.798 220.825 308.992C225.048 306.199 228.579 302.36 228.579 297.5H228.079H227.579C227.579 301.84 224.417 305.417 220.274 308.158C216.15 310.885 211.186 312.691 207.879 313.515L208 314ZM190 262L189.608 262.311C191.487 264.679 193.739 268.7 194.393 273.037C195.044 277.348 194.119 281.949 189.682 285.615L190 286L190.318 286.385C195.081 282.451 196.073 277.469 195.382 272.888C194.695 268.333 192.347 264.154 190.392 261.689L190 262ZM230.5 266L230.217 266.412L244.848 276.478L245.132 276.066L245.415 275.654L230.783 265.588L230.5 266ZM230.5 266L230.039 265.807C229.158 267.909 227.312 271.006 224.659 273.428C222.011 275.845 218.604 277.552 214.567 277.005L214.5 277.5L214.433 277.995C218.859 278.596 222.549 276.708 225.333 274.166C228.113 271.629 230.035 268.402 230.961 266.193L230.5 266ZM231.5 98.5L231.071 98.7572C231.798 99.9691 232.608 101.865 232.713 103.618C232.766 104.488 232.643 105.291 232.284 105.954C231.93 106.607 231.325 107.168 230.329 107.53L230.5 108L230.671 108.47C231.875 108.032 232.682 107.318 233.163 106.43C233.638 105.553 233.771 104.549 233.712 103.557C233.592 101.585 232.702 99.5309 231.929 98.2428L231.5 98.5ZM207 110L206.878 109.515C205.485 109.867 203.522 110.786 202.15 112.43C200.753 114.102 200.003 116.49 201.024 119.654L201.5 119.5L201.976 119.346C201.06 116.51 201.74 114.481 202.917 113.07C204.12 111.63 205.875 110.8 207.122 110.485L207 110ZM211.5 132.876C211.411 132.383 211.411 132.383 211.411 132.383C211.411 132.383 211.411 132.383 211.411 132.384C211.411 132.384 211.41 132.384 211.41 132.384C211.408 132.384 211.406 132.384 211.403 132.385C211.397 132.386 211.387 132.388 211.374 132.39C211.348 132.394 211.309 132.401 211.258 132.409C211.155 132.425 211.002 132.449 210.806 132.475C210.414 132.528 209.849 132.595 209.165 132.646C207.795 132.75 205.955 132.796 204.06 132.566C200.232 132.103 196.414 130.56 195.488 126.392L195 126.5L194.512 126.608C195.586 131.44 200.018 133.085 203.94 133.559C205.92 133.799 207.83 133.75 209.241 133.644C209.947 133.59 210.531 133.521 210.94 133.466C211.144 133.439 211.305 133.414 211.415 133.397C211.471 133.388 211.513 133.381 211.542 133.376C211.557 133.373 211.568 133.371 211.576 133.37C211.58 133.369 211.583 133.369 211.585 133.368C211.586 133.368 211.587 133.368 211.588 133.368C211.588 133.368 211.588 133.368 211.589 133.368C211.589 133.368 211.589 133.368 211.5 132.876ZM339.244 228.188L338.851 228.497C342.82 233.559 349.237 236.05 355.582 234.993L355.5 234.5L355.418 234.007C349.433 235.004 343.382 232.654 339.638 227.879L339.244 228.188ZM107.567 143.308L107.083 143.431C107.12 143.578 107.094 143.714 107.017 143.824L107.425 144.113L107.832 144.402C108.09 144.039 108.157 143.599 108.052 143.184L107.567 143.308Z" fill="#6B5F8D"/>
<path d="M68.5881 79.2096C71.6702 77.6462 74.7622 76.8807 77.2562 76.8865C79.7806 76.8924 81.536 77.6775 82.2186 79.0231C82.9012 80.3686 82.4978 82.2488 81.0114 84.2893C79.5429 86.3051 77.0989 88.348 74.0169 89.9114C70.9349 91.4748 67.8429 92.2403 65.3489 92.2345C62.8244 92.2286 61.0691 91.4435 60.3865 90.098C59.7039 88.7524 60.1072 86.8722 61.5936 84.8317C63.0621 82.8159 65.5061 80.773 68.5881 79.2096Z" fill="#FFE6A7"/>
<path d="M68.5881 79.2096C71.6702 77.6462 74.7622 76.8807 77.2562 76.8865C79.7806 76.8924 81.536 77.6775 82.2186 79.0231C82.9012 80.3686 82.4978 82.2488 81.0114 84.2893C79.5429 86.3051 77.0989 88.348 74.0169 89.9114C70.9349 91.4748 67.8429 92.2403 65.3489 92.2345C62.8244 92.2286 61.0691 91.4435 60.3865 90.098C59.7039 88.7524 60.1072 86.8722 61.5936 84.8317C63.0621 82.8159 65.5061 80.773 68.5881 79.2096Z" fill="#688ACD" fill-opacity="0.4"/>
<path d="M68.5881 79.2096C71.6702 77.6462 74.7622 76.8807 77.2562 76.8865C79.7806 76.8924 81.536 77.6775 82.2186 79.0231C82.9012 80.3686 82.4978 82.2488 81.0114 84.2893C79.5429 86.3051 77.0989 88.348 74.0169 89.9114C70.9349 91.4748 67.8429 92.2403 65.3489 92.2345C62.8244 92.2286 61.0691 91.4435 60.3865 90.098C59.7039 88.7524 60.1072 86.8722 61.5936 84.8317C63.0621 82.8159 65.5061 80.773 68.5881 79.2096Z" stroke="black"/>
<path d="M191.822 31.7458C195.171 30.8938 198.356 30.8226 200.788 31.3733C203.25 31.9308 204.791 33.0806 205.163 34.5428C205.535 36.005 204.731 37.7516 202.835 39.4179C200.961 41.064 198.13 42.5233 194.78 43.3754C191.431 44.2274 188.247 44.2986 185.814 43.7479C183.352 43.1904 181.811 42.0407 181.439 40.5784C181.067 39.1162 181.871 37.3696 183.768 35.7033C185.641 34.0572 188.473 32.5979 191.822 31.7458Z" fill="#FFE6A7"/>
<path d="M191.822 31.7458C195.171 30.8938 198.356 30.8226 200.788 31.3733C203.25 31.9308 204.791 33.0806 205.163 34.5428C205.535 36.005 204.731 37.7516 202.835 39.4179C200.961 41.064 198.13 42.5233 194.78 43.3754C191.431 44.2274 188.247 44.2986 185.814 43.7479C183.352 43.1904 181.811 42.0407 181.439 40.5784C181.067 39.1162 181.871 37.3696 183.768 35.7033C185.641 34.0572 188.473 32.5979 191.822 31.7458Z" fill="#688ACD" fill-opacity="0.4"/>
<path d="M191.822 31.7458C195.171 30.8938 198.356 30.8226 200.788 31.3733C203.25 31.9308 204.791 33.0806 205.163 34.5428C205.535 36.005 204.731 37.7516 202.835 39.4179C200.961 41.064 198.13 42.5233 194.78 43.3754C191.431 44.2274 188.247 44.2986 185.814 43.7479C183.352 43.1904 181.811 42.0407 181.439 40.5784C181.067 39.1162 181.871 37.3696 183.768 35.7033C185.641 34.0572 188.473 32.5979 191.822 31.7458Z" stroke="black"/>
<path d="M337.204 4.48699C340.633 4.05749 343.801 4.38236 346.147 5.23092C348.52 6.08984 349.907 7.42214 350.095 8.91925C350.282 10.4164 349.267 12.0495 347.178 13.4673C345.115 14.8681 342.124 15.9645 338.695 16.394C335.266 16.8235 332.097 16.4986 329.752 15.65C327.378 14.7911 325.991 13.4588 325.804 11.9617C325.616 10.4646 326.632 8.83144 328.72 7.41359C330.784 6.01283 333.774 4.91649 337.204 4.48699Z" fill="#FFE6A7"/>
<path d="M337.204 4.48699C340.633 4.05749 343.801 4.38236 346.147 5.23092C348.52 6.08984 349.907 7.42214 350.095 8.91925C350.282 10.4164 349.267 12.0495 347.178 13.4673C345.115 14.8681 342.124 15.9645 338.695 16.394C335.266 16.8235 332.097 16.4986 329.752 15.65C327.378 14.7911 325.991 13.4588 325.804 11.9617C325.616 10.4646 326.632 8.83144 328.72 7.41359C330.784 6.01283 333.774 4.91649 337.204 4.48699Z" fill="#688ACD" fill-opacity="0.4"/>
<path d="M337.204 4.48699C340.633 4.05749 343.801 4.38236 346.147 5.23092C348.52 6.08984 349.907 7.42214 350.095 8.91925C350.282 10.4164 349.267 12.0495 347.178 13.4673C345.115 14.8681 342.124 15.9645 338.695 16.394C335.266 16.8235 332.097 16.4986 329.752 15.65C327.378 14.7911 325.991 13.4588 325.804 11.9617C325.616 10.4646 326.632 8.83144 328.72 7.41359C330.784 6.01283 333.774 4.91649 337.204 4.48699Z" stroke="black"/>
</g>
<defs>
<clipPath id="clip0_232_1048">
<rect width="384" height="384" fill="white"/>
</clipPath>
</defs>
</svg>
