<svg width="384" height="384" viewBox="0 0 384 384" fill="none" xmlns="http://www.w3.org/2000/svg">
<g clip-path="url(#clip0_232_772)">
<rect width="384" height="384" fill="#5978B6"/>
<ellipse cx="92.0017" cy="40.4999" rx="82" ry="25.5" transform="rotate(-16.0319 92.0017 40.4999)" fill="#7094D9" fill-opacity="0.56"/>
<ellipse cx="223.492" cy="29.9295" rx="52.0466" ry="16.1852" transform="rotate(-16.0319 223.492 29.9295)" fill="#6688CA"/>
<ellipse cx="143.685" cy="68.8536" rx="29.3081" ry="9.11411" transform="rotate(-16.0319 143.685 68.8536)" fill="#799EE7" fill-opacity="0.31"/>
<ellipse cx="260.685" cy="60.8536" rx="29.3081" ry="9.11411" transform="rotate(-16.0319 260.685 60.8536)" fill="#799EE7" fill-opacity="0.31"/>
<ellipse cx="28.9507" cy="15.7761" rx="26.2186" ry="8.15336" transform="rotate(-16.0319 28.9507 15.7761)" fill="#799EE7" fill-opacity="0.47"/>
<ellipse cx="335.492" cy="27.9295" rx="52.0466" ry="16.1852" transform="rotate(-16.0319 335.492 27.9295)" fill="#799EE7" fill-opacity="0.47"/>
<path d="M313.022 62.374C340.649 54.4356 365.046 54.9654 367.515 63.5566C367.848 64.717 367.761 65.9639 367.299 67.2744L330.5 392.5H189L267.372 91.9053C265.628 83.303 285.819 70.1907 313.022 62.374Z" fill="#799EE7" fill-opacity="0.47"/>
<path d="M176.022 74.374C203.649 66.4356 228.046 66.9654 230.515 75.5566C231.017 77.3057 230.571 79.2535 229.311 81.3145L136 395H-5.5L130.275 103.132C129.827 94.5334 149.623 81.96 176.022 74.374Z" fill="#799EE7" fill-opacity="0.47"/>
<path d="M-61 411.5H-202.5L30 106.5L113 96L-61 411.5Z" fill="#799EE7" fill-opacity="0.47"/>
<ellipse cx="317.492" cy="77.93" rx="52.0466" ry="16.1852" transform="rotate(-16.0319 317.492 77.93)" fill="#799EE7" fill-opacity="0.47"/>
<ellipse cx="180.492" cy="89.93" rx="52.0466" ry="16.1852" transform="rotate(-16.0319 180.492 89.93)" fill="#799EE7" fill-opacity="0.29"/>
<ellipse cx="69.7379" cy="98.2361" rx="43.6463" ry="13.716" transform="rotate(-14.6153 69.7379 98.2361)" fill="#7595D6"/>
<path d="M237.781 88.9719C237.928 91.0915 238.203 93.9121 238.541 96.4916C238.751 98.0889 238.984 99.5889 239.224 100.769C239.343 101.36 239.464 101.865 239.583 102.261C239.705 102.669 239.816 102.924 239.902 103.043C239.949 103.108 240.105 103.212 240.471 103.301C240.816 103.385 241.279 103.441 241.842 103.47C242.968 103.527 244.441 103.477 246.054 103.375C247.666 103.274 249.406 103.12 251.063 102.972C252.108 102.879 253.121 102.787 254.045 102.713C247.247 100.061 241.532 95.2332 237.781 88.9719ZM206.641 113.835C204.186 116.691 202.66 120.23 202.276 123.98L201.799 128.633C201.795 128.67 201.785 128.708 201.769 128.742C200.431 131.509 200.173 134.397 200.322 137.43C200.396 138.947 200.572 140.495 200.762 142.08C200.931 143.48 201.108 144.91 201.238 146.363L206.31 142.736C206.456 142.632 206.659 142.666 206.763 142.812C206.867 142.958 206.834 143.161 206.688 143.265L202.136 146.519C216.127 144.969 228.22 135.689 233.367 122.439L234.522 119.467C234.544 119.412 234.58 119.364 234.627 119.327L239.916 115.245L236.551 115.536C236.44 115.545 236.332 115.496 236.264 115.406C236.197 115.317 236.18 115.199 236.221 115.094L239.255 107.286C239.283 107.214 239.334 107.156 239.4 107.12L239.47 107.091L252.248 103.519C251.879 103.552 251.502 103.585 251.12 103.619C249.465 103.767 247.717 103.922 246.096 104.024C244.477 104.126 242.973 104.178 241.809 104.118C241.228 104.089 240.719 104.031 240.316 103.933C239.935 103.84 239.57 103.693 239.375 103.424C239.219 103.209 239.084 102.859 238.961 102.449C238.834 102.026 238.709 101.499 238.587 100.898C238.343 99.6968 238.108 98.1804 237.897 96.5761C237.67 94.8468 237.472 93.0087 237.32 91.3424L235.98 104.599C235.967 104.719 235.889 104.822 235.777 104.868L229.255 107.498C229.168 107.533 229.07 107.529 228.987 107.486C228.903 107.444 228.842 107.368 228.819 107.278L228.184 104.798L221.672 110.537C221.644 110.561 221.612 110.58 221.578 110.594L220.831 110.895C220.826 110.897 220.82 110.9 220.815 110.902L220.813 110.902C220.811 110.903 220.808 110.904 220.804 110.905C220.796 110.908 220.785 110.911 220.77 110.916C220.74 110.927 220.696 110.944 220.638 110.965C220.522 111.007 220.353 111.068 220.141 111.149C219.719 111.312 219.127 111.549 218.456 111.848C217.116 112.444 215.476 113.279 214.216 114.245L206.736 122.223C206.613 122.354 206.408 122.36 206.277 122.238C206.146 122.115 206.139 121.909 206.261 121.778L213.294 114.278L206.641 113.835ZM209.691 128.603C209.635 128.433 209.727 128.248 209.897 128.192C210.115 128.119 210.393 128.144 210.696 128.239C211.008 128.337 211.383 128.522 211.82 128.82C212.695 129.416 213.844 130.485 215.257 132.301C216.71 134.169 217.026 135.966 216.809 137.46C216.594 138.94 215.857 140.103 215.229 140.73C215.103 140.857 214.897 140.857 214.77 140.73C214.643 140.603 214.643 140.398 214.77 140.271C215.309 139.732 215.973 138.694 216.166 137.367C216.357 136.052 216.09 134.432 214.744 132.7C213.356 130.917 212.255 129.902 211.454 129.357C211.054 129.084 210.736 128.933 210.501 128.859C210.257 128.783 210.134 128.798 210.103 128.809C209.932 128.866 209.748 128.773 209.691 128.603Z" fill="#9BCCD7" stroke="black" stroke-width="0.65" stroke-linecap="round" stroke-linejoin="round"/>
<circle cx="2.08578" cy="2.08578" r="1.76078" transform="matrix(-0.76731 0.641276 0.641276 0.76731 205.918 129.6)" fill="#FFE6A7" stroke="black" stroke-width="0.65"/>
<path d="M81.9829 293.055L97.3466 285.663C95.3431 285.36 93.3871 284.875 91.5 284.219C89.5884 283.554 87.7476 282.714 86 281.712C84.23 280.697 82.5556 279.516 81 278.182C79.454 276.856 78.0253 275.379 76.7367 273.764L77.986 290.354L72.9296 294.772L70.9995 288.5C70.8328 289.166 70.3995 291.1 69.9995 293.5C69.7809 294.811 69.851 296.183 70.014 297.32L65.7447 301.051C61.2805 304.952 58.9995 302 58.9995 302L57.4995 308L54.9995 301L55.4383 315.48C52.2922 323.179 51.6611 331.833 53.9462 340.114L57.5699 337.1L54.7072 343.029C69.9905 338.821 80.8398 325.059 81.4076 309.161L81.756 299.407L85.4995 294L81.9024 295.308L81.9829 293.055Z" fill="#9BCCD7"/>
<path d="M97.3466 285.663L81.9829 293.055L81.9024 295.308L85.4995 294L81.756 299.407L81.4076 309.161C80.8398 325.059 69.9905 338.821 54.7072 343.029L57.5699 337.1L53.9462 340.114C51.6611 331.833 52.2922 323.179 55.4383 315.48L54.9995 301L57.4995 308L58.9995 302C58.9995 302 61.2805 304.952 65.7447 301.051L70.014 297.32C69.851 296.183 69.7809 294.811 69.9995 293.5C70.3995 291.1 70.8328 289.166 70.9995 288.5L72.9296 294.772L77.986 290.354L76.7367 273.764M97.3466 285.663L83.9653 289.503C82.3412 289.969 80.6527 289.002 80.2322 287.366L76.7367 273.764M97.3466 285.663C95.3431 285.36 93.3871 284.875 91.5 284.219M76.7367 273.764C78.0253 275.379 79.454 276.856 81 278.182M81 278.182V288.5M81 278.182C82.5556 279.516 84.23 280.697 86 281.712C87.7476 282.714 89.5884 283.554 91.5 284.219M91.5 284.219L82.5 289.499" stroke="black" stroke-width="0.65" stroke-linecap="round" stroke-linejoin="round"/>
<path d="M69.5 299L58 311L71.5 299H69.5Z" fill="#D9D9D9"/>
<path d="M55.5 323C58 321.833 64.7 320.4 67.5 324C70.3 327.6 69.5 332.5 68.5 335.5" stroke="black" stroke-width="0.65" stroke-linecap="round" stroke-linejoin="round"/>
<path d="M131 57.069L131.329 56.6926L130.664 56.1105L130.508 56.9809L131 57.069ZM259 23L259.388 22.6844L258.797 21.9588L258.522 22.853L259 23ZM366.5 38.5L366.64 38.98L366.64 38.98L366.5 38.5ZM20 118.5L20.3153 118.112L19.6042 117.534L19.5031 118.445L20 118.5ZM77 175.5L77.4044 175.794C77.4874 175.68 77.5183 175.536 77.4894 175.398C77.4605 175.259 77.3745 175.14 77.2526 175.068L77 175.5ZM69.5 297.5L69.3348 297.972L69.3719 297.985L69.4106 297.992L69.5 297.5ZM78 304L78.3737 303.668L78.3737 303.668L78 304ZM79 320L78.5889 319.715L78.5258 319.807L78.5071 319.916L79 320ZM75 389.5L74.5036 389.56L74.6042 390.396L75.2901 389.907L75 389.5ZM117.5 164.5L117.854 164.854L117.979 164.729L117.997 164.553L117.5 164.5ZM81 163.5L80.5794 163.77L81 163.5ZM88 179L87.5017 179.042L87.5017 179.042L88 179ZM100.435 164.145L99.9387 164.202C99.9399 164.213 99.9416 164.224 99.9436 164.235L100.435 164.145ZM100.325 164.814L99.8873 164.573L99.8873 164.573L100.325 164.814ZM166 388.5H165.5V389.101L166.091 388.992L166 388.5ZM45 145.5V145H44.8535L44.7302 145.079L45 145.5ZM124 107L123.744 106.57L123.653 106.625L123.592 106.711L124 107ZM152.528 90L152.615 89.5078L152.432 89.475L152.272 89.5705L152.528 90ZM36.3641 173L36.1096 172.57L35.9958 172.637L35.9302 172.752L36.3641 173ZM57.5 160.5L57.591 160.008L57.4068 159.974L57.2455 160.07L57.5 160.5ZM121 134.5L120.723 134.084L120.698 134.1L120.676 134.119L121 134.5ZM153.234 113L153.21 112.501L153.072 112.507L152.957 112.584L153.234 113ZM63.5 329L63.9983 328.958L63.5 329ZM54 386.5L54.2415 386.938C54.3045 386.903 54.3592 386.855 54.402 386.797L54 386.5ZM8.85497 162.291C8.73931 162.04 8.44228 161.93 8.19152 162.046C7.94077 162.162 7.83125 162.459 7.94691 162.709L8.40094 162.5L8.85497 162.291ZM34 218L34.4849 218.122C34.5128 218.011 34.5019 217.894 34.454 217.791L34 218ZM25 402.5L24.5106 402.397C24.4705 402.589 24.5456 402.786 24.7027 402.902C24.8599 403.018 25.0704 403.032 25.2415 402.938L25 402.5ZM199.5 132.5L199.522 133L199.873 132.984L199.977 132.649L199.5 132.5ZM129.5 171L129.461 171.498L129.506 171.502L129.552 171.497L129.5 171ZM75.5 179.5L75.315 179.035L75.2685 179.054L75.2266 179.081L75.5 179.5ZM105 171L104.938 170.504L104.938 170.504L105 171ZM151.999 75.4769C151.987 75.2011 151.753 74.9878 151.477 75.0005C151.201 75.0133 150.988 75.2472 151.001 75.5231L151.5 75.5L151.999 75.4769ZM147 169L146.511 168.897C146.477 169.058 146.524 169.225 146.637 169.344L147 169ZM296.56 394.737C296.691 394.98 296.994 395.071 297.237 394.94C297.48 394.809 297.571 394.506 297.44 394.263L297 394.5L296.56 394.737ZM172.976 75.3466C172.891 75.0837 172.609 74.9394 172.347 75.0241C172.084 75.1089 171.939 75.3906 172.024 75.6534L172.5 75.5L172.976 75.3466ZM191 132.876L191.499 132.908C191.503 132.845 191.495 132.782 191.476 132.722L191 132.876ZM189 163.5L188.501 163.467C188.494 163.582 188.526 163.696 188.592 163.79L189 163.5ZM383.143 412.35C383.337 412.547 383.653 412.55 383.85 412.357C384.047 412.163 384.05 411.847 383.857 411.65L383.5 412L383.143 412.35ZM412.271 374.944C412.516 375.071 412.818 374.975 412.944 374.729C413.071 374.484 412.975 374.182 412.729 374.056L412.5 374.5L412.271 374.944ZM236.5 97.2162L236.751 97.6485L236.751 97.6485L236.5 97.2162ZM396.442 326.997C396.717 327.029 396.965 326.832 396.997 326.558C397.029 326.283 396.832 326.035 396.558 326.003L396.5 326.5L396.442 326.997ZM304 210.5L304.182 210.034C304.147 210.021 304.11 210.011 304.073 210.005L304 210.5ZM390.7 308.9C390.921 309.066 391.234 309.021 391.4 308.8C391.566 308.579 391.521 308.266 391.3 308.1L391 308.5L390.7 308.9ZM315.5 215L315.318 215.466C315.338 215.473 315.358 215.48 315.379 215.485L315.5 215ZM390.736 262.424C390.97 262.57 391.279 262.499 391.424 262.264C391.57 262.03 391.499 261.721 391.264 261.576L391 262L390.736 262.424ZM-10.4213 313.231C-10.57 313.463 -10.502 313.773 -10.2693 313.921C-10.0366 314.07 -9.72745 314.002 -9.57872 313.769L-10 313.5L-10.4213 313.231ZM388.224 224.917C388.454 225.069 388.765 225.006 388.917 224.776C389.069 224.546 389.006 224.235 388.776 224.083L388.5 224.5L388.224 224.917ZM390.707 242.905C390.931 243.067 391.244 243.017 391.405 242.793C391.567 242.569 391.517 242.256 391.293 242.095L391 242.5L390.707 242.905ZM342 42.1037L341.962 41.6052L342 42.1037ZM-4.68741 180.5L-5.0514 180.157L-4.68741 180.5ZM2.9352 393.88C2.86886 394.148 3.03239 394.419 3.30044 394.485C3.5685 394.552 3.83958 394.388 3.90592 394.12L3.42056 394L2.9352 393.88ZM-14.2956 326.097C-14.5183 326.26 -14.5665 326.573 -14.4032 326.796C-14.24 327.018 -13.9271 327.067 -13.7044 326.903L-14 326.5L-14.2956 326.097ZM-10.3065 348.605C-10.5247 348.774 -10.5643 349.088 -10.3951 349.306C-10.2258 349.525 -9.91173 349.564 -9.69354 349.395L-10 349L-10.3065 348.605ZM-10.2941 368.096C-10.5174 368.258 -10.5668 368.571 -10.4044 368.794C-10.2419 369.017 -9.92924 369.067 -9.70591 368.904L-10 368.5L-10.2941 368.096ZM388.255 277.936C388.495 278.071 388.8 277.986 388.936 277.745C389.071 277.505 388.986 277.2 388.745 277.064L388.5 277.5L388.255 277.936ZM-6.25834 386.072C-6.49477 386.215 -6.57077 386.522 -6.42809 386.758C-6.28541 386.995 -5.97809 387.071 -5.74166 386.928L-6 386.5L-6.25834 386.072ZM400.898 286.489C401.168 286.546 401.433 286.373 401.489 286.102C401.546 285.832 401.373 285.567 401.102 285.511L401 286L400.898 286.489ZM394 344L394.037 344.499C394.258 344.482 394.441 344.323 394.488 344.107C394.536 343.891 394.436 343.67 394.243 343.563L394 344ZM78.9016 232L79.3984 232.057L78.9016 232ZM384 257.642L383.725 258.06L383.736 258.067L384 257.642ZM325.5 196.048L325.117 196.37C325.135 196.391 325.154 196.41 325.175 196.428L325.5 196.048ZM323.5 217L323.785 216.589C323.735 216.555 323.68 216.53 323.621 216.515L323.5 217ZM239.995 107.429C239.956 107.156 239.703 106.966 239.429 107.005C239.156 107.044 238.966 107.297 239.005 107.571L239.5 107.5L239.995 107.429ZM-17 159.5L-16.6009 159.801C8.99643 125.893 63.2315 70.4574 200.422 36.085L200.3 35.6L200.178 35.115C62.7685 69.5426 8.3369 125.107 -17.3991 159.199L-17 159.5ZM200.3 35.6L200.422 36.085C269.042 18.8923 320.151 12.2039 356.128 8.39722C374.106 6.49494 388.339 5.30919 399.069 3.89257C404.437 3.18379 408.949 2.41479 412.632 1.46421C416.31 0.514849 419.195 -0.623949 421.287 -2.09058L421 -2.5L420.713 -2.90942C418.763 -1.54272 416.011 -0.440891 412.382 0.495945C408.757 1.43157 404.291 2.19433 398.938 2.90118C388.223 4.3158 374.036 5.49672 356.022 7.40277C320.015 11.2128 268.858 17.9077 200.178 35.115L200.3 35.6ZM131 57.069L130.671 57.4453L151.171 75.3763L151.5 75L151.829 74.6237L131.329 56.6926L131 57.069ZM151.5 75L151.55 75.4975C154.008 75.2517 156.849 75.3333 160.209 75.5008C163.56 75.6679 167.418 75.9196 171.866 76.0038C180.772 76.1724 192.062 75.6702 206.607 72.4885L206.5 72L206.393 71.5115C191.938 74.6735 180.728 75.1714 171.884 75.004C167.457 74.9202 163.627 74.67 160.259 74.5021C156.901 74.3347 153.992 74.2483 151.45 74.5025L151.5 75ZM251 49L251.478 49.147L259.478 23.147L259 23L258.522 22.853L250.522 48.853L251 49ZM259 23L258.612 23.3156L276.112 44.8156L276.5 44.5L276.888 44.1844L259.388 22.6844L259 23ZM366.5 38.5L366.64 38.98C376.277 36.1691 382.826 32.9835 387.103 30.1283C389.241 28.7008 390.815 27.353 391.924 26.1719C393.026 24.9975 393.689 23.9658 393.971 23.1664L393.5 23L393.029 22.8336C392.811 23.4509 392.249 24.365 391.195 25.4875C390.147 26.6033 388.634 27.9033 386.547 29.2967C382.374 32.0832 375.923 35.2309 366.36 38.02L366.5 38.5ZM131 57.069L130.508 56.9809L125.508 84.9119L126 85L126.492 85.0881L131.492 57.1571L131 57.069ZM126 85L125.663 84.631C119.802 89.9896 103.29 106.901 83.7519 118.066L84 118.5L84.2481 118.934C103.91 107.699 120.532 90.677 126.337 85.369L126 85ZM84 118.5L83.7519 118.066C74.0116 123.632 63.3155 126.909 54.4224 128.773C45.524 130.638 38.4656 131.082 36.0167 131L36 131.5L35.9833 132C38.5344 132.085 45.676 131.628 54.6276 129.752C63.5845 127.874 74.3884 124.568 84.2481 118.934L84 118.5ZM36 131.5L36.3153 131.112L20.3153 118.112L20 118.5L19.6847 118.888L35.6847 131.888L36 131.5ZM20 118.5L19.5031 118.445L16.5031 145.445L17 145.5L17.4969 145.555L20.4969 118.555L20 118.5ZM17 145.5L17.2966 145.903L36.2966 131.903L36 131.5L35.7034 131.097L16.7034 145.097L17 145.5ZM126 85L126.183 85.4655L151.683 75.4655L151.5 75L151.317 74.5345L125.817 84.5345L126 85ZM251 49L251.087 49.4924L276.587 44.9924L276.5 44.5L276.413 44.0076L250.913 48.5076L251 49ZM35 130.5L34.5818 130.774C44.0755 145.264 56.1324 163.864 76.7474 175.932L77 175.5L77.2526 175.068C56.8676 163.136 44.9245 144.736 35.4182 130.226L35 130.5ZM77 175.5L76.5956 175.206C75.5727 176.612 75.1907 177.558 75.172 178.474C75.1629 178.921 75.241 179.333 75.3349 179.743C75.4314 180.163 75.5418 180.572 75.6326 181.087C75.9842 183.079 76.0207 186.602 72.5358 195.314L73 195.5L73.4642 195.686C76.9793 186.898 77.0158 183.171 76.6174 180.913C76.5207 180.365 76.3967 179.899 76.3096 179.519C76.22 179.128 76.1653 178.814 76.1718 178.495C76.1843 177.88 76.4273 177.138 77.4044 175.794L77 175.5ZM69.5 297.5L69.4106 297.992C70.4837 298.187 70.7777 297.975 71.7631 298.588C72.785 299.224 74.4071 300.711 77.6263 304.332L78 304L78.3737 303.668C75.1654 300.058 73.4541 298.462 72.2913 297.739C71.0918 296.993 70.3496 297.146 69.5894 297.008L69.5 297.5ZM78 304L77.6263 304.332C79.5011 306.441 80.1242 309.743 80.0626 312.865C80.032 314.414 79.8332 315.89 79.5519 317.106C79.267 318.338 78.909 319.253 78.5889 319.715L79 320L79.4111 320.285C79.841 319.664 80.233 318.599 80.5262 317.331C80.8231 316.048 81.0305 314.503 81.0624 312.885C81.1258 309.673 80.4989 306.059 78.3737 303.668L78 304ZM126 84.5L125.503 84.4472L117.003 164.447L117.5 164.5L117.997 164.553L126.497 84.5528L126 84.5ZM117.5 164.5L117.146 164.146C115.804 165.489 113.844 167.598 112.371 170.042C110.904 172.475 109.868 175.324 110.511 178.112L110.998 178L111.485 177.888C110.929 175.476 111.81 172.909 113.227 170.558C114.638 168.219 116.53 166.178 117.854 164.854L117.5 164.5ZM110.998 178L110.511 178.112C111.75 183.482 115.499 186.559 117.275 187.447L117.498 187L117.722 186.553C116.164 185.774 112.646 182.918 111.485 177.888L110.998 178ZM190 262L189.867 262.482C191.156 262.837 192.432 263.851 193.681 265.451C194.924 267.045 196.102 269.171 197.207 271.664C199.416 276.647 201.298 283.014 202.827 289.306C204.354 295.593 205.524 301.784 206.312 306.404C206.706 308.714 207.004 310.631 207.204 311.969C207.304 312.639 207.379 313.163 207.429 313.52C207.454 313.699 207.473 313.836 207.486 313.928C207.492 313.974 207.497 314.008 207.5 314.031C207.501 314.043 207.502 314.052 207.503 314.058C207.504 314.06 207.504 314.063 207.504 314.064C207.504 314.065 207.504 314.065 207.504 314.066C207.504 314.066 207.504 314.066 208 314C208.496 313.934 208.496 313.934 208.496 313.933C208.495 313.933 208.495 313.932 208.495 313.932C208.495 313.93 208.495 313.928 208.494 313.925C208.494 313.919 208.492 313.91 208.491 313.898C208.488 313.874 208.483 313.839 208.476 313.792C208.464 313.699 208.445 313.561 208.419 313.381C208.369 313.021 208.293 312.494 208.193 311.822C207.992 310.477 207.693 308.554 207.298 306.236C206.507 301.602 205.333 295.387 203.798 289.069C202.265 282.757 200.366 276.322 198.121 271.258C196.999 268.727 195.783 266.519 194.469 264.836C193.161 263.159 191.719 261.955 190.133 261.518L190 262ZM208 314L207.517 314.129L217.017 349.629L217.5 349.5L217.983 349.371L208.483 313.871L208 314ZM64 126.5L63.5409 126.698C65.3685 130.935 68.439 138.356 71.6366 145.619C74.8312 152.875 78.1799 160.038 80.5794 163.77L81 163.5L81.4206 163.23C79.0713 159.575 75.7533 152.488 72.5518 145.216C69.3533 137.951 66.2982 130.565 64.4591 126.302L64 126.5ZM81 163.5L80.5794 163.77C82.8896 167.364 85.2364 168.695 87.1126 169.231C88.0362 169.495 88.8316 169.561 89.3823 169.622C89.6698 169.654 89.8588 169.681 89.9872 169.721C90.1151 169.759 90.0808 169.78 90.0528 169.724L90.5 169.5L90.9472 169.276C90.7942 168.97 90.5099 168.834 90.2784 168.764C90.0475 168.694 89.7677 168.659 89.4927 168.628C88.9184 168.564 88.2138 168.505 87.3874 168.269C85.7636 167.805 83.6104 166.636 81.4206 163.23L81 163.5ZM90.5 169.5L90.0528 169.724C89.9993 169.617 90.0127 169.522 90.022 169.485C90.0293 169.457 90.0356 169.455 90.0127 169.493C89.965 169.571 89.8805 169.679 89.7355 169.865C89.4608 170.216 89.0608 170.735 88.6731 171.478C87.8936 172.973 87.1915 175.319 87.5017 179.042L88 179L88.4983 178.958C88.2023 175.407 88.8752 173.253 89.5597 171.941C89.9041 171.281 90.2584 170.82 90.5237 170.48C90.6487 170.32 90.7806 170.154 90.8663 170.014C90.9101 169.942 90.9622 169.845 90.9909 169.733C91.0216 169.613 91.0319 169.446 90.9472 169.276L90.5 169.5ZM88 179L87.5017 179.042C87.7637 182.186 89.0864 184.061 90.6293 185.269C91.3908 185.865 92.195 186.29 92.9233 186.626C93.2867 186.794 93.6361 186.941 93.9491 187.075C94.2662 187.211 94.5418 187.33 94.7764 187.447L95 187L95.2236 186.553C94.9582 186.42 94.6556 186.289 94.342 186.155C94.0241 186.02 93.6898 185.878 93.3423 185.718C92.6487 185.398 91.9217 185.01 91.2457 184.481C89.9136 183.439 88.7363 181.814 88.4983 178.958L88 179ZM94.5 111.815L94.0032 111.871L99.9387 164.202L100.435 164.145L100.932 164.089L94.9968 111.758L94.5 111.815ZM100.325 164.814L99.8873 164.573C98.3193 167.422 95.4723 173.563 99.0528 180.724L99.5 180.5L99.9472 180.276C96.597 173.576 99.2356 167.832 100.763 165.055L100.325 164.814ZM99.5 180.5L99.0528 180.724C100.883 184.385 102.817 186.345 104.598 187.382C106.384 188.422 107.963 188.5 109 188.5V188V187.5C108.037 187.5 106.666 187.428 105.102 186.518C103.533 185.605 101.717 183.815 99.9472 180.276L99.5 180.5ZM100.435 164.145L99.9436 164.235C99.9644 164.349 99.9451 164.468 99.8873 164.573L100.325 164.814L100.763 165.055C100.93 164.751 100.99 164.4 100.927 164.056L100.435 164.145ZM26.2816 157.5L26.5514 157.921L45.2698 145.921L45 145.5L44.7302 145.079L26.0117 157.079L26.2816 157.5ZM45 145.5V146C48.4937 146 54.1862 146.125 60.6654 146.25C67.1404 146.375 74.3947 146.5 81 146.5V146V145.5C74.4053 145.5 67.1596 145.375 60.6847 145.25C54.2138 145.125 48.5063 145 45 145V145.5ZM81 146V146.5C84.4491 146.5 88.3049 144.819 92.2534 142.173C96.2137 139.519 100.328 135.852 104.307 131.787C112.267 123.657 119.734 113.883 124.408 107.289L124 107L123.592 106.711C118.933 113.284 111.5 123.01 103.593 131.088C99.6385 135.127 95.5779 138.741 91.6966 141.342C87.8034 143.952 84.1509 145.5 81 145.5V146ZM124 107L124.256 107.43L152.784 90.4295L152.528 90L152.272 89.5705L123.744 106.57L124 107ZM152.528 90L152.44 90.4922C157.138 91.3312 166.782 92.3327 177.25 92.6248C187.71 92.9167 199.052 92.5024 207.121 90.4851L207 90L206.879 89.5149C198.948 91.4976 187.72 91.9166 177.278 91.6252C166.843 91.334 157.251 90.3355 152.615 89.5078L152.528 90ZM251.5 69.5L251.568 69.9954L277.068 66.4954L277 66L276.932 65.5046L251.432 69.0046L251.5 69.5ZM349.5 76.5V77C361.583 77 374.146 73.7293 384.927 69.6552C395.71 65.5802 404.742 60.6891 409.772 57.4192L409.5 57L409.228 56.5808C404.258 59.8109 395.29 64.6698 384.573 68.7198C373.854 72.7707 361.417 76 349.5 76V76.5ZM36.3641 173L36.6186 173.43L57.7545 160.93L57.5 160.5L57.2455 160.07L36.1096 172.57L36.3641 173ZM57.5 160.5L57.409 160.992C61.9033 161.824 68.528 163.079 74.7313 163.623C77.8329 163.895 80.8464 163.991 83.4467 163.764C86.0315 163.538 88.2793 162.986 89.7906 161.907L89.5 161.5L89.2094 161.093C87.9207 162.014 85.8935 162.546 83.3595 162.768C80.8411 162.988 77.8921 162.897 74.8187 162.627C68.672 162.088 62.0967 160.843 57.591 160.008L57.5 160.5ZM89.5 161.5L89.7906 161.907C92.6157 159.889 98.3046 154.994 104.367 149.689C110.443 144.372 116.911 138.628 121.324 134.881L121 134.5L120.676 134.119C116.256 137.872 109.774 143.628 103.708 148.936C97.6287 154.256 91.9843 159.111 89.2094 161.093L89.5 161.5ZM121 134.5L121.277 134.916L153.512 113.416L153.234 113L152.957 112.584L120.723 134.084L121 134.5ZM153.234 113L153.259 113.499L214.524 110.499L214.5 110L214.476 109.501L153.21 112.501L153.234 113ZM251.5 88.5L251.606 88.9887L281.606 82.4887L281.5 82L281.394 81.5113L251.394 88.0113L251.5 88.5ZM345.5 105L345.418 105.493C369.447 109.498 391.141 110.5 399 110.5V110V109.5C391.192 109.5 369.553 108.502 345.582 104.507L345.5 105ZM55.5 315.5L55.2094 315.907C58.6345 318.353 62.4762 322.735 63.0017 329.042L63.5 329L63.9983 328.958C63.4405 322.265 59.3655 317.647 55.7906 315.093L55.5 315.5ZM63.5 329L63.0017 329.042C63.1918 331.323 62.354 334.357 61.4305 336.878C60.9732 338.126 60.5031 339.227 60.1473 340.016C59.9695 340.411 59.8205 340.726 59.7163 340.943C59.6641 341.051 59.6232 341.135 59.5955 341.191C59.5816 341.219 59.5711 341.24 59.5641 341.254C59.5606 341.261 59.558 341.266 59.5563 341.27C59.5554 341.271 59.5548 341.272 59.5544 341.273C59.5542 341.274 59.5541 341.274 59.554 341.274C59.554 341.274 59.5539 341.274 59.5539 341.274C59.5539 341.274 59.554 341.274 60 341.5C60.446 341.726 60.4461 341.726 60.4462 341.726C60.4462 341.726 60.4463 341.725 60.4464 341.725C60.4465 341.725 60.4467 341.725 60.447 341.724C60.4476 341.723 60.4484 341.721 60.4494 341.719C60.4514 341.715 60.4544 341.709 60.4583 341.702C60.466 341.686 60.4773 341.664 60.4919 341.634C60.5211 341.575 60.5636 341.488 60.6173 341.377C60.7248 341.153 60.8773 340.83 61.0589 340.427C61.4219 339.623 61.9018 338.499 62.3695 337.222C63.296 334.693 64.2082 331.477 63.9983 328.958L63.5 329ZM60 341.5L59.5044 341.434L53.5044 386.434L54 386.5L54.4956 386.566L60.4956 341.566L60 341.5ZM8.40094 162.5L7.94691 162.709L33.546 218.209L34 218L34.454 217.791L8.85497 162.291L8.40094 162.5ZM199.5 132.5L199.977 132.649C200.363 131.413 201.392 129.731 203.203 128.738C204.99 127.759 207.618 127.408 211.306 128.961L211.5 128.5L211.694 128.039C207.782 126.392 204.826 126.708 202.722 127.862C200.641 129.002 199.47 130.92 199.023 132.351L199.5 132.5ZM211.5 128.5L211.306 128.961C218.826 132.127 222.973 136.532 224.078 138.268L224.5 138L224.922 137.732C223.693 135.801 219.374 131.273 211.694 128.039L211.5 128.5ZM224.5 138L224.886 138.318L241.386 118.318L241 118L240.614 117.682L224.114 137.682L224.5 138ZM241 145.5L240.7 145.1C236.037 148.597 224.659 156.253 216.342 159.026L216.5 159.5L216.658 159.974C225.141 157.147 236.629 149.403 241.3 145.9L241 145.5ZM216.5 159.5L216.342 159.026C214.291 159.709 209.444 160.606 202.873 161.609C196.322 162.609 188.105 163.708 179.35 164.804C161.842 166.995 142.196 169.17 129.448 170.503L129.5 171L129.552 171.497C142.304 170.164 161.958 167.988 179.475 165.796C188.233 164.7 196.46 163.599 203.024 162.597C209.568 161.598 214.509 160.691 216.658 159.974L216.5 159.5ZM75.5 179.5L75.2266 179.081L50.7266 195.081L51 195.5L51.2734 195.919L75.7734 179.919L75.5 179.5ZM129.5 171C129.539 170.502 129.539 170.502 129.539 170.502C129.539 170.501 129.539 170.501 129.539 170.501C129.538 170.501 129.537 170.501 129.536 170.501C129.535 170.501 129.532 170.501 129.528 170.501C129.521 170.5 129.51 170.499 129.495 170.498C129.466 170.496 129.423 170.493 129.367 170.488C129.254 170.48 129.087 170.468 128.872 170.453C128.441 170.422 127.816 170.38 127.037 170.334C125.478 170.241 123.3 170.129 120.825 170.055C115.882 169.906 109.725 169.905 104.938 170.504L105 171L105.062 171.496C109.769 170.908 115.862 170.906 120.795 171.055C123.258 171.129 125.426 171.24 126.977 171.332C127.753 171.378 128.374 171.42 128.802 171.45C129.015 171.465 129.18 171.477 129.292 171.486C129.348 171.49 129.39 171.493 129.418 171.495C129.432 171.496 129.443 171.497 129.45 171.498C129.454 171.498 129.456 171.498 129.458 171.498C129.459 171.498 129.46 171.498 129.46 171.498C129.46 171.498 129.46 171.498 129.46 171.498C129.461 171.498 129.461 171.498 129.5 171ZM105 171L104.938 170.504C98.9391 171.254 91.5258 173.392 85.6324 175.333C82.6813 176.305 80.1032 177.23 78.2626 177.912C77.3423 178.253 76.6061 178.534 76.0997 178.729C75.8465 178.827 75.6507 178.903 75.518 178.955C75.4516 178.981 75.4011 179.001 75.367 179.015C75.35 179.022 75.3371 179.027 75.3284 179.03C75.324 179.032 75.3207 179.033 75.3185 179.034C75.3174 179.035 75.3165 179.035 75.3159 179.035C75.3156 179.035 75.3154 179.035 75.3152 179.035C75.3151 179.035 75.315 179.035 75.5 179.5C75.685 179.964 75.6851 179.964 75.6852 179.964C75.6853 179.964 75.6854 179.964 75.6857 179.964C75.6862 179.964 75.6869 179.964 75.688 179.963C75.69 179.962 75.6931 179.961 75.6973 179.96C75.7056 179.956 75.7181 179.951 75.7347 179.945C75.768 179.932 75.8177 179.912 75.8832 179.886C76.0142 179.835 76.2082 179.759 76.4596 179.662C76.9623 179.468 77.6944 179.189 78.6102 178.85C80.4421 178.171 83.0084 177.25 85.9452 176.283C91.8277 174.346 99.1644 172.234 105.062 171.496L105 171ZM151.5 75.5L151.001 75.5231L153.729 134.523L154.228 134.5L154.728 134.477L151.999 75.4769L151.5 75.5ZM154.228 134.5L153.739 134.397L146.511 168.897L147 169L147.489 169.103L154.718 134.603L154.228 134.5ZM230.5 266L230.024 266.153L242.524 305.153L243 305L243.476 304.847L230.976 265.847L230.5 266ZM243 305L242.595 305.294L265.095 336.294L265.5 336L265.905 335.706L243.405 304.706L243 305ZM172.5 75.5L172.024 75.6534L190.524 133.029L191 132.876L191.476 132.722L172.976 75.3466L172.5 75.5ZM191 132.876L190.501 132.843L188.501 163.467L189 163.5L189.499 163.533L191.499 132.908L191 132.876ZM270 277.5L269.741 277.927C283.615 286.351 289.24 296.695 293.036 306.186L293.5 306L293.964 305.814C290.122 296.208 284.385 285.649 270.259 277.073L270 277.5ZM293.5 306L293.036 306.186C295.035 311.183 297.659 317.93 299.784 323.43C300.846 326.18 301.783 328.617 302.455 330.367C302.791 331.242 303.06 331.945 303.246 332.429C303.339 332.671 303.41 332.858 303.459 332.985C303.483 333.049 303.502 333.097 303.514 333.13C303.52 333.146 303.525 333.158 303.528 333.166C303.53 333.17 303.531 333.173 303.532 333.175C303.532 333.177 303.532 333.177 303.533 333.178C303.533 333.178 303.533 333.178 303.533 333.178C303.533 333.179 303.533 333.179 304 333C304.467 332.821 304.467 332.821 304.467 332.821C304.467 332.821 304.467 332.821 304.467 332.821C304.467 332.82 304.466 332.819 304.466 332.818C304.465 332.816 304.464 332.813 304.462 332.809C304.459 332.801 304.454 332.789 304.448 332.772C304.436 332.74 304.417 332.691 304.393 332.628C304.344 332.501 304.273 332.313 304.18 332.071C303.994 331.587 303.725 330.883 303.389 330.008C302.717 328.258 301.779 325.82 300.716 323.07C298.591 317.57 295.965 310.817 293.964 305.814L293.5 306ZM117 165L117.317 165.387L154.545 134.887L154.228 134.5L153.911 134.113L116.683 164.613L117 165ZM154.228 134.5L154.25 135L199.522 133L199.5 132.5L199.478 132L154.206 134L154.228 134.5ZM206.5 72L206 72.0139L206.5 90.0139L207 90L207.5 89.9861L207 71.9861L206.5 72ZM214.5 110L214.968 109.824L207.468 89.8244L207 90L206.532 90.1756L214.032 110.176L214.5 110ZM214.5 110L214.029 110.168L224.029 138.168L224.5 138L224.971 137.832L214.971 109.832L214.5 110ZM224.5 138L224.031 137.826L216.031 159.326L216.5 159.5L216.969 159.674L224.969 138.174L224.5 138ZM315.5 308H315V324.5H315.5H316V308H315.5ZM206.5 72L206.607 72.4885C217.22 70.1668 224.869 67.1551 230.736 64.0061L230.5 63.5655L230.264 63.1249C224.485 66.2259 216.925 69.2076 206.393 71.5115L206.5 72ZM230.5 63.5655L230.736 64.0061C235.85 61.2619 239.599 58.4197 242.765 55.8603C245.946 53.2895 248.489 51.0481 251.252 49.4316L251 49L250.748 48.5684C247.898 50.2349 245.266 52.553 242.137 55.0826C238.993 57.6236 235.299 60.4226 230.264 63.1249L230.5 63.5655ZM207 90L207.121 90.4851C214.618 88.6109 223.041 85.1429 230.716 81.4577L230.5 81.0069L230.284 80.5562C222.634 84.229 214.28 87.6645 206.879 89.5149L207 90ZM230.5 81.0069L230.716 81.4577C239.531 77.2257 247.387 72.6936 251.767 69.9225L251.5 69.5L251.233 69.0775C246.884 71.8288 239.061 76.3418 230.284 80.5562L230.5 81.0069ZM230.5 63.5655H230V81.0069H230.5H231V63.5655H230.5ZM214.5 110L214.751 110.432L236.751 97.6485L236.5 97.2162L236.249 96.7839L214.249 109.568L214.5 110ZM236.5 97.2162L236.751 97.6485L251.751 88.9323L251.5 88.5L251.249 88.0677L236.249 96.7839L236.5 97.2162ZM236.5 97.2162L236.969 97.0426L230.969 80.8334L230.5 81.0069L230.031 81.1805L236.031 97.3898L236.5 97.2162ZM241 118H240.5V145.5H241H241.5V118H241ZM338 297.5L337.58 297.771L353.08 321.771L353.5 321.5L353.92 321.229L338.42 297.229L338 297.5ZM353.5 321.5L353.442 321.997L396.442 326.997L396.5 326.5L396.558 326.003L353.558 321.003L353.5 321.5ZM251 49L250.5 49.0122L251 69.5122L251.5 69.5L252 69.4878L251.5 48.9878L251 49ZM251.5 69.5H251V88.5H251.5H252V69.5H251.5ZM241 118L241.112 118.487L262.862 113.487L262.75 113L262.638 112.513L240.888 117.513L241 118ZM262.75 113L262.862 113.487L284.612 108.487L284.5 108L284.388 107.513L262.638 112.513L262.75 113ZM251.5 88.5L251.046 88.7086L262.296 113.209L262.75 113L263.204 112.791L251.954 88.2914L251.5 88.5ZM298 142L297.969 141.501L269.469 143.251L269.5 143.75L269.531 144.249L298.031 142.499L298 142ZM269.5 143.75L269.469 143.251L240.969 145.001L241 145.5L241.031 145.999L269.531 144.249L269.5 143.75ZM262.75 113L262.262 113.107L269.012 143.857L269.5 143.75L269.988 143.643L263.238 112.893L262.75 113ZM298.859 185L298.656 185.457C300.052 186.077 302.55 188.057 304.754 191C306.95 193.93 308.806 197.752 309.001 202.023L309.5 202L309.999 201.977C309.794 197.448 307.829 193.436 305.555 190.4C303.289 187.376 300.666 185.256 299.062 184.543L298.859 185ZM309.5 202L309.001 202.023C309.198 206.377 308.32 208.525 307.304 209.502C306.313 210.454 305.068 210.403 304.192 210.038L304 210.5L303.808 210.962C304.932 211.43 306.637 211.53 307.996 210.223C309.33 208.942 310.202 206.423 309.999 201.977L309.5 202ZM361 286L360.7 286.4L390.7 308.9L391 308.5L391.3 308.1L361.3 285.6L361 286ZM276.5 44.5L276 44.5116L276.5 66.0116L277 66L277.5 65.9884L277 44.4884L276.5 44.5ZM277 66L276.519 66.1354L281.019 82.1354L281.5 82L281.981 81.8646L277.481 65.8646L277 66ZM281.5 82L281.003 82.0573L284.003 108.057L284.5 108L284.997 107.943L281.997 81.9427L281.5 82ZM284.5 108L284.035 108.184L297.535 142.184L298 142L298.465 141.815L284.965 107.815L284.5 108ZM317.5 186.5L317.162 186.869C317.591 187.261 318.057 187.965 318.515 188.95C318.969 189.925 319.398 191.14 319.767 192.517C320.506 195.272 321 198.645 321 202H321.5H322C322 198.555 321.494 195.094 320.733 192.258C320.352 190.84 319.906 189.568 319.422 188.528C318.943 187.498 318.409 186.655 317.838 186.131L317.5 186.5ZM321.5 202H321C321 208.607 317.106 213.171 315.2 214.6L315.5 215L315.8 215.4C317.894 213.829 322 208.993 322 202H321.5ZM34 218L33.5151 217.878L22.436 261.878L22.9209 262L23.4057 262.122L34.4849 218.122L34 218ZM22.9209 262L22.436 261.878L16.0151 287.378L16.5 287.5L16.9849 287.622L23.4057 262.122L22.9209 262ZM51 195.5L50.5231 195.35L39.0231 231.85L39.5 232L39.9769 232.15L51.4769 195.65L51 195.5ZM39.5 232L39.0004 231.981L37.5004 270.981L38 271L38.4996 271.019L39.9996 232.019L39.5 232ZM22.9209 262L23.3585 262.242L39.9376 232.242L39.5 232L39.0624 231.758L22.4832 261.758L22.9209 262ZM39.5 232L39.8684 232.338L73.3684 195.838L73 195.5L72.6316 195.162L39.1316 231.662L39.5 232ZM73 195.5L73.1802 195.966L95.1802 187.466L95 187L94.8198 186.534L72.8198 195.034L73 195.5ZM95 187L94.9644 187.499L108.964 188.499L109 188L109.036 187.501L95.0356 186.501L95 187ZM109 188L109.058 188.497L117.557 187.497L117.498 187L117.44 186.503L108.942 187.503L109 188ZM147 169L146.637 169.344L166.526 190.344L166.889 190L167.252 189.656L147.363 168.656L147 169ZM117.498 187L117.468 187.499L166.859 190.499L166.889 190L166.919 189.501L117.529 186.501L117.498 187ZM189 163.5L188.592 163.79L203.513 184.79L203.921 184.5L204.329 184.21L189.408 163.21L189 163.5ZM166.889 190L166.962 190.495L203.995 184.995L203.921 184.5L203.848 184.005L166.815 189.505L166.889 190ZM216.5 159.5L216.115 159.82L234.615 182.084L235 181.765L235.385 181.445L216.885 159.18L216.5 159.5ZM203.921 184.5L203.965 184.998L235.044 182.263L235 181.765L234.956 181.266L203.877 184.002L203.921 184.5ZM241 145.5L240.598 145.797L262.098 174.837L262.5 174.54L262.902 174.242L241.402 145.202L241 145.5ZM262.5 174.54L262.373 174.056L234.873 181.281L235 181.765L235.127 182.248L262.627 175.023L262.5 174.54ZM269.5 143.75L269.091 144.038L290.804 174.828L291.213 174.54L291.622 174.251L269.909 143.462L269.5 143.75ZM291.213 174.54L290.809 174.835L298.455 185.295L298.859 185L299.263 184.705L291.617 174.245L291.213 174.54ZM262.5 174.54V175.04H291.213V174.54V174.04H262.5V174.54ZM298 142L297.537 142.19L310.037 172.69L310.5 172.5L310.963 172.31L298.463 141.81L298 142ZM310.5 172.5L310.053 172.724L317.053 186.724L317.5 186.5L317.947 186.276L310.947 172.276L310.5 172.5ZM291.213 174.54L291.265 175.037L310.553 172.997L310.5 172.5L310.447 172.003L291.16 174.042L291.213 174.54ZM276.5 44.5L276.526 44.9993C284.75 44.5632 296.719 44.3977 309.513 44.0674L309.5 43.5676L309.487 43.0677C296.716 43.3975 284.715 43.5637 276.474 44.0007L276.5 44.5ZM277 66L276.88 66.4854C283.965 68.2358 296.076 70.858 309.419 73.0457L309.5 72.5523L309.581 72.0588C296.265 69.8756 284.18 67.2588 277.12 65.5146L277 66ZM309.5 72.5523L309.419 73.0457C322.8 75.2395 337.441 77 349.5 77V76.5V76C337.521 76 322.942 74.2496 309.581 72.0588L309.5 72.5523ZM309.5 43.5676H309V72.5523H309.5H310V43.5676H309.5ZM281.5 82L281.266 82.4419C288.223 86.125 301.677 92.4303 316.582 97.6877L316.748 97.2162L316.914 96.7447C302.06 91.505 288.651 85.2201 281.734 81.5581L281.5 82ZM316.748 97.2162L316.582 97.6877C326.027 101.019 336.069 103.935 345.418 105.493L345.5 105L345.582 104.507C336.311 102.962 326.329 100.065 316.914 96.7447L316.748 97.2162ZM309.5 72.5523L309.02 72.6932L316.268 97.3572L316.748 97.2162L317.228 97.0752L309.98 72.4113L309.5 72.5523ZM284.5 108L284.255 108.436L324.755 131.156L325 130.719L325.245 130.283L284.745 107.564L284.5 108ZM325 130.719L325.485 130.6L317.234 97.0966L316.748 97.2162L316.263 97.3358L324.515 130.839L325 130.719ZM329.5 161.42L329.762 160.994L298.262 141.574L298 142L297.738 142.426L329.238 161.845L329.5 161.42ZM325 130.719L324.505 130.792L329.005 161.492L329.5 161.42L329.995 161.347L325.495 130.647L325 130.719ZM345.5 196.048L345.779 195.634L310.779 172.085L310.5 172.5L310.221 172.915L345.221 196.463L345.5 196.048ZM329.5 161.42L329.046 161.63L345.046 196.258L345.5 196.048L345.954 195.839L329.954 161.21L329.5 161.42ZM345.5 196.048L345.011 196.153L349.511 217.105L350 217L350.489 216.895L345.989 195.943L345.5 196.048ZM348 234L348.497 234.058L350.497 217.058L350 217L349.503 216.942L347.503 233.942L348 234ZM309.5 43.5676L309.513 44.0674C320.376 43.7869 331.825 43.3877 342.038 42.6022L342 42.1037L341.962 41.6052C331.775 42.3886 320.348 42.7873 309.487 43.0677L309.5 43.5676ZM342 42.1037L342.038 42.6022C351.917 41.8426 360.676 40.7194 366.64 38.98L366.5 38.5L366.36 38.02C360.503 39.7282 351.833 40.8461 341.962 41.6052L342 42.1037ZM342 42.1037L341.511 42.2102L349.011 76.6065L349.5 76.5L349.989 76.3935L342.489 41.9972L342 42.1037ZM349.5 76.5L349.005 76.4305L345.005 104.931L345.5 105L345.995 105.069L349.995 76.5695L349.5 76.5ZM325 130.719L324.755 131.156L358.255 149.948L358.5 149.512L358.745 149.076L325.245 130.283L325 130.719ZM358.5 149.512L358.255 149.948L407.255 177.436L407.5 177L407.745 176.564L358.745 149.076L358.5 149.512ZM345.5 105L345.02 105.14L358.02 149.652L358.5 149.512L358.98 149.372L345.98 104.86L345.5 105ZM401 205.5L401.262 205.074L362.762 181.339L362.5 181.765L362.238 182.19L400.738 205.926L401 205.5ZM362.5 181.765L362.762 181.339L329.762 160.994L329.5 161.42L329.238 161.845L362.238 182.19L362.5 181.765ZM358.5 149.512L358.004 149.574L362.004 181.826L362.5 181.765L362.996 181.703L358.996 149.451L358.5 149.512ZM388.5 224.5L388.776 224.083L374.418 214.583L374.142 215L373.866 215.417L388.224 224.917L388.5 224.5ZM374.142 215L374.418 214.583L345.776 195.631L345.5 196.048L345.224 196.465L373.866 215.417L374.142 215ZM362.5 181.765L362.028 181.93L373.67 215.165L374.142 215L374.614 214.835L362.972 181.599L362.5 181.765ZM350 217L349.767 217.442L370.767 228.505L371 228.063L371.233 227.621L350.233 216.558L350 217ZM371 228.063L370.707 228.468L390.707 242.905L391 242.5L391.293 242.095L371.293 227.658L371 228.063ZM374.142 215L373.656 214.883L370.514 227.946L371 228.063L371.486 228.18L374.628 215.117L374.142 215ZM17 145.5L16.537 145.311C12.9964 154.002 4.5463 169.967 -5.0514 180.157L-4.68741 180.5L-4.32343 180.843C5.38991 170.529 13.897 154.442 17.463 145.689L17 145.5ZM-4.68741 180.5L-5.0514 180.157C-10.3272 185.759 -15.8427 189.5 -21 189.5V190V190.5C-15.3975 190.5 -9.62704 186.474 -4.32343 180.843L-4.68741 180.5ZM-6 211.5L-5.56914 211.754L3.85142 195.754L3.42056 195.5L2.9897 195.246L-6.43086 211.246L-6 211.5ZM3.42056 195.5L3.849 195.758L26.71 157.758L26.2816 157.5L25.8531 157.242L2.99212 195.242L3.42056 195.5ZM-4.68741 180.5L-5.12727 180.738L2.98071 195.738L3.42056 195.5L3.86042 195.262L-4.24756 180.262L-4.68741 180.5ZM-10 255.5L-9.56178 255.741L11.0401 218.241L10.6019 218L10.1636 217.759L-10.4382 255.259L-10 255.5ZM10.6019 218L11.0358 218.248L36.798 173.248L36.3641 173L35.9302 172.752L10.1679 217.752L10.6019 218ZM3.42056 195.5L2.94423 195.652L10.1255 218.152L10.6019 218L11.0782 217.848L3.89689 195.348L3.42056 195.5ZM51 195.5L50.5838 195.223L13.6462 250.723L14.0625 251L14.4787 251.277L51.4162 195.777L51 195.5ZM14.0625 251L13.6385 250.735L-10.424 289.235L-10 289.5L-9.576 289.765L14.4865 251.265L14.0625 251ZM10.6019 218L10.1046 218.052L13.5652 251.052L14.0625 251L14.5598 250.948L11.0991 217.948L10.6019 218ZM-10 313.5L-9.57872 313.769L6.88171 288.019L6.46043 287.75L6.03915 287.481L-10.4213 313.231L-10 313.5ZM6.46043 287.75L6.88171 288.019L23.3421 262.269L22.9209 262L22.4996 261.731L6.03915 287.481L6.46043 287.75ZM14.0625 251L13.5729 250.899L5.9708 287.649L6.46043 287.75L6.95007 287.851L14.5521 251.101L14.0625 251ZM54 251L53.6096 250.688L37.6096 270.688L38 271L38.3904 271.312L54.3904 251.312L54 251ZM38 271L37.6956 270.603L16.1956 287.103L16.5 287.5L16.8044 287.897L38.3044 271.397L38 271ZM16.5 287.5L16.0387 287.307L5.99916 311.307L6.46043 311.5L6.9217 311.693L16.9613 287.693L16.5 287.5ZM6.46043 311.5H6.96043V287.75H6.46043H5.96043V311.5H6.46043ZM6.46043 311.5L6.16481 311.097L-14.2956 326.097L-14 326.5L-13.7044 326.903L6.75606 311.903L6.46043 311.5ZM6.46043 311.5L5.96944 311.594L10.1109 333.113L10.6019 333.019L11.0928 332.924L6.95142 311.406L6.46043 311.5ZM10.6019 333.019L10.1109 333.113L13.5715 351.094L14.0625 351L14.5535 350.906L11.0928 332.924L10.6019 333.019ZM-10 349L-9.69354 349.395L10.9083 333.414L10.6019 333.019L10.2954 332.624L-10.3065 348.605L-10 349ZM16.5 287.5L16.0367 287.688L24.5367 308.641L25 308.453L25.4633 308.266L16.9633 287.312L16.5 287.5ZM25 308.453L24.5367 308.641L37.5367 340.688L38 340.5L38.4633 340.312L25.4633 308.266L25 308.453ZM25 308.453L24.5686 308.201L10.1705 332.766L10.6019 333.019L11.0332 333.272L25.4314 308.706L25 308.453ZM38 271L37.5267 271.161L45.5267 294.661L46 294.5L46.4733 294.339L38.4733 270.839L38 271ZM46 294.5L45.5444 294.706L55.0444 315.706L55.5 315.5L55.9556 315.294L46.4556 294.294L46 294.5ZM25 308.453L25.2767 308.87L46.2767 294.916L46 294.5L45.7233 294.084L24.7233 308.037L25 308.453ZM54 251C53.5047 251.068 53.5047 251.069 53.5047 251.069C53.5047 251.069 53.5048 251.069 53.5048 251.069C53.5048 251.069 53.5049 251.07 53.505 251.071C53.5053 251.072 53.5056 251.075 53.506 251.078C53.5068 251.084 53.5081 251.093 53.5098 251.105C53.5132 251.13 53.5182 251.166 53.5249 251.213C53.5382 251.309 53.5579 251.451 53.5839 251.636C53.6357 252.005 53.7123 252.548 53.8108 253.239C54.008 254.622 54.2933 256.6 54.6464 258.982C55.3524 263.745 56.3293 270.124 57.4123 276.583L57.9054 276.5L58.3986 276.417C57.3169 269.967 56.3411 263.595 55.6356 258.835C55.2828 256.456 54.9977 254.48 54.8008 253.098C54.7024 252.408 54.626 251.866 54.5742 251.497C54.5483 251.312 54.5286 251.171 54.5153 251.076C54.5087 251.028 54.5037 250.992 54.5003 250.968C54.4986 250.956 54.4974 250.947 54.4965 250.941C54.4961 250.938 54.4958 250.935 54.4956 250.934C54.4955 250.933 54.4954 250.932 54.4954 250.932C54.4953 250.932 54.4953 250.932 54.4953 250.932C54.4953 250.932 54.4953 250.932 54 251ZM57.9054 276.5L57.4123 276.583C58.5393 283.304 61.046 288.473 63.4917 292.043C64.7141 293.827 65.9233 295.214 66.941 296.197C67.4496 296.688 67.9137 297.082 68.311 297.375C68.699 297.661 69.052 297.873 69.3348 297.972L69.5 297.5L69.6652 297.028C69.5254 296.979 69.2686 296.839 68.9046 296.57C68.5498 296.309 68.1194 295.945 67.6358 295.478C66.6691 294.544 65.503 293.209 64.3166 291.477C61.9445 288.016 59.4991 282.981 58.3986 276.417L57.9054 276.5ZM46 294.5L46.417 294.776L58.3225 276.776L57.9054 276.5L57.4884 276.224L45.583 294.224L46 294.5ZM81 256L80.5289 256.168C80.6238 256.434 80.6993 256.65 80.758 256.823C80.817 256.996 80.8583 257.122 80.8851 257.21C80.8986 257.254 80.9074 257.285 80.9128 257.306C80.9155 257.316 80.9167 257.322 80.9171 257.323C80.9173 257.324 80.917 257.323 80.9165 257.32C80.9161 257.318 80.9151 257.312 80.9141 257.304C80.9133 257.297 80.9117 257.282 80.9113 257.263C80.9111 257.253 80.9112 257.239 80.9122 257.223C80.9132 257.208 80.9155 257.185 80.9208 257.159C80.9232 257.148 80.9292 257.125 80.9328 257.112C80.9374 257.098 80.949 257.067 80.956 257.052C80.9648 257.033 80.9865 256.995 80.9993 256.976C81.0153 256.954 81.0531 256.911 81.075 256.89C81.1007 256.868 81.1581 256.83 81.1895 256.813C81.223 256.798 81.2922 256.776 81.3274 256.769C81.4213 256.753 81.5014 256.768 81.5571 256.785C81.5767 256.792 81.6126 256.806 81.6286 256.814C81.6422 256.821 81.6672 256.835 81.6783 256.842C81.7048 256.86 81.7249 256.876 81.7383 256.888C81.7521 256.901 81.7629 256.912 81.7705 256.92C81.7783 256.929 81.7846 256.936 81.7893 256.942C81.7983 256.954 81.8046 256.962 81.8078 256.967C81.8113 256.972 81.8135 256.976 81.8145 256.978C81.8162 256.98 81.8157 256.98 81.8129 256.974C81.8102 256.97 81.8064 256.962 81.8015 256.953C81.7915 256.933 81.7788 256.906 81.7633 256.873C81.7324 256.806 81.694 256.72 81.6503 256.618C81.5629 256.415 81.4579 256.16 81.3545 255.903C81.2511 255.645 81.1505 255.387 81.072 255.176C81.0327 255.071 80.9997 254.979 80.9749 254.907C80.9625 254.871 80.9527 254.841 80.9455 254.818C80.9419 254.806 80.9392 254.797 80.9373 254.791C80.9352 254.783 80.9346 254.78 80.9346 254.781C80.9347 254.781 80.9352 254.783 80.936 254.787C80.9366 254.791 80.9379 254.797 80.9391 254.807C80.9403 254.815 80.9422 254.832 80.9427 254.854C80.9429 254.865 80.9428 254.88 80.9415 254.899C80.9402 254.916 80.9373 254.942 80.9304 254.972C80.9273 254.984 80.9195 255.011 80.9148 255.025C80.9088 255.041 80.8937 255.076 80.8846 255.093C80.8581 255.143 80.8127 255.207 80.7379 255.261C80.7088 255.281 80.6457 255.314 80.6121 255.328C80.5783 255.338 80.5104 255.352 80.4769 255.355C80.391 255.36 80.3208 255.343 80.2742 255.325C80.2575 255.319 80.2267 255.305 80.213 255.298C80.2013 255.292 80.1797 255.279 80.17 255.272C80.1469 255.257 80.1291 255.242 80.117 255.231C80.1046 255.22 80.0949 255.21 80.0878 255.202C80.0807 255.195 80.0749 255.188 80.0706 255.183C80.0623 255.173 80.0565 255.165 80.0537 255.161C80.0506 255.156 80.0488 255.154 80.0483 255.153C80.0475 255.152 80.0491 255.154 80.0534 255.162C80.062 255.177 80.0757 255.202 80.0953 255.24C80.1342 255.317 80.1894 255.431 80.2641 255.591C80.3385 255.751 80.4309 255.953 80.5439 256.205L81 256L81.4561 255.795C81.3419 255.541 81.2475 255.334 81.1704 255.169C81.0937 255.004 81.033 254.878 80.9864 254.787C80.9632 254.741 80.9417 254.701 80.9223 254.667C80.9125 254.649 80.9018 254.631 80.8904 254.613C80.8846 254.604 80.8779 254.594 80.8703 254.584C80.863 254.573 80.8532 254.56 80.8412 254.545C80.8351 254.538 80.8276 254.529 80.8188 254.52C80.8101 254.511 80.7988 254.499 80.7849 254.487C80.7714 254.475 80.7523 254.459 80.7279 254.442C80.7176 254.436 80.6954 254.422 80.6832 254.415C80.6688 254.408 80.6375 254.394 80.6203 254.387C80.5726 254.37 80.5015 254.352 80.4147 254.357C80.3808 254.36 80.3125 254.374 80.2783 254.385C80.2443 254.398 80.1808 254.432 80.1514 254.451C80.076 254.506 80.0299 254.571 80.0029 254.622C79.9936 254.64 79.9783 254.675 79.9721 254.691C79.9671 254.706 79.9592 254.734 79.956 254.747C79.9487 254.778 79.9456 254.805 79.9442 254.825C79.9427 254.845 79.9426 254.862 79.9429 254.875C79.9434 254.901 79.9458 254.923 79.9477 254.938C79.9498 254.953 79.9522 254.967 79.9543 254.978C79.9565 254.989 79.9588 255 79.961 255.009C79.9653 255.027 79.9702 255.046 79.9749 255.062C79.9798 255.079 79.985 255.097 79.9906 255.115C80.0016 255.15 80.0146 255.19 80.029 255.232C80.0577 255.315 80.0941 255.416 80.135 255.526C80.2171 255.746 80.3208 256.012 80.4263 256.275C80.5318 256.538 80.6402 256.8 80.7317 257.013C80.7774 257.119 80.8198 257.215 80.8561 257.293C80.8742 257.333 80.8917 257.369 80.908 257.402C80.9161 257.418 80.9245 257.434 80.9329 257.449C80.941 257.465 80.9506 257.482 80.9611 257.499C80.9664 257.508 80.9728 257.518 80.9801 257.528C80.9871 257.539 80.9969 257.553 81.0092 257.568C81.0154 257.576 81.0232 257.585 81.0325 257.595C81.0416 257.605 81.0538 257.618 81.0689 257.631C81.0835 257.644 81.1048 257.662 81.1325 257.68C81.1442 257.688 81.1697 257.702 81.1838 257.71C81.2004 257.717 81.2368 257.732 81.2569 257.739C81.3135 257.757 81.3945 257.771 81.4893 257.756C81.5248 257.748 81.5944 257.726 81.6283 257.711C81.6601 257.694 81.7178 257.655 81.7438 257.633C81.766 257.612 81.8041 257.569 81.8204 257.547C81.8335 257.527 81.8554 257.488 81.8645 257.469C81.8717 257.453 81.8835 257.422 81.8883 257.407C81.8922 257.394 81.8983 257.37 81.9008 257.358C81.9065 257.33 81.9089 257.306 81.9101 257.289C81.9113 257.271 81.9114 257.255 81.9111 257.243C81.9106 257.219 81.9086 257.198 81.9069 257.184C81.9051 257.169 81.903 257.156 81.901 257.145C81.8989 257.133 81.8967 257.122 81.8946 257.112C81.8903 257.093 81.8854 257.073 81.8803 257.053C81.8702 257.014 81.857 256.969 81.8414 256.918C81.8102 256.816 81.7651 256.678 81.7046 256.5C81.6439 256.322 81.5668 256.101 81.4711 255.832L81 256ZM57.9054 276.5L58.2374 276.874L81.3319 256.374L81 256L80.6681 255.626L57.5735 276.126L57.9054 276.5ZM73 195.5L72.5358 195.314C70.0679 201.484 56.4791 242.178 53.5267 250.839L54 251L54.4733 251.161C57.4385 242.463 71.0092 201.823 73.4642 195.686L73 195.5ZM95 187L94.5751 186.736C91.14 192.275 86.6465 201.151 83.1955 211.34L83.6691 211.5L84.1426 211.66C87.5684 201.547 92.0287 192.739 95.4249 187.264L95 187ZM54 251L54.3998 251.3L84.0689 211.8L83.6691 211.5L83.2693 211.2L53.6002 250.7L54 251ZM109 188L108.515 187.879C107.03 193.816 105.124 203.541 104.956 213.492L105.455 213.5L105.955 213.508C106.122 203.661 108.011 194.016 109.485 188.121L109 188ZM105.455 213.5L104.956 213.492C104.802 222.589 106.099 231.956 110.58 238.775L110.998 238.5L111.416 238.225C107.101 231.66 105.803 222.54 105.955 213.508L105.455 213.5ZM83.6691 211.5L83.6234 211.998L105.41 213.998L105.455 213.5L105.501 213.002L83.7148 211.002L83.6691 211.5ZM117.498 187L117.139 187.348L134.641 205.452L135 205.105L135.359 204.757L117.858 186.652L117.498 187ZM105.455 213.5L105.592 213.981L135.137 205.586L135 205.105L134.863 204.624L105.319 213.019L105.455 213.5ZM166.889 190L166.526 190.344L182.626 207.344L182.989 207L183.352 206.656L167.252 189.656L166.889 190ZM135 205.105L134.98 205.604L182.97 207.5L182.989 207L183.009 206.5L135.02 204.605L135 205.105ZM203.921 184.5L203.513 184.79L214.092 199.678L214.5 199.389L214.908 199.099L204.329 184.21L203.921 184.5ZM182.989 207L183.107 207.486L214.617 199.875L214.5 199.389L214.383 198.903L182.872 206.514L182.989 207ZM235 181.765L234.598 182.062L249.598 202.298L250 202L250.402 201.702L235.402 181.467L235 181.765ZM214.5 199.389L214.463 199.888L249.963 202.499L250 202L250.037 201.501L214.537 198.89L214.5 199.389ZM262.5 174.54L262.172 174.917L279.918 190.377L280.247 190L280.575 189.623L262.828 174.163L262.5 174.54ZM250 202L250.184 202.465L280.431 190.465L280.247 190L280.062 189.535L249.816 201.535L250 202ZM280.247 190L280.376 190.483L298.989 185.483L298.859 185L298.729 184.517L280.117 189.517L280.247 190ZM317.5 186.5L317.54 186.002L298.899 184.502L298.859 185L298.819 185.498L317.46 186.998L317.5 186.5ZM280.247 190H279.747V207H280.247H280.747V190H280.247ZM304 210.5L304.073 210.005L280.32 206.505L280.247 207L280.174 207.495L303.927 210.995L304 210.5ZM250 202L249.536 202.186L257.369 221.686L257.833 221.5L258.297 221.314L250.464 201.814L250 202ZM257.833 221.5L258.105 221.92L280.518 207.42L280.247 207L279.975 206.58L257.562 221.08L257.833 221.5ZM214.5 199.389L214.092 199.678L227.671 218.79L228.079 218.5L228.487 218.21L214.908 199.099L214.5 199.389ZM257.833 221.5L257.884 221.003L228.129 218.003L228.079 218.5L228.029 218.997L257.783 221.997L257.833 221.5ZM182.989 207L182.626 207.344L196.359 221.844L196.722 221.5L197.085 221.156L183.352 206.656L182.989 207ZM228.079 218.5L228.031 218.002L196.675 221.002L196.722 221.5L196.77 221.998L228.127 218.998L228.079 218.5ZM135 205.105L134.641 205.452L152.875 224.315L153.234 223.967L153.594 223.62L135.359 204.757L135 205.105ZM153.234 223.967L153.262 224.466L196.751 221.999L196.722 221.5L196.694 221.001L153.206 223.468L153.234 223.967ZM81 256L81.2519 256.432L111.25 238.932L110.998 238.5L110.746 238.068L80.7481 255.568L81 256ZM110.998 238.5L111.161 238.973L153.397 224.44L153.234 223.967L153.071 223.494L110.836 238.027L110.998 238.5ZM-10 368.5L-9.70591 368.904L14.3566 351.404L14.0625 351L13.7684 350.596L-10.2941 368.096L-10 368.5ZM38 340.5L37.7992 340.042L13.8616 350.542L14.0625 351L14.2633 351.458L38.2008 340.958L38 340.5ZM38 340.5L38.4096 340.787L55.9096 315.787L55.5 315.5L55.0904 315.213L37.5904 340.213L38 340.5ZM81 256L80.5439 256.205C83.0339 261.751 85.9881 267.744 89.0531 273.854L89.5 273.63L89.9469 273.406C86.8827 267.298 83.9367 261.321 81.4561 255.795L81 256ZM69.5 297.5L69.8833 297.821L89.8833 273.951L89.5 273.63L89.1167 273.309L69.1167 297.179L69.5 297.5ZM110.998 238.5L110.58 238.775C113.913 243.846 118.724 251.049 124.082 259.215L124.5 258.94L124.918 258.666C119.572 250.52 114.73 243.268 111.416 238.225L110.998 238.5ZM89.5 273.63L89.6935 274.091L124.694 259.401L124.5 258.94L124.306 258.479L89.3065 273.169L89.5 273.63ZM153.234 223.967L152.875 224.315L171.258 243.331L171.617 242.984L171.977 242.636L153.594 223.62L153.234 223.967ZM171.617 242.984L171.258 243.331L189.641 262.348L190 262L190.359 261.652L171.977 242.636L171.617 242.984ZM124.5 258.94L124.66 259.414L171.777 243.457L171.617 242.984L171.457 242.51L124.34 258.467L124.5 258.94ZM196.722 221.5L196.359 221.844L216.248 242.844L216.611 242.5L216.974 242.156L197.085 221.156L196.722 221.5ZM216.611 242.5L216.181 242.754L230.07 266.254L230.5 266L230.93 265.746L217.042 242.246L216.611 242.5ZM171.617 242.984L171.622 243.484L216.616 243L216.611 242.5L216.606 242L171.612 242.484L171.617 242.984ZM228.079 218.5L227.671 218.79L244.724 242.79L245.132 242.5L245.539 242.21L228.487 218.21L228.079 218.5ZM245.132 242.5L244.724 242.79L269.592 277.79L270 277.5L270.408 277.21L245.539 242.21L245.132 242.5ZM216.611 242.5V243H245.132V242.5V242H216.611V242.5ZM257.833 221.5L257.417 221.777L276.584 250.527L277 250.25L277.416 249.973L258.249 221.223L257.833 221.5ZM245.132 242.5L245.013 242.986L276.882 250.736L277 250.25L277.118 249.764L245.25 242.014L245.132 242.5ZM280.247 207L279.825 207.269L298.437 236.435L298.859 236.166L299.28 235.897L280.668 206.731L280.247 207ZM277 250.25L277.271 250.67L299.13 236.586L298.859 236.166L298.588 235.745L276.729 249.83L277 250.25ZM304 210.5L303.601 210.801L329.101 244.578L329.5 244.276L329.899 243.975L304.399 210.199L304 210.5ZM298.859 236.166L298.731 236.649L329.372 244.76L329.5 244.276L329.628 243.793L298.987 235.682L298.859 236.166ZM14.0625 351L13.5771 350.88L6.77125 378.38L7.25661 378.5L7.74196 378.62L14.5478 351.12L14.0625 351ZM7.25661 378.5L6.77125 378.38L2.9352 393.88L3.42056 394L3.90592 394.12L7.74196 378.62L7.25661 378.5ZM-6 386.5L-5.74166 386.928L7.51495 378.928L7.25661 378.5L6.99826 378.072L-6.25834 386.072L-6 386.5ZM38 340.5L37.5106 340.397L33.5106 359.474L34 359.577L34.4894 359.68L38.4894 340.603L38 340.5ZM34 359.577L33.5106 359.474L24.5106 402.397L25 402.5L25.4894 402.603L34.4894 359.68L34 359.577ZM34 359.577L33.7112 359.169L6.9678 378.092L7.25661 378.5L7.54541 378.908L34.2888 359.985L34 359.577ZM34 359.577L34.2854 359.987L60.2854 341.911L60 341.5L59.7146 341.089L33.7146 359.166L34 359.577ZM89.5 273.63C89.2128 274.039 89.2129 274.039 89.213 274.04C89.2131 274.04 89.2133 274.04 89.2136 274.04C89.2141 274.04 89.215 274.041 89.2161 274.042C89.2184 274.043 89.2219 274.046 89.2265 274.049C89.2357 274.056 89.2496 274.065 89.268 274.078C89.3049 274.104 89.3598 274.143 89.4317 274.194C89.5756 274.297 89.7874 274.448 90.0585 274.643C90.6008 275.034 91.3802 275.603 92.3275 276.31C94.2224 277.724 96.7872 279.694 99.4683 281.915C102.15 284.136 104.943 286.605 107.295 289.017C109.657 291.439 111.539 293.768 112.442 295.711L112.896 295.5L113.349 295.289C112.371 293.185 110.388 290.756 108.011 288.319C105.624 285.872 102.803 283.378 100.106 281.145C97.4086 278.91 94.8297 276.93 92.9257 275.508C91.9735 274.798 91.1896 274.226 90.6435 273.832C90.3704 273.635 90.1567 273.483 90.0111 273.379C89.9383 273.328 89.8825 273.288 89.8448 273.261C89.826 273.248 89.8117 273.238 89.802 273.231C89.7972 273.228 89.7935 273.225 89.791 273.224C89.7898 273.223 89.7889 273.222 89.7882 273.222C89.7879 273.221 89.7876 273.221 89.7875 273.221C89.7873 273.221 89.7872 273.221 89.5 273.63ZM112.896 295.5L112.442 295.711C114.989 301.191 115.888 308.732 116.141 314.951C116.267 318.052 116.232 320.806 116.166 322.785C116.132 323.775 116.091 324.57 116.058 325.117C116.042 325.39 116.028 325.602 116.018 325.744C116.013 325.816 116.009 325.87 116.006 325.906C116.004 325.924 116.003 325.938 116.003 325.947C116.002 325.951 116.002 325.954 116.002 325.956C116.002 325.958 116.002 325.958 116.002 325.959C116.002 325.959 116.002 325.959 116.002 325.959C116.002 325.959 116.002 325.959 116.5 326C116.998 326.041 116.998 326.04 116.998 326.04C116.998 326.04 116.998 326.04 116.998 326.039C116.999 326.039 116.999 326.038 116.999 326.036C116.999 326.034 116.999 326.03 117 326.025C117 326.016 117.001 326.001 117.003 325.982C117.006 325.944 117.01 325.889 117.015 325.815C117.026 325.669 117.04 325.454 117.057 325.177C117.09 324.622 117.131 323.818 117.165 322.819C117.232 320.821 117.267 318.041 117.14 314.91C116.886 308.667 115.983 300.958 113.349 295.289L112.896 295.5ZM79 320L79.2929 320.405L113.189 295.905L112.896 295.5L112.603 295.095L78.7071 319.595L79 320ZM124.5 258.94L124.082 259.215C125.623 261.564 128.307 263.42 131.475 265.032C134.651 266.648 138.385 268.054 142.081 269.465C145.791 270.881 149.466 272.303 152.577 273.961C155.694 275.623 158.182 277.49 159.574 279.761L160 279.5L160.426 279.239C158.894 276.739 156.217 274.768 153.047 273.079C149.871 271.386 146.138 269.943 142.438 268.53C138.724 267.113 135.047 265.727 131.929 264.141C128.804 262.55 126.313 260.792 124.918 258.666L124.5 258.94ZM160 279.5L159.574 279.761C163.182 285.649 165.793 291.989 167.503 296.862C168.358 299.298 168.986 301.364 169.4 302.82C169.607 303.548 169.761 304.123 169.863 304.516C169.914 304.712 169.952 304.863 169.977 304.964C169.989 305.015 169.998 305.053 170.005 305.078C170.008 305.091 170.01 305.1 170.011 305.107C170.012 305.11 170.013 305.112 170.013 305.113C170.013 305.114 170.013 305.115 170.013 305.115C170.013 305.115 170.013 305.115 170.013 305.115C170.013 305.115 170.013 305.115 170.5 305C170.987 304.885 170.986 304.885 170.986 304.884C170.986 304.884 170.986 304.884 170.986 304.884C170.986 304.883 170.986 304.883 170.986 304.882C170.985 304.88 170.985 304.877 170.984 304.874C170.982 304.867 170.98 304.856 170.976 304.843C170.97 304.816 170.96 304.776 170.947 304.724C170.921 304.619 170.883 304.465 170.831 304.265C170.727 303.866 170.572 303.283 170.362 302.546C169.943 301.074 169.309 298.989 168.447 296.531C166.723 291.62 164.085 285.209 160.426 279.239L160 279.5ZM112.896 295.5L113.056 295.973L160.161 279.973L160 279.5L159.839 279.027L112.735 295.027L112.896 295.5ZM190 262L189.951 262.498L230.451 266.498L230.5 266L230.549 265.502L190.049 261.502L190 262ZM230.5 266L230.36 266.48L269.86 277.98L270 277.5L270.14 277.02L230.64 265.52L230.5 266ZM277 250.25L276.601 250.551L303.601 286.301L304 286L304.399 285.699L277.399 249.949L277 250.25ZM304 286L303.557 286.232L315.057 308.232L315.5 308L315.943 307.768L304.443 285.768L304 286ZM270 277.5L269.879 277.985L303.879 286.485L304 286L304.121 285.515L270.121 277.015L270 277.5ZM298.859 236.166L298.437 236.435L319.71 269.769L320.132 269.5L320.553 269.231L299.28 235.897L298.859 236.166ZM320.132 269.5L319.71 269.769L337.579 297.769L338 297.5L338.421 297.231L320.553 269.231L320.132 269.5ZM304 286L304.358 286.35L320.489 269.85L320.132 269.5L319.774 269.15L303.642 285.65L304 286ZM329.5 244.276L329.101 244.578L353.101 276.367L353.5 276.066L353.899 275.765L329.899 243.975L329.5 244.276ZM353.5 276.066L353.101 276.367L360.601 286.301L361 286L361.399 285.699L353.899 275.765L353.5 276.066ZM320.132 269.5L320.035 269.991L353.403 276.556L353.5 276.066L353.597 275.575L320.228 269.009L320.132 269.5ZM315.5 215L315.682 214.534L304.182 210.034L304 210.5L303.818 210.966L315.318 215.466L315.5 215ZM329.5 244.276L329.255 244.712L370.755 268.081L371 267.646L371.245 267.21L329.745 243.841L329.5 244.276ZM371 267.646L370.755 268.081L388.255 277.936L388.5 277.5L388.745 277.064L371.245 267.21L371 267.646ZM348 234L347.587 234.282L370.587 267.928L371 267.646L371.413 267.363L348.413 233.718L348 234ZM353.5 276.066L353.398 276.555L380.898 282.307L381 281.817L381.102 281.328L353.602 275.576L353.5 276.066ZM381 281.817L380.898 282.307L400.898 286.489L401 286L401.102 285.511L381.102 281.328L381 281.817ZM371 267.646L370.591 267.934L380.591 282.105L381 281.817L381.409 281.529L371.409 267.357L371 267.646ZM25 402.5L25.2415 402.938L54.2415 386.938L54 386.5L53.7585 386.062L24.7585 402.062L25 402.5ZM79 320L78.5071 319.916L71.2571 362.416L71.75 362.5L72.2429 362.584L79.4929 320.084L79 320ZM71.75 362.5L71.2536 362.56L74.5036 389.56L75 389.5L75.4964 389.44L72.2464 362.44L71.75 362.5ZM54 386.5L54.402 386.797L72.152 362.797L71.75 362.5L71.348 362.203L53.598 386.203L54 386.5ZM71.75 362.5L72.066 362.887L116.816 326.387L116.5 326L116.184 325.613L71.434 362.113L71.75 362.5ZM116.5 326L116.681 326.466L170.681 305.466L170.5 305L170.319 304.534L116.319 325.534L116.5 326ZM208 314L208.125 314.484L243.125 305.484L243 305L242.875 304.516L207.875 313.516L208 314ZM243 305L242.99 305.5L293.49 306.5L293.5 306L293.51 305.5L243.01 304.5L243 305ZM293.5 306L293.455 306.498L315.455 308.498L315.5 308L315.545 307.502L293.545 305.502L293.5 306ZM315.5 308L315.711 308.453L338.211 297.953L338 297.5L337.789 297.047L315.289 307.547L315.5 308ZM338 297.5L338.224 297.947L361.224 286.447L361 286L360.776 285.553L337.776 297.053L338 297.5ZM116.5 326C116.01 325.901 116.01 325.901 116.01 325.901C116.01 325.901 116.01 325.902 116.01 325.902C116.01 325.903 116.009 325.904 116.009 325.905C116.008 325.908 116.008 325.912 116.006 325.918C116.004 325.929 116.001 325.946 115.996 325.968C115.988 326.012 115.975 326.077 115.958 326.163C115.924 326.334 115.875 326.587 115.813 326.913C115.688 327.565 115.511 328.511 115.303 329.689C114.885 332.046 114.339 335.33 113.824 339.044C112.797 346.461 111.889 355.631 112.397 362.537L112.896 362.5L113.394 362.463C112.894 355.67 113.788 346.59 114.815 339.181C115.327 335.483 115.871 332.211 116.287 329.864C116.495 328.691 116.671 327.749 116.795 327.1C116.857 326.776 116.906 326.525 116.939 326.356C116.956 326.271 116.969 326.207 116.977 326.164C116.981 326.142 116.985 326.126 116.987 326.115C116.988 326.11 116.989 326.106 116.989 326.103C116.99 326.102 116.99 326.101 116.99 326.1C116.99 326.1 116.99 326.099 116.99 326.099C116.99 326.099 116.99 326.099 116.5 326ZM112.896 362.5L112.397 362.537C113.135 372.57 113.938 382.201 114.502 388.544L115 388.5L115.498 388.456C114.934 382.117 114.132 372.491 113.394 362.463L112.896 362.5ZM75 389.5L75.2901 389.907L113.186 362.907L112.896 362.5L112.605 362.093L74.7099 389.093L75 389.5ZM170.5 305C170.014 304.884 170.014 304.885 170.013 304.885C170.013 304.885 170.013 304.885 170.013 304.886C170.013 304.887 170.013 304.888 170.012 304.89C170.011 304.894 170.01 304.9 170.008 304.907C170.005 304.922 169.999 304.944 169.992 304.974C169.979 305.032 169.958 305.119 169.932 305.233C169.878 305.462 169.8 305.797 169.702 306.229C169.504 307.092 169.224 308.339 168.891 309.874C168.224 312.942 167.346 317.164 166.502 321.773C164.818 330.965 163.251 341.782 163.794 348.043L164.292 348L164.791 347.957C164.261 341.852 165.797 331.169 167.486 321.953C168.327 317.357 169.203 313.147 169.868 310.086C170.2 308.555 170.48 307.312 170.677 306.452C170.775 306.022 170.853 305.687 170.905 305.461C170.932 305.347 170.952 305.261 170.966 305.203C170.973 305.174 170.978 305.152 170.981 305.137C170.983 305.13 170.984 305.125 170.985 305.121C170.986 305.119 170.986 305.118 170.986 305.117C170.986 305.116 170.986 305.116 170.986 305.116C170.986 305.116 170.986 305.116 170.5 305ZM164.292 348L163.794 348.043C165.083 362.895 165.5 378.865 165.5 388.5H166H166.5C166.5 378.844 166.082 362.845 164.791 347.957L164.292 348ZM112.896 362.5L113.031 362.981L164.428 348.481L164.292 348L164.157 347.519L112.76 362.019L112.896 362.5ZM164.292 348L164.278 348.5L217.486 350L217.5 349.5L217.514 349L164.306 347.5L164.292 348ZM217.5 349.5L217.635 349.981L265.635 336.481L265.5 336L265.365 335.519L217.365 349.019L217.5 349.5ZM265.5 336L265.539 336.498L304.039 333.498L304 333L303.961 332.502L265.461 335.502L265.5 336ZM315.5 324.5L315.203 324.098L303.703 332.598L304 333L304.297 333.402L315.797 324.902L315.5 324.5ZM315.5 324.5L315.539 324.998L353.539 321.998L353.5 321.5L353.461 321.002L315.461 324.002L315.5 324.5ZM217.5 349.5L217.002 349.547L219.748 378.547L220.245 378.5L220.743 378.453L217.998 349.453L217.5 349.5ZM220.245 378.5L219.747 378.538L220.501 388.538L221 388.5L221.499 388.462L220.744 378.462L220.245 378.5ZM265.5 336L265.06 336.237L283.367 370.237L283.808 370L284.248 369.763L265.94 335.763L265.5 336ZM283.808 370L283.367 370.237L296.56 394.737L297 394.5L297.44 394.263L284.248 369.763L283.808 370ZM220.245 378.5L220.312 378.996L283.874 370.496L283.808 370L283.741 369.504L220.179 378.004L220.245 378.5ZM304 333L303.656 333.363L331.658 359.94L332.002 359.577L332.346 359.214L304.344 332.637L304 333ZM332.002 359.577L331.645 359.927L383.143 412.35L383.5 412L383.857 411.65L332.359 359.227L332.002 359.577ZM283.808 370L283.913 370.489L332.108 360.066L332.002 359.577L331.896 359.088L283.702 369.511L283.808 370ZM315.5 324.5L315.271 324.944L358.271 347.109L358.5 346.665L358.729 346.221L315.729 324.056L315.5 324.5ZM358.5 346.665L358.271 347.109L412.271 374.944L412.5 374.5L412.729 374.056L358.729 346.221L358.5 346.665ZM332.002 359.577L332.221 360.026L358.719 347.114L358.5 346.665L358.281 346.215L331.783 359.127L332.002 359.577ZM353.5 321.5L353.257 321.937L393.757 344.437L394 344L394.243 343.563L353.743 321.063L353.5 321.5ZM394 344L393.963 343.501L358.463 346.166L358.5 346.665L358.537 347.164L394.037 344.499L394 344ZM83.6691 211.5L83.1955 211.34C80.9935 217.84 79.2128 224.885 78.4049 231.943L78.9016 232L79.3984 232.057C80.1963 225.085 81.9574 218.112 84.1426 211.66L83.6691 211.5ZM78.9016 232L78.4049 231.943C77.4516 240.271 77.8502 248.642 80.5289 256.168L81 256L81.4711 255.832C78.8591 248.494 78.4563 240.287 79.3984 232.057L78.9016 232ZM17 145.5L16.6045 145.806L25.8861 157.806L26.2816 157.5L26.6771 157.194L17.3955 145.194L17 145.5ZM26.2816 157.5L25.8624 157.773L50.5809 195.773L51 195.5L51.4191 195.227L26.7007 157.227L26.2816 157.5ZM170.5 305L170.383 305.486L207.883 314.486L208 314L208.117 313.514L170.617 304.514L170.5 305ZM220.245 378.5L220.155 378.008L165.909 388.008L166 388.5L166.091 388.992L220.336 378.992L220.245 378.5ZM160 279.5L160.252 279.932L190.252 262.432L190 262L189.748 261.568L159.748 279.068L160 279.5ZM348 234L347.726 234.418L383.726 258.06L384 257.642L384.274 257.224L348.274 233.582L348 234ZM384 257.642L383.736 258.067L390.736 262.424L391 262L391.264 261.576L384.264 257.218L384 257.642ZM371 228.063L370.542 228.264L383.542 257.844L384 257.642L384.458 257.441L371.458 227.862L371 228.063ZM317.5 186.5L317.117 186.821L325.117 196.37L325.5 196.048L325.883 195.727L317.883 186.179L317.5 186.5ZM325.5 196.048L325.175 196.428L349.675 217.38L350 217L350.325 216.62L325.825 195.668L325.5 196.048ZM315.5 215L315.379 215.485L323.379 217.485L323.5 217L323.621 216.515L315.621 214.515L315.5 215ZM323.5 217L323.215 217.411L347.715 234.411L348 234L348.285 233.589L323.785 216.589L323.5 217ZM241 118L241.495 117.929L239.995 107.429L239.5 107.5L239.005 107.571L240.505 118.071L241 118Z" fill="#6B5F8D"/>
<path d="M214.074 126.983C214.542 126.925 215.538 126.401 216.741 125.567C217.752 124.868 218.908 123.949 220.021 122.902C221.174 121.818 222.281 120.598 223.131 119.342C224.062 117.967 224.684 116.55 224.722 115.224C224.782 113.117 224.366 111.35 223.858 110C223.135 108.082 222.224 107.009 222.224 107.009L215.739 122.902L214.074 126.983Z" fill="#9BCCD7"/>
<path d="M214.074 126.983C214.542 126.925 215.538 126.401 216.741 125.567C217.752 124.868 218.908 123.949 220.021 122.902C221.174 121.818 222.281 120.598 223.131 119.342C224.062 117.967 224.684 116.55 224.722 115.224M214.074 126.983L224.722 115.224M214.074 126.983L215.739 122.902M224.722 115.224C224.782 113.117 224.366 111.35 223.858 110M223.858 110C223.135 108.082 222.224 107.009 222.224 107.009L215.739 122.902M223.858 110L215.739 122.902" stroke="black" stroke-width="0.65" stroke-linecap="round" stroke-linejoin="round"/>
<path d="M63.7842 167.396C65.311 168.873 67.2921 170.9 69.0479 172.82C70.135 174.009 71.1328 175.152 71.8818 176.096C72.2566 176.568 72.5655 176.986 72.792 177.332C73.0251 177.688 73.149 177.937 73.1846 178.079C73.204 178.157 73.1825 178.343 73.0156 178.68C72.8579 178.998 72.6025 179.388 72.2617 179.838C71.5812 180.736 70.5944 181.831 69.4775 183C68.3622 184.167 67.1243 185.4 65.9443 186.572C65.1997 187.312 64.4778 188.029 63.8252 188.688C66.1736 181.78 66.1595 174.298 63.7842 167.396ZM117.271 165.381C117.308 165.413 117.353 165.436 117.4 165.448C123.226 166.931 128.706 169.869 133.25 174.174L127.411 174.606C127.259 174.618 127.135 174.734 127.113 174.886C127.092 175.037 127.179 175.182 127.322 175.235L131.266 176.69C121.062 186.773 105.906 190.237 92.2324 185.568L89.2148 184.538C89.187 184.529 89.1581 184.523 89.1289 184.521L89.041 184.528L82.5107 185.947L84.9004 183.56C84.9796 183.48 85.0117 183.365 84.9863 183.256C84.9608 183.147 84.8813 183.059 84.7754 183.022L76.8477 180.315C76.7752 180.291 76.6971 180.293 76.627 180.319L76.5596 180.354L65.6016 187.83C65.8636 187.569 66.1312 187.304 66.4023 187.034C67.5817 185.863 68.8252 184.624 69.9473 183.449C71.0678 182.276 72.0755 181.159 72.7793 180.23C73.1305 179.767 73.4146 179.34 73.5986 178.969C73.7732 178.617 73.8959 178.243 73.8154 177.921C73.7509 177.663 73.5708 177.334 73.3359 176.976C73.0943 176.607 72.7715 176.171 72.3906 175.691C71.6282 174.731 70.6192 173.575 69.5273 172.381C68.3506 171.094 67.0726 169.759 65.8955 168.57L76.9004 176.08C77.0001 176.148 77.1298 176.155 77.2363 176.099L83.4482 172.802C83.531 172.758 83.5908 172.68 83.6123 172.589C83.6338 172.498 83.615 172.401 83.5605 172.325L82.0723 170.242L90.6562 168.955C90.6927 168.95 90.7282 168.938 90.7607 168.921L91.4717 168.543C94.4265 166.975 97.5287 165.852 100.688 165.161C100.739 165.15 100.786 165.127 100.825 165.095L106.575 160.359L109.911 161.312C110.032 161.347 110.161 161.309 110.244 161.215C110.327 161.121 110.348 160.987 110.299 160.872L109.344 158.645L117.271 165.381Z" fill="#9BCCD7" stroke="black" stroke-width="0.65" stroke-linejoin="round"/>
<circle cx="2.54231" cy="2.54231" r="2.21731" transform="matrix(-0.76731 0.641276 0.641276 0.76731 119.207 167.358)" fill="#FFE6A7" stroke="black" stroke-width="0.65"/>
<path d="M117.502 186.999L117.56 187.496L119.222 187.3L117.725 186.552L117.502 186.999ZM90.9472 168.776C90.8237 168.529 90.5234 168.429 90.2764 168.553C90.0294 168.676 89.9293 168.976 90.0528 169.223L90.5 169L90.9472 168.776ZM88 178.5L87.5017 178.541L87.5017 178.541L88 178.5ZM94.5 186.999L94.2764 187.447L94.3658 187.491L94.4656 187.498L94.5 186.999ZM100.763 164.555C100.897 164.313 100.808 164.009 100.566 163.875C100.324 163.742 100.02 163.831 99.8873 164.072L100.325 164.313L100.763 164.555ZM109 187.999V188.499H109.029L109.058 188.496L109 187.999ZM105 170.5L104.938 170.004L104.938 170.004L105 170.5ZM117 164.5L116.646 164.146C115.293 165.5 113.581 167.49 112.357 169.817C111.135 172.142 110.376 174.852 111.013 177.612L111.5 177.499L111.987 177.387C111.424 174.947 112.082 172.49 113.243 170.282C114.402 168.076 116.04 166.167 117.354 164.853L117 164.5ZM111.5 177.499L111.013 177.612C111.629 180.28 112.741 182.506 113.917 184.175C115.084 185.83 116.342 186.978 117.278 187.446L117.502 186.999L117.725 186.552C116.995 186.187 115.852 185.185 114.735 183.599C113.626 182.026 112.571 179.919 111.987 177.387L111.5 177.499ZM90.5 169L90.0528 169.223C89.9993 169.116 90.0127 169.022 90.022 168.985C90.0293 168.957 90.0356 168.955 90.0127 168.993C89.965 169.071 89.8805 169.179 89.7355 169.364C89.4608 169.716 89.0608 170.235 88.6731 170.978C87.8936 172.473 87.1915 174.818 87.5017 178.541L88 178.5L88.4983 178.458C88.2023 174.907 88.8752 172.753 89.5597 171.441C89.9041 170.781 90.2584 170.32 90.5237 169.98C90.6487 169.82 90.7806 169.654 90.8663 169.514C90.9101 169.442 90.9622 169.345 90.9909 169.233C91.0216 169.112 91.0319 168.946 90.9472 168.776L90.5 169ZM88 178.5L87.5017 178.541C87.7618 181.662 88.9406 183.651 90.3427 184.987C91.7233 186.302 93.3106 186.964 94.2764 187.447L94.5 186.999L94.7236 186.552C93.6894 186.035 92.2767 185.448 91.0323 184.263C89.8094 183.098 88.7382 181.337 88.4983 178.458L88 178.5ZM100.325 164.313L99.8873 164.072C98.3193 166.922 95.4723 173.062 99.0528 180.223L99.5 180L99.9472 179.776C96.597 173.076 99.2356 167.331 100.763 164.555L100.325 164.313ZM99.5 180L99.0528 180.223C100.881 183.88 102.809 185.957 104.576 187.118C106.349 188.282 107.924 188.499 109 188.499V187.999V187.499C108.076 187.499 106.701 187.317 105.124 186.282C103.541 185.242 101.719 183.319 99.9472 179.776L99.5 180ZM130 171C130.054 170.503 130.054 170.503 130.054 170.503C130.054 170.503 130.054 170.503 130.053 170.503C130.053 170.503 130.052 170.503 130.051 170.503C130.049 170.502 130.046 170.502 130.042 170.502C130.035 170.501 130.023 170.5 130.008 170.498C129.978 170.495 129.934 170.49 129.875 170.484C129.759 170.472 129.587 170.454 129.364 170.432C128.92 170.388 128.275 170.327 127.472 170.257C125.866 170.117 123.626 169.942 121.087 169.805C116.019 169.532 109.732 169.404 104.938 170.004L105 170.5L105.062 170.996C109.762 170.408 115.974 170.531 121.033 170.804C123.558 170.94 125.787 171.114 127.385 171.253C128.184 171.323 128.825 171.384 129.266 171.427C129.486 171.449 129.657 171.467 129.772 171.479C129.829 171.485 129.873 171.489 129.902 171.492C129.917 171.494 129.928 171.495 129.935 171.496C129.939 171.496 129.942 171.497 129.943 171.497C129.944 171.497 129.945 171.497 129.945 171.497C129.946 171.497 129.946 171.497 129.946 171.497C129.946 171.497 129.946 171.497 130 171ZM105 170.5L104.938 170.004C98.9207 170.756 91.7448 173.278 86.099 175.595C83.2704 176.756 80.8153 177.87 79.067 178.694C78.1928 179.106 77.495 179.446 77.0153 179.683C76.7754 179.801 76.5901 179.894 76.4645 179.957C76.4016 179.989 76.3538 180.013 76.3214 180.03C76.3053 180.038 76.293 180.044 76.2847 180.048C76.2806 180.05 76.2775 180.052 76.2753 180.053C76.2742 180.054 76.2734 180.054 76.2728 180.054C76.2726 180.055 76.2723 180.055 76.2722 180.055C76.272 180.055 76.2719 180.055 76.5 180.5C76.7281 180.945 76.7281 180.945 76.7282 180.945C76.7283 180.945 76.7285 180.945 76.7287 180.944C76.7291 180.944 76.7298 180.944 76.7308 180.943C76.7326 180.942 76.7355 180.941 76.7394 180.939C76.7472 180.935 76.7589 180.929 76.7745 180.921C76.8058 180.905 76.8526 180.881 76.9143 180.85C77.0377 180.788 77.2207 180.697 77.4581 180.579C77.9328 180.345 78.6251 180.008 79.4934 179.599C81.23 178.78 83.6693 177.673 86.4787 176.52C92.1087 174.209 99.1828 171.731 105.062 170.996L105 170.5ZM94.5 186.999L94.4656 187.498L108.966 188.498L109 187.999L109.034 187.501L94.5344 186.501L94.5 186.999ZM109 187.999L109.058 188.496L117.56 187.496L117.502 186.999L117.443 186.503L108.942 187.503L109 187.999Z" fill="#6B5F8D"/>
<path d="M108.13 175.898L87.5994 169.273C87.5994 169.273 88.2812 173.301 92.2768 176.473C93.3158 177.298 94.8007 177.735 96.4518 177.908C97.9599 178.066 99.6067 178.006 101.179 177.821C102.696 177.643 104.144 177.35 105.33 177.027C106.743 176.643 107.784 176.218 108.13 175.898Z" fill="#9BCCD7" stroke="black" stroke-width="0.65" stroke-linecap="round" stroke-linejoin="round"/>
<path d="M204.37 255.204L198.305 259.169C181.206 260.81 164.31 267.792 148 280.582L163.243 286.5L153.716 287.866C168.5 306.5 180.029 310.595 202.087 313.275C206.342 313.792 211.048 314.364 216.341 315.147C234.087 317.773 256.13 318.525 274 319.499C274 319.499 279.402 328.174 285.5 331.5C291 334.5 302.742 336 302.742 336L292.5 321.437C300.163 321.177 310.554 320.561 318.182 319.499L357.478 354.297C356.575 350.751 355.565 347.512 354.533 344.5C353.591 341.747 352.63 339.183 351.717 336.745C350.498 333.489 349.362 330.457 348.465 327.5C346.862 322.212 346.022 317.163 346.833 311.5C347.249 308.598 348.098 305.534 349.5 302.193C350.132 300.688 350.875 299.127 351.742 297.5L319.4 308.008L301.373 298.438L311 290.5C311 290.5 299.423 285.39 292 284.956C284.946 284.542 277.753 284.628 275.977 284.956L270.626 282.115C268.04 280.482 265.662 278.761 263.477 276.986C256.366 271.211 251.294 264.876 247.743 259.257C247.045 258.153 234.645 260.444 229.082 261.846C233.418 259.105 243.889 252.369 243.479 251.5C242.209 248.803 220.356 259.894 216.921 259.463L240.243 243C227.449 243.984 215.11 248.182 204.37 255.204Z" fill="#9BCCD7"/>
<path d="M292.5 321.437L302.742 336C302.742 336 291 334.5 285.5 331.5C279.402 328.174 274 319.499 274 319.499C256.13 318.525 234.087 317.773 216.341 315.147C211.048 314.364 206.342 313.792 202.087 313.275C180.029 310.595 168.5 306.5 153.716 287.866L163.243 286.5L148 280.582C164.31 267.792 181.206 260.81 198.305 259.169L204.37 255.204C215.11 248.182 227.449 243.984 240.243 243L216.921 259.463C220.356 259.894 242.209 248.803 243.479 251.5C243.889 252.369 233.418 259.105 229.082 261.846C234.645 260.444 247.045 258.153 247.743 259.257C251.294 264.876 256.366 271.211 263.477 276.986M292.5 321.437C300.163 321.177 310.554 320.561 318.182 319.499L357.478 354.297M292.5 321.437L279 319.499C279.238 319.9 280.577 321.92 281 322.5M357.478 354.297C349.676 345.806 336.215 330.565 329.717 321.437M357.478 354.297C356.575 350.751 355.565 347.512 354.533 344.5M351.742 297.5L319.4 308.008L301.373 298.438M351.742 297.5C345.429 300.501 334.321 306.319 329 310.726C327.23 312.192 326.1 313.502 326 314.5M351.742 297.5C350.875 299.127 350.132 300.688 349.5 302.193C348.098 305.534 347.249 308.598 346.833 311.5M301.373 298.438L311 290.5C311 290.5 299.423 285.39 292 284.956C284.946 284.542 277.753 284.628 275.977 284.956L270.626 282.115C268.04 280.482 265.662 278.761 263.477 276.986M301.373 298.438L283.977 289.297C284.763 289.047 286.207 288.715 288.057 288.5M237.5 265C243 266.126 253.077 270.337 263.477 276.986M297.5 332.5C295.5 331.833 290.7 330.1 287.5 328.5C285.703 327.601 284.031 326.016 282.734 324.5M282.734 324.5L294.5 327.5M282.734 324.5C282.271 323.959 281.356 322.989 281 322.5M281 322.5L292 324M326 314.5L346.833 311.5M326 314.5C325.934 315.162 326.46 316.379 327.434 318C328.036 319.002 328.809 320.16 329.717 321.437M329.717 321.437L354.533 344.5M354.533 344.5C353.591 341.747 352.63 339.183 351.717 336.745C350.498 333.489 349.362 330.457 348.465 327.5C346.862 322.212 346.022 317.163 346.833 311.5M306 291C304.667 290.432 300.7 289.137 295.5 288.5C294.472 288.374 293.466 288.308 292.5 288.288M292.5 288.288L302.742 292.5M292.5 288.288C290.875 288.253 289.365 288.348 288.057 288.5M288.057 288.5L300 294.5" stroke="black" stroke-linecap="round" stroke-linejoin="round"/>
<path d="M275.404 301.013C278.1 301.663 280.773 300.173 281.373 297.684C281.973 295.195 280.274 292.65 277.578 292" stroke="black"/>
<path d="M273.002 309.971C275.698 310.621 278.37 309.131 278.971 306.642C279.571 304.153 277.872 301.608 275.176 300.958" stroke="black"/>
<path d="M279.408 306.663C282.104 307.313 284.777 305.823 285.377 303.334C285.977 300.845 284.278 298.301 281.582 297.65" stroke="black"/>
<path d="M196.5 267.5C204.5 271 213.277 280.397 212.477 290.797C211.677 301.197 202.5 311 183 306.5C189.167 308.333 203.2 310.9 210 306.5" stroke="black" stroke-linecap="round" stroke-linejoin="round"/>
<path d="M166.477 282.797C159.277 280.797 151.81 280.63 148.977 280.797L163 286.297H175.477C175.477 285.964 173.677 284.797 166.477 282.797Z" fill="#927630" stroke="black" stroke-linecap="round" stroke-linejoin="round"/>
<path d="M180.977 271.297C184.056 271.297 186.477 273.576 186.477 276.297C186.477 279.018 184.056 281.297 180.977 281.297C177.897 281.297 175.477 279.018 175.477 276.297C175.477 273.576 177.897 271.297 180.977 271.297Z" fill="#FFE6A7" stroke="black"/>
<circle cx="180.977" cy="275.797" r="3.5" fill="#6B5F8D" stroke="black"/>
<path d="M313.5 304C314.333 305.167 316 308.2 316 311C316 313.8 315.667 318.833 315.5 321" stroke="#6B5F8D" stroke-linecap="round" stroke-linejoin="round"/>
<path d="M248 308.5C248 308.5 260 305.5 251 281.5C246.26 268.86 237.5 264.5 230.5 262L205.103 259.619C200.719 259.208 196.301 259.366 191.958 260.09L189.5 260.5C189.5 260.5 206.25 265 214.5 281.5C225.5 303.5 208 314 208 314L248 308.5ZM248 308.5L253.5 319.5M248 308.5L293.5 306M293.5 306C287 286.5 272 279 272 279M293.5 306L304 332.5M293.5 306L315.5 307.5L318.5 306.5" stroke="#6B6291" stroke-linecap="round" stroke-linejoin="round"/>
<path d="M225 298L273.5 278C273.363 279.138 272.1 281.565 270.082 284.5C268.389 286.963 266.165 289.783 263.631 292.5C261.005 295.314 258.047 298.017 255 300.095C251.665 302.37 248.224 303.896 245 304C232.6 304.4 225 298 225 298Z" fill="#9BCCD7"/>
<path d="M238 297L270.082 284.5M238 297L263.631 292.5M238 297L255 300.095M270.082 284.5C272.1 281.565 273.363 279.138 273.5 278L225 298C225 298 232.6 304.4 245 304C248.224 303.896 251.665 302.37 255 300.095M270.082 284.5C268.389 286.963 266.165 289.783 263.631 292.5M263.631 292.5C261.005 295.314 258.047 298.017 255 300.095" stroke="black" stroke-linecap="round" stroke-linejoin="round"/>
<path d="M221.216 280.649C224.676 279.693 226.766 276.329 225.883 273.135C225 269.941 221.48 268.127 218.02 269.083" stroke="black"/>
<path d="M224.197 292.298C227.657 291.341 229.746 287.977 228.864 284.783C227.981 281.589 224.46 279.775 221 280.731" stroke="black"/>
<path d="M229.197 284.298C232.657 283.341 234.746 279.977 233.864 276.783C232.981 273.589 229.46 271.775 226 272.731" stroke="black"/>
<path d="M169 268.5C162.2 272.1 154.5 277 151.5 279C155.333 277.167 164.7 272.8 171.5 270C178.3 267.2 191 265.5 196.5 265L190 262C185.833 262.667 175.8 264.9 169 268.5Z" fill="#D9D9D9"/>
<path d="M199.5 264L194.5 261.5C194.5 261.167 195.5 260.5 199.5 260.5C203.5 260.5 221.833 262.167 230.5 263L238.5 267C233.5 266.833 222.3 266.3 217.5 265.5C212.7 264.7 203.5 264.167 199.5 264Z" fill="#D9D9D9"/>
<circle cx="57" cy="329" r="1.5" fill="#FFE6A7" stroke="black"/>
<path d="M88.1092 306.598L68.3635 320.005C68.3635 320.005 72.3422 322.151 77.8279 320.822C79.2543 320.477 80.6451 319.478 81.9195 318.155C83.0837 316.947 84.1507 315.469 85.059 313.971C85.9357 312.526 86.6645 311.064 87.1901 309.81C87.8163 308.316 88.1539 307.117 88.1092 306.598Z" fill="#9BCCD7" stroke="black" stroke-width="0.65" stroke-linecap="round" stroke-linejoin="round"/>
<path d="M279.219 190.244L258.208 195.558C259.916 193.63 262.745 190.163 264.051 187.984C264.305 187.561 264.543 187.172 264.766 186.808C266.464 184.046 267.327 182.753 267.937 179.102C268.364 176.549 268.671 169.777 268.611 167.152L280.916 184.351L289.45 184.539L286.219 176.848C286.925 177.362 288.924 178.895 291.27 180.91C292.553 182.011 293.602 183.406 294.37 184.648C301.804 184.812 306.425 178.371 312.904 177.796C313.724 177.723 321.231 187.984 321.231 187.984C321.231 187.984 317.053 178.223 317.9 178.547L322.345 178.547L330.669 196.867C340.013 201.812 345 211.5 346 217.5L336.935 216.304L344.56 219.753C326.223 228.107 306.423 220.529 292.91 205.485L284.619 196.255L276.559 194.032L281.134 192.376L279.219 190.244Z" fill="#9BCCD7"/>
<path d="M258.208 195.558L279.219 190.244L281.134 192.376L276.559 194.032L284.619 196.255L292.91 205.485C306.423 220.529 326.223 228.107 344.56 219.753L336.935 216.304L346 217.5C345 211.5 340.013 201.812 330.669 196.867L322.345 178.547L317.9 178.547C317.053 178.223 321.231 187.984 321.231 187.984C321.231 187.984 313.724 177.723 312.904 177.796C306.425 178.371 301.804 184.812 294.37 184.648C293.602 183.406 292.553 182.011 291.27 180.91C288.924 178.895 286.925 177.362 286.219 176.848L289.45 184.539L280.916 184.351L268.611 167.152M258.208 195.558L275.155 188.057C276.7 187.373 277.376 185.549 276.649 184.023L268.611 167.152M258.208 195.558C259.916 193.63 262.745 190.163 264.051 187.984C264.305 187.561 264.543 187.172 264.766 186.808M268.611 167.152C268.671 169.777 268.364 176.549 267.937 179.102M267.937 179.102C267.327 182.753 266.464 184.046 264.766 186.808M267.937 179.102L276.559 186.808L264.766 186.808" stroke="black" stroke-width="0.65" stroke-linecap="round" stroke-linejoin="round"/>
<path d="M329.007 198.533C325.617 199.433 317.477 206.078 317.681 211.871C317.884 217.665 327.673 220.198 327.673 220.198" stroke="black" stroke-width="0.65" stroke-linecap="round" stroke-linejoin="round"/>
<circle cx="3.02086" cy="3.02086" r="2.69586" transform="matrix(-0.76731 0.641276 0.641276 0.76731 333.898 202.991)" fill="#FFE6A7" stroke="black" stroke-width="0.65"/>
<path d="M315.099 197.02C313.568 196.445 312.756 194.834 313.287 193.42C313.817 192.007 315.488 191.326 317.02 191.901" stroke="black" stroke-width="0.65"/>
<path d="M311.326 198.351C309.794 197.777 308.983 196.165 309.513 194.752C310.043 193.338 311.715 192.658 313.246 193.232" stroke="black" stroke-width="0.65"/>
<path d="M297.607 199.877C296.076 199.303 295.264 197.691 295.794 196.278C296.325 194.864 297.996 194.184 299.527 194.758" stroke="black" stroke-width="0.65"/>
<path d="M298.464 184.1C301.239 185.95 307.235 193.537 309.012 200.199C310.788 206.861 309.012 214.078 307.901 216.853M319 184.1C319 184.1 322.5 190 323.936 191.871M329.5 223.5C332.5 219.5 330.116 207.414 328.446 201.308C327.151 196.574 324.623 192.395 323.936 191.871M323.936 191.871L300.134 186.319L294.582 184.654M323.936 191.871L330.667 196.867" stroke="#6B5F8D" stroke-linecap="round" stroke-linejoin="round"/>
<path d="M285.146 201.539L315.082 206.469C315.082 206.469 311.637 211.067 304.599 212.462C302.769 212.825 300.631 212.415 298.455 211.569C296.467 210.796 294.447 209.66 292.6 208.418C290.818 207.219 289.196 205.92 287.921 204.754C286.401 203.364 285.372 202.162 285.146 201.539Z" fill="#9BCCD7" stroke="black" stroke-width="0.65" stroke-linecap="round" stroke-linejoin="round"/>
<path d="M68.5881 79.2096C71.6702 77.6462 74.7622 76.8807 77.2562 76.8865C79.7806 76.8924 81.536 77.6775 82.2186 79.0231C82.9012 80.3686 82.4978 82.2488 81.0114 84.2893C79.5429 86.3051 77.0989 88.348 74.0169 89.9114C70.9349 91.4748 67.8429 92.2403 65.3489 92.2345C62.8244 92.2286 61.0691 91.4435 60.3865 90.098C59.7039 88.7524 60.1072 86.8722 61.5936 84.8317C63.0621 82.8159 65.5061 80.773 68.5881 79.2096Z" fill="#FFE6A7"/>
<path d="M68.5881 79.2096C71.6702 77.6462 74.7622 76.8807 77.2562 76.8865C79.7806 76.8924 81.536 77.6775 82.2186 79.0231C82.9012 80.3686 82.4978 82.2488 81.0114 84.2893C79.5429 86.3051 77.0989 88.348 74.0169 89.9114C70.9349 91.4748 67.8429 92.2403 65.3489 92.2345C62.8244 92.2286 61.0691 91.4435 60.3865 90.098C59.7039 88.7524 60.1072 86.8722 61.5936 84.8317C63.0621 82.8159 65.5061 80.773 68.5881 79.2096Z" fill="#688ACD" fill-opacity="0.4"/>
<path d="M68.5881 79.2096C71.6702 77.6462 74.7622 76.8807 77.2562 76.8865C79.7806 76.8924 81.536 77.6775 82.2186 79.0231C82.9012 80.3686 82.4978 82.2488 81.0114 84.2893C79.5429 86.3051 77.0989 88.348 74.0169 89.9114C70.9349 91.4748 67.8429 92.2403 65.3489 92.2345C62.8244 92.2286 61.0691 91.4435 60.3865 90.098C59.7039 88.7524 60.1072 86.8722 61.5936 84.8317C63.0621 82.8159 65.5061 80.773 68.5881 79.2096Z" stroke="black"/>
<path d="M191.822 31.7458C195.171 30.8938 198.356 30.8226 200.788 31.3733C203.25 31.9308 204.791 33.0806 205.163 34.5428C205.535 36.005 204.731 37.7516 202.835 39.4179C200.961 41.064 198.13 42.5233 194.78 43.3754C191.431 44.2274 188.247 44.2986 185.814 43.7479C183.352 43.1904 181.811 42.0407 181.439 40.5784C181.067 39.1162 181.871 37.3696 183.768 35.7033C185.641 34.0572 188.473 32.5979 191.822 31.7458Z" fill="#FFE6A7"/>
<path d="M191.822 31.7458C195.171 30.8938 198.356 30.8226 200.788 31.3733C203.25 31.9308 204.791 33.0806 205.163 34.5428C205.535 36.005 204.731 37.7516 202.835 39.4179C200.961 41.064 198.13 42.5233 194.78 43.3754C191.431 44.2274 188.247 44.2986 185.814 43.7479C183.352 43.1904 181.811 42.0407 181.439 40.5784C181.067 39.1162 181.871 37.3696 183.768 35.7033C185.641 34.0572 188.473 32.5979 191.822 31.7458Z" fill="#688ACD" fill-opacity="0.4"/>
<path d="M191.822 31.7458C195.171 30.8938 198.356 30.8226 200.788 31.3733C203.25 31.9308 204.791 33.0806 205.163 34.5428C205.535 36.005 204.731 37.7516 202.835 39.4179C200.961 41.064 198.13 42.5233 194.78 43.3754C191.431 44.2274 188.247 44.2986 185.814 43.7479C183.352 43.1904 181.811 42.0407 181.439 40.5784C181.067 39.1162 181.871 37.3696 183.768 35.7033C185.641 34.0572 188.473 32.5979 191.822 31.7458Z" stroke="black"/>
<path d="M337.204 4.48699C340.633 4.05749 343.801 4.38236 346.147 5.23092C348.52 6.08984 349.907 7.42214 350.095 8.91925C350.282 10.4164 349.267 12.0495 347.178 13.4673C345.115 14.8681 342.124 15.9645 338.695 16.394C335.266 16.8235 332.097 16.4986 329.752 15.65C327.378 14.7911 325.991 13.4588 325.804 11.9617C325.616 10.4646 326.632 8.83144 328.72 7.41359C330.784 6.01283 333.774 4.91649 337.204 4.48699Z" fill="#FFE6A7"/>
<path d="M337.204 4.48699C340.633 4.05749 343.801 4.38236 346.147 5.23092C348.52 6.08984 349.907 7.42214 350.095 8.91925C350.282 10.4164 349.267 12.0495 347.178 13.4673C345.115 14.8681 342.124 15.9645 338.695 16.394C335.266 16.8235 332.097 16.4986 329.752 15.65C327.378 14.7911 325.991 13.4588 325.804 11.9617C325.616 10.4646 326.632 8.83144 328.72 7.41359C330.784 6.01283 333.774 4.91649 337.204 4.48699Z" fill="#688ACD" fill-opacity="0.4"/>
<path d="M337.204 4.48699C340.633 4.05749 343.801 4.38236 346.147 5.23092C348.52 6.08984 349.907 7.42214 350.095 8.91925C350.282 10.4164 349.267 12.0495 347.178 13.4673C345.115 14.8681 342.124 15.9645 338.695 16.394C335.266 16.8235 332.097 16.4986 329.752 15.65C327.378 14.7911 325.991 13.4588 325.804 11.9617C325.616 10.4646 326.632 8.83144 328.72 7.41359C330.784 6.01283 333.774 4.91649 337.204 4.48699Z" stroke="black"/>
<path d="M65.7416 314.246C66.3761 313.127 66.0529 311.745 65.0197 311.159C63.9865 310.573 62.6346 311.006 62 312.125" stroke="black" stroke-width="0.65"/>
<path d="M69.4525 316.442C70.087 315.323 69.7639 313.941 68.7307 313.355C67.6975 312.769 66.3455 313.202 65.7109 314.321" stroke="black" stroke-width="0.65"/>
<path d="M68.6908 313.148C69.3253 312.028 69.0022 310.646 67.969 310.06C66.9358 309.475 65.5838 309.907 64.9492 311.026" stroke="black" stroke-width="0.65"/>
<path d="M76.7416 308.148C77.3761 307.028 77.0529 305.646 76.0197 305.06C74.9865 304.475 73.6346 304.907 73 306.026" stroke="black" stroke-width="0.65"/>
<path d="M78.7416 298.148C79.3761 297.028 79.0529 295.646 78.0197 295.06C76.9865 294.475 75.6346 294.907 75 296.026" stroke="black" stroke-width="0.65"/>
</g>
<defs>
<clipPath id="clip0_232_772">
<rect width="384" height="384" fill="white"/>
</clipPath>
</defs>
</svg>
