<svg width="400" height="400" viewBox="0 0 400 400" fill="none" xmlns="http://www.w3.org/2000/svg">
<g clip-path="url(#clip0_232_92)">
<path d="M52.7929 144.968L22.9798 129.216L9 99.5347L49.6209 117.925C71.2741 127.728 96.0189 128.132 117.981 119.042L140.365 109.776C156.479 103.106 174.239 101.493 191.291 105.15L263.663 120.672C271.321 122.314 279.211 119.075 283.521 112.536C288.728 104.637 288.819 94.3981 283.737 86.4182L277.452 76.5512C271.757 67.6098 260.495 64.0013 250.664 67.968L235.763 73.9805C217.354 81.4085 196.769 81.3387 178.41 73.786L147.633 61.1241C147.633 61.1241 150.787 49.3227 156.953 46.5746C161.523 44.5377 169.768 46.5746 169.768 46.5746L184.653 52.384C198.748 57.8851 214.612 56.4182 227.459 48.4259L236.225 42.9726C237.352 42.2715 238.413 41.4698 239.396 40.5774L258.97 22.7985C268.385 14.2465 283.07 15.4375 290.984 25.3949L347.988 97.114C352.311 102.553 353.32 109.919 350.62 116.32L324.642 177.908C321.983 184.212 318.427 190.098 314.084 195.385L298.822 213.962C297.45 215.632 298.241 218.161 300.32 218.752L304.046 219.812C309.787 221.444 315.95 219.517 319.739 214.905L325 208.5L329.5 225.5L324.931 233.641C322.277 238.371 317.275 241.3 311.85 241.3H282.981C278.792 241.3 274.822 243.176 272.163 246.413L244.018 280.672C241.202 284.1 242.951 289.292 247.266 290.318L282.487 298.693C293.112 301.219 303.338 305.196 312.878 310.511L333.5 322L244 416.5L170.712 352.043C156.404 339.458 149.787 320.265 153.301 301.536L158.369 274.522C160.075 265.429 164.736 257.154 171.628 250.981L246.415 183.998C255.999 175.414 252.943 159.706 240.839 155.342L205.982 142.776C188.882 136.611 170.267 136.022 152.812 141.096L116.973 151.513C95.5408 157.742 72.5265 155.395 52.7929 144.968Z" fill="#998C7A" stroke="black"/>
<path d="M244 156.5C246.5 157.167 252.5 159.5 256.5 163.5M285 88C287.833 91.8333 293.5 100.7 293.5 105.5" stroke="black" stroke-linecap="round" stroke-linejoin="round"/>
<path d="M248 290.5L229.5 286" stroke="black" stroke-linecap="round"/>
<path d="M274.998 310.283C282.946 307.651 292.856 306.673 305.655 308.28C319.347 310 330.027 317.6 337.207 326.54C344.4 335.496 348.029 345.73 347.698 352.639C347.64 353.851 348.064 355.09 348.763 356.111C349.462 357.133 350.463 357.978 351.611 358.368C357.858 360.492 362.915 367.051 365.545 375.056C368.137 382.942 368.323 392.099 365.056 399.5H224.311C220.26 396.66 218.014 393.143 217.059 389.306C216.091 385.417 216.442 381.167 217.645 376.92C220.053 368.417 225.845 360.045 230.983 354.894C235.557 350.308 239.33 344.666 243.195 338.936C247.07 333.191 251.045 327.347 256.046 322.273C261.04 317.207 267.054 312.914 274.998 310.283Z" fill="#F2E5C7" stroke="black" stroke-linecap="round" stroke-linejoin="round"/>
<path d="M353.956 399C355.498 395.713 357.658 387.166 353.956 379.277C349.327 369.415 342.383 370.576 338.333 364.775C335.365 360.524 334.285 352.013 333.128 346.212C331.971 340.411 320.399 323.589 293.207 323.008C266.015 322.428 255.023 352.013 250.973 357.814C247.733 362.455 239.889 363.836 236.509 370.576C231.5 380.568 231.187 392.967 239.981 399M254.443 399C252.128 395.906 247.5 388.21 247.5 382.177C247.5 374.636 257.335 374.056 263.121 365.935C268.906 357.814 279.32 336.93 296.098 338.67C312.876 340.411 321.555 349.692 321.555 361.294C321.555 372.896 328.497 374.056 337.754 379.277C345.16 383.454 342.383 394.166 340.068 399M271.799 399C271.799 399 261.385 396.1 263.121 385.658C264.167 379.364 271.799 377.537 278.742 370.576C285.684 363.615 284.372 357.102 293.207 354.333C302.463 351.432 312.298 359.554 312.298 368.835C312.298 378.117 321.553 379.857 327.34 385.658C331.97 390.299 327.727 396.486 325.026 399M282.792 399C277.006 397.26 275.618 391.691 277.006 387.978C278.742 383.338 282.792 385.658 289.156 374.636C293.207 367.619 303.208 369.524 304.777 374.636C307.091 382.177 304.198 383.918 312.298 387.978C317.069 390.37 315.769 397.84 312.298 399" stroke="black"/>
<mask id="path-6-outside-1_232_92" maskUnits="userSpaceOnUse" x="58.9648" y="245.887" width="32" height="69" fill="black">
<rect fill="white" x="58.9648" y="245.887" width="32" height="69"/>
<path d="M71.75 246.895C74.4326 247.054 76.3306 249.655 75.6084 252.289L71.9707 265.557C71.9291 265.708 71.8193 265.826 71.6807 265.884C71.7028 265.97 71.7034 266.064 71.6748 266.155L62.5625 295.316C59.968 303.619 66.17 312.055 74.8682 312.056C84.2373 312.056 90.479 302.379 86.6143 293.844L82.1709 284.031V292.19C82.1709 292.467 81.9469 292.69 81.6709 292.69C81.3949 292.69 81.1709 292.466 81.1709 292.19V281.717C81.171 281.518 81.2888 281.338 81.4707 281.259C81.6526 281.179 81.8649 281.215 82.0107 281.35L89.5752 288.332C89.7777 288.519 89.7896 288.835 89.6025 289.038C89.4153 289.241 89.0994 289.254 88.8965 289.066L83.1436 283.756L87.5244 293.432C91.6889 302.629 84.964 313.056 74.8682 313.056C65.4954 313.055 58.8118 303.965 61.6074 295.019L70.7207 265.857C70.7664 265.711 70.8731 265.602 71.0039 265.547L67.3682 252.289C66.6226 249.57 68.669 246.887 71.4883 246.887L71.75 246.895ZM71.4883 247.887C69.3289 247.887 67.762 249.942 68.333 252.024L71.4883 263.534L74.6445 252.024C75.2155 249.942 73.6477 247.887 71.4883 247.887Z"/>
</mask>
<path d="M71.75 246.895C74.4326 247.054 76.3306 249.655 75.6084 252.289L71.9707 265.557C71.9291 265.708 71.8193 265.826 71.6807 265.884C71.7028 265.97 71.7034 266.064 71.6748 266.155L62.5625 295.316C59.968 303.619 66.17 312.055 74.8682 312.056C84.2373 312.056 90.479 302.379 86.6143 293.844L82.1709 284.031V292.19C82.1709 292.467 81.9469 292.69 81.6709 292.69C81.3949 292.69 81.1709 292.466 81.1709 292.19V281.717C81.171 281.518 81.2888 281.338 81.4707 281.259C81.6526 281.179 81.8649 281.215 82.0107 281.35L89.5752 288.332C89.7777 288.519 89.7896 288.835 89.6025 289.038C89.4153 289.241 89.0994 289.254 88.8965 289.066L83.1436 283.756L87.5244 293.432C91.6889 302.629 84.964 313.056 74.8682 313.056C65.4954 313.055 58.8118 303.965 61.6074 295.019L70.7207 265.857C70.7664 265.711 70.8731 265.602 71.0039 265.547L67.3682 252.289C66.6226 249.57 68.669 246.887 71.4883 246.887L71.75 246.895ZM71.4883 247.887C69.3289 247.887 67.762 249.942 68.333 252.024L71.4883 263.534L74.6445 252.024C75.2155 249.942 73.6477 247.887 71.4883 247.887Z" fill="#9BCCD7"/>
<path d="M71.75 246.895L71.8095 245.896C71.7996 245.896 71.7897 245.895 71.7798 245.895L71.75 246.895ZM75.6084 252.289L74.644 252.025L74.644 252.025L75.6084 252.289ZM71.9707 265.557L72.9351 265.821L72.9351 265.821L71.9707 265.557ZM71.6807 265.884L71.2941 264.962C70.837 265.153 70.5892 265.651 70.7117 266.131L71.6807 265.884ZM71.6748 266.155L72.6293 266.454L72.6295 266.453L71.6748 266.155ZM62.5625 295.316L63.517 295.615L63.517 295.615L62.5625 295.316ZM74.8682 312.056L74.8681 313.056L74.8682 313.056L74.8682 312.056ZM86.6143 293.844L87.5252 293.431L87.5252 293.431L86.6143 293.844ZM82.1709 284.031L83.0819 283.619C82.8876 283.19 82.4203 282.954 81.9599 283.054C81.4995 283.153 81.1709 283.56 81.1709 284.031H82.1709ZM81.6709 292.69L81.6701 293.69L81.6713 293.69L81.6709 292.69ZM81.1709 281.717L80.1709 281.717V281.717H81.1709ZM81.4707 281.259L81.07 280.343L81.0696 280.343L81.4707 281.259ZM82.0107 281.35L81.3325 282.084L81.3325 282.084L82.0107 281.35ZM89.5752 288.332L90.2543 287.598L90.2535 287.597L89.5752 288.332ZM89.6025 289.038L90.3373 289.716L90.3375 289.716L89.6025 289.038ZM88.8965 289.066L88.2182 289.801L88.2184 289.801L88.8965 289.066ZM83.1436 283.756L83.8218 283.021C83.4723 282.698 82.9439 282.667 82.5582 282.945C82.1726 283.223 82.0364 283.735 82.2326 284.168L83.1436 283.756ZM87.5244 293.432L86.6134 293.844L86.6135 293.844L87.5244 293.432ZM74.8682 313.056L74.8681 314.056L74.8682 314.056L74.8682 313.056ZM61.6074 295.019L60.6529 294.72L60.6529 294.72L61.6074 295.019ZM70.7207 265.857L69.7663 265.559L69.7662 265.559L70.7207 265.857ZM71.0039 265.547L71.3928 266.468C71.8548 266.273 72.1009 265.766 71.9683 265.282L71.0039 265.547ZM67.3682 252.289L66.4038 252.553L66.4038 252.554L67.3682 252.289ZM71.4883 246.887L71.5181 245.887C71.5082 245.887 71.4982 245.887 71.4882 245.887L71.4883 246.887ZM71.4883 247.887L71.4883 246.887L71.4882 246.887L71.4883 247.887ZM68.333 252.024L69.2974 251.76L69.2974 251.76L68.333 252.024ZM71.4883 263.534L70.5239 263.799C70.643 264.233 71.0378 264.534 71.4882 264.534C71.9387 264.534 72.3336 264.233 72.4527 263.799L71.4883 263.534ZM74.6445 252.024L75.6089 252.289L75.6089 252.289L74.6445 252.024ZM71.75 246.895L71.6905 247.893C73.7435 248.015 75.197 250.008 74.644 252.025L75.6084 252.289L76.5728 252.553C77.4643 249.302 75.1218 246.094 71.8095 245.896L71.75 246.895ZM75.6084 252.289L74.644 252.025L71.0063 265.292L71.9707 265.557L72.9351 265.821L76.5728 252.553L75.6084 252.289ZM71.9707 265.557L71.0063 265.292C71.0506 265.131 71.1656 265.015 71.2941 264.962L71.6807 265.884L72.0672 266.806C72.4729 266.636 72.8076 266.286 72.9351 265.821L71.9707 265.557ZM71.6807 265.884L70.7117 266.131C70.6922 266.054 70.6888 265.958 70.7201 265.858L71.6748 266.155L72.6295 266.453C72.7179 266.169 72.7133 265.886 72.6497 265.637L71.6807 265.884ZM71.6748 266.155L70.7203 265.857L61.608 295.018L62.5625 295.316L63.517 295.615L72.6293 266.454L71.6748 266.155ZM62.5625 295.316L61.608 295.018C58.8123 303.964 65.4953 313.055 74.8681 313.056L74.8682 312.056L74.8682 311.056C66.8447 311.055 61.1237 303.273 63.517 295.615L62.5625 295.316ZM74.8682 312.056L74.8682 313.056C84.9639 313.056 91.6898 302.628 87.5252 293.431L86.6143 293.844L85.7033 294.256C89.2683 302.129 83.5108 311.056 74.8681 311.056L74.8682 312.056ZM86.6143 293.844L87.5252 293.431L83.0819 283.619L82.1709 284.031L81.2599 284.444L85.7033 294.256L86.6143 293.844ZM82.1709 284.031H81.1709V292.19H82.1709H83.1709V284.031H82.1709ZM82.1709 292.19H81.1709C81.1709 291.914 81.395 291.691 81.6705 291.69L81.6709 292.69L81.6713 293.69C82.4989 293.69 83.1709 293.019 83.1709 292.19H82.1709ZM81.6709 292.69L81.6717 291.69C81.9466 291.691 82.1709 291.913 82.1709 292.19H81.1709H80.1709C80.1709 293.019 80.8433 293.69 81.6701 293.69L81.6709 292.69ZM81.1709 292.19H82.1709V281.717H81.1709H80.1709V292.19H81.1709ZM81.1709 281.717L82.1709 281.717C82.1708 281.917 82.0528 282.096 81.8718 282.175L81.4707 281.259L81.0696 280.343C80.5248 280.581 80.1711 281.12 80.1709 281.717L81.1709 281.717ZM81.4707 281.259L81.8714 282.175C81.6894 282.255 81.4783 282.219 81.3325 282.084L82.0107 281.35L82.689 280.615C82.2515 280.211 81.6158 280.104 81.07 280.343L81.4707 281.259ZM82.0107 281.35L81.3325 282.084L88.8969 289.067L89.5752 288.332L90.2535 287.597L82.689 280.615L82.0107 281.35ZM89.5752 288.332L88.8961 289.066C88.692 288.877 88.682 288.561 88.8675 288.36L89.6025 289.038L90.3375 289.716C90.8973 289.109 90.8634 288.161 90.2543 287.598L89.5752 288.332ZM89.6025 289.038L88.8677 288.36C89.0551 288.157 89.3717 288.144 89.5745 288.331L88.8965 289.066L88.2184 289.801C88.8271 290.363 89.7755 290.325 90.3373 289.716L89.6025 289.038ZM88.8965 289.066L89.5748 288.332L83.8218 283.021L83.1436 283.756L82.4653 284.491L88.2182 289.801L88.8965 289.066ZM83.1436 283.756L82.2326 284.168L86.6134 293.844L87.5244 293.432L88.4354 293.019L84.0545 283.343L83.1436 283.756ZM87.5244 293.432L86.6135 293.844C90.4782 302.379 84.2373 312.056 74.8681 312.056L74.8682 313.056L74.8682 314.056C85.6906 314.056 92.8996 302.878 88.4354 293.019L87.5244 293.432ZM74.8682 313.056L74.8682 312.056C66.17 312.055 59.9675 303.619 62.5619 295.317L61.6074 295.019L60.6529 294.72C57.6561 304.31 64.8207 314.055 74.8681 314.056L74.8682 313.056ZM61.6074 295.019L62.5619 295.317L71.6752 266.156L70.7207 265.857L69.7662 265.559L60.6529 294.72L61.6074 295.019ZM70.7207 265.857L71.6751 266.156C71.6281 266.306 71.5174 266.416 71.3928 266.468L71.0039 265.547L70.615 264.626C70.2289 264.789 69.9046 265.116 69.7663 265.559L70.7207 265.857ZM71.0039 265.547L71.9683 265.282L68.3326 252.025L67.3682 252.289L66.4038 252.554L70.0395 265.811L71.0039 265.547ZM67.3682 252.289L68.3326 252.025C67.7615 249.942 69.329 247.887 71.4884 247.887L71.4883 246.887L71.4882 245.887C68.009 245.887 65.4837 249.198 66.4038 252.553L67.3682 252.289ZM71.4883 246.887L71.4584 247.886L71.7202 247.894L71.75 246.895L71.7798 245.895L71.5181 245.887L71.4883 246.887ZM71.4883 247.887L71.4882 246.887C68.6688 246.887 66.6231 249.57 67.3686 252.289L68.333 252.024L69.2974 251.76C68.9009 250.314 69.989 248.887 71.4884 248.887L71.4883 247.887ZM68.333 252.024L67.3686 252.289L70.5239 263.799L71.4883 263.534L72.4527 263.27L69.2974 251.76L68.333 252.024ZM71.4883 263.534L72.4527 263.799L75.6089 252.289L74.6445 252.024L73.6801 251.76L70.5239 263.27L71.4883 263.534ZM74.6445 252.024L75.6089 252.289C76.3545 249.57 74.3074 246.887 71.4883 246.887L71.4883 247.887L71.4882 248.887C72.9879 248.887 74.0766 250.314 73.6801 251.76L74.6445 252.024Z" fill="black" mask="url(#path-6-outside-1_232_92)"/>
<path d="M169.883 102.169C171.908 101.539 174.131 102.015 175.552 102.624C175.805 102.733 175.923 103.026 175.814 103.28C175.706 103.534 175.412 103.651 175.158 103.543C173.864 102.988 171.897 102.59 170.18 103.124C169.333 103.387 168.542 103.878 167.906 104.698C167.268 105.522 166.765 106.706 166.541 108.385C166.359 109.753 166.231 113.245 166.149 118.228C166.068 123.196 166.033 129.612 166.031 136.802C166.027 151.183 166.156 168.652 166.312 183.811C166.394 191.884 171.339 198.765 178.346 201.713V138.051C178.346 137.775 178.57 137.551 178.846 137.551C179.122 137.551 179.346 137.775 179.346 138.051V202.1C181.42 202.842 183.656 203.247 185.984 203.247C196.869 203.247 205.693 194.422 205.693 183.538V143.723C205.694 143.448 205.918 143.224 206.193 143.223C206.469 143.224 206.693 143.448 206.693 143.723V183.538C206.693 194.975 197.421 204.247 185.984 204.247C183.663 204.247 181.43 203.864 179.346 203.159V223.104C179.346 234.22 170.334 243.232 159.218 243.232C153.376 243.232 148.11 240.746 144.434 236.768V253.371C144.434 264.481 135.426 273.489 124.315 273.489C113.273 273.489 104.293 264.602 104.213 253.558C104.149 244.719 104.09 235.076 104.036 225.187C92.9315 224.931 83.9635 215.936 83.8467 204.769C83.6924 190.012 83.5647 173.284 83.5693 159.546C83.5695 158.956 83.5706 158.373 83.5713 157.795C82.5087 158.199 81.3813 158.442 80.2246 158.501L77.9668 158.615C75.9865 158.715 74.0707 158.459 72.2822 157.905V237.036L80.3105 233.546C80.5638 233.436 80.8586 233.551 80.9688 233.804C81.0787 234.058 80.9621 234.353 80.709 234.463L72.2822 238.126V241.509C72.9936 242.293 73.0083 243.542 72.2822 244.338V249.525C72.2822 251.198 69.9375 251.579 69.4082 249.992L69.3467 249.808C69.0585 248.944 69.7027 248.051 70.6143 248.051C70.951 248.05 71.0774 247.609 70.792 247.43L70.1826 247.05C69.1617 246.411 69.2337 244.901 70.3105 244.363L71.2109 243.913C72.0703 243.483 72.0102 242.237 71.1133 241.891L70.8701 241.798C69.0153 241.084 68.9597 238.481 70.7822 237.688L71.2822 237.47V157.558C65.2688 155.256 60.9223 149.502 60.8467 142.635C60.8053 138.877 60.793 135.302 60.835 132.482C60.8559 131.073 60.8899 129.848 60.9414 128.882C60.9921 127.93 61.0616 127.189 61.1611 126.772C61.5225 125.26 62.7871 124.328 64.0947 123.836C65.403 123.343 66.8847 123.237 67.8916 123.478C68.1598 123.543 68.3257 123.813 68.2617 124.081C68.1975 124.349 67.9275 124.515 67.6592 124.451C66.879 124.264 65.6018 124.337 64.4463 124.772C63.2903 125.207 62.3844 125.952 62.1328 127.005C62.0577 127.319 61.9917 127.972 61.9404 128.934C61.8899 129.882 61.8558 131.093 61.835 132.497C61.7932 135.304 61.8053 138.869 61.8467 142.624C61.9161 148.925 65.8225 154.234 71.2822 156.483V152.5C71.2823 152.224 71.5061 152 71.7822 152C72.0582 152 72.2822 152.224 72.2822 152.5V156.855C74.045 157.441 75.9461 157.717 77.916 157.617L80.1748 157.502C81.3564 157.442 82.5052 157.172 83.5732 156.719C83.5834 150.996 83.6185 145.89 83.6885 141.796C83.7696 137.053 83.8968 133.634 84.0879 132.201C85.0616 124.899 91.0627 123.274 94.0898 124.571C94.3436 124.68 94.4612 124.974 94.3525 125.227C94.2437 125.481 93.9501 125.599 93.6963 125.49C91.2926 124.46 85.9675 125.671 85.0791 132.334C84.8974 133.697 84.7699 137.049 84.6885 141.812C84.6206 145.78 84.5856 150.704 84.5742 156.222C85.523 155.687 86.3887 154.997 87.127 154.168C87.3104 153.962 87.6268 153.943 87.833 154.126C88.039 154.309 88.0578 154.625 87.875 154.832C86.9364 155.887 85.8114 156.737 84.5723 157.355C84.5712 158.076 84.5696 158.807 84.5693 159.546C84.5647 173.279 84.6915 190.003 84.8457 204.759C84.9567 215.374 93.4747 223.93 104.031 224.188C103.946 208.234 103.879 191.69 103.868 176.887C103.851 152.605 103.973 132.968 104.368 128.346C104.826 123.001 106.462 120.342 108.527 119.343C110.578 118.35 112.813 119.11 114.203 120.038C114.433 120.191 114.495 120.502 114.342 120.731C114.188 120.961 113.877 121.022 113.647 120.869C112.395 120.033 110.554 119.472 108.963 120.242C107.385 121.006 105.812 123.196 105.364 128.431C104.973 132.997 104.85 152.57 104.868 176.886C104.879 191.688 104.946 208.233 105.031 224.187C115.681 223.917 124.231 215.2 124.231 204.485V149.051C124.232 148.775 124.456 148.551 124.731 148.551C125.007 148.551 125.231 148.775 125.231 149.051V204.485C125.231 215.75 116.236 224.915 105.036 225.187C105.09 235.074 105.149 244.715 105.213 253.552C105.289 264.044 113.821 272.489 124.315 272.489C134.874 272.489 143.434 263.929 143.434 253.371V235.6C140.757 232.221 139.145 227.959 139.108 223.314C138.943 202.447 138.792 177.005 138.779 155.769C138.766 134.554 138.891 117.492 139.281 113.421C139.742 108.613 141.393 106.218 143.458 105.324C145.487 104.446 147.703 105.116 149.094 105.945C149.331 106.087 149.408 106.394 149.267 106.631C149.125 106.867 148.818 106.945 148.581 106.803C147.329 106.057 145.468 105.544 143.855 106.242C142.279 106.925 140.722 108.865 140.276 113.515C139.892 117.524 139.766 134.516 139.779 155.768C139.792 177 139.943 202.44 140.108 223.305C140.14 227.244 141.363 230.894 143.434 233.916V144.115C143.434 143.839 143.658 143.615 143.934 143.615C144.209 143.615 144.433 143.839 144.434 144.115V235.246C147.94 239.514 153.263 242.232 159.218 242.232C169.782 242.232 178.346 233.668 178.346 223.104V202.792C170.779 199.788 165.4 192.455 165.312 183.822C165.156 168.662 165.027 151.188 165.031 136.802C165.033 129.61 165.068 123.188 165.149 118.212C165.23 113.251 165.358 109.692 165.55 108.254C165.791 106.442 166.345 105.08 167.115 104.086C167.888 103.088 168.859 102.487 169.883 102.169ZM71.2822 248.879C71.0934 248.986 70.8691 249.05 70.6143 249.051C70.3853 249.051 70.2229 249.275 70.2949 249.492L70.3564 249.676C70.5268 250.187 71.2822 250.064 71.2822 249.525V248.879ZM70.7578 245.258C70.3795 245.447 70.3542 245.978 70.7129 246.202L71.2822 246.557V244.995L70.7578 245.258ZM71.1807 238.605C70.1787 239.041 70.2098 240.472 71.2295 240.864L71.2822 240.884V238.56L71.1807 238.605ZM265.544 67.2537C265.82 67.2538 266.044 67.4776 266.044 67.7537V121.122C266.044 121.398 265.82 121.622 265.544 121.622C265.268 121.622 265.044 121.398 265.044 121.122V67.7537C265.044 67.4776 265.268 67.2538 265.544 67.2537ZM260.307 21.7039C260.583 21.7039 260.807 21.9277 260.807 22.2039C260.807 22.48 260.583 22.7039 260.307 22.7039H260.07C257.585 22.704 255.57 24.7186 255.57 27.2039V118.212C255.57 118.488 255.346 118.712 255.07 118.712C254.794 118.712 254.57 118.488 254.57 118.212V27.2039C254.57 24.1664 257.033 21.704 260.07 21.7039H260.307ZM239.359 39.7419C239.636 39.7419 239.859 39.9658 239.859 40.2419C239.859 40.518 239.635 40.7419 239.359 40.7419C235.779 40.7422 232.877 43.6444 232.877 47.2244V114.139C232.877 114.415 232.653 114.639 232.377 114.639C232.101 114.639 231.877 114.415 231.877 114.139V47.2244C231.877 43.0921 235.227 39.7422 239.359 39.7419ZM235.868 73.49C236.144 73.49 236.368 73.7139 236.368 73.99V114.139C236.368 114.415 236.144 114.639 235.868 114.639C235.592 114.639 235.368 114.415 235.368 114.139V73.99C235.368 73.7141 235.592 73.4903 235.868 73.49ZM220.158 50.7976C220.434 50.7977 220.658 51.0215 220.658 51.2976C220.658 51.5735 220.434 51.7975 220.158 51.7976H218.103C213.408 51.7977 209.603 55.6032 209.603 60.2976V108.902C209.603 109.178 209.379 109.402 209.103 109.402C208.826 109.402 208.603 109.178 208.603 108.902V60.2976C208.603 55.051 212.856 50.7977 218.103 50.7976H220.158Z" fill="black"/>
<path d="M8.05124 99.4224C8.15451 99.3729 8.31262 99.3508 8.56271 99.4224C8.81702 99.4953 9.13252 99.6572 9.50626 99.9266C10.2534 100.465 11.1469 101.372 12.1273 102.599C14.0829 105.046 16.3168 108.679 18.355 112.917C20.3934 117.156 21.8368 121.169 22.5273 124.225C22.8734 125.756 23.0233 127.02 22.9776 127.94C22.9547 128.4 22.8842 128.747 22.7823 128.992C22.6822 129.232 22.5662 129.341 22.463 129.391C22.3598 129.441 22.2011 129.463 21.9507 129.392C21.6964 129.319 21.3808 129.157 21.0071 128.887C20.26 128.349 19.3668 127.443 18.3865 126.216C16.4308 123.769 14.1967 120.136 12.1583 115.897C10.1201 111.659 8.677 107.645 7.9865 104.59C7.64037 103.058 7.49001 101.794 7.53575 100.874C7.55863 100.414 7.62921 100.067 7.73103 99.8224C7.83133 99.582 7.94797 99.4721 8.05124 99.4224Z" fill="#F2E5C7" stroke="black"/>
<path d="M325.233 208.045C326.212 207.792 327.436 208.332 328.647 209.718C329.837 211.08 330.905 213.146 331.538 215.598C332.172 218.049 332.239 220.374 331.858 222.141C331.469 223.941 330.661 225.006 329.682 225.259C328.702 225.512 327.479 224.972 326.268 223.586C325.078 222.224 324.01 220.158 323.377 217.707C322.743 215.256 322.676 212.93 323.057 211.163C323.445 209.363 324.254 208.298 325.233 208.045Z" fill="#F2E5C7" stroke="black"/>
</g>
<defs>
<clipPath id="clip0_232_92">
<rect width="400" height="400" fill="white"/>
</clipPath>
</defs>
</svg>
