<svg width="400" height="400" viewBox="0 0 400 400" fill="none" xmlns="http://www.w3.org/2000/svg">
<g clip-path="url(#clip0_232_65)">
<path d="M292.502 285.763L292.563 285.767C292.707 285.785 292.837 285.864 292.918 285.986C296.169 290.861 299.382 295.815 301.368 302.448C303.355 309.084 304.105 317.368 302.497 328.915C300.475 343.439 290.511 357.9 279.356 369.089C273.772 374.691 267.871 379.491 262.482 383.085C257.106 386.672 252.2 389.086 248.609 389.875C241.609 391.415 228.702 394.244 214.538 395.273C200.387 396.301 184.907 395.538 172.789 389.839C160.736 384.171 148.443 375.546 138.41 366.152C128.387 356.767 120.568 346.566 117.529 337.731C115.101 330.67 114.601 322.561 114.952 315.316C115.304 308.067 116.51 301.644 117.52 297.932L117.541 297.868L122.54 286.068L122.573 286.002C122.663 285.855 122.824 285.763 123 285.763H292.502Z" fill="#7094D9" stroke="black" stroke-linecap="round" stroke-linejoin="round"/>
<path d="M201.154 278.866L201.602 277.776C201.851 277.168 201.46 276.489 200.809 276.402C200.339 276.34 199.888 276.615 199.728 277.063L199.437 277.879C199.341 278.148 199.474 278.445 199.739 278.552C199.889 278.613 199.886 278.827 199.734 278.884L199.127 279.112C198.904 279.196 198.725 279.368 198.633 279.588L197.363 282.629L198.043 283.006L198.796 282.848L199.071 280.39L201.171 280.774L201.254 282.041L201.275 282.358L200.496 283.788L199.055 283.458L198.708 283.912L200.784 284.843L202.579 282.268L202.47 280.618C202.418 279.824 201.902 279.137 201.154 278.866Z" fill="#C38562"/>
<path d="M201.171 280.774L201.254 282.041L201.275 282.358M201.171 280.774L201.275 282.358M201.171 280.774L199.071 280.39L198.796 282.848L198.043 283.006L197.363 282.629L198.633 279.588C198.725 279.368 198.904 279.196 199.127 279.112L199.734 278.884C199.886 278.827 199.889 278.613 199.739 278.552C199.474 278.445 199.341 278.148 199.437 277.879L199.728 277.063C199.888 276.615 200.339 276.34 200.809 276.402C201.46 276.489 201.851 277.168 201.602 277.776L201.154 278.866C201.902 279.137 202.418 279.824 202.47 280.618L202.579 282.268L200.784 284.843L198.708 283.912L199.055 283.458L200.496 283.788L201.275 282.358" stroke="black" stroke-width="0.65" stroke-linejoin="round"/>
<path d="M197.936 275.362L203.364 278.211L202.153 277.122L202.575 276.604L200.91 275.546L200.268 276.178L197.936 275.362Z" fill="#CEA851" stroke="black" stroke-width="0.65" stroke-linecap="round" stroke-linejoin="round"/>
<path d="M199.881 279.623L201.422 278.852C202.539 279.423 202.935 280.843 203.154 282.079L203.372 283.312L196.343 282.975L197.118 280.786C197.485 279.746 198.405 278.999 199.496 278.853L199.881 279.623Z" fill="#D9D9D9" stroke="black" stroke-width="0.65" stroke-linejoin="round"/>
<path d="M169.5 282.159V357.065M162 275.489L162.5 340.5M171.5 267.281V335.517" stroke="#C5BCA7" stroke-width="0.65" stroke-linecap="round" stroke-linejoin="round"/>
<path d="M169.5 356.039V357.578L170.518 360.713C170.756 361.445 170.211 362.195 169.441 362.195C168.708 362.195 168.167 361.508 168.341 360.795L168.5 360.143" stroke="black" stroke-width="0.65" stroke-linecap="round" stroke-linejoin="round"/>
<path d="M171.5 335.517V337.056L172.518 340.191C172.756 340.923 172.211 341.673 171.441 341.673C170.708 341.673 170.167 340.986 170.341 340.273L170.5 339.621" stroke="black" stroke-width="0.65" stroke-linecap="round" stroke-linejoin="round"/>
<path d="M162.5 340.646V342.186L161.482 345.321C161.244 346.053 161.789 346.803 162.559 346.803C163.292 346.803 163.833 346.116 163.659 345.403L163.5 344.751" stroke="black" stroke-width="0.65" stroke-linecap="round" stroke-linejoin="round"/>
<path d="M169.5 281.646C172 279.08 178.5 274.258 184.5 275.489C190.5 276.72 193 280.106 193.5 281.646" stroke="black" stroke-linecap="round" stroke-linejoin="round"/>
<path d="M204.189 259.754C204.735 259.674 205.24 260.052 205.316 260.599L208.635 284.368L208.645 284.471C208.663 284.977 208.296 285.429 207.784 285.504C207.272 285.579 206.796 285.252 206.675 284.76L206.656 284.659L203.338 260.89C203.261 260.343 203.642 259.834 204.189 259.754Z" fill="#736C62"/>
<path d="M204.189 259.754L204.119 259.259L204.189 259.754ZM205.316 260.599L204.822 260.672L205.316 260.599ZM208.635 284.368L209.133 284.319L209.131 284.307L209.13 284.296L208.635 284.368ZM208.645 284.471L209.144 284.448L209.143 284.435L209.142 284.421L208.645 284.471ZM207.784 285.504L207.853 285.999L207.853 285.999L207.784 285.504ZM206.675 284.76L206.185 284.856L206.187 284.869L206.19 284.883L206.675 284.76ZM206.656 284.659L206.162 284.732L206.163 284.744L206.166 284.755L206.656 284.659ZM203.338 260.89L202.843 260.963L203.338 260.89ZM204.189 259.754L204.258 260.249C204.531 260.209 204.783 260.398 204.822 260.672L205.316 260.599L205.811 260.526C205.696 259.706 204.939 259.138 204.119 259.259L204.189 259.754ZM205.316 260.599L204.822 260.672L208.14 284.441L208.635 284.368L209.13 284.296L205.811 260.526L205.316 260.599ZM208.635 284.368L208.138 284.417L208.147 284.52L208.645 284.471L209.142 284.421L209.133 284.319L208.635 284.368ZM208.645 284.471L208.145 284.493C208.155 284.745 207.971 284.971 207.715 285.009L207.784 285.504L207.853 285.999C208.622 285.886 209.172 285.209 209.144 284.448L208.645 284.471ZM207.784 285.504L207.715 285.009C207.459 285.047 207.221 284.883 207.161 284.638L206.675 284.76L206.19 284.883C206.371 285.621 207.085 286.112 207.853 285.999L207.784 285.504ZM206.675 284.76L207.166 284.664L207.147 284.563L206.656 284.659L206.166 284.755L206.185 284.856L206.675 284.76ZM206.656 284.659L207.151 284.586L203.832 260.817L203.338 260.89L202.843 260.963L206.162 284.732L206.656 284.659ZM203.338 260.89L203.832 260.817C203.794 260.544 203.985 260.289 204.258 260.249L204.189 259.754L204.119 259.259C203.3 259.379 202.728 260.142 202.843 260.963L203.338 260.89Z" fill="black"/>
<path d="M207.387 283.777C208.755 283.15 207.914 281.503 207.387 277.541C206.5 270.871 205.5 260.61 205.5 260.61C207.387 272.411 210.564 283.785 210.564 283.785C213.161 283.792 214.585 283.432 214.807 283.37C214.848 283.357 214.848 283.359 214.807 283.37C214.705 283.402 214.35 283.522 213.74 283.794L210.564 283.785L207.387 283.777Z" fill="#F2E5C7"/>
<path d="M207.387 283.777C208.755 283.15 207.914 281.503 207.387 277.541C206.5 270.871 205.5 260.61 205.5 260.61C207.387 272.411 210.564 283.785 210.564 283.785C214.83 283.797 215.929 282.819 213.74 283.794L207.387 283.777Z" stroke="black" stroke-linecap="round" stroke-linejoin="round"/>
<path d="M220.41 285.48C218.276 288.717 214.655 290.661 210.777 290.651L199.632 290.621C195.726 290.61 192.092 288.619 189.982 285.331L187.068 280.79C199.156 282.885 211.529 282.749 223.573 280.387L223.794 280.343L220.41 285.48Z" fill="#736C62" stroke="black"/>
<path d="M171.5 267.281L173.293 267.958C178.353 269.871 182.866 272.999 186.433 277.066L190 281.133M162 275.489L164.402 275.407C172.643 275.125 180.804 277.106 188 281.133" stroke="black" stroke-linecap="round" stroke-linejoin="round"/>
<path d="M292.502 286.263H123L118.002 298.063C116.002 305.417 113.202 323.613 118.002 337.568C124.002 355.012 149.002 378.1 173.002 389.387C197.002 400.674 234.502 392.465 248.502 389.387C262.502 386.308 298.002 357.577 302.002 328.846C305.202 305.862 299.002 296.011 292.502 286.263Z" fill="#7094D9" fill-opacity="0.3"/>
<path d="M170.38 368.847L170.146 368.729L170 368.657L169.854 368.729L169.619 368.847L170 367.896L170.38 368.847ZM169.696 361.366C169.71 361.384 169.727 361.408 169.746 361.44C169.814 361.554 169.886 361.73 169.952 361.971C170.083 362.451 170.175 363.146 170.175 364.021C170.175 364.388 170.097 364.946 169.993 365.512C169.957 365.706 169.916 365.898 169.878 366.08C169.812 365.929 169.743 365.766 169.68 365.596C169.475 365.044 169.325 364.462 169.325 364.021C169.325 362.919 169.419 362.174 169.547 361.729C169.6 361.543 169.654 361.43 169.696 361.366Z" fill="black" stroke="black" stroke-width="0.65"/>
<path d="M163.38 353.847L163.146 353.729L163 353.657L162.854 353.729L162.619 353.847L163 352.896L163.38 353.847ZM162.696 346.366C162.71 346.384 162.727 346.408 162.746 346.44C162.814 346.554 162.886 346.73 162.952 346.971C163.083 347.451 163.175 348.146 163.175 349.021C163.175 349.388 163.097 349.946 162.993 350.512C162.957 350.706 162.916 350.898 162.878 351.08C162.812 350.929 162.743 350.766 162.68 350.596C162.475 350.044 162.325 349.462 162.325 349.021C162.325 347.919 162.419 347.174 162.547 346.729C162.6 346.543 162.654 346.43 162.696 346.366Z" fill="black" stroke="black" stroke-width="0.65"/>
<path d="M172.38 348.847L172.146 348.729L172 348.657L171.854 348.729L171.619 348.847L172 347.896L172.38 348.847ZM171.696 341.366C171.71 341.384 171.727 341.408 171.746 341.44C171.814 341.554 171.886 341.73 171.952 341.971C172.083 342.451 172.175 343.146 172.175 344.021C172.175 344.388 172.097 344.946 171.993 345.512C171.957 345.706 171.916 345.898 171.878 346.08C171.812 345.929 171.743 345.766 171.68 345.596C171.475 345.044 171.325 344.462 171.325 344.021C171.325 342.919 171.419 342.174 171.547 341.729C171.6 341.543 171.654 341.43 171.696 341.366Z" fill="black" stroke="black" stroke-width="0.65"/>
<path d="M220.5 286.263H190.5L146 372.116C146 372.116 163.77 385.045 173.002 389.387C181.934 393.587 203.5 395.157 203.5 395.157L220.5 286.263Z" fill="#6779D6" fill-opacity="0.6"/>
<mask id="path-22-outside-1_232_65" maskUnits="userSpaceOnUse" x="111.582" y="12.3645" width="197" height="386" fill="black">
<rect fill="white" x="111.582" y="12.3645" width="197" height="386"/>
<path d="M185.459 13.3645C194.734 13.3645 202.857 17.07 208.071 22.8088C213.305 28.5691 215.61 36.4167 213.018 44.3547L187.836 121.447C187.824 121.482 187.812 121.516 187.799 121.551L122.711 294.357C113.743 318.445 119.935 342.753 136.043 361.145C152.173 379.562 178.256 392.017 208.854 392.017C241.818 392.017 269.123 377.732 284.781 357.351C300.41 337.009 304.485 310.584 291.105 285.782L258.441 225.232V276.188C258.441 277.568 257.322 278.688 255.941 278.688C254.561 278.688 253.441 277.568 253.441 276.188V215.333C253.441 214.41 253.951 213.561 254.766 213.126C255.581 212.692 256.569 212.743 257.336 213.258L306.396 246.222C307.542 246.992 307.847 248.546 307.077 249.692C306.307 250.837 304.753 251.142 303.607 250.372L262.945 223.051L295.506 283.408C309.916 310.121 305.449 338.657 288.746 360.397C272.074 382.097 243.258 397.017 208.854 397.017C176.91 397.017 149.422 384.011 132.281 364.44C115.119 344.844 108.338 318.634 118.025 292.613L118.029 292.604L182.81 120.611L157.901 44.3547C155.308 36.4166 157.614 28.5692 162.848 22.8088C168.062 17.0702 176.184 13.3646 185.459 13.3645ZM185.459 18.3645C177.503 18.3646 170.755 21.5405 166.548 26.1711C162.36 30.7803 160.691 36.7904 162.654 42.802L185.459 112.618L208.265 42.802C210.228 36.7905 208.558 30.7803 204.37 26.1711C200.163 21.5406 193.415 18.3645 185.459 18.3645Z"/>
</mask>
<path d="M185.459 13.3645C194.734 13.3645 202.857 17.07 208.071 22.8088C213.305 28.5691 215.61 36.4167 213.018 44.3547L187.836 121.447C187.824 121.482 187.812 121.516 187.799 121.551L122.711 294.357C113.743 318.445 119.935 342.753 136.043 361.145C152.173 379.562 178.256 392.017 208.854 392.017C241.818 392.017 269.123 377.732 284.781 357.351C300.41 337.009 304.485 310.584 291.105 285.782L258.441 225.232V276.188C258.441 277.568 257.322 278.688 255.941 278.688C254.561 278.688 253.441 277.568 253.441 276.188V215.333C253.441 214.41 253.951 213.561 254.766 213.126C255.581 212.692 256.569 212.743 257.336 213.258L306.396 246.222C307.542 246.992 307.847 248.546 307.077 249.692C306.307 250.837 304.753 251.142 303.607 250.372L262.945 223.051L295.506 283.408C309.916 310.121 305.449 338.657 288.746 360.397C272.074 382.097 243.258 397.017 208.854 397.017C176.91 397.017 149.422 384.011 132.281 364.44C115.119 344.844 108.338 318.634 118.025 292.613L118.029 292.604L182.81 120.611L157.901 44.3547C155.308 36.4166 157.614 28.5692 162.848 22.8088C168.062 17.0702 176.184 13.3646 185.459 13.3645ZM185.459 18.3645C177.503 18.3646 170.755 21.5405 166.548 26.1711C162.36 30.7803 160.691 36.7904 162.654 42.802L185.459 112.618L208.265 42.802C210.228 36.7905 208.558 30.7803 204.37 26.1711C200.163 21.5406 193.415 18.3645 185.459 18.3645Z" fill="#9BCCD7"/>
<path d="M185.459 13.3645L185.459 12.3645L185.459 12.3645L185.459 13.3645ZM208.071 22.8088L208.811 22.1364L208.811 22.1364L208.071 22.8088ZM213.018 44.3547L213.968 44.6652L213.968 44.6652L213.018 44.3547ZM187.836 121.447L188.786 121.757L188.787 121.757L187.836 121.447ZM187.799 121.551L188.735 121.904L188.735 121.903L187.799 121.551ZM122.711 294.357L121.775 294.004L121.774 294.008L122.711 294.357ZM136.043 361.145L135.291 361.804L135.291 361.804L136.043 361.145ZM208.854 392.017L208.854 393.017L208.854 393.017L208.854 392.017ZM284.781 357.351L285.574 357.96L285.574 357.96L284.781 357.351ZM291.105 285.782L290.225 286.257L290.225 286.257L291.105 285.782ZM258.441 225.232L259.322 224.757C259.104 224.354 258.641 224.15 258.197 224.262C257.753 224.374 257.441 224.774 257.441 225.232H258.441ZM255.941 278.688L255.941 279.688L255.941 279.688L255.941 278.688ZM254.766 213.126L254.295 212.244L254.295 212.244L254.766 213.126ZM257.336 213.258L256.778 214.088L256.778 214.088L257.336 213.258ZM306.396 246.222L306.954 245.392L306.954 245.392L306.396 246.222ZM307.077 249.692L307.907 250.249L307.907 250.249L307.077 249.692ZM303.607 250.372L303.05 251.202L303.05 251.202L303.607 250.372ZM262.945 223.051L263.503 222.221C263.121 221.965 262.614 222.001 262.273 222.311C261.933 222.62 261.847 223.121 262.065 223.526L262.945 223.051ZM295.506 283.408L296.386 282.934L296.386 282.934L295.506 283.408ZM288.746 360.397L289.539 361.006L289.539 361.006L288.746 360.397ZM208.854 397.017L208.854 398.017L208.854 398.017L208.854 397.017ZM132.281 364.44L131.529 365.099L131.529 365.099L132.281 364.44ZM118.025 292.613L117.112 292.206C117.103 292.225 117.095 292.244 117.088 292.264L118.025 292.613ZM118.029 292.604L118.943 293.01C118.951 292.992 118.958 292.974 118.965 292.956L118.029 292.604ZM182.81 120.611L183.745 120.963C183.826 120.75 183.831 120.516 183.76 120.3L182.81 120.611ZM157.901 44.3547L158.852 44.0442L158.852 44.0442L157.901 44.3547ZM162.848 22.8088L162.108 22.1363L162.108 22.1364L162.848 22.8088ZM185.459 18.3645L185.459 17.3645L185.459 17.3645L185.459 18.3645ZM166.548 26.1711L165.808 25.4987L165.808 25.4987L166.548 26.1711ZM162.654 42.802L161.704 43.1125L161.704 43.1125L162.654 42.802ZM185.459 112.618L184.508 112.929C184.643 113.34 185.026 113.618 185.459 113.618C185.892 113.618 186.275 113.34 186.41 112.929L185.459 112.618ZM208.265 42.802L209.215 43.1125L209.215 43.1125L208.265 42.802ZM204.37 26.1711L205.11 25.4987L205.11 25.4986L204.37 26.1711ZM185.459 13.3645L185.459 14.3645C194.471 14.3645 202.318 17.9642 207.331 23.4813L208.071 22.8088L208.811 22.1364C203.396 16.1758 194.998 12.3645 185.459 12.3645L185.459 13.3645ZM208.071 22.8088L207.331 23.4813C212.356 29.0119 214.534 36.492 212.067 44.0442L213.018 44.3547L213.968 44.6652C216.687 36.3414 214.254 28.1264 208.811 22.1364L208.071 22.8088ZM213.018 44.3547L212.067 44.0442L186.885 121.136L187.836 121.447L188.787 121.757L213.968 44.6652L213.018 44.3547ZM187.836 121.447L186.885 121.136C186.88 121.152 186.873 121.171 186.863 121.199L187.799 121.551L188.735 121.903C188.75 121.862 188.769 121.812 188.786 121.757L187.836 121.447ZM187.799 121.551L186.863 121.199L121.775 294.004L122.711 294.357L123.647 294.709L188.735 121.904L187.799 121.551ZM122.711 294.357L121.774 294.008C112.662 318.483 118.972 343.171 135.291 361.804L136.043 361.145L136.795 360.486C120.898 342.335 114.824 318.408 123.648 294.706L122.711 294.357ZM136.043 361.145L135.291 361.804C151.623 380.451 177.987 393.017 208.854 393.017V392.017V391.017C178.525 391.017 152.723 378.672 136.795 360.486L136.043 361.145ZM208.854 392.017L208.854 393.017C242.106 393.017 269.713 378.605 285.574 357.96L284.781 357.351L283.988 356.742C268.532 376.859 241.53 391.017 208.854 391.017L208.854 392.017ZM284.781 357.351L285.574 357.96C301.418 337.338 305.571 310.491 291.986 285.308L291.105 285.782L290.225 286.257C303.399 310.677 299.402 336.679 283.988 356.742L284.781 357.351ZM291.105 285.782L291.986 285.308L259.322 224.757L258.441 225.232L257.561 225.706L290.225 286.257L291.105 285.782ZM258.441 225.232H257.441V276.188H258.441H259.441V225.232H258.441ZM258.441 276.188H257.441C257.441 277.016 256.77 277.688 255.941 277.688L255.941 278.688L255.941 279.688C257.874 279.688 259.441 278.121 259.441 276.188H258.441ZM255.941 278.688V277.688C255.113 277.688 254.441 277.016 254.441 276.188H253.441H252.441C252.441 278.121 254.008 279.688 255.941 279.688V278.688ZM253.441 276.188H254.441V215.333H253.441H252.441V276.188H253.441ZM253.441 215.333H254.441C254.441 214.779 254.747 214.269 255.236 214.009L254.766 213.126L254.295 212.244C253.154 212.852 252.441 214.041 252.441 215.333H253.441ZM254.766 213.126L255.236 214.009C255.724 213.748 256.318 213.779 256.778 214.088L257.336 213.258L257.894 212.428C256.821 211.707 255.437 211.636 254.295 212.244L254.766 213.126ZM257.336 213.258L256.778 214.088L305.839 247.052L306.396 246.222L306.954 245.392L257.894 212.428L257.336 213.258ZM306.396 246.222L305.839 247.052C306.526 247.514 306.709 248.446 306.247 249.134L307.077 249.692L307.907 250.249C308.985 248.645 308.559 246.47 306.954 245.392L306.396 246.222ZM307.077 249.692L306.247 249.134C305.785 249.821 304.853 250.004 304.165 249.542L303.607 250.372L303.05 251.202C304.654 252.28 306.829 251.854 307.907 250.249L307.077 249.692ZM303.607 250.372L304.165 249.542L263.503 222.221L262.945 223.051L262.388 223.881L303.05 251.202L303.607 250.372ZM262.945 223.051L262.065 223.526L294.626 283.883L295.506 283.408L296.386 282.934L263.825 222.576L262.945 223.051ZM295.506 283.408L294.626 283.883C308.829 310.213 304.441 338.327 287.953 359.787L288.746 360.397L289.539 361.006C306.456 338.987 311.002 310.028 296.386 282.934L295.506 283.408ZM288.746 360.397L287.953 359.787C271.484 381.224 242.97 396.017 208.854 396.017L208.854 397.017L208.854 398.017C243.546 398.017 272.664 382.971 289.539 361.006L288.746 360.397ZM208.854 397.017V396.017C177.179 396.017 149.972 383.121 133.034 363.781L132.281 364.44L131.529 365.099C148.872 384.9 176.641 398.017 208.854 398.017V397.017ZM132.281 364.44L133.034 363.781C116.082 344.426 109.419 318.596 118.963 292.961L118.025 292.613L117.088 292.264C107.257 318.672 114.156 345.262 131.529 365.099L132.281 364.44ZM118.025 292.613L118.939 293.019L118.943 293.01L118.029 292.604L117.115 292.198L117.112 292.206L118.025 292.613ZM118.029 292.604L118.965 292.956L183.745 120.963L182.81 120.611L181.874 120.258L117.093 292.251L118.029 292.604ZM182.81 120.611L183.76 120.3L158.852 44.0442L157.901 44.3547L156.951 44.6652L181.859 120.921L182.81 120.611ZM157.901 44.3547L158.852 44.0442C156.385 36.492 158.563 29.0119 163.588 23.4813L162.848 22.8088L162.108 22.1364C156.665 28.1265 154.232 36.3413 156.951 44.6652L157.901 44.3547ZM162.848 22.8088L163.588 23.4813C168.601 17.9644 176.448 14.3646 185.459 14.3645L185.459 13.3645L185.459 12.3645C175.92 12.3646 167.523 16.176 162.108 22.1363L162.848 22.8088ZM185.459 18.3645L185.459 17.3645C177.239 17.3646 170.217 20.6464 165.808 25.4987L166.548 26.1711L167.288 26.8436C171.294 22.4345 177.767 19.3646 185.459 19.3645L185.459 18.3645ZM166.548 26.1711L165.808 25.4987C161.41 30.3387 159.615 36.7164 161.704 43.1125L162.654 42.802L163.605 42.4915C161.767 36.8644 163.31 31.2219 167.288 26.8436L166.548 26.1711ZM162.654 42.802L161.704 43.1125L184.508 112.929L185.459 112.618L186.41 112.308L163.605 42.4915L162.654 42.802ZM185.459 112.618L186.41 112.929L209.215 43.1125L208.265 42.802L207.314 42.4915L184.508 112.308L185.459 112.618ZM208.265 42.802L209.215 43.1125C211.304 36.7164 209.508 30.3386 205.11 25.4987L204.37 26.1711L203.63 26.8436C207.608 31.2219 209.152 36.8646 207.314 42.4915L208.265 42.802ZM204.37 26.1711L205.11 25.4986C200.701 20.6465 193.679 17.3645 185.459 17.3645L185.459 18.3645L185.459 19.3645C193.151 19.3645 199.624 22.4346 203.63 26.8436L204.37 26.1711Z" fill="black" mask="url(#path-22-outside-1_232_65)"/>
<path d="M173 44.6147L179.309 10.2523C179.427 9.61105 179.882 9.08338 180.499 8.87238C181.549 8.51332 182.67 9.17888 182.858 10.2723L184.869 21.9649C185.171 23.7204 187.152 24.615 188.668 23.6811C189.723 23.0318 190.148 21.7115 189.671 20.5686L186.377 12.6814C185.484 10.5446 187.054 8.18791 189.37 8.18791C190.903 8.18791 192.227 9.26145 192.543 10.7616L193.2 13.8718C194.996 22.3827 182.923 26.1349 179.579 18.1053L156 -38.5" stroke="black" stroke-width="3" stroke-linecap="round" stroke-linejoin="round"/>
</g>
<defs>
<clipPath id="clip0_232_65">
<rect width="400" height="400" fill="white"/>
</clipPath>
</defs>
</svg>
