<svg width="780" height="260" viewBox="0 0 780 260" fill="none" xmlns="http://www.w3.org/2000/svg">
<g clip-path="url(#clip0_232_15107)">
<rect width="780" height="260" fill="white"/>
<rect width="780" height="260" fill="url(#paint0_linear_232_15107)"/>
<rect width="780" height="260" fill="url(#paint1_linear_232_15107)"/>
<rect x="494.988" y="101.5" width="100.145" height="10.0921" fill="#6B6B72" stroke="black" stroke-linecap="round" stroke-linejoin="round"/>
<rect width="8" height="60" transform="matrix(-1 0 0 1 687 97)" fill="#595959" stroke="black" stroke-linecap="round" stroke-linejoin="round"/>
<rect x="494.988" y="111.592" width="100.145" height="10.0921" fill="#6B6B72" stroke="black" stroke-linecap="round" stroke-linejoin="round"/>
<rect x="511.289" y="108" width="13.1974" height="13.1974" fill="url(#paint2_linear_232_15107)"/>
<rect x="511.289" y="108" width="13.1974" height="13.1974" fill="#646675"/>
<rect x="511.289" y="108" width="13.1974" height="13.1974" stroke="black" stroke-linecap="round" stroke-linejoin="round"/>
<rect x="561.75" y="108" width="13.1974" height="12.4211" fill="url(#paint3_linear_232_15107)"/>
<rect x="561.75" y="108" width="13.1974" height="12.4211" fill="#646675"/>
<rect x="561.75" y="108" width="13.1974" height="12.4211" stroke="black" stroke-linecap="round" stroke-linejoin="round"/>
<rect x="494.988" y="120.908" width="100.145" height="10.0921" fill="#7A7A7A" stroke="black" stroke-linecap="round" stroke-linejoin="round"/>
<path d="M662 93L782 108.385V113L662 97.6154V93Z" fill="#646675" stroke="black" stroke-linecap="round" stroke-linejoin="round"/>
<path d="M495.763 78.7927H592.803L600.566 102.276H488L495.763 78.7927Z" fill="#7A7A7A" stroke="black" stroke-linecap="round" stroke-linejoin="round"/>
<path d="M544.283 72L574.873 102.859H513.693L544.283 72Z" fill="#7A7A7A" stroke="black" stroke-linecap="round" stroke-linejoin="round"/>
<path d="M544.282 78.9868L567.885 102.859H519.902L544.282 78.9868Z" fill="url(#paint4_linear_232_15107)" stroke="black" stroke-linecap="round" stroke-linejoin="round"/>
<circle cx="494.986" cy="106.934" r="4.65789" fill="#7A7A7A" stroke="black" stroke-linecap="round" stroke-linejoin="round"/>
<circle cx="595.131" cy="106.934" r="4.65789" fill="#7A7A7A" stroke="black" stroke-linecap="round" stroke-linejoin="round"/>
<circle cx="494.986" cy="116.25" r="4.65789" fill="#7A7A7A" stroke="black" stroke-linecap="round" stroke-linejoin="round"/>
<circle cx="595.131" cy="116.25" r="4.65789" fill="#7A7A7A" stroke="black" stroke-linecap="round" stroke-linejoin="round"/>
<circle cx="494.986" cy="125.566" r="4.65789" fill="#7A7A7A" stroke="black" stroke-linecap="round" stroke-linejoin="round"/>
<circle cx="595.131" cy="125.566" r="4.65789" fill="#7A7A7A" stroke="black" stroke-linecap="round" stroke-linejoin="round"/>
<rect y="137" width="782" height="163" fill="url(#paint5_linear_232_15107)"/>
<rect y="137" width="782" height="163" fill="url(#paint6_linear_232_15107)" fill-opacity="0.2"/>
<rect y="137" width="782" height="163" stroke="black" stroke-linecap="round" stroke-linejoin="round"/>
<path d="M757 178C762.274 176.491 774.658 174.378 782 178" stroke="black" stroke-linecap="round" stroke-linejoin="round"/>
<path d="M450.949 183C458.482 181.697 475.938 179.649 485.494 181.883M481.943 183C485.925 181.604 497.311 179.649 511 183M398 180.207C401.121 179.183 410.139 177.861 421.246 180.766" stroke="black" stroke-linecap="round" stroke-linejoin="round"/>
<path d="M703 201.367C707.833 200.208 721.8 198.71 739 202" stroke="black" stroke-linecap="round" stroke-linejoin="round"/>
<path d="M432 169.5C433.667 169 437.9 168.3 441.5 169.5M349 163.5C350.5 163.167 354.2 162.6 357 163" stroke="black" stroke-linecap="round" stroke-linejoin="round"/>
<path d="M374.844 205.659C381.595 202.098 399.86 197.197 418.913 206.079L374.844 205.659Z" fill="#D9D9D9"/>
<path d="M374.844 205.659C381.595 202.098 399.86 197.197 418.913 206.079L374.844 205.659Z" fill="url(#paint7_linear_232_15107)"/>
<path d="M374.844 205.659C381.595 202.098 399.86 197.197 418.913 206.079L374.844 205.659Z" stroke="black" stroke-linecap="round" stroke-linejoin="round"/>
<path d="M248 39.9452L261.021 12L366 48.9863L357.862 72L248 39.9452Z" fill="#646675" stroke="black" stroke-linecap="round" stroke-linejoin="round"/>
<path d="M417 123L780 111V149H417V123Z" fill="#7A7A7A" stroke="black" stroke-linecap="round" stroke-linejoin="round"/>
<path d="M417 123L436.5 122.355L475.5 121.066L513 119.826L547 118.702L571 117.909L597.5 117.033L633 115.86L665 114.802L692.5 113.893L708.5 113.364L744.25 112.182L780 111V149H744.25H708.5H692.5H670.5H633H571H547H530.805H475.5H440H417V123Z" fill="url(#paint8_linear_232_15107)"/>
<path d="M436.5 122.355L417 123V149H440M436.5 122.355L440 149M436.5 122.355L475.5 121.066M440 149H475.5M475.5 121.066V149M475.5 121.066L513 119.826M475.5 149H530.805M513 119.826V136M513 119.826L547 118.702M547 118.702V149M547 118.702L571 117.909M547 149H571M547 149H530.805M571 117.909V149M571 117.909L597.5 117.033M571 149H633M597.5 117.033L599 146M597.5 117.033L633 115.86M633 115.86V149M633 115.86L665 114.802M633 149H670.5M665 114.802L670.5 149M665 114.802L692.5 113.893M670.5 149H692.5M692.5 113.893V149M692.5 113.893L708.5 113.364M692.5 149H708.5M708.5 113.364V149M708.5 113.364L744.25 112.182M708.5 149H744.25M744.25 112.182L780 111V149H744.25M744.25 112.182V149M530.805 149V136" stroke="black" stroke-linecap="round" stroke-linejoin="round"/>
<path d="M417 123.5V149L410 149.133L399.5 149.333L389.5 149.524L381 149.686L372.75 149.843L364.5 150V105.896C364.5 105.896 367.7 105.728 372 105.596C374.735 105.512 377.915 105.442 381 105.439C385.082 105.435 388.998 105.547 391.5 105.896C393.812 106.218 396.613 107.531 399.5 109.304C402.38 111.074 405.347 113.302 408 115.466C413.071 119.602 417 123.5 417 123.5Z" fill="url(#paint9_linear_232_15107)"/>
<path d="M-9 204.5V4.0001C-9 4.0001 -2.29633 1.27283 7.5 -1.71935C14.9164 -3.98462 24.1054 -6.40172 33.5 -7.90223C42.9959 -9.4189 52.7019 -9.99913 61 -8.53958C73.4504 -6.34969 86.6251 1.11691 98.1456 9.5C116.724 23.0187 131 38.9207 131 38.9207C131 38.9207 139.612 36.2686 151.5 33.8344C158.409 32.4197 166.425 31.0787 174.5 30.3745C183.297 29.6074 192.165 29.5962 199.75 31.0693C208.781 32.8232 218.403 37.1495 227.5 42.3954C235.08 46.7666 242.295 51.7764 248.5 56.4686C260.339 65.4212 268.5 73.2178 268.5 73.2178V149H244L-9 204.5Z" fill="url(#paint10_linear_232_15107)"/>
<path d="M199.75 31.0693V140M199.75 31.0693C208.781 32.8232 218.403 37.1495 227.5 42.3954M199.75 31.0693C192.165 29.5962 183.297 29.6074 174.5 30.3745M61 -8.53958C73.4504 -6.34969 86.6251 1.11691 98.1456 9.5M61 -8.53958C52.7019 -9.99913 42.9959 -9.4189 33.5 -7.90223M61 -8.53958L74 140M391.5 105.896C393.812 106.218 396.613 107.531 399.5 109.304M391.5 105.896L389.5 149.524M391.5 105.896C388.998 105.547 385.082 105.435 381 105.439M227.5 42.3954L222.5 140M227.5 42.3954C235.08 46.7666 242.295 51.7764 248.5 56.4686M248.5 56.4686C260.339 65.4212 268.5 73.2178 268.5 73.2178C268.5 73.2178 268.5 106.56 268.5 149H244M248.5 56.4686L244 149M244 149L-9 204.5V4.0001C-9 4.0001 -2.29633 1.27283 7.5 -1.71935M174.5 30.3745C166.425 31.0787 158.409 32.4197 151.5 33.8344M174.5 30.3745V149M151.5 33.8344C139.612 36.2686 131 38.9207 131 38.9207C131 38.9207 116.724 23.0187 98.1456 9.5M151.5 33.8344V134.5M98.1456 9.5V154M33.5 -7.90223C24.1054 -6.40172 14.9164 -3.98462 7.5 -1.71935M33.5 -7.90223L43.5 145M7.5 -1.71935L21.5 180.5M408 115.466C413.071 119.602 417 123.5 417 123.5V149L410 149.133M408 115.466L410 149.133M408 115.466C405.347 113.302 402.38 111.074 399.5 109.304M410 149.133L399.5 149.333M399.5 109.304V149.333M399.5 149.333L389.5 149.524M389.5 149.524L381 149.686M381 105.439V149.686M381 105.439C377.915 105.442 374.735 105.512 372 105.596M381 149.686L372.75 149.843M372 105.596C367.7 105.728 364.5 105.896 364.5 105.896V150L372.75 149.843M372 105.596L372.75 149.843" stroke="black" stroke-linecap="round" stroke-linejoin="round"/>
<path d="M416.585 133.026L416.585 138.24L359.978 129.39L359.978 121L416.585 133.026Z" fill="#6E6E6E" stroke="black" stroke-linecap="round" stroke-linejoin="round"/>
<path d="M261 12L274 16.8966V154H261V12Z" fill="#7A7A7A" stroke="black" stroke-linecap="round" stroke-linejoin="round"/>
<path d="M318 169V113.677C318 89.4013 297.181 70.3506 273 72.5L269 152.5L318 169Z" fill="#646675" stroke="black" stroke-linecap="round" stroke-linejoin="round"/>
<rect x="353" y="50" width="13" height="104" fill="#7A7A7A" stroke="black" stroke-linecap="round" stroke-linejoin="round"/>
<path d="M393.462 154V118.495C393.462 100.176 376.293 86.7035 358.5 91.0599V154H393.462Z" fill="#686A73" stroke="black" stroke-linecap="round" stroke-linejoin="round"/>
<path d="M269.138 39.9452L261 12L365.979 48.9863L379 72L269.138 39.9452Z" fill="#7A7A7A" stroke="black" stroke-linecap="round" stroke-linejoin="round"/>
<path d="M119 25L140 32V149H119V25Z" fill="url(#paint11_linear_232_15107)" stroke="black" stroke-linecap="round" stroke-linejoin="round"/>
<path d="M262.003 97.1914L262.003 106.477L139.811 90.7152L139.811 75.7731L262.003 97.1914Z" fill="url(#paint12_linear_232_15107)" stroke="black" stroke-linecap="round" stroke-linejoin="round"/>
<path d="M118.75 72.1755L118.75 86.9922L-76.2207 61.8419L-76.2207 38.0001L118.75 72.1755Z" fill="url(#paint13_linear_232_15107)" stroke="black" stroke-linecap="round" stroke-linejoin="round"/>
<path d="M169 236C136.6 234 121.167 218.5 117.5 211C108 192 290 219 291.5 217C293 215 312 210 332.5 210.5C345.131 210.808 352.416 218.477 341.124 222C329.831 225.522 322.717 219.536 291.5 231.014C274.44 237.286 257.758 236.101 245.593 233.247C234.177 230.569 219.802 230.544 208.384 233.215C198.62 235.499 185.435 237.015 169 236Z" fill="url(#paint14_linear_232_15107)"/>
<path d="M360 217C383.167 214.167 424.7 215.2 415.5 222C404 230.5 330 226.5 360 217Z" fill="url(#paint15_linear_232_15107)"/>
<path d="M169 236C136.6 234 121.167 218.5 117.5 211C108 192 290 219 291.5 217C293 215 312 210 332.5 210.5C345.131 210.808 352.416 218.477 341.124 222C329.831 225.522 322.717 219.536 291.5 231.014C274.44 237.286 257.758 236.101 245.593 233.247C234.177 230.569 219.802 230.544 208.384 233.215C198.62 235.499 185.435 237.015 169 236Z" stroke="black" stroke-linecap="round" stroke-linejoin="round"/>
<path d="M360 217C383.167 214.167 424.7 215.2 415.5 222C404 230.5 330 226.5 360 217Z" stroke="black" stroke-linecap="round" stroke-linejoin="round"/>
<path d="M404 210C401.2 211.6 396.5 216.667 394.5 219L405.5 219.5C408.833 219.333 415.3 218.5 414.5 216.5C413.7 214.5 408.5 215 406 215.5C406.5 213 406.8 208.4 404 210Z" fill="url(#paint16_linear_232_15107)"/>
<path d="M404 210C401.2 211.6 396.5 216.667 394.5 219L405.5 219.5C408.833 219.333 415.3 218.5 414.5 216.5C413.7 214.5 408.5 215 406 215.5C406.5 213 406.8 208.4 404 210Z" fill="url(#paint17_linear_232_15107)"/>
<path d="M404 210C401.2 211.6 396.5 216.667 394.5 219L405.5 219.5C408.833 219.333 415.3 218.5 414.5 216.5C413.7 214.5 408.5 215 406 215.5C406.5 213 406.8 208.4 404 210Z" stroke="black" stroke-linecap="round" stroke-linejoin="round"/>
<path d="M362.502 215.5C362.902 211.9 368.335 211.333 371.002 211.5C376.202 212.7 381.169 218.333 383.002 221H377.002H362.502C362.335 220.667 362.102 219.1 362.502 215.5Z" fill="url(#paint18_linear_232_15107)"/>
<path d="M362.502 215.5C362.902 211.9 368.335 211.333 371.002 211.5C376.202 212.7 381.169 218.333 383.002 221H377.002H362.502C362.335 220.667 362.102 219.1 362.502 215.5Z" fill="url(#paint19_linear_232_15107)"/>
<path d="M373.002 219.5L377.002 221M377.002 221H362.502C362.335 220.667 362.102 219.1 362.502 215.5C362.902 211.9 368.335 211.333 371.002 211.5C376.202 212.7 381.169 218.333 383.002 221H377.002Z" stroke="black" stroke-linecap="round" stroke-linejoin="round"/>
<path d="M268.999 228C252.199 230.8 219.999 225.5 205.999 222.5C192.499 219.963 179.778 241.118 157.982 232.784C152.539 230.703 142.259 224.053 137.212 220.444C136.973 220.463 136.735 220.481 136.499 220.5L134.648 218.5C135.125 218.913 136.024 219.594 137.212 220.444C197.123 215.759 317.022 206.5 322.999 206.5C328.999 206.5 336.165 209.833 338.999 211.5C336.499 212.333 329.499 214.3 321.499 215.5C313.499 216.7 304.165 218 300.499 218.5L311.499 231L301.324 225.616L299.316 229.16C295.816 226.993 285.799 225.2 268.999 228Z" fill="#79615A"/>
<path d="M307.001 216C309.001 215.2 313.501 214.667 315.501 214.5C319.749 216.624 317 218.644 317 220H305.501C305.167 219 305.001 216.8 307.001 216Z" fill="#FF855F" stroke="black" stroke-linecap="round" stroke-linejoin="round"/>
<path d="M170.953 144.295C80.9581 133.046 42.4447 120.468 34.4374 115.586L32.0938 130.819L78.966 219.877L86.0108 224.608L148.502 223L298.68 175.934C293.602 170.075 260.948 155.545 170.953 144.295Z" fill="url(#paint20_linear_232_15107)" stroke="black" stroke-linecap="round" stroke-linejoin="round"/>
<path d="M94.1992 222.221L140.203 220.835" stroke="black" stroke-linecap="round" stroke-linejoin="round"/>
<path d="M95.6719 222.57C88.4478 226.741 79.2282 224.322 74.9717 217.179C74.2595 217.735 73.4631 218.272 72.5752 218.784C56.0414 228.33 32.6693 218.804 20.373 197.506C8.07683 176.208 11.5122 151.204 28.0459 141.658C28.9329 141.146 29.7883 140.714 30.6123 140.353L27.9902 135.81C23.7836 128.524 26.2803 119.207 33.5664 115L95.6719 222.57Z" fill="url(#paint21_linear_232_15107)"/>
<path d="M95.6719 222.57L95.9219 223.003C96.161 222.865 96.243 222.559 96.1049 222.32L95.6719 222.57ZM74.9717 217.179L75.4012 216.923C75.3277 216.799 75.2048 216.714 75.0636 216.687C74.9225 216.661 74.7769 216.696 74.6638 216.785L74.9717 217.179ZM72.5752 218.784L72.8252 219.217L72.8252 219.217L72.5752 218.784ZM20.373 197.506L19.94 197.756L19.94 197.756L20.373 197.506ZM28.0459 141.658L27.7959 141.225L27.7959 141.225L28.0459 141.658ZM30.6123 140.353L30.8131 140.81C30.9433 140.753 31.0431 140.644 31.0874 140.508C31.1317 140.373 31.1164 140.226 31.0454 140.103L30.6123 140.353ZM27.9902 135.81L28.4233 135.56L28.4232 135.56L27.9902 135.81ZM33.5664 115L33.9994 114.75C33.9331 114.635 33.8239 114.551 33.6958 114.517C33.5677 114.483 33.4312 114.501 33.3164 114.567L33.5664 115ZM95.6719 222.57L95.4219 222.137C88.4349 226.171 79.5179 223.831 75.4012 216.923L74.9717 217.179L74.5422 217.435C78.9384 224.812 88.4606 227.311 95.9219 223.003L95.6719 222.57ZM74.9717 217.179L74.6638 216.785C73.9714 217.326 73.1945 217.849 72.3252 218.351L72.5752 218.784L72.8252 219.217C73.7317 218.694 74.5477 218.145 75.2796 217.573L74.9717 217.179ZM72.5752 218.784L72.3252 218.351C56.1262 227.704 33.0268 218.423 20.8061 197.256L20.373 197.506L19.94 197.756C32.3118 219.184 55.9567 228.956 72.8252 219.217L72.5752 218.784ZM20.373 197.506L20.8061 197.256C8.58533 176.089 12.0969 151.444 28.2959 142.091L28.0459 141.658L27.7959 141.225C10.9274 150.964 7.56834 176.327 19.94 197.756L20.373 197.506ZM28.0459 141.658L28.2959 142.091C29.1678 141.588 30.0068 141.164 30.8131 140.81L30.6123 140.353L30.4115 139.895C29.5697 140.264 28.6979 140.704 27.7959 141.225L28.0459 141.658ZM30.6123 140.353L31.0454 140.103L28.4233 135.56L27.9902 135.81L27.5572 136.06L30.1793 140.602L30.6123 140.353ZM27.9902 135.81L28.4232 135.56C24.3547 128.513 26.7695 119.502 33.8164 115.433L33.5664 115L33.3164 114.567C25.7912 118.912 23.2125 128.534 27.5572 136.06L27.9902 135.81ZM33.5664 115L33.1334 115.25L95.2389 222.82L95.6719 222.57L96.1049 222.32L33.9994 114.75L33.5664 115Z" fill="black"/>
<path d="M82.0342 199.054L53.9805 211.807M73.9583 206.706L85.6476 204.368" stroke="black" stroke-linecap="round" stroke-linejoin="round"/>
<path d="M47.3706 139.021L55.5447 142.684L51.0627 145.885M60.2148 161.285L31.6719 189.543L66.2091 171.561L60.2148 161.285Z" stroke="black" stroke-linecap="round" stroke-linejoin="round"/>
<path d="M158.06 151.326C137.905 151.326 81.6977 140.389 56.1133 134.921L98.8842 211.674H132.867L219.58 167.731C207.472 162.263 178.215 151.326 158.06 151.326Z" fill="url(#paint22_linear_232_15107)" stroke="black" stroke-linecap="round" stroke-linejoin="round"/>
<path d="M82.9966 174.087C82.9966 172.732 82.2418 169.5 79.2227 167.41C76.0511 165.214 74.5781 168.281 74.5781 168.281L86.335 188.892L92.7214 187.44C92.8182 182.989 92.2279 173.738 89.0928 172.345C85.9576 170.951 83.7223 172.925 82.9966 174.087Z" fill="url(#paint23_linear_232_15107)" stroke="black" stroke-linecap="round" stroke-linejoin="round"/>
<path d="M96.0002 190C96.0002 193.189 93.4147 195.775 90.2253 195.775L84.5117 186.032C84.5117 186.032 87.0359 184.225 90.2253 184.225C93.4147 184.225 96.0002 186.811 96.0002 190Z" fill="#FF855F" stroke="black" stroke-linecap="round" stroke-linejoin="round"/>
<path fill-rule="evenodd" clip-rule="evenodd" d="M87.4999 157.5C92.3044 144.065 111.673 135.553 139.797 133.678C162.162 132.187 185.713 135.676 203.66 138.563C213.621 136.286 239 138 243 139.5C243.577 139.717 244.155 139.929 244.728 140.139C248.122 141.386 251.344 142.57 253.347 144.225C257.682 143.834 269.867 144.576 283.929 150.67C286.472 151.772 288.781 152.813 290.911 153.796C292.155 152.572 293.754 151.268 295.788 149.96C302.35 145.742 307.897 141.562 309.85 140C310.826 142.734 312.311 150.078 310.436 157.577C310.031 159.196 309.504 160.693 308.882 162.071C312.691 163.604 316.577 164.864 321.356 165.903C328.794 167.52 334.299 173.682 339.119 179.077C343.031 183.456 346.492 187.33 350.167 187.855C351.639 188.065 352.996 188.364 354.272 188.646C358.682 189.619 362.122 190.378 366 186.5L368.431 206.361L352.167 204.604C358.416 205.385 363.627 207.182 358.471 208.119C355.638 208.634 354.191 208.357 352.762 208.083C350.94 207.734 349.148 207.391 344.55 208.705C336.511 211.002 333.233 211.001 329.244 211L329 211C326.851 211 326.048 211.174 324.506 211.509C323.106 211.812 321.095 212.248 316.911 212.806C313.156 213.307 305.877 213.892 299.224 214.179C299.398 214.493 299.573 214.807 299.748 215.119C303.967 222.619 309.709 229.181 312.052 231.524L302.092 227.423L300.92 230.352L280.462 215.52C250.874 223.162 221.525 223.079 198.806 216.542C199.539 217.945 200.191 219.244 200.731 220.392C203.088 225.401 203.792 226.804 204.283 227.781C204.768 228.747 205.043 229.296 206.5 232.5C208.843 237.656 209.91 240.508 209.519 242.656L200.731 237V245C197.32 242.333 192.536 238.748 187.5 235.031V238.5L179 236.5V242.5C171.585 234.096 160.696 228.609 142.5 223C134.666 220.585 125.886 215.894 118.426 211.334C114.929 212.017 111.514 212.427 108.367 210.831C93.0524 203.062 81.1569 171.877 87.4999 157.5Z" fill="url(#paint24_linear_232_15107)"/>
<path d="M139.797 133.678L139.83 134.177L139.797 133.678ZM87.4999 157.5L87.9573 157.702C87.9622 157.691 87.9666 157.68 87.9707 157.668L87.4999 157.5ZM203.66 138.563L203.581 139.057C203.644 139.067 203.709 139.065 203.772 139.051L203.66 138.563ZM244.728 140.139L244.901 139.67L244.901 139.67L244.728 140.139ZM253.347 144.225L253.029 144.61C253.13 144.694 253.261 144.735 253.392 144.723L253.347 144.225ZM283.929 150.67L283.73 151.128L283.73 151.128L283.929 150.67ZM290.911 153.796L290.702 154.25C290.891 154.337 291.114 154.298 291.262 154.152L290.911 153.796ZM295.788 149.96L296.059 150.381L296.059 150.381L295.788 149.96ZM309.85 140L310.321 139.832C310.267 139.68 310.142 139.563 309.986 139.519C309.831 139.475 309.664 139.509 309.538 139.61L309.85 140ZM310.436 157.577L310.921 157.698L310.921 157.698L310.436 157.577ZM308.882 162.071L308.426 161.865C308.37 161.989 308.367 162.131 308.418 162.257C308.468 162.383 308.568 162.484 308.695 162.535L308.882 162.071ZM321.356 165.903L321.462 165.415L321.462 165.415L321.356 165.903ZM339.119 179.077L339.492 178.744L339.492 178.744L339.119 179.077ZM350.167 187.855L350.237 187.36L350.237 187.36L350.167 187.855ZM354.272 188.646L354.379 188.158L354.379 188.158L354.272 188.646ZM366 186.5L366.496 186.439C366.473 186.249 366.343 186.09 366.163 186.027C365.982 185.965 365.781 186.011 365.646 186.146L366 186.5ZM368.431 206.361L368.377 206.858C368.529 206.875 368.68 206.821 368.787 206.712C368.894 206.604 368.946 206.452 368.927 206.301L368.431 206.361ZM352.167 204.604L352.221 204.106C351.948 204.077 351.702 204.273 351.67 204.546C351.638 204.818 351.832 205.066 352.105 205.1L352.167 204.604ZM358.471 208.119L358.56 208.611L358.56 208.611L358.471 208.119ZM352.762 208.083L352.857 207.592L352.857 207.592L352.762 208.083ZM344.55 208.705L344.687 209.186L344.687 209.186L344.55 208.705ZM329.244 211L329.244 210.5L329.244 210.5L329.244 211ZM329 211L329 210.5H329V211ZM324.506 211.509L324.4 211.02L324.4 211.02L324.506 211.509ZM316.911 212.806L316.977 213.302L316.977 213.302L316.911 212.806ZM299.224 214.179L299.202 213.68C299.029 213.687 298.872 213.784 298.788 213.935C298.703 214.086 298.702 214.27 298.786 214.422L299.224 214.179ZM299.748 215.119L299.312 215.364L299.312 215.364L299.748 215.119ZM312.052 231.524L311.862 231.987C312.082 232.077 312.336 232 312.468 231.802C312.6 231.603 312.574 231.339 312.406 231.171L312.052 231.524ZM302.092 227.423L302.282 226.961C302.159 226.91 302.02 226.91 301.897 226.962C301.774 227.014 301.677 227.113 301.628 227.237L302.092 227.423ZM300.92 230.352L300.627 230.757C300.751 230.848 300.911 230.876 301.059 230.833C301.207 230.79 301.327 230.681 301.384 230.538L300.92 230.352ZM280.462 215.52L280.755 215.116C280.635 215.028 280.481 214.999 280.337 215.036L280.462 215.52ZM198.806 216.542L198.944 216.062C198.752 216.006 198.545 216.071 198.419 216.226C198.292 216.381 198.27 216.596 198.363 216.774L198.806 216.542ZM200.731 220.392L201.183 220.179L201.183 220.179L200.731 220.392ZM204.283 227.781L203.836 228.006L203.836 228.006L204.283 227.781ZM206.5 232.5L206.955 232.293L206.955 232.293L206.5 232.5ZM209.519 242.656L209.249 243.077C209.389 243.167 209.565 243.182 209.718 243.115C209.871 243.049 209.981 242.91 210.011 242.746L209.519 242.656ZM200.731 237L201.001 236.58C200.847 236.481 200.652 236.473 200.491 236.561C200.331 236.649 200.231 236.817 200.231 237H200.731ZM200.731 245L200.423 245.394C200.573 245.512 200.778 245.533 200.95 245.449C201.122 245.366 201.231 245.191 201.231 245H200.731ZM187.5 235.031L187.797 234.629C187.645 234.517 187.443 234.5 187.274 234.585C187.106 234.67 187 234.843 187 235.031H187.5ZM187.5 238.5L187.385 238.987C187.534 239.022 187.69 238.987 187.81 238.892C187.93 238.797 188 238.653 188 238.5H187.5ZM179 236.5L179.114 236.013C178.966 235.978 178.809 236.013 178.689 236.108C178.57 236.203 178.5 236.347 178.5 236.5H179ZM179 242.5L178.625 242.831C178.762 242.987 178.982 243.041 179.177 242.968C179.371 242.894 179.5 242.708 179.5 242.5H179ZM142.5 223L142.647 222.522L142.647 222.522L142.5 223ZM118.426 211.334L118.686 210.908C118.58 210.842 118.452 210.82 118.33 210.844L118.426 211.334ZM108.367 210.831L108.14 211.276L108.14 211.276L108.367 210.831ZM139.797 133.678L139.763 133.18C125.665 134.119 113.728 136.724 104.698 140.799C95.6724 144.871 89.4943 150.438 87.0291 157.332L87.4999 157.5L87.9707 157.668C90.3099 151.127 96.2186 145.721 105.109 141.71C113.996 137.701 125.805 135.112 139.83 134.177L139.797 133.678ZM203.66 138.563L203.74 138.07C185.795 135.183 162.192 131.684 139.763 133.18L139.797 133.678L139.83 134.177C162.132 132.691 185.631 136.17 203.581 139.057L203.66 138.563ZM243 139.5L243.175 139.032C242.627 138.826 241.752 138.629 240.653 138.443C239.544 138.255 238.175 138.072 236.62 137.903C233.51 137.566 229.64 137.281 225.586 137.115C217.497 136.784 208.601 136.92 203.549 138.076L203.66 138.563L203.772 139.051C208.679 137.928 217.453 137.783 225.545 138.115C229.58 138.28 233.428 138.563 236.512 138.898C238.055 139.065 239.403 139.245 240.486 139.429C241.579 139.614 242.372 139.799 242.824 139.968L243 139.5ZM244.728 140.139L244.901 139.67C244.327 139.459 243.751 139.248 243.175 139.032L243 139.5L242.824 139.968C243.404 140.185 243.983 140.398 244.556 140.609L244.728 140.139ZM253.347 144.225L253.666 143.839C251.581 142.117 248.263 140.905 244.901 139.67L244.728 140.139L244.556 140.609C247.981 141.867 251.106 143.022 253.029 144.61L253.347 144.225ZM283.929 150.67L284.128 150.211C269.994 144.086 257.725 143.328 253.302 143.727L253.347 144.225L253.392 144.723C257.639 144.34 269.741 145.066 283.73 151.128L283.929 150.67ZM290.911 153.796L291.121 153.342C288.988 152.357 286.675 151.315 284.128 150.211L283.929 150.67L283.73 151.128C286.27 152.229 288.575 153.268 290.702 154.25L290.911 153.796ZM295.788 149.96L295.518 149.54C293.457 150.865 291.83 152.19 290.561 153.439L290.911 153.796L291.262 154.152C292.48 152.954 294.051 151.671 296.059 150.381L295.788 149.96ZM309.85 140L309.538 139.61C307.597 141.162 302.065 145.331 295.518 149.54L295.788 149.96L296.059 150.381C302.636 146.153 308.197 141.963 310.162 140.39L309.85 140ZM310.436 157.577L310.921 157.698C312.825 150.081 311.322 142.636 310.321 139.832L309.85 140L309.379 140.168C310.331 142.833 311.796 150.074 309.951 157.456L310.436 157.577ZM308.882 162.071L309.337 162.277C309.972 160.872 310.509 159.346 310.921 157.698L310.436 157.577L309.951 157.456C309.553 159.046 309.036 160.515 308.426 161.865L308.882 162.071ZM321.356 165.903L321.462 165.415C316.713 164.382 312.854 163.131 309.068 161.607L308.882 162.071L308.695 162.535C312.528 164.078 316.441 165.346 321.25 166.392L321.356 165.903ZM339.119 179.077L339.492 178.744C334.699 173.379 329.087 167.072 321.462 165.415L321.356 165.903L321.25 166.392C328.501 167.968 333.9 173.986 338.746 179.41L339.119 179.077ZM350.167 187.855L350.237 187.36C348.543 187.118 346.849 186.094 345.06 184.534C343.275 182.978 341.454 180.94 339.492 178.744L339.119 179.077L338.746 179.41C340.696 181.593 342.561 183.682 344.403 185.288C346.241 186.891 348.115 188.067 350.096 188.35L350.167 187.855ZM354.272 188.646L354.379 188.158C353.106 187.877 351.731 187.573 350.237 187.36L350.167 187.855L350.096 188.35C351.547 188.557 352.886 188.852 354.164 189.134L354.272 188.646ZM366 186.5L365.646 186.146C363.781 188.012 362.057 188.733 360.29 188.894C358.486 189.059 356.603 188.648 354.379 188.158L354.272 188.646L354.164 189.134C356.35 189.617 358.393 190.072 360.381 189.89C362.405 189.705 364.341 188.866 366.353 186.854L366 186.5ZM368.431 206.361L368.927 206.301L366.496 186.439L366 186.5L365.504 186.561L367.935 206.422L368.431 206.361ZM352.167 204.604L352.113 205.101L368.377 206.858L368.431 206.361L368.485 205.864L352.221 204.106L352.167 204.604ZM358.471 208.119L358.56 208.611C359.22 208.491 359.742 208.353 360.128 208.193C360.485 208.045 360.843 207.832 360.997 207.487C361.188 207.058 360.974 206.68 360.745 206.449C360.518 206.22 360.182 206.023 359.805 205.849C358.292 205.15 355.362 204.499 352.229 204.107L352.167 204.604L352.105 205.1C355.221 205.489 358.021 206.127 359.386 206.757C359.729 206.915 359.935 207.052 360.035 207.153C360.132 207.251 360.031 207.198 360.083 207.081C360.097 207.049 360.066 207.136 359.745 207.269C359.453 207.39 359.01 207.513 358.381 207.627L358.471 208.119ZM352.762 208.083L352.668 208.574C354.129 208.854 355.644 209.141 358.56 208.611L358.471 208.119L358.381 207.627C355.633 208.127 354.253 207.86 352.857 207.592L352.762 208.083ZM344.55 208.705L344.687 209.186C346.96 208.536 348.514 208.304 349.711 208.27C350.903 208.237 351.761 208.401 352.668 208.574L352.762 208.083L352.857 207.592C351.942 207.417 350.992 207.234 349.683 207.271C348.379 207.307 346.738 207.56 344.413 208.224L344.55 208.705ZM329.244 211L329.244 211.5C333.267 211.501 336.594 211.498 344.687 209.186L344.55 208.705L344.413 208.224C336.428 210.505 333.198 210.501 329.244 210.5L329.244 211ZM329 211L329 211.5L329.244 211.5L329.244 211L329.244 210.5L329 210.5L329 211ZM324.506 211.509L324.612 211.997C326.134 211.667 326.899 211.5 329 211.5V211V210.5C326.802 210.5 325.961 210.681 324.4 211.02L324.506 211.509ZM316.911 212.806L316.977 213.302C321.178 212.742 323.202 212.303 324.612 211.997L324.506 211.509L324.4 211.02C323.009 211.322 321.012 211.755 316.845 212.311L316.911 212.806ZM299.224 214.179L299.245 214.679C305.906 214.391 313.202 213.805 316.977 213.302L316.911 212.806L316.845 212.311C313.111 212.809 305.847 213.393 299.202 213.68L299.224 214.179ZM299.748 215.119L300.184 214.874C300.009 214.563 299.835 214.25 299.661 213.937L299.224 214.179L298.786 214.422C298.961 214.737 299.136 215.051 299.312 215.364L299.748 215.119ZM312.052 231.524L312.406 231.171C310.086 228.851 304.375 222.324 300.184 214.874L299.748 215.119L299.312 215.364C303.559 222.913 309.331 229.511 311.699 231.878L312.052 231.524ZM302.092 227.423L301.901 227.885L311.862 231.987L312.052 231.524L312.243 231.062L302.282 226.961L302.092 227.423ZM300.92 230.352L301.384 230.538L302.556 227.609L302.092 227.423L301.628 227.237L300.456 230.167L300.92 230.352ZM280.462 215.52L280.168 215.925L300.627 230.757L300.92 230.352L301.214 229.948L280.755 215.116L280.462 215.52ZM198.806 216.542L198.668 217.023C221.487 223.588 250.928 223.664 280.587 216.004L280.462 215.52L280.337 215.036C250.82 222.659 221.564 222.57 198.944 216.062L198.806 216.542ZM200.731 220.392L201.183 220.179C200.639 219.023 199.984 217.718 199.249 216.311L198.806 216.542L198.363 216.774C199.093 218.173 199.742 219.465 200.278 220.605L200.731 220.392ZM204.283 227.781L204.73 227.557C204.242 226.585 203.539 225.186 201.183 220.179L200.731 220.392L200.278 220.605C202.637 225.617 203.343 227.024 203.836 228.006L204.283 227.781ZM206.5 232.5L206.955 232.293C205.497 229.086 205.218 228.531 204.73 227.557L204.283 227.781L203.836 228.006C204.317 228.963 204.59 229.506 206.045 232.707L206.5 232.5ZM209.519 242.656L210.011 242.746C210.228 241.555 210.032 240.213 209.512 238.556C208.991 236.898 208.126 234.871 206.955 232.293L206.5 232.5L206.045 232.707C207.217 235.285 208.057 237.262 208.558 238.856C209.059 240.451 209.201 241.61 209.027 242.567L209.519 242.656ZM200.731 237L200.46 237.42L209.249 243.077L209.519 242.656L209.79 242.236L201.001 236.58L200.731 237ZM200.731 245H201.231V237H200.731H200.231V245H200.731ZM187.5 235.031L187.203 235.434C192.238 239.149 197.017 242.731 200.423 245.394L200.731 245L201.039 244.606C197.622 241.934 192.833 238.346 187.797 234.629L187.5 235.031ZM187.5 238.5H188V235.031H187.5H187V238.5H187.5ZM179 236.5L178.885 236.987L187.385 238.987L187.5 238.5L187.614 238.013L179.114 236.013L179 236.5ZM179 242.5H179.5V236.5H179H178.5V242.5H179ZM142.5 223L142.352 223.478C160.528 229.08 171.305 234.535 178.625 242.831L179 242.5L179.375 242.169C171.865 233.658 160.864 228.137 142.647 222.522L142.5 223ZM118.426 211.334L118.165 211.761C125.635 216.327 134.458 221.044 142.352 223.478L142.5 223L142.647 222.522C134.874 220.126 126.136 215.461 118.686 210.908L118.426 211.334ZM108.367 210.831L108.14 211.276C111.453 212.957 115.024 212.508 118.522 211.825L118.426 211.334L118.33 210.844C114.835 211.526 111.574 211.897 108.593 210.385L108.367 210.831ZM87.4999 157.5L87.0424 157.298C85.4098 160.999 84.9661 165.738 85.4329 170.851C85.9003 175.971 87.2839 181.506 89.3456 186.824C93.4584 197.434 100.321 207.31 108.14 211.276L108.367 210.831L108.593 210.385C101.098 206.583 94.3558 196.982 90.278 186.463C88.2444 181.217 86.8864 175.774 86.4288 170.76C85.9705 165.74 86.4185 161.19 87.9573 157.702L87.4999 157.5Z" fill="black"/>
<path d="M99 212L89.5 194.5L92.3668 194.858C95.7278 195.278 98.9153 196.589 101.599 198.655L118.936 212L141.725 223.195L135.93 223.74C126.311 224.645 116.988 220.118 111.75 212H99Z" fill="#9BB0EF" fill-opacity="0.62" stroke="black" stroke-linecap="round" stroke-linejoin="round"/>
<path d="M96 163C92 158.333 80.8 148.6 76 155C71.2 161.4 79 164.5 81.5 161.5C83.5496 159.04 86.5 147 69 145.5" stroke="black" stroke-linecap="round" stroke-linejoin="round"/>
<path d="M227.683 141.881C222.354 141.668 213.923 140.214 203.661 138.563M262.837 154.185C261.516 152.205 258.233 148.261 253.348 144.225M249.361 150.67C253.658 150.67 263.188 155.122 266.938 172.934M275.727 165.903C277.484 167.075 281 170.942 281 177.035C285.532 178.134 294.807 184.126 295.647 199.3M181.396 168.247C183.154 168.833 190.771 175.863 193.114 186.996C195.458 198.128 193.5 202.5 193.5 202.5M131.009 196.956C135.11 201.838 147 214 159.447 214M149.5 202C152.93 212.786 178.5 228.5 187.5 235M126.5 207C129.5 207.667 136.6 208.6 141 207M301.5 200.5C301.667 204.167 304.1 211.8 312.5 213M291 154C292.667 154.833 296.5 156.9 298.5 158.5" stroke="black" stroke-linecap="round" stroke-linejoin="round"/>
<path d="M256.149 202.815C256.149 202.815 258 209.846 266 212.5C274 215.154 276.312 213.361 277.484 213.361M277.484 213.361L300.92 230.352L302.092 227.423L312.053 231.524C309.709 229.181 303.967 222.618 299.749 215.119C295.53 207.619 291.741 199.495 290.374 196.37M277.484 213.361L272.211 209.846M189 190C190.953 193.515 197 212 199 217" stroke="black" stroke-linecap="round" stroke-linejoin="round"/>
<path d="M309.124 153.599C302.562 157.818 300.531 161.997 300.336 163.559C303.197 165.12 309.078 170.118 309.71 177.621C314.984 175.863 321.428 170.59 323.772 161.216C325.647 153.716 324.163 146.373 323.186 143.639C321.233 145.201 315.687 149.381 309.124 153.599Z" fill="url(#paint25_linear_232_15107)"/>
<path d="M326.116 183.48C327.287 184.066 329.397 185.707 328.459 187.581M328.459 187.581C327.522 189.456 325.725 189.925 324.944 189.925M328.459 187.581H326.116M336.502 204.5H352.002M330.502 206.5C332.668 206.333 337.702 204.8 340.502 200M360.001 189.925L362.001 197M358.001 189.925L359.501 195M347.501 207.5L345.001 211M350.001 206.5V210M354.501 208.5L357.001 210M300.336 163.559C300.531 161.997 302.562 157.818 309.124 153.599C315.687 149.381 321.233 145.201 323.186 143.639C324.163 146.373 325.647 153.716 323.772 161.216C321.428 170.59 314.984 175.863 309.71 177.621C309.078 170.118 303.197 165.12 300.336 163.559Z" stroke="black" stroke-linecap="round" stroke-linejoin="round"/>
<path d="M332.667 218.347C328.729 214.145 334.307 207.424 337.589 204.589H348.216C346.91 208.675 343.987 216.796 342.734 216.596C341.481 216.396 340.87 211.843 340.721 209.592C339.677 214.261 336.604 222.549 332.667 218.347Z" fill="url(#paint26_linear_232_15107)" stroke="black" stroke-linecap="round" stroke-linejoin="round"/>
<path d="M268.5 227H258.5C261.833 224.833 268.3 219 267.5 217C266.7 215 261.833 214.833 259.5 215C258.166 213.5 256.5 210.4 260.5 210C265.5 209.5 272 212 273.5 217C274.7 221 270.666 225.333 268.5 227Z" fill="url(#paint27_linear_232_15107)" stroke="black" stroke-linecap="round" stroke-linejoin="round"/>
<path d="M384.981 206H392.612C390.068 204.476 385.134 200.374 385.744 198.967C386.355 197.561 390.068 197.443 391.849 197.561C388.034 197.209 382.311 195.451 381.166 198.967C380.25 201.78 383.328 204.828 384.981 206Z" fill="url(#paint28_linear_232_15107)"/>
<path d="M391.849 197.561C388.034 197.209 382.311 195.451 381.166 198.967C380.25 201.78 383.328 204.828 384.981 206H392.612C390.068 204.476 385.134 200.374 385.744 198.967C386.355 197.561 390.068 197.443 391.849 197.561ZM391.849 197.561C394.901 197.842 392.866 196.506 391.849 197.561Z" stroke="black" stroke-linecap="round" stroke-linejoin="round"/>
<path d="M515.5 216.156C519.5 212.989 531.5 206.956 547.5 208.156C563.5 209.356 578.167 222.989 583.5 229.656C585.861 224.934 593.917 216.66 608.5 217.044M614.5 217.656C612.389 217.289 610.39 217.094 608.5 217.044M608.5 217.044C612.667 214.414 623.5 209.5 634 209.5C647.5 209.5 656 217.656 656 217.656M421 220.656C422.167 219.248 427.9 216.554 441.5 217.044C455.1 217.533 464.833 222.989 468 225.656M660 245.156C664.5 241.489 678.6 234.356 699 235.156C711.273 235.637 720.903 238.073 727.5 240.59M736.5 245.156C734.906 243.961 731.868 242.257 727.5 240.59M727.5 240.59C733.167 237.735 749.3 233.738 768.5 240.59" stroke="black" stroke-linecap="round" stroke-linejoin="round"/>
<path d="M547.203 208.757C542.203 206.757 527.653 200.307 531.703 196.257C535.203 192.757 541.703 202.757 547.203 208.757C547.036 202.923 548.203 190.857 554.203 189.257C560.203 187.657 562.036 193.923 562.203 197.257C560.703 194.757 557.003 190.557 554.203 193.757C551.403 196.957 548.37 205.09 547.203 208.757Z" fill="url(#paint29_linear_232_15107)"/>
<path d="M547.203 208.757C542.203 206.757 527.653 200.307 531.703 196.257C535.203 192.757 541.703 202.757 547.203 208.757ZM547.203 208.757C547.036 202.923 548.203 190.857 554.203 189.257C560.203 187.657 562.036 193.923 562.203 197.257C560.703 194.757 557.003 190.557 554.203 193.757C551.403 196.957 548.37 205.09 547.203 208.757Z" stroke="black" stroke-linecap="round" stroke-linejoin="round"/>
<path d="M465.5 230.5C460.5 227 472 224 479 222C488.5 221 491.5 226 490 228.5C488.5 231 470.5 234 465.5 230.5Z" fill="#7A7A7A" stroke="black" stroke-linecap="round" stroke-linejoin="round"/>
<path d="M722.25 234.065C725.317 232.011 718.264 230.25 713.971 229.077C708.145 228.49 706.305 231.424 707.225 232.891C708.145 234.358 719.184 236.119 722.25 234.065Z" fill="#7A7A7A" stroke="black" stroke-linecap="round" stroke-linejoin="round"/>
<path d="M483.999 228.5C479.832 228.333 472.899 229.1 478.499 233.5C485.499 239 492.499 231.5 483.999 228.5Z" fill="#D9D9D9" stroke="black" stroke-linecap="round" stroke-linejoin="round"/>
<path d="M497.043 204.021C485.105 203.846 478.473 204.821 476.649 205.33C473.499 206.275 469.486 208.296 478.639 208.82C487.791 209.343 500.691 208.602 505.996 208.165L495.053 206.42H510.97C511.302 205.693 508.981 204.195 497.043 204.021Z" fill="#D9D9D9"/>
<path d="M497.043 204.021C485.105 203.846 478.473 204.821 476.649 205.33C473.499 206.275 469.486 208.296 478.639 208.82C487.791 209.343 500.691 208.602 505.996 208.165L495.053 206.42H510.97C511.302 205.693 508.981 204.195 497.043 204.021Z" fill="url(#paint30_linear_232_15107)"/>
<path d="M497.043 204.021C485.105 203.846 478.473 204.821 476.649 205.33C473.499 206.275 469.486 208.296 478.639 208.82C487.791 209.343 500.691 208.602 505.996 208.165L495.053 206.42H510.97C511.302 205.693 508.981 204.195 497.043 204.021Z" stroke="black" stroke-linecap="round" stroke-linejoin="round"/>
<path d="M660 230.5C653.2 226.9 643.5 227 639.5 227.5C641.833 225.5 648.7 222.3 657.5 225.5C666.3 228.7 668.833 235.833 669 239C671 220.6 657.167 206 650 201C654.667 202.5 665 207.7 669 216.5C673 225.3 670.667 235.167 669 239C668.833 237.667 666.8 234.1 660 230.5Z" fill="url(#paint31_linear_232_15107)"/>
<path d="M669 239C668.833 237.667 666.8 234.1 660 230.5C653.2 226.9 643.5 227 639.5 227.5C641.833 225.5 648.7 222.3 657.5 225.5C666.3 228.7 668.833 235.833 669 239ZM669 239C671 220.6 657.167 206 650 201C654.667 202.5 665 207.7 669 216.5C673 225.3 670.667 235.167 669 239Z" stroke="black" stroke-linecap="round" stroke-linejoin="round"/>
<path d="M749.914 221.648C749.825 221.938 749.732 222.234 749.634 222.536C749.7 222.214 749.795 221.919 749.914 221.648C751.049 217.935 751.484 215.284 754.262 215.026C756.658 214.804 755.261 216.046 754.262 216.695C755.533 216.603 757.802 216.64 756.713 217.53C755.464 218.55 751.229 218.635 749.914 221.648Z" fill="url(#paint32_linear_232_15107)"/>
<path d="M748 237C748.091 233.57 748.545 225.874 749.634 222.536M749.634 222.536C750.995 218.364 751.267 215.304 754.262 215.026C756.658 214.804 755.261 216.046 754.262 216.695C755.533 216.603 757.802 216.64 756.713 217.53C755.351 218.642 750.442 218.642 749.634 222.536Z" stroke="black" stroke-linecap="round" stroke-linejoin="round"/>
<path d="M653 50.0596L472 38.0596C478.5 28.0595 535.5 32.0595 560.5 25.5596C585.5 19.0596 641 37.5596 653 50.0596Z" fill="#D9D9D9" fill-opacity="0.67" stroke="black" stroke-linecap="round" stroke-linejoin="round"/>
<path d="M736.5 67.0185L624 61.0185C638.833 57.8518 673 57.6185 691 58.0185C709 58.4185 728.833 64.1851 736.5 67.0185Z" fill="#D9D9D9" fill-opacity="0.67" stroke="black" stroke-linecap="round" stroke-linejoin="round"/>
<path d="M227 221.5C227 224.5 224.167 225.167 222.5 225.5C221.333 225.5 220.5 219.5 217.5 221C218.3 217.8 222 216.333 225.5 216C226.5 216.667 227 218.5 227 221.5Z" fill="#D9D9D9" stroke="black" stroke-linecap="round" stroke-linejoin="round"/>
<path d="M207.002 225.5C203.002 219.5 215.002 216 221.502 215C229.002 215 225.001 218.5 221.502 219C218.702 219.4 217.335 222.833 217.001 224.5L218.501 229C216.335 230.333 211.002 231.5 207.002 225.5Z" fill="url(#paint33_linear_232_15107)" stroke="black" stroke-linecap="round" stroke-linejoin="round"/>
<ellipse cx="370.5" cy="215" rx="2.5" ry="1" fill="#8C92A6" stroke="black" stroke-linecap="round" stroke-linejoin="round"/>
<path d="M389.071 223.243C389.213 223.007 389.52 222.93 389.757 223.071L391.594 224.173C392.325 224.612 393.209 224.723 394.018 224.455C394.969 224.141 395.67 223.881 396.17 223.672C396.537 223.518 396.786 223.396 396.944 223.306C397.024 223.26 397.071 223.228 397.095 223.209C397.095 223.208 397.096 223.208 397.097 223.207C397.238 223.012 397.502 222.942 397.724 223.053C397.971 223.176 398.071 223.477 397.947 223.724C397.883 223.852 397.78 223.941 397.716 223.992C397.639 224.053 397.546 224.113 397.442 224.173C397.234 224.293 396.943 224.433 396.557 224.595C396.126 224.775 395.565 224.986 394.85 225.231C394.476 225.359 394.418 225.868 394.757 226.071C394.994 226.213 395.071 226.52 394.929 226.757C394.787 226.994 394.48 227.071 394.243 226.929L393.17 226.285C392.813 226.07 392.382 226.018 391.983 226.136C391.508 226.276 390.997 226.424 390.448 226.578C389.756 226.773 389.632 227.706 390.252 228.068C390.49 228.208 390.571 228.513 390.432 228.752C390.292 228.99 389.987 229.071 389.748 228.932L388.28 228.075C387.595 227.675 386.781 227.564 386.013 227.76C385.722 227.834 385.425 227.909 385.121 227.985C384.704 228.09 384.284 228.194 383.863 228.297C382.793 228.56 382.305 229.805 382.916 230.723C383.069 230.952 383.007 231.263 382.777 231.416C382.548 231.569 382.237 231.507 382.084 231.277L381.174 229.913C380.841 229.413 380.233 229.175 379.649 229.312C379.557 229.334 379.465 229.356 379.374 229.377C378.343 229.62 378.021 230.931 378.825 231.62C379.035 231.8 379.059 232.116 378.88 232.325C378.7 232.535 378.384 232.559 378.175 232.38L376.566 231C376.005 230.519 375.215 230.341 374.494 230.504C372.771 230.893 372.113 232.971 373.267 234.308L374.878 236.173C375.058 236.382 375.036 236.697 374.827 236.878C374.618 237.058 374.303 237.036 374.122 236.827L370.767 232.943C370.048 232.11 368.931 231.739 367.856 231.971C364.761 232.639 362.197 233.17 360.598 233.49C360.327 233.544 360.064 233.368 360.01 233.098C359.956 232.827 360.132 232.564 360.402 232.51C361.297 232.331 362.496 232.085 363.922 231.786C366.149 231.319 367.046 228.634 365.559 226.912L364.622 225.827C364.442 225.618 364.464 225.303 364.673 225.122C364.882 224.942 365.197 224.964 365.378 225.173L369.234 229.638C369.687 230.162 370.351 230.405 371.028 230.255C372.542 229.919 373.056 227.991 371.878 226.982L371.175 226.38C370.965 226.2 370.941 225.884 371.12 225.675C371.3 225.465 371.616 225.441 371.825 225.62L375.114 228.439C375.634 228.885 376.326 229.06 376.994 228.906C378.462 228.566 379.141 226.863 378.305 225.609L378.084 225.277C377.931 225.048 377.993 224.737 378.223 224.584C378.452 224.431 378.763 224.493 378.916 224.723L379.905 226.206C380.602 227.252 381.878 227.753 383.1 227.455C383.696 227.309 384.29 227.162 384.879 227.015C385.283 226.914 385.358 226.371 384.998 226.161L383.748 225.432C383.51 225.292 383.429 224.986 383.568 224.748C383.708 224.51 384.013 224.429 384.252 224.568L386.797 226.052C387.156 226.261 387.585 226.32 387.987 226.213C388.327 226.123 388.656 226.035 388.973 225.948C389.92 225.691 390.085 224.434 389.243 223.929C389.007 223.787 388.929 223.48 389.071 223.243Z" fill="#D9D9D9"/>
<path d="M389.071 223.243L388.643 222.986L388.642 222.986L389.071 223.243ZM389.757 223.071L390.014 222.643L390.014 222.642L389.757 223.071ZM396.17 223.672L396.363 224.133L396.363 224.133L396.17 223.672ZM396.944 223.306L397.193 223.739L397.193 223.739L396.944 223.306ZM397.095 223.209L397.405 223.601C397.42 223.589 397.435 223.576 397.448 223.563L397.095 223.209ZM397.724 223.053L397.947 222.606L397.947 222.605L397.724 223.053ZM397.947 223.724L398.394 223.947L398.395 223.947L397.947 223.724ZM397.716 223.992L398.026 224.384L398.026 224.384L397.716 223.992ZM397.442 224.173L397.691 224.606L397.691 224.606L397.442 224.173ZM396.557 224.595L396.75 225.056L396.75 225.056L396.557 224.595ZM394.757 226.071L394.5 226.5L394.5 226.5L394.757 226.071ZM394.929 226.757L395.357 227.014L395.358 227.014L394.929 226.757ZM394.243 226.929L393.986 227.357L393.986 227.358L394.243 226.929ZM390.252 228.068L390.504 227.637L390.504 227.637L390.252 228.068ZM390.432 228.752L390.863 229.004L390.864 229.004L390.432 228.752ZM389.748 228.932L389.496 229.363L389.496 229.364L389.748 228.932ZM385.121 227.985L385.242 228.47L385.242 228.47L385.121 227.985ZM382.916 230.723L383.332 230.445L383.332 230.445L382.916 230.723ZM382.777 231.416L383.055 231.832L383.055 231.832L382.777 231.416ZM382.084 231.277L382.5 231L382.5 231L382.084 231.277ZM378.825 231.62L379.151 231.24L379.151 231.24L378.825 231.62ZM378.88 232.325L379.26 232.651L379.26 232.65L378.88 232.325ZM378.175 232.38L377.849 232.759L377.85 232.76L378.175 232.38ZM374.878 236.173L374.5 236.5L374.5 236.5L374.878 236.173ZM374.827 236.878L375.154 237.256L375.154 237.256L374.827 236.878ZM374.122 236.827L373.744 237.154L373.744 237.154L374.122 236.827ZM360.598 233.49L360.695 233.981L360.696 233.981L360.598 233.49ZM360.01 233.098L359.519 233.195L359.519 233.196L360.01 233.098ZM360.402 232.51L360.304 232.019L360.304 232.019L360.402 232.51ZM364.622 225.827L364.244 226.154L364.244 226.154L364.622 225.827ZM364.673 225.122L364.346 224.744L364.346 224.744L364.673 225.122ZM365.378 225.173L365.756 224.846L365.756 224.846L365.378 225.173ZM371.175 226.38L370.849 226.759L370.849 226.76L371.175 226.38ZM371.12 225.675L370.741 225.349L370.74 225.35L371.12 225.675ZM371.825 225.62L372.151 225.24L372.15 225.24L371.825 225.62ZM378.084 225.277L377.668 225.555L377.668 225.555L378.084 225.277ZM378.223 224.584L377.945 224.168L377.945 224.168L378.223 224.584ZM378.916 224.723L379.332 224.445L379.332 224.445L378.916 224.723ZM384.879 227.015L385 227.5L385 227.5L384.879 227.015ZM383.748 225.432L383.496 225.863L383.496 225.864L383.748 225.432ZM383.568 224.748L383.137 224.496L383.136 224.496L383.568 224.748ZM384.252 224.568L384 225L384 225L384.252 224.568ZM389.243 223.929L388.986 224.357L388.986 224.357L389.243 223.929ZM387.987 226.213L388.115 226.696L387.987 226.213ZM365.559 226.912L365.18 227.238L365.18 227.238L365.559 226.912ZM370.767 232.943L370.389 233.27L370.767 232.943ZM374.494 230.504L374.384 230.016L374.494 230.504ZM373.267 234.308L372.889 234.635L373.267 234.308ZM379.905 226.206L379.489 226.483L379.905 226.206ZM381.174 229.913L381.59 229.635L381.174 229.913ZM388.973 225.948L388.842 225.466L388.973 225.948ZM393.17 226.285L392.913 226.713L393.17 226.285ZM391.983 226.136L391.841 225.656L391.983 226.136ZM378.305 225.609L378.721 225.332L378.305 225.609ZM397.097 223.207L397.501 223.5L397.097 223.207ZM390.448 226.578L390.312 226.097L390.448 226.578ZM391.594 224.173L391.336 224.602L391.594 224.173ZM389.071 223.243L389.5 223.5L389.5 223.5L389.757 223.071L390.014 222.642C389.54 222.359 388.926 222.513 388.643 222.986L389.071 223.243ZM389.757 223.071L389.5 223.5L391.336 224.602L391.594 224.173L391.851 223.745L390.014 222.643L389.757 223.071ZM394.018 224.455L394.175 224.93C395.133 224.614 395.847 224.349 396.363 224.133L396.17 223.672L395.977 223.211C395.492 223.414 394.805 223.669 393.862 223.981L394.018 224.455ZM396.17 223.672L396.363 224.133C396.739 223.975 397.01 223.845 397.193 223.739L396.944 223.306L396.695 222.872C396.563 222.948 396.334 223.061 395.977 223.211L396.17 223.672ZM396.944 223.306L397.193 223.739C397.283 223.688 397.354 223.642 397.405 223.601L397.095 223.209L396.785 222.817C396.788 222.814 396.784 222.818 396.767 222.829C396.752 222.839 396.728 222.853 396.695 222.872L396.944 223.306ZM397.097 223.207L397.501 223.5C397.501 223.5 397.501 223.5 397.501 223.5C397.501 223.5 397.501 223.5 397.501 223.5C397.501 223.5 397.502 223.5 397.502 223.5C397.502 223.5 397.502 223.5 397.501 223.5C397.5 223.5 397.499 223.5 397.5 223.5L397.724 223.053L397.947 222.605C397.501 222.383 396.973 222.526 396.692 222.913L397.097 223.207ZM397.724 223.053L397.5 223.5L397.5 223.5L397.947 223.724L398.395 223.947C398.641 223.453 398.441 222.853 397.947 222.606L397.724 223.053ZM397.947 223.724L397.5 223.5C397.495 223.511 397.484 223.526 397.466 223.546C397.448 223.565 397.428 223.582 397.405 223.6L397.716 223.992L398.026 224.384C398.105 224.322 398.28 224.177 398.394 223.947L397.947 223.724ZM397.716 223.992L397.405 223.6C397.355 223.64 397.284 223.687 397.193 223.739L397.442 224.173L397.691 224.606C397.808 224.54 397.924 224.465 398.026 224.384L397.716 223.992ZM397.442 224.173L397.193 223.739C397.01 223.845 396.739 223.976 396.364 224.134L396.557 224.595L396.75 225.056C397.146 224.89 397.458 224.74 397.691 224.606L397.442 224.173ZM396.557 224.595L396.364 224.134C395.946 224.308 395.397 224.515 394.688 224.758L394.85 225.231L395.012 225.704C395.734 225.457 396.306 225.242 396.75 225.056L396.557 224.595ZM394.757 226.071L394.5 226.5L394.5 226.5L394.929 226.757L395.358 227.014C395.641 226.54 395.487 225.926 395.014 225.643L394.757 226.071ZM394.929 226.757L394.5 226.5L394.5 226.5L394.243 226.929L393.986 227.358C394.46 227.642 395.074 227.487 395.357 227.014L394.929 226.757ZM394.243 226.929L394.5 226.5L393.427 225.856L393.17 226.285L392.913 226.713L393.986 227.357L394.243 226.929ZM391.983 226.136L391.841 225.656C391.368 225.796 390.859 225.943 390.312 226.097L390.448 226.578L390.583 227.059C391.134 226.904 391.647 226.756 392.125 226.615L391.983 226.136ZM390.252 228.068L390 228.5L390 228.5L390.432 228.752L390.864 229.004C391.142 228.527 390.981 227.915 390.504 227.637L390.252 228.068ZM390.432 228.752L390 228.5L390 228.5L389.748 228.932L389.496 229.364C389.973 229.642 390.585 229.481 390.863 229.004L390.432 228.752ZM389.748 228.932L390 228.5L388.532 227.643L388.28 228.075L388.028 228.507L389.496 229.363L389.748 228.932ZM386.013 227.76L385.889 227.276C385.599 227.35 385.303 227.424 385 227.5L385.121 227.985L385.242 228.47C385.547 228.394 385.845 228.319 386.136 228.245L386.013 227.76ZM385.121 227.985L385 227.5C384.583 227.604 384.164 227.708 383.744 227.811L383.863 228.297L383.982 228.783C384.404 228.679 384.824 228.575 385.242 228.47L385.121 227.985ZM382.916 230.723L382.5 231L382.5 231L382.777 231.416L383.055 231.832C383.514 231.526 383.638 230.905 383.332 230.445L382.916 230.723ZM382.777 231.416L382.5 231L382.5 231L382.084 231.277L381.668 231.555C381.974 232.014 382.595 232.138 383.055 231.832L382.777 231.416ZM382.084 231.277L382.5 231L381.59 229.635L381.174 229.913L380.758 230.19L381.668 231.555L382.084 231.277ZM379.649 229.312L379.534 228.826C379.442 228.847 379.351 228.869 379.259 228.891L379.374 229.377L379.488 229.864C379.58 229.842 379.672 229.821 379.764 229.799L379.649 229.312ZM378.825 231.62L378.5 232L378.5 232L378.88 232.325L379.26 232.65C379.619 232.231 379.569 231.6 379.151 231.24L378.825 231.62ZM378.88 232.325L378.5 232L378.5 232L378.175 232.38L377.85 232.76C378.269 233.119 378.9 233.069 379.26 232.651L378.88 232.325ZM378.175 232.38L378.5 232L376.891 230.621L376.566 231L376.24 231.38L377.849 232.759L378.175 232.38ZM373.267 234.308L372.889 234.635L374.5 236.5L374.878 236.173L375.256 235.846L373.646 233.981L373.267 234.308ZM374.878 236.173L374.5 236.5L374.5 236.5L374.827 236.878L375.154 237.256C375.572 236.894 375.617 236.263 375.256 235.846L374.878 236.173ZM374.827 236.878L374.5 236.5L374.5 236.5L374.122 236.827L373.744 237.154C374.106 237.572 374.737 237.617 375.154 237.256L374.827 236.878ZM374.122 236.827L374.5 236.5L371.146 232.616L370.767 232.943L370.389 233.27L373.744 237.154L374.122 236.827ZM367.856 231.971L367.75 231.482C364.658 232.15 362.096 232.681 360.5 233L360.598 233.49L360.696 233.981C362.298 233.66 364.865 233.128 367.961 232.459L367.856 231.971ZM360.598 233.49L360.5 233L360.5 233L360.01 233.098L359.519 233.196C359.628 233.737 360.154 234.088 360.695 233.981L360.598 233.49ZM360.01 233.098L360.5 233L360.5 233L360.402 232.51L360.304 232.019C359.763 232.128 359.412 232.654 359.519 233.195L360.01 233.098ZM360.402 232.51L360.5 233C361.397 232.821 362.598 232.575 364.025 232.275L363.922 231.786L363.819 231.297C362.394 231.595 361.197 231.841 360.304 232.019L360.402 232.51ZM365.559 226.912L365.937 226.585L365 225.5L364.622 225.827L364.244 226.154L365.18 227.238L365.559 226.912ZM364.622 225.827L365.001 225.5L365 225.5L364.673 225.122L364.346 224.744C363.928 225.106 363.884 225.737 364.244 226.154L364.622 225.827ZM364.673 225.122L365 225.5L365 225.5L365.378 225.173L365.756 224.846C365.394 224.428 364.763 224.383 364.346 224.744L364.673 225.122ZM365.378 225.173L365 225.5L368.856 229.964L369.234 229.638L369.612 229.311L365.756 224.846L365.378 225.173ZM371.878 226.982L372.203 226.603L371.5 226L371.175 226.38L370.849 226.76L371.553 227.362L371.878 226.982ZM371.175 226.38L371.5 226L371.5 226L371.12 225.675L370.74 225.35C370.381 225.769 370.431 226.4 370.849 226.759L371.175 226.38ZM371.12 225.675L371.5 226L371.5 226L371.825 225.62L372.15 225.24C371.731 224.881 371.1 224.931 370.741 225.349L371.12 225.675ZM371.825 225.62L371.5 226L374.788 228.818L375.114 228.439L375.439 228.059L372.151 225.24L371.825 225.62ZM378.305 225.609L378.721 225.332L378.5 225L378.084 225.277L377.668 225.555L377.889 225.887L378.305 225.609ZM378.084 225.277L378.5 225L378.5 225L378.223 224.584L377.945 224.168C377.486 224.474 377.362 225.095 377.668 225.555L378.084 225.277ZM378.223 224.584L378.5 225L378.5 225L378.916 224.723L379.332 224.445C379.026 223.986 378.405 223.862 377.945 224.168L378.223 224.584ZM378.916 224.723L378.5 225L379.489 226.483L379.905 226.206L380.321 225.928L379.332 224.445L378.916 224.723ZM383.1 227.455L383.218 227.94C383.815 227.794 384.41 227.647 385 227.5L384.879 227.015L384.758 226.53C384.169 226.677 383.576 226.823 382.981 226.969L383.1 227.455ZM384.998 226.161L385.25 225.729L384 225L383.748 225.432L383.496 225.864L384.746 226.593L384.998 226.161ZM383.748 225.432L384 225L384 225L383.568 224.748L383.136 224.496C382.858 224.973 383.019 225.585 383.496 225.863L383.748 225.432ZM383.568 224.748L384 225L384 225L384.252 224.568L384.504 224.136C384.027 223.859 383.415 224.019 383.137 224.496L383.568 224.748ZM384.252 224.568L384 225L386.545 226.484L386.797 226.052L387.049 225.62L384.504 224.136L384.252 224.568ZM387.987 226.213L388.115 226.696C388.456 226.606 388.786 226.517 389.104 226.431L388.973 225.948L388.842 225.466C388.525 225.552 388.198 225.64 387.859 225.73L387.987 226.213ZM389.243 223.929L389.501 223.5L389.5 223.5L389.071 223.243L388.642 222.986C388.358 223.46 388.513 224.074 388.986 224.357L389.243 223.929ZM386.797 226.052L386.545 226.484C387.019 226.76 387.584 226.838 388.115 226.696L387.987 226.213L387.859 225.73C387.586 225.802 387.294 225.763 387.049 225.62L386.797 226.052ZM384.879 227.015L385 227.5C385.845 227.289 385.992 226.162 385.25 225.729L384.998 226.161L384.746 226.593C384.747 226.593 384.745 226.592 384.741 226.588C384.738 226.584 384.735 226.58 384.733 226.575C384.729 226.567 384.729 226.562 384.73 226.56C384.73 226.558 384.731 226.552 384.738 226.544C384.741 226.54 384.746 226.536 384.75 226.533C384.755 226.53 384.758 226.529 384.758 226.53L384.879 227.015ZM369.234 229.638L368.856 229.964C369.42 230.618 370.268 230.935 371.136 230.743L371.028 230.255L370.919 229.767C370.435 229.874 369.953 229.706 369.612 229.311L369.234 229.638ZM363.922 231.786L364.025 232.275C366.628 231.729 367.671 228.593 365.937 226.585L365.559 226.912L365.18 227.238C366.42 228.675 365.67 230.908 363.819 231.297L363.922 231.786ZM370.767 232.943L371.146 232.616C370.307 231.644 369.004 231.211 367.75 231.482L367.856 231.971L367.961 232.459C368.859 232.266 369.79 232.576 370.389 233.27L370.767 232.943ZM374.494 230.504L374.384 230.016C372.283 230.491 371.494 233.02 372.889 234.635L373.267 234.308L373.646 233.981C372.731 232.922 373.26 231.296 374.604 230.991L374.494 230.504ZM379.905 226.206L379.489 226.483C380.302 227.703 381.791 228.289 383.218 227.94L383.1 227.455L382.981 226.969C381.965 227.217 380.902 226.801 380.321 225.928L379.905 226.206ZM376.566 231L376.891 230.621C376.204 230.031 375.25 229.82 374.384 230.016L374.494 230.504L374.604 230.991C375.179 230.861 375.806 231.007 376.24 231.38L376.566 231ZM388.28 228.075L388.532 227.643C387.733 227.177 386.783 227.047 385.889 227.276L386.013 227.76L386.136 228.245C386.778 228.081 387.458 228.174 388.028 228.507L388.28 228.075ZM375.114 228.439L374.788 228.818C375.427 229.366 376.281 229.584 377.107 229.393L376.994 228.906L376.882 228.419C376.371 228.537 375.841 228.404 375.439 228.059L375.114 228.439ZM381.174 229.913L381.59 229.635C381.141 228.962 380.32 228.64 379.534 228.826L379.649 229.312L379.764 229.799C380.145 229.709 380.541 229.865 380.758 230.19L381.174 229.913ZM388.973 225.948L389.104 226.431C390.486 226.056 390.712 224.227 389.5 223.5L389.243 223.929L388.986 224.357C389.458 224.641 389.355 225.327 388.842 225.466L388.973 225.948ZM393.17 226.285L393.427 225.856C392.949 225.569 392.373 225.499 391.841 225.656L391.983 226.136L392.125 226.615C392.392 226.536 392.677 226.572 392.913 226.713L393.17 226.285ZM376.994 228.906L377.107 229.393C378.913 228.975 379.751 226.877 378.721 225.332L378.305 225.609L377.889 225.887C378.53 226.848 378.01 228.158 376.882 228.419L376.994 228.906ZM379.374 229.377L379.259 228.891C377.832 229.226 377.384 231.043 378.5 232L378.825 231.62L379.151 231.24C378.659 230.819 378.854 230.013 379.488 229.864L379.374 229.377ZM397.095 223.209L397.448 223.563C397.468 223.543 397.486 223.522 397.501 223.5L397.097 223.207L396.692 222.913C396.706 222.894 396.723 222.874 396.741 222.855L397.095 223.209ZM390.448 226.578L390.312 226.097C389.203 226.409 388.992 227.912 390 228.5L390.252 228.068L390.504 227.637C390.271 227.5 390.309 227.136 390.583 227.059L390.448 226.578ZM371.028 230.255L371.136 230.743C373.036 230.322 373.707 227.891 372.203 226.603L371.878 226.982L371.553 227.362C372.405 228.092 372.048 229.517 370.919 229.767L371.028 230.255ZM383.863 228.297L383.744 227.811C382.339 228.157 381.695 229.793 382.5 231L382.916 230.723L383.332 230.445C382.914 229.818 383.247 228.963 383.982 228.783L383.863 228.297ZM394.85 225.231L394.688 224.758C393.921 225.02 393.788 226.073 394.5 226.5L394.757 226.071L395.014 225.643C395.014 225.643 395.015 225.643 395.016 225.644C395.017 225.645 395.019 225.647 395.021 225.649C395.024 225.652 395.027 225.657 395.029 225.662C395.033 225.67 395.033 225.676 395.033 225.678C395.033 225.681 395.032 225.685 395.027 225.691C395.025 225.695 395.021 225.698 395.018 225.7C395.014 225.703 395.012 225.704 395.012 225.704L394.85 225.231ZM391.594 224.173L391.336 224.602C392.187 225.112 393.223 225.245 394.175 224.93L394.018 224.455L393.862 223.981C393.196 224.201 392.462 224.111 391.851 223.745L391.594 224.173Z" fill="black"/>
<ellipse cx="225.622" cy="235.018" rx="2.38025" ry="1.84692" fill="#FFD547" stroke="black"/>
<ellipse cx="241.49" cy="231.324" rx="2.38025" ry="1.84692" fill="#FFD547" stroke="black"/>
<ellipse cx="242.919" cy="236.865" rx="2.38025" ry="1.84692" fill="#FFD547" stroke="black"/>
<ellipse cx="228.134" cy="245" rx="2.38025" ry="1.84692" fill="#FFD547" stroke="black"/>
<ellipse cx="215.119" cy="236.847" rx="2.38025" ry="1.84692" fill="#FFD547" stroke="black"/>
<ellipse cx="344.736" cy="229.677" rx="2.38025" ry="1.84692" fill="#FFD547" stroke="black"/>
<ellipse cx="588.132" cy="158.307" rx="1.19019" ry="0.923509" fill="#FFD547" stroke="black"/>
<ellipse cx="580.124" cy="161.004" rx="1.19019" ry="0.923509" fill="#FFD547" stroke="black"/>
<ellipse cx="122.119" cy="229.677" rx="2.38025" ry="1.84692" fill="#FFD547" stroke="black"/>
<ellipse cx="101.001" cy="198.873" rx="2.38025" ry="1.84692" fill="#FFD547" stroke="black"/>
<ellipse cx="129.501" cy="231" rx="2.38025" ry="1.84692" fill="#FFD547" stroke="black"/>
<ellipse cx="142.38" cy="237" rx="2.38025" ry="1.84692" fill="#FFD547" stroke="black"/>
<path d="M541.063 153.25C546.599 150.921 551.674 151.891 553.519 152.668C569.573 152.668 559.055 162.854 552.689 163.727C546.323 164.6 534.144 156.16 541.063 153.25Z" fill="#676767" stroke="black" stroke-linecap="round" stroke-linejoin="round"/>
<path d="M547.96 158.799C544.574 156.36 543.108 155.998 542.799 156.121C544.731 154.488 551.28 156.684 554.312 157.986C554.982 157.145 558.044 155.247 564.938 154.39C573.557 153.319 572.553 154.581 580.093 155.663C586.124 156.529 597.713 154.3 602.753 153.078L624.211 170.142L550.702 168.904C551.199 166.552 551.346 161.238 547.96 158.799Z" fill="url(#paint34_linear_232_15107)" stroke="black" stroke-linecap="round" stroke-linejoin="round"/>
<path d="M523.895 168.226L552.968 167.332V161.517C552.968 158.296 548.197 156.597 545.812 156.149L523 161.517L523.895 168.226Z" fill="#D5AA92" stroke="black" stroke-linecap="round" stroke-linejoin="round"/>
<path d="M618.349 173.355L626.325 170.817L646.005 167.779V176.277C641.465 178.218 638.922 178.351 634.378 177.079C629.581 178.795 626.367 180.388 623.746 179.447C623.676 179.422 623.611 179.386 623.551 179.342C623.014 178.947 623.132 178.114 623.758 177.883L630.798 175.29L621.668 177.546C621.175 177.668 620.66 177.455 620.396 177.021C620.001 176.372 620.327 175.523 621.055 175.305L628.561 173.053L618.845 175.2C618.587 175.257 618.316 175.205 618.098 175.055C617.441 174.604 617.59 173.596 618.349 173.355Z" fill="#CFA58E" stroke="black" stroke-linecap="round" stroke-linejoin="round"/>
<path d="M594.566 161.07L598.592 145.415L629.007 138.258L661.212 142.731C661.212 146.309 669.621 151.856 669.263 154.36C668.905 156.865 670.754 160.921 667.921 165.542C658.826 167.332 636.969 170.82 622.298 170.463C607.627 170.105 597.697 164.052 594.566 161.07Z" fill="#7A7A7A" stroke="black" stroke-linecap="round" stroke-linejoin="round"/>
<rect x="647" y="141.79" width="10" height="27" fill="#8D5B5B" stroke="black" stroke-linecap="round" stroke-linejoin="round"/>
<path d="M754.313 149.71H732.656V164.612L744.983 161.519C748.953 160.523 752.927 163.131 753.593 167.17L754.313 171.537L760.683 167.739V157.393L758.985 151.872L754.313 149.71Z" fill="#A9A9A9" stroke="black" stroke-linecap="round" stroke-linejoin="round"/>
<path d="M741.438 162.043C742.07 161.726 743.526 160.334 744.286 157.296C745.045 154.258 743.653 151.283 742.862 150.175C744.602 151.283 746.903 151.903 749.507 155.872C752 159.669 751.564 162.359 750.931 162.043C750.931 162.043 753.358 160 754.254 158.245C755.447 155.911 755.362 153.815 755.204 151.599" stroke="black" stroke-linecap="round" stroke-linejoin="round"/>
<path d="M698.211 147.365C693.21 146.172 677.291 141.818 669.957 139.79L669.494 161.085C676.59 162.662 692.049 165.945 697.118 166.462C703.455 167.108 720.69 169.718 729.182 170.157C737.675 170.595 741.614 165.448 741.786 163.758C741.959 162.068 739.863 153.318 733.87 149.292C727.878 145.266 719.757 149.561 714.265 149.001C708.772 148.441 704.462 148.856 698.211 147.365Z" fill="url(#paint35_linear_232_15107)" stroke="black" stroke-linecap="round" stroke-linejoin="round"/>
<path d="M718.957 149.433L714.484 159.944M720.97 148.762L718.957 158.602" stroke="black" stroke-linecap="round" stroke-linejoin="round"/>
<path d="M713.033 167.456L687.93 164.925L691.201 179.571L707.855 178.602L714.461 182.468L720.127 178.602L719.666 172.844L713.033 167.456Z" fill="#A9A9A9" stroke="black" stroke-linecap="round" stroke-linejoin="round"/>
<path d="M696.816 165.84L699.19 175.809M699.19 175.809L697.291 179.607M699.19 175.809L702.987 166.315C707.165 170.113 706.31 176.442 705.361 179.132L699.19 175.809Z" stroke="black" stroke-linecap="round" stroke-linejoin="round"/>
<path d="M701.231 166.316C699.348 164.154 702.975 165.584 707.154 164.154C712.377 162.366 723.419 170.59 727.117 177.38C730.651 183.868 727.117 188.398 722.464 188.398C714.335 188.398 711.273 181.086 708.469 179.288C708.21 179.183 707.943 179.066 707.668 178.935C707.935 178.995 708.201 179.116 708.469 179.288C714.981 181.914 716.418 176.236 713.559 172.56C710.382 168.476 703.779 166.316 701.231 166.316Z" fill="url(#paint36_linear_232_15107)"/>
<path d="M701.231 166.316C699.348 164.154 702.975 165.584 707.154 164.154C712.377 162.366 723.419 170.59 727.117 177.38C730.651 183.868 727.117 188.398 722.464 188.398C713.559 188.398 710.735 179.623 707.668 178.935C714.86 182.368 716.532 176.382 713.559 172.56C710.382 168.476 703.779 166.316 701.231 166.316Z" stroke="black" stroke-linecap="round" stroke-linejoin="round"/>
<path d="M707.387 164.604C709.795 165.523 715.126 167.932 717.18 170.214M725.546 179.626C726.339 182.415 726.782 188.088 722.219 188.468" stroke="black" stroke-linecap="round" stroke-linejoin="round"/>
<path d="M767.903 172.255C770.451 167.584 764.082 149.749 762.383 147.201C761.813 146.346 760.337 146.017 758.561 146.021C755.041 146.029 750.348 147.346 749.219 148.475C753.041 147.626 758.561 155.269 758.561 162.488C758.561 168.264 754.881 169.424 753.041 169.283C751.767 170.698 749.983 174.124 753.041 176.502C756.862 179.474 765.356 176.926 767.903 172.255Z" fill="url(#paint37_linear_232_15107)"/>
<path d="M753.041 169.283C751.767 170.698 749.983 174.124 753.041 176.502C756.862 179.474 765.356 176.926 767.903 172.255C770.451 167.584 764.082 149.749 762.383 147.201C761.813 146.346 760.337 146.017 758.561 146.021M753.041 169.283C754.881 169.424 758.561 168.264 758.561 162.488C758.561 155.269 753.041 147.626 749.219 148.475C750.348 147.346 755.041 146.029 758.561 146.021M753.041 169.283C753.933 169.982 756.114 171.365 757.693 171.306M758.561 146.021C759.564 147.112 761.964 150.859 763.544 157.119" stroke="black" stroke-linecap="round" stroke-linejoin="round"/>
<path d="M661.649 155.595L659.525 142.431C665.754 141.723 679.824 140.987 686.279 143.705C694.347 147.102 694.862 157.273 689.342 164.068C690.003 164.149 690.625 164.23 691.226 164.314C693.778 164.671 695.545 167.004 695.327 169.572L694.747 176.39C694.527 178.978 692.367 180.969 689.77 180.942C676.947 180.81 658.897 180.157 655.279 178.951C650.183 177.252 647.21 172.581 650.183 165.786C652.561 160.351 658.818 156.727 661.649 155.595Z" fill="url(#paint38_linear_232_15107)"/>
<path d="M661.649 155.595L659.525 142.431C665.754 141.723 679.824 140.987 686.279 143.705C694.347 147.102 694.862 157.273 689.342 164.068M661.649 155.595C658.818 156.727 652.561 160.351 650.183 165.786C647.21 172.581 650.183 177.252 655.279 178.951C658.897 180.157 676.947 180.81 689.77 180.942C692.367 180.969 694.527 178.978 694.747 176.39L695.327 169.572C695.545 167.004 693.778 164.671 691.226 164.314C688.044 163.869 684.242 163.49 677.452 162.919M661.649 155.595L669.292 148.8" stroke="black" stroke-linecap="round" stroke-linejoin="round"/>
<path d="M666.738 167.213C668.304 165.498 672.576 162.203 677.138 162.74" stroke="black" stroke-linecap="round" stroke-linejoin="round"/>
<path d="M678.211 133.692C666.582 135.034 658.503 136.79 655.847 141.836C655.847 145.056 654.777 150.074 653.397 155.162C648.728 160.461 648.107 166.352 648.69 170.015C648.69 168.077 651.285 163.932 661.662 162.859C674.633 161.517 694.314 161.964 702.812 158.386C709.611 155.523 714.292 150.633 715.783 148.545C707.285 145.564 689.841 132.35 678.211 133.692Z" fill="url(#paint39_linear_232_15107)"/>
<path d="M653.397 155.162C648.728 160.461 648.107 166.352 648.69 170.015C648.69 168.077 651.285 163.932 661.662 162.859C674.633 161.517 694.314 161.964 702.812 158.386C709.611 155.523 714.292 150.633 715.783 148.545C707.285 145.564 689.841 132.35 678.211 133.692C666.582 135.034 658.503 136.79 655.847 141.836C655.847 145.056 654.777 150.074 653.397 155.162ZM653.397 155.162L664.793 141.836" stroke="black" stroke-linecap="round" stroke-linejoin="round"/>
<path d="M691.796 140.265C692.566 140.668 694.415 142.092 695.648 144.557C696.881 147.023 696.162 149.327 695.648 150.171M693.337 147.749C693.631 150.575 693.513 156.445 690.695 157.326" stroke="black" stroke-linecap="round" stroke-linejoin="round"/>
<path d="M581.147 142.19C575.332 133.692 588.006 133.189 591.435 132.891C607.537 135.574 595.908 152.925 595.013 159.28C589.646 161.07 578.947 164.855 580.253 156.597C580.644 154.123 578.246 151.781 577.5 150.29C577.5 150.29 573.553 148.632 574 147.29C574.447 145.948 579.805 145.321 581.147 142.19Z" fill="#D8AC94" stroke="black" stroke-linecap="round" stroke-linejoin="round"/>
<path d="M583.387 143.98L583.834 144.874C583.089 145.322 581.509 146.395 581.151 147.111C580.793 147.826 581.002 148.9 581.151 149.347" stroke="black" stroke-linecap="round" stroke-linejoin="round"/>
<path d="M583.832 143.626C582.937 143.626 580.88 143.357 579.806 142.284C578.859 141.336 578.771 140.32 578.866 139.786C578.866 139.766 578.871 139.744 578.878 139.722C579.006 139.357 580.12 138.815 583.832 139.153C587.768 139.51 588.454 142.582 588.304 144.073C586.524 142.44 585.439 142.052 583.384 142.284L583.832 143.626Z" fill="#D9D9D9"/>
<path d="M578.912 139.6C578.894 139.653 578.878 139.715 578.866 139.786M578.866 139.786C578.771 140.32 578.859 141.336 579.806 142.284C580.88 143.357 582.937 143.626 583.832 143.626L583.384 142.284C585.439 142.052 586.524 142.44 588.304 144.073C588.454 142.582 587.768 139.51 583.832 139.153C579.896 138.795 578.881 139.426 578.866 139.786Z" stroke="black" stroke-linecap="round" stroke-linejoin="round"/>
<path d="M576.674 152.571C576.674 151.14 577.867 150.484 578.463 150.335C582.489 149.44 582.936 152.571 585.173 152.571C587.409 152.571 590.093 148.005 591.882 149.794C593.671 151.583 596.355 156.504 596.802 158.74C597.249 160.977 599.038 165.095 599.038 167.238C599.038 169.382 597.908 171.264 595.907 171.264C592.776 171.264 593.224 167.332 592.776 165.095C592.329 162.859 590.093 167.332 586.962 164.648C583.831 161.964 585.436 160.549 584.094 160.549C582.752 160.549 582.942 160.673 581.6 162.909C580.259 165.145 577.569 165.449 578.399 162.909C577.625 163.495 576.028 164.151 575.332 162.411C574.438 160.175 576.674 159.728 577.569 158.386C578.463 157.044 577.569 157.044 577.569 156.15C577.569 155.434 578.463 154.659 578.911 154.36C578.165 154.36 576.674 154.003 576.674 152.571Z" fill="#D9D9D9"/>
<path d="M578.911 154.36C578.165 154.36 576.674 154.003 576.674 152.571C576.674 151.14 577.867 150.484 578.463 150.335C582.489 149.44 582.936 152.571 585.173 152.571C587.409 152.571 590.093 148.005 591.882 149.794C593.671 151.583 596.355 156.504 596.802 158.74C597.249 160.977 599.038 165.095 599.038 167.238C599.038 169.382 597.908 171.264 595.907 171.264C592.776 171.264 593.224 167.332 592.776 165.095C592.329 162.859 590.093 167.332 586.962 164.648C583.831 161.964 585.436 160.549 584.094 160.549C582.752 160.549 582.942 160.673 581.6 162.909C580.259 165.145 577.569 165.449 578.399 162.909M578.911 154.36C579.06 154.062 579.895 153.645 582.042 154.36M578.911 154.36C578.463 154.659 577.569 155.434 577.569 156.15C577.569 157.044 578.463 157.044 577.569 158.386C576.674 159.728 574.438 160.175 575.332 162.411C576.028 164.151 577.625 163.495 578.399 162.909M578.911 155.708C578.911 155.708 580.163 157.756 579.805 159.187C579.447 160.619 578.612 162.262 578.463 162.859C578.442 162.875 578.421 162.892 578.399 162.909" stroke="black" stroke-linecap="round" stroke-linejoin="round"/>
<path d="M582.49 134.233C581.417 133.159 582.938 127.877 587.858 130.207C592.778 132.537 592.331 128.325 595.909 131.008C599.487 133.692 599.577 129.935 601.724 131.008C603.871 132.082 605.302 134.233 605.749 135.574C606.793 135.276 609.238 135.127 610.669 136.916C612.101 138.706 612.757 140.346 612.906 140.942L610.222 141.837C611.564 145.862 608.433 148.9 607.091 148.9C605.749 148.9 601.724 149.794 599.935 147.651C598.145 145.508 597.251 144.874 595.462 145.769C593.673 146.663 590.094 148.005 590.542 146.216C590.989 144.427 592.331 141.389 589.647 139.153C587.5 137.364 589.349 134.675 590.542 133.554C589.03 133.766 587.691 134.399 587.411 134.68C586.963 135.127 583.832 135.575 582.49 134.233Z" fill="#D9D9D9"/>
<path d="M597.251 137.364C596.654 136.469 595.014 134.501 593.225 133.785C592.393 133.453 591.437 133.429 590.542 133.554M590.542 133.554C589.03 133.766 587.691 134.399 587.411 134.68C586.963 135.127 583.832 135.575 582.49 134.233C581.417 133.159 582.938 127.877 587.858 130.207C592.778 132.537 592.331 128.325 595.909 131.008C599.487 133.692 599.577 129.935 601.724 131.008C603.871 132.082 605.302 134.233 605.749 135.574M590.542 133.554C589.349 134.675 587.5 137.364 589.647 139.153C592.331 141.389 590.989 144.427 590.542 146.216C590.094 148.005 593.673 146.663 595.462 145.769C597.251 144.874 598.145 145.508 599.935 147.651C601.724 149.794 605.749 148.9 607.091 148.9C608.433 148.9 611.564 145.862 610.222 141.837L612.906 140.942C612.757 140.346 612.101 138.706 610.669 136.916C609.238 135.127 606.793 135.276 605.749 135.574M605.749 135.574C604.676 134.143 602.618 134.083 601.724 134.233" stroke="black" stroke-linecap="round" stroke-linejoin="round"/>
<path d="M597.252 143.532C595.105 143.174 594.718 144.129 594.121 144.874L592.332 149.794C592.481 150.391 593.495 151.226 596.358 149.794C599.936 148.005 599.936 143.979 597.252 143.532Z" fill="#D8AC94" stroke="black" stroke-linecap="round" stroke-linejoin="round"/>
<path d="M604.409 152.571C605.027 144.296 611.118 137.99 620.064 135.127C631.246 131.549 641.087 130.207 644.665 129.76C651.374 128.921 652.269 137.811 651.821 144.52C651.464 149.887 647.498 168.077 646.901 176.277L642.764 174.571L641.049 171.002L638.626 172.864L630.352 169.452C627.882 170.19 624.519 170.419 618.275 169.568C608.435 168.226 603.747 161.44 604.409 152.571Z" fill="url(#paint40_linear_232_15107)"/>
<path d="M635.272 151.583C635.272 151.583 631.709 161.91 634.111 167.779M635.272 151.583C631.487 149.362 632.182 145.462 633.003 143.79M635.272 151.583C633.197 153.042 630.387 153.763 627.807 154.098M623.642 154.36C624.812 154.36 626.269 154.298 627.807 154.098M634.111 167.779L630.352 169.452L638.626 172.864L641.049 171.002L642.764 174.571L646.901 176.277C647.498 168.077 651.464 149.887 651.821 144.52C652.269 137.811 651.374 128.921 644.665 129.76C641.087 130.207 631.246 131.549 620.064 135.127C611.118 137.99 605.027 144.296 604.409 152.571C603.747 161.44 608.435 168.226 618.275 169.568C628.115 170.91 630.799 169.568 634.111 167.779ZM621.397 161.567C623.802 160.947 628.452 158.586 627.807 154.098" stroke="black" stroke-linecap="round" stroke-linejoin="round"/>
<path d="M520.498 160.5C530.498 156.499 528.892 157.174 532.226 158.507C561.226 158.507 543.726 172 532.226 173.5C520.726 175 517.498 161.7 520.498 160.5Z" fill="url(#paint41_linear_232_15107)" stroke="black" stroke-linecap="round" stroke-linejoin="round"/>
<ellipse cx="589.323" cy="158.307" rx="1.19043" ry="1.34814" fill="#FFD547" stroke="black"/>
<ellipse cx="583.132" cy="158.307" rx="1.19019" ry="0.923509" fill="#FF855F" stroke="black"/>
<ellipse cx="579.12" cy="158.714" rx="1.19019" ry="0.923509" fill="#FFD547" stroke="black"/>
<path d="M576.975 157.58C576.185 156.929 575.949 155.954 575.93 155.547L578.601 154.386C578.775 154.773 579.124 155.768 579.124 156.65C579.124 157.754 577.962 158.392 576.975 157.58Z" fill="#C0EFA0" stroke="black" stroke-linecap="round" stroke-linejoin="round"/>
</g>
<rect x="0.5" y="0.5" width="779" height="259" stroke="black"/>
<defs>
<linearGradient id="paint0_linear_232_15107" x1="526.792" y1="9.36418" x2="472.689" y2="276.732" gradientUnits="userSpaceOnUse">
<stop stop-color="#8E96E0"/>
<stop offset="1" stop-color="#F4D1CB"/>
</linearGradient>
<linearGradient id="paint1_linear_232_15107" x1="390" y1="-49.2636" x2="390" y2="260" gradientUnits="userSpaceOnUse">
<stop stop-color="#71A2EE"/>
<stop offset="0.659701" stop-color="#BDBBEE"/>
<stop offset="1" stop-color="#74A3EF"/>
</linearGradient>
<linearGradient id="paint2_linear_232_15107" x1="517.888" y1="108" x2="517.888" y2="121.197" gradientUnits="userSpaceOnUse">
<stop stop-color="#939393"/>
<stop offset="1" stop-color="#939393"/>
</linearGradient>
<linearGradient id="paint3_linear_232_15107" x1="568.349" y1="108" x2="568.349" y2="120.421" gradientUnits="userSpaceOnUse">
<stop stop-color="#939393"/>
<stop offset="1" stop-color="#939393"/>
</linearGradient>
<linearGradient id="paint4_linear_232_15107" x1="543.894" y1="78.9868" x2="543.894" y2="102.859" gradientUnits="userSpaceOnUse">
<stop offset="0.0138077" stop-color="#646675"/>
<stop offset="1" stop-color="#6E6E6E"/>
</linearGradient>
<linearGradient id="paint5_linear_232_15107" x1="391" y1="137" x2="391" y2="300" gradientUnits="userSpaceOnUse">
<stop stop-color="#939393"/>
<stop offset="1" stop-color="#939393"/>
</linearGradient>
<linearGradient id="paint6_linear_232_15107" x1="391" y1="137" x2="391" y2="300" gradientUnits="userSpaceOnUse">
<stop stop-color="#A4B3EF"/>
<stop offset="0.220555" stop-color="#99A0CD"/>
<stop offset="1" stop-color="#735F55"/>
</linearGradient>
<linearGradient id="paint7_linear_232_15107" x1="397.202" y1="201.007" x2="396.796" y2="207.116" gradientUnits="userSpaceOnUse">
<stop stop-color="#9BB0EF"/>
<stop offset="1" stop-color="#787877"/>
</linearGradient>
<linearGradient id="paint8_linear_232_15107" x1="598.5" y1="111" x2="598.5" y2="149" gradientUnits="userSpaceOnUse">
<stop stop-color="#7A7A7A"/>
<stop offset="1" stop-color="#7A7A7A" stop-opacity="0"/>
</linearGradient>
<linearGradient id="paint9_linear_232_15107" x1="204" y1="-9.38257" x2="204" y2="204.5" gradientUnits="userSpaceOnUse">
<stop stop-color="#7A7A7A" stop-opacity="0.79"/>
<stop offset="1" stop-color="#7A7A7A"/>
</linearGradient>
<linearGradient id="paint10_linear_232_15107" x1="204" y1="-9.38257" x2="204" y2="204.5" gradientUnits="userSpaceOnUse">
<stop stop-color="#7A7A7A" stop-opacity="0.79"/>
<stop offset="1" stop-color="#7A7A7A"/>
</linearGradient>
<linearGradient id="paint11_linear_232_15107" x1="134.374" y1="-111.378" x2="61.6602" y2="-101.993" gradientUnits="userSpaceOnUse">
<stop stop-color="#6C6E7A"/>
<stop offset="1" stop-color="#525469"/>
</linearGradient>
<linearGradient id="paint12_linear_232_15107" x1="398.776" y1="113.181" x2="396.469" y2="43.8011" gradientUnits="userSpaceOnUse">
<stop stop-color="#6C6E7A"/>
<stop offset="1" stop-color="#525469"/>
</linearGradient>
<linearGradient id="paint13_linear_232_15107" x1="336.987" y1="97.6882" x2="333.306" y2="-13.0146" gradientUnits="userSpaceOnUse">
<stop stop-color="#6C6E7A"/>
<stop offset="1" stop-color="#525469"/>
</linearGradient>
<linearGradient id="paint14_linear_232_15107" x1="266.974" y1="204.19" x2="266.974" y2="236.865" gradientUnits="userSpaceOnUse">
<stop offset="0.0405273" stop-color="#83807B"/>
<stop offset="1" stop-color="#9BB0EF" stop-opacity="0.87"/>
</linearGradient>
<linearGradient id="paint15_linear_232_15107" x1="266.974" y1="204.19" x2="266.974" y2="236.865" gradientUnits="userSpaceOnUse">
<stop offset="0.0405273" stop-color="#83807B"/>
<stop offset="1" stop-color="#9BB0EF" stop-opacity="0.87"/>
</linearGradient>
<linearGradient id="paint16_linear_232_15107" x1="404.534" y1="209.67" x2="404.534" y2="219.5" gradientUnits="userSpaceOnUse">
<stop stop-color="#7EC4FF"/>
<stop offset="1" stop-color="#94A6C3"/>
</linearGradient>
<linearGradient id="paint17_linear_232_15107" x1="404.534" y1="209.67" x2="404.534" y2="219.5" gradientUnits="userSpaceOnUse">
<stop stop-color="#C3F4A1"/>
<stop offset="0.505208" stop-color="#C3F4A1" stop-opacity="0"/>
</linearGradient>
<linearGradient id="paint18_linear_232_15107" x1="372.642" y1="211.474" x2="372.642" y2="221" gradientUnits="userSpaceOnUse">
<stop stop-color="#7EC4FF"/>
<stop offset="1" stop-color="#94A6C3"/>
</linearGradient>
<linearGradient id="paint19_linear_232_15107" x1="372.642" y1="211.474" x2="372.642" y2="221" gradientUnits="userSpaceOnUse">
<stop stop-color="#C3F4A1"/>
<stop offset="0.505208" stop-color="#C3F4A1" stop-opacity="0"/>
</linearGradient>
<linearGradient id="paint20_linear_232_15107" x1="165.387" y1="115.586" x2="165.387" y2="224.608" gradientUnits="userSpaceOnUse">
<stop stop-color="#BCAB8F"/>
<stop offset="1" stop-color="#9E9484"/>
</linearGradient>
<linearGradient id="paint21_linear_232_15107" x1="54.3358" y1="115" x2="54.3358" y2="224.613" gradientUnits="userSpaceOnUse">
<stop stop-color="#B4A284"/>
<stop offset="1" stop-color="#95866D"/>
</linearGradient>
<linearGradient id="paint22_linear_232_15107" x1="137.847" y1="134.921" x2="137.847" y2="211.674" gradientUnits="userSpaceOnUse">
<stop stop-color="#6C6E7A"/>
<stop offset="1" stop-color="#525469"/>
</linearGradient>
<linearGradient id="paint23_linear_232_15107" x1="83.6546" y1="166.618" x2="83.6546" y2="188.892" gradientUnits="userSpaceOnUse">
<stop stop-color="#CAFFA2"/>
<stop offset="1" stop-color="#AAFFAA" stop-opacity="0"/>
</linearGradient>
<linearGradient id="paint24_linear_232_15107" x1="227.094" y1="133.322" x2="227.094" y2="233.234" gradientUnits="userSpaceOnUse">
<stop offset="0.0210594" stop-color="#FBBFDC"/>
<stop offset="0.368617" stop-color="#F0BCD5"/>
<stop offset="1" stop-color="#AD99A4"/>
</linearGradient>
<linearGradient id="paint25_linear_232_15107" x1="326.169" y1="143.639" x2="326.169" y2="206.5" gradientUnits="userSpaceOnUse">
<stop offset="0.300884" stop-color="#F0BCD5"/>
<stop offset="1" stop-color="#AD99A4"/>
</linearGradient>
<linearGradient id="paint26_linear_232_15107" x1="339.764" y1="204.589" x2="339.764" y2="219.5" gradientUnits="userSpaceOnUse">
<stop stop-color="#CAFFA2"/>
<stop offset="1" stop-color="#B3DC9D"/>
</linearGradient>
<linearGradient id="paint27_linear_232_15107" x1="265.855" y1="209.937" x2="265.855" y2="227" gradientUnits="userSpaceOnUse">
<stop stop-color="#FFF16E"/>
<stop offset="1" stop-color="#BEC0C8"/>
</linearGradient>
<linearGradient id="paint28_linear_232_15107" x1="386.999" y1="194" x2="386.999" y2="206" gradientUnits="userSpaceOnUse">
<stop stop-color="#D3C868"/>
<stop offset="1" stop-color="#BEC0C8"/>
</linearGradient>
<linearGradient id="paint29_linear_232_15107" x1="546.602" y1="189" x2="546.602" y2="208.757" gradientUnits="userSpaceOnUse">
<stop stop-color="#CAFFA2"/>
<stop offset="1" stop-color="#AAFFAA" stop-opacity="0"/>
</linearGradient>
<linearGradient id="paint30_linear_232_15107" x1="492" y1="204" x2="492" y2="211.467" gradientUnits="userSpaceOnUse">
<stop stop-color="#9BB0EF"/>
<stop offset="1" stop-color="#787877"/>
</linearGradient>
<linearGradient id="paint31_linear_232_15107" x1="655.354" y1="201" x2="655.354" y2="239" gradientUnits="userSpaceOnUse">
<stop stop-color="#CAFFA2"/>
<stop offset="1" stop-color="#AAFFAA" stop-opacity="0"/>
</linearGradient>
<linearGradient id="paint32_linear_232_15107" x1="756.985" y1="213.914" x2="750.305" y2="220.725" gradientUnits="userSpaceOnUse">
<stop stop-color="#CAFFA2"/>
<stop offset="1" stop-color="#AAFFAA" stop-opacity="0"/>
</linearGradient>
<linearGradient id="paint33_linear_232_15107" x1="215.979" y1="215" x2="215.979" y2="230.074" gradientUnits="userSpaceOnUse">
<stop stop-color="#B19F82"/>
<stop offset="0.947917" stop-color="#A0A0AA"/>
</linearGradient>
<linearGradient id="paint34_linear_232_15107" x1="584.478" y1="151.543" x2="582.794" y2="171.6" gradientUnits="userSpaceOnUse">
<stop stop-color="#BEAC8F"/>
<stop offset="0.927083" stop-color="#968E81"/>
<stop offset="0.9999" stop-color="#9A8B73"/>
<stop offset="1" stop-color="#8A7E69"/>
</linearGradient>
<linearGradient id="paint35_linear_232_15107" x1="706.711" y1="143.536" x2="704.245" y2="167.735" gradientUnits="userSpaceOnUse">
<stop stop-color="#676767"/>
<stop offset="1" stop-color="#515368"/>
</linearGradient>
<linearGradient id="paint36_linear_232_15107" x1="704.637" y1="162.666" x2="726.253" y2="187.086" gradientUnits="userSpaceOnUse">
<stop stop-color="#97866A"/>
<stop offset="1" stop-color="#7D7566"/>
</linearGradient>
<linearGradient id="paint37_linear_232_15107" x1="758.858" y1="146.021" x2="758.858" y2="177.779" gradientUnits="userSpaceOnUse">
<stop stop-color="#97866A"/>
<stop offset="1" stop-color="#7D7566"/>
</linearGradient>
<linearGradient id="paint38_linear_232_15107" x1="672.356" y1="141.775" x2="672.356" y2="180.967" gradientUnits="userSpaceOnUse">
<stop stop-color="#676767"/>
<stop offset="1" stop-color="#515368"/>
</linearGradient>
<linearGradient id="paint39_linear_232_15107" x1="682.146" y1="133.596" x2="682.146" y2="170.015" gradientUnits="userSpaceOnUse">
<stop stop-color="#BEAC8F"/>
<stop offset="0.927083" stop-color="#968E81"/>
<stop offset="0.9999" stop-color="#9A8B73"/>
<stop offset="1" stop-color="#8A7E69"/>
</linearGradient>
<linearGradient id="paint40_linear_232_15107" x1="628.133" y1="129.704" x2="628.133" y2="176.277" gradientUnits="userSpaceOnUse">
<stop stop-color="#BEAC8F"/>
<stop offset="0.927083" stop-color="#968E81"/>
<stop offset="0.9999" stop-color="#9A8B73"/>
<stop offset="1" stop-color="#8A7E69"/>
</linearGradient>
<linearGradient id="paint41_linear_232_15107" x1="533.754" y1="157.472" x2="533.754" y2="173.617" gradientUnits="userSpaceOnUse">
<stop stop-color="#676767"/>
<stop offset="1" stop-color="#515368"/>
</linearGradient>
<clipPath id="clip0_232_15107">
<rect width="780" height="260" fill="white"/>
</clipPath>
</defs>
</svg>
