<svg width="780" height="450" viewBox="0 0 780 450" fill="none" xmlns="http://www.w3.org/2000/svg">
<g clip-path="url(#clip0_232_16531)">
<rect width="780" height="450" fill="url(#paint0_linear_232_16531)"/>
<rect width="780" height="450" fill="url(#paint1_linear_232_16531)"/>
<rect width="780" height="450" fill="url(#paint2_linear_232_16531)"/>
<path d="M452.955 330.962L448.42 330.391L452.244 333.669L463.135 337.926L455.256 329.442L450.224 327.265L452.955 330.962Z" fill="#E64CD0"/>
<path d="M452.955 330.962L448.42 330.391L452.244 333.669L463.135 337.926L455.256 329.442L450.224 327.265L452.955 330.962Z" fill="#FF855F" fill-opacity="0.49"/>
<path d="M452.955 330.962L448.42 330.391L452.244 333.669L463.135 337.926L455.256 329.442L450.224 327.265L452.955 330.962Z" stroke="black" stroke-linecap="round" stroke-linejoin="round"/>
<path d="M458.427 326.113L455.744 323.066L456.362 328.186L463.261 337.461L461.083 325.887L458.369 322.438L458.427 326.113Z" fill="#E64CD0"/>
<path d="M458.427 326.113L455.744 323.066L456.362 328.186L463.261 337.461L461.083 325.887L458.369 322.438L458.427 326.113Z" fill="#FF855F" fill-opacity="0.49"/>
<path d="M458.427 326.113L455.744 323.066L456.362 328.186L463.261 337.461L461.083 325.887L458.369 322.438L458.427 326.113Z" stroke="black" stroke-linecap="round" stroke-linejoin="round"/>
<path d="M464.609 319.143L462.895 338.242L467.189 327.779L466.383 322.692L465.602 326.207L464.609 319.143Z" fill="#E64CD0"/>
<path d="M464.609 319.143L462.895 338.242L467.189 327.779L466.383 322.692L465.602 326.207L464.609 319.143Z" fill="#FF855F" fill-opacity="0.49"/>
<path d="M464.609 319.143L462.895 338.242L467.189 327.779L466.383 322.692L465.602 326.207L464.609 319.143Z" stroke="black" stroke-linecap="round" stroke-linejoin="round"/>
<path d="M465.415 335.195L459.715 337.026L461.843 339.728C462.424 340.466 463.304 340.636 464.045 340.389C464.802 340.137 465.415 339.451 465.415 338.491L465.415 335.195Z" fill="#99CCA2"/>
<path d="M463.983 340.263C470.317 353.263 488.983 380.263 512.983 384.263M459.715 337.026L465.415 335.195L465.415 338.491C465.415 340.389 463.018 341.22 461.843 339.728L459.715 337.026Z" stroke="black" stroke-linecap="round" stroke-linejoin="round"/>
<path d="M259 187.5C220.202 151.232 213 221 258.5 259C215 293 281.167 341.667 314.5 377H217.5C143.5 311.5 84.9202 239.242 51.5 255.5C33 264.5 57.6667 299.5 80 319.5H29C-0.164452 294.109 -46 286 -55 319.5L-64 -51H470.5C476 -31.6667 476 10 460.5 78C450.699 121 433.938 157.699 419.5 175C401 163.5 384 187.5 377 209C364.813 246.431 374.667 297.5 384 319.5H314.5C305.5 266 282 209 259 187.5Z" fill="url(#paint3_linear_232_16531)" stroke="black" stroke-linecap="round" stroke-linejoin="round"/>
<path d="M424.958 71C426.459 80.9505 427.737 105.548 424.314 139.082M418.898 176.796C421.387 163.315 423.131 150.665 424.314 139.082M418.898 176.796C414.566 150.543 397.828 124.388 390 114.592M418.898 176.796C417.148 186.274 415.402 194.916 413.695 202.755M396.059 263C398.988 257.381 405.943 238.341 413.695 202.755M407.246 94.5102C411.633 100.551 421.188 117.922 424.314 139.082M442.203 109.204C438.579 125.694 427.803 167.49 413.695 202.755M413.695 202.755C425.939 189.433 439.667 159.653 445 146.429" stroke="black" stroke-linecap="round" stroke-linejoin="round"/>
<path d="M33 287L63.5 319H36.5L30 304L42.5 310.5L33 287Z" fill="#FF855F" stroke="black" stroke-linecap="round" stroke-linejoin="round"/>
<path d="M412.5 -6C399.871 46.4372 382.605 71.4884 338 110.5C334.482 51.2113 322.445 25.131 292 -15L412.5 -6Z" fill="#8AA892" stroke="black" stroke-linecap="round" stroke-linejoin="round"/>
<path d="M220.5 -64.5C209.701 -9.44445 214.061 21.1104 237 70.5001C205.863 14.6491 181.23 0.257915 130 -8.61572L220.5 -64.5Z" fill="#8AA892" stroke="black" stroke-linecap="round" stroke-linejoin="round"/>
<path d="M382.793 319H315.442L273.629 113.083C237.054 92.8216 206.637 24.2559 196 -7.4942H204.945C213.191 19.3007 237.892 78.066 270.722 98.7678L249.144 -7.4942H268.086L328.051 163.186C332.267 125.012 339.857 36.332 336.49 -13H343.33C343.864 6.95464 344.204 36.846 343.737 67.9353C351.482 45.9121 362.478 8.47264 367.008 -7.4942H371.217C367.941 4.70449 362.438 24.0124 356.919 40.9569C364.002 38.3141 383.785 11.2255 392.791 -1.98839H397C385.759 14.7125 361.338 48.665 353.587 50.8673C349.818 61.6859 346.255 70.447 343.636 73.9917C342.853 116.536 340.497 160.255 335.015 183.007L382.793 319Z" fill="#4D4C58"/>
<path d="M270.722 98.7678L249.144 -7.4942H268.086L328.051 163.186M270.722 98.7678C237.892 78.066 213.191 19.3007 204.945 -7.4942H196C206.637 24.2559 237.054 92.8216 273.629 113.083M270.722 98.7678L273.629 113.083M273.629 113.083L315.442 319H382.793L335.015 183.007M328.051 163.186C332.267 125.012 339.857 36.332 336.49 -13H343.33C343.864 6.95464 344.204 36.846 343.737 67.9353M328.051 163.186L335.015 183.007M335.015 183.007C340.497 160.255 342.853 116.536 343.636 73.9917M343.737 67.9353C351.482 45.9121 362.478 8.47264 367.008 -7.4942H371.217C367.941 4.70449 362.438 24.0124 356.919 40.9569M343.737 67.9353C343.707 69.9499 343.673 71.9695 343.636 73.9917M343.636 73.9917C346.255 70.447 349.818 61.6859 353.587 50.8673M356.919 40.9569C364.002 38.3141 383.785 11.2255 392.791 -1.98839H397C385.759 14.7125 361.338 48.665 353.587 50.8673M356.919 40.9569C355.803 44.3831 354.686 47.7127 353.587 50.8673" stroke="black" stroke-linecap="round" stroke-linejoin="round"/>
<path d="M227 25.9561L272.73 106.053L260.92 52.9495L243.756 35.0883L250.336 51.1108L227 25.9561Z" fill="#FF855F" stroke="black" stroke-linecap="round" stroke-linejoin="round"/>
<path d="M379 104.679L418.249 173.423L408.112 127.847L393.381 112.517L399.029 126.268L379 104.679Z" fill="#FF855F" stroke="black" stroke-linecap="round" stroke-linejoin="round"/>
<path d="M434.121 74C435.614 108.755 436.004 128.24 428 163C434.121 154 443.911 137.459 448.5 119.5L442.026 88.3445L439.387 102.974L434.121 74Z" fill="#FF855F" stroke="black" stroke-linecap="round" stroke-linejoin="round"/>
<path d="M87 -6.5C106.13 23.1186 60.057 93.336 34 119C17 75.5 -28.5 56 -28.5 56L-33.5 -15.5L87 -6.5Z" fill="#8AA892" stroke="black" stroke-linecap="round" stroke-linejoin="round"/>
<path d="M-195.693 -5.92664H-148.548L25.7657 151.411C33.6233 140.585 37.6761 91.7607 -8.97287 -16.9246C-18.6914 -55.5251 -29.1957 -107.366 6.53543 -5.92664C16.2055 21.5263 23.2236 45.3971 28.2238 65.8832C33.6078 59.6295 45.4923 22.4091 47.4773 -16.9246C51.4474 18.2688 37.2144 62.6485 29.9118 72.9995C41.5915 123.738 40.3675 152.155 37.0868 161.63L275.759 377.059H218.069L-126.216 58.3829C-142.965 67.7836 -193.336 87.3615 -260.828 90.4668C-328.32 93.572 -398.955 80.1158 -425.836 72.9995V62.6485C-394.613 70.4117 -317.898 84.2562 -260.828 77.528C-203.757 70.7999 -156.349 53.5914 -139.779 45.8282L-195.693 -5.92664Z" fill="#4D4C58"/>
<path d="M25.7657 151.411L-148.548 -5.92664H-195.693L-139.779 45.8282M25.7657 151.411C33.6233 140.585 37.6761 91.7607 -8.97287 -16.9246C-18.6914 -55.5251 -29.1957 -107.366 6.53543 -5.92664C16.2055 21.5263 23.2236 45.3971 28.2238 65.8832M25.7657 151.411L37.0868 161.63M37.0868 161.63L275.759 377.059H218.069L-126.216 58.3828M37.0868 161.63C40.3675 152.155 41.5915 123.738 29.9118 72.9995M-126.216 58.3828C-142.965 67.7836 -193.336 87.3615 -260.828 90.4668C-328.32 93.572 -398.955 80.1158 -425.836 72.9995V62.6485C-394.613 70.4117 -317.898 84.2562 -260.828 77.528C-203.757 70.7999 -156.349 53.5914 -139.779 45.8282M-126.216 58.3828L-139.779 45.8282M28.2238 65.8832C33.6078 59.6295 45.4923 22.4091 47.4773 -16.9246C51.4475 18.2688 37.2144 62.6485 29.9118 72.9995M28.2238 65.8832C28.8143 68.3024 29.3766 70.6744 29.9118 72.9995" stroke="black" stroke-linecap="round" stroke-linejoin="round"/>
<path d="M256.764 325.5L274.043 375L242.043 346L223.001 305L236.793 316.5L231.543 287L256.764 346L256.764 325.5Z" fill="#FF855F" stroke="black" stroke-linecap="round" stroke-linejoin="round"/>
<path d="M125.198 376.5L119.878 342.103L148.318 338.874L151.698 369C145.122 376.827 139.603 378.83 125.198 376.5Z" fill="#777777" stroke="black" stroke-linecap="round" stroke-linejoin="round"/>
<path d="M127.058 257.057L76.2397 257.209L83.3267 275.348C85.4893 280.883 88.4123 286.086 91.9302 290.875C97.9329 299.047 105.317 309.434 107.431 313.602C110.258 319.174 111.884 345.354 110.699 355L154.199 355C154.971 344.918 158.199 321 148.674 301.509C145.282 294.568 135.495 268.737 127.058 257.057Z" fill="#9DA0A6" stroke="black" stroke-linecap="round" stroke-linejoin="round"/>
<path d="M124.781 375.085C137.866 375.79 143.559 373.912 152.281 368.585C161.727 372.631 168.146 374.158 176.107 374.34C181.297 374.459 185.876 378.028 186.651 383.161L186.761 383.887C187.035 385.702 185.63 387.335 183.794 387.335H127.487C125.021 387.335 123.142 385.125 123.54 382.69L124.781 375.085Z" fill="#775436" stroke="black" stroke-linecap="round" stroke-linejoin="round"/>
<path d="M178.699 286C175.499 285.6 170.699 282.167 168.699 280.5L183.699 271.5C186.366 273 193.699 276.1 201.699 276.5C208.548 276.842 213.442 280.63 215.755 283.281C216.304 283.911 216.083 284.852 215.357 285.267C214.396 285.816 212.517 285.294 211.533 284.784C210.61 284.306 209.225 283.838 207.199 283.5C202.399 282.7 193.533 283.167 189.699 283.5L195.668 284.296C196.545 284.413 197.199 285.16 197.199 286.044C197.199 287.09 196.296 287.907 195.256 287.798C189.977 287.248 181.518 286.352 178.699 286Z" fill="url(#paint4_linear_232_16531)" stroke="black" stroke-linecap="round" stroke-linejoin="round"/>
<path d="M34.9837 367.313L61.9811 333.976L80.2492 359.126L57.9622 376.368L34.9837 367.313Z" fill="#777777" stroke="black" stroke-linecap="round" stroke-linejoin="round"/>
<path d="M74.5943 282.916C72.5002 264.596 74.7889 249.345 76.195 244.009L122.434 246.824C124.609 265.401 126.895 308.007 118.647 329.824C110.398 351.64 89.3394 362.563 79.8411 365.297L55.726 327.486C62.888 320.262 76.6885 301.235 74.5943 282.916Z" fill="#9DA0A6" stroke="black" stroke-linecap="round" stroke-linejoin="round"/>
<path d="M135.484 200.733C141.269 188.418 147.461 188.249 152.698 189.5C161.751 191.662 162.621 233.144 163.857 242.664L162.109 246.138L165.804 246.194L164.266 248.671L167.266 248.716L194.44 270.627L168.127 291.234C159.905 283.776 142.38 267.544 138.059 262.278C132.657 255.697 128.252 216.126 135.484 200.733Z" fill="url(#paint5_linear_232_16531)" stroke="black" stroke-linecap="round" stroke-linejoin="round"/>
<path d="M44.8761 259.298L67.9973 237.794L75.8882 247.604L63.1517 274.414L44.8761 259.298Z" fill="#775436" stroke="black" stroke-linejoin="round"/>
<path d="M118.952 158.107L121.8 160.201L109.986 182.234L106.032 182.837L114.307 166.998L111.948 165.244L112.71 163.61L115.22 165.251L118.952 158.107Z" fill="#9C9C9C"/>
<path d="M115.22 165.251L118.952 158.107L121.8 160.201L109.986 182.234L106.032 182.837L114.307 166.998M115.22 165.251L112.71 163.61L111.948 165.244L114.307 166.998M115.22 165.251L114.307 166.998" stroke="black" stroke-linejoin="round"/>
<path d="M112.199 178.602L132.199 176.102L147.199 181.602C152.699 187.602 156.699 189.5 159.699 201.5C159.699 212 138.033 240.268 129.199 251.602L141.699 279.602C135.366 281.102 118.399 284.802 101.199 287.602C83.9992 290.402 67.3659 286.435 61.1992 284.102C63.6992 270.268 70.8992 238.402 79.6992 221.602C88.4992 204.802 105.033 185.935 112.199 178.602Z" fill="url(#paint6_linear_232_16531)" stroke="black" stroke-linecap="round" stroke-linejoin="round"/>
<path d="M107.199 267.5L86.6992 268.5C89.1992 271.167 94.0992 278.3 93.6992 285.5C93.4591 289.822 92.3664 292.318 91.2428 293.659C90.7508 294.246 90.7331 295.803 91.4118 296.159C91.6659 296.292 91.9729 296.276 92.2098 296.114C96.1642 293.41 97.5256 291.684 98.1992 288.5C98.3945 292.166 97.5234 294.08 95.4452 296.594C94.9513 297.192 95.1138 298.098 95.8004 298.458C98.3303 299.783 101.376 300.299 103.503 298.393C105.367 296.725 107.37 293.93 108.699 289.5C111.099 281.5 108.699 271.5 107.199 267.5Z" fill="url(#paint7_linear_232_16531)" stroke="black" stroke-linecap="round" stroke-linejoin="round"/>
<path d="M170.199 166.602L162.699 185.352H158.699L149.699 182.5L145.699 186.5C140.23 186.814 138.431 182.91 131.199 178.102L134.199 165.602L130.199 149.102C133.699 144.602 142.599 135.202 150.199 133.602C159.699 131.602 166.199 143.602 167.699 148.602C169.199 153.602 166.699 154.602 167.699 156.602C168.699 158.602 175.199 160.102 176.199 163.102C176.999 165.502 172.533 166.435 170.199 166.602Z" fill="url(#paint8_linear_232_16531)" stroke="black" stroke-linecap="round" stroke-linejoin="round"/>
<path d="M165.199 161.5C164.199 164.667 161.299 171.6 157.699 174M150.199 166C153.593 169.372 153.946 171.879 154.199 176.5M163.199 158C163.199 159.5 162.799 162.7 161.199 163.5" stroke="black" stroke-linecap="round" stroke-linejoin="round"/>
<path d="M163.199 169.5C166.399 166.7 169.699 166.5 169.699 166.5C174.099 171.3 172.033 174.102 170.199 174.602C166.699 175.863 171.399 188 170.199 192C168.699 197 158.699 194 156.699 192C154.699 190 150.699 187.5 147.199 182.602C145.212 179.821 142.699 172.667 141.199 169C138.393 172.704 136.286 174.081 130.199 173.5L133.199 166.5C130.699 167.5 127.199 167.102 126.199 165.5L132.699 161L135.699 151.102L159.699 141.102C162.199 141.268 171.499 141.1 172.699 143.5C173.899 145.9 174.199 150 169.699 153.5C170.129 151.389 168.217 150.137 167.699 147.602C167.533 148.935 165.202 151.948 163.199 153C159.199 155.102 154.699 157 150.699 156.102C154.794 152.928 155.847 149.497 155.199 146C151.533 149 144.299 156.7 144.699 161.5C144.843 163.224 145.234 164.7 145.826 166C147.293 169.224 147.492 172.464 150.699 174.602C155.199 177.602 159.199 173 163.199 169.5Z" fill="#BABDC6"/>
<path d="M170.199 174.602C166.699 175.863 171.399 188 170.199 192C168.699 197 158.699 194 156.699 192C154.699 190 150.699 187.5 147.199 182.602C145.212 179.821 142.699 172.667 141.199 169C138.393 172.704 136.286 174.081 130.199 173.5L133.199 166.5C130.699 167.5 127.199 167.102 126.199 165.5L132.699 161L135.699 151.102L159.699 141.102C162.199 141.268 171.499 141.1 172.699 143.5C173.899 145.9 174.199 150 169.699 153.5C170.129 151.389 168.217 150.137 167.699 147.602C167.533 148.935 165.202 151.948 163.199 153C159.199 155.102 154.699 157 150.699 156.102C154.794 152.928 155.847 149.497 155.199 146C151.533 149 144.299 156.7 144.699 161.5C144.843 163.224 145.234 164.7 145.826 166C147.293 169.224 147.492 172.464 150.699 174.602C155.199 177.602 159.199 173 163.199 169.5C166.399 166.7 169.699 166.5 169.699 166.5C174.099 171.3 172.033 174.102 170.199 174.602ZM170.199 174.602C169.366 174.568 166.399 175.5 161.199 179.5C158.799 181.5 156.866 180.333 156.199 179.5" stroke="black" stroke-linecap="round" stroke-linejoin="round"/>
<path d="M158.199 159.102L162.199 157.102L161.699 159.602" stroke="black" stroke-linecap="round" stroke-linejoin="round"/>
<path d="M166.202 162.602C165.869 163.768 165.702 166.5 167.202 167" stroke="black" stroke-linecap="round" stroke-linejoin="round"/>
<path d="M136.2 136.101C139.4 127.701 145.867 126.601 148.7 127.101C157.9 128.301 163.867 134.935 165.7 138.101L176.2 137.101C177.034 138.601 177.7 142.001 173.7 143.601C169.7 145.201 159.7 146.601 155.2 147.101L132.2 161.101C129.367 159.768 123.8 155.901 124.2 151.101C124.7 145.101 132.2 146.601 136.2 136.101Z" fill="url(#paint9_linear_232_16531)" stroke="black" stroke-linecap="round" stroke-linejoin="round"/>
<path d="M133.582 159.312C135.488 155.266 139.401 156.896 141.118 158.216C141.462 162.102 142.028 169.946 141.538 170.23C140.926 170.584 131.199 164.368 133.582 159.312Z" fill="url(#paint10_linear_232_16531)" stroke="black" stroke-linecap="round" stroke-linejoin="round"/>
<path d="M116.199 230.102C100.999 238.902 80.5326 241.102 72.1992 241.102L70.1992 246.102C80.1992 244.935 104.199 240.802 120.199 233.602C136.199 226.402 150.199 203.268 155.199 192.602L151.699 187.602C146.199 198.102 131.399 221.302 116.199 230.102Z" fill="#777777" stroke="black" stroke-linecap="round" stroke-linejoin="round"/>
<path d="M90.1977 186.5C101.315 178.657 113.198 178.5 113.198 178.5C113.198 178.5 99.7294 219.318 97.4197 229.647C97.3071 230.15 97.0144 230.584 96.5851 230.87L95.4789 231.606C94.8037 232.056 94.8313 233.057 95.5303 233.468L95.9472 233.714C96.5 234.039 96.4863 234.844 95.9227 235.15C95.3592 235.457 95.3455 236.261 95.8983 236.586L96.8053 237.12C97.0787 237.281 97.2903 237.529 97.4066 237.825L110.013 269.85L76.9533 274.752C73.4938 264.204 66.2868 241.43 65.1341 234.717C63.6933 226.325 76.3005 196.304 90.1977 186.5Z" fill="url(#paint11_linear_232_16531)" stroke="black" stroke-linecap="round" stroke-linejoin="round"/>
<rect x="479" y="-6" width="313" height="475" fill="url(#paint12_linear_232_16531)" stroke="black" stroke-linecap="round" stroke-linejoin="round"/>
<rect x="577" y="47" width="393" height="518" fill="#82878D" stroke="black" stroke-linecap="round" stroke-linejoin="round"/>
<path d="M559 29H952V547H559V367M559 29V70.5M559 29L480 5M559 70.5L480 53.5M559 70.5V142M559 142L480 128M559 142V210.5M559 210.5L480 199.5M559 210.5V286.5M559 286.5L480 277.5M559 286.5V367M559 367H480" stroke="black" stroke-linecap="round" stroke-linejoin="round"/>
<path d="M617 16L628 10L1010 88V549H631.5H617V16Z" fill="url(#paint13_linear_232_16531)"/>
<path d="M628 10L617 16V549H631.5M628 10L1010 88V549H631.5M628 10L631.5 549" stroke="black" stroke-linecap="round" stroke-linejoin="round"/>
<path d="M198.5 442.5C154 414.5 107.5 418.667 102.5 427.5C68 340 25.6584 332.671 -9 324.5L-14.5 340V509.5L276.5 523.5C272.167 505.333 246.03 472.406 198.5 442.5Z" fill="#919497"/>
<path d="M198.5 442.5C154 414.5 107.5 418.667 102.5 427.5C68 340 25.6584 332.671 -9 324.5L-14.5 340V509.5L276.5 523.5C272.167 505.333 246.03 472.406 198.5 442.5Z" fill="#4D4C58" fill-opacity="0.33"/>
<path d="M198.5 442.5C154 414.5 107.5 418.667 102.5 427.5C68 340 25.6584 332.671 -9 324.5L-14.5 340V509.5L276.5 523.5C272.167 505.333 246.03 472.406 198.5 442.5Z" stroke="black" stroke-linecap="round" stroke-linejoin="round"/>
<path d="M405.91 299.019C409.25 298.606 412.927 306.091 414.121 315.738C415.315 325.385 414 344.366 410.659 344.78C407.319 345.194 403.217 326.883 402.023 317.236C400.829 307.589 402.569 299.433 405.91 299.019Z" fill="#554A49" stroke="black" stroke-linecap="round" stroke-linejoin="round"/>
<path d="M327.849 381.79C334.69 376.451 342.195 374.634 344.613 377.732C347.031 380.829 352.468 385.873 345.628 391.211C338.787 396.55 322.257 400.163 319.839 397.065C318.929 395.898 317.821 394.547 316.344 394.626L312.38 394.839C311.173 394.903 310.012 395.321 309.039 396.039L294.892 406.486C293.839 407.263 292.388 407.205 291.4 406.346C290.03 405.154 290.144 402.992 291.632 401.951L294.962 399.621L306.001 389.779C308.502 387.55 311.844 386.508 315.169 386.923C319.353 387.445 323.412 385.543 326.614 382.8C327.012 382.458 327.424 382.121 327.849 381.79ZM403.283 374.982C404.228 372.013 410.609 373.625 413.273 375.241C415.1 376.349 416.318 376.467 418.311 375.697L423.858 373.552C425.15 373.053 426.559 372.941 427.913 373.231L433.957 374.523C435.575 374.869 436.702 376.341 436.613 377.994C436.495 380.179 434.356 381.672 432.264 381.028L429.584 380.204C428.163 379.767 426.626 379.918 425.318 380.623L414.179 386.621C410.31 388.704 405.485 387.32 403.309 383.503L402.438 381.975C401.873 380.984 401.748 379.801 402.095 378.714L403.283 374.982Z" fill="#C07E42"/>
<path d="M327.849 381.79C334.69 376.451 342.195 374.634 344.613 377.732C347.031 380.829 352.468 385.873 345.628 391.211C338.787 396.55 322.257 400.163 319.839 397.065C318.929 395.898 317.821 394.547 316.344 394.626L312.38 394.839C311.173 394.903 310.012 395.321 309.039 396.039L294.892 406.486C293.839 407.263 292.388 407.205 291.4 406.346C290.03 405.154 290.144 402.992 291.632 401.951L294.962 399.621L306.001 389.779C308.502 387.55 311.844 386.508 315.169 386.923C319.353 387.445 323.412 385.543 326.614 382.8C327.012 382.458 327.424 382.121 327.849 381.79ZM403.283 374.982C404.228 372.013 410.609 373.625 413.273 375.241C415.1 376.349 416.318 376.467 418.311 375.697L423.858 373.552C425.15 373.053 426.559 372.941 427.913 373.231L433.957 374.523C435.575 374.869 436.702 376.341 436.613 377.994C436.495 380.179 434.356 381.672 432.264 381.028L429.584 380.204C428.163 379.767 426.626 379.918 425.318 380.623L414.179 386.621C410.31 388.704 405.485 387.32 403.309 383.503L402.438 381.975C401.873 380.984 401.748 379.801 402.095 378.714L403.283 374.982Z" fill="url(#paint14_radial_232_16531)"/>
<path d="M327.849 381.79C334.69 376.451 342.195 374.634 344.613 377.732C347.031 380.829 352.468 385.873 345.628 391.211C338.787 396.55 322.257 400.163 319.839 397.065C318.929 395.898 317.821 394.547 316.344 394.626L312.38 394.839C311.173 394.903 310.012 395.321 309.039 396.039L294.892 406.486C293.839 407.263 292.388 407.205 291.4 406.346C290.03 405.154 290.144 402.992 291.632 401.951L294.962 399.621L306.001 389.779C308.502 387.55 311.844 386.508 315.169 386.923C319.353 387.445 323.412 385.543 326.614 382.8C327.012 382.458 327.424 382.121 327.849 381.79ZM403.283 374.982C404.228 372.013 410.609 373.625 413.273 375.241C415.1 376.349 416.318 376.467 418.311 375.697L423.858 373.552C425.15 373.053 426.559 372.941 427.913 373.231L433.957 374.523C435.575 374.869 436.702 376.341 436.613 377.994C436.495 380.179 434.356 381.672 432.264 381.028L429.584 380.204C428.163 379.767 426.626 379.918 425.318 380.623L414.179 386.621C410.31 388.704 405.485 387.32 403.309 383.503L402.438 381.975C401.873 380.984 401.748 379.801 402.095 378.714L403.283 374.982Z" fill="url(#paint15_radial_232_16531)"/>
<path d="M327.849 381.79C334.69 376.451 342.195 374.634 344.613 377.732C347.031 380.829 352.468 385.873 345.628 391.211C338.787 396.55 322.257 400.163 319.839 397.065C318.929 395.898 317.821 394.547 316.344 394.626L312.38 394.839C311.173 394.903 310.012 395.321 309.039 396.039L294.892 406.486C293.839 407.263 292.388 407.205 291.4 406.346C290.03 405.154 290.144 402.992 291.632 401.951L294.962 399.621L306.001 389.779C308.502 387.55 311.844 386.508 315.169 386.923C319.353 387.445 323.412 385.543 326.614 382.8C327.012 382.458 327.424 382.121 327.849 381.79ZM403.283 374.982C404.228 372.013 410.609 373.625 413.273 375.241C415.1 376.349 416.318 376.467 418.311 375.697L423.858 373.552C425.15 373.053 426.559 372.941 427.913 373.231L433.957 374.523C435.575 374.869 436.702 376.341 436.613 377.994C436.495 380.179 434.356 381.672 432.264 381.028L429.584 380.204C428.163 379.767 426.626 379.918 425.318 380.623L414.179 386.621C410.31 388.704 405.485 387.32 403.309 383.503L402.438 381.975C401.873 380.984 401.748 379.801 402.095 378.714L403.283 374.982Z" fill="url(#paint16_linear_232_16531)"/>
<path d="M327.849 381.79L327.541 381.396L327.541 381.396L327.849 381.79ZM344.613 377.732L344.219 378.039L344.219 378.039L344.613 377.732ZM345.628 391.211L345.935 391.605L345.935 391.605L345.628 391.211ZM319.839 397.065L319.445 397.372L319.445 397.372L319.839 397.065ZM294.962 399.621L295.249 400.031C295.265 400.02 295.28 400.008 295.295 399.995L294.962 399.621ZM402.438 381.975L402.004 382.223L402.438 381.975ZM429.584 380.204L429.437 380.682L429.584 380.204ZM425.318 380.623L425.555 381.063L425.318 380.623ZM433.957 374.523L434.061 374.034L433.957 374.523ZM436.613 377.994L437.112 378.021L436.613 377.994ZM423.858 373.552L424.038 374.019L423.858 373.552ZM427.913 373.231L427.808 373.72L427.913 373.231ZM413.273 375.241L413.014 375.669L413.273 375.241ZM418.311 375.697L418.131 375.23L418.311 375.697ZM403.283 374.982L403.759 375.134L403.283 374.982ZM326.614 382.8L326.288 382.42L326.614 382.8ZM291.4 406.346L291.072 406.724L291.4 406.346ZM291.632 401.951L291.345 401.541L291.632 401.951ZM294.892 406.486L295.189 406.888L294.892 406.486ZM312.38 394.839L312.407 395.338L312.38 394.839ZM309.039 396.039L308.742 395.636L309.039 396.039ZM316.344 394.626L316.317 394.127L316.344 394.626ZM327.849 381.79L328.156 382.184C331.534 379.548 335.057 377.797 338.007 377.083C341.006 376.357 343.206 376.741 344.219 378.039L344.613 377.732L345.007 377.424C343.603 375.625 340.841 375.368 337.772 376.111C334.654 376.866 331.004 378.693 327.541 381.396L327.849 381.79ZM344.613 377.732L344.219 378.039C344.526 378.433 344.882 378.859 345.245 379.299C345.611 379.743 345.989 380.208 346.353 380.694C347.084 381.669 347.741 382.709 348.12 383.796C348.495 384.874 348.593 385.987 348.219 387.133C347.844 388.285 346.976 389.524 345.32 390.817L345.628 391.211L345.935 391.605C347.699 390.228 348.717 388.836 349.17 387.443C349.625 386.046 349.495 384.704 349.064 383.467C348.636 382.238 347.909 381.102 347.154 380.094C346.775 379.589 346.385 379.109 346.017 378.663C345.647 378.214 345.304 377.804 345.007 377.424L344.613 377.732ZM345.628 391.211L345.32 390.817C341.983 393.421 336.223 395.638 330.965 396.814C328.343 397.4 325.876 397.721 323.93 397.708C322.956 397.701 322.131 397.611 321.49 397.439C320.84 397.264 320.439 397.021 320.233 396.757L319.839 397.065L319.445 397.372C319.843 397.883 320.488 398.205 321.231 398.405C321.983 398.607 322.901 398.701 323.923 398.708C325.97 398.722 328.516 398.386 331.184 397.79C336.506 396.599 342.431 394.34 345.935 391.605L345.628 391.211ZM316.344 394.626L316.317 394.127L312.353 394.339L312.38 394.839L312.407 395.338L316.37 395.126L316.344 394.626ZM309.039 396.039L308.742 395.636L294.595 406.083L294.892 406.486L295.189 406.888L309.336 396.441L309.039 396.039ZM291.632 401.951L291.919 402.361L295.249 400.031L294.962 399.621L294.675 399.212L291.345 401.541L291.632 401.951ZM294.962 399.621L295.295 399.995L306.333 390.153L306.001 389.779L305.668 389.406L294.629 399.248L294.962 399.621ZM326.614 382.8L326.939 383.179C327.332 382.843 327.738 382.51 328.156 382.184L327.849 381.79L327.541 381.396C327.111 381.731 326.693 382.073 326.288 382.42L326.614 382.8ZM418.311 375.697L418.492 376.163L424.038 374.019L423.858 373.552L423.678 373.086L418.131 375.23L418.311 375.697ZM427.913 373.231L427.808 373.72L433.852 375.012L433.957 374.523L434.061 374.034L428.017 372.742L427.913 373.231ZM432.264 381.028L432.411 380.551L429.731 379.726L429.584 380.204L429.437 380.682L432.117 381.506L432.264 381.028ZM425.318 380.623L425.08 380.182L413.942 386.181L414.179 386.621L414.416 387.061L425.555 381.063L425.318 380.623ZM403.309 383.503L403.743 383.255L402.872 381.728L402.438 381.975L402.004 382.223L402.874 383.75L403.309 383.503ZM402.095 378.714L402.571 378.865L403.759 375.134L403.283 374.982L402.806 374.83L401.618 378.562L402.095 378.714ZM402.438 381.975L402.872 381.728C402.376 380.858 402.267 379.82 402.571 378.865L402.095 378.714L401.618 378.562C401.23 379.782 401.369 381.11 402.004 382.223L402.438 381.975ZM414.179 386.621L413.942 386.181C410.311 388.136 405.785 386.837 403.743 383.255L403.309 383.503L402.874 383.75C405.185 387.804 410.308 389.273 414.416 387.061L414.179 386.621ZM429.584 380.204L429.731 379.726C428.182 379.25 426.507 379.414 425.08 380.182L425.318 380.623L425.555 381.063C426.746 380.421 428.144 380.284 429.437 380.682L429.584 380.204ZM433.957 374.523L433.852 375.012C435.23 375.307 436.189 376.56 436.113 377.967L436.613 377.994L437.112 378.021C437.214 376.122 435.92 374.432 434.061 374.034L433.957 374.523ZM423.858 373.552L424.038 374.019C425.239 373.554 426.549 373.451 427.808 373.72L427.913 373.231L428.017 372.742C426.568 372.432 425.06 372.552 423.678 373.086L423.858 373.552ZM413.273 375.241L413.014 375.669C413.96 376.243 414.797 376.59 415.684 376.671C416.573 376.753 417.457 376.563 418.492 376.163L418.311 375.697L418.131 375.23C417.173 375.601 416.451 375.737 415.775 375.675C415.099 375.614 414.413 375.348 413.532 374.814L413.273 375.241ZM413.273 375.241L413.532 374.814C412.135 373.967 409.805 373.137 407.69 372.895C406.633 372.775 405.585 372.795 404.719 373.065C403.838 373.34 403.106 373.891 402.806 374.83L403.283 374.982L403.759 375.134C403.933 374.589 404.352 374.227 405.017 374.02C405.696 373.808 406.587 373.776 407.577 373.889C409.555 374.115 411.746 374.9 413.014 375.669L413.273 375.241ZM315.169 386.923L315.107 387.419C319.483 387.965 323.677 385.974 326.939 383.179L326.614 382.8L326.288 382.42C323.146 385.113 319.224 386.925 315.231 386.427L315.169 386.923ZM291.4 406.346L291.728 405.969C290.603 404.991 290.697 403.215 291.919 402.361L291.632 401.951L291.345 401.541C289.591 402.769 289.456 405.318 291.072 406.724L291.4 406.346ZM294.892 406.486L294.595 406.083C293.73 406.722 292.539 406.674 291.728 405.969L291.4 406.346L291.072 406.724C292.236 407.736 293.947 407.804 295.189 406.888L294.892 406.486ZM312.38 394.839L312.353 394.339C311.049 394.409 309.793 394.86 308.742 395.636L309.039 396.039L309.336 396.441C310.23 395.781 311.297 395.397 312.407 395.338L312.38 394.839ZM306.001 389.779L306.333 390.153C308.727 388.019 311.925 387.022 315.107 387.419L315.169 386.923L315.231 386.427C311.763 385.994 308.277 387.08 305.668 389.406L306.001 389.779ZM436.613 377.994L436.113 377.967C436.013 379.827 434.192 381.098 432.411 380.551L432.264 381.028L432.117 381.506C434.52 382.245 436.977 380.53 437.112 378.021L436.613 377.994ZM319.839 397.065L320.233 396.757C319.781 396.178 319.246 395.506 318.622 394.993C317.993 394.475 317.227 394.078 316.317 394.127L316.344 394.626L316.37 395.126C316.937 395.095 317.464 395.335 317.986 395.765C318.513 396.198 318.987 396.786 319.445 397.372L319.839 397.065Z" fill="black"/>
<path d="M391.803 299.189C395.406 297.962 401.201 305.402 404.745 315.807C407.151 322.872 409.265 334.967 409.248 342.388C409.248 342.41 409.266 342.427 409.287 342.427C418.213 342.499 431.037 348.536 431.004 352.655C430.976 356.09 425.924 358.939 419.073 359.751C417.755 359.907 416.987 361.516 417.195 362.827C417.64 365.636 417.138 369.216 415.487 372.752C415.483 372.761 415.493 372.77 415.501 372.765C415.51 372.759 415.519 372.77 415.515 372.779C412.191 379.372 412.099 382.461 412.596 384.285C413.206 386.527 415.216 389.482 417.429 390.193L423.41 392.117C424.821 392.57 426.068 393.426 427 394.577L431.158 399.719C432.272 401.095 432.218 403.077 431.033 404.392C429.465 406.131 426.681 405.934 425.374 403.992L423.698 401.502C422.81 400.183 421.43 399.274 419.867 398.98L401.805 395.581C399.832 395.209 398.516 393.332 398.84 391.351L399.112 389.686C399.424 387.777 397.629 386.173 395.718 386.476C391.579 387.131 387.574 387.385 383.866 387.283C378.092 387.124 372.199 387.824 366.487 388.68C362.589 389.264 358.152 389.377 353.487 388.912C351.366 388.701 349.276 390.816 348.329 392.725C348.054 393.278 347.702 393.856 347.263 394.462C342.172 401.489 327.293 409.547 324.111 407.241C322.914 406.373 321.475 405.383 320.078 405.869L316.328 407.173C315.186 407.57 314.186 408.293 313.451 409.252L302.757 423.214C301.961 424.253 300.551 424.6 299.364 424.049C297.717 423.284 297.226 421.175 298.367 419.762L300.92 416.599L308.795 404.081C310.579 401.246 313.501 399.318 316.81 398.794C320.975 398.135 324.346 395.182 326.661 391.658C326.95 391.219 327.252 390.78 327.569 390.343C330.332 386.53 329.078 380.427 328.349 375.775C328.274 375.299 328.259 374.822 328.307 374.344C328.964 367.749 341.303 363.58 355.866 365.031C363.781 365.819 372.095 364.496 379.577 361.799C382.076 360.898 384.78 360.124 387.636 359.51C389.993 359.004 392.029 357.558 394.02 356.199C394.131 356.124 394.243 356.05 394.355 355.979C395.045 355.544 395.712 355.069 396.298 354.502C396.321 354.48 396.343 354.458 396.366 354.436C397.775 353.081 398.563 351.485 398.979 349.575C399.745 346.052 401.026 341.612 399.39 338.4C396.387 332.505 393.423 325.32 391.696 320.251C388.153 309.847 388.201 300.417 391.803 299.189Z" fill="#C07E42"/>
<path d="M391.803 299.189C395.406 297.962 401.201 305.402 404.745 315.807C407.151 322.872 409.265 334.967 409.248 342.388C409.248 342.41 409.266 342.427 409.287 342.427C418.213 342.499 431.037 348.536 431.004 352.655C430.976 356.09 425.924 358.939 419.073 359.751C417.755 359.907 416.987 361.516 417.195 362.827C417.64 365.636 417.138 369.216 415.487 372.752C415.483 372.761 415.493 372.77 415.501 372.765C415.51 372.759 415.519 372.77 415.515 372.779C412.191 379.372 412.099 382.461 412.596 384.285C413.206 386.527 415.216 389.482 417.429 390.193L423.41 392.117C424.821 392.57 426.068 393.426 427 394.577L431.158 399.719C432.272 401.095 432.218 403.077 431.033 404.392C429.465 406.131 426.681 405.934 425.374 403.992L423.698 401.502C422.81 400.183 421.43 399.274 419.867 398.98L401.805 395.581C399.832 395.209 398.516 393.332 398.84 391.351L399.112 389.686C399.424 387.777 397.629 386.173 395.718 386.476C391.579 387.131 387.574 387.385 383.866 387.283C378.092 387.124 372.199 387.824 366.487 388.68C362.589 389.264 358.152 389.377 353.487 388.912C351.366 388.701 349.276 390.816 348.329 392.725C348.054 393.278 347.702 393.856 347.263 394.462C342.172 401.489 327.293 409.547 324.111 407.241C322.914 406.373 321.475 405.383 320.078 405.869L316.328 407.173C315.186 407.57 314.186 408.293 313.451 409.252L302.757 423.214C301.961 424.253 300.551 424.6 299.364 424.049C297.717 423.284 297.226 421.175 298.367 419.762L300.92 416.599L308.795 404.081C310.579 401.246 313.501 399.318 316.81 398.794C320.975 398.135 324.346 395.182 326.661 391.658C326.95 391.219 327.252 390.78 327.569 390.343C330.332 386.53 329.078 380.427 328.349 375.775C328.274 375.299 328.259 374.822 328.307 374.344C328.964 367.749 341.303 363.58 355.866 365.031C363.781 365.819 372.095 364.496 379.577 361.799C382.076 360.898 384.78 360.124 387.636 359.51C389.993 359.004 392.029 357.558 394.02 356.199C394.131 356.124 394.243 356.05 394.355 355.979C395.045 355.544 395.712 355.069 396.298 354.502C396.321 354.48 396.343 354.458 396.366 354.436C397.775 353.081 398.563 351.485 398.979 349.575C399.745 346.052 401.026 341.612 399.39 338.4C396.387 332.505 393.423 325.32 391.696 320.251C388.153 309.847 388.201 300.417 391.803 299.189Z" fill="url(#paint17_radial_232_16531)"/>
<path d="M391.803 299.189C395.406 297.962 401.201 305.402 404.745 315.807C407.151 322.872 409.265 334.967 409.248 342.388C409.248 342.41 409.266 342.427 409.287 342.427C418.213 342.499 431.037 348.536 431.004 352.655C430.976 356.09 425.924 358.939 419.073 359.751C417.755 359.907 416.987 361.516 417.195 362.827C417.64 365.636 417.138 369.216 415.487 372.752C415.483 372.761 415.493 372.77 415.501 372.765C415.51 372.759 415.519 372.77 415.515 372.779C412.191 379.372 412.099 382.461 412.596 384.285C413.206 386.527 415.216 389.482 417.429 390.193L423.41 392.117C424.821 392.57 426.068 393.426 427 394.577L431.158 399.719C432.272 401.095 432.218 403.077 431.033 404.392C429.465 406.131 426.681 405.934 425.374 403.992L423.698 401.502C422.81 400.183 421.43 399.274 419.867 398.98L401.805 395.581C399.832 395.209 398.516 393.332 398.84 391.351L399.112 389.686C399.424 387.777 397.629 386.173 395.718 386.476C391.579 387.131 387.574 387.385 383.866 387.283C378.092 387.124 372.199 387.824 366.487 388.68C362.589 389.264 358.152 389.377 353.487 388.912C351.366 388.701 349.276 390.816 348.329 392.725C348.054 393.278 347.702 393.856 347.263 394.462C342.172 401.489 327.293 409.547 324.111 407.241C322.914 406.373 321.475 405.383 320.078 405.869L316.328 407.173C315.186 407.57 314.186 408.293 313.451 409.252L302.757 423.214C301.961 424.253 300.551 424.6 299.364 424.049C297.717 423.284 297.226 421.175 298.367 419.762L300.92 416.599L308.795 404.081C310.579 401.246 313.501 399.318 316.81 398.794C320.975 398.135 324.346 395.182 326.661 391.658C326.95 391.219 327.252 390.78 327.569 390.343C330.332 386.53 329.078 380.427 328.349 375.775C328.274 375.299 328.259 374.822 328.307 374.344C328.964 367.749 341.303 363.58 355.866 365.031C363.781 365.819 372.095 364.496 379.577 361.799C382.076 360.898 384.78 360.124 387.636 359.51C389.993 359.004 392.029 357.558 394.02 356.199C394.131 356.124 394.243 356.05 394.355 355.979C395.045 355.544 395.712 355.069 396.298 354.502C396.321 354.48 396.343 354.458 396.366 354.436C397.775 353.081 398.563 351.485 398.979 349.575C399.745 346.052 401.026 341.612 399.39 338.4C396.387 332.505 393.423 325.32 391.696 320.251C388.153 309.847 388.201 300.417 391.803 299.189Z" fill="url(#paint18_radial_232_16531)"/>
<path d="M391.803 299.189C395.406 297.962 401.201 305.402 404.745 315.807C407.151 322.872 409.265 334.967 409.248 342.388C409.248 342.41 409.266 342.427 409.287 342.427C418.213 342.499 431.037 348.536 431.004 352.655C430.976 356.09 425.924 358.939 419.073 359.751C417.755 359.907 416.987 361.516 417.195 362.827C417.64 365.636 417.138 369.216 415.487 372.752C415.483 372.761 415.493 372.77 415.501 372.765C415.51 372.759 415.519 372.77 415.515 372.779C412.191 379.372 412.099 382.461 412.596 384.285C413.206 386.527 415.216 389.482 417.429 390.193L423.41 392.117C424.821 392.57 426.068 393.426 427 394.577L431.158 399.719C432.272 401.095 432.218 403.077 431.033 404.392C429.465 406.131 426.681 405.934 425.374 403.992L423.698 401.502C422.81 400.183 421.43 399.274 419.867 398.98L401.805 395.581C399.832 395.209 398.516 393.332 398.84 391.351L399.112 389.686C399.424 387.777 397.629 386.173 395.718 386.476C391.579 387.131 387.574 387.385 383.866 387.283C378.092 387.124 372.199 387.824 366.487 388.68C362.589 389.264 358.152 389.377 353.487 388.912C351.366 388.701 349.276 390.816 348.329 392.725C348.054 393.278 347.702 393.856 347.263 394.462C342.172 401.489 327.293 409.547 324.111 407.241C322.914 406.373 321.475 405.383 320.078 405.869L316.328 407.173C315.186 407.57 314.186 408.293 313.451 409.252L302.757 423.214C301.961 424.253 300.551 424.6 299.364 424.049C297.717 423.284 297.226 421.175 298.367 419.762L300.92 416.599L308.795 404.081C310.579 401.246 313.501 399.318 316.81 398.794C320.975 398.135 324.346 395.182 326.661 391.658C326.95 391.219 327.252 390.78 327.569 390.343C330.332 386.53 329.078 380.427 328.349 375.775C328.274 375.299 328.259 374.822 328.307 374.344C328.964 367.749 341.303 363.58 355.866 365.031C363.781 365.819 372.095 364.496 379.577 361.799C382.076 360.898 384.78 360.124 387.636 359.51C389.993 359.004 392.029 357.558 394.02 356.199C394.131 356.124 394.243 356.05 394.355 355.979C395.045 355.544 395.712 355.069 396.298 354.502C396.321 354.48 396.343 354.458 396.366 354.436C397.775 353.081 398.563 351.485 398.979 349.575C399.745 346.052 401.026 341.612 399.39 338.4C396.387 332.505 393.423 325.32 391.696 320.251C388.153 309.847 388.201 300.417 391.803 299.189Z" fill="url(#paint19_linear_232_16531)"/>
<path d="M391.803 299.189L391.642 298.716L391.642 298.716L391.803 299.189ZM404.745 315.807L405.218 315.646L405.218 315.646L404.745 315.807ZM409.287 342.427L409.291 341.927L409.291 341.927L409.287 342.427ZM431.004 352.655L431.504 352.659L431.504 352.659L431.004 352.655ZM417.195 362.827L417.689 362.749L417.689 362.749L417.195 362.827ZM395.718 386.476L395.796 386.97L395.796 386.97L395.718 386.476ZM353.487 388.912L353.437 389.41L353.437 389.41L353.487 388.912ZM347.263 394.462L347.668 394.756L347.668 394.756L347.263 394.462ZM324.111 407.241L323.818 407.646L323.818 407.646L324.111 407.241ZM300.92 416.599L301.309 416.913C301.321 416.898 301.333 416.882 301.343 416.866L300.92 416.599ZM327.569 390.343L327.164 390.05L327.164 390.05L327.569 390.343ZM328.307 374.344L327.809 374.294L327.809 374.294L328.307 374.344ZM355.866 365.031L355.916 364.533L355.916 364.533L355.866 365.031ZM391.696 320.251L391.223 320.412L391.223 320.412L391.696 320.251ZM398.979 349.575L398.49 349.469L398.979 349.575ZM399.39 338.4L399.835 338.173L399.39 338.4ZM396.366 354.436L396.713 354.796L396.366 354.436ZM308.795 404.081L309.218 404.348L308.795 404.081ZM299.364 424.049L299.154 424.502L299.364 424.049ZM316.328 407.173L316.164 406.7L316.328 407.173ZM313.451 409.252L313.848 409.556L313.451 409.252ZM320.078 405.869L319.913 405.397L320.078 405.869ZM348.329 392.725L347.881 392.502L348.329 392.725ZM383.866 387.283L383.852 387.783L383.866 387.283ZM399.112 389.686L398.618 389.605L399.112 389.686ZM401.805 395.581L401.712 396.072L401.805 395.581ZM398.84 391.351L398.346 391.27L398.84 391.351ZM431.033 404.392L430.661 404.058L431.033 404.392ZM425.374 403.992L424.959 404.271L425.374 403.992ZM394.02 356.199L393.738 355.786L394.02 356.199ZM431.158 399.719L431.547 399.404L431.158 399.719ZM423.41 392.117L423.563 391.641L423.41 392.117ZM427 394.577L426.611 394.892L427 394.577ZM412.596 384.285L412.114 384.416L412.596 384.285ZM417.429 390.193L417.582 389.717L417.429 390.193ZM415.501 372.765L415.772 373.186L415.501 372.765ZM415.515 372.779L415.068 372.554L415.515 372.779ZM326.661 391.658L326.243 391.383L326.661 391.658ZM419.073 359.751L419.014 359.254L419.073 359.751ZM328.349 375.775L327.855 375.852L328.349 375.775ZM415.487 372.752L415.034 372.541L415.487 372.752ZM423.698 401.502L423.283 401.781L423.698 401.502ZM419.867 398.98L419.775 399.471L419.867 398.98ZM298.367 419.762L298.756 420.076L298.367 419.762ZM409.248 342.388L409.748 342.389L409.248 342.388ZM391.803 299.189L391.964 299.663C392.666 299.424 393.542 299.582 394.583 300.229C395.62 300.874 396.75 301.965 397.902 303.443C400.201 306.396 402.513 310.804 404.272 315.968L404.745 315.807L405.218 315.646C403.433 310.405 401.075 305.891 398.691 302.829C397.5 301.3 396.285 300.111 395.111 299.38C393.941 298.653 392.742 298.341 391.642 298.716L391.803 299.189ZM404.745 315.807L404.272 315.968C406.662 322.985 408.765 335.025 408.748 342.387L409.248 342.388L409.748 342.389C409.765 334.908 407.641 322.758 405.218 315.646L404.745 315.807ZM409.287 342.427L409.283 342.927C413.654 342.962 419.02 344.464 423.292 346.476C425.426 347.481 427.263 348.601 428.554 349.709C429.2 350.263 429.697 350.802 430.028 351.309C430.359 351.818 430.507 352.267 430.504 352.651L431.004 352.655L431.504 352.659C431.509 352.014 431.263 351.373 430.865 350.763C430.466 350.151 429.896 349.542 429.205 348.95C427.823 347.764 425.901 346.599 423.718 345.571C419.356 343.517 413.846 341.964 409.291 341.927L409.287 342.427ZM431.004 352.655L430.504 352.651C430.492 354.105 429.411 355.545 427.345 356.755C425.298 357.954 422.393 358.854 419.014 359.254L419.073 359.751L419.132 360.247C422.604 359.836 425.651 358.906 427.85 357.618C430.03 356.342 431.488 354.64 431.504 352.659L431.004 352.655ZM417.195 362.827L416.701 362.905C417.128 365.601 416.65 369.08 415.034 372.541L415.487 372.752L415.94 372.964C417.627 369.351 418.151 365.671 417.689 362.749L417.195 362.827ZM415.515 372.779L415.068 372.554C411.726 379.183 411.568 382.412 412.114 384.416L412.596 384.285L413.078 384.154C412.631 382.51 412.655 379.561 415.961 373.004L415.515 372.779ZM417.429 390.193L417.275 390.669L423.257 392.593L423.41 392.117L423.563 391.641L417.582 389.717L417.429 390.193ZM427 394.577L426.611 394.892L430.769 400.033L431.158 399.719L431.547 399.404L427.388 394.263L427 394.577ZM425.374 403.992L425.789 403.713L424.113 401.223L423.698 401.502L423.283 401.781L424.959 404.271L425.374 403.992ZM419.867 398.98L419.959 398.488L401.897 395.089L401.805 395.581L401.712 396.072L419.775 399.471L419.867 398.98ZM398.84 391.351L399.333 391.431L399.605 389.766L399.112 389.686L398.618 389.605L398.346 391.27L398.84 391.351ZM395.718 386.476L395.64 385.982C391.53 386.633 387.555 386.884 383.88 386.783L383.866 387.283L383.852 387.783C387.592 387.886 391.628 387.629 395.796 386.97L395.718 386.476ZM366.487 388.68L366.412 388.186C362.559 388.763 358.164 388.876 353.536 388.415L353.487 388.912L353.437 389.41C358.14 389.878 362.619 389.766 366.561 389.175L366.487 388.68ZM348.329 392.725L347.881 392.502C347.62 393.027 347.283 393.582 346.858 394.169L347.263 394.462L347.668 394.756C348.122 394.13 348.488 393.528 348.777 392.947L348.329 392.725ZM347.263 394.462L346.858 394.169C344.375 397.596 339.456 401.324 334.731 403.913C332.374 405.204 330.093 406.197 328.22 406.724C327.282 406.988 326.465 407.13 325.802 407.142C325.129 407.155 324.676 407.033 324.405 406.836L324.111 407.241L323.818 407.646C324.342 408.026 325.051 408.156 325.82 408.142C326.599 408.128 327.507 407.964 328.491 407.687C330.461 407.132 332.815 406.103 335.212 404.79C339.994 402.17 345.06 398.355 347.668 394.756L347.263 394.462ZM320.078 405.869L319.913 405.397L316.164 406.7L316.328 407.173L316.492 407.645L320.242 406.341L320.078 405.869ZM313.451 409.252L313.054 408.948L302.36 422.91L302.757 423.214L303.154 423.518L313.848 409.556L313.451 409.252ZM298.367 419.762L298.756 420.076L301.309 416.913L300.92 416.599L300.531 416.285L297.978 419.448L298.367 419.762ZM300.92 416.599L301.343 416.866L309.218 404.348L308.795 404.081L308.372 403.815L300.497 416.333L300.92 416.599ZM326.661 391.658L327.079 391.932C327.364 391.499 327.662 391.067 327.973 390.637L327.569 390.343L327.164 390.05C326.843 390.493 326.536 390.938 326.243 391.383L326.661 391.658ZM328.349 375.775L328.843 375.697C328.774 375.263 328.761 374.828 328.804 374.393L328.307 374.344L327.809 374.294C327.757 374.816 327.774 375.336 327.855 375.852L328.349 375.775ZM328.307 374.344L328.804 374.393C329.101 371.412 332.079 368.818 337.032 367.144C341.938 365.486 348.589 364.808 355.817 365.528L355.866 365.031L355.916 364.533C348.58 363.802 341.781 364.484 336.712 366.197C331.69 367.893 328.169 370.681 327.809 374.294L328.307 374.344ZM379.577 361.799L379.746 362.27C382.223 361.377 384.906 360.608 387.741 359.999L387.636 359.51L387.531 359.021C384.654 359.639 381.928 360.42 379.407 361.329L379.577 361.799ZM394.02 356.199L394.302 356.612C394.408 356.54 394.514 356.47 394.622 356.402L394.355 355.979L394.089 355.556C393.971 355.631 393.854 355.707 393.738 355.786L394.02 356.199ZM396.298 354.502L396.646 354.861C396.668 354.839 396.69 354.818 396.713 354.796L396.366 354.436L396.02 354.076C395.996 354.098 395.973 354.12 395.95 354.142L396.298 354.502ZM399.39 338.4L399.835 338.173C396.844 332.3 393.889 325.137 392.17 320.09L391.696 320.251L391.223 320.412C392.957 325.502 395.93 332.709 398.944 338.627L399.39 338.4ZM391.696 320.251L392.17 320.09C390.411 314.926 389.551 310.024 389.57 306.282C389.579 304.408 389.809 302.854 390.237 301.71C390.666 300.562 391.263 299.902 391.965 299.663L391.803 299.189L391.642 298.716C390.542 299.091 389.782 300.069 389.3 301.36C388.816 302.655 388.58 304.339 388.57 306.277C388.55 310.157 389.438 315.172 391.223 320.412L391.696 320.251ZM398.979 349.575L399.467 349.681C399.845 347.946 400.367 345.912 400.582 343.925C400.798 341.935 400.719 339.907 399.835 338.173L399.39 338.4L398.944 338.627C399.698 340.105 399.796 341.903 399.588 343.817C399.381 345.734 398.879 347.681 398.49 349.469L398.979 349.575ZM396.366 354.436L396.713 354.796C398.205 353.361 399.034 351.671 399.467 349.681L398.979 349.575L398.49 349.469C398.092 351.3 397.345 352.8 396.02 354.076L396.366 354.436ZM308.795 404.081L309.218 404.348C310.926 401.634 313.722 399.79 316.888 399.288L316.81 398.794L316.732 398.301C313.28 398.847 310.233 400.857 308.372 403.815L308.795 404.081ZM302.757 423.214L302.36 422.91C301.707 423.763 300.549 424.048 299.575 423.595L299.364 424.049L299.154 424.502C300.553 425.152 302.216 424.743 303.154 423.518L302.757 423.214ZM316.328 407.173L316.164 406.7C314.93 407.13 313.848 407.911 313.054 408.948L313.451 409.252L313.848 409.556C314.523 408.674 315.443 408.01 316.492 407.645L316.328 407.173ZM324.111 407.241L324.405 406.836C323.81 406.405 323.109 405.908 322.367 405.588C321.62 405.266 320.774 405.097 319.913 405.397L320.078 405.869L320.242 406.341C320.778 406.155 321.35 406.238 321.971 406.506C322.598 406.777 323.215 407.209 323.818 407.646L324.111 407.241ZM353.487 388.912L353.536 388.415C352.293 388.291 351.112 388.851 350.151 389.636C349.185 390.426 348.383 391.49 347.881 392.502L348.329 392.725L348.777 392.947C349.222 392.05 349.938 391.102 350.784 390.41C351.636 389.714 352.56 389.322 353.437 389.41L353.487 388.912ZM383.866 387.283L383.88 386.783C378.06 386.623 372.131 387.329 366.412 388.186L366.487 388.68L366.561 389.175C372.267 388.319 378.124 387.625 383.852 387.783L383.866 387.283ZM399.112 389.686L399.605 389.766C399.979 387.477 397.841 385.634 395.64 385.982L395.718 386.476L395.796 386.97C397.416 386.713 398.868 388.077 398.618 389.605L399.112 389.686ZM401.805 395.581L401.897 395.089C400.192 394.768 399.053 393.145 399.333 391.431L398.84 391.351L398.346 391.27C397.979 393.519 399.473 395.651 401.712 396.072L401.805 395.581ZM394.355 355.979L394.622 356.402C395.326 355.958 396.025 355.462 396.646 354.861L396.298 354.502L395.95 354.142C395.399 354.676 394.764 355.13 394.089 355.556L394.355 355.979ZM431.033 404.392L430.661 404.058C429.311 405.555 426.914 405.385 425.789 403.713L425.374 403.992L424.959 404.271C426.448 406.483 429.618 406.707 431.404 404.727L431.033 404.392ZM387.636 359.51L387.741 359.999C390.213 359.468 392.336 357.954 394.302 356.612L394.02 356.199L393.738 355.786C391.723 357.162 389.772 358.54 387.531 359.021L387.636 359.51ZM431.158 399.719L430.769 400.033C431.728 401.219 431.682 402.925 430.661 404.058L431.033 404.392L431.404 404.727C432.754 403.23 432.815 400.972 431.547 399.404L431.158 399.719ZM355.866 365.031L355.817 365.528C363.817 366.325 372.206 364.988 379.746 362.27L379.577 361.799L379.407 361.329C371.983 364.005 363.744 365.313 355.916 364.533L355.866 365.031ZM423.41 392.117L423.257 392.593C424.575 393.017 425.741 393.816 426.611 394.892L427 394.577L427.388 394.263C426.396 393.035 425.066 392.124 423.563 391.641L423.41 392.117ZM412.596 384.285L412.114 384.416C412.438 385.608 413.125 386.965 414.016 388.119C414.901 389.265 416.033 390.27 417.275 390.669L417.429 390.193L417.582 389.717C416.612 389.406 415.633 388.577 414.807 387.508C413.987 386.445 413.364 385.204 413.078 384.154L412.596 384.285ZM415.501 372.765L415.772 373.186C415.534 373.338 415.276 373.245 415.148 373.108C415.028 372.98 414.963 372.762 415.068 372.554L415.515 372.779L415.961 373.004C416.071 372.787 416.004 372.559 415.878 372.425C415.744 372.281 415.477 372.186 415.231 372.344L415.501 372.765ZM316.81 398.794L316.888 399.288C321.243 398.599 324.721 395.522 327.079 391.932L326.661 391.658L326.243 391.383C323.972 394.842 320.706 397.671 316.732 398.301L316.81 398.794ZM419.073 359.751L419.014 359.254C418.153 359.356 417.511 359.929 417.127 360.61C416.743 361.29 416.579 362.134 416.701 362.905L417.195 362.827L417.689 362.749C417.603 362.21 417.72 361.594 417.997 361.102C418.274 360.611 418.675 360.302 419.132 360.247L419.073 359.751ZM327.569 390.343L327.973 390.637C329.45 388.599 329.828 385.987 329.768 383.362C329.708 380.736 329.204 378.003 328.843 375.697L328.349 375.775L327.855 375.852C328.222 378.199 328.71 380.844 328.768 383.385C328.827 385.928 328.45 388.274 327.164 390.05L327.569 390.343ZM415.487 372.752L415.034 372.541C414.825 372.988 415.327 373.471 415.772 373.186L415.501 372.765L415.231 372.344C415.659 372.069 416.141 372.534 415.94 372.964L415.487 372.752ZM423.698 401.502L424.113 401.223C423.15 399.792 421.654 398.807 419.959 398.488L419.867 398.98L419.775 399.471C421.206 399.741 422.47 400.573 423.283 401.781L423.698 401.502ZM299.364 424.049L299.575 423.595C298.222 422.968 297.82 421.236 298.756 420.076L298.367 419.762L297.978 419.448C296.633 421.114 297.211 423.601 299.154 424.502L299.364 424.049ZM409.248 342.388L408.748 342.387C408.748 342.687 408.99 342.925 409.283 342.927L409.287 342.427L409.291 341.927C409.542 341.929 409.749 342.133 409.748 342.389L409.248 342.388Z" fill="black"/>
<path d="M427 351.5L431 353" stroke="black" stroke-linecap="round" stroke-linejoin="round"/>
<ellipse cx="415.255" cy="348.302" rx="3.37194" ry="3" transform="rotate(18.0834 415.255 348.302)" fill="url(#paint20_radial_232_16531)" stroke="black" stroke-linecap="round" stroke-linejoin="round"/>
<rect x="-79.4117" y="329.662" width="336" height="24" transform="rotate(24.4295 -79.4117 329.662)" fill="#4D4C58" stroke="black"/>
<path d="M597.375 122.653L590.09 106.625L593.878 98.7566L603.495 95.2595L616.318 98.7566L609.615 114.493L597.375 122.653Z" fill="#BCB2A4" stroke="black"/>
<path d="M485.5 457.5C489.89 437.468 495.16 419.274 501.334 402.5C524.357 339.958 559.964 297.165 609.5 252.5C657.5 222.5 682.333 229.333 701.5 225.5L730 245.332L810 301L824.5 457.5L666 462.25L507.5 467L485.5 457.5Z" fill="url(#paint21_linear_232_16531)"/>
<path d="M507.5 389.5C517.833 387.167 546.5 389.7 578.5 418.5M501.334 402.5C497.501 417 490.7 448.4 507.5 460M666 462.25L824.5 457.5L810 301L730 245.332M666 462.25L507.5 467L485.5 457.5C506.26 362.777 546.679 309.143 609.5 252.5C657.5 222.5 682.333 229.333 701.5 225.5L730 245.332M666 462.25C665.167 452.667 667.3 423.1 682.5 381.5C697.7 339.9 726.167 325.167 738.5 323C746.833 319.555 756.8 299.197 730 245.332" stroke="black" stroke-linecap="round" stroke-linejoin="round"/>
<path d="M555.001 349.5C570.001 318.5 611.501 269.333 628.501 259.5H685.501C651.958 359.131 654 403.324 644.501 489.5L628.501 464C631.668 451.833 550.601 415.1 555.001 349.5Z" fill="#4D4C58" stroke="black" stroke-linecap="round" stroke-linejoin="round"/>
<path d="M723.324 171C723.874 175.729 742.842 183.519 743.001 188C743.451 200.72 729.501 220.5 723.324 227.5L717.501 244.5C717.501 244.5 684.494 271.504 663.001 274C624.873 278.429 608.001 262 606.001 208C578.501 126 617.873 103.929 656.001 99.5002C694.128 95.0716 715.518 103.797 723.324 171Z" fill="url(#paint22_linear_232_16531)"/>
<path d="M626.501 241.5C630.667 240.833 641.101 240.5 649.501 244.5M723.324 171C715.518 103.797 694.128 95.0716 656.001 99.5002C617.873 103.929 578.501 126 606.001 208C608.001 262 624.873 278.429 663.001 274C684.494 271.504 717.501 244.5 717.501 244.5L723.324 227.5C729.501 220.5 743.451 200.72 743.001 188C742.842 183.519 723.874 175.729 723.324 171Z" stroke="black" stroke-linecap="round" stroke-linejoin="round"/>
<path d="M626.499 181C629.999 190 631.999 204.5 627.999 210.5C622.999 218 622.486 219.963 623.499 223C624.499 226 628.999 229.5 632.499 231M635.094 229.5C635.094 228.667 635.894 226.8 639.094 226M731.499 185C728.665 183 722.199 181.8 718.999 193C718.516 194.69 718.095 196.364 717.73 198M715.499 218.5C715.357 215.245 715.672 207.208 717.73 198M717.73 198C719.986 197.833 724.199 198.8 722.999 204M726.999 185C725.499 187.333 723.399 193.2 726.999 198M722.999 216.5C726.999 214.5 730.299 210.4 733.499 198" stroke="black" stroke-linecap="round" stroke-linejoin="round"/>
<path d="M653.5 201.5C654.667 203.667 658.1 208.1 662.5 208.5C666.9 208.9 672.333 205 674.5 203M611 201.5C611.667 202.833 613.8 205.5 617 205.5C620.2 205.5 624.667 201.833 626.5 200M665.5 191L674.5 197.5M610 195L614 188.5" stroke="black" stroke-linecap="round" stroke-linejoin="round"/>
<path d="M670.5 206C668.1 207.6 665.167 208.667 664 209C664 209 667.5 210 671 209C674.5 208 675.927 207.17 677 206.5C681 204 679.296 200.005 675 202.5C674.667 202.667 672.9 204.4 670.5 206Z" fill="url(#paint23_linear_232_16531)" stroke="black" stroke-linecap="round" stroke-linejoin="round"/>
<path d="M588.5 124.5C599.3 116.1 607.333 106.333 610 102.5L631 84.5L670 87L723.5 111L745 161C745.833 165.833 747.2 179.4 746 195C744.8 210.6 725.833 240.667 716.5 246.5V231C716.5 231 729.827 222 734.5 209C738.661 197.424 739.462 179.869 727.5 177C720.02 175.206 716.5 185.5 716.5 185.5L706.373 203.644C705.871 204.544 704.5 204.187 704.5 203.156V195L702 206L697.986 209.345C697.284 209.93 696.285 209.364 696.486 208.473C698.875 197.904 707.48 172.429 699.5 170C672 170 650.333 144.667 639.5 131L645.088 140.78C646.435 143.137 645.68 146.137 643.378 147.576C641.176 148.952 638.29 148.437 636.7 146.384L627.5 134.5L637.875 154.817C638.73 156.492 637.894 158.535 636.109 159.13C634.624 159.625 633.004 158.924 632.347 157.503L618.5 127.5L609.417 147.847C607.468 152.211 602.562 154.426 598 153L594.202 154.726C593.101 155.227 591.861 155.332 590.692 155.024L588.513 154.451C585.902 153.764 584.842 150.631 586.5 148.5L576.102 146.585C573.106 146.033 572.388 142.067 575 140.5C572.229 139.115 573.155 132.835 576.032 131.688C579.892 130.15 584.188 127.854 588.5 124.5Z" fill="url(#paint24_linear_232_16531)"/>
<path d="M575 140.5C578.5 139.667 588.3 135.1 599.5 123.5M575 140.5C572.388 142.067 573.106 146.033 576.102 146.585L586.5 148.5M575 140.5C572.229 139.115 573.155 132.835 576.032 131.688C579.892 130.15 584.188 127.854 588.5 124.5C599.3 116.1 607.333 106.333 610 102.5L631 84.5L670 87L723.5 111L745 161C745.833 165.833 747.2 179.4 746 195C744.8 210.6 725.833 240.667 716.5 246.5V231C716.5 231 729.827 222 734.5 209C738.661 197.424 739.462 179.869 727.5 177C720.02 175.206 716.5 185.5 716.5 185.5L706.373 203.644C705.871 204.544 704.5 204.187 704.5 203.156V195L702 206L697.986 209.345C697.284 209.93 696.285 209.364 696.486 208.473C698.875 197.904 707.48 172.429 699.5 170M586.5 148.5C591.333 144.667 602.6 134.5 609 124.5M586.5 148.5C584.842 150.631 585.902 153.764 588.513 154.451L590.692 155.024C591.861 155.332 593.101 155.227 594.202 154.726L598 153M598 153C602.5 147 612.3 132.1 615.5 120.5M598 153C602.562 154.426 607.468 152.211 609.417 147.847L618.5 127.5L632.347 157.503C633.004 158.924 634.624 159.625 636.109 159.13C637.894 158.535 638.73 156.492 637.875 154.817L627.5 134.5L636.7 146.384C638.29 148.437 641.176 148.952 643.378 147.576C645.68 146.137 646.435 143.137 645.088 140.78L639.5 131C650.333 144.667 672 170 699.5 170M699.5 170C706.5 170 712.8 163.2 702 164C691.2 164.8 678.167 155 673 150" stroke="black" stroke-linecap="round" stroke-linejoin="round"/>
<path d="M650 171C646.8 169.8 645.333 164.5 645 162C651.5 167 660.5 165.5 665.5 169.5C668.868 172.194 673.418 178.623 676.164 182.875C676.908 184.026 676.503 185.554 675.305 186.219C674.067 186.907 672.464 186.402 671.674 185.226C670.262 183.12 667.786 180.016 664 176.5C657 170 654 172.5 650 171Z" fill="#C07E42"/>
<path d="M619 171.5C621 171.1 622 164.667 622 162C620.667 163.167 616.8 165.8 612 167C608.469 167.883 605.803 170.805 604.243 173.216C603.324 174.637 603.205 176.389 603.586 178.037C603.836 179.122 605.509 179.22 606.039 178.242C610.047 170.846 616.815 171.937 619 171.5Z" fill="#C07E42"/>
<path d="M650 171C646.8 169.8 645.333 164.5 645 162C651.5 167 660.5 165.5 665.5 169.5C668.868 172.194 673.418 178.623 676.164 182.875C676.908 184.026 676.503 185.554 675.305 186.219C674.067 186.907 672.464 186.402 671.674 185.226C670.262 183.12 667.786 180.016 664 176.5C657 170 654 172.5 650 171Z" stroke="black" stroke-linecap="round" stroke-linejoin="round"/>
<path d="M619 171.5C621 171.1 622 164.667 622 162C620.667 163.167 616.8 165.8 612 167C608.469 167.883 605.803 170.805 604.243 173.216C603.324 174.637 603.205 176.389 603.586 178.037C603.836 179.122 605.509 179.22 606.039 178.242C610.047 170.846 616.815 171.937 619 171.5Z" stroke="black" stroke-linecap="round" stroke-linejoin="round"/>
<path d="M594 120C588.589 109.096 584.466 102.574 594 95C594.111 94.9124 594.232 94.8277 594.366 94.746C597.394 92.6603 599.878 91.523 607 90C607 85.9417 609.038 82.1545 612.424 79.9181L621.382 74.0028C629.084 68.9167 638.605 67.3996 647.506 69.8402L658.364 72.8174C662.442 73.9357 666.383 75.5053 670.113 77.4972L695.5 91.0534L711.426 93.4398C716.093 94.1393 720.57 95.7822 724.581 98.2685L739.314 107.399C748.618 113.165 754.874 122.771 756.383 133.612L757.568 142.125C758.754 150.637 755.055 159.092 748 164L748.887 168.728C749.149 170.125 747.747 171.248 746.44 170.689C746.152 170.565 745.899 170.364 745.711 170.113C735.876 157.009 727.611 152.03 710 146C704.167 146.667 689.997 146.987 672.5 139C649.5 128.5 642.567 112.843 620 102.5C598.216 92.5155 586.852 99.2378 596.5 117.5L594 120Z" fill="url(#paint25_linear_232_16531)"/>
<path d="M594 95C584.466 102.574 588.589 109.096 594 120L596.5 117.5C586.852 99.2378 598.216 92.5155 620 102.5C642.567 112.843 649.5 128.5 672.5 139C689.997 146.987 704.167 146.667 710 146C727.611 152.03 735.876 157.009 745.711 170.113C745.899 170.364 746.152 170.565 746.44 170.689C747.747 171.248 749.149 170.125 748.887 168.728L748 164C755.055 159.092 758.754 150.637 757.569 142.125L756.383 133.612C754.874 122.771 748.618 113.165 739.314 107.399L724.581 98.2685C720.57 95.7822 716.093 94.1393 711.426 93.4398L695.5 91.0534M594 95C597.203 92.7504 599.594 91.5837 607 90M594 95C598 91.8223 617.2 92.4 636 106C659.5 123 657.5 128.772 679 137.5C696.2 144.483 708.834 143.743 713 142.5M607 90C613.167 87.8333 636.2 90.6 679 119M607 90C607 85.9417 609.038 82.1545 612.424 79.9181L621.382 74.0028C629.084 68.9167 638.605 67.3996 647.506 69.8402L658.364 72.8174C662.442 73.9357 666.383 75.5053 670.113 77.4972L695.5 91.0534M716 102L695.5 91.0534" stroke="black" stroke-linecap="round" stroke-linejoin="round"/>
<path d="M676.5 207.207L653.806 214.222C651.026 215.081 649.263 217.811 649.624 220.699L651 231.707C649.792 232.614 649.255 234.163 649.644 235.623L651 240.707V241.092C651 244.965 652.727 248.637 655.712 251.107L663.453 257.513C664.804 258.631 666.367 259.464 668.048 259.962L679 263.207C679.333 262.374 679.5 259.707 677.5 255.707C676.536 253.779 674.836 252.393 673.072 251.437C670.041 249.795 666.838 248.158 664.769 245.4L663.5 243.707L671 238.207C677.5 251.874 691.9 280.807 697.5 287.207C703.1 293.607 709.833 292.874 712.5 291.707L719.5 327.707L746.5 302.707C742.333 287.707 736.5 269.5 728 259.207C721.112 250.867 699.5 223.207 690.5 212.707C683.3 204.307 679.5 206 676.5 207.207Z" fill="url(#paint26_linear_232_16531)"/>
<path d="M651 240.707V241.092C651 244.965 652.727 248.637 655.712 251.107L663.453 257.513C664.804 258.631 666.367 259.464 668.048 259.962L679 263.207C679.333 262.374 679.5 259.707 677.5 255.707C676.536 253.779 674.836 252.393 673.072 251.437C670.041 249.795 666.838 248.158 664.769 245.4L663.5 243.707L671 238.207C677.5 251.874 691.9 280.807 697.5 287.207C703.1 293.607 709.833 292.874 712.5 291.707L719.5 327.707L746.5 302.707C742.333 287.707 736.5 269.5 728 259.207C721.112 250.867 699.5 223.207 690.5 212.707C683.3 204.307 679.5 206 676.5 207.207L653.806 214.222C651.026 215.081 649.263 217.811 649.624 220.699L651 231.707M651 240.707L669.5 220.707M651 240.707L649.644 235.623C649.255 234.163 649.792 232.614 651 231.707M651 231.707L668 214.707" stroke="black" stroke-linecap="round" stroke-linejoin="round"/>
<path d="M791.5 383.5L746.5 292L670 352L728.5 468.5H797L791.5 383.5Z" fill="url(#paint27_linear_232_16531)" stroke="black" stroke-linecap="round" stroke-linejoin="round"/>
<path d="M627.932 310.738L646.451 320.601C650.197 322.596 653.373 325.511 655.68 329.072L656.704 330.652C658.495 333.416 658.313 337.017 656.252 339.586L655.933 339.983C653.664 346.01 647.898 350 641.459 350H635.704L625.556 355.138C624.436 355.705 623.198 356 621.943 356H617.893C614.997 356 612.328 357.564 610.913 360.09L608.287 364.779C606.929 367.202 607.004 370.147 607.741 372.826C608.594 375.927 609.166 380.419 608.461 386.5C607.352 396.071 593.704 416.165 593.704 419H580.289C575.644 414.701 571.437 410.772 567.585 407C551.905 391.645 551.204 359.5 554.5 348.5C554.5 348.5 562.398 343.918 567.585 343.5C580 342.5 582 342.5 587.704 332L590.493 320.956C590.493 320.956 563.204 310.37 551.204 301.5C540.279 293.425 536.463 278.229 533.014 256.744C532.416 253.023 534.725 249.457 538.353 248.44C540.477 247.844 542.756 248.219 544.578 249.463L548.773 252.327C563.229 262.201 576.034 274.298 586.712 288.17L576.704 275.167C567.8 263.463 565.795 255.731 567.163 242.51C567.388 240.342 568.842 238.505 570.87 237.706C573.422 236.702 576.321 237.545 577.866 239.811C581.784 245.557 589.132 256.869 593.704 267.234C600.751 283.208 608.461 306.63 608.461 306.63H611.48C617.217 306.63 622.867 308.041 627.932 310.738Z" fill="#C07E42"/>
<path d="M627.932 310.738L646.451 320.601C650.197 322.596 653.373 325.511 655.68 329.072L656.704 330.652C658.495 333.416 658.313 337.017 656.252 339.586L655.933 339.983C653.664 346.01 647.898 350 641.459 350H635.704L625.556 355.138C624.436 355.705 623.198 356 621.943 356H617.893C614.997 356 612.328 357.564 610.913 360.09L608.287 364.779C606.929 367.202 607.004 370.147 607.741 372.826C608.594 375.927 609.166 380.419 608.461 386.5C607.352 396.071 593.704 416.165 593.704 419H580.289C575.644 414.701 571.437 410.772 567.585 407C551.905 391.645 551.204 359.5 554.5 348.5C554.5 348.5 562.398 343.918 567.585 343.5C580 342.5 582 342.5 587.704 332L590.493 320.956C590.493 320.956 563.204 310.37 551.204 301.5C540.279 293.425 536.463 278.229 533.014 256.744C532.416 253.023 534.725 249.457 538.353 248.44C540.477 247.844 542.756 248.219 544.578 249.463L548.773 252.327C563.229 262.201 576.034 274.298 586.712 288.17L576.704 275.167C567.8 263.463 565.795 255.731 567.163 242.51C567.388 240.342 568.842 238.505 570.87 237.706C573.422 236.702 576.321 237.545 577.866 239.811C581.784 245.557 589.132 256.869 593.704 267.234C600.751 283.208 608.461 306.63 608.461 306.63H611.48C617.217 306.63 622.867 308.041 627.932 310.738Z" fill="url(#paint28_radial_232_16531)" fill-opacity="0.2"/>
<path d="M627.932 310.738L646.451 320.601C650.197 322.596 653.373 325.511 655.68 329.072L656.704 330.652C658.495 333.416 658.313 337.017 656.252 339.586L655.933 339.983C653.664 346.01 647.898 350 641.459 350H635.704L625.556 355.138C624.436 355.705 623.198 356 621.943 356H617.893C614.997 356 612.328 357.564 610.913 360.09L608.287 364.779C606.929 367.202 607.004 370.147 607.741 372.826C608.594 375.927 609.166 380.419 608.461 386.5C607.352 396.071 593.704 416.165 593.704 419H580.289C575.644 414.701 571.437 410.772 567.585 407C551.905 391.645 551.204 359.5 554.5 348.5C554.5 348.5 562.398 343.918 567.585 343.5C580 342.5 582 342.5 587.704 332L590.493 320.956C590.493 320.956 563.204 310.37 551.204 301.5C540.279 293.425 536.463 278.229 533.014 256.744C532.416 253.023 534.725 249.457 538.353 248.44C540.477 247.844 542.756 248.219 544.578 249.463L548.773 252.327C563.229 262.201 576.034 274.298 586.712 288.17L576.704 275.167C567.8 263.463 565.795 255.731 567.163 242.51C567.388 240.342 568.842 238.505 570.87 237.706C573.422 236.702 576.321 237.545 577.866 239.811C581.784 245.557 589.132 256.869 593.704 267.234C600.751 283.208 608.461 306.63 608.461 306.63H611.48C617.217 306.63 622.867 308.041 627.932 310.738Z" fill="url(#paint29_radial_232_16531)"/>
<path d="M627.932 310.738L646.451 320.601C650.197 322.596 653.373 325.511 655.68 329.072L656.704 330.652C658.495 333.416 658.313 337.017 656.252 339.586L655.933 339.983C653.664 346.01 647.898 350 641.459 350H635.704L625.556 355.138C624.436 355.705 623.198 356 621.943 356H617.893C614.997 356 612.328 357.564 610.913 360.09L608.287 364.779C606.929 367.202 607.004 370.147 607.741 372.826C608.594 375.927 609.166 380.419 608.461 386.5C607.352 396.071 593.704 416.165 593.704 419H580.289C575.644 414.701 571.437 410.772 567.585 407C551.905 391.645 551.204 359.5 554.5 348.5C554.5 348.5 562.398 343.918 567.585 343.5C580 342.5 582 342.5 587.704 332L590.493 320.956C590.493 320.956 563.204 310.37 551.204 301.5C540.279 293.425 536.463 278.229 533.014 256.744C532.416 253.023 534.725 249.457 538.353 248.44C540.477 247.844 542.756 248.219 544.578 249.463L548.773 252.327C563.229 262.201 576.034 274.298 586.712 288.17L576.704 275.167C567.8 263.463 565.795 255.731 567.163 242.51C567.388 240.342 568.842 238.505 570.87 237.706C573.422 236.702 576.321 237.545 577.866 239.811C581.784 245.557 589.132 256.869 593.704 267.234C600.751 283.208 608.461 306.63 608.461 306.63H611.48C617.217 306.63 622.867 308.041 627.932 310.738Z" fill="url(#paint30_radial_232_16531)"/>
<path d="M601.204 307L586.719 288.179C576.039 274.303 563.232 262.203 548.773 252.327L544.578 249.463C542.756 248.219 540.477 247.844 538.353 248.44C534.725 249.457 532.416 253.023 533.014 256.744C536.463 278.229 540.279 293.425 551.204 301.5C563.204 310.37 590.493 320.956 590.493 320.956M601.204 307L608.461 306.63M601.204 307L576.704 275.167C567.8 263.463 565.795 255.731 567.163 242.51C567.388 240.342 568.842 238.505 570.87 237.706C573.422 236.702 576.321 237.545 577.866 239.811C581.784 245.557 589.132 256.869 593.704 267.234C600.751 283.208 608.461 306.63 608.461 306.63M601.204 307C600.204 310.5 594.3 308.316 592.704 310.5C591.147 312.631 594.204 316.5 590.493 320.956M580.289 419H593.704C593.704 416.165 607.352 396.071 608.461 386.5C609.166 380.419 608.594 375.927 607.741 372.826C607.004 370.147 606.929 367.202 608.287 364.779L610.913 360.09C612.328 357.564 614.997 356 617.893 356H621.943C623.198 356 624.436 355.705 625.556 355.138L635.704 350H641.459C647.898 350 653.664 346.01 655.933 339.983M580.289 419L587.704 388M580.289 419C575.644 414.701 571.437 410.772 567.585 407M590.493 320.956L587.704 332C582 342.5 580 342.5 567.585 343.5C562.398 343.918 554.5 348.5 554.5 348.5C551.204 359.5 551.905 391.645 567.585 407M608.461 306.63H611.48C617.217 306.63 622.867 308.041 627.932 310.738L646.451 320.601C650.197 322.596 653.373 325.511 655.68 329.072L656.704 330.652M645.204 330.5L654.204 336.5L656.704 330.652M656.704 330.652C658.495 333.416 658.313 337.017 656.252 339.586L655.933 339.983M655.933 339.983L654.204 339C650.901 337.752 643.324 338.583 635.704 341M565.204 392L567.585 407M623.5 313.5C624.765 313 628.137 312.8 631.5 316" stroke="black" stroke-linecap="round" stroke-linejoin="round"/>
<ellipse cx="617.31" cy="324.321" rx="9.34331" ry="5.75509" transform="rotate(18.0834 617.31 324.321)" fill="url(#paint31_radial_232_16531)" stroke="black" stroke-linecap="round" stroke-linejoin="round"/>
<path d="M615 332.5C614.53 331.326 609 329 610 326.5C614 330.5 621.5 329.5 625 329C623.5 332.5 619 331.5 618.5 333C618 334.5 619.5 341.5 617 341C614.5 340.5 616 335 615 332.5Z" fill="url(#paint32_linear_232_16531)" stroke="black" stroke-linecap="round" stroke-linejoin="round"/>
<path d="M577.633 458.76C607.214 445.373 596.226 457.847 621 430.76C621.91 425.936 622.523 421.313 622.859 417C623.246 412.035 623.266 407.48 622.953 403.5C622.634 399.464 621.972 396.019 621 393.337C619.189 388.341 616.3 385.993 612.551 387.406L568.459 409.704C572.985 403.35 568.459 394.541 564.02 396.92L530.853 426.019C525.226 430.956 522 438.078 522 445.563V449.841L577.633 458.76Z" fill="#FFD5BE"/>
<path d="M568.459 409.704L612.551 387.406C616.3 385.993 619.189 388.341 621 393.337M568.459 409.704C572.985 403.35 568.459 394.541 564.02 396.92L530.853 426.019C525.226 430.956 522 438.078 522 445.563V449.841L577.633 458.76C607.214 445.373 596.226 457.847 621 430.76C621.91 425.936 622.523 421.313 622.859 417M568.459 409.704L548.041 424.272M581.5 419.5L621 393.337M621 393.337C621.972 396.019 622.634 399.464 622.953 403.5M588 430.76L622.953 403.5M622.953 403.5C623.266 407.48 623.246 412.035 622.859 417M593.5 441L622.859 417" stroke="black" stroke-linecap="round" stroke-linejoin="round"/>
<path d="M248.277 425.803L242.604 429.629L250.144 429.553C256.94 428.232 260.502 426.809 266.615 423.614L249.371 421.821L241.555 424.328L248.277 425.803Z" fill="#E64CD0"/>
<path d="M248.277 425.803L242.604 429.629L250.144 429.553C256.94 428.232 260.502 426.809 266.615 423.614L249.371 421.821L241.555 424.328L248.277 425.803Z" fill="#FF855F" fill-opacity="0.49"/>
<path d="M248.277 425.803L242.604 429.629L250.144 429.553C256.94 428.232 260.502 426.809 266.615 423.614L249.371 421.821L241.555 424.328L248.277 425.803Z" stroke="black" stroke-linecap="round" stroke-linejoin="round"/>
<path d="M249.66 414.945L243.634 414.157L249.377 419.316L266.296 422.967L252.431 412.072L245.972 410.861L249.66 414.945Z" fill="#E64CD0"/>
<path d="M249.66 414.945L243.634 414.157L249.377 419.316L266.296 422.967L252.431 412.072L245.972 410.861L249.66 414.945Z" fill="#FF855F" fill-opacity="0.49"/>
<path d="M249.66 414.945L243.634 414.157L249.377 419.316L266.296 422.967L252.431 412.072L245.972 410.861L249.66 414.945Z" stroke="black" stroke-linecap="round" stroke-linejoin="round"/>
<path d="M249.758 400.995L266.654 424.207C266.454 417.835 265.458 414.318 261.178 408.183L255.255 403.246L257.841 407.977L249.758 400.995Z" fill="#E64CD0"/>
<path d="M249.758 400.995L266.654 424.207C266.454 417.835 265.458 414.318 261.178 408.183L255.255 403.246L257.841 407.977L249.758 400.995Z" fill="#FF855F" fill-opacity="0.49"/>
<path d="M249.758 400.995L266.654 424.207C266.454 417.835 265.458 414.318 261.178 408.183L255.255 403.246L257.841 407.977L249.758 400.995Z" stroke="black" stroke-linecap="round" stroke-linejoin="round"/>
<path d="M261.872 425.973L266.49 418.29L269.687 424.898C281.435 433.617 285.125 449.266 285.501 456L283.502 456.5C283.502 455.333 282.901 451 280.501 443C278.101 435 271.835 428.315 269.001 425.973L261.872 425.973Z" fill="#99CCA2"/>
<path d="M269.687 424.898L266.49 418.29L261.872 425.973L269.001 425.973M269.687 424.898L269.001 425.973M269.687 424.898C281.435 433.617 285.125 449.266 285.501 456L283.502 456.5C283.502 455.333 282.901 451 280.501 443C278.101 435 271.835 428.315 269.001 425.973" stroke="black" stroke-linecap="round" stroke-linejoin="round"/>
<path d="M348.786 433.953L338.906 434.706L348.451 440.01L373.436 444.33L353.015 429.724L341.381 427.281L348.786 433.953Z" fill="#E64CD0"/>
<path d="M348.786 433.953L338.906 434.706L348.451 440.01L373.436 444.33L353.015 429.724L341.381 427.281L348.786 433.953Z" fill="#FF855F" fill-opacity="0.49"/>
<path d="M348.786 433.953L338.906 434.706L348.451 440.01L373.436 444.33L353.015 429.724L341.381 427.281L348.786 433.953Z" stroke="black" stroke-linecap="round" stroke-linejoin="round"/>
<path d="M358.303 421.277L351.282 415.969L354.816 426.576L373.497 443.288L363.848 419.645L356.586 413.495L358.303 421.277Z" fill="#E64CD0"/>
<path d="M358.303 421.277L351.282 415.969L354.816 426.576L373.497 443.288L363.848 419.645L356.586 413.495L358.303 421.277Z" fill="#FF855F" fill-opacity="0.49"/>
<path d="M358.303 421.277L351.282 415.969L354.816 426.576L373.497 443.288L363.848 419.645L356.586 413.495L358.303 421.277Z" stroke="black" stroke-linecap="round" stroke-linejoin="round"/>
<path d="M368.414 403.788L373.059 445.105C377.625 435.768 380.152 430.532 377.642 421.013L373.722 410.557L373.588 418.364L368.414 403.788Z" fill="#E64CD0"/>
<path d="M368.414 403.788L373.059 445.105C377.625 435.768 380.152 430.532 377.642 421.013L373.722 410.557L373.588 418.364L368.414 403.788Z" fill="#FF855F" fill-opacity="0.49"/>
<path d="M368.414 403.788L373.059 445.105C377.625 435.768 380.152 430.532 377.642 421.013L373.722 410.557L373.588 418.364L368.414 403.788Z" stroke="black" stroke-linecap="round" stroke-linejoin="round"/>
<path d="M377.088 437.538L365.773 443.901L373.551 450.266L376.38 448.145L377.088 437.538Z" fill="#99CCA2" stroke="black" stroke-linecap="round" stroke-linejoin="round"/>
</g>
<rect x="0.5" y="0.5" width="779" height="449" stroke="black"/>
<defs>
<linearGradient id="paint0_linear_232_16531" x1="579.911" y1="15.2948" x2="390" y2="450" gradientUnits="userSpaceOnUse">
<stop offset="0.0716516" stop-color="#D4D8E3"/>
<stop offset="0.32962" stop-color="#F8F8FA"/>
<stop offset="1" stop-color="#A1A6B0"/>
</linearGradient>
<linearGradient id="paint1_linear_232_16531" x1="390" y1="0" x2="390" y2="450" gradientUnits="userSpaceOnUse">
<stop stop-color="#CCD7F1" stop-opacity="0"/>
<stop offset="0.630182" stop-color="#B3A081"/>
<stop offset="1" stop-color="#8AA892"/>
</linearGradient>
<linearGradient id="paint2_linear_232_16531" x1="390" y1="0" x2="390" y2="469" gradientUnits="userSpaceOnUse">
<stop stop-color="#8AA892" stop-opacity="0"/>
<stop offset="0.341415" stop-color="#8AA892" stop-opacity="0"/>
<stop offset="0.707554" stop-color="#8AA892"/>
<stop offset="0.835413" stop-color="#B3A081"/>
<stop offset="1" stop-color="#8AA892"/>
</linearGradient>
<linearGradient id="paint3_linear_232_16531" x1="88.1879" y1="-58.3734" x2="353.561" y2="281.634" gradientUnits="userSpaceOnUse">
<stop stop-color="white" stop-opacity="0"/>
<stop offset="0.404509" stop-color="#B0AEC4" stop-opacity="0.685746"/>
<stop offset="1" stop-color="#5B6A73" stop-opacity="0.73"/>
</linearGradient>
<linearGradient id="paint4_linear_232_16531" x1="192.699" y1="271.5" x2="192.699" y2="288" gradientUnits="userSpaceOnUse">
<stop stop-color="#FFD5BE"/>
<stop offset="1" stop-color="#E1A98B"/>
</linearGradient>
<linearGradient id="paint5_linear_232_16531" x1="163.943" y1="189.217" x2="162.411" y2="291.148" gradientUnits="userSpaceOnUse">
<stop stop-color="#93A9C3"/>
<stop offset="1" stop-color="#6E757E"/>
</linearGradient>
<linearGradient id="paint6_linear_232_16531" x1="110.449" y1="176.102" x2="110.449" y2="288.565" gradientUnits="userSpaceOnUse">
<stop stop-color="#93A9C3"/>
<stop offset="1" stop-color="#6E757E"/>
</linearGradient>
<linearGradient id="paint7_linear_232_16531" x1="98.2083" y1="267.5" x2="98.2083" y2="300.5" gradientUnits="userSpaceOnUse">
<stop stop-color="#FFD5BE"/>
<stop offset="1" stop-color="#E1A98B"/>
</linearGradient>
<linearGradient id="paint8_linear_232_16531" x1="153.247" y1="133.379" x2="153.247" y2="186.518" gradientUnits="userSpaceOnUse">
<stop stop-color="#FFD5BE"/>
<stop offset="1" stop-color="#E1A98B"/>
</linearGradient>
<linearGradient id="paint9_linear_232_16531" x1="145.925" y1="131.343" x2="150.926" y2="161.031" gradientUnits="userSpaceOnUse">
<stop stop-color="#FFF4E3"/>
<stop offset="1" stop-color="#C0BCB6"/>
</linearGradient>
<linearGradient id="paint10_linear_232_16531" x1="139.565" y1="157.204" x2="136.442" y2="168.92" gradientUnits="userSpaceOnUse">
<stop stop-color="#FFD5BE"/>
<stop offset="1" stop-color="#E1A98B"/>
</linearGradient>
<linearGradient id="paint11_linear_232_16531" x1="123.638" y1="184.648" x2="72.2186" y2="271.963" gradientUnits="userSpaceOnUse">
<stop stop-color="#93A9C3"/>
<stop offset="1" stop-color="#6E757E"/>
</linearGradient>
<linearGradient id="paint12_linear_232_16531" x1="635.5" y1="-6" x2="635.5" y2="469" gradientUnits="userSpaceOnUse">
<stop stop-color="#DDE0E9"/>
<stop offset="1" stop-color="#B1B8CC"/>
</linearGradient>
<linearGradient id="paint13_linear_232_16531" x1="813.5" y1="16" x2="813.5" y2="549" gradientUnits="userSpaceOnUse">
<stop stop-color="#C7B18D"/>
<stop offset="1" stop-color="#959594"/>
</linearGradient>
<radialGradient id="paint14_radial_232_16531" cx="0" cy="0" r="1" gradientTransform="matrix(3.15212 29.0965 -80.2351 -6.04444 407.269 371.927)" gradientUnits="userSpaceOnUse">
<stop stop-color="#4D4C58" stop-opacity="0.68"/>
<stop offset="1" stop-opacity="0"/>
</radialGradient>
<radialGradient id="paint15_radial_232_16531" cx="0" cy="0" r="1" gradientTransform="matrix(4.61409 15.3851 -41.6152 -1.37101 366.578 389.56)" gradientUnits="userSpaceOnUse">
<stop stop-color="#4D4C58"/>
<stop offset="1" stop-opacity="0"/>
</radialGradient>
<linearGradient id="paint16_linear_232_16531" x1="350.828" y1="410.701" x2="353.51" y2="396.112" gradientUnits="userSpaceOnUse">
<stop stop-color="#A4A4A4"/>
<stop offset="1" stop-color="#C17E42" stop-opacity="0"/>
</linearGradient>
<radialGradient id="paint17_radial_232_16531" cx="0" cy="0" r="1" gradientTransform="matrix(16.5 60.9997 -78.3662 21.1974 392.617 301.904)" gradientUnits="userSpaceOnUse">
<stop stop-color="#4D4C58"/>
<stop offset="1" stop-opacity="0"/>
</radialGradient>
<radialGradient id="paint18_radial_232_16531" cx="0" cy="0" r="1" gradientTransform="matrix(11.5 30.9999 -39.8254 14.7739 362.501 357)" gradientUnits="userSpaceOnUse">
<stop stop-color="#4D4C58"/>
<stop offset="1" stop-opacity="0"/>
</radialGradient>
<linearGradient id="paint19_linear_232_16531" x1="357.501" y1="409" x2="356.5" y2="376.5" gradientUnits="userSpaceOnUse">
<stop stop-color="#A4A4A4"/>
<stop offset="1" stop-color="#C17E42" stop-opacity="0"/>
</linearGradient>
<radialGradient id="paint20_radial_232_16531" cx="0" cy="0" r="1" gradientUnits="userSpaceOnUse" gradientTransform="translate(415.255 348.302) rotate(90) scale(3 3.37194)">
<stop offset="0.505628" stop-color="#4D4C58"/>
<stop offset="1" stop-color="#969696"/>
</radialGradient>
<linearGradient id="paint21_linear_232_16531" x1="654.482" y1="225.5" x2="654.482" y2="467" gradientUnits="userSpaceOnUse">
<stop stop-color="#8AA892"/>
<stop offset="1" stop-color="#60836A"/>
</linearGradient>
<linearGradient id="paint22_linear_232_16531" x1="660.853" y1="98.9367" x2="680.945" y2="271.916" gradientUnits="userSpaceOnUse">
<stop stop-color="#FFD5BE"/>
<stop offset="0.0643896" stop-color="#FED0B6"/>
<stop offset="0.590745" stop-color="#FECEB5"/>
<stop offset="1" stop-color="#FABC9A"/>
</linearGradient>
<linearGradient id="paint23_linear_232_16531" x1="671.631" y1="201.711" x2="671.631" y2="209.444" gradientUnits="userSpaceOnUse">
<stop stop-color="#7EAAFF"/>
<stop offset="1" stop-color="#CCDDFF"/>
</linearGradient>
<linearGradient id="paint24_linear_232_16531" x1="654.736" y1="84.5" x2="654.736" y2="246.5" gradientUnits="userSpaceOnUse">
<stop stop-color="#C07E42"/>
<stop offset="1" stop-color="#756455"/>
</linearGradient>
<linearGradient id="paint25_linear_232_16531" x1="659" y1="79.5" x2="673.897" y2="172" gradientUnits="userSpaceOnUse">
<stop stop-color="#FFF4E3"/>
<stop offset="1" stop-color="#D5C5AE"/>
</linearGradient>
<linearGradient id="paint26_linear_232_16531" x1="697.75" y1="206.201" x2="697.75" y2="327.707" gradientUnits="userSpaceOnUse">
<stop offset="0.0336482" stop-color="#FFD5BE"/>
<stop offset="1" stop-color="#FABC9A"/>
</linearGradient>
<linearGradient id="paint27_linear_232_16531" x1="733.5" y1="292" x2="733.5" y2="468.5" gradientUnits="userSpaceOnUse">
<stop stop-color="#8AA892"/>
<stop offset="1" stop-color="#60836A"/>
</linearGradient>
<radialGradient id="paint28_radial_232_16531" cx="0" cy="0" r="1" gradientUnits="userSpaceOnUse" gradientTransform="translate(595.852 327.5) rotate(90) scale(91.5 63.8522)">
<stop stop-color="#B87A43" stop-opacity="0"/>
<stop offset="1" stop-color="#4D4C58"/>
</radialGradient>
<radialGradient id="paint29_radial_232_16531" cx="0" cy="0" r="1" gradientTransform="matrix(49 52.5 -28.8571 44.5938 561 233.5)" gradientUnits="userSpaceOnUse">
<stop stop-color="#4D4C58"/>
<stop offset="1" stop-opacity="0"/>
</radialGradient>
<radialGradient id="paint30_radial_232_16531" cx="0" cy="0" r="1" gradientTransform="matrix(17.5 -52.5 40.8126 3.11698 573 412.5)" gradientUnits="userSpaceOnUse">
<stop stop-color="#A4A4A4"/>
<stop offset="1" stop-color="#A4A4A4" stop-opacity="0"/>
</radialGradient>
<radialGradient id="paint31_radial_232_16531" cx="0" cy="0" r="1" gradientUnits="userSpaceOnUse" gradientTransform="translate(617.31 324.321) rotate(90) scale(5.75509 15.557)">
<stop offset="0.349977" stop-color="#4D4C58"/>
<stop offset="0.675002" stop-color="#F26899"/>
</radialGradient>
<linearGradient id="paint32_linear_232_16531" x1="617.439" y1="326.5" x2="617.439" y2="341.026" gradientUnits="userSpaceOnUse">
<stop stop-color="#7EAAFF"/>
<stop offset="1" stop-color="#CCDDFF"/>
</linearGradient>
<clipPath id="clip0_232_16531">
<rect width="780" height="450" fill="white"/>
</clipPath>
</defs>
</svg>
