<svg width="384" height="384" viewBox="0 0 384 384" fill="none" xmlns="http://www.w3.org/2000/svg">
<g clip-path="url(#clip0_210_2128)">
<path d="M95.3398 242.73C95.3398 225.609 109.219 211.73 126.34 211.73H278.34C295.461 211.73 309.34 225.609 309.34 242.73V294.73C309.34 307.433 299.042 317.73 286.34 317.73H118.34C105.637 317.73 95.3398 307.433 95.3398 294.73V242.73Z" fill="#2C404F" stroke="black"/>
<path d="M122.34 227.73H144.34V333.73H122.34V227.73Z" fill="#2C404F" stroke="black"/>
<path d="M258.34 227.73H280.34V333.73H258.34V227.73Z" fill="#2C404F" stroke="black"/>
<path d="M247.514 281.407C250.794 280.12 254.34 282.539 254.34 286.061L254.34 297.32C254.34 299.377 253.08 301.224 251.165 301.975L236.585 307.693C231.467 309.7 226.018 310.73 220.521 310.73L180.491 310.73C174.455 310.73 168.483 309.488 162.947 307.081L151.346 302.037C149.521 301.243 148.34 299.442 148.34 297.452L148.34 286.356C148.34 282.755 152.031 280.335 155.333 281.771L162.947 285.081C168.483 287.488 174.455 288.73 180.491 288.73L220.521 288.73C226.018 288.73 231.467 287.7 236.585 285.693L247.514 281.407Z" fill="#6B7C85" stroke="black"/>
<mask id="path-5-inside-1_210_2128" fill="white">
<path d="M266.65 36.0006C265.215 40.5322 267.725 45.3696 272.257 46.8049C272.439 46.8625 272.621 46.9137 272.803 46.9587C276.259 47.8105 280.334 48.6864 283.509 50.2964C284.105 50.5987 284.733 50.8569 285.392 51.0653C290.378 52.6448 295.619 50.9208 298.758 47.1217C298.856 47.0032 299.016 46.9587 299.163 47.0051C303.535 48.3899 308.203 45.9687 309.588 41.5965C310.973 37.2241 308.551 32.5561 304.178 31.1711C304.022 31.1217 303.866 31.0772 303.709 31.0374C300.81 30.301 297.594 29.5481 294.944 28.1586C294.305 27.8232 293.627 27.5391 292.914 27.3134C288.652 25.9637 284.206 27.027 281.043 29.7361C280.073 30.5676 278.673 30.7801 277.455 30.3942C272.923 28.9589 268.086 31.4689 266.65 36.0006ZM182.304 32.209C186.889 40.0633 196.973 42.7131 204.828 38.1278C205.312 37.8449 205.928 37.9022 206.348 38.2748C212.539 43.7729 221.798 44.9505 229.337 40.5489C231.266 39.4228 233.672 39.2679 235.77 40.0342C240.215 41.6579 245.324 41.3628 249.731 38.7903C257.585 34.205 260.235 24.1201 255.65 16.2658C252.107 10.1983 245.283 7.23723 238.741 8.31817C235.633 8.83177 232.267 8.31251 229.566 6.68994C223.604 3.10796 215.923 2.80346 209.493 6.5575C206.745 8.16161 203.295 8.56389 200.194 7.85403C196.258 6.95322 191.985 7.48899 188.223 9.68529C180.368 14.2706 177.719 24.3548 182.304 32.209ZM99.2987 43.371C97.8634 47.9027 100.373 52.7401 104.905 54.1753C105.087 54.2328 105.268 54.2839 105.451 54.3288C108.906 55.181 112.982 56.0567 116.156 57.6664C116.752 57.9689 117.381 58.2272 118.04 58.4357C123.026 60.0149 128.265 58.2914 131.404 54.4932C131.503 54.3742 131.664 54.3297 131.811 54.3763C136.183 55.7612 140.85 53.3389 142.235 48.9664C143.62 44.594 141.198 39.9273 136.826 38.5424C136.67 38.493 136.514 38.4484 136.357 38.4087C133.458 37.6721 130.242 36.9188 127.592 35.5298C126.953 35.1944 126.275 34.9104 125.562 34.6846C121.299 33.3347 116.852 34.3978 113.689 37.1075C112.719 37.9387 111.321 38.1503 110.103 37.7646C105.571 36.3293 100.734 38.8395 99.2987 43.371Z"/>
</mask>
<path d="M266.65 36.0006C265.215 40.5322 267.725 45.3696 272.257 46.8049C272.439 46.8625 272.621 46.9137 272.803 46.9587C276.259 47.8105 280.334 48.6864 283.509 50.2964C284.105 50.5987 284.733 50.8569 285.392 51.0653C290.378 52.6448 295.619 50.9208 298.758 47.1217C298.856 47.0032 299.016 46.9587 299.163 47.0051C303.535 48.3899 308.203 45.9687 309.588 41.5965C310.973 37.2241 308.551 32.5561 304.178 31.1711C304.022 31.1217 303.866 31.0772 303.709 31.0374C300.81 30.301 297.594 29.5481 294.944 28.1586C294.305 27.8232 293.627 27.5391 292.914 27.3134C288.652 25.9637 284.206 27.027 281.043 29.7361C280.073 30.5676 278.673 30.7801 277.455 30.3942C272.923 28.9589 268.086 31.4689 266.65 36.0006ZM182.304 32.209C186.889 40.0633 196.973 42.7131 204.828 38.1278C205.312 37.8449 205.928 37.9022 206.348 38.2748C212.539 43.7729 221.798 44.9505 229.337 40.5489C231.266 39.4228 233.672 39.2679 235.77 40.0342C240.215 41.6579 245.324 41.3628 249.731 38.7903C257.585 34.205 260.235 24.1201 255.65 16.2658C252.107 10.1983 245.283 7.23723 238.741 8.31817C235.633 8.83177 232.267 8.31251 229.566 6.68994C223.604 3.10796 215.923 2.80346 209.493 6.5575C206.745 8.16161 203.295 8.56389 200.194 7.85403C196.258 6.95322 191.985 7.48899 188.223 9.68529C180.368 14.2706 177.719 24.3548 182.304 32.209ZM99.2987 43.371C97.8634 47.9027 100.373 52.7401 104.905 54.1753C105.087 54.2328 105.268 54.2839 105.451 54.3288C108.906 55.181 112.982 56.0567 116.156 57.6664C116.752 57.9689 117.381 58.2272 118.04 58.4357C123.026 60.0149 128.265 58.2914 131.404 54.4932C131.503 54.3742 131.664 54.3297 131.811 54.3763C136.183 55.7612 140.85 53.3389 142.235 48.9664C143.62 44.594 141.198 39.9273 136.826 38.5424C136.67 38.493 136.514 38.4484 136.357 38.4087C133.458 37.6721 130.242 36.9188 127.592 35.5298C126.953 35.1944 126.275 34.9104 125.562 34.6846C121.299 33.3347 116.852 34.3978 113.689 37.1075C112.719 37.9387 111.321 38.1503 110.103 37.7646C105.571 36.3293 100.734 38.8395 99.2987 43.371Z" fill="white"/>
<path d="M266.65 36.0006L265.697 35.6987L265.697 35.6987L266.65 36.0006ZM272.257 46.8049L271.955 47.7583L271.955 47.7583L272.257 46.8049ZM285.392 51.0653L285.09 52.0187L285.09 52.0187L285.392 51.0653ZM299.163 47.0051L298.861 47.9585L298.861 47.9584L299.163 47.0051ZM309.588 41.5965L310.541 41.8984L310.541 41.8985L309.588 41.5965ZM304.178 31.1711L304.48 30.2178L304.48 30.2178L304.178 31.1711ZM292.914 27.3134L293.216 26.3601L293.216 26.3601L292.914 27.3134ZM277.455 30.3942L277.757 29.4408L277.757 29.4408L277.455 30.3942ZM182.304 32.209L181.44 32.7132L181.44 32.7132L182.304 32.209ZM204.828 38.1278L205.332 38.9914L205.332 38.9914L204.828 38.1278ZM229.337 40.5489L229.842 41.4125L229.842 41.4125L229.337 40.5489ZM249.731 38.7903L250.235 39.654L250.235 39.654L249.731 38.7903ZM255.65 16.2658L256.513 15.7616L256.513 15.7616L255.65 16.2658ZM209.493 6.5575L208.989 5.6939L208.989 5.6939L209.493 6.5575ZM188.223 9.68529L187.718 8.82169L187.718 8.82168L188.223 9.68529ZM99.2987 43.371L98.3454 43.0691L98.3454 43.0691L99.2987 43.371ZM104.905 54.1753L104.603 55.1287L104.603 55.1287L104.905 54.1753ZM118.04 58.4357L117.738 59.3891L117.738 59.3891L118.04 58.4357ZM131.811 54.3763L131.509 55.3297L131.509 55.3297L131.811 54.3763ZM142.235 48.9664L143.189 49.2683L143.189 49.2683L142.235 48.9664ZM136.826 38.5424L137.128 37.589L137.128 37.589L136.826 38.5424ZM125.562 34.6846L125.864 33.7313L125.864 33.7313L125.562 34.6846ZM110.103 37.7646L110.405 36.8112L110.405 36.8112L110.103 37.7646ZM303.709 31.0374L303.955 30.0682L303.709 31.0374ZM298.758 47.1217L297.987 46.4847L298.758 47.1217ZM131.404 54.4932L132.175 55.1302L131.404 54.4932ZM235.77 40.0342L235.427 40.9735L235.77 40.0342ZM113.689 37.1075L113.039 36.3481L113.689 37.1075ZM281.043 29.7361L280.393 28.9767L281.043 29.7361ZM238.741 8.31817L238.904 9.3048L238.741 8.31817ZM229.566 6.68994L230.081 5.83274L229.566 6.68994ZM272.803 46.9587L272.564 47.9296L272.803 46.9587ZM283.509 50.2964L283.961 49.4045L283.509 50.2964ZM105.451 54.3288L105.69 53.3579L105.451 54.3288ZM206.348 38.2748L207.012 37.527L206.348 38.2748ZM266.65 36.0006L267.604 36.3025C266.335 40.3076 268.554 44.5831 272.559 45.8516L272.257 46.8049L271.955 47.7583C266.897 46.1561 264.095 40.7567 265.697 35.6987L266.65 36.0006ZM272.257 46.8049L272.559 45.8516C272.72 45.9026 272.881 45.948 273.043 45.9878L272.803 46.9587L272.564 47.9296C272.36 47.8795 272.157 47.8224 271.955 47.7583L272.257 46.8049ZM283.509 50.2964L283.961 49.4045C284.509 49.6825 285.087 49.92 285.694 50.112L285.392 51.0653L285.09 52.0187C284.38 51.7938 283.701 51.515 283.056 51.1882L283.509 50.2964ZM285.392 51.0653L285.694 50.112C290.278 51.5641 295.098 49.9807 297.987 46.4847L298.758 47.1217L299.529 47.7587C296.139 51.861 290.479 53.7255 285.09 52.0187L285.392 51.0653ZM299.163 47.0051L299.465 46.0518C303.311 47.2699 307.416 45.1401 308.634 41.2945L309.588 41.5965L310.541 41.8985C308.989 46.7973 303.76 49.51 298.861 47.9585L299.163 47.0051ZM309.588 41.5965L308.634 41.2946C309.853 37.4486 307.722 33.3426 303.876 32.1245L304.178 31.1711L304.48 30.2178C309.379 31.7695 312.093 36.9996 310.541 41.8984L309.588 41.5965ZM304.178 31.1711L303.876 32.1245C303.739 32.0809 303.601 32.0417 303.463 32.0066L303.709 31.0374L303.955 30.0682C304.131 30.1127 304.306 30.1626 304.48 30.2178L304.178 31.1711ZM294.944 28.1586L294.48 29.0442C293.892 28.736 293.268 28.4746 292.612 28.2667L292.914 27.3134L293.216 26.3601C293.985 26.6036 294.717 26.9105 295.409 27.273L294.944 28.1586ZM292.914 27.3134L292.612 28.2668C288.694 27.0258 284.605 28.0018 281.694 30.4956L281.043 29.7361L280.393 28.9767C283.806 26.0523 288.611 24.9015 293.216 26.3601L292.914 27.3134ZM277.455 30.3942L277.153 31.3475C273.148 30.079 268.872 32.2974 267.604 36.3026L266.65 36.0006L265.697 35.6987C267.299 30.6404 272.698 27.8388 277.757 29.4408L277.455 30.3942ZM182.304 32.209L183.167 31.7048C187.474 39.0821 196.946 41.571 204.323 37.2642L204.828 38.1278L205.332 38.9914C197.001 43.8551 186.304 41.0444 181.44 32.7132L182.304 32.209ZM206.348 38.2748L207.012 37.527C212.889 42.7466 221.678 43.8625 228.833 39.6853L229.337 40.5489L229.842 41.4125C221.918 46.0386 212.189 44.7993 205.684 39.0225L206.348 38.2748ZM235.77 40.0342L236.113 39.0949C240.291 40.6208 245.088 40.3428 249.226 37.9267L249.731 38.7903L250.235 39.654C245.56 42.3828 240.14 42.6949 235.427 40.9735L235.77 40.0342ZM249.731 38.7903L249.226 37.9267C256.604 33.6199 259.093 24.1473 254.786 16.77L255.65 16.2658L256.513 15.7616C261.377 24.0929 258.566 34.7902 250.235 39.654L249.731 38.7903ZM255.65 16.2658L254.786 16.77C251.46 11.0723 245.051 8.28921 238.904 9.3048L238.741 8.31817L238.578 7.33155C245.516 6.18526 252.755 9.32425 256.513 15.7616L255.65 16.2658ZM229.566 6.68994L229.051 7.54713C223.39 4.14564 216.099 3.85852 209.997 7.42111L209.493 6.5575L208.989 5.6939C215.747 1.7484 223.819 2.07029 230.081 5.83274L229.566 6.68994ZM200.194 7.85403L199.971 8.82883C196.273 7.98245 192.261 8.48575 188.727 10.5489L188.223 9.68529L187.718 8.82168C191.709 6.49222 196.243 5.92399 200.417 6.87924L200.194 7.85403ZM188.223 9.68529L188.727 10.5489C181.35 14.8558 178.861 24.3275 183.167 31.7048L182.304 32.209L181.44 32.7132C176.577 24.382 179.387 13.6855 187.718 8.82169L188.223 9.68529ZM99.2987 43.371L100.252 43.673C98.9835 47.6782 101.202 51.9535 105.207 53.222L104.905 54.1753L104.603 55.1287C99.545 53.5266 96.7434 48.1272 98.3454 43.0691L99.2987 43.371ZM104.905 54.1753L105.207 53.222C105.368 53.2729 105.529 53.3182 105.69 53.3579L105.451 54.3288L105.211 55.2997C105.008 55.2496 104.805 55.1927 104.603 55.1287L104.905 54.1753ZM116.156 57.6664L116.608 56.7745C117.157 57.0526 117.735 57.2903 118.342 57.4824L118.04 58.4357L117.738 59.3891C117.028 59.1641 116.348 58.8852 115.704 58.5582L116.156 57.6664ZM118.04 58.4357L118.342 57.4824C122.926 58.9342 127.745 57.3513 130.634 53.8561L131.404 54.4932L132.175 55.1302C128.785 59.2315 123.127 61.0956 117.738 59.3891L118.04 58.4357ZM131.811 54.3763L132.113 53.423C135.959 54.6411 140.064 52.5105 141.282 48.6644L142.235 48.9664L143.189 49.2683C141.637 54.1672 136.408 56.8813 131.509 55.3297L131.811 54.3763ZM142.235 48.9664L141.282 48.6645C142.5 44.8186 140.37 40.7139 136.524 39.4957L136.826 38.5424L137.128 37.589C142.027 39.1408 144.74 44.3694 143.189 49.2683L142.235 48.9664ZM136.826 38.5424L136.524 39.4957C136.387 39.4521 136.249 39.4129 136.111 39.3779L136.357 38.4087L136.604 37.4395C136.779 37.484 136.954 37.5338 137.128 37.589L136.826 38.5424ZM127.592 35.5298L127.128 36.4155C126.54 36.1072 125.916 35.8459 125.26 35.638L125.562 34.6846L125.864 33.7313C126.633 33.9749 127.365 34.2816 128.057 34.6441L127.592 35.5298ZM125.562 34.6846L125.26 35.638C121.341 34.3968 117.251 35.3726 114.34 37.8669L113.689 37.1075L113.039 36.3481C116.453 33.423 121.258 32.2726 125.864 33.7313L125.562 34.6846ZM110.103 37.7646L109.801 38.7179C105.796 37.4494 101.521 39.6679 100.252 43.673L99.2987 43.371L98.3454 43.0691C99.9475 38.011 105.347 35.2092 110.405 36.8112L110.103 37.7646ZM303.709 31.0374L303.463 32.0066C300.609 31.2818 297.257 30.501 294.48 29.0442L294.944 28.1586L295.409 27.273C297.93 28.5951 301.01 29.3203 303.955 30.0682L303.709 31.0374ZM136.357 38.4087L136.111 39.3779C133.257 38.6529 129.906 37.8717 127.128 36.4155L127.592 35.5298L128.057 34.6441C130.578 35.9659 133.659 36.6914 136.604 37.4395L136.357 38.4087ZM298.758 47.1217L297.987 46.4847C298.354 46.0407 298.944 45.8867 299.465 46.0518L299.163 47.0051L298.861 47.9584C299.089 48.0307 299.358 47.9656 299.529 47.7587L298.758 47.1217ZM131.404 54.4932L130.634 53.8561C131.001 53.411 131.592 53.2581 132.113 53.423L131.811 54.3763L131.509 55.3297C131.735 55.4014 132.004 55.3374 132.175 55.1302L131.404 54.4932ZM229.337 40.5489L228.833 39.6853C231.036 38.3993 233.754 38.2333 236.113 39.0949L235.77 40.0342L235.427 40.9735C233.589 40.3024 231.496 40.4464 229.842 41.4125L229.337 40.5489ZM209.493 6.5575L209.997 7.42111C207.007 9.16691 203.292 9.58909 199.971 8.82883L200.194 7.85403L200.417 6.87924C203.298 7.5387 206.484 7.1563 208.989 5.6939L209.493 6.5575ZM113.689 37.1075L114.34 37.8669C113.075 38.9505 111.306 39.1947 109.801 38.7179L110.103 37.7646L110.405 36.8112C111.335 37.1059 112.363 36.9269 113.039 36.3481L113.689 37.1075ZM281.043 29.7361L281.694 30.4956C280.429 31.5791 278.659 31.8246 277.153 31.3475L277.455 30.3942L277.757 29.4408C278.687 29.7356 279.716 29.5561 280.393 28.9767L281.043 29.7361ZM238.741 8.31817L238.904 9.3048C235.589 9.85257 231.978 9.30551 229.051 7.54713L229.566 6.68994L230.081 5.83274C232.556 7.31951 235.676 7.81097 238.578 7.33155L238.741 8.31817ZM272.803 46.9587L273.043 45.9878C276.436 46.8242 280.658 47.729 283.961 49.4045L283.509 50.2964L283.056 51.1882C280.011 49.6437 276.082 48.7967 272.564 47.9296L272.803 46.9587ZM105.451 54.3288L105.69 53.3579C109.083 54.1947 113.305 55.0993 116.608 56.7745L116.156 57.6664L115.704 58.5582C112.658 57.014 108.729 56.1672 105.211 55.2997L105.451 54.3288ZM204.828 38.1278L204.323 37.2642C205.176 36.7661 206.264 36.8635 207.012 37.527L206.348 38.2748L205.684 39.0225C205.592 38.9409 205.448 38.9236 205.332 38.9914L204.828 38.1278Z" fill="black" mask="url(#path-5-inside-1_210_2128)"/>
<mask id="mask0_210_2128" style="mask-type:alpha" maskUnits="userSpaceOnUse" x="76" y="57" width="252" height="197">
<path d="M77.3398 65.7305L168 73.5L327.34 58V213.73C327.34 235.27 309.879 252.73 288.34 252.73H116.34C94.8007 252.73 77.3398 235.27 77.3398 213.73V65.7305Z" fill="#0CA677" stroke="black"/>
</mask>
<g mask="url(#mask0_210_2128)">
<path d="M77.3398 65.7305L168 73.5L327.34 58V213.73C327.34 235.27 309.879 252.73 288.34 252.73H116.34C94.8007 252.73 77.3398 235.27 77.3398 213.73V65.7305Z" fill="#7BAC9D" stroke="black"/>
<path d="M90.4415 142.021L77.5 144V66L168 73.5C165 86 146.632 85.3529 133.5 91.5C124.118 95.8914 119.863 101.584 118.222 107.847C113.953 124.129 107.08 139.476 90.4415 142.021Z" fill="#C6826D" stroke="black" stroke-linecap="round" stroke-linejoin="round"/>
<path d="M276.76 253.909L256.5 252.5L286.963 176.57C288.893 171.759 292.804 168.013 297.694 166.293L344 150C351 156.5 362.7 164.4 361.5 180C360 199.5 337.133 194.353 324 200.5C314.938 204.742 311.18 211.685 310.059 219.524C307.28 238.949 296.335 255.271 276.76 253.909Z" fill="#C6826D" stroke="black" stroke-linecap="round" stroke-linejoin="round"/>
</g>
<path d="M77.3398 217.73H327.34V252.73L279.84 272.73H122.34L77.3398 252.73V217.73Z" fill="#EA9292" stroke="black"/>
<circle cx="143.34" cy="244.73" r="23" fill="#A0B1BA" stroke="black"/>
<circle cx="261.34" cy="244.73" r="23" fill="#A0B1BA" stroke="black"/>
<circle cx="158.84" cy="187.23" r="14.5" fill="#D1D1D1" stroke="black"/>
<circle cx="243.84" cy="187.23" r="14.5" fill="#D1D1D1" stroke="black"/>
<path d="M151.998 198.5L155.122 184.442L149.631 184.759L161.998 174.5" stroke="white" stroke-linecap="round"/>
<mask id="path-17-inside-2_210_2128" fill="white">
<path d="M293.34 76.7305H313.34V57.7305H318.34V315.73H313.34V298.73H293.34V315.73H288.34V44.7305H293.34V76.7305ZM293.34 278.73V293.73H313.34V278.73H293.34ZM293.34 259.73V273.73H313.34V259.73H293.34ZM293.34 240.73V254.73H313.34V240.73H293.34ZM293.34 220.73V235.73H313.34V220.73H293.34ZM293.34 201.73V215.73H313.34V201.73H293.34ZM293.34 180.73V196.73H313.34V180.73H293.34ZM293.34 160.73V175.73H313.34V160.73H293.34ZM293.34 141.73V155.73H313.34V141.73H293.34ZM293.34 120.73V136.73H313.34V120.73H293.34ZM293.34 100.73V115.73H313.34V100.73H293.34ZM293.34 81.7305V95.7305H313.34V81.7305H293.34Z"/>
</mask>
<path d="M293.34 76.7305H313.34V57.7305H318.34V315.73H313.34V298.73H293.34V315.73H288.34V44.7305H293.34V76.7305ZM293.34 278.73V293.73H313.34V278.73H293.34ZM293.34 259.73V273.73H313.34V259.73H293.34ZM293.34 240.73V254.73H313.34V240.73H293.34ZM293.34 220.73V235.73H313.34V220.73H293.34ZM293.34 201.73V215.73H313.34V201.73H293.34ZM293.34 180.73V196.73H313.34V180.73H293.34ZM293.34 160.73V175.73H313.34V160.73H293.34ZM293.34 141.73V155.73H313.34V141.73H293.34ZM293.34 120.73V136.73H313.34V120.73H293.34ZM293.34 100.73V115.73H313.34V100.73H293.34ZM293.34 81.7305V95.7305H313.34V81.7305H293.34Z" fill="#A0B1BA"/>
<path d="M293.34 76.7305H292.34V77.7305H293.34V76.7305ZM313.34 76.7305V77.7305H314.34V76.7305H313.34ZM313.34 57.7305V56.7305H312.34V57.7305H313.34ZM318.34 57.7305H319.34V56.7305H318.34V57.7305ZM318.34 315.73V316.73H319.34V315.73H318.34ZM313.34 315.73H312.34V316.73H313.34V315.73ZM313.34 298.73H314.34V297.73H313.34V298.73ZM293.34 298.73V297.73H292.34V298.73H293.34ZM293.34 315.73V316.73H294.34V315.73H293.34ZM288.34 315.73H287.34V316.73H288.34V315.73ZM288.34 44.7305V43.7305H287.34V44.7305H288.34ZM293.34 44.7305H294.34V43.7305H293.34V44.7305ZM293.34 278.73V277.73H292.34V278.73H293.34ZM293.34 293.73H292.34V294.73H293.34V293.73ZM313.34 293.73V294.73H314.34V293.73H313.34ZM313.34 278.73H314.34V277.73H313.34V278.73ZM293.34 259.73V258.73H292.34V259.73H293.34ZM293.34 273.73H292.34V274.73H293.34V273.73ZM313.34 273.73V274.73H314.34V273.73H313.34ZM313.34 259.73H314.34V258.73H313.34V259.73ZM293.34 240.73V239.73H292.34V240.73H293.34ZM293.34 254.73H292.34V255.73H293.34V254.73ZM313.34 254.73V255.73H314.34V254.73H313.34ZM313.34 240.73H314.34V239.73H313.34V240.73ZM293.34 220.73V219.73H292.34V220.73H293.34ZM293.34 235.73H292.34V236.73H293.34V235.73ZM313.34 235.73V236.73H314.34V235.73H313.34ZM313.34 220.73H314.34V219.73H313.34V220.73ZM293.34 201.73V200.73H292.34V201.73H293.34ZM293.34 215.73H292.34V216.73H293.34V215.73ZM313.34 215.73V216.73H314.34V215.73H313.34ZM313.34 201.73H314.34V200.73H313.34V201.73ZM293.34 180.73V179.73H292.34V180.73H293.34ZM293.34 196.73H292.34V197.73H293.34V196.73ZM313.34 196.73V197.73H314.34V196.73H313.34ZM313.34 180.73H314.34V179.73H313.34V180.73ZM293.34 160.73V159.73H292.34V160.73H293.34ZM293.34 175.73H292.34V176.73H293.34V175.73ZM313.34 175.73V176.73H314.34V175.73H313.34ZM313.34 160.73H314.34V159.73H313.34V160.73ZM293.34 141.73V140.73H292.34V141.73H293.34ZM293.34 155.73H292.34V156.73H293.34V155.73ZM313.34 155.73V156.73H314.34V155.73H313.34ZM313.34 141.73H314.34V140.73H313.34V141.73ZM293.34 120.73V119.73H292.34V120.73H293.34ZM293.34 136.73H292.34V137.73H293.34V136.73ZM313.34 136.73V137.73H314.34V136.73H313.34ZM313.34 120.73H314.34V119.73H313.34V120.73ZM293.34 100.73V99.7305H292.34V100.73H293.34ZM293.34 115.73H292.34V116.73H293.34V115.73ZM313.34 115.73V116.73H314.34V115.73H313.34ZM313.34 100.73H314.34V99.7305H313.34V100.73ZM293.34 81.7305V80.7305H292.34V81.7305H293.34ZM293.34 95.7305H292.34V96.7305H293.34V95.7305ZM313.34 95.7305V96.7305H314.34V95.7305H313.34ZM313.34 81.7305H314.34V80.7305H313.34V81.7305ZM293.34 76.7305V77.7305H313.34V76.7305V75.7305H293.34V76.7305ZM313.34 76.7305H314.34V57.7305H313.34H312.34V76.7305H313.34ZM313.34 57.7305V58.7305H318.34V57.7305V56.7305H313.34V57.7305ZM318.34 57.7305H317.34V315.73H318.34H319.34V57.7305H318.34ZM318.34 315.73V314.73H313.34V315.73V316.73H318.34V315.73ZM313.34 315.73H314.34V298.73H313.34H312.34V315.73H313.34ZM313.34 298.73V297.73H293.34V298.73V299.73H313.34V298.73ZM293.34 298.73H292.34V315.73H293.34H294.34V298.73H293.34ZM293.34 315.73V314.73H288.34V315.73V316.73H293.34V315.73ZM288.34 315.73H289.34V44.7305H288.34H287.34V315.73H288.34ZM288.34 44.7305V45.7305H293.34V44.7305V43.7305H288.34V44.7305ZM293.34 44.7305H292.34V76.7305H293.34H294.34V44.7305H293.34ZM293.34 278.73H292.34V293.73H293.34H294.34V278.73H293.34ZM293.34 293.73V294.73H313.34V293.73V292.73H293.34V293.73ZM313.34 293.73H314.34V278.73H313.34H312.34V293.73H313.34ZM313.34 278.73V277.73H293.34V278.73V279.73H313.34V278.73ZM293.34 259.73H292.34V273.73H293.34H294.34V259.73H293.34ZM293.34 273.73V274.73H313.34V273.73V272.73H293.34V273.73ZM313.34 273.73H314.34V259.73H313.34H312.34V273.73H313.34ZM313.34 259.73V258.73H293.34V259.73V260.73H313.34V259.73ZM293.34 240.73H292.34V254.73H293.34H294.34V240.73H293.34ZM293.34 254.73V255.73H313.34V254.73V253.73H293.34V254.73ZM313.34 254.73H314.34V240.73H313.34H312.34V254.73H313.34ZM313.34 240.73V239.73H293.34V240.73V241.73H313.34V240.73ZM293.34 220.73H292.34V235.73H293.34H294.34V220.73H293.34ZM293.34 235.73V236.73H313.34V235.73V234.73H293.34V235.73ZM313.34 235.73H314.34V220.73H313.34H312.34V235.73H313.34ZM313.34 220.73V219.73H293.34V220.73V221.73H313.34V220.73ZM293.34 201.73H292.34V215.73H293.34H294.34V201.73H293.34ZM293.34 215.73V216.73H313.34V215.73V214.73H293.34V215.73ZM313.34 215.73H314.34V201.73H313.34H312.34V215.73H313.34ZM313.34 201.73V200.73H293.34V201.73V202.73H313.34V201.73ZM293.34 180.73H292.34V196.73H293.34H294.34V180.73H293.34ZM293.34 196.73V197.73H313.34V196.73V195.73H293.34V196.73ZM313.34 196.73H314.34V180.73H313.34H312.34V196.73H313.34ZM313.34 180.73V179.73H293.34V180.73V181.73H313.34V180.73ZM293.34 160.73H292.34V175.73H293.34H294.34V160.73H293.34ZM293.34 175.73V176.73H313.34V175.73V174.73H293.34V175.73ZM313.34 175.73H314.34V160.73H313.34H312.34V175.73H313.34ZM313.34 160.73V159.73H293.34V160.73V161.73H313.34V160.73ZM293.34 141.73H292.34V155.73H293.34H294.34V141.73H293.34ZM293.34 155.73V156.73H313.34V155.73V154.73H293.34V155.73ZM313.34 155.73H314.34V141.73H313.34H312.34V155.73H313.34ZM313.34 141.73V140.73H293.34V141.73V142.73H313.34V141.73ZM293.34 120.73H292.34V136.73H293.34H294.34V120.73H293.34ZM293.34 136.73V137.73H313.34V136.73V135.73H293.34V136.73ZM313.34 136.73H314.34V120.73H313.34H312.34V136.73H313.34ZM313.34 120.73V119.73H293.34V120.73V121.73H313.34V120.73ZM293.34 100.73H292.34V115.73H293.34H294.34V100.73H293.34ZM293.34 115.73V116.73H313.34V115.73V114.73H293.34V115.73ZM313.34 115.73H314.34V100.73H313.34H312.34V115.73H313.34ZM313.34 100.73V99.7305H293.34V100.73V101.73H313.34V100.73ZM293.34 81.7305H292.34V95.7305H293.34H294.34V81.7305H293.34ZM293.34 95.7305V96.7305H313.34V95.7305V94.7305H293.34V95.7305ZM313.34 95.7305H314.34V81.7305H313.34H312.34V95.7305H313.34ZM313.34 81.7305V80.7305H293.34V81.7305V82.7305H313.34V81.7305Z" fill="black" mask="url(#path-17-inside-2_210_2128)"/>
<mask id="path-19-inside-3_210_2128" fill="white">
<path d="M198.683 54.4394L198.684 54.4401L195.019 57.8417L184.76 67.3681L184.761 67.3688L181.096 70.7704L154.716 95.2668L154.717 95.2676L151.052 98.6691L140.793 108.196L140.794 108.196L137.13 111.599L137.129 111.598L96.8264 149.022L96.827 149.023L93.1624 152.425L23.5476 217.068L20.1453 213.404L32.6027 201.836L18.9936 187.181L6.53548 198.749L3.13319 195.085L192.192 19.5271L195.595 23.191L181.672 36.1197L195.281 50.7755L218.731 29.0001L222.133 32.6641L198.683 54.4394ZM22.6575 183.778L36.2667 198.434L47.2585 188.227L33.6493 173.571L22.6575 183.778ZM37.3133 170.169L50.9224 184.825L61.1814 175.299L47.5723 160.643L37.3133 170.169ZM51.2362 157.241L64.8454 171.896L75.1044 162.37L61.4953 147.714L51.2362 157.241ZM65.1592 144.312L78.7683 158.968L89.7602 148.761L76.151 134.105L65.1592 144.312ZM79.8149 130.703L93.4241 145.358L103.682 135.833L90.0732 121.177L79.8149 130.703ZM93.7372 117.775L107.346 132.43L119.071 121.543L105.462 106.887L93.7372 117.775ZM109.126 103.485L122.735 118.141L133.727 107.934L120.118 93.2781L109.126 103.485ZM123.781 89.8759L137.391 104.532L147.65 95.0052L134.04 80.3495L123.781 89.8759ZM137.704 76.9472L151.314 91.6029L163.038 80.7156L149.429 66.0598L137.704 76.9472ZM153.093 62.6576L166.702 77.3133L177.694 67.1064L164.085 52.4507L153.093 62.6576ZM167.749 49.0484L181.358 63.7041L191.617 54.1777L178.008 39.522L167.749 49.0484ZM137.979 -17.0328C141.408 -14.2471 141.929 -9.20881 139.144 -5.77944L135.676 -1.51095L132.572 -4.03199L136.039 -8.30187C137.432 -10.0166 137.171 -12.5354 135.456 -13.9282L122.649 -24.3308C120.934 -25.7237 118.415 -25.4627 117.022 -23.748L113.554 -19.4788L110.45 -22.0012L113.917 -26.2697C116.703 -29.6991 121.741 -30.2215 125.171 -27.4361L137.979 -17.0328Z"/>
</mask>
<path d="M198.683 54.4394L198.684 54.4401L195.019 57.8417L184.76 67.3681L184.761 67.3688L181.096 70.7704L154.716 95.2668L154.717 95.2676L151.052 98.6691L140.793 108.196L140.794 108.196L137.13 111.599L137.129 111.598L96.8264 149.022L96.827 149.023L93.1624 152.425L23.5476 217.068L20.1453 213.404L32.6027 201.836L18.9936 187.181L6.53548 198.749L3.13319 195.085L192.192 19.5271L195.595 23.191L181.672 36.1197L195.281 50.7755L218.731 29.0001L222.133 32.6641L198.683 54.4394ZM22.6575 183.778L36.2667 198.434L47.2585 188.227L33.6493 173.571L22.6575 183.778ZM37.3133 170.169L50.9224 184.825L61.1814 175.299L47.5723 160.643L37.3133 170.169ZM51.2362 157.241L64.8454 171.896L75.1044 162.37L61.4953 147.714L51.2362 157.241ZM65.1592 144.312L78.7683 158.968L89.7602 148.761L76.151 134.105L65.1592 144.312ZM79.8149 130.703L93.4241 145.358L103.682 135.833L90.0732 121.177L79.8149 130.703ZM93.7372 117.775L107.346 132.43L119.071 121.543L105.462 106.887L93.7372 117.775ZM109.126 103.485L122.735 118.141L133.727 107.934L120.118 93.2781L109.126 103.485ZM123.781 89.8759L137.391 104.532L147.65 95.0052L134.04 80.3495L123.781 89.8759ZM137.704 76.9472L151.314 91.6029L163.038 80.7156L149.429 66.0598L137.704 76.9472ZM153.093 62.6576L166.702 77.3133L177.694 67.1064L164.085 52.4507L153.093 62.6576ZM167.749 49.0484L181.358 63.7041L191.617 54.1777L178.008 39.522L167.749 49.0484ZM137.979 -17.0328C141.408 -14.2471 141.929 -9.20881 139.144 -5.77944L135.676 -1.51095L132.572 -4.03199L136.039 -8.30187C137.432 -10.0166 137.171 -12.5354 135.456 -13.9282L122.649 -24.3308C120.934 -25.7237 118.415 -25.4627 117.022 -23.748L113.554 -19.4788L110.45 -22.0012L113.917 -26.2697C116.703 -29.6991 121.741 -30.2215 125.171 -27.4361L137.979 -17.0328Z" fill="#A0B1BA"/>
<path d="M198.683 54.4394L198.003 53.7066L197.27 54.3871L197.95 55.1198L198.683 54.4394ZM198.684 54.4401L199.364 55.173L200.097 54.4926L199.417 53.7596L198.684 54.4401ZM195.019 57.8417L194.339 57.1088L194.339 57.1089L195.019 57.8417ZM184.76 67.3681L184.08 66.6353L183.347 67.3158L184.027 68.0485L184.76 67.3681ZM184.761 67.3688L185.441 68.1017L186.174 67.4213L185.494 66.6883L184.761 67.3688ZM181.096 70.7704L180.416 70.0375L180.416 70.0376L181.096 70.7704ZM154.716 95.2668L154.035 94.5341L153.303 95.2145L153.983 95.9473L154.716 95.2668ZM154.717 95.2676L155.397 96.0005L156.13 95.32L155.449 94.5871L154.717 95.2676ZM151.052 98.6691L150.372 97.9362L150.371 97.9363L151.052 98.6691ZM140.793 108.196L140.112 107.463L139.38 108.143L140.06 108.876L140.793 108.196ZM140.794 108.196L141.474 108.929L142.207 108.249L141.526 107.516L140.794 108.196ZM137.13 111.599L136.397 112.279L137.077 113.012L137.81 112.331L137.13 111.599ZM137.129 111.598L137.862 110.917L137.181 110.185L136.449 110.865L137.129 111.598ZM96.8264 149.022L96.1459 148.29L95.4131 148.97L96.0936 149.703L96.8264 149.022ZM96.827 149.023L97.5074 149.756L98.2404 149.076L97.5598 148.343L96.827 149.023ZM93.1624 152.425L92.4821 151.692L92.482 151.692L93.1624 152.425ZM23.5476 217.068L22.8149 217.749L23.4953 218.481L24.2281 217.801L23.5476 217.068ZM20.1453 213.404L19.4649 212.671L18.7321 213.352L19.4126 214.085L20.1453 213.404ZM32.6027 201.836L33.2832 202.569L34.016 201.889L33.3355 201.156L32.6027 201.836ZM18.9936 187.181L19.7264 186.5L19.0459 185.767L18.3131 186.448L18.9936 187.181ZM6.53548 198.749L5.80269 199.43L6.48315 200.162L7.21594 199.482L6.53548 198.749ZM3.13319 195.085L2.45274 194.352L1.71995 195.033L2.40041 195.766L3.13319 195.085ZM192.192 19.5271L192.925 18.8466L192.245 18.1138L191.512 18.7943L192.192 19.5271ZM195.595 23.191L196.275 23.9238L197.008 23.2433L196.327 22.5106L195.595 23.191ZM181.672 36.1197L180.991 35.3869L180.258 36.0674L180.939 36.8002L181.672 36.1197ZM195.281 50.7755L194.548 51.4559L195.229 52.1887L195.961 51.5082L195.281 50.7755ZM218.731 29.0001L219.464 28.3197L218.783 27.5869L218.05 28.2674L218.731 29.0001ZM222.133 32.6641L222.813 33.3969L223.546 32.7164L222.866 31.9836L222.133 32.6641ZM22.6575 183.778L21.9771 183.046L21.2443 183.726L21.9247 184.459L22.6575 183.778ZM36.2667 198.434L35.5339 199.115L36.2143 199.847L36.9471 199.167L36.2667 198.434ZM47.2585 188.227L47.9389 188.96L48.6717 188.28L47.9913 187.547L47.2585 188.227ZM33.6493 173.571L34.3821 172.891L33.7017 172.158L32.9689 172.839L33.6493 173.571ZM37.3133 170.169L36.6328 169.436L35.9 170.117L36.5805 170.85L37.3133 170.169ZM50.9224 184.825L50.1896 185.505L50.8701 186.238L51.6029 185.558L50.9224 184.825ZM61.1814 175.299L61.8619 176.031L62.5947 175.351L61.9142 174.618L61.1814 175.299ZM47.5723 160.643L48.3051 159.962L47.6246 159.23L46.8918 159.91L47.5723 160.643ZM51.2362 157.241L50.5558 156.508L49.823 157.188L50.5034 157.921L51.2362 157.241ZM64.8454 171.896L64.1126 172.577L64.7931 173.309L65.5258 172.629L64.8454 171.896ZM75.1044 162.37L75.7849 163.103L76.5177 162.422L75.8372 161.689L75.1044 162.37ZM61.4953 147.714L62.228 147.034L61.5476 146.301L60.8148 146.981L61.4953 147.714ZM65.1592 144.312L64.4787 143.579L63.7459 144.259L64.4264 144.992L65.1592 144.312ZM78.7683 158.968L78.0356 159.648L78.716 160.381L79.4488 159.7L78.7683 158.968ZM89.7602 148.761L90.4406 149.493L91.1734 148.813L90.4929 148.08L89.7602 148.761ZM76.151 134.105L76.8838 133.424L76.2033 132.692L75.4705 133.372L76.151 134.105ZM79.8149 130.703L79.1345 129.97L78.4017 130.65L79.0822 131.383L79.8149 130.703ZM93.4241 145.358L92.6913 146.039L93.3718 146.772L94.1046 146.091L93.4241 145.358ZM103.682 135.833L104.363 136.565L105.096 135.885L104.415 135.152L103.682 135.833ZM90.0732 121.177L90.806 120.496L90.1256 119.764L89.3928 120.444L90.0732 121.177ZM93.7372 117.775L93.0567 117.042L92.3239 117.722L93.0044 118.455L93.7372 117.775ZM107.346 132.43L106.614 133.111L107.294 133.844L108.027 133.163L107.346 132.43ZM119.071 121.543L119.751 122.276L120.484 121.595L119.804 120.863L119.071 121.543ZM105.462 106.887L106.195 106.207L105.514 105.474L104.781 106.155L105.462 106.887ZM109.126 103.485L108.445 102.752L107.712 103.433L108.393 104.165L109.126 103.485ZM122.735 118.141L122.002 118.821L122.683 119.554L123.415 118.874L122.735 118.141ZM133.727 107.934L134.407 108.667L135.14 107.986L134.459 107.253L133.727 107.934ZM120.118 93.2781L120.85 92.5977L120.17 91.8649L119.437 92.5454L120.118 93.2781ZM123.781 89.8759L123.101 89.1431L122.368 89.8235L123.049 90.5563L123.781 89.8759ZM137.391 104.532L136.658 105.212L137.338 105.945L138.071 105.264L137.391 104.532ZM147.65 95.0052L148.33 95.738L149.063 95.0575L148.382 94.3247L147.65 95.0052ZM134.04 80.3495L134.773 79.669L134.093 78.9362L133.36 79.6167L134.04 80.3495ZM137.704 76.9472L137.024 76.2144L136.291 76.8948L136.972 77.6276L137.704 76.9472ZM151.314 91.6029L150.581 92.2834L151.261 93.0162L151.994 92.3357L151.314 91.6029ZM163.038 80.7156L163.719 81.4484L164.451 80.7679L163.771 80.0351L163.038 80.7156ZM149.429 66.0598L150.162 65.3794L149.481 64.6466L148.749 65.3271L149.429 66.0598ZM153.093 62.6576L152.413 61.9248L151.68 62.6052L152.36 63.338L153.093 62.6576ZM166.702 77.3133L165.969 77.9938L166.65 78.7265L167.383 78.0461L166.702 77.3133ZM177.694 67.1064L178.374 67.8392L179.107 67.1588L178.427 66.426L177.694 67.1064ZM164.085 52.4507L164.818 51.7702L164.137 51.0374L163.404 51.7179L164.085 52.4507ZM167.749 49.0484L167.068 48.3156L166.335 48.9961L167.016 49.7289L167.749 49.0484ZM181.358 63.7041L180.625 64.3846L181.306 65.1174L182.038 64.4369L181.358 63.7041ZM191.617 54.1777L192.297 54.9105L193.03 54.2301L192.35 53.4973L191.617 54.1777ZM178.008 39.522L178.741 38.8415L178.06 38.1087L177.327 38.7892L178.008 39.522ZM137.979 -17.0328L138.609 -17.809L138.609 -17.809L137.979 -17.0328ZM139.144 -5.77944L139.92 -5.14894L139.92 -5.14896L139.144 -5.77944ZM135.676 -1.51095L135.046 -0.734655L135.822 -0.104386L136.453 -0.88045L135.676 -1.51095ZM132.572 -4.03199L131.796 -4.66238L131.165 -3.88608L131.941 -3.2557L132.572 -4.03199ZM136.039 -8.30187L135.263 -8.93231L135.263 -8.93225L136.039 -8.30187ZM135.456 -13.9282L136.087 -14.7044L136.087 -14.7044L135.456 -13.9282ZM122.649 -24.3308L122.018 -23.5546L122.018 -23.5546L122.649 -24.3308ZM117.022 -23.748L117.799 -23.1174L117.799 -23.1175L117.022 -23.748ZM113.554 -19.4788L112.924 -18.7027L113.7 -18.0721L114.331 -18.8483L113.554 -19.4788ZM110.45 -22.0012L109.674 -22.6317L109.043 -21.8556L109.819 -21.2251L110.45 -22.0012ZM113.917 -26.2697L114.693 -25.6392L114.693 -25.6393L113.917 -26.2697ZM125.171 -27.4361L125.801 -28.2123L125.801 -28.2124L125.171 -27.4361ZM198.683 54.4394L197.95 55.1198L197.951 55.1206L198.684 54.4401L199.417 53.7596L199.416 53.7589L198.683 54.4394ZM198.684 54.4401L198.003 53.7072L194.339 57.1088L195.019 57.8417L195.699 58.5746L199.364 55.173L198.684 54.4401ZM195.019 57.8417L194.339 57.1089L184.08 66.6353L184.76 67.3681L185.441 68.1009L195.7 58.5745L195.019 57.8417ZM184.76 67.3681L184.027 68.0485L184.028 68.0493L184.761 67.3688L185.494 66.6883L185.493 66.6876L184.76 67.3681ZM184.761 67.3688L184.081 66.6359L180.416 70.0375L181.096 70.7704L181.777 71.5033L185.441 68.1017L184.761 67.3688ZM181.096 70.7704L180.416 70.0376L154.035 94.5341L154.716 95.2668L155.396 95.9996L181.777 71.5032L181.096 70.7704ZM154.716 95.2668L153.983 95.9473L153.984 95.948L154.717 95.2676L155.449 94.5871L155.449 94.5864L154.716 95.2668ZM154.717 95.2676L154.036 94.5346L150.372 97.9362L151.052 98.6691L151.732 99.4021L155.397 96.0005L154.717 95.2676ZM151.052 98.6691L150.371 97.9363L140.112 107.463L140.793 108.196L141.473 108.928L151.732 99.4019L151.052 98.6691ZM140.793 108.196L140.06 108.876L140.061 108.877L140.794 108.196L141.526 107.516L141.526 107.515L140.793 108.196ZM140.794 108.196L140.113 107.463L136.449 110.866L137.13 111.599L137.81 112.331L141.474 108.929L140.794 108.196ZM137.13 111.599L137.862 110.918L137.862 110.917L137.129 111.598L136.396 112.278L136.397 112.279L137.13 111.599ZM137.129 111.598L136.449 110.865L96.1459 148.29L96.8264 149.022L97.5068 149.755L137.809 112.331L137.129 111.598ZM96.8264 149.022L96.0936 149.703L96.0943 149.704L96.827 149.023L97.5598 148.343L97.5592 148.342L96.8264 149.022ZM96.827 149.023L96.1467 148.29L92.4821 151.692L93.1624 152.425L93.8428 153.158L97.5074 149.756L96.827 149.023ZM93.1624 152.425L92.482 151.692L22.8672 216.335L23.5476 217.068L24.2281 217.801L93.8429 153.157L93.1624 152.425ZM23.5476 217.068L24.2804 216.388L20.8781 212.724L20.1453 213.404L19.4126 214.085L22.8149 217.749L23.5476 217.068ZM20.1453 213.404L20.8258 214.137L33.2832 202.569L32.6027 201.836L31.9223 201.104L19.4649 212.671L20.1453 213.404ZM32.6027 201.836L33.3355 201.156L19.7264 186.5L18.9936 187.181L18.2608 187.861L31.8699 202.517L32.6027 201.836ZM18.9936 187.181L18.3131 186.448L5.85502 198.016L6.53548 198.749L7.21594 199.482L19.674 187.913L18.9936 187.181ZM6.53548 198.749L7.26827 198.069L3.86598 194.405L3.13319 195.085L2.40041 195.766L5.80269 199.43L6.53548 198.749ZM3.13319 195.085L3.81365 195.818L192.873 20.2599L192.192 19.5271L191.512 18.7943L2.45274 194.352L3.13319 195.085ZM192.192 19.5271L191.46 20.2075L194.862 23.8715L195.595 23.191L196.327 22.5106L192.925 18.8466L192.192 19.5271ZM195.595 23.191L194.914 22.4582L180.991 35.3869L181.672 36.1197L182.352 36.8525L196.275 23.9238L195.595 23.191ZM181.672 36.1197L180.939 36.8002L194.548 51.4559L195.281 50.7755L196.014 50.095L182.404 35.4392L181.672 36.1197ZM195.281 50.7755L195.961 51.5082L219.411 29.7329L218.731 29.0001L218.05 28.2674L194.6 50.0427L195.281 50.7755ZM218.731 29.0001L217.998 29.6806L221.4 33.3445L222.133 32.6641L222.866 31.9836L219.464 28.3197L218.731 29.0001ZM222.133 32.6641L221.453 31.9313L198.003 53.7066L198.683 54.4394L199.364 55.1722L222.813 33.3969L222.133 32.6641ZM22.6575 183.778L21.9247 184.459L35.5339 199.115L36.2667 198.434L36.9995 197.754L23.3903 183.098L22.6575 183.778ZM36.2667 198.434L36.9471 199.167L47.9389 188.96L47.2585 188.227L46.578 187.494L35.5862 197.701L36.2667 198.434ZM47.2585 188.227L47.9913 187.547L34.3821 172.891L33.6493 173.571L32.9165 174.252L46.5257 188.908L47.2585 188.227ZM33.6493 173.571L32.9689 172.839L21.9771 183.046L22.6575 183.778L23.338 184.511L34.3298 174.304L33.6493 173.571ZM37.3133 170.169L36.5805 170.85L50.1896 185.505L50.9224 184.825L51.6552 184.144L38.0461 169.489L37.3133 170.169ZM50.9224 184.825L51.6029 185.558L61.8619 176.031L61.1814 175.299L60.501 174.566L50.242 184.092L50.9224 184.825ZM61.1814 175.299L61.9142 174.618L48.3051 159.962L47.5723 160.643L46.8395 161.323L60.4487 175.979L61.1814 175.299ZM47.5723 160.643L46.8918 159.91L36.6328 169.436L37.3133 170.169L37.9937 170.902L48.2528 161.376L47.5723 160.643ZM51.2362 157.241L50.5034 157.921L64.1126 172.577L64.8454 171.896L65.5782 171.216L51.969 156.56L51.2362 157.241ZM64.8454 171.896L65.5258 172.629L75.7849 163.103L75.1044 162.37L74.4239 161.637L64.1649 171.163L64.8454 171.896ZM75.1044 162.37L75.8372 161.689L62.228 147.034L61.4953 147.714L60.7625 148.395L74.3716 163.05L75.1044 162.37ZM61.4953 147.714L60.8148 146.981L50.5558 156.508L51.2362 157.241L51.9167 157.973L62.1757 148.447L61.4953 147.714ZM65.1592 144.312L64.4264 144.992L78.0356 159.648L78.7683 158.968L79.5011 158.287L65.892 143.631L65.1592 144.312ZM78.7683 158.968L79.4488 159.7L90.4406 149.493L89.7602 148.761L89.0797 148.028L78.0879 158.235L78.7683 158.968ZM89.7602 148.761L90.4929 148.08L76.8838 133.424L76.151 134.105L75.4182 134.785L89.0274 149.441L89.7602 148.761ZM76.151 134.105L75.4705 133.372L64.4787 143.579L65.1592 144.312L65.8396 145.045L76.8315 134.838L76.151 134.105ZM79.8149 130.703L79.0822 131.383L92.6913 146.039L93.4241 145.358L94.1569 144.678L80.5477 130.022L79.8149 130.703ZM93.4241 145.358L94.1046 146.091L104.363 136.565L103.682 135.833L103.002 135.1L92.7436 144.626L93.4241 145.358ZM103.682 135.833L104.415 135.152L90.806 120.496L90.0732 121.177L89.3405 121.857L102.95 136.513L103.682 135.833ZM90.0732 121.177L89.3928 120.444L79.1345 129.97L79.8149 130.703L80.4954 131.435L90.7537 121.91L90.0732 121.177ZM93.7372 117.775L93.0044 118.455L106.614 133.111L107.346 132.43L108.079 131.75L94.47 117.094L93.7372 117.775ZM107.346 132.43L108.027 133.163L119.751 122.276L119.071 121.543L118.39 120.81L106.666 131.698L107.346 132.43ZM119.071 121.543L119.804 120.863L106.195 106.207L105.462 106.887L104.729 107.568L118.338 122.224L119.071 121.543ZM105.462 106.887L104.781 106.155L93.0567 117.042L93.7372 117.775L94.4176 118.507L106.142 107.62L105.462 106.887ZM109.126 103.485L108.393 104.165L122.002 118.821L122.735 118.141L123.468 117.46L109.859 102.805L109.126 103.485ZM122.735 118.141L123.415 118.874L134.407 108.667L133.727 107.934L133.046 107.201L122.054 117.408L122.735 118.141ZM133.727 107.934L134.459 107.253L120.85 92.5977L120.118 93.2781L119.385 93.9586L132.994 108.614L133.727 107.934ZM120.118 93.2781L119.437 92.5454L108.445 102.752L109.126 103.485L109.806 104.218L120.798 94.0109L120.118 93.2781ZM123.781 89.8759L123.049 90.5563L136.658 105.212L137.391 104.532L138.123 103.851L124.514 89.1954L123.781 89.8759ZM137.391 104.532L138.071 105.264L148.33 95.738L147.65 95.0052L146.969 94.2724L136.71 103.799L137.391 104.532ZM147.65 95.0052L148.382 94.3247L134.773 79.669L134.04 80.3495L133.308 81.0299L146.917 95.6857L147.65 95.0052ZM134.04 80.3495L133.36 79.6167L123.101 89.1431L123.781 89.8759L124.462 90.6086L134.721 81.0822L134.04 80.3495ZM137.704 76.9472L136.972 77.6276L150.581 92.2834L151.314 91.6029L152.046 90.9225L138.437 76.2667L137.704 76.9472ZM151.314 91.6029L151.994 92.3357L163.719 81.4484L163.038 80.7156L162.358 79.9828L150.633 90.8701L151.314 91.6029ZM163.038 80.7156L163.771 80.0351L150.162 65.3794L149.429 66.0598L148.696 66.7403L162.305 81.396L163.038 80.7156ZM149.429 66.0598L148.749 65.3271L137.024 76.2144L137.704 76.9472L138.385 77.6799L150.109 66.7926L149.429 66.0598ZM153.093 62.6576L152.36 63.338L165.969 77.9938L166.702 77.3133L167.435 76.6328L153.826 61.9771L153.093 62.6576ZM166.702 77.3133L167.383 78.0461L178.374 67.8392L177.694 67.1064L177.013 66.3736L166.022 76.5805L166.702 77.3133ZM177.694 67.1064L178.427 66.426L164.818 51.7702L164.085 52.4507L163.352 53.1311L176.961 67.7869L177.694 67.1064ZM164.085 52.4507L163.404 51.7179L152.413 61.9248L153.093 62.6576L153.773 63.3903L164.765 53.1835L164.085 52.4507ZM167.749 49.0484L167.016 49.7289L180.625 64.3846L181.358 63.7041L182.091 63.0237L168.482 48.3679L167.749 49.0484ZM181.358 63.7041L182.038 64.4369L192.297 54.9105L191.617 54.1777L190.936 53.445L180.677 62.9714L181.358 63.7041ZM191.617 54.1777L192.35 53.4973L178.741 38.8415L178.008 39.522L177.275 40.2024L190.884 54.8582L191.617 54.1777ZM178.008 39.522L177.327 38.7892L167.068 48.3156L167.749 49.0484L168.429 49.7812L178.688 40.2548L178.008 39.522ZM137.979 -17.0328L137.348 -16.2566C140.349 -13.8192 140.805 -9.4107 138.368 -6.40992L139.144 -5.77944L139.92 -5.14896C143.054 -9.00693 142.467 -14.675 138.609 -17.809L137.979 -17.0328ZM139.144 -5.77944L138.368 -6.40994L134.9 -2.14145L135.676 -1.51095L136.453 -0.88045L139.92 -5.14894L139.144 -5.77944ZM135.676 -1.51095L136.307 -2.28724L133.202 -4.80829L132.572 -4.03199L131.941 -3.2557L135.046 -0.734655L135.676 -1.51095ZM132.572 -4.03199L133.348 -3.40161L136.815 -7.67149L136.039 -8.30187L135.263 -8.93225L131.796 -4.66238L132.572 -4.03199ZM136.039 -8.30187L136.815 -7.67142C138.556 -9.81481 138.23 -12.9634 136.087 -14.7044L135.456 -13.9282L134.826 -13.152C136.112 -12.1075 136.308 -10.2184 135.263 -8.93231L136.039 -8.30187ZM135.456 -13.9282L136.087 -14.7044L123.279 -25.1071L122.649 -24.3308L122.018 -23.5546L134.826 -13.152L135.456 -13.9282ZM122.649 -24.3308L123.279 -25.107C121.136 -26.8481 117.987 -26.5219 116.246 -24.3784L117.022 -23.748L117.799 -23.1175C118.843 -24.4035 120.732 -24.5992 122.018 -23.5546L122.649 -24.3308ZM117.022 -23.748L116.246 -24.3785L112.778 -20.1093L113.554 -19.4788L114.331 -18.8483L117.799 -23.1174L117.022 -23.748ZM113.554 -19.4788L114.185 -20.2549L111.08 -22.7774L110.45 -22.0012L109.819 -21.2251L112.924 -18.7027L113.554 -19.4788ZM110.45 -22.0012L111.226 -21.3707L114.693 -25.6392L113.917 -26.2697L113.141 -26.9002L109.674 -22.6317L110.45 -22.0012ZM113.917 -26.2697L114.693 -25.6393C117.131 -28.64 121.539 -29.097 124.54 -26.6599L125.171 -27.4361L125.801 -28.2124C121.943 -31.3459 116.275 -30.7582 113.141 -26.9002L113.917 -26.2697ZM125.171 -27.4361L124.54 -26.6599L137.348 -16.2566L137.979 -17.0328L138.609 -17.809L125.801 -28.2123L125.171 -27.4361Z" fill="black" mask="url(#path-19-inside-3_210_2128)"/>
<mask id="path-21-inside-4_210_2128" fill="white">
<path d="M242.34 94.7305C242.34 101.91 248.16 107.73 255.34 107.73C257.112 107.73 258.801 107.375 260.34 106.733V133.727C258.801 133.085 257.112 132.73 255.34 132.73C248.16 132.73 242.34 138.551 242.34 145.73C242.34 146.411 242.392 147.079 242.493 147.73H159.187C159.287 147.079 159.34 146.411 159.34 145.73C159.34 138.551 153.52 132.73 146.34 132.73C145.307 132.73 144.303 132.852 143.34 133.079V107.381C144.303 107.608 145.307 107.73 146.34 107.73C153.52 107.73 159.34 101.91 159.34 94.7305H242.34Z"/>
</mask>
<path d="M242.34 94.7305H244.34V92.7305H242.34V94.7305ZM260.34 106.733H262.34V103.732L259.57 104.887L260.34 106.733ZM260.34 133.727L259.57 135.572L262.34 136.728V133.727H260.34ZM242.493 147.73V149.73H244.826L244.47 147.425L242.493 147.73ZM159.187 147.73L157.21 147.425L156.854 149.73H159.187V147.73ZM143.34 133.079H141.34V135.607L143.8 135.026L143.34 133.079ZM143.34 107.381L143.8 105.434L141.34 104.853V107.381H143.34ZM159.34 94.7305V92.7305H157.34V94.7305H159.34ZM242.34 94.7305H240.34C240.34 103.015 247.056 109.73 255.34 109.73V107.73V105.73C249.265 105.73 244.34 100.806 244.34 94.7305H242.34ZM255.34 107.73V109.73C257.381 109.73 259.331 109.321 261.11 108.579L260.34 106.733L259.57 104.887C258.27 105.43 256.842 105.73 255.34 105.73V107.73ZM260.34 106.733H258.34V133.727H260.34H262.34V106.733H260.34ZM260.34 133.727L261.11 131.881C259.331 131.139 257.38 130.73 255.34 130.73V132.73V134.73C256.843 134.73 258.271 135.031 259.57 135.572L260.34 133.727ZM255.34 132.73V130.73C247.056 130.73 240.34 137.446 240.34 145.73H242.34H244.34C244.34 139.655 249.265 134.73 255.34 134.73V132.73ZM242.34 145.73H240.34C240.34 146.514 240.401 147.284 240.517 148.036L242.493 147.73L244.47 147.425C244.384 146.873 244.34 146.307 244.34 145.73H242.34ZM242.493 147.73V145.73H159.187V147.73V149.73H242.493V147.73ZM159.187 147.73L161.163 148.036C161.279 147.284 161.34 146.514 161.34 145.73H159.34H157.34C157.34 146.307 157.295 146.873 157.21 147.425L159.187 147.73ZM159.34 145.73H161.34C161.34 137.446 154.624 130.73 146.34 130.73V132.73V134.73C152.415 134.73 157.34 139.655 157.34 145.73H159.34ZM146.34 132.73V130.73C145.15 130.73 143.992 130.87 142.88 131.133L143.34 133.079L143.8 135.026C144.614 134.833 145.464 134.73 146.34 134.73V132.73ZM143.34 133.079H145.34V107.381H143.34H141.34V133.079H143.34ZM143.34 107.381L142.88 109.327C143.991 109.59 145.149 109.73 146.34 109.73V107.73V105.73C145.465 105.73 144.615 105.627 143.8 105.434L143.34 107.381ZM146.34 107.73V109.73C154.624 109.73 161.34 103.015 161.34 94.7305H159.34H157.34C157.34 100.806 152.415 105.73 146.34 105.73V107.73ZM159.34 94.7305V96.7305H242.34V94.7305V92.7305H159.34V94.7305Z" fill="#FFD362" mask="url(#path-21-inside-4_210_2128)"/>
<path d="M212.34 227.73C216.206 227.73 219.34 230.864 219.34 234.73L219.34 251.73C219.34 255.596 216.206 258.73 212.34 258.73L190.34 258.73C186.474 258.73 183.34 255.596 183.34 251.73L183.34 234.73C183.34 230.864 186.474 227.73 190.34 227.73L212.34 227.73Z" fill="#6B7C85" stroke="black"/>
<path d="M193.226 242.179C191.473 247.148 184.152 246.057 183.923 240.793L183.63 234.053C183.552 232.265 184.716 230.658 186.44 230.176L188.746 229.529C192.664 228.432 195.003 233.759 191.544 235.901L193.226 242.179Z" fill="#C6826D" stroke="black"/>
<path d="M140.84 187.73C140.84 187.454 140.616 187.23 140.34 187.23C140.064 187.23 139.84 187.454 139.84 187.73H140.34H140.84ZM177.84 187.73C177.84 187.454 177.616 187.23 177.34 187.23C177.064 187.23 176.84 187.454 176.84 187.73H177.34H177.84ZM171.653 200.73L171.312 200.365L171.312 200.365L171.653 200.73ZM174.561 213.73V214.23H175.185L175.049 213.621L174.561 213.73ZM163.34 213.73V213.23H162.84V213.73H163.34ZM158.84 205.753V205.253C148.886 205.253 140.84 197.395 140.84 187.73H140.34H139.84C139.84 197.972 148.359 206.253 158.84 206.253V205.753ZM177.34 187.73H176.84C176.84 192.692 174.721 197.174 171.312 200.365L171.653 200.73L171.995 201.095C175.595 197.726 177.84 192.985 177.84 187.73H177.34ZM171.653 200.73L171.312 200.365C168.077 203.391 163.683 205.253 158.84 205.253V205.753V206.253C163.944 206.253 168.58 204.29 171.995 201.095L171.653 200.73ZM171.653 200.73L171.165 200.839L174.073 213.839L174.561 213.73L175.049 213.621L172.141 200.621L171.653 200.73ZM174.561 213.73V213.23H163.34V213.73V214.23H174.561V213.73ZM163.34 213.73H162.84V217.73H163.34H163.84V213.73H163.34Z" fill="black"/>
<path d="M261.84 187.73C261.84 187.454 262.064 187.23 262.34 187.23C262.616 187.23 262.84 187.454 262.84 187.73H262.34H261.84ZM224.84 187.73C224.84 187.454 225.064 187.23 225.34 187.23C225.616 187.23 225.84 187.454 225.84 187.73H225.34H224.84ZM231.027 200.73L231.368 200.365L231.368 200.365L231.027 200.73ZM228.119 213.73V214.23H227.494L227.631 213.621L228.119 213.73ZM239.34 213.73V213.23H239.84V213.73H239.34ZM243.84 205.753V205.253C253.793 205.253 261.84 197.395 261.84 187.73H262.34H262.84C262.84 197.972 254.321 206.253 243.84 206.253V205.753ZM225.34 187.73H225.84C225.84 192.692 227.958 197.174 231.368 200.365L231.027 200.73L230.685 201.095C227.085 197.726 224.84 192.985 224.84 187.73H225.34ZM231.027 200.73L231.368 200.365C234.602 203.391 238.996 205.253 243.84 205.253V205.753V206.253C238.736 206.253 234.1 204.29 230.685 201.095L231.027 200.73ZM231.027 200.73L231.514 200.839L228.606 213.839L228.119 213.73L227.631 213.621L230.539 200.621L231.027 200.73ZM228.119 213.73V213.23H239.34V213.73V214.23H228.119V213.73ZM239.34 213.73H239.84V217.73H239.34H238.84V213.73H239.34Z" fill="black"/>
<path d="M208.872 254.736L195.324 255.117L186.74 234.349L216.278 233.52L208.872 254.736Z" fill="#6B7C85" stroke="black"/>
<mask id="path-28-outside-5_210_2128" maskUnits="userSpaceOnUse" x="42.5" y="213" width="304" height="208" fill="black">
<rect fill="white" x="42.5" y="213" width="304" height="208"/>
<path fill-rule="evenodd" clip-rule="evenodd" d="M122.832 270.344C115.606 284.356 110.393 314.972 106.649 336.956C105.839 341.71 105.099 346.06 104.421 349.751C103.755 323.052 102.791 297.153 101.497 285.943C100.277 275.372 94.1787 267.348 87.1017 261.625C80.0277 255.904 71.9375 252.451 66.63 251.018C66.3635 250.947 66.0896 251.104 66.0177 251.371C65.9459 251.637 66.1037 251.911 66.3702 251.983C71.5627 253.384 79.522 256.781 86.4728 262.402C93.4207 268.021 99.3228 275.829 100.503 286.058C102.109 299.981 103.209 336.705 103.859 369.398C103.476 367.74 103.127 366.054 102.765 364.307L102.765 364.307C100.832 354.977 98.5406 343.914 88.7934 326.079C79.9478 309.894 62.1141 299.133 51.3338 292.628C47.7414 290.461 44.9322 288.766 43.5 287.5C46.0485 292.248 56.4046 302.898 65.4881 312.239C70.9364 317.842 75.9269 322.974 78.5001 326.079C88.2276 337.818 102.343 366.595 103.866 369.723C104.182 385.674 104.391 400.643 104.5 411.506C104.503 411.782 104.729 412.004 105.005 412.001C105.281 411.998 105.503 411.772 105.5 411.496C105.349 396.477 105.007 373.575 104.454 351.078C108.65 342.389 113.839 327.308 118.889 312.633C122.965 300.788 126.95 289.207 130.248 281.465C134.123 272.369 139.208 258.516 144.065 245.284L144.065 245.284C148.651 232.793 153.032 220.857 156 214C147.41 223.414 131.951 252.662 122.832 270.344ZM197.039 278.17C202.98 273.126 211.405 273.016 222.735 279.058C222.979 279.188 223.071 279.492 222.942 279.735C222.812 279.979 222.508 280.071 222.265 279.941C211.095 273.984 203.171 274.275 197.687 278.931C192.131 283.648 188.895 292.974 187.497 305.556C184.702 330.711 186.333 391.301 187.5 418.479C187.512 418.755 187.297 418.989 187.022 419.001C186.746 419.013 186.512 418.798 186.5 418.522C185.969 406.15 185.34 386.821 185.078 367.054C181.594 355.884 175.384 335.597 172.504 324.799C169.825 314.753 156.561 292.461 148.636 279.142L148.636 279.142C147.225 276.77 145.983 274.683 145 273L145.227 273.252C154.786 283.829 172.659 303.607 176.449 315.348C179.642 325.238 183.057 347.49 185.022 362.289C184.799 340.224 185.079 318.266 186.503 305.445C187.905 292.828 191.17 283.153 197.039 278.17ZM302 370V316.501C302 302.589 302.72 292.76 303.993 285.868C305.264 278.99 307.101 274.959 309.402 272.729C311.739 270.466 314.477 270.13 317.318 270.427C318.731 270.574 320.191 270.881 321.65 271.191L321.754 271.214C323.187 271.518 324.623 271.824 326.063 272.004C326.336 272.038 326.53 272.288 326.496 272.562C326.462 272.836 326.212 273.031 325.938 272.997C324.469 272.813 323.011 272.503 321.604 272.203L321.441 272.169C319.974 271.857 318.566 271.562 317.214 271.421C314.524 271.14 312.136 271.473 310.098 273.447C308.025 275.455 306.236 279.23 304.976 286.05C303.718 292.854 303 302.613 303 316.501V366.217C305.781 356.438 311.363 340.993 315.475 329.616C316.204 327.598 316.887 325.708 317.5 324C321.362 313.241 334.117 307.073 341.267 303.616C342.555 302.993 343.661 302.458 344.5 302C335.5 310 325.641 324.809 320.664 334.186C318.928 337.456 316.744 341.824 314.422 346.468C310.509 354.292 306.206 362.898 303 368.347V411.501C303 411.777 302.776 412.001 302.5 412.001C302.224 412.001 302 411.777 302 411.501V370C302 370 302 370 302 370C302 370 302 370 302 370Z"/>
</mask>
<path fill-rule="evenodd" clip-rule="evenodd" d="M122.832 270.344C115.606 284.356 110.393 314.972 106.649 336.956C105.839 341.71 105.099 346.06 104.421 349.751C103.755 323.052 102.791 297.153 101.497 285.943C100.277 275.372 94.1787 267.348 87.1017 261.625C80.0277 255.904 71.9375 252.451 66.63 251.018C66.3635 250.947 66.0896 251.104 66.0177 251.371C65.9459 251.637 66.1037 251.911 66.3702 251.983C71.5627 253.384 79.522 256.781 86.4728 262.402C93.4207 268.021 99.3228 275.829 100.503 286.058C102.109 299.981 103.209 336.705 103.859 369.398C103.476 367.74 103.127 366.054 102.765 364.307L102.765 364.307C100.832 354.977 98.5406 343.914 88.7934 326.079C79.9478 309.894 62.1141 299.133 51.3338 292.628C47.7414 290.461 44.9322 288.766 43.5 287.5C46.0485 292.248 56.4046 302.898 65.4881 312.239C70.9364 317.842 75.9269 322.974 78.5001 326.079C88.2276 337.818 102.343 366.595 103.866 369.723C104.182 385.674 104.391 400.643 104.5 411.506C104.503 411.782 104.729 412.004 105.005 412.001C105.281 411.998 105.503 411.772 105.5 411.496C105.349 396.477 105.007 373.575 104.454 351.078C108.65 342.389 113.839 327.308 118.889 312.633C122.965 300.788 126.95 289.207 130.248 281.465C134.123 272.369 139.208 258.516 144.065 245.284L144.065 245.284C148.651 232.793 153.032 220.857 156 214C147.41 223.414 131.951 252.662 122.832 270.344ZM197.039 278.17C202.98 273.126 211.405 273.016 222.735 279.058C222.979 279.188 223.071 279.492 222.942 279.735C222.812 279.979 222.508 280.071 222.265 279.941C211.095 273.984 203.171 274.275 197.687 278.931C192.131 283.648 188.895 292.974 187.497 305.556C184.702 330.711 186.333 391.301 187.5 418.479C187.512 418.755 187.297 418.989 187.022 419.001C186.746 419.013 186.512 418.798 186.5 418.522C185.969 406.15 185.34 386.821 185.078 367.054C181.594 355.884 175.384 335.597 172.504 324.799C169.825 314.753 156.561 292.461 148.636 279.142L148.636 279.142C147.225 276.77 145.983 274.683 145 273L145.227 273.252C154.786 283.829 172.659 303.607 176.449 315.348C179.642 325.238 183.057 347.49 185.022 362.289C184.799 340.224 185.079 318.266 186.503 305.445C187.905 292.828 191.17 283.153 197.039 278.17ZM302 370V316.501C302 302.589 302.72 292.76 303.993 285.868C305.264 278.99 307.101 274.959 309.402 272.729C311.739 270.466 314.477 270.13 317.318 270.427C318.731 270.574 320.191 270.881 321.65 271.191L321.754 271.214C323.187 271.518 324.623 271.824 326.063 272.004C326.336 272.038 326.53 272.288 326.496 272.562C326.462 272.836 326.212 273.031 325.938 272.997C324.469 272.813 323.011 272.503 321.604 272.203L321.441 272.169C319.974 271.857 318.566 271.562 317.214 271.421C314.524 271.14 312.136 271.473 310.098 273.447C308.025 275.455 306.236 279.23 304.976 286.05C303.718 292.854 303 302.613 303 316.501V366.217C305.781 356.438 311.363 340.993 315.475 329.616C316.204 327.598 316.887 325.708 317.5 324C321.362 313.241 334.117 307.073 341.267 303.616C342.555 302.993 343.661 302.458 344.5 302C335.5 310 325.641 324.809 320.664 334.186C318.928 337.456 316.744 341.824 314.422 346.468C310.509 354.292 306.206 362.898 303 368.347V411.501C303 411.777 302.776 412.001 302.5 412.001C302.224 412.001 302 411.777 302 411.501V370C302 370 302 370 302 370C302 370 302 370 302 370Z" fill="#70DFBD"/>
<path d="M106.649 336.956L105.663 336.788L105.663 336.788L106.649 336.956ZM122.832 270.344L123.721 270.803L123.721 270.803L122.832 270.344ZM104.421 349.751L103.421 349.776C103.434 350.288 103.832 350.708 104.343 350.748C104.854 350.788 105.312 350.436 105.405 349.932L104.421 349.751ZM101.497 285.943L102.491 285.829L102.491 285.829L101.497 285.943ZM87.1017 261.625L87.7305 260.847L87.7305 260.847L87.1017 261.625ZM66.63 251.018L66.8905 250.053L66.89 250.053L66.63 251.018ZM66.0177 251.371L65.0522 251.11L65.0521 251.111L66.0177 251.371ZM66.3702 251.983L66.6308 251.018L66.6308 251.018L66.3702 251.983ZM86.4728 262.402L87.1016 261.625L87.1016 261.625L86.4728 262.402ZM100.503 286.058L101.496 285.944L101.496 285.944L100.503 286.058ZM103.859 369.398L102.885 369.623C103 370.122 103.474 370.454 103.982 370.391C104.491 370.327 104.869 369.89 104.859 369.378L103.859 369.398ZM102.765 364.307L103.744 364.105L103.743 364.1L102.765 364.307ZM102.765 364.307L101.785 364.51L101.786 364.514L102.765 364.307ZM88.7934 326.079L89.6709 325.6L89.6709 325.6L88.7934 326.079ZM51.3338 292.628L51.8504 291.772L51.8504 291.772L51.3338 292.628ZM43.5 287.5L44.1622 286.751C43.7993 286.43 43.2588 286.415 42.8791 286.716C42.4995 287.017 42.3899 287.546 42.6189 287.973L43.5 287.5ZM65.4881 312.239L64.7712 312.936L64.7712 312.936L65.4881 312.239ZM78.5001 326.079L77.7301 326.717L77.7301 326.717L78.5001 326.079ZM103.866 369.723L104.865 369.703C104.862 369.558 104.828 369.416 104.765 369.285L103.866 369.723ZM104.5 411.506L105.5 411.496L105.5 411.496L104.5 411.506ZM105.005 412.001L105.015 413.001L105.015 413.001L105.005 412.001ZM105.5 411.496L106.5 411.486L106.5 411.486L105.5 411.496ZM104.454 351.078L103.553 350.643C103.484 350.786 103.45 350.943 103.454 351.102L104.454 351.078ZM118.889 312.633L117.943 312.308L117.943 312.308L118.889 312.633ZM130.248 281.465L129.328 281.073L129.328 281.073L130.248 281.465ZM144.065 245.284L143.144 244.896C143.138 244.91 143.132 244.925 143.127 244.939L144.065 245.284ZM144.065 245.284L144.987 245.672C144.993 245.658 144.999 245.643 145.004 245.628L144.065 245.284ZM156 214L156.918 214.397C157.112 213.949 156.954 213.426 156.543 213.16C156.133 212.895 155.591 212.965 155.261 213.326L156 214ZM222.735 279.058L222.265 279.941L222.265 279.941L222.735 279.058ZM197.039 278.17L196.392 277.407L196.392 277.407L197.039 278.17ZM222.942 279.735L223.824 280.206L223.824 280.205L222.942 279.735ZM222.265 279.941L222.735 279.059L222.735 279.059L222.265 279.941ZM197.687 278.931L197.039 278.169L197.039 278.169L197.687 278.931ZM187.497 305.556L186.503 305.446L186.503 305.446L187.497 305.556ZM187.5 418.479L186.501 418.522L186.501 418.522L187.5 418.479ZM186.5 418.522L185.501 418.565L185.501 418.565L186.5 418.522ZM185.078 367.054L186.078 367.04C186.077 366.944 186.061 366.848 186.033 366.756L185.078 367.054ZM172.504 324.799L173.47 324.541L173.47 324.541L172.504 324.799ZM148.636 279.142L149.495 278.631L149.494 278.628L148.636 279.142ZM148.636 279.142L147.777 279.653L147.778 279.657L148.636 279.142ZM145 273L145.742 272.33C145.399 271.95 144.823 271.891 144.41 272.193C143.996 272.496 143.878 273.062 144.137 273.505L145 273ZM145.227 273.252L144.485 273.922L144.485 273.922L145.227 273.252ZM176.449 315.348L177.401 315.04L177.401 315.04L176.449 315.348ZM185.022 362.289L184.031 362.421C184.101 362.945 184.566 363.324 185.093 363.286C185.621 363.249 186.028 362.807 186.022 362.279L185.022 362.289ZM186.503 305.445L185.509 305.335L185.509 305.335L186.503 305.445ZM303.993 285.868L303.01 285.686L303.01 285.686L303.993 285.868ZM309.402 272.729L308.707 272.011L308.707 272.011L309.402 272.729ZM317.318 270.427L317.421 269.432L317.421 269.432L317.318 270.427ZM321.65 271.191L321.442 272.169L321.442 272.169L321.65 271.191ZM321.754 271.214L321.963 270.235L321.962 270.235L321.754 271.214ZM326.063 272.004L326.187 271.012L326.187 271.011L326.063 272.004ZM326.496 272.562L325.504 272.438L325.504 272.438L326.496 272.562ZM325.938 272.997L325.814 273.989L325.814 273.989L325.938 272.997ZM321.604 272.203L321.812 271.225L321.812 271.225L321.604 272.203ZM321.441 272.169L321.649 271.191L321.649 271.191L321.441 272.169ZM317.214 271.421L317.318 270.426L317.318 270.426L317.214 271.421ZM310.098 273.447L309.402 272.729L309.402 272.729L310.098 273.447ZM304.976 286.05L303.992 285.868L303.992 285.868L304.976 286.05ZM303 366.217H302C302 366.716 302.368 367.139 302.862 367.208C303.356 367.277 303.826 366.971 303.962 366.491L303 366.217ZM315.475 329.616L314.534 329.276L314.534 329.276L315.475 329.616ZM317.5 324L316.559 323.662L316.559 323.662L317.5 324ZM341.267 303.616L341.702 304.516L341.702 304.516L341.267 303.616ZM344.5 302L345.164 302.748C345.544 302.41 345.611 301.841 345.318 301.425C345.026 301.009 344.468 300.879 344.021 301.122L344.5 302ZM320.664 334.186L319.78 333.717L319.78 333.717L320.664 334.186ZM314.422 346.468L315.316 346.915L315.316 346.915L314.422 346.468ZM303 368.347L302.138 367.84C302.048 367.994 302 368.169 302 368.347H303ZM303 370C303 369.448 302.552 369 302 369C301.448 369 301 369.448 301 370H302H303ZM301 370C301 370.552 301.448 371 302 371C302.552 371 303 370.552 303 370H302H301ZM106.649 336.956L107.635 337.124C109.507 326.128 111.743 313.001 114.411 300.875C117.086 288.722 120.174 277.681 123.721 270.803L122.832 270.344L121.943 269.886C118.264 277.02 115.133 288.292 112.458 300.446C109.777 312.626 107.534 325.8 105.663 336.788L106.649 336.956ZM104.421 349.751L105.405 349.932C106.084 346.233 106.826 341.875 107.635 337.124L106.649 336.956L105.663 336.788C104.853 341.544 104.114 345.887 103.438 349.571L104.421 349.751ZM101.497 285.943L100.504 286.058C101.791 297.213 102.755 323.061 103.421 349.776L104.421 349.751L105.421 349.726C104.755 323.043 103.79 297.093 102.491 285.829L101.497 285.943ZM87.1017 261.625L86.4729 262.402C93.4209 268.021 99.3235 275.829 100.504 286.058L101.497 285.943L102.491 285.829C101.231 274.916 94.9366 266.675 87.7305 260.847L87.1017 261.625ZM66.63 251.018L66.3695 251.984C71.562 253.385 79.5219 256.781 86.4729 262.402L87.1017 261.625L87.7305 260.847C80.5335 255.027 72.313 251.516 66.8905 250.053L66.63 251.018ZM66.0177 251.371L66.9832 251.631C66.9114 251.897 66.6373 252.056 66.37 251.984L66.63 251.018L66.89 250.053C66.0897 249.837 65.2678 250.312 65.0522 251.11L66.0177 251.371ZM66.3702 251.983L66.6308 251.018C66.8966 251.09 67.0553 251.364 66.9833 251.631L66.0177 251.371L65.0521 251.111C64.8366 251.911 65.3109 252.733 66.1097 252.949L66.3702 251.983ZM86.4728 262.402L87.1016 261.625C80.0278 255.904 71.9383 252.45 66.6308 251.018L66.3702 251.983L66.1097 252.949C71.1871 254.319 79.0161 257.658 85.844 263.18L86.4728 262.402ZM100.503 286.058L101.496 285.944C100.277 275.373 94.1787 267.348 87.1016 261.625L86.4728 262.402L85.844 263.18C92.6627 268.694 98.3688 276.286 99.5096 286.173L100.503 286.058ZM103.859 369.398L104.859 369.378C104.209 336.707 103.11 299.925 101.496 285.944L100.503 286.058L99.5096 286.173C101.109 300.037 102.208 336.703 102.859 369.418L103.859 369.398ZM102.765 364.307L101.786 364.51C102.147 366.255 102.499 367.952 102.885 369.623L103.859 369.398L104.833 369.173C104.453 367.528 104.106 365.853 103.744 364.105L102.765 364.307ZM102.765 364.307L101.786 364.514L101.786 364.514L102.765 364.307L103.743 364.1L103.743 364.1L102.765 364.307ZM88.7934 326.079L87.9159 326.559C97.5965 344.272 99.8627 355.227 101.786 364.51L102.765 364.307L103.744 364.104C101.801 354.726 99.4847 343.556 89.6709 325.6L88.7934 326.079ZM51.3338 292.628L50.8172 293.485C61.6402 300.015 79.2211 310.649 87.9159 326.559L88.7934 326.079L89.6709 325.6C80.6745 309.138 62.588 298.251 51.8504 291.772L51.3338 292.628ZM43.5 287.5L42.8378 288.249C44.3565 289.591 47.2708 291.345 50.8172 293.485L51.3338 292.628L51.8504 291.772C48.212 289.577 45.5079 287.94 44.1622 286.751L43.5 287.5ZM65.4881 312.239L66.205 311.542C61.6605 306.868 56.8121 301.882 52.7816 297.472C48.7196 293.028 45.5856 289.271 44.3811 287.027L43.5 287.5L42.6189 287.973C43.9629 290.477 47.2813 294.419 51.3053 298.822C55.3608 303.259 60.2323 308.268 64.7712 312.936L65.4881 312.239ZM78.5001 326.079L79.2701 325.441C76.6647 322.297 71.6374 317.128 66.205 311.542L65.4881 312.239L64.7712 312.936C70.2354 318.555 75.1891 323.651 77.7301 326.717L78.5001 326.079ZM103.866 369.723L104.765 369.285C104 367.715 100.083 359.723 95.1377 350.651C90.205 341.603 84.2032 331.394 79.2701 325.441L78.5001 326.079L77.7301 326.717C82.5245 332.503 88.4442 342.552 93.3817 351.609C98.3064 360.642 102.208 368.603 102.966 370.161L103.866 369.723ZM104.5 411.506L105.5 411.496C105.391 400.63 105.182 385.658 104.865 369.703L103.866 369.723L102.866 369.743C103.182 385.691 103.391 400.656 103.5 411.516L104.5 411.506ZM105.005 412.001L104.995 411.001C105.272 410.998 105.497 411.22 105.5 411.496L104.5 411.506L103.5 411.516C103.508 412.344 104.186 413.009 105.015 413.001L105.005 412.001ZM105.5 411.496L104.5 411.506C104.497 411.229 104.719 411.004 104.995 411.001L105.005 412.001L105.015 413.001C105.843 412.992 106.508 412.315 106.5 411.486L105.5 411.496ZM104.454 351.078L103.454 351.102C104.007 373.594 104.349 396.491 104.5 411.506L105.5 411.496L106.5 411.486C106.349 396.463 106.007 373.556 105.454 351.053L104.454 351.078ZM118.889 312.633L117.943 312.308C112.884 327.011 107.717 342.021 103.553 350.643L104.454 351.078L105.354 351.512C109.583 342.757 114.794 327.605 119.834 312.959L118.889 312.633ZM130.248 281.465L129.328 281.073C126.012 288.856 122.014 300.477 117.943 312.308L118.889 312.633L119.834 312.959C123.915 301.098 127.887 289.558 131.168 281.857L130.248 281.465ZM144.065 245.284L143.127 244.939C138.266 258.182 133.19 272.007 129.328 281.073L130.248 281.465L131.168 281.857C135.055 272.732 140.151 258.85 145.004 245.629L144.065 245.284ZM144.065 245.284L143.144 244.896L143.144 244.896L144.065 245.284L144.987 245.672L144.987 245.672L144.065 245.284ZM156 214L155.082 213.603C152.1 220.493 147.706 232.463 143.127 244.939L144.065 245.284L145.004 245.628C149.595 233.124 153.964 221.221 156.918 214.397L156 214ZM122.832 270.344L123.721 270.803C128.279 261.965 134.416 250.247 140.484 239.566C146.571 228.851 152.532 219.285 156.739 214.674L156 214L155.261 213.326C150.879 218.129 144.814 227.895 138.745 238.578C132.656 249.295 126.504 261.042 121.943 269.886L122.832 270.344ZM222.735 279.058L223.206 278.176C211.716 272.048 202.789 271.976 196.392 277.407L197.039 278.17L197.686 278.932C203.17 274.276 211.095 273.983 222.265 279.941L222.735 279.058ZM222.942 279.735L223.824 280.205C224.213 279.475 223.937 278.566 223.206 278.176L222.735 279.058L222.265 279.941C222.021 279.811 221.929 279.508 222.059 279.265L222.942 279.735ZM222.265 279.941L221.794 280.824C222.525 281.214 223.434 280.937 223.824 280.206L222.942 279.735L222.059 279.265C222.189 279.021 222.491 278.929 222.735 279.059L222.265 279.941ZM197.687 278.931L198.334 279.694C203.362 275.425 210.786 274.953 221.794 280.824L222.265 279.941L222.735 279.059C211.405 273.016 202.98 273.126 197.039 278.169L197.687 278.931ZM187.497 305.556L188.491 305.667C189.885 293.121 193.092 284.144 198.334 279.694L197.687 278.931L197.039 278.169C191.17 283.153 187.905 292.828 186.503 305.446L187.497 305.556ZM187.5 418.479L188.499 418.436C187.331 391.236 185.707 330.729 188.491 305.667L187.497 305.556L186.503 305.446C183.698 330.692 185.335 391.367 186.501 418.522L187.5 418.479ZM187.022 419.001L187.065 420C187.892 419.964 188.535 419.264 188.499 418.436L187.5 418.479L186.501 418.522C186.489 418.246 186.703 418.014 186.979 418.002L187.022 419.001ZM186.5 418.522L185.501 418.565C185.537 419.393 186.237 420.035 187.065 420L187.022 419.001L186.979 418.002C187.255 417.99 187.487 418.203 187.499 418.479L186.5 418.522ZM185.078 367.054L184.078 367.067C184.34 386.845 184.969 406.185 185.501 418.565L186.5 418.522L187.499 418.479C186.968 406.116 186.34 386.796 186.078 367.04L185.078 367.054ZM172.504 324.799L171.538 325.056C174.424 335.878 180.64 356.185 184.123 367.351L185.078 367.054L186.033 366.756C182.548 355.583 176.344 335.316 173.47 324.541L172.504 324.799ZM148.636 279.142L147.777 279.654C151.74 286.315 157.028 295.202 161.66 303.677C166.31 312.187 170.234 320.169 171.538 325.056L172.504 324.799L173.47 324.541C172.095 319.383 168.047 311.196 163.415 302.718C158.763 294.206 153.456 285.288 149.495 278.631L148.636 279.142ZM148.636 279.142L147.778 279.657L147.779 279.657L148.636 279.142L149.494 278.628L149.493 278.628L148.636 279.142ZM145 273L144.137 273.505C145.122 275.192 146.366 277.283 147.777 279.653L148.636 279.142L149.495 278.631C148.083 276.258 146.844 274.174 145.864 272.496L145 273ZM145.227 273.252L145.969 272.581L145.742 272.33L145 273L144.258 273.671L144.485 273.922L145.227 273.252ZM176.449 315.348L177.401 315.04C175.443 308.976 169.914 300.967 163.785 293.242C157.625 285.479 150.746 277.867 145.969 272.581L145.227 273.252L144.485 273.922C149.267 279.214 156.104 286.78 162.218 294.485C168.362 302.228 173.665 309.978 175.497 315.655L176.449 315.348ZM185.022 362.289L186.014 362.157C184.052 347.385 180.627 325.035 177.401 315.04L176.449 315.348L175.497 315.655C178.657 325.442 182.062 347.595 184.031 362.421L185.022 362.289ZM186.503 305.445L185.509 305.335C184.077 318.224 183.799 340.24 184.022 362.299L185.022 362.289L186.022 362.279C185.799 340.208 186.08 318.308 187.497 305.556L186.503 305.445ZM197.039 278.17L196.392 277.407C190.209 282.658 186.915 292.681 185.509 305.335L186.503 305.445L187.497 305.556C188.895 292.974 192.131 283.649 197.686 278.932L197.039 278.17ZM302 316.501H301V370H302H303V316.501H302ZM303.993 285.868L303.01 285.686C301.72 292.666 301 302.565 301 316.501H302H303C303 302.613 303.719 292.854 304.977 286.05L303.993 285.868ZM309.402 272.729L308.707 272.011C306.176 274.462 304.292 278.75 303.01 285.686L303.993 285.868L304.977 286.05C306.237 279.231 308.025 275.456 310.098 273.448L309.402 272.729ZM317.318 270.427L317.421 269.432C314.43 269.119 311.341 269.459 308.707 272.011L309.402 272.729L310.098 273.448C312.136 271.473 314.523 271.14 317.214 271.421L317.318 270.427ZM321.65 271.191L321.858 270.213C320.407 269.905 318.896 269.586 317.421 269.432L317.318 270.427L317.214 271.421C318.566 271.563 319.975 271.857 321.442 272.169L321.65 271.191ZM321.754 271.214L321.962 270.235L321.858 270.213L321.65 271.191L321.442 272.169L321.546 272.192L321.754 271.214ZM326.063 272.004L326.187 271.011C324.797 270.838 323.403 270.542 321.963 270.235L321.754 271.214L321.546 272.192C322.972 272.495 324.45 272.81 325.939 272.996L326.063 272.004ZM326.496 272.562L327.488 272.686C327.591 271.866 327.01 271.115 326.187 271.012L326.063 272.004L325.938 272.996C325.663 272.961 325.47 272.711 325.504 272.438L326.496 272.562ZM325.938 272.997L325.814 273.989C326.636 274.092 327.386 273.508 327.488 272.686L326.496 272.562L325.504 272.438C325.538 272.165 325.787 271.97 326.062 272.005L325.938 272.997ZM321.604 272.203L321.395 273.182C322.796 273.48 324.296 273.799 325.814 273.989L325.938 272.997L326.062 272.005C324.643 271.827 323.226 271.526 321.812 271.225L321.604 272.203ZM321.441 272.169L321.232 273.147L321.395 273.182L321.604 272.203L321.812 271.225L321.649 271.191L321.441 272.169ZM317.214 271.421L317.11 272.415C318.401 272.55 319.758 272.833 321.233 273.147L321.441 272.169L321.649 271.191C320.19 270.881 318.731 270.574 317.318 270.426L317.214 271.421ZM310.098 273.447L310.794 274.165C312.534 272.479 314.571 272.15 317.11 272.415L317.214 271.421L317.318 270.426C314.476 270.129 311.738 270.466 309.402 272.729L310.098 273.447ZM304.976 286.05L305.959 286.231C307.208 279.471 308.949 275.952 310.794 274.165L310.098 273.447L309.402 272.729C307.1 274.959 305.263 278.99 303.992 285.868L304.976 286.05ZM303 316.501H304C304 302.637 304.718 292.948 305.959 286.231L304.976 286.05L303.992 285.868C302.719 292.76 302 302.589 302 316.501H303ZM303 366.217H304V316.501H303H302V366.217H303ZM315.475 329.616L314.534 329.276C310.428 340.639 304.831 356.122 302.038 365.944L303 366.217L303.962 366.491C306.731 356.753 312.298 341.347 316.415 329.956L315.475 329.616ZM317.5 324L316.559 323.662C315.946 325.369 315.264 327.258 314.534 329.276L315.475 329.616L316.415 329.956C317.144 327.938 317.828 326.047 318.441 324.338L317.5 324ZM341.267 303.616L340.832 302.715C337.263 304.441 332.21 306.882 327.562 310.261C322.921 313.636 318.586 318.014 316.559 323.662L317.5 324L318.441 324.338C320.276 319.227 324.25 315.142 328.739 311.879C333.222 308.619 338.121 306.248 341.702 304.516L341.267 303.616ZM344.5 302L344.021 301.122C343.208 301.566 342.128 302.089 340.832 302.715L341.267 303.616L341.702 304.516C342.982 303.897 344.113 303.35 344.979 302.878L344.5 302ZM320.664 334.186L321.547 334.655C326.5 325.324 336.293 310.634 345.164 302.748L344.5 302L343.836 301.253C334.708 309.367 324.782 324.294 319.78 333.717L320.664 334.186ZM314.422 346.468L315.316 346.915C317.64 342.268 319.818 337.912 321.547 334.655L320.664 334.186L319.78 333.717C318.038 337.001 315.847 341.381 313.527 346.021L314.422 346.468ZM303 368.347L303.862 368.854C307.089 363.369 311.41 354.726 315.316 346.915L314.422 346.468L313.527 346.021C309.608 353.859 305.322 362.428 302.138 367.84L303 368.347ZM303 411.501H304V368.347H303H302V411.501H303ZM302.5 412.001V413.001C303.329 413.001 304 412.329 304 411.501H303H302C302 411.225 302.224 411.001 302.5 411.001V412.001ZM302 411.501H301C301 412.329 301.672 413.001 302.5 413.001V412.001V411.001C302.776 411.001 303 411.225 303 411.501H302ZM302 370H301V411.501H302H303V370H302ZM302 370H303C303 370.084 302.99 370.158 302.975 370.222C302.961 370.285 302.942 370.339 302.924 370.383C302.906 370.427 302.887 370.464 302.87 370.493C302.854 370.522 302.838 370.546 302.825 370.566C302.812 370.585 302.8 370.601 302.79 370.613C302.78 370.625 302.772 370.636 302.766 370.643C302.76 370.65 302.755 370.656 302.752 370.659C302.749 370.662 302.747 370.665 302.747 370.664C302.747 370.664 302.747 370.664 302.747 370.664C302.747 370.664 302.747 370.664 302.747 370.664C302.748 370.664 302.748 370.664 302.748 370.664C302.748 370.664 302.748 370.664 302.748 370.664C302.748 370.664 302.748 370.663 302.749 370.663C302.749 370.662 302.751 370.661 302.752 370.659C302.755 370.656 302.76 370.65 302.766 370.643C302.772 370.635 302.781 370.625 302.79 370.613C302.8 370.601 302.812 370.585 302.825 370.565C302.838 370.546 302.854 370.522 302.87 370.493C302.887 370.464 302.906 370.427 302.924 370.383C302.942 370.339 302.961 370.285 302.975 370.222C302.99 370.158 303 370.083 303 370H302H301C301 369.916 301.011 369.842 301.025 369.778C301.039 369.715 301.058 369.66 301.076 369.617C301.095 369.573 301.113 369.536 301.13 369.507C301.146 369.478 301.162 369.454 301.175 369.434C301.189 369.415 301.201 369.399 301.21 369.387C301.22 369.375 301.228 369.364 301.234 369.357C301.24 369.35 301.245 369.344 301.248 369.341C301.251 369.338 301.253 369.335 301.253 369.336C301.253 369.336 301.253 369.336 301.253 369.336C301.253 369.336 301.253 369.336 301.253 369.336C301.253 369.336 301.253 369.336 301.253 369.336C301.253 369.336 301.252 369.336 301.252 369.336C301.252 369.336 301.252 369.336 301.251 369.337C301.251 369.338 301.25 369.339 301.248 369.341C301.245 369.344 301.24 369.35 301.234 369.357C301.228 369.364 301.22 369.375 301.21 369.387C301.2 369.399 301.188 369.415 301.175 369.434C301.162 369.454 301.146 369.478 301.13 369.507C301.113 369.536 301.094 369.573 301.076 369.617C301.058 369.661 301.039 369.715 301.025 369.778C301.01 369.842 301 369.917 301 370H302ZM302 370H301C301 369.939 301.006 369.887 301.012 369.845C301.019 369.804 301.027 369.77 301.033 369.745C301.04 369.72 301.046 369.7 301.05 369.689C301.052 369.683 301.053 369.678 301.054 369.676C301.055 369.673 301.056 369.671 301.056 369.671C301.056 369.671 301.056 369.671 301.056 369.671C301.056 369.671 301.056 369.671 301.056 369.671C301.056 369.671 301.056 369.671 301.056 369.671C301.056 369.671 301.055 369.671 301.055 369.672C301.055 369.672 301.055 369.672 301.055 369.672C301.055 369.673 301.055 369.674 301.054 369.676C301.053 369.679 301.051 369.683 301.05 369.689C301.046 369.7 301.04 369.72 301.033 369.745C301.026 369.77 301.018 369.804 301.012 369.846C301.005 369.888 301 369.94 301 370H302H303C303 370.06 302.995 370.112 302.988 370.154C302.982 370.196 302.974 370.23 302.967 370.255C302.96 370.28 302.954 370.299 302.951 370.311C302.949 370.316 302.947 370.321 302.946 370.324C302.945 370.327 302.944 370.329 302.945 370.328C302.945 370.328 302.945 370.328 302.945 370.328C302.945 370.328 302.945 370.328 302.945 370.328C302.945 370.328 302.945 370.328 302.945 370.328C302.945 370.328 302.945 370.328 302.945 370.328C302.945 370.328 302.945 370.328 302.945 370.327C302.945 370.327 302.946 370.325 302.946 370.324C302.947 370.321 302.949 370.316 302.951 370.311C302.954 370.299 302.96 370.28 302.967 370.255C302.974 370.23 302.982 370.195 302.988 370.154C302.995 370.112 303 370.06 303 370H302Z" fill="black" mask="url(#path-28-outside-5_210_2128)"/>
<path d="M91.6566 283.164C89.8798 284.316 87.498 283.726 86.4655 281.877L77.4686 265.766C76.8411 264.643 77.1931 263.225 78.2728 262.525C79.3524 261.825 80.7899 262.082 81.5596 263.113L92.5984 277.9C93.8652 279.596 93.4332 282.011 91.6566 283.164Z" fill="white" stroke="black"/>
<path d="M102.338 273.015C100.95 274.538 98.3267 274.911 96.6066 273.83L79.8324 263.284C78.7865 262.626 78.6293 261.39 79.4734 260.464C80.3174 259.537 81.8705 259.24 83.018 259.786L101.418 268.548C103.305 269.447 103.726 271.491 102.338 273.015Z" fill="white" stroke="black"/>
<path d="M109.213 263.382C108.277 265.081 105.928 266.17 104.063 265.769L81.7994 260.98C80.6619 260.735 80.2173 259.729 80.7886 258.693C81.36 257.656 82.747 256.952 83.9422 257.092L107.333 259.836C109.292 260.066 110.149 261.683 109.213 263.382Z" fill="white" stroke="black"/>
<path d="M111.61 245.385C111.945 246.967 110.975 248.744 109.468 249.306L82.0303 259.529C81.0965 259.877 80.191 259.376 79.9829 258.395C79.7748 257.414 80.3391 256.307 81.2588 255.892L108.282 243.713C109.765 243.045 111.274 243.802 111.61 245.385Z" fill="white" stroke="black"/>
<path d="M103.347 233.008C104.744 233.865 104.919 235.53 103.734 236.679L82.6811 257.098C81.9476 257.81 80.6807 257.953 79.8163 257.422C78.9519 256.891 78.8004 255.877 79.4739 255.129L98.8025 233.651C99.8904 232.442 101.951 232.15 103.347 233.008Z" fill="white" stroke="black"/>
<path d="M87.365 229.516C89.2833 229.421 90.3422 230.883 89.6878 232.722L81.6411 255.34C81.2414 256.463 80.007 257.39 78.8359 257.448C77.6651 257.506 76.9686 256.674 77.2529 255.557L82.9841 233.054C83.4501 231.224 85.4469 229.612 87.365 229.516Z" fill="white" stroke="black"/>
<path d="M71.5138 232.528C73.444 231.735 75.3391 232.829 75.6505 234.916L78.538 254.273C78.7272 255.542 77.9606 256.906 76.7874 257.389C75.6139 257.872 74.4372 257.307 74.1009 256.098L68.9718 237.663C68.4186 235.675 69.5834 233.323 71.5138 232.528Z" fill="white" stroke="black"/>
<path d="M55.7696 242.611C57.3345 241.215 59.9409 241.236 61.4557 242.656L75.2404 255.578C76.1611 256.441 76.1369 257.773 75.1858 258.621C74.2346 259.47 72.683 259.542 71.6412 258.787L56.0446 247.481C54.3307 246.239 54.2047 244.006 55.7696 242.611Z" fill="white" stroke="black"/>
<path d="M46.6096 253.518C47.6546 251.847 50.0953 250.897 51.9562 251.438L73.121 257.591C74.255 257.921 74.6444 258.978 74.0075 259.997C73.3705 261.015 71.9306 261.639 70.7294 261.417L48.3133 257.265C46.3426 256.9 45.5647 255.19 46.6096 253.518Z" fill="white" stroke="black"/>
<path d="M42.5026 269.453C42.532 267.763 43.9116 266.054 45.543 265.685L72.812 259.532C73.8189 259.305 74.6019 259.951 74.5838 260.993C74.5656 262.036 73.7529 263.102 72.7447 263.406L45.4396 271.643C43.8061 272.135 42.4734 271.142 42.5026 269.453Z" fill="white" stroke="black"/>
<path d="M46.3185 280.599C45.4507 279.287 45.8447 277.522 47.1881 276.703L72.9508 260.995C73.7859 260.486 74.8772 260.729 75.417 261.544C75.9567 262.36 75.7497 263.454 74.9492 264.016L50.2598 281.346C48.9722 282.25 47.1865 281.911 46.3185 280.599Z" fill="white" stroke="black"/>
<path d="M56.2449 288.08C54.6546 287.468 54.2438 285.856 55.3405 284.529L73.353 262.727C74.0293 261.909 75.3408 261.56 76.3214 261.937C77.3017 262.314 77.6004 263.283 76.9978 264.13L60.9467 286.686C59.9694 288.059 57.8351 288.692 56.2449 288.08Z" fill="white" stroke="black"/>
<path d="M69.8248 290.596C67.9 290.718 66.8135 289.264 67.4419 287.407L75.0752 264.843C75.4588 263.71 76.6824 262.761 77.8572 262.686C79.032 262.612 79.7451 263.437 79.4784 264.563L74.1665 286.979C73.7293 288.824 71.7497 290.473 69.8248 290.596Z" fill="white" stroke="black"/>
<path d="M80.1187 265.117C77.5148 266.806 74.6613 267.61 72.1392 267.523C69.6191 267.436 67.3799 266.453 66.121 264.512C64.8621 262.571 64.8781 260.125 65.8269 257.789C66.7765 255.451 68.6743 253.174 71.2784 251.485C73.8824 249.796 76.7359 248.992 79.2579 249.079C81.7779 249.166 84.0165 250.15 85.2753 252.091C86.5341 254.032 86.5189 256.477 85.5702 258.813C84.6207 261.152 82.7227 263.429 80.1187 265.117Z" fill="#FFD362" stroke="black"/>
<path d="M269.373 309.28C267.836 311.358 264.88 311.745 262.861 310.131L227.111 281.572C225.912 280.614 225.684 278.879 226.597 277.644C227.51 276.41 229.237 276.118 230.504 276.985L268.28 302.804C270.414 304.263 270.91 307.202 269.373 309.28Z" fill="white" stroke="black"/>
<path d="M275.309 291.385C274.778 293.99 272.271 295.33 269.789 294.336L228.336 277.729C226.864 277.14 225.95 275.452 226.265 273.907C226.58 272.362 228.012 271.511 229.508 271.979L271.659 285.166C274.182 285.955 275.84 288.78 275.309 291.385Z" fill="white" stroke="black"/>
<path d="M275.865 274.778C276.208 277.555 274.156 279.58 271.355 279.228L229.645 273.991C227.987 273.783 226.52 272.324 226.316 270.68C226.113 269.036 227.246 267.791 228.886 267.855L270.15 269.482C272.922 269.591 275.522 272 275.865 274.778Z" fill="white" stroke="black"/>
<path d="M260.338 244.909C262.377 247.229 261.876 250.566 259.241 252.213L229.375 270.882C227.819 271.855 225.66 271.544 224.456 270.174C223.252 268.804 223.422 266.852 224.845 265.728L252.149 244.143C254.557 242.239 258.299 242.589 260.338 244.909Z" fill="white" stroke="black"/>
<path d="M233.81 225.602C236.67 226.725 238.316 230.121 237.414 233.036L227.013 266.635C226.48 268.356 224.742 269.184 223.053 268.521C221.364 267.857 220.314 265.934 220.662 264.141L227.459 229.126C228.048 226.088 230.949 224.479 233.81 225.602Z" fill="white" stroke="black"/>
<path d="M204.754 222.038C207.548 221.661 210.569 223.575 211.393 226.244L223.447 265.282C223.935 266.861 223.016 268.281 221.363 268.504C219.709 268.728 217.907 267.675 217.273 266.115L201.594 227.567C200.522 224.931 201.96 222.415 204.754 222.038Z" fill="white" stroke="black"/>
<path d="M183.071 229.081C185.217 227.57 188.374 228 190.023 230.028L218.316 264.821C219.294 266.025 219.061 267.687 217.787 268.584C216.513 269.48 214.655 269.292 213.578 268.157L182.462 235.352C180.649 233.439 180.925 230.592 183.071 229.081Z" fill="white" stroke="black"/>
<path d="M169.165 247.525C170.11 245.089 172.81 244.105 175.112 245.358L215.001 267.06C216.368 267.804 217.005 269.536 216.444 270.982C215.883 272.428 214.325 273.071 212.915 272.437L171.783 253.942C169.409 252.874 168.22 249.961 169.165 247.525Z" fill="white" stroke="black"/>
<path d="M166.365 266.469C166.214 263.708 168.373 261.83 171.114 262.339L213.109 270.13C214.732 270.431 216.083 271.958 216.173 273.593C216.262 275.227 215.059 276.389 213.444 276.227L171.646 272.032C168.918 271.759 166.517 269.229 166.365 266.469Z" fill="white" stroke="black"/>
<path d="M176.95 293.134C175.311 290.582 176.343 287.547 179.212 286.485L213.657 273.728C215.352 273.1 217.438 273.789 218.406 275.296C219.374 276.803 218.886 278.6 217.294 279.387L184.926 295.378C182.23 296.709 178.589 295.685 176.95 293.134Z" fill="white" stroke="black"/>
<path d="M195.059 311.011C192.54 309.168 192.084 305.583 194.06 303.168L215.705 276.729C216.872 275.303 218.946 275.039 220.434 276.127C221.921 277.215 222.304 279.277 221.307 280.827L202.811 309.571C201.122 312.195 197.578 312.854 195.059 311.011Z" fill="white" stroke="black"/>
<path d="M218.922 322.007C215.993 321.265 213.854 318.149 214.235 315.18L218.863 279.1C219.088 277.346 220.621 276.315 222.35 276.753C224.08 277.191 225.401 278.946 225.357 280.745L224.447 317.766C224.372 320.813 221.85 322.749 218.922 322.007Z" fill="white" stroke="black"/>
<path d="M243.113 324.3C240.333 324.722 237.293 322.863 236.431 320.215L223.726 281.192C223.215 279.625 224.109 278.193 225.754 277.944C227.398 277.695 229.211 278.716 229.866 280.261L246.18 318.736C247.287 321.347 245.891 323.879 243.113 324.3Z" fill="white" stroke="black"/>
<path d="M234.565 280.717C229.874 287.06 219.838 287.378 212.211 281.738C204.585 276.098 201.95 266.408 206.641 260.065C211.332 253.722 221.369 253.404 228.995 259.044C236.621 264.684 239.256 274.374 234.565 280.717Z" fill="#FFD362" stroke="black"/>
<path d="M332.266 239.828C334.427 240.976 335.146 243.725 333.826 245.785L324.868 259.764C324.07 261.008 322.452 261.431 321.148 260.738C319.843 260.044 319.29 258.465 319.875 257.109L326.456 241.865C327.425 239.619 330.106 238.679 332.266 239.828Z" fill="white" stroke="black"/>
<path d="M315.898 234.095C318.166 234.745 320.153 237.248 320.223 239.547L320.803 258.677C320.845 260.064 319.815 260.835 318.447 260.443C317.078 260.051 315.838 258.63 315.606 257.19L312.412 237.311C312.029 234.923 313.629 233.446 315.898 234.095Z" fill="white" stroke="black"/>
<path d="M302.446 231.693C304.607 231.863 307.109 233.639 307.928 235.583L317.366 258.002C317.861 259.177 317.225 260.018 315.918 259.916C314.611 259.813 313.091 258.802 312.459 257.615L300.395 234.99C299.349 233.028 300.285 231.523 302.446 231.693Z" fill="white" stroke="black"/>
<path d="M283.932 236.851C285.222 235.89 287.323 235.91 288.577 236.897L316.134 258.602C316.91 259.214 316.892 260.176 316.092 260.771C315.293 261.367 314.002 261.382 313.18 260.804L284 240.309C282.673 239.377 282.642 237.813 283.932 236.851Z" fill="white" stroke="black"/>
<path d="M277.437 249.561C277.368 247.915 278.612 246.999 280.187 247.539L313.44 258.925C314.413 259.259 315.221 260.333 315.264 261.351C315.307 262.369 314.57 262.961 313.599 262.689L280.434 253.376C278.863 252.935 277.506 251.208 277.437 249.561Z" fill="white" stroke="black"/>
<path d="M284.189 265.795C282.911 264.084 283.671 262.526 285.856 262.378L312.204 260.594C313.526 260.504 315.17 261.246 315.944 262.281C316.718 263.316 316.349 264.282 315.105 264.476L290.32 268.35C288.264 268.671 285.468 267.506 284.189 265.795Z" fill="white" stroke="black"/>
<path d="M297.006 279.285C295.08 277.852 295.196 275.502 297.259 274.178L312.968 264.087C314.212 263.288 316.073 263.339 317.235 264.203C318.397 265.067 318.468 266.453 317.396 267.381L303.865 279.091C302.089 280.629 298.932 280.717 297.006 279.285Z" fill="white" stroke="black"/>
<path d="M316.505 289.773C314.249 288.913 312.711 286.193 313.166 283.868L316.513 266.744C316.788 265.341 318.051 264.657 319.413 265.177C320.774 265.696 321.774 267.242 321.707 268.724L320.893 286.814C320.782 289.271 318.762 290.633 316.505 289.773Z" fill="white" stroke="black"/>
<path d="M332.61 293.765C330.409 293.485 327.972 291.531 327.278 289.488L319.849 267.647C319.43 266.414 320.14 265.581 321.469 265.749C322.798 265.918 324.284 267.031 324.853 268.284L334.927 290.461C335.869 292.535 334.81 294.045 332.61 293.765Z" fill="white" stroke="black"/>
<path d="M350.254 291.028C348.644 291.689 346.298 291.237 345.077 290.03L321.668 266.889C320.918 266.147 321.107 265.235 322.097 264.829C323.087 264.422 324.521 264.667 325.337 265.383L350.773 287.692C352.1 288.855 351.865 290.367 350.254 291.028Z" fill="white" stroke="black"/>
<path d="M358.384 282.933C357.684 284.286 356.009 284.788 354.68 284.042L322.82 266.168C321.991 265.703 321.678 264.659 322.114 263.815C322.551 262.97 323.579 262.633 324.431 263.054L357.17 279.23C358.536 279.905 359.085 281.579 358.384 282.933Z" fill="white" stroke="black"/>
<path d="M359.204 270.684C359.626 272.4 358.532 273.472 356.79 273.048L324.293 265.146C323.224 264.886 322.171 263.845 321.912 262.792C321.653 261.739 322.281 261.054 323.333 261.242L355.299 266.984C357.012 267.292 358.782 268.969 359.204 270.684Z" fill="white" stroke="black"/>
<path d="M353.042 257.07C354.35 258.776 353.604 260.358 351.407 260.539L325.402 262.68C324.073 262.79 322.41 262.066 321.619 261.035C320.828 260.003 321.186 259.026 322.433 258.81L346.844 254.59C348.906 254.233 351.734 255.365 353.042 257.07Z" fill="white" stroke="black"/>
<path d="M323.196 255.071C326.408 256.779 328.947 259.075 330.443 261.43C331.931 263.77 332.444 266.269 331.373 268.285C330.301 270.3 327.941 271.273 325.169 271.348C322.381 271.424 319.058 270.602 315.845 268.894C312.632 267.186 310.093 264.89 308.597 262.536C307.11 260.196 306.597 257.696 307.669 255.68C308.74 253.665 311.1 252.693 313.871 252.617C316.66 252.542 319.983 253.362 323.196 255.071Z" fill="#FFD362" stroke="black"/>
<path d="M246 146C246 149.314 243.761 152 241 152C238.239 152 236 149.314 236 146C236 142.686 238.239 140 241 140C243.761 140 246 142.686 246 146Z" fill="#7BAC9D"/>
<path d="M150 112C150 115.314 147.761 118 145 118C142.239 118 140 115.314 140 112C140 108.686 142.239 106 145 106C147.761 106 150 108.686 150 112Z" fill="#7BAC9D"/>
<path d="M225 146C225 149.314 222.761 152 220 152C217.239 152 215 149.314 215 146C215 142.686 217.239 140 220 140C222.761 140 225 142.686 225 146Z" fill="#7BAC9D"/>
<ellipse cx="239.5" cy="95" rx="9.5" ry="11" fill="#7BAC9D"/>
<ellipse cx="258.5" cy="106" rx="9.5" ry="11" fill="#7BAC9D"/>
<ellipse cx="168.5" cy="148" rx="9.5" ry="11" fill="#7BAC9D"/>
<ellipse cx="165.5" cy="103" rx="9.5" ry="11" fill="#7BAC9D"/>
<ellipse cx="187.5" cy="98" rx="9.5" ry="11" fill="#7BAC9D"/>
<path d="M232 51.0439C232 51.0439 240.937 52.5485 244.166 54.4479C247.395 56.3472 253.046 61.5706 255.468 65C256.006 65 249.984 54.5994 245.243 39.9387C242.125 30.2982 245.243 24.4622 245.243 22C246.14 27.5399 247.718 36.3509 251.163 46.2699C254.607 56.189 256.544 63.0654 257.083 65C257.531 63.4172 258.428 58.1411 258.428 51.8098C258.428 45.4785 257.531 41.2577 257.083 39.9387C259.056 42.6646 262.551 48.3804 261.926 53.1288C261.065 59.6712 259.504 59.9877 258.428 65H257.083H255.468H253.584C250.452 62.2406 247.057 59.7946 243.448 57.6972L232 51.0439Z" fill="#0DE6A4"/>
<path d="M253.584 65H258.428C259.504 59.9877 261.065 59.6712 261.926 53.1288C262.551 48.3804 259.056 42.6646 257.083 39.9387C257.531 41.2577 258.428 45.4785 258.428 51.8098C258.428 58.1411 257.531 63.4172 257.083 65C256.544 63.0654 254.607 56.189 251.163 46.2699C247.718 36.3509 246.14 27.5399 245.243 22C245.243 24.4622 242.125 30.2982 245.243 39.9387C249.984 54.5994 256.006 65 255.468 65C253.046 61.5706 247.395 56.3472 244.166 54.4479C240.937 52.5485 232 51.0439 232 51.0439L243.448 57.6972C247.057 59.7946 250.452 62.2406 253.584 65Z" stroke="black" stroke-linecap="round" stroke-linejoin="round"/>
<path d="M244 200.5L247 184.5L250 187L252 176.5" stroke="white" stroke-linecap="round"/>
</g>
<defs>
<clipPath id="clip0_210_2128">
<rect width="384" height="384" fill="white"/>
</clipPath>
</defs>
</svg>
