<svg width="384" height="384" viewBox="0 0 384 384" fill="none" xmlns="http://www.w3.org/2000/svg">
<g clip-path="url(#clip0_210_2042)">
<mask id="path-1-inside-1_210_2042" fill="white">
<path d="M69.5305 121.652C87.497 133.024 111.28 127.678 122.652 109.711C125.199 105.688 126.906 101.373 127.821 96.9705C128.82 92.1656 133.645 88.3994 138.548 88.5949C142.199 88.7404 145.843 88.3645 149.367 87.4929C152.811 86.6408 156.54 87.8921 158.78 90.6443C161.339 93.7883 164.442 96.5787 168.056 98.8662C178.608 105.545 191.167 106.457 202.039 102.432C205.948 100.985 210.587 102.322 213.016 105.709C216.288 110.27 220.474 114.292 225.509 117.479C241.474 127.584 261.368 126.392 275.83 116.012C276.281 115.689 276.884 115.675 277.352 115.972C291.352 124.833 309.884 120.667 318.746 106.667C327.607 92.6674 323.441 74.1348 309.441 65.2737C305.091 62.5204 300.303 61.0254 295.504 60.6921C292.521 60.4848 289.725 58.9037 288.191 56.3363C284.691 50.4784 279.802 45.3304 273.642 41.4315C262.205 34.1925 248.752 32.7505 236.724 36.3305C231.301 37.9446 224.405 34.164 222.598 28.8022C219.877 20.7289 214.472 13.5023 206.713 8.59083C192.078 -0.671851 173.586 1.15781 161.084 11.8642C158.673 13.9289 155.293 14.5905 152.283 13.5857C135.88 8.11159 117.254 14.2644 107.59 29.5319C105.043 33.5556 103.336 37.8711 102.42 42.2736C101.422 47.0784 96.5965 50.8445 91.6929 50.6485C78.4085 50.1175 65.2115 56.4885 57.5898 68.5302C46.218 86.4965 51.5643 110.28 69.5305 121.652ZM74.6052 40.0222C78.8051 42.6805 84.3649 41.4308 87.0232 37.2308C89.6813 33.0309 88.4317 27.471 84.2319 24.8128C80.032 22.1545 74.4723 23.4044 71.8138 27.6041C69.1555 31.8041 70.4052 37.3638 74.6052 40.0222Z"/>
</mask>
<path d="M69.5305 121.652C87.497 133.024 111.28 127.678 122.652 109.711C125.199 105.688 126.906 101.373 127.821 96.9705C128.82 92.1656 133.645 88.3994 138.548 88.5949C142.199 88.7404 145.843 88.3645 149.367 87.4929C152.811 86.6408 156.54 87.8921 158.78 90.6443C161.339 93.7883 164.442 96.5787 168.056 98.8662C178.608 105.545 191.167 106.457 202.039 102.432C205.948 100.985 210.587 102.322 213.016 105.709C216.288 110.27 220.474 114.292 225.509 117.479C241.474 127.584 261.368 126.392 275.83 116.012C276.281 115.689 276.884 115.675 277.352 115.972C291.352 124.833 309.884 120.667 318.746 106.667C327.607 92.6674 323.441 74.1348 309.441 65.2737C305.091 62.5204 300.303 61.0254 295.504 60.6921C292.521 60.4848 289.725 58.9037 288.191 56.3363C284.691 50.4784 279.802 45.3304 273.642 41.4315C262.205 34.1925 248.752 32.7505 236.724 36.3305C231.301 37.9446 224.405 34.164 222.598 28.8022C219.877 20.7289 214.472 13.5023 206.713 8.59083C192.078 -0.671851 173.586 1.15781 161.084 11.8642C158.673 13.9289 155.293 14.5905 152.283 13.5857C135.88 8.11159 117.254 14.2644 107.59 29.5319C105.043 33.5556 103.336 37.8711 102.42 42.2736C101.422 47.0784 96.5965 50.8445 91.6929 50.6485C78.4085 50.1175 65.2115 56.4885 57.5898 68.5302C46.218 86.4965 51.5643 110.28 69.5305 121.652ZM74.6052 40.0222C78.8051 42.6805 84.3649 41.4308 87.0232 37.2308C89.6813 33.0309 88.4317 27.471 84.2319 24.8128C80.032 22.1545 74.4723 23.4044 71.8138 27.6041C69.1555 31.8041 70.4052 37.3638 74.6052 40.0222Z" fill="white"/>
<path d="M69.5305 121.652L68.9957 122.497L68.9957 122.497L69.5305 121.652ZM168.056 98.8662L167.521 99.7112L167.521 99.7112L168.056 98.8662ZM225.509 117.479L224.974 118.324L224.974 118.324L225.509 117.479ZM277.352 115.972L276.817 116.817L276.817 116.817L277.352 115.972ZM318.746 106.667L319.59 107.202L319.59 107.202L318.746 106.667ZM309.441 65.2737L309.976 64.4287L309.976 64.4287L309.441 65.2737ZM273.642 41.4315L274.177 40.5866L274.177 40.5866L273.642 41.4315ZM206.713 8.59083L207.247 7.74587L207.247 7.74587L206.713 8.59083ZM107.59 29.5319L106.745 28.997L106.745 28.997L107.59 29.5319ZM87.0232 37.2308L87.8682 37.7656L87.8682 37.7656L87.0232 37.2308ZM71.8138 27.6041L70.9689 27.0693L70.9689 27.0692L71.8138 27.6041ZM102.42 42.2736L101.441 42.0701L102.42 42.2736ZM91.6929 50.6485L91.7328 49.6493L91.6929 50.6485ZM161.084 11.8642L160.434 11.1047L161.084 11.8642ZM295.504 60.6921L295.435 61.6897L295.504 60.6921ZM288.191 56.3363L287.332 56.8492L288.191 56.3363ZM202.039 102.432L201.692 101.494L202.039 102.432ZM149.367 87.4929L149.607 88.4636L149.367 87.4929ZM275.83 116.012L275.247 115.2L275.83 116.012ZM222.598 28.8022L223.545 28.4828L222.598 28.8022ZM127.821 96.9705L126.842 96.7669L127.821 96.9705ZM138.548 88.5949L138.588 87.5956L138.548 88.5949ZM69.5305 121.652L70.0653 120.807C87.5652 131.883 110.731 126.676 121.807 109.176L122.652 109.711L123.497 110.246C111.83 128.679 87.4288 134.164 68.9957 122.497L69.5305 121.652ZM122.652 109.711L121.807 109.176C124.289 105.256 125.951 101.053 126.842 96.7669L127.821 96.9705L128.8 97.174C127.861 101.692 126.109 106.119 123.497 110.246L122.652 109.711ZM138.548 88.5949L138.588 87.5956C142.144 87.7374 145.694 87.3712 149.126 86.5221L149.367 87.4929L149.607 88.4636C145.992 89.3577 142.254 89.7434 138.509 89.5941L138.548 88.5949ZM158.78 90.6443L159.556 90.0131C162.048 93.0745 165.069 95.7923 168.591 98.0213L168.056 98.8662L167.521 99.7112C163.814 97.3651 160.631 94.5022 158.005 91.2756L158.78 90.6443ZM168.056 98.8662L168.591 98.0213C178.868 104.526 191.1 105.416 201.692 101.494L202.039 102.432L202.387 103.37C191.235 107.498 178.348 106.564 167.521 99.7112L168.056 98.8662ZM213.016 105.709L213.828 105.126C217.027 109.585 221.119 113.517 226.043 116.634L225.509 117.479L224.974 118.324C219.828 115.067 215.549 110.956 212.203 106.291L213.016 105.709ZM225.509 117.479L226.043 116.634C241.653 126.513 261.104 125.35 275.247 115.2L275.83 116.012L276.413 116.825C261.631 127.434 241.296 128.654 224.974 118.324L225.509 117.479ZM277.352 115.972L277.887 115.127C291.42 123.692 309.335 119.665 317.901 106.132L318.746 106.667L319.59 107.202C310.434 121.668 291.284 125.973 276.817 116.817L277.352 115.972ZM318.746 106.667L317.901 106.132C326.466 92.5992 322.439 74.6844 308.906 66.1187L309.441 65.2737L309.976 64.4287C324.442 73.5853 328.747 92.7355 319.59 107.202L318.746 106.667ZM309.441 65.2737L308.906 66.1187C304.7 63.4562 300.073 62.0118 295.435 61.6897L295.504 60.6921L295.574 59.6945C300.534 60.039 305.482 61.5845 309.976 64.4287L309.441 65.2737ZM288.191 56.3363L287.332 56.8492C283.911 51.1226 279.132 46.0896 273.107 42.2765L273.642 41.4315L274.177 40.5866C280.473 44.5712 285.471 49.8342 289.049 55.8234L288.191 56.3363ZM273.642 41.4315L273.107 42.2765C261.925 35.1984 248.772 33.7879 237.009 37.2889L236.724 36.3305L236.439 35.372C248.732 31.7132 262.486 33.1865 274.177 40.5866L273.642 41.4315ZM222.598 28.8022L221.65 29.1215C219 21.2577 213.737 14.2202 206.178 9.4358L206.713 8.59083L207.247 7.74587C215.208 12.7844 220.754 20.2001 223.545 28.4828L222.598 28.8022ZM206.713 8.59083L206.178 9.4358C191.925 0.414528 173.912 2.19486 161.734 12.6238L161.084 11.8642L160.434 11.1047C173.259 0.120764 192.232 -1.75823 207.247 7.74587L206.713 8.59083ZM152.283 13.5857L151.966 14.5342C135.989 9.2023 117.847 15.1969 108.435 30.0667L107.59 29.5319L106.745 28.997C116.66 13.3318 135.77 7.02087 152.599 12.6371L152.283 13.5857ZM107.59 29.5319L108.435 30.0667C105.953 33.9873 104.291 38.1904 103.399 42.4772L102.42 42.2736L101.441 42.0701C102.381 37.5518 104.133 33.1238 106.745 28.997L107.59 29.5319ZM91.6929 50.6485L91.6529 51.6477C78.7106 51.1304 65.8578 57.3372 58.4347 69.065L57.5898 68.5302L56.7448 67.9953C64.5652 55.6397 78.1064 49.1046 91.7328 49.6493L91.6929 50.6485ZM57.5898 68.5302L58.4347 69.065C47.3584 86.5647 52.5658 109.73 70.0653 120.807L69.5305 121.652L68.9957 122.497C50.5628 110.83 45.0777 86.4284 56.7448 67.9953L57.5898 68.5302ZM74.6052 40.0222L75.14 39.1772C78.8733 41.5402 83.8153 40.4293 86.1783 36.696L87.0232 37.2308L87.8682 37.7656C84.9145 42.4323 78.737 43.8208 74.0703 40.8671L74.6052 40.0222ZM87.0232 37.2308L86.1782 36.696C88.541 32.9627 87.4302 28.0206 83.6971 25.6577L84.2319 24.8128L84.7667 23.9678C89.4333 26.9215 90.8216 33.0991 87.8682 37.7656L87.0232 37.2308ZM84.2319 24.8128L83.6971 25.6577C79.9639 23.2948 75.0219 24.4058 72.6588 28.1389L71.8138 27.6041L70.9689 27.0692C73.9227 22.403 80.1002 21.0141 84.7667 23.9678L84.2319 24.8128ZM71.8138 27.6041L72.6588 28.1389C70.2958 31.8722 71.4067 36.8142 75.14 39.1772L74.6052 40.0222L74.0703 40.8671C69.4037 37.9134 68.0151 31.7359 70.9689 27.0693L71.8138 27.6041ZM102.42 42.2736L103.399 42.4772C102.301 47.7608 97.0448 51.8632 91.6529 51.6477L91.6929 50.6485L91.7328 49.6493C96.1481 49.8258 100.542 46.396 101.441 42.0701L102.42 42.2736ZM161.084 11.8642L161.734 12.6238C159.057 14.9167 155.31 15.6503 151.966 14.5342L152.283 13.5857L152.599 12.6371C155.277 13.5306 158.289 12.941 160.434 11.1047L161.084 11.8642ZM295.504 60.6921L295.435 61.6897C292.155 61.4618 289.049 59.7227 287.332 56.8492L288.191 56.3363L289.049 55.8234C290.4 58.0848 292.886 59.5078 295.574 59.6945L295.504 60.6921ZM202.039 102.432L201.692 101.494C206.008 99.8968 211.127 101.36 213.828 105.126L213.016 105.709L212.203 106.291C210.046 103.284 205.888 102.074 202.387 103.37L202.039 102.432ZM149.367 87.4929L149.126 86.5221C152.948 85.5769 157.072 86.9614 159.556 90.0131L158.78 90.6443L158.005 91.2756C156.008 88.8227 152.675 87.7048 149.607 88.4636L149.367 87.4929ZM275.83 116.012L275.247 115.2C276.033 114.636 277.079 114.615 277.887 115.127L277.352 115.972L276.817 116.817C276.689 116.735 276.528 116.743 276.413 116.825L275.83 116.012ZM236.724 36.3305L237.009 37.2889C233.987 38.1884 230.633 37.5703 227.831 36.0629C225.029 34.5554 222.651 32.0907 221.65 29.1215L222.598 28.8022L223.545 28.4828C224.352 30.8754 226.325 32.9819 228.779 34.3016C231.232 35.6215 234.038 36.0866 236.439 35.372L236.724 36.3305ZM127.821 96.9705L126.842 96.7669C127.941 91.4833 133.196 87.3807 138.588 87.5956L138.548 88.5949L138.509 89.5941C134.093 89.418 129.7 92.8479 128.8 97.174L127.821 96.9705Z" fill="black" mask="url(#path-1-inside-1_210_2042)"/>
<rect x="140" y="53" width="94" height="73" rx="36.5" fill="#3ED4A6" stroke="black"/>
<rect x="67" y="82" width="250" height="106" rx="31" fill="#C8CFD6" stroke="black"/>
<path d="M85 287C85 269.879 98.8792 256 116 256H268C285.121 256 299 269.879 299 287V339C299 351.703 288.703 362 276 362H108C95.2975 362 85 351.703 85 339V287Z" fill="#2C404F" stroke="black"/>
<path d="M109 272H131V378H109V272Z" fill="#2C404F" stroke="black"/>
<path d="M255 272H277V378H255V272Z" fill="#2C404F" stroke="black"/>
<path d="M67 108H317V300C317 321.539 299.539 339 278 339H228.117C224.274 339 220.664 337.16 218.406 334.05L199.788 308.403C194.974 301.772 185.077 301.809 180.313 308.475L162.09 333.977C159.837 337.129 156.201 339 152.326 339H106C84.4609 339 67 321.539 67 300V108Z" fill="#0CA677" stroke="black"/>
<rect x="74.5" y="114.5" width="47" height="73" fill="#A5B8D6" stroke="black"/>
<rect x="261.5" y="114.5" width="47" height="73" fill="#A5B8D6" stroke="black"/>
<path d="M97 212C97 179.415 123.415 153 156 153H228C260.585 153 287 179.415 287 212V304H97V212Z" fill="#09BF88" stroke="black"/>
<path d="M166.596 22.9096C165.344 18.4346 168.708 14 173.355 14H200.748C205.243 14 208.411 18.411 206.976 22.6702C205.042 28.4071 204.988 34.6108 206.819 40.3809L234 126H140L166.383 40.0279C168.092 34.4599 168.166 28.5184 166.596 22.9096Z" fill="#6B7C85" stroke="black"/>
<rect x="67" y="289" width="250" height="35" fill="#FF6B6B" stroke="black"/>
<mask id="path-14-inside-2_210_2042" fill="white">
<path fill-rule="evenodd" clip-rule="evenodd" d="M111 324H271V368.135C271 371.722 268.288 374.728 264.721 375.098L189.244 382.908C188.749 382.959 188.251 382.958 187.757 382.903L117.234 375.135C113.686 374.744 111 371.746 111 368.177V324ZM121 331.433C121 330.328 121.895 329.433 123 329.433C124.105 329.433 125 330.328 125 331.433V370.12C125 371.224 124.105 372.12 123 372.12C121.895 372.12 121 371.224 121 370.12V331.433ZM258 329.433C256.895 329.433 256 330.328 256 331.433V370.12C256 371.224 256.895 372.12 258 372.12C259.105 372.12 260 371.224 260 370.12V331.433C260 330.328 259.105 329.433 258 329.433ZM241 331.433C241 330.328 241.895 329.433 243 329.433C244.105 329.433 245 330.328 245 331.433V370.12C245 371.224 244.105 372.12 243 372.12C241.895 372.12 241 371.224 241 370.12V331.433ZM228 329.433C226.895 329.433 226 330.328 226 331.433V370.12C226 371.224 226.895 372.12 228 372.12C229.105 372.12 230 371.224 230 370.12V331.433C230 330.328 229.105 329.433 228 329.433ZM211 331.433C211 330.328 211.895 329.433 213 329.433C214.105 329.433 215 330.328 215 331.433V370.12C215 371.224 214.105 372.12 213 372.12C211.895 372.12 211 371.224 211 370.12V331.433ZM198 329.433C196.895 329.433 196 330.328 196 331.433V370.12C196 371.224 196.895 372.12 198 372.12C199.105 372.12 200 371.224 200 370.12V331.433C200 330.328 199.105 329.433 198 329.433ZM181 331.433C181 330.328 181.895 329.433 183 329.433C184.105 329.433 185 330.328 185 331.433V370.12C185 371.224 184.105 372.12 183 372.12C181.895 372.12 181 371.224 181 370.12V331.433ZM168 329.433C166.895 329.433 166 330.328 166 331.433V370.12C166 371.224 166.895 372.12 168 372.12C169.105 372.12 170 371.224 170 370.12V331.433C170 330.328 169.105 329.433 168 329.433ZM151 331.433C151 330.328 151.895 329.433 153 329.433C154.105 329.433 155 330.328 155 331.433V370.12C155 371.224 154.105 372.12 153 372.12C151.895 372.12 151 371.224 151 370.12V331.433ZM138 329.433C136.895 329.433 136 330.328 136 331.433V370.12C136 371.224 136.895 372.12 138 372.12C139.105 372.12 140 371.224 140 370.12V331.433C140 330.328 139.105 329.433 138 329.433Z"/>
</mask>
<path fill-rule="evenodd" clip-rule="evenodd" d="M111 324H271V368.135C271 371.722 268.288 374.728 264.721 375.098L189.244 382.908C188.749 382.959 188.251 382.958 187.757 382.903L117.234 375.135C113.686 374.744 111 371.746 111 368.177V324ZM121 331.433C121 330.328 121.895 329.433 123 329.433C124.105 329.433 125 330.328 125 331.433V370.12C125 371.224 124.105 372.12 123 372.12C121.895 372.12 121 371.224 121 370.12V331.433ZM258 329.433C256.895 329.433 256 330.328 256 331.433V370.12C256 371.224 256.895 372.12 258 372.12C259.105 372.12 260 371.224 260 370.12V331.433C260 330.328 259.105 329.433 258 329.433ZM241 331.433C241 330.328 241.895 329.433 243 329.433C244.105 329.433 245 330.328 245 331.433V370.12C245 371.224 244.105 372.12 243 372.12C241.895 372.12 241 371.224 241 370.12V331.433ZM228 329.433C226.895 329.433 226 330.328 226 331.433V370.12C226 371.224 226.895 372.12 228 372.12C229.105 372.12 230 371.224 230 370.12V331.433C230 330.328 229.105 329.433 228 329.433ZM211 331.433C211 330.328 211.895 329.433 213 329.433C214.105 329.433 215 330.328 215 331.433V370.12C215 371.224 214.105 372.12 213 372.12C211.895 372.12 211 371.224 211 370.12V331.433ZM198 329.433C196.895 329.433 196 330.328 196 331.433V370.12C196 371.224 196.895 372.12 198 372.12C199.105 372.12 200 371.224 200 370.12V331.433C200 330.328 199.105 329.433 198 329.433ZM181 331.433C181 330.328 181.895 329.433 183 329.433C184.105 329.433 185 330.328 185 331.433V370.12C185 371.224 184.105 372.12 183 372.12C181.895 372.12 181 371.224 181 370.12V331.433ZM168 329.433C166.895 329.433 166 330.328 166 331.433V370.12C166 371.224 166.895 372.12 168 372.12C169.105 372.12 170 371.224 170 370.12V331.433C170 330.328 169.105 329.433 168 329.433ZM151 331.433C151 330.328 151.895 329.433 153 329.433C154.105 329.433 155 330.328 155 331.433V370.12C155 371.224 154.105 372.12 153 372.12C151.895 372.12 151 371.224 151 370.12V331.433ZM138 329.433C136.895 329.433 136 330.328 136 331.433V370.12C136 371.224 136.895 372.12 138 372.12C139.105 372.12 140 371.224 140 370.12V331.433C140 330.328 139.105 329.433 138 329.433Z" fill="#FF6B6B"/>
<path d="M271 324H272V323H271V324ZM111 324V323H110V324H111ZM264.721 375.098L264.823 376.092L264.823 376.092L264.721 375.098ZM189.244 382.908L189.141 381.914L189.141 381.914L189.244 382.908ZM187.757 382.903L187.866 381.909L187.866 381.909L187.757 382.903ZM117.234 375.135L117.124 376.129L117.124 376.129L117.234 375.135ZM271 324V323H111V324V325H271V324ZM271 368.135H272V324H271H270V368.135H271ZM264.721 375.098L264.823 376.092C268.901 375.67 272 372.234 272 368.135H271H270C270 371.209 267.676 373.787 264.618 374.103L264.721 375.098ZM189.244 382.908L189.347 383.903L264.823 376.092L264.721 375.098L264.618 374.103L189.141 381.914L189.244 382.908ZM187.757 382.903L187.647 383.897C188.212 383.96 188.782 383.961 189.347 383.903L189.244 382.908L189.141 381.914C188.717 381.957 188.29 381.956 187.866 381.909L187.757 382.903ZM117.234 375.135L117.124 376.129L187.647 383.897L187.757 382.903L187.866 381.909L117.343 374.141L117.234 375.135ZM111 368.177H110C110 372.256 113.069 375.682 117.124 376.129L117.234 375.135L117.343 374.141C114.302 373.806 112 371.236 112 368.177H111ZM111 324H110V368.177H111H112V324H111ZM123 329.433V328.433C121.343 328.433 120 329.776 120 331.433H121H122C122 330.881 122.448 330.433 123 330.433V329.433ZM125 331.433H126C126 329.776 124.657 328.433 123 328.433V329.433V330.433C123.552 330.433 124 330.881 124 331.433H125ZM125 370.12H126V331.433H125H124V370.12H125ZM123 372.12V373.12C124.657 373.12 126 371.776 126 370.12H125H124C124 370.672 123.552 371.12 123 371.12V372.12ZM121 370.12H120C120 371.776 121.343 373.12 123 373.12V372.12V371.12C122.448 371.12 122 370.672 122 370.12H121ZM121 331.433H120V370.12H121H122V331.433H121ZM256 331.433H257C257 330.881 257.448 330.433 258 330.433V329.433V328.433C256.343 328.433 255 329.776 255 331.433H256ZM256 370.12H257V331.433H256H255V370.12H256ZM258 372.12V371.12C257.448 371.12 257 370.672 257 370.12H256H255C255 371.776 256.343 373.12 258 373.12V372.12ZM260 370.12H259C259 370.672 258.552 371.12 258 371.12V372.12V373.12C259.657 373.12 261 371.776 261 370.12H260ZM260 331.433H259V370.12H260H261V331.433H260ZM258 329.433V330.433C258.552 330.433 259 330.881 259 331.433H260H261C261 329.776 259.657 328.433 258 328.433V329.433ZM243 329.433V328.433C241.343 328.433 240 329.776 240 331.433H241H242C242 330.881 242.448 330.433 243 330.433V329.433ZM245 331.433H246C246 329.776 244.657 328.433 243 328.433V329.433V330.433C243.552 330.433 244 330.881 244 331.433H245ZM245 370.12H246V331.433H245H244V370.12H245ZM243 372.12V373.12C244.657 373.12 246 371.776 246 370.12H245H244C244 370.672 243.552 371.12 243 371.12V372.12ZM241 370.12H240C240 371.776 241.343 373.12 243 373.12V372.12V371.12C242.448 371.12 242 370.672 242 370.12H241ZM241 331.433H240V370.12H241H242V331.433H241ZM226 331.433H227C227 330.881 227.448 330.433 228 330.433V329.433V328.433C226.343 328.433 225 329.776 225 331.433H226ZM226 370.12H227V331.433H226H225V370.12H226ZM228 372.12V371.12C227.448 371.12 227 370.672 227 370.12H226H225C225 371.776 226.343 373.12 228 373.12V372.12ZM230 370.12H229C229 370.672 228.552 371.12 228 371.12V372.12V373.12C229.657 373.12 231 371.776 231 370.12H230ZM230 331.433H229V370.12H230H231V331.433H230ZM228 329.433V330.433C228.552 330.433 229 330.881 229 331.433H230H231C231 329.776 229.657 328.433 228 328.433V329.433ZM213 329.433V328.433C211.343 328.433 210 329.776 210 331.433H211H212C212 330.881 212.448 330.433 213 330.433V329.433ZM215 331.433H216C216 329.776 214.657 328.433 213 328.433V329.433V330.433C213.552 330.433 214 330.881 214 331.433H215ZM215 370.12H216V331.433H215H214V370.12H215ZM213 372.12V373.12C214.657 373.12 216 371.776 216 370.12H215H214C214 370.672 213.552 371.12 213 371.12V372.12ZM211 370.12H210C210 371.776 211.343 373.12 213 373.12V372.12V371.12C212.448 371.12 212 370.672 212 370.12H211ZM211 331.433H210V370.12H211H212V331.433H211ZM196 331.433H197C197 330.881 197.448 330.433 198 330.433V329.433V328.433C196.343 328.433 195 329.776 195 331.433H196ZM196 370.12H197V331.433H196H195V370.12H196ZM198 372.12V371.12C197.448 371.12 197 370.672 197 370.12H196H195C195 371.776 196.343 373.12 198 373.12V372.12ZM200 370.12H199C199 370.672 198.552 371.12 198 371.12V372.12V373.12C199.657 373.12 201 371.776 201 370.12H200ZM200 331.433H199V370.12H200H201V331.433H200ZM198 329.433V330.433C198.552 330.433 199 330.881 199 331.433H200H201C201 329.776 199.657 328.433 198 328.433V329.433ZM183 329.433V328.433C181.343 328.433 180 329.776 180 331.433H181H182C182 330.881 182.448 330.433 183 330.433V329.433ZM185 331.433H186C186 329.776 184.657 328.433 183 328.433V329.433V330.433C183.552 330.433 184 330.881 184 331.433H185ZM185 370.12H186V331.433H185H184V370.12H185ZM183 372.12V373.12C184.657 373.12 186 371.776 186 370.12H185H184C184 370.672 183.552 371.12 183 371.12V372.12ZM181 370.12H180C180 371.776 181.343 373.12 183 373.12V372.12V371.12C182.448 371.12 182 370.672 182 370.12H181ZM181 331.433H180V370.12H181H182V331.433H181ZM166 331.433H167C167 330.881 167.448 330.433 168 330.433V329.433V328.433C166.343 328.433 165 329.776 165 331.433H166ZM166 370.12H167V331.433H166H165V370.12H166ZM168 372.12V371.12C167.448 371.12 167 370.672 167 370.12H166H165C165 371.776 166.343 373.12 168 373.12V372.12ZM170 370.12H169C169 370.672 168.552 371.12 168 371.12V372.12V373.12C169.657 373.12 171 371.776 171 370.12H170ZM170 331.433H169V370.12H170H171V331.433H170ZM168 329.433V330.433C168.552 330.433 169 330.881 169 331.433H170H171C171 329.776 169.657 328.433 168 328.433V329.433ZM153 329.433V328.433C151.343 328.433 150 329.776 150 331.433H151H152C152 330.881 152.448 330.433 153 330.433V329.433ZM155 331.433H156C156 329.776 154.657 328.433 153 328.433V329.433V330.433C153.552 330.433 154 330.881 154 331.433H155ZM155 370.12H156V331.433H155H154V370.12H155ZM153 372.12V373.12C154.657 373.12 156 371.776 156 370.12H155H154C154 370.672 153.552 371.12 153 371.12V372.12ZM151 370.12H150C150 371.776 151.343 373.12 153 373.12V372.12V371.12C152.448 371.12 152 370.672 152 370.12H151ZM151 331.433H150V370.12H151H152V331.433H151ZM136 331.433H137C137 330.881 137.448 330.433 138 330.433V329.433V328.433C136.343 328.433 135 329.776 135 331.433H136ZM136 370.12H137V331.433H136H135V370.12H136ZM138 372.12V371.12C137.448 371.12 137 370.672 137 370.12H136H135C135 371.776 136.343 373.12 138 373.12V372.12ZM140 370.12H139C139 370.672 138.552 371.12 138 371.12V372.12V373.12C139.657 373.12 141 371.776 141 370.12H140ZM140 331.433H139V370.12H140H141V331.433H140ZM138 329.433V330.433C138.552 330.433 139 330.881 139 331.433H140H141C141 329.776 139.657 328.433 138 328.433V329.433Z" fill="black" mask="url(#path-14-inside-2_210_2042)"/>
<mask id="path-16-inside-3_210_2042" fill="white">
<path d="M97 367H67V324H97V367ZM317 364H287V321H317V364ZM72 362H92V348H72V362ZM292 359H312V345H292V359ZM72 343H92V329H72V343ZM292 340H312V326H292V340ZM97 289H67V226H97V289ZM161 250.944V226H166V259H219V226H224V251.52L258.096 224.104L261.229 228L224 257.936V289H219V264H166V289H161V257.36L122 226L125.133 222.104L161 250.944ZM317 289H287V226H317V289ZM71.6875 284H92.3125V269H71.6875V284ZM291.688 284H312.312V269H291.688V284ZM71.6875 264H92.3125V250H71.6875V264ZM291.688 264H312.312V250H291.688V264ZM71.6875 245H92.3125V231H71.6875V245ZM291.688 245H312.312V231H291.688V245Z"/>
</mask>
<path d="M97 367H67V324H97V367ZM317 364H287V321H317V364ZM72 362H92V348H72V362ZM292 359H312V345H292V359ZM72 343H92V329H72V343ZM292 340H312V326H292V340ZM97 289H67V226H97V289ZM161 250.944V226H166V259H219V226H224V251.52L258.096 224.104L261.229 228L224 257.936V289H219V264H166V289H161V257.36L122 226L125.133 222.104L161 250.944ZM317 289H287V226H317V289ZM71.6875 284H92.3125V269H71.6875V284ZM291.688 284H312.312V269H291.688V284ZM71.6875 264H92.3125V250H71.6875V264ZM291.688 264H312.312V250H291.688V264ZM71.6875 245H92.3125V231H71.6875V245ZM291.688 245H312.312V231H291.688V245Z" fill="#C8CFD6"/>
<path d="M97 367V368H98V367H97ZM67 367H66V368H67V367ZM67 324V323H66V324H67ZM97 324H98V323H97V324ZM317 364V365H318V364H317ZM287 364H286V365H287V364ZM287 321V320H286V321H287ZM317 321H318V320H317V321ZM72 362H71V363H72V362ZM92 362V363H93V362H92ZM92 348H93V347H92V348ZM72 348V347H71V348H72ZM292 359H291V360H292V359ZM312 359V360H313V359H312ZM312 345H313V344H312V345ZM292 345V344H291V345H292ZM72 343H71V344H72V343ZM92 343V344H93V343H92ZM92 329H93V328H92V329ZM72 329V328H71V329H72ZM292 340H291V341H292V340ZM312 340V341H313V340H312ZM312 326H313V325H312V326ZM292 326V325H291V326H292ZM97 289V290H98V289H97ZM67 289H66V290H67V289ZM67 226V225H66V226H67ZM97 226H98V225H97V226ZM161 250.944L160.373 251.724L162 253.032V250.944H161ZM161 226V225H160V226H161ZM166 226H167V225H166V226ZM166 259H165V260H166V259ZM219 259V260H220V259H219ZM219 226V225H218V226H219ZM224 226H225V225H224V226ZM224 251.52H223V253.607L224.627 252.299L224 251.52ZM258.096 224.104L258.875 223.477L258.248 222.698L257.469 223.324L258.096 224.104ZM261.229 228L261.856 228.779L262.636 228.153L262.009 227.373L261.229 228ZM224 257.936L223.373 257.156L223 257.456V257.936H224ZM224 289V290H225V289H224ZM219 289H218V290H219V289ZM219 264H220V263H219V264ZM166 264V263H165V264H166ZM166 289V290H167V289H166ZM161 289H160V290H161V289ZM161 257.36H162V256.881L161.627 256.581L161 257.36ZM122 226L121.221 225.373L120.594 226.153L121.373 226.779L122 226ZM125.133 222.104L125.759 221.324L124.98 220.698L124.353 221.477L125.133 222.104ZM317 289V290H318V289H317ZM287 289H286V290H287V289ZM287 226V225H286V226H287ZM317 226H318V225H317V226ZM71.6875 284H70.6875V285H71.6875V284ZM92.3125 284V285H93.3125V284H92.3125ZM92.3125 269H93.3125V268H92.3125V269ZM71.6875 269V268H70.6875V269H71.6875ZM291.688 284H290.688V285H291.688V284ZM312.312 284V285H313.312V284H312.312ZM312.312 269H313.312V268H312.312V269ZM291.688 269V268H290.688V269H291.688ZM71.6875 264H70.6875V265H71.6875V264ZM92.3125 264V265H93.3125V264H92.3125ZM92.3125 250H93.3125V249H92.3125V250ZM71.6875 250V249H70.6875V250H71.6875ZM291.688 264H290.688V265H291.688V264ZM312.312 264V265H313.312V264H312.312ZM312.312 250H313.312V249H312.312V250ZM291.688 250V249H290.688V250H291.688ZM71.6875 245H70.6875V246H71.6875V245ZM92.3125 245V246H93.3125V245H92.3125ZM92.3125 231H93.3125V230H92.3125V231ZM71.6875 231V230H70.6875V231H71.6875ZM291.688 245H290.688V246H291.688V245ZM312.312 245V246H313.312V245H312.312ZM312.312 231H313.312V230H312.312V231ZM291.688 231V230H290.688V231H291.688ZM97 367V366H67V367V368H97V367ZM67 367H68V324H67H66V367H67ZM67 324V325H97V324V323H67V324ZM97 324H96V367H97H98V324H97ZM317 364V363H287V364V365H317V364ZM287 364H288V321H287H286V364H287ZM287 321V322H317V321V320H287V321ZM317 321H316V364H317H318V321H317ZM72 362V363H92V362V361H72V362ZM92 362H93V348H92H91V362H92ZM92 348V347H72V348V349H92V348ZM72 348H71V362H72H73V348H72ZM292 359V360H312V359V358H292V359ZM312 359H313V345H312H311V359H312ZM312 345V344H292V345V346H312V345ZM292 345H291V359H292H293V345H292ZM72 343V344H92V343V342H72V343ZM92 343H93V329H92H91V343H92ZM92 329V328H72V329V330H92V329ZM72 329H71V343H72H73V329H72ZM292 340V341H312V340V339H292V340ZM312 340H313V326H312H311V340H312ZM312 326V325H292V326V327H312V326ZM292 326H291V340H292H293V326H292ZM97 289V288H67V289V290H97V289ZM67 289H68V226H67H66V289H67ZM67 226V227H97V226V225H67V226ZM97 226H96V289H97H98V226H97ZM161 250.944H162V226H161H160V250.944H161ZM161 226V227H166V226V225H161V226ZM166 226H165V259H166H167V226H166ZM166 259V260H219V259V258H166V259ZM219 259H220V226H219H218V259H219ZM219 226V227H224V226V225H219V226ZM224 226H223V251.52H224H225V226H224ZM224 251.52L224.627 252.299L258.722 224.883L258.096 224.104L257.469 223.324L223.373 250.74L224 251.52ZM258.096 224.104L257.316 224.73L260.45 228.627L261.229 228L262.009 227.373L258.875 223.477L258.096 224.104ZM261.229 228L260.603 227.221L223.373 257.156L224 257.936L224.627 258.715L261.856 228.779L261.229 228ZM224 257.936H223V289H224H225V257.936H224ZM224 289V288H219V289V290H224V289ZM219 289H220V264H219H218V289H219ZM219 264V263H166V264V265H219V264ZM166 264H165V289H166H167V264H166ZM166 289V288H161V289V290H166V289ZM161 289H162V257.36H161H160V289H161ZM161 257.36L161.627 256.581L122.627 225.221L122 226L121.373 226.779L160.373 258.14L161 257.36ZM122 226L122.779 226.627L125.912 222.73L125.133 222.104L124.353 221.477L121.221 225.373L122 226ZM125.133 222.104L124.506 222.883L160.373 251.724L161 250.944L161.627 250.165L125.759 221.324L125.133 222.104ZM317 289V288H287V289V290H317V289ZM287 289H288V226H287H286V289H287ZM287 226V227H317V226V225H287V226ZM317 226H316V289H317H318V226H317ZM71.6875 284V285H92.3125V284V283H71.6875V284ZM92.3125 284H93.3125V269H92.3125H91.3125V284H92.3125ZM92.3125 269V268H71.6875V269V270H92.3125V269ZM71.6875 269H70.6875V284H71.6875H72.6875V269H71.6875ZM291.688 284V285H312.312V284V283H291.688V284ZM312.312 284H313.312V269H312.312H311.312V284H312.312ZM312.312 269V268H291.688V269V270H312.312V269ZM291.688 269H290.688V284H291.688H292.688V269H291.688ZM71.6875 264V265H92.3125V264V263H71.6875V264ZM92.3125 264H93.3125V250H92.3125H91.3125V264H92.3125ZM92.3125 250V249H71.6875V250V251H92.3125V250ZM71.6875 250H70.6875V264H71.6875H72.6875V250H71.6875ZM291.688 264V265H312.312V264V263H291.688V264ZM312.312 264H313.312V250H312.312H311.312V264H312.312ZM312.312 250V249H291.688V250V251H312.312V250ZM291.688 250H290.688V264H291.688H292.688V250H291.688ZM71.6875 245V246H92.3125V245V244H71.6875V245ZM92.3125 245H93.3125V231H92.3125H91.3125V245H92.3125ZM92.3125 231V230H71.6875V231V232H92.3125V231ZM71.6875 231H70.6875V245H71.6875H72.6875V231H71.6875ZM291.688 245V246H312.312V245V244H291.688V245ZM312.312 245H313.312V231H312.312H311.312V245H312.312ZM312.312 231V230H291.688V231V232H312.312V231ZM291.688 231H290.688V245H291.688H292.688V231H291.688Z" fill="black" mask="url(#path-16-inside-3_210_2042)"/>
<circle cx="192" cy="171" r="76" fill="#2C404F" stroke="black"/>
<path fill-rule="evenodd" clip-rule="evenodd" d="M182.935 129.731C182.57 127.612 180.723 126 178.5 126C176.015 126 174 128.015 174 130.5C174 131.044 174.097 131.566 174.274 132.049C165.95 135.108 158.683 140.319 153.164 147H147C143.134 147 140 150.134 140 154V205C140 208.866 143.134 212 147 212H155.855C160.907 217.189 167.105 221.277 174.044 223.866C174.015 224.073 174 224.285 174 224.5C174 226.985 176.015 229 178.5 229C180.376 229 181.984 227.852 182.659 226.221C185.528 226.733 188.482 227 191.5 227C195.176 227 198.759 226.603 202.206 225.851C202.78 227.676 204.485 229 206.5 229C208.985 229 211 226.985 211 224.5C211 224.026 210.927 223.569 210.791 223.14C217.542 220.309 223.527 216.038 228.352 210.715C229.163 211.51 230.274 212 231.5 212C233.985 212 236 209.985 236 207.5C236 205.823 235.083 204.361 233.724 203.587C237.34 197.752 239.756 191.11 240.633 183.998C243.057 183.928 245 181.941 245 179.5C245 177.153 243.203 175.225 240.91 175.018C240.39 166.449 237.646 158.474 233.241 151.651C234.862 150.97 236 149.368 236 147.5C236 145.015 233.985 143 231.5 143C230.03 143 228.724 143.705 227.903 144.796C223.068 139.605 217.115 135.451 210.422 132.708C210.79 132.055 211 131.302 211 130.5C211 128.015 208.985 126 206.5 126C204.147 126 202.215 127.806 202.017 130.108C198.627 129.382 195.109 129 191.5 129C188.579 129 185.717 129.25 182.935 129.731Z" fill="#6B7C85"/>
<path d="M182.935 129.731L182.442 129.816L182.527 130.309L183.02 130.224L182.935 129.731ZM174.274 132.049L174.446 132.518L174.915 132.346L174.743 131.877L174.274 132.049ZM153.164 147V147.5H153.399L153.549 147.318L153.164 147ZM155.855 212L156.214 211.651L156.066 211.5H155.855V212ZM174.044 223.866L174.539 223.936L174.595 223.538L174.219 223.398L174.044 223.866ZM182.659 226.221L182.747 225.729L182.351 225.658L182.197 226.029L182.659 226.221ZM202.206 225.851L202.683 225.701L202.546 225.265L202.1 225.362L202.206 225.851ZM210.791 223.14L210.597 222.679L210.176 222.855L210.314 223.291L210.791 223.14ZM228.352 210.715L228.702 210.358L228.33 209.995L227.981 210.379L228.352 210.715ZM233.724 203.587L233.299 203.323L233.025 203.765L233.476 204.021L233.724 203.587ZM240.633 183.998L240.618 183.498L240.189 183.511L240.137 183.937L240.633 183.998ZM240.91 175.018L240.411 175.049L240.437 175.478L240.865 175.516L240.91 175.018ZM233.241 151.651L233.048 151.19L232.498 151.421L232.821 151.922L233.241 151.651ZM227.903 144.796L227.537 145.137L227.943 145.573L228.302 145.097L227.903 144.796ZM210.422 132.708L209.987 132.462L209.708 132.955L210.233 133.17L210.422 132.708ZM202.017 130.108L201.912 130.597L202.466 130.716L202.515 130.151L202.017 130.108ZM178.5 126V126.5C180.476 126.5 182.118 127.933 182.442 129.816L182.935 129.731L183.427 129.646C183.022 127.291 180.971 125.5 178.5 125.5V126ZM174 130.5H174.5C174.5 128.291 176.291 126.5 178.5 126.5V126V125.5C175.739 125.5 173.5 127.739 173.5 130.5H174ZM174.274 132.049L174.743 131.877C174.586 131.448 174.5 130.985 174.5 130.5H174H173.5C173.5 131.104 173.607 131.684 173.804 132.221L174.274 132.049ZM153.164 147L153.549 147.318C159.013 140.705 166.207 135.546 174.446 132.518L174.274 132.049L174.101 131.579C165.694 134.669 158.354 139.933 152.778 146.682L153.164 147ZM147 147V147.5H153.164V147V146.5H147V147ZM140 154H140.5C140.5 150.41 143.41 147.5 147 147.5V147V146.5C142.858 146.5 139.5 149.858 139.5 154H140ZM140 205H140.5V154H140H139.5V205H140ZM147 212V211.5C143.41 211.5 140.5 208.59 140.5 205H140H139.5C139.5 209.142 142.858 212.5 147 212.5V212ZM155.855 212V211.5H147V212V212.5H155.855V212ZM174.044 223.866L174.219 223.398C167.349 220.835 161.215 216.788 156.214 211.651L155.855 212L155.497 212.349C160.6 217.59 166.86 221.719 173.869 224.335L174.044 223.866ZM174 224.5H174.5C174.5 224.308 174.513 224.12 174.539 223.936L174.044 223.866L173.549 223.797C173.517 224.027 173.5 224.262 173.5 224.5H174ZM178.5 229V228.5C176.291 228.5 174.5 226.709 174.5 224.5H174H173.5C173.5 227.261 175.739 229.5 178.5 229.5V229ZM182.659 226.221L182.197 226.029C181.596 227.481 180.167 228.5 178.5 228.5V229V229.5C180.585 229.5 182.371 228.224 183.121 226.412L182.659 226.221ZM191.5 227V226.5C188.512 226.5 185.587 226.235 182.747 225.729L182.659 226.221L182.571 226.713C185.469 227.23 188.453 227.5 191.5 227.5V227ZM202.206 225.851L202.1 225.362C198.687 226.107 195.14 226.5 191.5 226.5V227V227.5C195.212 227.5 198.83 227.099 202.313 226.339L202.206 225.851ZM206.5 229V228.5C204.71 228.5 203.193 227.324 202.683 225.701L202.206 225.851L201.729 226.001C202.367 228.028 204.261 229.5 206.5 229.5V229ZM211 224.5H210.5C210.5 226.709 208.709 228.5 206.5 228.5V229V229.5C209.261 229.5 211.5 227.261 211.5 224.5H211ZM210.791 223.14L210.314 223.291C210.435 223.672 210.5 224.078 210.5 224.5H211H211.5C211.5 223.974 211.419 223.466 211.267 222.989L210.791 223.14ZM228.352 210.715L227.981 210.379C223.205 215.648 217.28 219.877 210.597 222.679L210.791 223.14L210.984 223.601C217.803 220.742 223.848 216.427 228.722 211.051L228.352 210.715ZM231.5 212V211.5C230.41 211.5 229.423 211.065 228.702 210.358L228.352 210.715L228.002 211.073C228.903 211.955 230.138 212.5 231.5 212.5V212ZM236 207.5H235.5C235.5 209.709 233.709 211.5 231.5 211.5V212V212.5C234.261 212.5 236.5 210.261 236.5 207.5H236ZM233.724 203.587L233.476 204.021C234.686 204.71 235.5 206.01 235.5 207.5H236H236.5C236.5 205.637 235.48 204.012 233.971 203.152L233.724 203.587ZM240.633 183.998L240.137 183.937C239.269 190.976 236.877 197.549 233.299 203.323L233.724 203.587L234.149 203.85C237.802 197.956 240.243 191.245 241.129 184.059L240.633 183.998ZM245 179.5H244.5C244.5 181.67 242.773 183.436 240.618 183.498L240.633 183.998L240.647 184.498C243.341 184.42 245.5 182.212 245.5 179.5H245ZM240.91 175.018L240.865 175.516C242.903 175.7 244.5 177.414 244.5 179.5H245H245.5C245.5 176.892 243.503 174.751 240.955 174.52L240.91 175.018ZM233.241 151.651L232.821 151.922C237.181 158.675 239.897 166.568 240.411 175.049L240.91 175.018L241.409 174.988C240.884 166.331 238.111 158.273 233.661 151.38L233.241 151.651ZM233.241 151.651L233.435 152.112C235.235 151.356 236.5 149.576 236.5 147.5H236H235.5C235.5 149.16 234.489 150.584 233.048 151.19L233.241 151.651ZM236 147.5H236.5C236.5 144.739 234.261 142.5 231.5 142.5V143V143.5C233.709 143.5 235.5 145.291 235.5 147.5H236ZM231.5 143V142.5C229.866 142.5 228.415 143.284 227.503 144.495L227.903 144.796L228.302 145.097C229.033 144.126 230.193 143.5 231.5 143.5V143ZM210.422 132.708L210.233 133.17C216.858 135.886 222.751 139.998 227.537 145.137L227.903 144.796L228.269 144.455C223.385 139.212 217.372 135.016 210.612 132.245L210.422 132.708ZM211 130.5H210.5C210.5 131.214 210.313 131.883 209.987 132.462L210.422 132.708L210.858 132.953C211.267 132.228 211.5 131.39 211.5 130.5H211ZM206.5 126V126.5C208.709 126.5 210.5 128.291 210.5 130.5H211H211.5C211.5 127.739 209.261 125.5 206.5 125.5V126ZM202.017 130.108L202.515 130.151C202.691 128.106 204.408 126.5 206.5 126.5V126V125.5C203.885 125.5 201.739 127.507 201.519 130.065L202.017 130.108ZM191.5 129V129.5C195.073 129.5 198.557 129.879 201.912 130.597L202.017 130.108L202.122 129.619C198.698 128.886 195.144 128.5 191.5 128.5V129ZM182.935 129.731L183.02 130.224C185.774 129.748 188.607 129.5 191.5 129.5V129V128.5C188.55 128.5 185.66 128.753 182.849 129.238L182.935 129.731Z" fill="black"/>
<ellipse cx="191.5" cy="179" rx="36.5" ry="37" fill="#6B7C85" stroke="black"/>
<circle cx="120" cy="306" r="23" fill="#C8CFD6" stroke="black"/>
<circle cx="264" cy="308" r="23" fill="#C8CFD6" stroke="black"/>
<circle cx="187" cy="62" r="19" fill="#C8CFD6" stroke="black"/>
<circle cx="187" cy="62" r="17" fill="white" stroke="black"/>
<circle cx="142.5" cy="266.5" r="14.5" fill="white" stroke="black"/>
<circle cx="242.5" cy="266.5" r="14.5" fill="white" stroke="black"/>
<path d="M198.709 168.266L198.821 168.611H220.896L203.331 181.373L203.037 181.586L203.149 181.932L209.858 202.58L192.294 189.818L192 189.604L191.706 189.818L174.141 202.58L180.851 181.932L180.963 181.586L180.669 181.373L163.104 168.611H185.179L185.291 168.266L192 147.617L198.709 168.266Z" fill="#FF6B6B" stroke="black"/>
<mask id="path-29-outside-4_210_2042" maskUnits="userSpaceOnUse" x="177" y="297" width="33" height="21" fill="black">
<rect fill="white" x="177" y="297" width="33" height="21"/>
<path d="M178.112 315.76C178.112 315.928 178.184 316 178.352 316H180.08C180.248 316 180.368 315.952 180.464 315.808L188.768 302.128V315.76C188.768 315.928 188.84 316 189.008 316H190.544C190.688 316 190.784 315.928 190.784 315.76V299.44C190.784 299.296 190.688 299.2 190.544 299.2H188.816C188.624 299.2 188.504 299.272 188.432 299.392L180.128 313.072V299.44C180.128 299.296 180.032 299.2 179.888 299.2H178.352C178.184 299.2 178.112 299.296 178.112 299.44V315.76ZM197.962 315.28C199.114 315.928 200.338 316.24 201.634 316.24C202.858 316.24 203.986 316 205.018 315.52C206.05 315.04 206.89 314.368 207.562 313.48C208.234 312.616 208.642 311.584 208.81 310.408C208.81 310.312 208.81 310.264 208.762 310.216C208.714 310.192 208.666 310.168 208.57 310.168H207.082C206.938 310.168 206.842 310.264 206.794 310.408C206.026 313.024 204.322 314.32 201.634 314.32C200.626 314.32 199.738 314.08 198.922 313.576C198.106 313.096 197.458 312.328 196.978 311.32C196.498 310.312 196.258 309.088 196.258 307.6C196.258 306.136 196.498 304.888 196.978 303.88C197.458 302.872 198.106 302.128 198.922 301.624C199.738 301.144 200.626 300.88 201.634 300.88C204.322 300.88 206.026 302.2 206.794 304.792C206.842 304.96 206.938 305.032 207.082 305.032H208.594C208.738 305.032 208.81 304.984 208.81 304.84V304.792C208.666 303.64 208.258 302.608 207.586 301.72C206.914 300.856 206.05 300.16 205.018 299.68C203.986 299.2 202.858 298.96 201.634 298.96C200.338 298.96 199.114 299.296 197.962 299.944C196.81 300.592 195.898 301.576 195.202 302.872C194.482 304.168 194.146 305.752 194.146 307.6C194.146 309.472 194.482 311.056 195.202 312.352C195.898 313.648 196.81 314.632 197.962 315.28Z"/>
</mask>
<path d="M178.112 315.76C178.112 315.928 178.184 316 178.352 316H180.08C180.248 316 180.368 315.952 180.464 315.808L188.768 302.128V315.76C188.768 315.928 188.84 316 189.008 316H190.544C190.688 316 190.784 315.928 190.784 315.76V299.44C190.784 299.296 190.688 299.2 190.544 299.2H188.816C188.624 299.2 188.504 299.272 188.432 299.392L180.128 313.072V299.44C180.128 299.296 180.032 299.2 179.888 299.2H178.352C178.184 299.2 178.112 299.296 178.112 299.44V315.76ZM197.962 315.28C199.114 315.928 200.338 316.24 201.634 316.24C202.858 316.24 203.986 316 205.018 315.52C206.05 315.04 206.89 314.368 207.562 313.48C208.234 312.616 208.642 311.584 208.81 310.408C208.81 310.312 208.81 310.264 208.762 310.216C208.714 310.192 208.666 310.168 208.57 310.168H207.082C206.938 310.168 206.842 310.264 206.794 310.408C206.026 313.024 204.322 314.32 201.634 314.32C200.626 314.32 199.738 314.08 198.922 313.576C198.106 313.096 197.458 312.328 196.978 311.32C196.498 310.312 196.258 309.088 196.258 307.6C196.258 306.136 196.498 304.888 196.978 303.88C197.458 302.872 198.106 302.128 198.922 301.624C199.738 301.144 200.626 300.88 201.634 300.88C204.322 300.88 206.026 302.2 206.794 304.792C206.842 304.96 206.938 305.032 207.082 305.032H208.594C208.738 305.032 208.81 304.984 208.81 304.84V304.792C208.666 303.64 208.258 302.608 207.586 301.72C206.914 300.856 206.05 300.16 205.018 299.68C203.986 299.2 202.858 298.96 201.634 298.96C200.338 298.96 199.114 299.296 197.962 299.944C196.81 300.592 195.898 301.576 195.202 302.872C194.482 304.168 194.146 305.752 194.146 307.6C194.146 309.472 194.482 311.056 195.202 312.352C195.898 313.648 196.81 314.632 197.962 315.28Z" fill="white"/>
<path d="M180.464 315.808L181.296 316.363L181.308 316.345L181.319 316.327L180.464 315.808ZM188.768 302.128H189.768V298.553L187.913 301.609L188.768 302.128ZM188.432 299.392L189.287 299.911L189.289 299.906L188.432 299.392ZM180.128 313.072H179.128V316.647L180.983 313.591L180.128 313.072ZM178.112 315.76H177.112C177.112 315.96 177.151 316.339 177.462 316.65C177.773 316.961 178.152 317 178.352 317V316V315C178.384 315 178.643 315.003 178.876 315.236C179.109 315.469 179.112 315.728 179.112 315.76H178.112ZM178.352 316V317H180.08V316V315H178.352V316ZM180.08 316V317C180.255 317 180.488 316.976 180.729 316.861C180.981 316.741 181.165 316.559 181.296 316.363L180.464 315.808L179.632 315.253C179.667 315.201 179.743 315.115 179.869 315.055C179.984 315 180.073 315 180.08 315V316ZM180.464 315.808L181.319 316.327L189.623 302.647L188.768 302.128L187.913 301.609L179.609 315.289L180.464 315.808ZM188.768 302.128H187.768V315.76H188.768H189.768V302.128H188.768ZM188.768 315.76H187.768C187.768 315.96 187.807 316.339 188.118 316.65C188.429 316.961 188.808 317 189.008 317V316V315C189.04 315 189.299 315.003 189.532 315.236C189.765 315.469 189.768 315.728 189.768 315.76H188.768ZM189.008 316V317H190.544V316V315H189.008V316ZM190.544 316V317C190.769 317 191.11 316.944 191.398 316.676C191.701 316.395 191.784 316.035 191.784 315.76H190.784H189.784C189.784 315.653 189.819 315.413 190.038 315.21C190.242 315.02 190.463 315 190.544 315V316ZM190.784 315.76H191.784V299.44H190.784H189.784V315.76H190.784ZM190.784 299.44H191.784C191.784 299.141 191.68 298.814 191.425 298.559C191.17 298.304 190.843 298.2 190.544 298.2V299.2V300.2C190.389 300.2 190.182 300.144 190.011 299.973C189.84 299.802 189.784 299.595 189.784 299.44H190.784ZM190.544 299.2V298.2H188.816V299.2V300.2H190.544V299.2ZM188.816 299.2V298.2C188.324 298.2 187.852 298.415 187.575 298.878L188.432 299.392L189.289 299.906C189.241 299.988 189.159 300.076 189.043 300.137C188.933 300.194 188.845 300.2 188.816 300.2V299.2ZM188.432 299.392L187.577 298.873L179.273 312.553L180.128 313.072L180.983 313.591L189.287 299.911L188.432 299.392ZM180.128 313.072H181.128V299.44H180.128H179.128V313.072H180.128ZM180.128 299.44H181.128C181.128 299.141 181.024 298.814 180.769 298.559C180.514 298.304 180.187 298.2 179.888 298.2V299.2V300.2C179.733 300.2 179.526 300.144 179.355 299.973C179.184 299.802 179.128 299.595 179.128 299.44H180.128ZM179.888 299.2V298.2H178.352V299.2V300.2H179.888V299.2ZM178.352 299.2V298.2C178.077 298.2 177.717 298.283 177.436 298.586C177.168 298.874 177.112 299.215 177.112 299.44H178.112H179.112C179.112 299.521 179.092 299.742 178.902 299.946C178.699 300.165 178.459 300.2 178.352 300.2V299.2ZM178.112 299.44H177.112V315.76H178.112H179.112V299.44H178.112ZM197.962 315.28L198.453 314.408L198.453 314.408L197.962 315.28ZM205.018 315.52L204.597 314.613L204.597 314.613L205.018 315.52ZM207.562 313.48L206.773 312.866L206.765 312.877L207.562 313.48ZM208.81 310.408L209.8 310.549L209.81 310.479V310.408H208.81ZM208.762 310.216L209.47 309.509L209.355 309.394L209.21 309.322L208.762 310.216ZM206.794 310.408L205.846 310.092L205.84 310.109L205.835 310.126L206.794 310.408ZM198.922 313.576L199.448 312.725L199.439 312.72L199.429 312.714L198.922 313.576ZM196.978 311.32L196.076 311.75L196.076 311.75L196.978 311.32ZM196.978 303.88L197.881 304.31L197.881 304.31L196.978 303.88ZM198.922 301.624L198.415 300.762L198.406 300.768L198.397 300.773L198.922 301.624ZM206.794 304.792L207.756 304.517L207.753 304.508L206.794 304.792ZM208.81 304.792H209.81V304.73L209.803 304.668L208.81 304.792ZM207.586 301.72L208.384 301.117L208.376 301.106L207.586 301.72ZM205.018 299.68L204.597 300.587L204.597 300.587L205.018 299.68ZM197.962 299.944L198.453 300.816L198.453 300.816L197.962 299.944ZM195.202 302.872L196.077 303.358L196.08 303.351L196.083 303.345L195.202 302.872ZM195.202 312.352L196.083 311.879L196.08 311.873L196.077 311.866L195.202 312.352ZM197.962 315.28L197.472 316.152C198.776 316.885 200.169 317.24 201.634 317.24V316.24V315.24C200.507 315.24 199.453 314.971 198.453 314.408L197.962 315.28ZM201.634 316.24V317.24C202.993 317.24 204.266 316.973 205.44 316.427L205.018 315.52L204.597 314.613C203.707 315.027 202.724 315.24 201.634 315.24V316.24ZM205.018 315.52L205.44 316.427C206.616 315.88 207.586 315.106 208.36 314.083L207.562 313.48L206.765 312.877C206.195 313.63 205.485 314.2 204.597 314.613L205.018 315.52ZM207.562 313.48L208.352 314.094C209.145 313.074 209.611 311.872 209.8 310.549L208.81 310.408L207.82 310.267C207.673 311.296 207.324 312.158 206.773 312.866L207.562 313.48ZM208.81 310.408H209.81C209.81 310.393 209.856 309.896 209.47 309.509L208.762 310.216L208.055 310.923C208.007 310.874 207.952 310.807 207.906 310.721C207.861 310.634 207.836 310.553 207.824 310.49C207.812 310.433 207.811 310.391 207.81 310.384C207.81 310.379 207.81 310.378 207.81 310.408H208.81ZM208.762 310.216L209.21 309.322C209.105 309.269 208.893 309.168 208.57 309.168V310.168V311.168C208.53 311.168 208.469 311.162 208.397 311.141C208.334 311.122 208.287 311.096 208.315 311.11L208.762 310.216ZM208.57 310.168V309.168H207.082V310.168V311.168H208.57V310.168ZM207.082 310.168V309.168C206.363 309.168 205.978 309.696 205.846 310.092L206.794 310.408L207.743 310.724C207.727 310.772 207.681 310.882 207.561 310.987C207.426 311.105 207.252 311.168 207.082 311.168V310.168ZM206.794 310.408L205.835 310.126C205.495 311.285 204.976 312.058 204.33 312.548C203.685 313.037 202.816 313.32 201.634 313.32V314.32V315.32C203.141 315.32 204.467 314.955 205.539 314.142C206.609 313.33 207.326 312.147 207.754 310.69L206.794 310.408ZM201.634 314.32V313.32C200.798 313.32 200.095 313.125 199.448 312.725L198.922 313.576L198.397 314.427C199.382 315.035 200.455 315.32 201.634 315.32V314.32ZM198.922 313.576L199.429 312.714C198.823 312.357 198.296 311.762 197.881 310.89L196.978 311.32L196.076 311.75C196.621 312.894 197.39 313.835 198.415 314.438L198.922 313.576ZM196.978 311.32L197.881 310.89C197.482 310.051 197.258 308.984 197.258 307.6H196.258H195.258C195.258 309.192 195.515 310.573 196.076 311.75L196.978 311.32ZM196.258 307.6H197.258C197.258 306.239 197.482 305.148 197.881 304.31L196.978 303.88L196.076 303.45C195.514 304.628 195.258 306.033 195.258 307.6H196.258ZM196.978 303.88L197.881 304.31C198.29 303.452 198.817 302.865 199.448 302.475L198.922 301.624L198.397 300.773C197.396 301.391 196.627 302.292 196.076 303.45L196.978 303.88ZM198.922 301.624L199.429 302.486C200.1 302.091 200.814 301.88 201.634 301.88V300.88V299.88C200.438 299.88 199.376 300.197 198.415 300.762L198.922 301.624ZM201.634 300.88V301.88C202.812 301.88 203.682 302.167 204.328 302.659C204.977 303.154 205.496 303.929 205.836 305.076L206.794 304.792L207.753 304.508C207.325 303.063 206.608 301.882 205.541 301.069C204.471 300.253 203.145 299.88 201.634 299.88V300.88ZM206.794 304.792L205.833 305.067C205.893 305.278 206.016 305.543 206.272 305.751C206.538 305.967 206.838 306.032 207.082 306.032V305.032V304.032C207.183 304.032 207.363 304.061 207.533 304.199C207.693 304.329 207.744 304.474 207.756 304.517L206.794 304.792ZM207.082 305.032V306.032H208.594V305.032V304.032H207.082V305.032ZM208.594 305.032V306.032C208.735 306.032 209.085 306.018 209.397 305.758C209.752 305.462 209.81 305.065 209.81 304.84H208.81H207.81C207.81 304.759 207.833 304.458 208.116 304.222C208.24 304.119 208.364 304.073 208.446 304.052C208.524 304.033 208.58 304.032 208.594 304.032V305.032ZM208.81 304.84H209.81V304.792H208.81H207.81V304.84H208.81ZM208.81 304.792L209.803 304.668C209.638 303.352 209.168 302.153 208.384 301.117L207.586 301.72L206.789 302.323C207.349 303.063 207.695 303.928 207.818 304.916L208.81 304.792ZM207.586 301.72L208.376 301.106C207.607 300.117 206.617 299.321 205.44 298.773L205.018 299.68L204.597 300.587C205.484 300.999 206.222 301.595 206.797 302.334L207.586 301.72ZM205.018 299.68L205.44 298.773C204.266 298.227 202.993 297.96 201.634 297.96V298.96V299.96C202.724 299.96 203.707 300.173 204.597 300.587L205.018 299.68ZM201.634 298.96V297.96C200.157 297.96 198.765 298.345 197.472 299.072L197.962 299.944L198.453 300.816C199.464 300.247 200.52 299.96 201.634 299.96V298.96ZM197.962 299.944L197.472 299.072C196.129 299.828 195.092 300.963 194.321 302.399L195.202 302.872L196.083 303.345C196.705 302.189 197.492 301.356 198.453 300.816L197.962 299.944ZM195.202 302.872L194.328 302.386C193.503 303.872 193.146 305.636 193.146 307.6H194.146H195.146C195.146 305.868 195.462 304.464 196.077 303.358L195.202 302.872ZM194.146 307.6H193.146C193.146 309.587 193.503 311.351 194.328 312.838L195.202 312.352L196.077 311.866C195.462 310.761 195.146 309.357 195.146 307.6H194.146ZM195.202 312.352L194.321 312.825C195.092 314.261 196.129 315.396 197.472 316.152L197.962 315.28L198.453 314.408C197.492 313.868 196.705 313.035 196.083 311.879L195.202 312.352Z" fill="black" mask="url(#path-29-outside-4_210_2042)"/>
</g>
<defs>
<clipPath id="clip0_210_2042">
<rect width="384" height="384" fill="white"/>
</clipPath>
</defs>
</svg>
