<svg width="384" height="384" viewBox="0 0 384 384" fill="none" xmlns="http://www.w3.org/2000/svg">
<g clip-path="url(#clip0_210_1977)">
<path d="M95.3398 277.731C95.3398 260.61 109.219 246.731 126.34 246.731H278.34C295.461 246.731 309.34 260.61 309.34 277.731V329.731C309.34 342.434 299.042 352.731 286.34 352.731H118.34C105.637 352.731 95.3398 342.434 95.3398 329.731V277.731Z" fill="#2C404F" stroke="black"/>
<path d="M122.34 262.731H144.34V368.731H122.34V262.731Z" fill="#2C404F" stroke="black"/>
<path d="M258.34 262.731H280.34V368.731H258.34V262.731Z" fill="#2C404F" stroke="black"/>
<path d="M247.514 316.408C250.794 315.121 254.34 317.54 254.34 321.062L254.34 332.321C254.34 334.378 253.08 336.225 251.165 336.976L236.585 342.694C231.467 344.701 226.018 345.731 220.521 345.731L180.491 345.731C174.455 345.731 168.483 344.489 162.947 342.082L151.346 337.038C149.521 336.244 148.34 334.443 148.34 332.453L148.34 321.357C148.34 317.756 152.031 315.336 155.333 316.772L162.947 320.082C168.483 322.489 174.455 323.731 180.491 323.731L220.521 323.731C226.018 323.731 231.467 322.701 236.585 320.694L247.514 316.408Z" fill="#6B7C85" stroke="black"/>
<mask id="path-5-inside-1_210_1977" fill="white">
<path d="M79.8703 145.383C97.8368 156.755 121.62 151.409 132.992 133.442C135.539 129.419 137.246 125.104 138.161 120.701C139.16 115.897 143.984 112.13 148.888 112.326C152.539 112.471 156.183 112.095 159.706 111.224C163.151 110.372 166.88 111.623 169.12 114.375C171.679 117.519 174.782 120.31 178.396 122.597C188.948 129.276 201.507 130.188 212.379 126.163C216.288 124.716 220.926 126.053 223.356 129.44C226.628 134.001 230.814 138.023 235.848 141.21C251.814 151.315 271.708 150.123 286.17 139.743C286.62 139.42 287.224 139.406 287.692 139.703C301.692 148.564 320.224 144.398 329.085 130.398C337.947 116.398 333.781 97.8658 319.781 89.0046C315.431 86.2513 310.643 84.7564 305.844 84.423C302.861 84.2158 300.065 82.6347 298.531 80.0673C295.031 74.2093 290.142 69.0614 283.982 65.1625C272.545 57.9234 259.092 56.4815 247.064 60.0614C241.641 61.6755 234.745 57.8949 232.938 52.5331C230.217 44.4599 224.812 37.2333 217.052 32.3218C202.418 23.0591 183.926 24.8888 171.424 35.5952C169.013 37.6598 165.633 38.3214 162.622 37.3166C146.219 31.8425 127.593 37.9954 117.93 53.2628C115.383 57.2865 113.675 61.6021 112.76 66.0046C111.761 70.8094 106.936 74.5754 102.033 74.3794C88.7483 73.8484 75.5514 80.2194 67.9296 92.2611C56.5579 110.227 61.9041 134.011 79.8703 145.383ZM84.945 63.7531C89.145 66.4115 94.7047 65.1617 97.3631 60.9618C100.021 56.7619 98.7716 51.202 94.5717 48.5437C90.3719 45.8854 84.8121 47.1354 82.1537 51.335C79.4953 55.535 80.745 61.0948 84.945 63.7531Z"/>
</mask>
<path d="M79.8703 145.383C97.8368 156.755 121.62 151.409 132.992 133.442C135.539 129.419 137.246 125.104 138.161 120.701C139.16 115.897 143.984 112.13 148.888 112.326C152.539 112.471 156.183 112.095 159.706 111.224C163.151 110.372 166.88 111.623 169.12 114.375C171.679 117.519 174.782 120.31 178.396 122.597C188.948 129.276 201.507 130.188 212.379 126.163C216.288 124.716 220.926 126.053 223.356 129.44C226.628 134.001 230.814 138.023 235.848 141.21C251.814 151.315 271.708 150.123 286.17 139.743C286.62 139.42 287.224 139.406 287.692 139.703C301.692 148.564 320.224 144.398 329.085 130.398C337.947 116.398 333.781 97.8658 319.781 89.0046C315.431 86.2513 310.643 84.7564 305.844 84.423C302.861 84.2158 300.065 82.6347 298.531 80.0673C295.031 74.2093 290.142 69.0614 283.982 65.1625C272.545 57.9234 259.092 56.4815 247.064 60.0614C241.641 61.6755 234.745 57.8949 232.938 52.5331C230.217 44.4599 224.812 37.2333 217.052 32.3218C202.418 23.0591 183.926 24.8888 171.424 35.5952C169.013 37.6598 165.633 38.3214 162.622 37.3166C146.219 31.8425 127.593 37.9954 117.93 53.2628C115.383 57.2865 113.675 61.6021 112.76 66.0046C111.761 70.8094 106.936 74.5754 102.033 74.3794C88.7483 73.8484 75.5514 80.2194 67.9296 92.2611C56.5579 110.227 61.9041 134.011 79.8703 145.383ZM84.945 63.7531C89.145 66.4115 94.7047 65.1617 97.3631 60.9618C100.021 56.7619 98.7716 51.202 94.5717 48.5437C90.3719 45.8854 84.8121 47.1354 82.1537 51.335C79.4953 55.535 80.745 61.0948 84.945 63.7531Z" fill="white"/>
<path d="M79.8703 145.383L79.3355 146.228L79.3355 146.228L79.8703 145.383ZM178.396 122.597L177.861 123.442L177.861 123.442L178.396 122.597ZM235.848 141.21L235.314 142.055L235.314 142.055L235.848 141.21ZM287.692 139.703L287.157 140.548L287.157 140.548L287.692 139.703ZM329.085 130.398L329.93 130.933L329.93 130.933L329.085 130.398ZM319.781 89.0046L320.316 88.1597L320.316 88.1597L319.781 89.0046ZM283.982 65.1625L284.517 64.3175L284.517 64.3175L283.982 65.1625ZM217.052 32.3218L217.587 31.4768L217.587 31.4768L217.052 32.3218ZM117.93 53.2628L117.085 52.728L117.085 52.728L117.93 53.2628ZM97.3631 60.9618L98.2081 61.4966L98.208 61.4966L97.3631 60.9618ZM82.1537 51.335L81.3087 50.8002L81.3087 50.8002L82.1537 51.335ZM112.76 66.0046L111.781 65.801L112.76 66.0046ZM102.033 74.3794L102.073 73.3802L102.033 74.3794ZM171.424 35.5952L170.773 34.8356L171.424 35.5952ZM162.622 37.3166L162.939 36.368L162.622 37.3166ZM305.844 84.423L305.914 83.4254L305.844 84.423ZM298.531 80.0673L297.672 80.5802L298.531 80.0673ZM212.379 126.163L212.032 125.225L212.379 126.163ZM223.356 129.44L224.168 128.857L223.356 129.44ZM159.706 111.224L159.947 112.195L159.706 111.224ZM169.12 114.375L169.896 113.744L169.12 114.375ZM286.17 139.743L285.587 138.931L286.17 139.743ZM247.064 60.0614L246.779 59.103L247.064 60.0614ZM232.938 52.5331L231.99 52.8525L232.938 52.5331ZM138.161 120.701L139.14 120.905L138.161 120.701ZM79.8703 145.383L80.4052 144.538C97.905 155.614 121.071 150.407 132.147 132.907L132.992 133.442L133.837 133.977C122.17 152.41 97.7687 157.895 79.3355 146.228L79.8703 145.383ZM132.992 133.442L132.147 132.907C134.629 128.987 136.291 124.784 137.182 120.498L138.161 120.701L139.14 120.905C138.201 125.423 136.449 129.85 133.837 133.977L132.992 133.442ZM148.888 112.326L148.928 111.327C152.484 111.468 156.034 111.102 159.466 110.253L159.706 111.224L159.947 112.195C156.332 113.089 152.594 113.474 148.848 113.325L148.888 112.326ZM169.12 114.375L169.896 113.744C172.387 116.805 175.409 119.523 178.93 121.752L178.396 122.597L177.861 123.442C174.154 121.096 170.971 118.233 168.345 115.007L169.12 114.375ZM178.396 122.597L178.93 121.752C189.208 128.257 201.44 129.147 212.032 125.225L212.379 126.163L212.726 127.101C201.574 131.229 188.688 130.295 177.861 123.442L178.396 122.597ZM223.356 129.44L224.168 128.857C227.367 133.316 231.459 137.248 236.383 140.365L235.848 141.21L235.314 142.055C230.168 138.798 225.889 134.687 222.543 130.022L223.356 129.44ZM235.848 141.21L236.383 140.365C251.993 150.244 271.444 149.081 285.587 138.931L286.17 139.743L286.753 140.556C271.971 151.165 251.636 152.385 235.314 142.055L235.848 141.21ZM287.692 139.703L288.227 138.858C301.76 147.423 319.675 143.396 328.24 129.863L329.085 130.398L329.93 130.933C320.774 145.399 301.623 149.704 287.157 140.548L287.692 139.703ZM329.085 130.398L328.24 129.863C336.806 116.33 332.779 98.4154 319.246 89.8496L319.781 89.0046L320.316 88.1597C334.782 97.3162 339.087 116.466 329.93 130.933L329.085 130.398ZM319.781 89.0046L319.246 89.8496C315.04 87.1872 310.413 85.7428 305.775 85.4206L305.844 84.423L305.914 83.4254C310.874 83.77 315.822 85.3155 320.316 88.1597L319.781 89.0046ZM298.531 80.0673L297.672 80.5802C294.251 74.8535 289.472 69.8206 283.447 66.0075L283.982 65.1625L284.517 64.3175C290.812 68.3022 295.811 73.5651 299.389 79.5544L298.531 80.0673ZM283.982 65.1625L283.447 66.0075C272.265 58.9294 259.112 57.5188 247.349 61.0199L247.064 60.0614L246.779 59.103C259.072 55.4441 272.825 56.9175 284.517 64.3175L283.982 65.1625ZM232.938 52.5331L231.99 52.8525C229.34 44.9886 224.077 37.9511 216.518 33.1668L217.052 32.3218L217.587 31.4768C225.548 36.5154 231.094 43.9311 233.885 52.2138L232.938 52.5331ZM217.052 32.3218L216.518 33.1668C202.265 24.1455 184.252 25.9258 172.074 36.3547L171.424 35.5952L170.773 34.8356C183.599 23.8517 202.572 21.9727 217.587 31.4768L217.052 32.3218ZM162.622 37.3166L162.306 38.2652C146.329 32.9333 128.187 38.9279 118.775 53.7976L117.93 53.2628L117.085 52.728C127 37.0628 146.11 30.7518 162.939 36.368L162.622 37.3166ZM117.93 53.2628L118.775 53.7976C116.293 57.7183 114.63 61.9213 113.739 66.2081L112.76 66.0046L111.781 65.801C112.72 61.2828 114.473 56.8548 117.085 52.728L117.93 53.2628ZM102.033 74.3794L101.993 75.3786C89.0504 74.8613 76.1976 81.0681 68.7746 92.7959L67.9296 92.2611L67.0846 91.7263C74.9051 79.3707 88.4463 72.8356 102.073 73.3802L102.033 74.3794ZM67.9296 92.2611L68.7746 92.7959C57.6982 110.296 62.9056 133.461 80.4052 144.538L79.8703 145.383L79.3355 146.228C60.9027 134.561 55.4175 110.159 67.0846 91.7263L67.9296 92.2611ZM84.945 63.7531L85.4798 62.9082C89.2131 65.2711 94.1551 64.1603 96.5181 60.427L97.3631 60.9618L98.208 61.4966C95.2543 66.1632 89.0768 67.5518 84.4102 64.5981L84.945 63.7531ZM97.3631 60.9618L96.5181 60.427C98.8808 56.6937 97.7701 51.7516 94.0369 49.3887L94.5717 48.5437L95.1066 47.6987C99.7731 50.6524 101.161 56.83 98.2081 61.4966L97.3631 60.9618ZM94.5717 48.5437L94.0369 49.3887C90.3038 47.0258 85.3617 48.1368 82.9986 51.8699L82.1537 51.335L81.3087 50.8002C84.2625 46.1339 90.44 44.7451 95.1066 47.6987L94.5717 48.5437ZM82.1537 51.335L82.9986 51.8699C80.6357 55.6032 81.7465 60.5452 85.4798 62.9082L84.945 63.7531L84.4102 64.5981C79.7436 61.6444 78.355 55.4669 81.3087 50.8002L82.1537 51.335ZM112.76 66.0046L113.739 66.2081C112.641 71.4918 107.385 75.5942 101.993 75.3786L102.033 74.3794L102.073 73.3802C106.488 73.5567 110.882 70.127 111.781 65.801L112.76 66.0046ZM171.424 35.5952L172.074 36.3547C169.397 38.6477 165.65 39.3812 162.306 38.2652L162.622 37.3166L162.939 36.368C165.616 37.2616 168.629 36.672 170.773 34.8356L171.424 35.5952ZM305.844 84.423L305.775 85.4206C302.495 85.1928 299.389 83.4537 297.672 80.5802L298.531 80.0673L299.389 79.5544C300.74 81.8157 303.226 83.2388 305.914 83.4254L305.844 84.423ZM212.379 126.163L212.032 125.225C216.347 123.628 221.467 125.091 224.168 128.857L223.356 129.44L222.543 130.022C220.386 127.015 216.228 125.805 212.726 127.101L212.379 126.163ZM159.706 111.224L159.466 110.253C163.288 109.308 167.412 110.692 169.896 113.744L169.12 114.375L168.345 115.007C166.348 112.554 163.015 111.436 159.947 112.195L159.706 111.224ZM286.17 139.743L285.587 138.931C286.373 138.367 287.419 138.346 288.227 138.858L287.692 139.703L287.157 140.548C287.028 140.466 286.868 140.473 286.753 140.556L286.17 139.743ZM247.064 60.0614L247.349 61.0199C244.327 61.9194 240.973 61.3012 238.171 59.7939C235.369 58.2864 232.991 55.8217 231.99 52.8525L232.938 52.5331L233.885 52.2138C234.692 54.6064 236.665 56.7129 239.118 58.0326C241.572 59.3525 244.378 59.8176 246.779 59.103L247.064 60.0614ZM138.161 120.701L137.182 120.498C138.281 115.214 143.536 111.112 148.928 111.327L148.888 112.326L148.848 113.325C144.433 113.149 140.04 116.579 139.14 120.905L138.161 120.701Z" fill="black" mask="url(#path-5-inside-1_210_1977)"/>
<path d="M77.3398 100.731H327.34V248.731C327.34 270.27 309.879 287.731 288.34 287.731H116.34C94.8007 287.731 77.3398 270.27 77.3398 248.731V100.731Z" fill="#0CA677" stroke="black"/>
<path d="M77.3398 252.731H327.34V287.731L279.84 307.731H122.34L77.3398 287.731V252.731Z" fill="#FF6B6B" stroke="black"/>
<circle cx="143.34" cy="279.731" r="23" fill="#C8CFD6" stroke="black"/>
<circle cx="261.34" cy="279.731" r="23" fill="#C8CFD6" stroke="black"/>
<circle cx="158.84" cy="222.231" r="14.5" fill="white" stroke="black"/>
<circle cx="243.84" cy="222.231" r="14.5" fill="white" stroke="black"/>
<mask id="path-13-inside-2_210_1977" fill="white">
<path d="M293.34 111.731H313.34V92.731H318.34V350.731H313.34V333.731H293.34V350.731H288.34V79.731H293.34V111.731ZM293.34 313.731V328.731H313.34V313.731H293.34ZM293.34 294.731V308.731H313.34V294.731H293.34ZM293.34 275.731V289.731H313.34V275.731H293.34ZM293.34 255.731V270.731H313.34V255.731H293.34ZM293.34 236.731V250.731H313.34V236.731H293.34ZM293.34 215.731V231.731H313.34V215.731H293.34ZM293.34 195.731V210.731H313.34V195.731H293.34ZM293.34 176.731V190.731H313.34V176.731H293.34ZM293.34 155.731V171.731H313.34V155.731H293.34ZM293.34 135.731V150.731H313.34V135.731H293.34ZM293.34 116.731V130.731H313.34V116.731H293.34Z"/>
</mask>
<path d="M293.34 111.731H313.34V92.731H318.34V350.731H313.34V333.731H293.34V350.731H288.34V79.731H293.34V111.731ZM293.34 313.731V328.731H313.34V313.731H293.34ZM293.34 294.731V308.731H313.34V294.731H293.34ZM293.34 275.731V289.731H313.34V275.731H293.34ZM293.34 255.731V270.731H313.34V255.731H293.34ZM293.34 236.731V250.731H313.34V236.731H293.34ZM293.34 215.731V231.731H313.34V215.731H293.34ZM293.34 195.731V210.731H313.34V195.731H293.34ZM293.34 176.731V190.731H313.34V176.731H293.34ZM293.34 155.731V171.731H313.34V155.731H293.34ZM293.34 135.731V150.731H313.34V135.731H293.34ZM293.34 116.731V130.731H313.34V116.731H293.34Z" fill="#C8CFD6"/>
<path d="M293.34 111.731H292.34V112.731H293.34V111.731ZM313.34 111.731V112.731H314.34V111.731H313.34ZM313.34 92.731V91.731H312.34V92.731H313.34ZM318.34 92.731H319.34V91.731H318.34V92.731ZM318.34 350.731V351.731H319.34V350.731H318.34ZM313.34 350.731H312.34V351.731H313.34V350.731ZM313.34 333.731H314.34V332.731H313.34V333.731ZM293.34 333.731V332.731H292.34V333.731H293.34ZM293.34 350.731V351.731H294.34V350.731H293.34ZM288.34 350.731H287.34V351.731H288.34V350.731ZM288.34 79.731V78.731H287.34V79.731H288.34ZM293.34 79.731H294.34V78.731H293.34V79.731ZM293.34 313.731V312.731H292.34V313.731H293.34ZM293.34 328.731H292.34V329.731H293.34V328.731ZM313.34 328.731V329.731H314.34V328.731H313.34ZM313.34 313.731H314.34V312.731H313.34V313.731ZM293.34 294.731V293.731H292.34V294.731H293.34ZM293.34 308.731H292.34V309.731H293.34V308.731ZM313.34 308.731V309.731H314.34V308.731H313.34ZM313.34 294.731H314.34V293.731H313.34V294.731ZM293.34 275.731V274.731H292.34V275.731H293.34ZM293.34 289.731H292.34V290.731H293.34V289.731ZM313.34 289.731V290.731H314.34V289.731H313.34ZM313.34 275.731H314.34V274.731H313.34V275.731ZM293.34 255.731V254.731H292.34V255.731H293.34ZM293.34 270.731H292.34V271.731H293.34V270.731ZM313.34 270.731V271.731H314.34V270.731H313.34ZM313.34 255.731H314.34V254.731H313.34V255.731ZM293.34 236.731V235.731H292.34V236.731H293.34ZM293.34 250.731H292.34V251.731H293.34V250.731ZM313.34 250.731V251.731H314.34V250.731H313.34ZM313.34 236.731H314.34V235.731H313.34V236.731ZM293.34 215.731V214.731H292.34V215.731H293.34ZM293.34 231.731H292.34V232.731H293.34V231.731ZM313.34 231.731V232.731H314.34V231.731H313.34ZM313.34 215.731H314.34V214.731H313.34V215.731ZM293.34 195.731V194.731H292.34V195.731H293.34ZM293.34 210.731H292.34V211.731H293.34V210.731ZM313.34 210.731V211.731H314.34V210.731H313.34ZM313.34 195.731H314.34V194.731H313.34V195.731ZM293.34 176.731V175.731H292.34V176.731H293.34ZM293.34 190.731H292.34V191.731H293.34V190.731ZM313.34 190.731V191.731H314.34V190.731H313.34ZM313.34 176.731H314.34V175.731H313.34V176.731ZM293.34 155.731V154.731H292.34V155.731H293.34ZM293.34 171.731H292.34V172.731H293.34V171.731ZM313.34 171.731V172.731H314.34V171.731H313.34ZM313.34 155.731H314.34V154.731H313.34V155.731ZM293.34 135.731V134.731H292.34V135.731H293.34ZM293.34 150.731H292.34V151.731H293.34V150.731ZM313.34 150.731V151.731H314.34V150.731H313.34ZM313.34 135.731H314.34V134.731H313.34V135.731ZM293.34 116.731V115.731H292.34V116.731H293.34ZM293.34 130.731H292.34V131.731H293.34V130.731ZM313.34 130.731V131.731H314.34V130.731H313.34ZM313.34 116.731H314.34V115.731H313.34V116.731ZM293.34 111.731V112.731H313.34V111.731V110.731H293.34V111.731ZM313.34 111.731H314.34V92.731H313.34H312.34V111.731H313.34ZM313.34 92.731V93.731H318.34V92.731V91.731H313.34V92.731ZM318.34 92.731H317.34V350.731H318.34H319.34V92.731H318.34ZM318.34 350.731V349.731H313.34V350.731V351.731H318.34V350.731ZM313.34 350.731H314.34V333.731H313.34H312.34V350.731H313.34ZM313.34 333.731V332.731H293.34V333.731V334.731H313.34V333.731ZM293.34 333.731H292.34V350.731H293.34H294.34V333.731H293.34ZM293.34 350.731V349.731H288.34V350.731V351.731H293.34V350.731ZM288.34 350.731H289.34V79.731H288.34H287.34V350.731H288.34ZM288.34 79.731V80.731H293.34V79.731V78.731H288.34V79.731ZM293.34 79.731H292.34V111.731H293.34H294.34V79.731H293.34ZM293.34 313.731H292.34V328.731H293.34H294.34V313.731H293.34ZM293.34 328.731V329.731H313.34V328.731V327.731H293.34V328.731ZM313.34 328.731H314.34V313.731H313.34H312.34V328.731H313.34ZM313.34 313.731V312.731H293.34V313.731V314.731H313.34V313.731ZM293.34 294.731H292.34V308.731H293.34H294.34V294.731H293.34ZM293.34 308.731V309.731H313.34V308.731V307.731H293.34V308.731ZM313.34 308.731H314.34V294.731H313.34H312.34V308.731H313.34ZM313.34 294.731V293.731H293.34V294.731V295.731H313.34V294.731ZM293.34 275.731H292.34V289.731H293.34H294.34V275.731H293.34ZM293.34 289.731V290.731H313.34V289.731V288.731H293.34V289.731ZM313.34 289.731H314.34V275.731H313.34H312.34V289.731H313.34ZM313.34 275.731V274.731H293.34V275.731V276.731H313.34V275.731ZM293.34 255.731H292.34V270.731H293.34H294.34V255.731H293.34ZM293.34 270.731V271.731H313.34V270.731V269.731H293.34V270.731ZM313.34 270.731H314.34V255.731H313.34H312.34V270.731H313.34ZM313.34 255.731V254.731H293.34V255.731V256.731H313.34V255.731ZM293.34 236.731H292.34V250.731H293.34H294.34V236.731H293.34ZM293.34 250.731V251.731H313.34V250.731V249.731H293.34V250.731ZM313.34 250.731H314.34V236.731H313.34H312.34V250.731H313.34ZM313.34 236.731V235.731H293.34V236.731V237.731H313.34V236.731ZM293.34 215.731H292.34V231.731H293.34H294.34V215.731H293.34ZM293.34 231.731V232.731H313.34V231.731V230.731H293.34V231.731ZM313.34 231.731H314.34V215.731H313.34H312.34V231.731H313.34ZM313.34 215.731V214.731H293.34V215.731V216.731H313.34V215.731ZM293.34 195.731H292.34V210.731H293.34H294.34V195.731H293.34ZM293.34 210.731V211.731H313.34V210.731V209.731H293.34V210.731ZM313.34 210.731H314.34V195.731H313.34H312.34V210.731H313.34ZM313.34 195.731V194.731H293.34V195.731V196.731H313.34V195.731ZM293.34 176.731H292.34V190.731H293.34H294.34V176.731H293.34ZM293.34 190.731V191.731H313.34V190.731V189.731H293.34V190.731ZM313.34 190.731H314.34V176.731H313.34H312.34V190.731H313.34ZM313.34 176.731V175.731H293.34V176.731V177.731H313.34V176.731ZM293.34 155.731H292.34V171.731H293.34H294.34V155.731H293.34ZM293.34 171.731V172.731H313.34V171.731V170.731H293.34V171.731ZM313.34 171.731H314.34V155.731H313.34H312.34V171.731H313.34ZM313.34 155.731V154.731H293.34V155.731V156.731H313.34V155.731ZM293.34 135.731H292.34V150.731H293.34H294.34V135.731H293.34ZM293.34 150.731V151.731H313.34V150.731V149.731H293.34V150.731ZM313.34 150.731H314.34V135.731H313.34H312.34V150.731H313.34ZM313.34 135.731V134.731H293.34V135.731V136.731H313.34V135.731ZM293.34 116.731H292.34V130.731H293.34H294.34V116.731H293.34ZM293.34 130.731V131.731H313.34V130.731V129.731H293.34V130.731ZM313.34 130.731H314.34V116.731H313.34H312.34V130.731H313.34ZM313.34 116.731V115.731H293.34V116.731V117.731H313.34V116.731Z" fill="black" mask="url(#path-13-inside-2_210_1977)"/>
<mask id="path-15-inside-3_210_1977" fill="white">
<path d="M113.34 350.731H108.34V333.731H88.3398V350.731H83.3398V92.731H88.3398V111.731H108.34V79.731H113.34V350.731ZM88.3398 328.731H108.34V313.731H88.3398V328.731ZM88.3398 308.731H108.34V294.731H88.3398V308.731ZM88.3398 289.731H108.34V275.731H88.3398V289.731ZM88.3398 270.731H108.34V255.731H88.3398V270.731ZM88.3398 250.731H108.34V236.731H88.3398V250.731ZM88.3398 231.731H108.34V215.731H88.3398V231.731ZM88.3398 210.731H108.34V195.731H88.3398V210.731ZM88.3398 190.731H108.34V176.731H88.3398V190.731ZM88.3398 171.731H108.34V155.731H88.3398V171.731ZM88.3398 150.731H108.34V135.731H88.3398V150.731ZM88.3398 130.731H108.34V116.731H88.3398V130.731ZM160.84 87.731C165.258 87.731 168.84 91.3127 168.84 95.731V101.231H164.84V95.731C164.84 93.5218 163.049 91.731 160.84 91.731H144.34C142.131 91.731 140.34 93.5218 140.34 95.731V101.231H136.34V95.731C136.34 91.3127 139.922 87.731 144.34 87.731H160.84Z"/>
</mask>
<path d="M113.34 350.731H108.34V333.731H88.3398V350.731H83.3398V92.731H88.3398V111.731H108.34V79.731H113.34V350.731ZM88.3398 328.731H108.34V313.731H88.3398V328.731ZM88.3398 308.731H108.34V294.731H88.3398V308.731ZM88.3398 289.731H108.34V275.731H88.3398V289.731ZM88.3398 270.731H108.34V255.731H88.3398V270.731ZM88.3398 250.731H108.34V236.731H88.3398V250.731ZM88.3398 231.731H108.34V215.731H88.3398V231.731ZM88.3398 210.731H108.34V195.731H88.3398V210.731ZM88.3398 190.731H108.34V176.731H88.3398V190.731ZM88.3398 171.731H108.34V155.731H88.3398V171.731ZM88.3398 150.731H108.34V135.731H88.3398V150.731ZM88.3398 130.731H108.34V116.731H88.3398V130.731ZM160.84 87.731C165.258 87.731 168.84 91.3127 168.84 95.731V101.231H164.84V95.731C164.84 93.5218 163.049 91.731 160.84 91.731H144.34C142.131 91.731 140.34 93.5218 140.34 95.731V101.231H136.34V95.731C136.34 91.3127 139.922 87.731 144.34 87.731H160.84Z" fill="#C8CFD6"/>
<path d="M113.34 350.731V351.731H114.34V350.731H113.34ZM108.34 350.731H107.34V351.731H108.34V350.731ZM108.34 333.731H109.34V332.731H108.34V333.731ZM88.3398 333.731V332.731H87.3398V333.731H88.3398ZM88.3398 350.731V351.731H89.3398V350.731H88.3398ZM83.3398 350.731H82.3398V351.731H83.3398V350.731ZM83.3398 92.731V91.731H82.3398V92.731H83.3398ZM88.3398 92.731H89.3398V91.731H88.3398V92.731ZM88.3398 111.731H87.3398V112.731H88.3398V111.731ZM108.34 111.731V112.731H109.34V111.731H108.34ZM108.34 79.731V78.731H107.34V79.731H108.34ZM113.34 79.731H114.34V78.731H113.34V79.731ZM88.3398 328.731H87.3398V329.731H88.3398V328.731ZM108.34 328.731V329.731H109.34V328.731H108.34ZM108.34 313.731H109.34V312.731H108.34V313.731ZM88.3398 313.731V312.731H87.3398V313.731H88.3398ZM88.3398 308.731H87.3398V309.731H88.3398V308.731ZM108.34 308.731V309.731H109.34V308.731H108.34ZM108.34 294.731H109.34V293.731H108.34V294.731ZM88.3398 294.731V293.731H87.3398V294.731H88.3398ZM88.3398 289.731H87.3398V290.731H88.3398V289.731ZM108.34 289.731V290.731H109.34V289.731H108.34ZM108.34 275.731H109.34V274.731H108.34V275.731ZM88.3398 275.731V274.731H87.3398V275.731H88.3398ZM88.3398 270.731H87.3398V271.731H88.3398V270.731ZM108.34 270.731V271.731H109.34V270.731H108.34ZM108.34 255.731H109.34V254.731H108.34V255.731ZM88.3398 255.731V254.731H87.3398V255.731H88.3398ZM88.3398 250.731H87.3398V251.731H88.3398V250.731ZM108.34 250.731V251.731H109.34V250.731H108.34ZM108.34 236.731H109.34V235.731H108.34V236.731ZM88.3398 236.731V235.731H87.3398V236.731H88.3398ZM88.3398 231.731H87.3398V232.731H88.3398V231.731ZM108.34 231.731V232.731H109.34V231.731H108.34ZM108.34 215.731H109.34V214.731H108.34V215.731ZM88.3398 215.731V214.731H87.3398V215.731H88.3398ZM88.3398 210.731H87.3398V211.731H88.3398V210.731ZM108.34 210.731V211.731H109.34V210.731H108.34ZM108.34 195.731H109.34V194.731H108.34V195.731ZM88.3398 195.731V194.731H87.3398V195.731H88.3398ZM88.3398 190.731H87.3398V191.731H88.3398V190.731ZM108.34 190.731V191.731H109.34V190.731H108.34ZM108.34 176.731H109.34V175.731H108.34V176.731ZM88.3398 176.731V175.731H87.3398V176.731H88.3398ZM88.3398 171.731H87.3398V172.731H88.3398V171.731ZM108.34 171.731V172.731H109.34V171.731H108.34ZM108.34 155.731H109.34V154.731H108.34V155.731ZM88.3398 155.731V154.731H87.3398V155.731H88.3398ZM88.3398 150.731H87.3398V151.731H88.3398V150.731ZM108.34 150.731V151.731H109.34V150.731H108.34ZM108.34 135.731H109.34V134.731H108.34V135.731ZM88.3398 135.731V134.731H87.3398V135.731H88.3398ZM88.3398 130.731H87.3398V131.731H88.3398V130.731ZM108.34 130.731V131.731H109.34V130.731H108.34ZM108.34 116.731H109.34V115.731H108.34V116.731ZM88.3398 116.731V115.731H87.3398V116.731H88.3398ZM168.84 101.231V102.231H169.84V101.231H168.84ZM164.84 101.231H163.84V102.231H164.84V101.231ZM140.34 101.231V102.231H141.34V101.231H140.34ZM136.34 101.231H135.34V102.231H136.34V101.231ZM113.34 350.731V349.731H108.34V350.731V351.731H113.34V350.731ZM108.34 350.731H109.34V333.731H108.34H107.34V350.731H108.34ZM108.34 333.731V332.731H88.3398V333.731V334.731H108.34V333.731ZM88.3398 333.731H87.3398V350.731H88.3398H89.3398V333.731H88.3398ZM88.3398 350.731V349.731H83.3398V350.731V351.731H88.3398V350.731ZM83.3398 350.731H84.3398V92.731H83.3398H82.3398V350.731H83.3398ZM83.3398 92.731V93.731H88.3398V92.731V91.731H83.3398V92.731ZM88.3398 92.731H87.3398V111.731H88.3398H89.3398V92.731H88.3398ZM88.3398 111.731V112.731H108.34V111.731V110.731H88.3398V111.731ZM108.34 111.731H109.34V79.731H108.34H107.34V111.731H108.34ZM108.34 79.731V80.731H113.34V79.731V78.731H108.34V79.731ZM113.34 79.731H112.34V350.731H113.34H114.34V79.731H113.34ZM88.3398 328.731V329.731H108.34V328.731V327.731H88.3398V328.731ZM108.34 328.731H109.34V313.731H108.34H107.34V328.731H108.34ZM108.34 313.731V312.731H88.3398V313.731V314.731H108.34V313.731ZM88.3398 313.731H87.3398V328.731H88.3398H89.3398V313.731H88.3398ZM88.3398 308.731V309.731H108.34V308.731V307.731H88.3398V308.731ZM108.34 308.731H109.34V294.731H108.34H107.34V308.731H108.34ZM108.34 294.731V293.731H88.3398V294.731V295.731H108.34V294.731ZM88.3398 294.731H87.3398V308.731H88.3398H89.3398V294.731H88.3398ZM88.3398 289.731V290.731H108.34V289.731V288.731H88.3398V289.731ZM108.34 289.731H109.34V275.731H108.34H107.34V289.731H108.34ZM108.34 275.731V274.731H88.3398V275.731V276.731H108.34V275.731ZM88.3398 275.731H87.3398V289.731H88.3398H89.3398V275.731H88.3398ZM88.3398 270.731V271.731H108.34V270.731V269.731H88.3398V270.731ZM108.34 270.731H109.34V255.731H108.34H107.34V270.731H108.34ZM108.34 255.731V254.731H88.3398V255.731V256.731H108.34V255.731ZM88.3398 255.731H87.3398V270.731H88.3398H89.3398V255.731H88.3398ZM88.3398 250.731V251.731H108.34V250.731V249.731H88.3398V250.731ZM108.34 250.731H109.34V236.731H108.34H107.34V250.731H108.34ZM108.34 236.731V235.731H88.3398V236.731V237.731H108.34V236.731ZM88.3398 236.731H87.3398V250.731H88.3398H89.3398V236.731H88.3398ZM88.3398 231.731V232.731H108.34V231.731V230.731H88.3398V231.731ZM108.34 231.731H109.34V215.731H108.34H107.34V231.731H108.34ZM108.34 215.731V214.731H88.3398V215.731V216.731H108.34V215.731ZM88.3398 215.731H87.3398V231.731H88.3398H89.3398V215.731H88.3398ZM88.3398 210.731V211.731H108.34V210.731V209.731H88.3398V210.731ZM108.34 210.731H109.34V195.731H108.34H107.34V210.731H108.34ZM108.34 195.731V194.731H88.3398V195.731V196.731H108.34V195.731ZM88.3398 195.731H87.3398V210.731H88.3398H89.3398V195.731H88.3398ZM88.3398 190.731V191.731H108.34V190.731V189.731H88.3398V190.731ZM108.34 190.731H109.34V176.731H108.34H107.34V190.731H108.34ZM108.34 176.731V175.731H88.3398V176.731V177.731H108.34V176.731ZM88.3398 176.731H87.3398V190.731H88.3398H89.3398V176.731H88.3398ZM88.3398 171.731V172.731H108.34V171.731V170.731H88.3398V171.731ZM108.34 171.731H109.34V155.731H108.34H107.34V171.731H108.34ZM108.34 155.731V154.731H88.3398V155.731V156.731H108.34V155.731ZM88.3398 155.731H87.3398V171.731H88.3398H89.3398V155.731H88.3398ZM88.3398 150.731V151.731H108.34V150.731V149.731H88.3398V150.731ZM108.34 150.731H109.34V135.731H108.34H107.34V150.731H108.34ZM108.34 135.731V134.731H88.3398V135.731V136.731H108.34V135.731ZM88.3398 135.731H87.3398V150.731H88.3398H89.3398V135.731H88.3398ZM88.3398 130.731V131.731H108.34V130.731V129.731H88.3398V130.731ZM108.34 130.731H109.34V116.731H108.34H107.34V130.731H108.34ZM108.34 116.731V115.731H88.3398V116.731V117.731H108.34V116.731ZM88.3398 116.731H87.3398V130.731H88.3398H89.3398V116.731H88.3398ZM160.84 87.731V88.731C164.706 88.731 167.84 91.865 167.84 95.731H168.84H169.84C169.84 90.7604 165.81 86.731 160.84 86.731V87.731ZM168.84 95.731H167.84V101.231H168.84H169.84V95.731H168.84ZM168.84 101.231V100.231H164.84V101.231V102.231H168.84V101.231ZM164.84 101.231H165.84V95.731H164.84H163.84V101.231H164.84ZM164.84 95.731H165.84C165.84 92.9695 163.601 90.731 160.84 90.731V91.731V92.731C162.497 92.731 163.84 94.0741 163.84 95.731H164.84ZM160.84 91.731V90.731H144.34V91.731V92.731H160.84V91.731ZM144.34 91.731V90.731C141.578 90.731 139.34 92.9695 139.34 95.731H140.34H141.34C141.34 94.0741 142.683 92.731 144.34 92.731V91.731ZM140.34 95.731H139.34V101.231H140.34H141.34V95.731H140.34ZM140.34 101.231V100.231H136.34V101.231V102.231H140.34V101.231ZM136.34 101.231H137.34V95.731H136.34H135.34V101.231H136.34ZM136.34 95.731H137.34C137.34 91.865 140.474 88.731 144.34 88.731V87.731V86.731C139.369 86.731 135.34 90.7604 135.34 95.731H136.34ZM144.34 87.731V88.731H160.84V87.731V86.731H144.34V87.731Z" fill="black" mask="url(#path-15-inside-3_210_1977)"/>
<mask id="path-17-inside-4_210_1977" fill="white">
<path d="M242.34 129.731C242.34 136.911 248.16 142.731 255.34 142.731C257.112 142.731 258.801 142.376 260.34 141.734V168.727C258.801 168.085 257.112 167.731 255.34 167.731C248.16 167.731 242.34 173.551 242.34 180.731C242.34 181.411 242.392 182.079 242.493 182.731H159.187C159.287 182.079 159.34 181.411 159.34 180.731C159.34 173.551 153.52 167.731 146.34 167.731C145.307 167.731 144.303 167.852 143.34 168.08V142.381C144.303 142.609 145.307 142.731 146.34 142.731C153.52 142.731 159.34 136.911 159.34 129.731H242.34Z"/>
</mask>
<path d="M242.34 129.731H244.34V127.731H242.34V129.731ZM260.34 141.734H262.34V138.733L259.57 139.888L260.34 141.734ZM260.34 168.727L259.57 170.573L262.34 171.728V168.727H260.34ZM242.493 182.731V184.731H244.826L244.47 182.426L242.493 182.731ZM159.187 182.731L157.21 182.426L156.854 184.731H159.187V182.731ZM143.34 168.08H141.34V170.607L143.8 170.026L143.34 168.08ZM143.34 142.381L143.8 140.435L141.34 139.854V142.381H143.34ZM159.34 129.731V127.731H157.34V129.731H159.34ZM242.34 129.731H240.34C240.34 138.015 247.056 144.731 255.34 144.731V142.731V140.731C249.265 140.731 244.34 135.806 244.34 129.731H242.34ZM255.34 142.731V144.731C257.381 144.731 259.331 144.321 261.11 143.58L260.34 141.734L259.57 139.888C258.27 140.43 256.842 140.731 255.34 140.731V142.731ZM260.34 141.734H258.34V168.727H260.34H262.34V141.734H260.34ZM260.34 168.727L261.11 166.881C259.331 166.139 257.38 165.731 255.34 165.731V167.731V169.731C256.843 169.731 258.271 170.031 259.57 170.573L260.34 168.727ZM255.34 167.731V165.731C247.056 165.731 240.34 172.447 240.34 180.731H242.34H244.34C244.34 174.656 249.265 169.731 255.34 169.731V167.731ZM242.34 180.731H240.34C240.34 181.514 240.401 182.284 240.517 183.036L242.493 182.731L244.47 182.426C244.384 181.874 244.34 181.308 244.34 180.731H242.34ZM242.493 182.731V180.731H159.187V182.731V184.731H242.493V182.731ZM159.187 182.731L161.163 183.036C161.279 182.284 161.34 181.514 161.34 180.731H159.34H157.34C157.34 181.308 157.295 181.874 157.21 182.426L159.187 182.731ZM159.34 180.731H161.34C161.34 172.447 154.624 165.731 146.34 165.731V167.731V169.731C152.415 169.731 157.34 174.656 157.34 180.731H159.34ZM146.34 167.731V165.731C145.15 165.731 143.992 165.871 142.88 166.133L143.34 168.08L143.8 170.026C144.614 169.834 145.464 169.731 146.34 169.731V167.731ZM143.34 168.08H145.34V142.381H143.34H141.34V168.08H143.34ZM143.34 142.381L142.88 144.328C143.991 144.59 145.149 144.731 146.34 144.731V142.731V140.731C145.465 140.731 144.615 140.628 143.8 140.435L143.34 142.381ZM146.34 142.731V144.731C154.624 144.731 161.34 138.015 161.34 129.731H159.34H157.34C157.34 135.806 152.415 140.731 146.34 140.731V142.731ZM159.34 129.731V131.731H242.34V129.731V127.731H159.34V129.731Z" fill="#FFD362" mask="url(#path-17-inside-4_210_1977)"/>
<path d="M212.34 262.731C216.206 262.731 219.34 265.865 219.34 269.731L219.34 286.731C219.34 290.597 216.206 293.731 212.34 293.731L190.34 293.731C186.474 293.731 183.34 290.597 183.34 286.731L183.34 269.731C183.34 265.865 186.474 262.731 190.34 262.731L212.34 262.731Z" fill="#6B7C85" stroke="black"/>
<path d="M140.84 222.731C140.84 222.455 140.616 222.231 140.34 222.231C140.064 222.231 139.84 222.455 139.84 222.731H140.34H140.84ZM177.84 222.731C177.84 222.455 177.616 222.231 177.34 222.231C177.064 222.231 176.84 222.455 176.84 222.731H177.34H177.84ZM171.653 235.731L171.312 235.366L171.312 235.366L171.653 235.731ZM174.561 248.731V249.231H175.185L175.049 248.622L174.561 248.731ZM163.34 248.731V248.231H162.84V248.731H163.34ZM158.84 240.754V240.254C148.886 240.254 140.84 232.396 140.84 222.731H140.34H139.84C139.84 232.973 148.359 241.254 158.84 241.254V240.754ZM177.34 222.731H176.84C176.84 227.693 174.721 232.175 171.312 235.366L171.653 235.731L171.995 236.096C175.595 232.727 177.84 227.986 177.84 222.731H177.34ZM171.653 235.731L171.312 235.366C168.077 238.392 163.683 240.254 158.84 240.254V240.754V241.254C163.944 241.254 168.58 239.291 171.995 236.096L171.653 235.731ZM171.653 235.731L171.165 235.84L174.073 248.84L174.561 248.731L175.049 248.622L172.141 235.622L171.653 235.731ZM174.561 248.731V248.231H163.34V248.731V249.231H174.561V248.731ZM163.34 248.731H162.84V252.731H163.34H163.84V248.731H163.34Z" fill="black"/>
<path d="M261.84 222.731C261.84 222.455 262.064 222.231 262.34 222.231C262.616 222.231 262.84 222.455 262.84 222.731H262.34H261.84ZM224.84 222.731C224.84 222.455 225.064 222.231 225.34 222.231C225.616 222.231 225.84 222.455 225.84 222.731H225.34H224.84ZM231.027 235.731L231.368 235.366L231.368 235.366L231.027 235.731ZM228.119 248.731V249.231H227.494L227.631 248.622L228.119 248.731ZM239.34 248.731V248.231H239.84V248.731H239.34ZM243.84 240.754V240.254C253.793 240.254 261.84 232.396 261.84 222.731H262.34H262.84C262.84 232.973 254.321 241.254 243.84 241.254V240.754ZM225.34 222.731H225.84C225.84 227.693 227.958 232.175 231.368 235.366L231.027 235.731L230.685 236.096C227.085 232.727 224.84 227.986 224.84 222.731H225.34ZM231.027 235.731L231.368 235.366C234.602 238.392 238.996 240.254 243.84 240.254V240.754V241.254C238.736 241.254 234.1 239.291 230.685 236.096L231.027 235.731ZM231.027 235.731L231.514 235.84L228.606 248.84L228.119 248.731L227.631 248.622L230.539 235.622L231.027 235.731ZM228.119 248.731V248.231H239.34V248.731V249.231H228.119V248.731ZM239.34 248.731H239.84V252.731H239.34H238.84V248.731H239.34Z" fill="black"/>
<path d="M215.84 271.454V285.007L194.84 293.005V263.456L215.84 271.454Z" fill="#6B7C85" stroke="black"/>
</g>
<defs>
<clipPath id="clip0_210_1977">
<rect width="384" height="384" fill="white"/>
</clipPath>
</defs>
</svg>
