<svg width="384" height="384" viewBox="0 0 384 384" fill="none" xmlns="http://www.w3.org/2000/svg">
<g clip-path="url(#clip0_210_1763)">
<path d="M163.02 36.5908V72.1904H151.75V36.5908H163.02Z" fill="#6B7C85" stroke="black" stroke-linecap="round"/>
<path d="M168.246 42.2691L168.259 44.5806L146.729 44.7387L146.716 42.4272C146.683 36.4816 151.476 31.6263 157.421 31.5827C163.367 31.5391 168.213 36.3235 168.246 42.2691Z" fill="#6B7C85" stroke="black" stroke-linecap="round"/>
<path d="M303.02 36.5908V72.1904H291.75V36.5908H303.02Z" fill="#6B7C85" stroke="black" stroke-linecap="round"/>
<path d="M308.246 42.2691L308.259 44.5806L286.729 44.7387L286.716 42.4272C286.683 36.4816 291.476 31.6263 297.421 31.5827C303.367 31.5391 308.213 36.3235 308.246 42.2691Z" fill="#6B7C85" stroke="black" stroke-linecap="round"/>
<path d="M14 273C14 255.879 27.8792 242 45 242H333C350.121 242 364 255.879 364 273V275C364 287.703 353.703 298 341 298H37C24.2975 298 14 287.703 14 275V273Z" fill="#2C404F" stroke="black"/>
<mask id="path-6-inside-1_210_1763" fill="white">
<path d="M384 234C381.791 234 380 235.791 380 238V239.434H354V255.7H380V257C380 259.209 381.791 261 384 261H393C395.209 261 397 259.209 397 257V238C397 235.791 395.209 234 393 234H384Z"/>
</mask>
<path d="M384 234C381.791 234 380 235.791 380 238V239.434H354V255.7H380V257C380 259.209 381.791 261 384 261H393C395.209 261 397 259.209 397 257V238C397 235.791 395.209 234 393 234H384Z" fill="#6B7C85"/>
<path d="M380 238L379 238L380 238ZM380 239.434H381V240.434H380V239.434ZM354 239.434H353V238.434H354V239.434ZM354 255.7V256.7H353V255.7H354ZM380 255.7V254.7H381V255.7H380ZM384 261L384 262L384 261ZM397 257L398 257L397 257ZM393 234L393 233L393 234ZM384 234V235C382.343 235 381 236.343 381 238L380 238L379 238C379 235.239 381.239 233 384 233V234ZM380 238H381V239.434H380H379V238H380ZM380 239.434V240.434H354V239.434V238.434H380V239.434ZM354 239.434H355V255.7H354H353V239.434H354ZM354 255.7V254.7H380V255.7V256.7H354V255.7ZM380 255.7H381V257H380H379V255.7H380ZM380 257H381C381 258.657 382.343 260 384 260L384 261L384 262C381.239 262 379 259.761 379 257H380ZM384 261V260H393V261V262H384V261ZM393 261V260C394.657 260 396 258.657 396 257L397 257L398 257C398 259.761 395.761 262 393 262V261ZM397 257H396V238H397H398V257H397ZM397 238H396C396 236.343 394.657 235 393 235L393 234L393 233C395.761 233 398 235.239 398 238H397ZM393 234V235H384V234V233H393V234Z" fill="black" mask="url(#path-6-inside-1_210_1763)"/>
<mask id="path-8-inside-2_210_1763" fill="white">
<path d="M0 234C2.20914 234 4 235.791 4 238V239.434H30V255.7H4V257C4 259.209 2.20914 261 0 261H-9C-11.2091 261 -13 259.209 -13 257V238C-13 235.791 -11.2091 234 -9 234H0Z"/>
</mask>
<path d="M0 234C2.20914 234 4 235.791 4 238V239.434H30V255.7H4V257C4 259.209 2.20914 261 0 261H-9C-11.2091 261 -13 259.209 -13 257V238C-13 235.791 -11.2091 234 -9 234H0Z" fill="#6B7C85"/>
<path d="M4 238L5 238L4 238ZM4 239.434H3V240.434H4V239.434ZM30 239.434H31V238.434H30V239.434ZM30 255.7V256.7H31V255.7H30ZM4 255.7V254.7H3V255.7H4ZM0 261L3.64546e-09 262L0 261ZM-13 257L-14 257L-13 257ZM-9 234L-9 233L-9 234ZM0 234V235C1.65685 235 3 236.343 3 238L4 238L5 238C5 235.239 2.76142 233 0 233V234ZM4 238H3V239.434H4H5V238H4ZM4 239.434V240.434H30V239.434V238.434H4V239.434ZM30 239.434H29V255.7H30H31V239.434H30ZM30 255.7V254.7H4V255.7V256.7H30V255.7ZM4 255.7H3V257H4H5V255.7H4ZM4 257H3C3 258.657 1.65685 260 -3.64546e-09 260L0 261L3.64546e-09 262C2.76142 262 5 259.761 5 257H4ZM0 261V260H-9V261V262H0V261ZM-9 261V260C-10.6569 260 -12 258.657 -12 257L-13 257L-14 257C-14 259.761 -11.7614 262 -9 262V261ZM-13 257H-12V238H-13H-14V257H-13ZM-13 238H-12C-12 236.343 -10.6569 235 -9 235L-9 234L-9 233C-11.7614 233 -14 235.239 -14 238H-13ZM-9 234V235H0V234V233H-9V234Z" fill="black" mask="url(#path-8-inside-2_210_1763)"/>
<mask id="path-10-outside-3_210_1763" maskUnits="userSpaceOnUse" x="30" y="268" width="59" height="59" fill="black">
<rect fill="white" x="30" y="268" width="59" height="59"/>
<path d="M59.5 269C75.2401 269 88 281.76 88 297.5C88 313.24 75.2401 326 59.5 326C43.7599 326 31 313.24 31 297.5C31 281.76 43.7599 269 59.5 269ZM59.7666 322.996C66.1628 322.931 71.9934 320.511 76.4355 316.562L59.7666 299.893V322.996ZM41.6611 315.72C45.6483 319.624 50.9109 322.229 56.7666 322.854V300.615L41.6611 315.72ZM78.5566 314.44C82.2535 310.285 84.612 304.914 84.9551 299H63.1162L78.5566 314.44ZM34.0449 299C34.3625 304.475 36.4074 309.485 39.6426 313.496L54.1396 299H34.0449ZM61.3818 296H84.9551C84.5868 289.651 81.8963 283.926 77.7197 279.661L61.3818 296ZM40.4375 280.563C36.7433 284.718 34.3878 290.089 34.0449 296H55.874L40.4375 280.563ZM59.7666 293.372L75.4961 277.642C71.1857 274.165 65.721 272.064 59.7666 272.003V293.372ZM56.7666 272.146C51.3406 272.724 46.4233 275.004 42.5586 278.441L56.7666 292.649V272.146Z"/>
</mask>
<path d="M59.5 269C75.2401 269 88 281.76 88 297.5C88 313.24 75.2401 326 59.5 326C43.7599 326 31 313.24 31 297.5C31 281.76 43.7599 269 59.5 269ZM59.7666 322.996C66.1628 322.931 71.9934 320.511 76.4355 316.562L59.7666 299.893V322.996ZM41.6611 315.72C45.6483 319.624 50.9109 322.229 56.7666 322.854V300.615L41.6611 315.72ZM78.5566 314.44C82.2535 310.285 84.612 304.914 84.9551 299H63.1162L78.5566 314.44ZM34.0449 299C34.3625 304.475 36.4074 309.485 39.6426 313.496L54.1396 299H34.0449ZM61.3818 296H84.9551C84.5868 289.651 81.8963 283.926 77.7197 279.661L61.3818 296ZM40.4375 280.563C36.7433 284.718 34.3878 290.089 34.0449 296H55.874L40.4375 280.563ZM59.7666 293.372L75.4961 277.642C71.1857 274.165 65.721 272.064 59.7666 272.003V293.372ZM56.7666 272.146C51.3406 272.724 46.4233 275.004 42.5586 278.441L56.7666 292.649V272.146Z" fill="#6B7C85"/>
<path d="M88 297.5H89H88ZM31 297.5L30 297.5L31 297.5ZM59.7666 322.996H58.7666V324.006L59.7768 323.996L59.7666 322.996ZM76.4355 316.562L77.1 317.309L77.8925 316.604L77.1427 315.854L76.4355 316.562ZM59.7666 299.893L60.4737 299.185L58.7666 297.478V299.893H59.7666ZM41.6611 315.72L40.954 315.013L40.2394 315.727L40.9615 316.434L41.6611 315.72ZM56.7666 322.854L56.6606 323.848L57.7666 323.966V322.854H56.7666ZM56.7666 300.615H57.7666V298.201L56.0595 299.908L56.7666 300.615ZM78.5566 314.44L77.8495 315.148L78.5992 315.897L79.3038 315.105L78.5566 314.44ZM84.9551 299L85.9534 299.058L86.0148 298H84.9551V299ZM63.1162 299V298H60.702L62.4091 299.707L63.1162 299ZM34.0449 299V298H32.9852L33.0466 299.058L34.0449 299ZM39.6426 313.496L38.8642 314.124L39.5628 314.99L40.3497 314.203L39.6426 313.496ZM54.1396 299L54.8467 299.707L56.554 298H54.1396V299ZM61.3818 296L60.6747 295.293L58.9677 297H61.3818V296ZM84.9551 296V297H86.0148L85.9534 295.942L84.9551 296ZM77.7197 279.661L78.4342 278.961L77.7272 278.239L77.0126 278.954L77.7197 279.661ZM40.4375 280.563L41.1446 279.856L40.3948 279.107L39.6902 279.899L40.4375 280.563ZM34.0449 296L33.0466 295.942L32.9852 297H34.0449V296ZM55.874 296V297H58.2882L56.5811 295.293L55.874 296ZM59.7666 293.372H58.7666V295.786L60.4737 294.079L59.7666 293.372ZM75.4961 277.642L76.2032 278.349L76.9901 277.562L76.1239 276.863L75.4961 277.642ZM59.7666 272.003L59.7768 271.003L58.7666 270.993V272.003H59.7666ZM56.7666 272.146H57.7666V271.033L56.6606 271.151L56.7666 272.146ZM42.5586 278.441L41.894 277.694L41.1018 278.399L41.8515 279.149L42.5586 278.441ZM56.7666 292.649L56.0595 293.357L57.7666 295.064V292.649H56.7666ZM59.5 269V270C74.6878 270 87 282.312 87 297.5H88H89C89 281.208 75.7924 268 59.5 268V269ZM88 297.5L87 297.5C87 312.688 74.6878 325 59.5 325V326V327C75.7924 327 89 313.792 89 297.5L88 297.5ZM59.5 326V325C44.3122 325 32 312.688 32 297.5L31 297.5L30 297.5C30 313.792 43.2076 327 59.5 327V326ZM31 297.5H32C32 282.312 44.3122 270 59.5 270V269V268C43.2076 268 30 281.208 30 297.5H31ZM59.7666 322.996L59.7768 323.996C66.4235 323.928 72.4843 321.413 77.1 317.309L76.4355 316.562L75.7711 315.814C71.5025 319.609 65.9021 321.933 59.7564 321.996L59.7666 322.996ZM76.4355 316.562L77.1427 315.854L60.4737 299.185L59.7666 299.893L59.0595 300.6L75.7284 317.269L76.4355 316.562ZM59.7666 299.893H58.7666V322.996H59.7666H60.7666V299.893H59.7666ZM41.6611 315.72L40.9615 316.434C45.1038 320.491 50.5736 323.199 56.6606 323.848L56.7666 322.854L56.8726 321.859C51.2483 321.26 46.1928 318.758 42.3608 315.005L41.6611 315.72ZM56.7666 322.854H57.7666V300.615H56.7666H55.7666V322.854H56.7666ZM56.7666 300.615L56.0595 299.908L40.954 315.013L41.6611 315.72L42.3682 316.427L57.4737 301.322L56.7666 300.615ZM78.5566 314.44L79.3038 315.105C83.1448 310.787 85.5968 305.204 85.9534 299.058L84.9551 299L83.9568 298.942C83.6272 304.623 81.3622 309.782 77.8095 313.776L78.5566 314.44ZM84.9551 299V298H63.1162V299V300H84.9551V299ZM63.1162 299L62.4091 299.707L77.8495 315.148L78.5566 314.44L79.2637 313.733L63.8233 298.293L63.1162 299ZM34.0449 299L33.0466 299.058C33.3767 304.748 35.5025 309.956 38.8642 314.124L39.6426 313.496L40.4209 312.868C37.3122 309.014 35.3484 304.202 35.0432 298.942L34.0449 299ZM39.6426 313.496L40.3497 314.203L54.8467 299.707L54.1396 299L53.4326 298.293L38.9355 312.789L39.6426 313.496ZM54.1396 299V298H34.0449V299V300H54.1396V299ZM61.3818 296V297H84.9551V296V295H61.3818V296ZM84.9551 296L85.9534 295.942C85.5706 289.343 82.7735 283.393 78.4342 278.961L77.7197 279.661L77.0052 280.361C81.0192 284.46 83.603 289.959 83.9568 296.058L84.9551 296ZM77.7197 279.661L77.0126 278.954L60.6747 295.293L61.3818 296L62.089 296.707L78.4269 280.368L77.7197 279.661ZM40.4375 280.563L39.6902 279.899C35.8518 284.216 33.403 289.798 33.0466 295.942L34.0449 296L35.0432 296.058C35.3727 290.379 37.6348 285.221 41.1848 281.228L40.4375 280.563ZM34.0449 296V297H55.874V296V295H34.0449V296ZM55.874 296L56.5811 295.293L41.1446 279.856L40.4375 280.563L39.7304 281.271L55.1669 296.707L55.874 296ZM59.7666 293.372L60.4737 294.079L76.2032 278.349L75.4961 277.642L74.789 276.935L59.0595 292.665L59.7666 293.372ZM75.4961 277.642L76.1239 276.863C71.6447 273.251 65.9641 271.066 59.7768 271.003L59.7666 272.003L59.7564 273.003C65.4779 273.061 70.7267 275.08 74.8683 278.42L75.4961 277.642ZM59.7666 272.003H58.7666V293.372H59.7666H60.7666V272.003H59.7666ZM56.7666 272.146L56.6606 271.151C51.0203 271.752 45.9094 274.122 41.894 277.694L42.5586 278.441L43.2232 279.189C46.9373 275.885 51.6608 273.695 56.8726 273.14L56.7666 272.146ZM42.5586 278.441L41.8515 279.149L56.0595 293.357L56.7666 292.649L57.4737 291.942L43.2657 277.734L42.5586 278.441ZM56.7666 292.649H57.7666V272.146H56.7666H55.7666V292.649H56.7666Z" fill="black" mask="url(#path-10-outside-3_210_1763)"/>
<mask id="path-12-outside-4_210_1763" maskUnits="userSpaceOnUse" x="98" y="268" width="59" height="59" fill="black">
<rect fill="white" x="98" y="268" width="59" height="59"/>
<path d="M127.5 269C143.24 269 156 281.76 156 297.5C156 313.24 143.24 326 127.5 326C111.76 326 99 313.24 99 297.5C99 281.76 111.76 269 127.5 269ZM127.767 322.996C134.163 322.931 139.993 320.511 144.436 316.562L127.767 299.893V322.996ZM109.661 315.72C113.648 319.624 118.911 322.229 124.767 322.854V300.615L109.661 315.72ZM146.557 314.44C150.253 310.285 152.612 304.914 152.955 299H131.116L146.557 314.44ZM102.045 299C102.363 304.475 104.407 309.485 107.643 313.496L122.14 299H102.045ZM129.382 296H152.955C152.587 289.651 149.896 283.926 145.72 279.661L129.382 296ZM108.438 280.563C104.743 284.718 102.388 290.089 102.045 296H123.874L108.438 280.563ZM127.767 293.372L143.496 277.642C139.186 274.165 133.721 272.064 127.767 272.003V293.372ZM124.767 272.146C119.341 272.724 114.423 275.004 110.559 278.441L124.767 292.649V272.146Z"/>
</mask>
<path d="M127.5 269C143.24 269 156 281.76 156 297.5C156 313.24 143.24 326 127.5 326C111.76 326 99 313.24 99 297.5C99 281.76 111.76 269 127.5 269ZM127.767 322.996C134.163 322.931 139.993 320.511 144.436 316.562L127.767 299.893V322.996ZM109.661 315.72C113.648 319.624 118.911 322.229 124.767 322.854V300.615L109.661 315.72ZM146.557 314.44C150.253 310.285 152.612 304.914 152.955 299H131.116L146.557 314.44ZM102.045 299C102.363 304.475 104.407 309.485 107.643 313.496L122.14 299H102.045ZM129.382 296H152.955C152.587 289.651 149.896 283.926 145.72 279.661L129.382 296ZM108.438 280.563C104.743 284.718 102.388 290.089 102.045 296H123.874L108.438 280.563ZM127.767 293.372L143.496 277.642C139.186 274.165 133.721 272.064 127.767 272.003V293.372ZM124.767 272.146C119.341 272.724 114.423 275.004 110.559 278.441L124.767 292.649V272.146Z" fill="#6B7C85"/>
<path d="M156 297.5H157H156ZM99 297.5L98 297.5L99 297.5ZM127.767 322.996H126.767V324.006L127.777 323.996L127.767 322.996ZM144.436 316.562L145.1 317.309L145.892 316.604L145.143 315.854L144.436 316.562ZM127.767 299.893L128.474 299.185L126.767 297.478V299.893H127.767ZM109.661 315.72L108.954 315.013L108.239 315.727L108.961 316.434L109.661 315.72ZM124.767 322.854L124.661 323.848L125.767 323.966V322.854H124.767ZM124.767 300.615H125.767V298.201L124.06 299.908L124.767 300.615ZM146.557 314.44L145.85 315.148L146.599 315.897L147.304 315.105L146.557 314.44ZM152.955 299L153.953 299.058L154.015 298H152.955V299ZM131.116 299V298H128.702L130.409 299.707L131.116 299ZM102.045 299V298H100.985L101.047 299.058L102.045 299ZM107.643 313.496L106.864 314.124L107.563 314.99L108.35 314.203L107.643 313.496ZM122.14 299L122.847 299.707L124.554 298H122.14V299ZM129.382 296L128.675 295.293L126.968 297H129.382V296ZM152.955 296V297H154.015L153.953 295.942L152.955 296ZM145.72 279.661L146.434 278.961L145.727 278.239L145.013 278.954L145.72 279.661ZM108.438 280.563L109.145 279.856L108.395 279.107L107.69 279.899L108.438 280.563ZM102.045 296L101.047 295.942L100.985 297H102.045V296ZM123.874 296V297H126.288L124.581 295.293L123.874 296ZM127.767 293.372H126.767V295.786L128.474 294.079L127.767 293.372ZM143.496 277.642L144.203 278.349L144.99 277.562L144.124 276.863L143.496 277.642ZM127.767 272.003L127.777 271.003L126.767 270.993V272.003H127.767ZM124.767 272.146H125.767V271.033L124.661 271.151L124.767 272.146ZM110.559 278.441L109.894 277.694L109.102 278.399L109.851 279.149L110.559 278.441ZM124.767 292.649L124.059 293.357L125.767 295.064V292.649H124.767ZM127.5 269V270C142.688 270 155 282.312 155 297.5H156H157C157 281.208 143.792 268 127.5 268V269ZM156 297.5L155 297.5C155 312.688 142.688 325 127.5 325V326V327C143.792 327 157 313.792 157 297.5L156 297.5ZM127.5 326V325C112.312 325 100 312.688 100 297.5L99 297.5L98 297.5C98 313.792 111.208 327 127.5 327V326ZM99 297.5H100C100 282.312 112.312 270 127.5 270V269V268C111.208 268 98 281.208 98 297.5H99ZM127.767 322.996L127.777 323.996C134.423 323.928 140.484 321.413 145.1 317.309L144.436 316.562L143.771 315.814C139.502 319.609 133.902 321.933 127.756 321.996L127.767 322.996ZM144.436 316.562L145.143 315.854L128.474 299.185L127.767 299.893L127.059 300.6L143.728 317.269L144.436 316.562ZM127.767 299.893H126.767V322.996H127.767H128.767V299.893H127.767ZM109.661 315.72L108.961 316.434C113.104 320.491 118.574 323.199 124.661 323.848L124.767 322.854L124.873 321.859C119.248 321.26 114.193 318.758 110.361 315.005L109.661 315.72ZM124.767 322.854H125.767V300.615H124.767H123.767V322.854H124.767ZM124.767 300.615L124.06 299.908L108.954 315.013L109.661 315.72L110.368 316.427L125.474 301.322L124.767 300.615ZM146.557 314.44L147.304 315.105C151.145 310.787 153.597 305.204 153.953 299.058L152.955 299L151.957 298.942C151.627 304.623 149.362 309.782 145.809 313.776L146.557 314.44ZM152.955 299V298H131.116V299V300H152.955V299ZM131.116 299L130.409 299.707L145.85 315.148L146.557 314.44L147.264 313.733L131.823 298.293L131.116 299ZM102.045 299L101.047 299.058C101.377 304.748 103.503 309.956 106.864 314.124L107.643 313.496L108.421 312.868C105.312 309.014 103.348 304.202 103.043 298.942L102.045 299ZM107.643 313.496L108.35 314.203L122.847 299.707L122.14 299L121.433 298.293L106.935 312.789L107.643 313.496ZM122.14 299V298H102.045V299V300H122.14V299ZM129.382 296V297H152.955V296V295H129.382V296ZM152.955 296L153.953 295.942C153.571 289.343 150.773 283.393 146.434 278.961L145.72 279.661L145.005 280.361C149.019 284.46 151.603 289.959 151.957 296.058L152.955 296ZM145.72 279.661L145.013 278.954L128.675 295.293L129.382 296L130.089 296.707L146.427 280.368L145.72 279.661ZM108.438 280.563L107.69 279.899C103.852 284.216 101.403 289.798 101.047 295.942L102.045 296L103.043 296.058C103.373 290.379 105.635 285.221 109.185 281.228L108.438 280.563ZM102.045 296V297H123.874V296V295H102.045V296ZM123.874 296L124.581 295.293L109.145 279.856L108.438 280.563L107.73 281.271L123.167 296.707L123.874 296ZM127.767 293.372L128.474 294.079L144.203 278.349L143.496 277.642L142.789 276.935L127.059 292.665L127.767 293.372ZM143.496 277.642L144.124 276.863C139.645 273.251 133.964 271.066 127.777 271.003L127.767 272.003L127.756 273.003C133.478 273.061 138.727 275.08 142.868 278.42L143.496 277.642ZM127.767 272.003H126.767V293.372H127.767H128.767V272.003H127.767ZM124.767 272.146L124.661 271.151C119.02 271.752 113.909 274.122 109.894 277.694L110.559 278.441L111.223 279.189C114.937 275.885 119.661 273.695 124.873 273.14L124.767 272.146ZM110.559 278.441L109.851 279.149L124.059 293.357L124.767 292.649L125.474 291.942L111.266 277.734L110.559 278.441ZM124.767 292.649H125.767V272.146H124.767H123.767V292.649H124.767Z" fill="black" mask="url(#path-12-outside-4_210_1763)"/>
<mask id="path-14-outside-5_210_1763" maskUnits="userSpaceOnUse" x="231" y="268" width="59" height="59" fill="black">
<rect fill="white" x="231" y="268" width="59" height="59"/>
<path d="M260.5 269C276.24 269 289 281.76 289 297.5C289 313.24 276.24 326 260.5 326C244.76 326 232 313.24 232 297.5C232 281.76 244.76 269 260.5 269ZM260.767 322.996C267.163 322.931 272.993 320.511 277.436 316.562L260.767 299.893V322.996ZM242.661 315.72C246.648 319.624 251.911 322.229 257.767 322.854V300.615L242.661 315.72ZM279.557 314.44C283.253 310.285 285.612 304.914 285.955 299H264.116L279.557 314.44ZM235.045 299C235.363 304.475 237.407 309.485 240.643 313.496L255.14 299H235.045ZM262.382 296H285.955C285.587 289.651 282.896 283.926 278.72 279.661L262.382 296ZM241.438 280.563C237.743 284.718 235.388 290.089 235.045 296H256.874L241.438 280.563ZM260.767 293.372L276.496 277.642C272.186 274.165 266.721 272.064 260.767 272.003V293.372ZM257.767 272.146C252.341 272.724 247.423 275.004 243.559 278.441L257.767 292.649V272.146Z"/>
</mask>
<path d="M260.5 269C276.24 269 289 281.76 289 297.5C289 313.24 276.24 326 260.5 326C244.76 326 232 313.24 232 297.5C232 281.76 244.76 269 260.5 269ZM260.767 322.996C267.163 322.931 272.993 320.511 277.436 316.562L260.767 299.893V322.996ZM242.661 315.72C246.648 319.624 251.911 322.229 257.767 322.854V300.615L242.661 315.72ZM279.557 314.44C283.253 310.285 285.612 304.914 285.955 299H264.116L279.557 314.44ZM235.045 299C235.363 304.475 237.407 309.485 240.643 313.496L255.14 299H235.045ZM262.382 296H285.955C285.587 289.651 282.896 283.926 278.72 279.661L262.382 296ZM241.438 280.563C237.743 284.718 235.388 290.089 235.045 296H256.874L241.438 280.563ZM260.767 293.372L276.496 277.642C272.186 274.165 266.721 272.064 260.767 272.003V293.372ZM257.767 272.146C252.341 272.724 247.423 275.004 243.559 278.441L257.767 292.649V272.146Z" fill="#6B7C85"/>
<path d="M289 297.5H290H289ZM232 297.5L231 297.5L232 297.5ZM260.767 322.996H259.767V324.006L260.777 323.996L260.767 322.996ZM277.436 316.562L278.1 317.309L278.892 316.604L278.143 315.854L277.436 316.562ZM260.767 299.893L261.474 299.185L259.767 297.478V299.893H260.767ZM242.661 315.72L241.954 315.013L241.239 315.727L241.961 316.434L242.661 315.72ZM257.767 322.854L257.661 323.848L258.767 323.966V322.854H257.767ZM257.767 300.615H258.767V298.201L257.06 299.908L257.767 300.615ZM279.557 314.44L278.85 315.148L279.599 315.897L280.304 315.105L279.557 314.44ZM285.955 299L286.953 299.058L287.015 298H285.955V299ZM264.116 299V298H261.702L263.409 299.707L264.116 299ZM235.045 299V298H233.985L234.047 299.058L235.045 299ZM240.643 313.496L239.864 314.124L240.563 314.99L241.35 314.203L240.643 313.496ZM255.14 299L255.847 299.707L257.554 298H255.14V299ZM262.382 296L261.675 295.293L259.968 297H262.382V296ZM285.955 296V297H287.015L286.953 295.942L285.955 296ZM278.72 279.661L279.434 278.961L278.727 278.239L278.013 278.954L278.72 279.661ZM241.438 280.563L242.145 279.856L241.395 279.107L240.69 279.899L241.438 280.563ZM235.045 296L234.047 295.942L233.985 297H235.045V296ZM256.874 296V297H259.288L257.581 295.293L256.874 296ZM260.767 293.372H259.767V295.786L261.474 294.079L260.767 293.372ZM276.496 277.642L277.203 278.349L277.99 277.562L277.124 276.863L276.496 277.642ZM260.767 272.003L260.777 271.003L259.767 270.993V272.003H260.767ZM257.767 272.146H258.767V271.033L257.661 271.151L257.767 272.146ZM243.559 278.441L242.894 277.694L242.102 278.399L242.851 279.149L243.559 278.441ZM257.767 292.649L257.059 293.357L258.767 295.064V292.649H257.767ZM260.5 269V270C275.688 270 288 282.312 288 297.5H289H290C290 281.208 276.792 268 260.5 268V269ZM289 297.5L288 297.5C288 312.688 275.688 325 260.5 325V326V327C276.792 327 290 313.792 290 297.5L289 297.5ZM260.5 326V325C245.312 325 233 312.688 233 297.5L232 297.5L231 297.5C231 313.792 244.208 327 260.5 327V326ZM232 297.5H233C233 282.312 245.312 270 260.5 270V269V268C244.208 268 231 281.208 231 297.5H232ZM260.767 322.996L260.777 323.996C267.423 323.928 273.484 321.413 278.1 317.309L277.436 316.562L276.771 315.814C272.502 319.609 266.902 321.933 260.756 321.996L260.767 322.996ZM277.436 316.562L278.143 315.854L261.474 299.185L260.767 299.893L260.059 300.6L276.728 317.269L277.436 316.562ZM260.767 299.893H259.767V322.996H260.767H261.767V299.893H260.767ZM242.661 315.72L241.961 316.434C246.104 320.491 251.574 323.199 257.661 323.848L257.767 322.854L257.873 321.859C252.248 321.26 247.193 318.758 243.361 315.005L242.661 315.72ZM257.767 322.854H258.767V300.615H257.767H256.767V322.854H257.767ZM257.767 300.615L257.06 299.908L241.954 315.013L242.661 315.72L243.368 316.427L258.474 301.322L257.767 300.615ZM279.557 314.44L280.304 315.105C284.145 310.787 286.597 305.204 286.953 299.058L285.955 299L284.957 298.942C284.627 304.623 282.362 309.782 278.809 313.776L279.557 314.44ZM285.955 299V298H264.116V299V300H285.955V299ZM264.116 299L263.409 299.707L278.85 315.148L279.557 314.44L280.264 313.733L264.823 298.293L264.116 299ZM235.045 299L234.047 299.058C234.377 304.748 236.503 309.956 239.864 314.124L240.643 313.496L241.421 312.868C238.312 309.014 236.348 304.202 236.043 298.942L235.045 299ZM240.643 313.496L241.35 314.203L255.847 299.707L255.14 299L254.433 298.293L239.935 312.789L240.643 313.496ZM255.14 299V298H235.045V299V300H255.14V299ZM262.382 296V297H285.955V296V295H262.382V296ZM285.955 296L286.953 295.942C286.571 289.343 283.773 283.393 279.434 278.961L278.72 279.661L278.005 280.361C282.019 284.46 284.603 289.959 284.957 296.058L285.955 296ZM278.72 279.661L278.013 278.954L261.675 295.293L262.382 296L263.089 296.707L279.427 280.368L278.72 279.661ZM241.438 280.563L240.69 279.899C236.852 284.216 234.403 289.798 234.047 295.942L235.045 296L236.043 296.058C236.373 290.379 238.635 285.221 242.185 281.228L241.438 280.563ZM235.045 296V297H256.874V296V295H235.045V296ZM256.874 296L257.581 295.293L242.145 279.856L241.438 280.563L240.73 281.271L256.167 296.707L256.874 296ZM260.767 293.372L261.474 294.079L277.203 278.349L276.496 277.642L275.789 276.935L260.059 292.665L260.767 293.372ZM276.496 277.642L277.124 276.863C272.645 273.251 266.964 271.066 260.777 271.003L260.767 272.003L260.756 273.003C266.478 273.061 271.727 275.08 275.868 278.42L276.496 277.642ZM260.767 272.003H259.767V293.372H260.767H261.767V272.003H260.767ZM257.767 272.146L257.661 271.151C252.02 271.752 246.909 274.122 242.894 277.694L243.559 278.441L244.223 279.189C247.937 275.885 252.661 273.695 257.873 273.14L257.767 272.146ZM243.559 278.441L242.851 279.149L257.059 293.357L257.767 292.649L258.474 291.942L244.266 277.734L243.559 278.441ZM257.767 292.649H258.767V272.146H257.767H256.767V292.649H257.767Z" fill="black" mask="url(#path-14-outside-5_210_1763)"/>
<mask id="path-16-outside-6_210_1763" maskUnits="userSpaceOnUse" x="295" y="268" width="59" height="59" fill="black">
<rect fill="white" x="295" y="268" width="59" height="59"/>
<path d="M324.5 269C340.24 269 353 281.76 353 297.5C353 313.24 340.24 326 324.5 326C308.76 326 296 313.24 296 297.5C296 281.76 308.76 269 324.5 269ZM324.767 322.996C331.163 322.931 336.993 320.511 341.436 316.562L324.767 299.893V322.996ZM306.661 315.72C310.648 319.624 315.911 322.229 321.767 322.854V300.615L306.661 315.72ZM343.557 314.44C347.253 310.285 349.612 304.914 349.955 299H328.116L343.557 314.44ZM299.045 299C299.363 304.475 301.407 309.485 304.643 313.496L319.14 299H299.045ZM326.382 296H349.955C349.587 289.651 346.896 283.926 342.72 279.661L326.382 296ZM305.438 280.563C301.743 284.718 299.388 290.089 299.045 296H320.874L305.438 280.563ZM324.767 293.372L340.496 277.642C336.186 274.165 330.721 272.064 324.767 272.003V293.372ZM321.767 272.146C316.341 272.724 311.423 275.004 307.559 278.441L321.767 292.649V272.146Z"/>
</mask>
<path d="M324.5 269C340.24 269 353 281.76 353 297.5C353 313.24 340.24 326 324.5 326C308.76 326 296 313.24 296 297.5C296 281.76 308.76 269 324.5 269ZM324.767 322.996C331.163 322.931 336.993 320.511 341.436 316.562L324.767 299.893V322.996ZM306.661 315.72C310.648 319.624 315.911 322.229 321.767 322.854V300.615L306.661 315.72ZM343.557 314.44C347.253 310.285 349.612 304.914 349.955 299H328.116L343.557 314.44ZM299.045 299C299.363 304.475 301.407 309.485 304.643 313.496L319.14 299H299.045ZM326.382 296H349.955C349.587 289.651 346.896 283.926 342.72 279.661L326.382 296ZM305.438 280.563C301.743 284.718 299.388 290.089 299.045 296H320.874L305.438 280.563ZM324.767 293.372L340.496 277.642C336.186 274.165 330.721 272.064 324.767 272.003V293.372ZM321.767 272.146C316.341 272.724 311.423 275.004 307.559 278.441L321.767 292.649V272.146Z" fill="#6B7C85"/>
<path d="M353 297.5H354H353ZM296 297.5L295 297.5L296 297.5ZM324.767 322.996H323.767V324.006L324.777 323.996L324.767 322.996ZM341.436 316.562L342.1 317.309L342.892 316.604L342.143 315.854L341.436 316.562ZM324.767 299.893L325.474 299.185L323.767 297.478V299.893H324.767ZM306.661 315.72L305.954 315.013L305.239 315.727L305.961 316.434L306.661 315.72ZM321.767 322.854L321.661 323.848L322.767 323.966V322.854H321.767ZM321.767 300.615H322.767V298.201L321.06 299.908L321.767 300.615ZM343.557 314.44L342.85 315.148L343.599 315.897L344.304 315.105L343.557 314.44ZM349.955 299L350.953 299.058L351.015 298H349.955V299ZM328.116 299V298H325.702L327.409 299.707L328.116 299ZM299.045 299V298H297.985L298.047 299.058L299.045 299ZM304.643 313.496L303.864 314.124L304.563 314.99L305.35 314.203L304.643 313.496ZM319.14 299L319.847 299.707L321.554 298H319.14V299ZM326.382 296L325.675 295.293L323.968 297H326.382V296ZM349.955 296V297H351.015L350.953 295.942L349.955 296ZM342.72 279.661L343.434 278.961L342.727 278.239L342.013 278.954L342.72 279.661ZM305.438 280.563L306.145 279.856L305.395 279.107L304.69 279.899L305.438 280.563ZM299.045 296L298.047 295.942L297.985 297H299.045V296ZM320.874 296V297H323.288L321.581 295.293L320.874 296ZM324.767 293.372H323.767V295.786L325.474 294.079L324.767 293.372ZM340.496 277.642L341.203 278.349L341.99 277.562L341.124 276.863L340.496 277.642ZM324.767 272.003L324.777 271.003L323.767 270.993V272.003H324.767ZM321.767 272.146H322.767V271.033L321.661 271.151L321.767 272.146ZM307.559 278.441L306.894 277.694L306.102 278.399L306.851 279.149L307.559 278.441ZM321.767 292.649L321.059 293.357L322.767 295.064V292.649H321.767ZM324.5 269V270C339.688 270 352 282.312 352 297.5H353H354C354 281.208 340.792 268 324.5 268V269ZM353 297.5L352 297.5C352 312.688 339.688 325 324.5 325V326V327C340.792 327 354 313.792 354 297.5L353 297.5ZM324.5 326V325C309.312 325 297 312.688 297 297.5L296 297.5L295 297.5C295 313.792 308.208 327 324.5 327V326ZM296 297.5H297C297 282.312 309.312 270 324.5 270V269V268C308.208 268 295 281.208 295 297.5H296ZM324.767 322.996L324.777 323.996C331.423 323.928 337.484 321.413 342.1 317.309L341.436 316.562L340.771 315.814C336.502 319.609 330.902 321.933 324.756 321.996L324.767 322.996ZM341.436 316.562L342.143 315.854L325.474 299.185L324.767 299.893L324.059 300.6L340.728 317.269L341.436 316.562ZM324.767 299.893H323.767V322.996H324.767H325.767V299.893H324.767ZM306.661 315.72L305.961 316.434C310.104 320.491 315.574 323.199 321.661 323.848L321.767 322.854L321.873 321.859C316.248 321.26 311.193 318.758 307.361 315.005L306.661 315.72ZM321.767 322.854H322.767V300.615H321.767H320.767V322.854H321.767ZM321.767 300.615L321.06 299.908L305.954 315.013L306.661 315.72L307.368 316.427L322.474 301.322L321.767 300.615ZM343.557 314.44L344.304 315.105C348.145 310.787 350.597 305.204 350.953 299.058L349.955 299L348.957 298.942C348.627 304.623 346.362 309.782 342.809 313.776L343.557 314.44ZM349.955 299V298H328.116V299V300H349.955V299ZM328.116 299L327.409 299.707L342.85 315.148L343.557 314.44L344.264 313.733L328.823 298.293L328.116 299ZM299.045 299L298.047 299.058C298.377 304.748 300.503 309.956 303.864 314.124L304.643 313.496L305.421 312.868C302.312 309.014 300.348 304.202 300.043 298.942L299.045 299ZM304.643 313.496L305.35 314.203L319.847 299.707L319.14 299L318.433 298.293L303.935 312.789L304.643 313.496ZM319.14 299V298H299.045V299V300H319.14V299ZM326.382 296V297H349.955V296V295H326.382V296ZM349.955 296L350.953 295.942C350.571 289.343 347.773 283.393 343.434 278.961L342.72 279.661L342.005 280.361C346.019 284.46 348.603 289.959 348.957 296.058L349.955 296ZM342.72 279.661L342.013 278.954L325.675 295.293L326.382 296L327.089 296.707L343.427 280.368L342.72 279.661ZM305.438 280.563L304.69 279.899C300.852 284.216 298.403 289.798 298.047 295.942L299.045 296L300.043 296.058C300.373 290.379 302.635 285.221 306.185 281.228L305.438 280.563ZM299.045 296V297H320.874V296V295H299.045V296ZM320.874 296L321.581 295.293L306.145 279.856L305.438 280.563L304.73 281.271L320.167 296.707L320.874 296ZM324.767 293.372L325.474 294.079L341.203 278.349L340.496 277.642L339.789 276.935L324.059 292.665L324.767 293.372ZM340.496 277.642L341.124 276.863C336.645 273.251 330.964 271.066 324.777 271.003L324.767 272.003L324.756 273.003C330.478 273.061 335.727 275.08 339.868 278.42L340.496 277.642ZM324.767 272.003H323.767V293.372H324.767H325.767V272.003H324.767ZM321.767 272.146L321.661 271.151C316.02 271.752 310.909 274.122 306.894 277.694L307.559 278.441L308.223 279.189C311.937 275.885 316.661 273.695 321.873 273.14L321.767 272.146ZM307.559 278.441L306.851 279.149L321.059 293.357L321.767 292.649L322.474 291.942L308.266 277.734L307.559 278.441ZM321.767 292.649H322.767V272.146H321.767H320.767V292.649H321.767Z" fill="black" mask="url(#path-16-outside-6_210_1763)"/>
<rect x="10" y="55" width="365" height="97" rx="31" fill="#C8CFD6" stroke="black"/>
<path d="M10 87H375V237C375 258.539 357.539 276 336 276H49C27.4609 276 10 258.539 10 237V87Z" fill="#09BF88"/>
<path d="M10 87H375V237C375 258.539 357.539 276 336 276H49C27.4609 276 10 258.539 10 237V87Z" fill="#09BF88"/>
<path d="M10 87H375V237C375 258.539 357.539 276 336 276H49C27.4609 276 10 258.539 10 237V87Z" stroke="black"/>
<path d="M10 202H375V276H10V202Z" fill="#0CA677" stroke="black"/>
<rect x="18.5" y="106.5" width="74" height="158" fill="#0CA677" stroke="black"/>
<rect x="37.5" y="130.5" width="37" height="58" fill="#6B7C85" stroke="black"/>
<rect x="115.5" y="115.5" width="47" height="73" fill="#FFEEC1" stroke="black"/>
<rect x="297.5" y="115.5" width="47" height="73" fill="#FFEEC1" stroke="black"/>
<rect x="182.5" y="115.5" width="95" height="73" fill="#FFEEC1" stroke="black"/>
<path d="M217.252 161.57C216.759 159.593 214.05 159.343 213.203 161.196L211.621 164.657C211.318 165.321 210.627 165.718 209.9 165.648L201.468 164.836L200.068 164.701L201.068 165.689L205.964 170.525L205.578 175.447C202.392 177.746 200.498 181.439 200.498 185.377L200.498 189.5L223.584 189.5L223.407 188.866L220.541 178.586L220.591 178.512C221.817 176.672 221.956 174.315 220.954 172.345C219.994 170.458 217.184 170.884 216.827 172.971L216.594 174.333C216.519 174.768 216.509 175.212 216.564 175.649L217.358 181.943C216.311 180.234 215.064 178.652 213.643 177.231L211.921 175.511L211.921 172.716C211.921 172.134 212.393 171.662 212.975 171.662C215.203 171.662 217.019 169.871 217.049 167.643L217.062 166.712L218.277 166.481L219.14 166.317L218.56 165.659L217.099 164.002C217.078 163.978 217.07 163.945 217.08 163.915L217.185 163.591C217.395 162.937 217.418 162.237 217.252 161.57Z" fill="#2C404F" stroke="black"/>
<path d="M249.546 152.151C253.886 156.603 254.183 163.606 250.236 168.409L248.176 170.914L249.621 175.52L250.866 176.532C253.524 178.693 255.874 181.209 257.849 184.008L260.584 187.884L261.11 188.63L260.198 188.672L238.784 189.652L238.147 189.681L238.27 189.055L238.519 187.8C239.105 184.831 240.594 182.119 242.775 180.029L240.974 176.193C240.762 175.741 240.332 175.43 239.837 175.368C237.124 175.028 235.188 172.571 235.492 169.854L235.547 169.357L234.234 168.93L233.408 168.661L234.055 168.082L235.854 166.473C235.894 166.437 235.912 166.383 235.902 166.33C235.722 165.358 235.815 164.354 236.169 163.431L236.551 162.433C237.373 160.29 239.598 159.052 241.83 159.454L248.828 152.154L249.185 151.78L249.546 152.151Z" fill="#2C404F" stroke="black"/>
<path d="M128.535 125.643L129.353 128.402C129.669 129.465 130.07 130.501 130.554 131.5L134.277 139.192L132.812 143.864L131.566 144.877C128.908 147.038 126.558 149.554 124.583 152.353L121.848 156.23L121.745 156.374L121.758 156.552L124.001 189.035L124.033 189.5L124.499 189.5L145.5 189.5L146.076 189.5L145.994 188.929L143.528 171.668L151.039 189.197L151.169 189.499L151.499 189.499L160.498 189.5L161.295 189.5L160.949 188.783L144.998 155.65C143.681 152.915 141.869 150.449 139.657 148.372L141.515 144.416C141.692 144.04 142.048 143.781 142.46 143.729C145.151 143.393 146.911 140.739 146.174 138.128L144.784 133.201C143.647 129.174 140.183 126.237 136.024 125.775L129.069 125.003L128.32 124.919L128.535 125.643Z" fill="#2C404F" stroke="black"/>
<path d="M187 148.5H273" stroke="black" stroke-linecap="round" stroke-linejoin="round"/>
<path d="M300 148H342" stroke="black" stroke-linecap="round" stroke-linejoin="round"/>
<path d="M115 148H160" stroke="black" stroke-linecap="round" stroke-linejoin="round"/>
<path d="M195.476 146.5L195.181 152.476L195.18 152.49V152.504L195.495 188.5H180.5V146.5H195.476Z" fill="white" stroke="black"/>
<path d="M135.382 146.5L134.126 152.396L134.113 152.457L134.116 152.519L135.48 188.5H118.52L119.884 152.019L119.887 151.952L119.872 151.888L118.629 146.5H135.382Z" fill="white" stroke="black"/>
<path d="M123.5 152L123 188M125.25 152L126 188" stroke="black" stroke-linecap="round" stroke-linejoin="round"/>
<path d="M339.5 146.5V188.5H296V152.513L296.463 146.5H339.5Z" fill="white" stroke="black"/>
<path d="M259.53 146.5L259.877 152.471L259.878 152.488V152.505L259.505 188.5H275.5V146.5H259.53Z" fill="white" stroke="black"/>
<path d="M260 151.5H276M194.5 151.5H180.5" stroke="black" stroke-linecap="round" stroke-linejoin="round"/>
<path d="M134 151H120" stroke="black" stroke-linecap="round" stroke-linejoin="round"/>
<path d="M339 151H297" stroke="black" stroke-linecap="round" stroke-linejoin="round"/>
<mask id="path-40-outside-7_210_1763" maskUnits="userSpaceOnUse" x="113" y="115" width="232" height="76" fill="black">
<rect fill="white" x="113" y="115" width="232" height="76"/>
<path d="M162 190H114V116H162V190ZM277 190H181V116H277V190ZM344 190H296V116H344V190ZM115 189H161V117H115V189ZM182 189H276V117H182V189ZM297 189H343V117H297V189Z"/>
</mask>
<path d="M162 190H114V116H162V190ZM277 190H181V116H277V190ZM344 190H296V116H344V190ZM115 189H161V117H115V189ZM182 189H276V117H182V189ZM297 189H343V117H297V189Z" fill="#C6826D"/>
<path d="M162 190V191H163V190H162ZM114 190H113V191H114V190ZM114 116V115H113V116H114ZM162 116H163V115H162V116ZM277 190V191H278V190H277ZM181 190H180V191H181V190ZM181 116V115H180V116H181ZM277 116H278V115H277V116ZM344 190V191H345V190H344ZM296 190H295V191H296V190ZM296 116V115H295V116H296ZM344 116H345V115H344V116ZM115 189H114V190H115V189ZM161 189V190H162V189H161ZM161 117H162V116H161V117ZM115 117V116H114V117H115ZM182 189H181V190H182V189ZM276 189V190H277V189H276ZM276 117H277V116H276V117ZM182 117V116H181V117H182ZM297 189H296V190H297V189ZM343 189V190H344V189H343ZM343 117H344V116H343V117ZM297 117V116H296V117H297ZM162 190V189H114V190V191H162V190ZM114 190H115V116H114H113V190H114ZM114 116V117H162V116V115H114V116ZM162 116H161V190H162H163V116H162ZM277 190V189H181V190V191H277V190ZM181 190H182V116H181H180V190H181ZM181 116V117H277V116V115H181V116ZM277 116H276V190H277H278V116H277ZM344 190V189H296V190V191H344V190ZM296 190H297V116H296H295V190H296ZM296 116V117H344V116V115H296V116ZM344 116H343V190H344H345V116H344ZM115 189V190H161V189V188H115V189ZM161 189H162V117H161H160V189H161ZM161 117V116H115V117V118H161V117ZM115 117H114V189H115H116V117H115ZM182 189V190H276V189V188H182V189ZM276 189H277V117H276H275V189H276ZM276 117V116H182V117V118H276V117ZM182 117H181V189H182H183V117H182ZM297 189V190H343V189V188H297V189ZM343 189H344V117H343H342V189H343ZM343 117V116H297V117V118H343V117ZM297 117H296V189H297H298V117H297Z" fill="black" mask="url(#path-40-outside-7_210_1763)"/>
<mask id="path-42-inside-8_210_1763" fill="white">
<path d="M93 261V318H88V305H23V318H18V261H93ZM23 285V300H88V285H23ZM23 266V280H88V266H23Z"/>
</mask>
<path d="M93 261V318H88V305H23V318H18V261H93ZM23 285V300H88V285H23ZM23 266V280H88V266H23Z" fill="#C8CFD6"/>
<path d="M93 261H94V260H93V261ZM93 318V319H94V318H93ZM88 318H87V319H88V318ZM88 305H89V304H88V305ZM23 305V304H22V305H23ZM23 318V319H24V318H23ZM18 318H17V319H18V318ZM18 261V260H17V261H18ZM23 285V284H22V285H23ZM23 300H22V301H23V300ZM88 300V301H89V300H88ZM88 285H89V284H88V285ZM23 266V265H22V266H23ZM23 280H22V281H23V280ZM88 280V281H89V280H88ZM88 266H89V265H88V266ZM93 261H92V318H93H94V261H93ZM93 318V317H88V318V319H93V318ZM88 318H89V305H88H87V318H88ZM88 305V304H23V305V306H88V305ZM23 305H22V318H23H24V305H23ZM23 318V317H18V318V319H23V318ZM18 318H19V261H18H17V318H18ZM18 261V262H93V261V260H18V261ZM23 285H22V300H23H24V285H23ZM23 300V301H88V300V299H23V300ZM88 300H89V285H88H87V300H88ZM88 285V284H23V285V286H88V285ZM23 266H22V280H23H24V266H23ZM23 280V281H88V280V279H23V280ZM88 280H89V266H88H87V280H88ZM88 266V265H23V266V267H88V266Z" fill="black" mask="url(#path-42-inside-8_210_1763)"/>
<mask id="path-44-inside-9_210_1763" fill="white">
<path d="M83.5928 197.851C85.6438 198.401 86.8609 200.509 86.3114 202.56C85.7618 204.611 83.6537 205.828 81.6026 205.279C80.7597 205.053 80.0581 204.563 79.5617 203.923L66.7876 202.591C66.2978 202.894 65.6903 203.005 65.0898 202.845C63.9362 202.536 63.2512 201.35 63.56 200.196C63.8692 199.043 65.0555 198.358 66.2093 198.667C66.4735 198.738 66.7119 198.856 66.9206 199.008L79.8082 198.917C80.7472 197.929 82.1839 197.474 83.5928 197.851Z"/>
</mask>
<path d="M83.5928 197.851C85.6438 198.401 86.8609 200.509 86.3114 202.56C85.7618 204.611 83.6537 205.828 81.6026 205.279C80.7597 205.053 80.0581 204.563 79.5617 203.923L66.7876 202.591C66.2978 202.894 65.6903 203.005 65.0898 202.845C63.9362 202.536 63.2512 201.35 63.56 200.196C63.8692 199.043 65.0555 198.358 66.2093 198.667C66.4735 198.738 66.7119 198.856 66.9206 199.008L79.8082 198.917C80.7472 197.929 82.1839 197.474 83.5928 197.851Z" fill="#C8CFD6"/>
<path d="M83.5928 197.851L83.8516 196.885L83.8515 196.885L83.5928 197.851ZM86.3114 202.56L87.2773 202.819L87.2774 202.819L86.3114 202.56ZM81.6026 205.279L81.3437 206.244L81.3438 206.244L81.6026 205.279ZM79.5617 203.923L80.3519 203.31L80.0902 202.973L79.6654 202.928L79.5617 203.923ZM66.7876 202.591L66.8913 201.596L66.5512 201.561L66.2606 201.741L66.7876 202.591ZM65.0898 202.845L64.831 203.811L64.8312 203.811L65.0898 202.845ZM63.56 200.196L62.5941 199.938L62.594 199.938L63.56 200.196ZM66.2093 198.667L66.4682 197.701L66.4681 197.701L66.2093 198.667ZM66.9206 199.008L66.3321 199.817L66.5984 200.01L66.9277 200.008L66.9206 199.008ZM79.8082 198.917L79.8152 199.917L80.2401 199.914L80.5328 199.606L79.8082 198.917ZM83.5928 197.851L83.334 198.817C84.8515 199.224 85.7521 200.783 85.3455 202.301L86.3114 202.56L87.2774 202.819C87.9698 200.234 86.4361 197.578 83.8516 196.885L83.5928 197.851ZM86.3114 202.56L85.3455 202.301C84.9388 203.819 83.379 204.719 81.8614 204.313L81.6026 205.279L81.3438 206.244C83.9283 206.937 86.5848 205.403 87.2773 202.819L86.3114 202.56ZM81.6026 205.279L81.8615 204.313C81.2371 204.145 80.7195 203.784 80.3519 203.31L79.5617 203.923L78.7714 204.536C79.3967 205.342 80.2822 205.96 81.3437 206.244L81.6026 205.279ZM79.5617 203.923L79.6654 202.928L66.8913 201.596L66.7876 202.591L66.6839 203.585L79.458 204.917L79.5617 203.923ZM66.7876 202.591L66.2606 201.741C65.9927 201.907 65.6681 201.964 65.3485 201.879L65.0898 202.845L64.8312 203.811C65.7125 204.047 66.603 203.882 67.3145 203.441L66.7876 202.591ZM65.0898 202.845L65.3486 201.879C64.7282 201.712 64.3601 201.075 64.526 200.455L63.56 200.196L62.594 199.938C62.1423 201.625 63.1443 203.359 64.831 203.811L65.0898 202.845ZM63.56 200.196L64.526 200.455C64.6922 199.835 65.3302 199.467 65.9504 199.633L66.2093 198.667L66.4681 197.701C64.7809 197.249 63.0462 198.25 62.5941 199.938L63.56 200.196ZM66.2093 198.667L65.9503 199.633C66.0892 199.67 66.2168 199.733 66.3321 199.817L66.9206 199.008L67.509 198.2C67.2069 197.98 66.8578 197.805 66.4682 197.701L66.2093 198.667ZM66.9206 199.008L66.9277 200.008L79.8152 199.917L79.8082 198.917L79.8011 197.917L66.9135 198.008L66.9206 199.008ZM79.8082 198.917L80.5328 199.606C81.2293 198.873 82.2924 198.538 83.334 198.817L83.5928 197.851L83.8515 196.885C82.0754 196.409 80.2652 196.985 79.0835 198.228L79.8082 198.917Z" fill="black" mask="url(#path-44-inside-9_210_1763)"/>
<circle cx="82.3027" cy="201.735" r="1.66271" transform="rotate(15 82.3027 201.735)" fill="#C8CFD6" stroke="black"/>
<path d="M115 115V87M161.796 115V87M181.709 115V87M276.296 115V87M297.204 115V87M344 115V87" stroke="black" stroke-linecap="round" stroke-linejoin="round"/>
<rect x="97" y="205" width="275" height="67" stroke="black" stroke-linecap="round" stroke-linejoin="round" stroke-dasharray="0.3 5"/>
</g>
<defs>
<clipPath id="clip0_210_1763">
<rect width="384" height="384" fill="white"/>
</clipPath>
</defs>
</svg>
